<?xml version="1.0" encoding="utf-8"?>
<!-- Generator: Adobe Illustrator 24.1.3, SVG Export Plug-In . SVG Version: 6.00 Build 0)  -->
<svg version="1.1" id="Layer_1" xmlns="http://www.w3.org/2000/svg" xmlns:xlink="http://www.w3.org/1999/xlink" x="0px" y="0px"
	 viewBox="0 0 427.49 144.27" style="enable-background:new 0 0 427.49 144.27;" xml:space="preserve">
<style type="text/css">
	.st0{fill:none;}
	.st1{fill:#F8B700;}
	.st2{fill:#F2F2F2;}
	.st3{fill:#33C0EE;}
	.st4{fill:#E4241A;}
	.st5{fill:#808080;}
	.st6{fill:#36B243;}
	.st7{fill:#CF6EAC;}
	.st8{fill:#0C070A;}
</style>
<path class="st0" d="M167.62,15.25c-0.17-0.01-0.43,0.01-0.74,0.05C167.12,15.29,167.37,15.27,167.62,15.25z"/>
<path class="st0" d="M40.79,70.87c-0.13-0.05-0.23-0.12-0.34-0.18C40.55,70.76,40.66,70.82,40.79,70.87z"/>
<path class="st0" d="M273.77,71.86c0.15,0.02,0.24,0.04,0.26,0.04c-0.11-0.02-0.21-0.08-0.31-0.14
	C273.74,71.8,273.76,71.83,273.77,71.86z"/>
<path class="st0" d="M272.91,70.32c0.11,0.17,0.3,0.49,0.5,0.84C273.29,70.86,273.09,70.6,272.91,70.32z"/>
<path class="st0" d="M228.02,21.61c-0.04,0-0.09,0-0.13-0.01c-3.95-0.02-7.9-0.03-11.85-0.05c3.95,0.01,7.9,0.03,11.86,0.05
	C227.92,21.63,227.97,21.63,228.02,21.61z"/>
<path class="st0" d="M217.03,82.95c-0.12-1.16-0.19-2.32-0.23-3.48c-0.03-0.59-0.01-1.18,0.01-1.77c-0.01,0.12-0.03,0.22-0.03,0.34
	c-0.01,0.69-0.05,1.38-0.02,2.07c0.05,1.13,0.11,2.26,0.23,3.39c1.06,10,4.97,17.68,15.27,21.39c2.1,0.75,4.18,1.14,6.21,1.21
	c-1.89-0.13-3.82-0.51-5.76-1.21C222.13,101.1,218.12,93.21,217.03,82.95z"/>
<path class="st0" d="M42.02,66.91c-0.38-0.12-0.7-0.22-0.96-0.12C41.45,66.8,41.81,66.85,42.02,66.91z"/>
<path class="st0" d="M37.16,129.4c0.05-0.75,0.15-1.5,0.13-2.26C37.31,127.9,37.21,128.65,37.16,129.4
	C37.16,129.4,37.16,129.4,37.16,129.4z"/>
<path class="st0" d="M129.07,134.45c-0.26-0.67-0.49-1.44-1.23-1.81c-0.68-4.38-0.98-8.8-1.35-13.22c0.37,4.41,0.67,8.83,1.35,13.22
	C128.58,133.01,128.81,133.78,129.07,134.45z"/>
<path class="st0" d="M298.19,121.88c-1.32,5.1-2.54,10.24-3.82,15.35c-0.47,2.35-0.94,4.69-1.4,7.04h0c0.47-2.34,0.93-4.69,1.4-7.03
	C295.66,132.12,296.87,126.99,298.19,121.88z"/>
<path class="st0" d="M201.45,61.62c0.01,0.01,0.03,0.01,0.04,0.02c-0.02-0.01-0.04-0.02-0.06-0.03
	C201.44,61.61,201.44,61.61,201.45,61.62z"/>
<path class="st0" d="M37.17,130.26c-0.05,1.42-0.4,2.8-0.81,4.14C36.77,133.06,37.12,131.69,37.17,130.26z"/>
<path class="st1" d="M307.16,69.28c-0.99,5.7-1.52,7.1,1.29,7.77c1.87,0.59,3.44,1.02,4.96,1.58c0.9,0.32,1.61,0.77,2.14,1.33
	c1.67-3.14,2.71-6.58,2.98-10.25c0.16-2.14,0.41-4.37-0.22-6.34c-1.39-4.4-3.39-8.57-5.86-12.49c-0.56-0.9-1.1-1.82-1.64-2.73
	c-0.53,2.94-1.13,5.87-1.6,8.81C308.56,60.96,307.91,64.97,307.16,69.28z"/>
<path class="st1" d="M128.18,144.27h0.22c-0.07-0.06-0.13-0.14-0.22-0.19C128.18,144.14,128.18,144.2,128.18,144.27z"/>
<path class="st1" d="M122.16,63.43c-0.24-4.61-0.61-9.21-0.88-13.81c-0.46-7.88-1.27-15.76-0.66-23.68
	c0.35-4.59,1.79-6.18,6.35-6.96c0.5-0.09,0.99-0.16,1.49-0.23c5.86-0.7,11.72-1.39,17.57-2.08l0.11,0.02l0.09-0.07
	c2.14,0.13,4.25-0.25,6.38-0.39c4.76-0.31,9.51-0.61,14.27-0.92c0.32-0.04,0.57-0.05,0.74-0.05c0,0,0,0,0,0
	c5.66,0.12,11.31-0.14,16.96-0.4c1.88-0.09,3.77-0.17,5.65-0.25c14.51-0.56,29.02-0.68,43.53-0.18c2.77,0.09,5.53,0.22,8.29,0.33
	c-0.86-0.91-2.09-1.25-3.04-2.09c-2.84-2.53-6.26-4.27-9.74-5.57c-3.29-1.23-6.73-2.38-10.31-2.67c-3.76-0.31-7.53-0.86-11.28-0.56
	c-4.39,0.34-8.73,1.08-13.07,1.97c-6.35,1.31-12.76,2.6-18.95,4.33c-6.93,1.94-12.99,0.17-19.16-2.05
	c-5.76-2.08-11.09-5.14-17.02-7.01c-4.61-1.45-9.11-1.43-13.25-0.17c-10.74,3.27-15.29,9.58-16.64,20.52
	c-0.16,1.3,0.44,2.46,0.44,3.67c0,6.6,2.47,12.63,4.63,18.63c2.69,7.5,5.12,14.92,4.31,23.01C121.92,66.85,122.32,66.5,122.16,63.43
	z"/>
<path class="st2" d="M199.84,60.27c-0.9-0.8-1.77-1.63-2.69-2.4c-5.48-4.58-12.02-4.98-18.68-4.57c-4.82,0.3-9.3,1.97-13.4,4.47
	c-2.96,1.8-5.7,3.95-7.87,6.73c3.88-0.03,7.76-0.07,11.65-0.1c0.67-0.01,1.17-0.39,1.68-0.75c7.37-5.37,15.48-6.65,24.27-4.56
	c1.11,0.26,4.25,1.45,6.66,2.53c-0.01-0.01-0.01-0.01-0.02-0.01C200.84,61.25,200.28,60.84,199.84,60.27z"/>
<path class="st3" d="M40.23,47.22c0.63-1.09,1.35-1.97,2.72-2.05c2.13-0.13,4.26-0.35,6.39-0.38c1.12-0.02,1.68-0.45,2.13-1.43
	c1.55-3.37,3.2-6.69,4.77-10.05c2.31-4.96,4.8-9.82,7.92-14.33c1.91-2.75,3.95-3.52,7.15-2.78c1.29,0.3,2.58,0.55,3.86,0.9
	c4.44,1.21,8.14,3.7,9.12,8.48c1.58,9.34,2.03,17.78,2.02,18.14c0.01,1.25,0.27,3.31,0.57,5.12c0.61-0.93,1.32-2.31,1.55-2.67
	c0.71-1.1,3.4-15.16,2.6-20.19c-0.55-3.44-1.55-10.79-8.19-15.92c-2.38-1.83-8.33-2.92-11.83-2.38c-1.51,0.23-5.2,1.29-6.4,2.06
	c-1.42,0.9-2.62,2.08-3.88,3.2c-3.1,2.75-5.5,6.07-7.69,9.51c-2.5,3.92-4.05,8.27-4.86,12.88c-0.19,1.07-0.68,2.23-1.52,2.75
	c-1.63,1.01-3.43,1.8-5.24,2.42c-3.18,1.08-5.68,3.05-7.49,5.77c-3.56,5.34-3.66,11.18-1.83,17.12c0.33,1.06,0.37,2.42,1.64,3.03
	c0.46-1.5,0.94-2.99,1.38-4.49C36.58,56.95,37.59,51.81,40.23,47.22z"/>
<path class="st1" d="M292.3,20.19c5.82,1.32,11.66,2.64,16.59,6.31c0.59-1.62-0.41-2.86-0.98-4.22c-1.8-4.29-4.45-8.06-8.21-10.66
	c-3.84-2.65-8.24-4.32-13.03-4.66c-2.14-0.16-4.37-0.41-6.34,0.22c-4.4,1.39-8.57,3.39-12.49,5.86c-1.5,0.94-3.04,1.81-4.57,2.71
	c0.8,0.16,1.59,0.43,2.4,0.48C274.64,16.86,283.52,18.2,292.3,20.19z"/>
<path class="st4" d="M10.05,140.5c-1.38-3.85-1.05-7.92-0.89-11.94c-1.66,0.9-2.56,2.47-3.58,3.96c-2.55,3.71-4.54,7.59-5.58,11.75
	h10.7C10.7,143.03,10.51,141.8,10.05,140.5z"/>
<path class="st3" d="M88.43,98.23c-0.06,0.98,0.07,1.55,1.13,1.99c3.82,1.59,6.8,4.19,8.81,7.85c3.55-2.1,3.85-9.78,2.42-12.58
	c-2.91-5.68-4.83-1.79-8.54-23.82c-0.16,1.17-0.35,2.34-0.68,3.48C91.14,76.64,88.86,91.96,88.43,98.23z"/>
<polygon class="st5" points="87.81,52.57 87.84,52.49 87.75,52.48 87.72,52.57 "/>
<path class="st1" d="M298.19,121.88c0.44-1.7,0.89-3.4,1.37-5.09c2.66-9.55,5.55-19.03,8.09-28.62c0.5-1.89-0.3-2.09-1.7-2.41
	c-7.17-1.66-14.52-2.23-21.73-3.59c-2.57-0.48-5.19-0.65-7.79-0.97c-0.13,1.56-0.1,3.11-0.03,4.68c0.17,3.53-0.39,6.97-1.67,10.27
	c-0.37,0.95-0.49,1.93-0.46,2.94c0.08,0.16,0.14,0.36,0.27,0.49c6.17,6.35,7.15,13.92,4.87,22.07c-2.42,8.65-6.97,16.13-12.97,22.62
	h24.88c1.03-2.34,2.02-4.7,3.05-7.04C295.66,132.12,296.87,126.99,298.19,121.88z M291.56,101.04c-0.02,0-0.05,0-0.07,0
	c-0.06,1-0.03,2.02-0.2,3c-0.23,1.27-1.03,2.05-2.39,1.84c-1.31-0.21-1.7-1.18-1.56-2.38c0.14-1.18,0.43-2.35,0.52-3.54
	c0.14-1.73-0.39-3.1-2.33-3.51c-1.28-0.27-2.56-0.56-3.84-0.87c-1.17-0.28-1.98-0.96-1.75-2.25c0.25-1.37,1.24-1.76,2.54-1.59
	c1.55,0.2,3.11,0.33,4.62,0.77c3.47,1.01,4.61,2.49,4.6,6.1C291.7,99.42,291.61,100.23,291.56,101.04z"/>
<path class="st1" d="M149,115.17c0-0.94,0.05-1.86,0.14-2.75c0.64-6.29,3.54-11.6,8.89-15.62c0,0,0,0,0,0
	c-0.73-1.84-2.05-3.3-3.13-4.92c-0.15-0.23-0.3-0.47-0.45-0.71c-0.13-0.21-0.21-0.46-0.28-0.71c-0.21-0.76-0.33-1.59-1.31-1.85
	c-0.3,1.37-1.09,2.13-2.2,2.63c-0.37,0.17-0.77,0.3-1.2,0.42c-5.03,1.4-4.42,0.43-4.64,6.16c-0.02,0.56,0.06,1.13-0.02,1.69
	c-0.12,0.87-0.55,1.56-1.52,1.64c-0.95,0.08-1.9-0.24-2.14-1.18c-0.64-2.56-1.02-5.24-0.21-7.79c0.63-1.99,2.23-3.32,4.3-3.88
	c1.57-0.43,3.16-0.75,4.74-1.14c1.19-0.29,2.06,0.23,2.83,1.05c0.25-1.73-0.59-3.28-0.88-4.91c-0.6-3.38-0.35-6.7,0.24-10.03
	c-0.81-0.06-1.62-0.18-2.43-0.18c-3.83,0.01-7.66-0.03-11.49,0.12c-4.96,0.18-9.93,0.19-14.86,0.78c-2.69,0.32-2.8,0.41-2.69,3.14
	c0.12,3.08,0.43,6.14,0.97,9.18c1.71,9.53,3.4,19.06,4.42,28.69c0.16,1.47,0.29,2.94,0.41,4.41c0.37,4.41,0.67,8.83,1.35,13.22
	c0.74,0.38,0.97,1.14,1.23,1.81c1.31,3.37,2.84,6.62,4.47,9.82h29.11c-3.33-3.73-6.31-7.85-8.9-12.41
	C150.81,126.68,149,121.11,149,115.17z"/>
<path class="st1" d="M149.92,23.57c-6.69,0.6-13.36,1.25-20.02,2.15c-1.55,0.21-1.87,0.87-1.97,2.29
	c-0.44,6.55,0.22,13.06,0.58,19.57c0.31,5.52,0.5,11.04,0.57,16.56c0.02,1.46,0.54,1.61,1.75,1.53c2.5-0.18,5.02-0.28,7.54-0.36
	c6.27-0.2,12.56-0.25,18.81-0.8c2.17-2.77,4.92-4.92,7.87-6.73c4.1-2.5,8.58-4.18,13.4-4.47c6.67-0.41,13.21-0.01,18.68,4.57
	c0.92,0.77,1.79,1.6,2.69,2.4c0.44,0.56,1,0.97,1.59,1.33c0.02,0.01,0.04,0.02,0.06,0.03c1.22,0.55,2.25,1.08,2.71,1.44
	c4.67,3.67,10.4,2.47,14.04-1.1c10.67-10.43,31.69-12.7,43.57,0.67c4.67,1.15,8.45,3.57,11.1,7.66c0.18,0.28,0.38,0.54,0.5,0.84
	c0.11,0.2,0.22,0.4,0.31,0.6c0.1,0.06,0.2,0.12,0.31,0.14c7.66,1.41,15.43,2.11,23.15,3.12c1.27,0.17,1.72-0.59,1.9-1.78
	c1.47-9.49,3.16-18.94,4.98-28.37c0.71-3.68,1.66-7.35,1.12-11.19c-0.25-1.75-1.03-2.92-2.7-3.48c-1.9-0.63-3.79-1.33-5.72-1.83
	c-9.5-2.45-19.21-3.82-28.94-4.7c-8.25-0.75-16.51-1.8-24.83-1.51c-4.99-0.28-9.99-0.26-14.98-0.54c-0.06,0.02-0.1,0.02-0.13-0.01
	c-3.95-0.02-7.91-0.03-11.86-0.05c-4.71-0.02-9.42-0.15-14.12-0.02c-8.63,0.24-17.25,0.75-25.87,0.94
	C167.33,22.67,158.61,22.79,149.92,23.57z M200.56,38.06c2.41-0.52,4.87-0.35,7.31-0.31c0.88,0.01,1.75,0.06,2.64,0.09
	c0.84,0.03,1.12-0.23,1.1-1.21c-0.03-2.25,1.54-3.89,3.62-4.08c2.21-0.19,4.74,1.57,4.94,3.74c0.13,1.31,0.57,1.43,1.72,1.43
	c2.82-0.01,5.64,0.18,8.47,0.32c0.43,0.02,0.87,0.15,1.28,0.3c1.41,0.51,2.4,1.4,2.32,3.04c-0.08,1.65-1.16,2.57-2.64,2.73
	c-2.11,0.23-4.25,0.27-6.38,0.24c-6.39-0.06-12.78-0.19-19.18-0.29c0-0.02,0-0.03,0-0.04c-1.57-0.1-3.14-0.21-4.7-0.28
	c-1.7-0.07-2.75-0.94-2.91-2.61C198,39.45,198.97,38.4,200.56,38.06z"/>
<path class="st3" d="M62.47,128.99c3.09-2.04,3.88-4.12,3.01-7.58c-0.79-3.16-0.84-6.54,0.28-9.68c2.27-6.35,6.88-10.35,13.22-12.43
	c0.78-0.25,1.52-0.33,1.68-1.43c0.51-3.36,1.11-6.7,1.75-10.03c0.22-1.15-0.1-1.71-1.24-2.03c-12.25-3.43-24.6-6.3-37.73-7.73
	c-0.86,0.02-2.18,0.03-3.49,0.07c-0.7,0.02-1.16,0.27-1.26,1.08c-0.65,5.05-1.31,10.1-2.03,15.14c-0.15,1.06,0.24,1.37,1.2,1.63
	c2.61,0.7,4.91,2.03,6.48,4.28c4.08,5.84,4.92,15.01-1.83,20.43c-0.55,0.44-1.19,0.77-0.86,1.82c1.5,4.82,0.86,9.61-0.73,14.25
	c-0.8,2.33-1.08,3.93,0.75,6.29c0.29,0.38,0.55,0.78,0.79,1.2h9.81c0.04-0.2,0.07-0.39,0.11-0.59
	C53.74,137.4,57.23,132.43,62.47,128.99z"/>
<path class="st4" d="M119.63,142.23c-0.15-2.38-0.15-4.77-0.29-7.14c-0.4-6.89-0.88-13.78-1.59-20.65
	c-0.15-1.46-0.59-1.59-1.86-0.92c-6.44,3.4-12.26,7.64-17.38,12.81c-2.41,2.43-4.33,5.24-4.64,8.83c-0.29,3.23-1.08,6.27-2.54,9.11
	h26.53c0.05-0.01,0.09-0.02,0.13-0.02C119.2,144.05,119.71,143.5,119.63,142.23z"/>
<path class="st4" d="M86.06,135.4c-0.56-2.23-0.23-4.28,0.87-6.35c1.12-2.13,2.53-4.04,3.83-6.04c1.7-2.62,2.82-5.47,3.2-8.56
	c0.39-3.21-2.27-6.44-6.4-8.5c-7.08-3.53-16.15,2.27-16.43,9.77c-0.15,3.95,0.58,7.75,0.98,11.6c0.16,1.55-0.29,2.69-1.75,3.38
	c-0.74,0.35-1.46,0.74-2.16,1.15c-4.95,2.88-8.01,6.96-9.53,12.4h28.35C87.18,141.27,86.8,138.32,86.06,135.4z"/>
<path class="st2" d="M202.22,68.37c-6.98-6.26-15.01-6.43-23.27-3.3c-10.19,3.86-16.44,16.69-11.94,27.26
	c3.15,7.39,8.81,12.29,16.29,14.84c7.59,2.59,14.38,0.82,19.91-5.09c3.56-3.8,5.55-8.33,5.63-13.85c0.24-1.7,0.11-3.65-0.15-5.59
	C207.96,77.23,206.42,72.14,202.22,68.37z"/>
<path class="st3" d="M228.78,111.69c-3.72-0.54-6.81-3.13-10.46-4.13c-2.53-0.69-2.52-0.73-2.67,1.93
	c0.17,7.72,0.44,15.44,0.5,23.17c0.03,3.87,0.02,7.74,0.01,11.61h20.57c-0.99-8.79-2.03-17.58-2.76-26.4
	C233.68,114.21,232.65,112.25,228.78,111.69z"/>
<path class="st3" d="M44.27,60.97c8.2-0.32,16.34,0.35,24.39,1.86c5.27,0.99,10.34,2.7,15.15,5.09c1.13,0.56,1.81,0.67,1.99-0.89
	c0.19-1.68,0.54-3.35,0.81-5.02c0.18-1.07-0.25-1.77-1.22-2.28c-1.9-1-3.83-1.9-5.86-2.59c-3.75-1.27-7.52-2.47-11.28-3.72
	c-1.34-0.45-2.54-1.15-2.15-2.8c0.36-1.53,1.65-1.4,2.91-1.31c2.47,0.19,4.79,1,7.18,1.53c4.84,1.07,4.83,1.11,4.7-5.05
	c0.03-4.57-0.37-10.27-1.43-15.91c-1.11-5.9-0.63-6.29-7.88-7.96c-1.73-0.4-3.09,0.11-4.05,1.61c-1.8,2.8-3.63,5.58-5.07,8.6
	c-2.61,5.45-4.68,11.11-6.85,16.74c-0.62,1.6-1.56,2.25-3.26,2.17c-1.75-0.08-3.51,0.06-5.27,0.1c-1.38,0.04-2.19,0.75-2.54,2.08
	c-0.52,2.01-0.98,4.04-1.65,6C42.36,60.76,42.81,61.03,44.27,60.97z"/>
<path class="st6" d="M210.07,123.21c-0.11-5.26-0.26-10.52,0.19-16.07c-0.66,0.26-1,0.39-1.34,0.54c-3.99,1.69-7.56,4.25-11.71,5.61
	c-0.88,0.29-0.78,0.96-0.82,1.68c-0.26,4.77-0.3,9.57-0.89,14.3c-0.62,5-0.88,10-0.95,15.01h16.13c-0.05-1.89-0.09-3.78-0.15-5.67
	C210.39,133.47,210.18,128.34,210.07,123.21z"/>
<path class="st6" d="M291.31,144.27h1.65c0.47-2.35,0.93-4.69,1.4-7.04C293.33,139.57,292.34,141.93,291.31,144.27z"/>
<path class="st6" d="M127.84,132.64c0.11,3.81,0.22,7.63,0.33,11.44c0.09,0.06,0.15,0.13,0.22,0.19h5.14
	c-1.64-3.2-3.16-6.45-4.47-9.82C128.81,133.78,128.58,133.01,127.84,132.64z"/>
<path class="st1" d="M180.78,112.48c-0.91-0.39-1.15-0.12-1.4,0.71c-2.76,9.29-4.73,18.75-6.16,28.34
	c-0.15,1.03-0.16,1.92-0.03,2.74h15.64c0.48-10.13,1.36-20.17,2.87-30.19C187.8,114.27,184.19,113.92,180.78,112.48z"/>
<path class="st4" d="M173.26,108.54c-2.93-2.05-5.67-4.42-7.72-7.32c-1.14-1.61-1.83-1.39-3.08-0.47
	c-4.33,3.17-6.16,7.72-6.66,12.76c-0.53,5.39,1.12,10.41,3.61,15.16c2.18,4.17,4.69,8.11,8.19,11.64c0.59-2.73,1.27-5.16,1.63-7.64
	c1.05-7.29,3.07-14.35,4.85-21.47C174.36,110.01,174.36,109.31,173.26,108.54z"/>
<path class="st4" d="M19.71,141.98c3.5-0.73,7.04-1.24,10.5-2.1c2.29-0.56,4.8-1.28,5.63-3.87c0.17-0.53,0.35-1.06,0.51-1.6
	c0.41-1.34,0.76-2.72,0.81-4.14c0.01-0.28,0.01-0.57-0.01-0.86c0,0,0,0,0,0s0,0,0,0c0.05-0.75,0.15-1.5,0.13-2.25
	c-0.12-4.16-1.25-5.77-4.46-6.61c-3.14-0.82-6.31-1.01-9.49-0.51c-1.81,0.29-3.69,0.63-4.84,2.32c-3.79,5.54-3.48,11.56-2.03,17.7
	C16.87,141.76,17.98,142.34,19.71,141.98z"/>
<path class="st2" d="M263.68,101.65c-0.75,0.08-1.51,0.06-2.05,0.72c-1.39,1.72-3.08,3.14-4.82,4.48c-0.65,0.5-0.69,0.87-0.22,1.51
	c1.09,1.47,1.8,3.15,2.53,4.82c3.1,7.09,5.36,14.44,6.75,22.43c2.17-2.66,3.52-5.35,4.96-7.97c2.92-5.3,4.6-10.89,3.47-16.99
	C273.47,106.11,269.94,101,263.68,101.65z"/>
<path class="st4" d="M34.14,144.27h0.89C34.78,144.1,34.47,144.14,34.14,144.27z"/>
<path class="st4" d="M20.7,114.98c4.33-0.98,8.57-0.47,12.81,0.74c1.42,0.4,2.94,1.5,4.49,0.53c1.81-1.13,3.12-2.71,3.32-4.97
	c0.47-5.42-2.55-8.66-8.77-8.96c-1.66-0.21-3.7,0.02-5.76,0.36c-6.09,1.01-8.88,5.03-7.79,11.15
	C19.21,115.06,19.65,115.21,20.7,114.98z"/>
<path class="st3" d="M40.52,67.59c-0.28,1.03-1.3,2.34-0.07,3.11c0.11,0.06,0.21,0.12,0.34,0.18c4.43,1.87,8.97,2.88,13.68,0.85
	c2.9-1.25,5.6-0.98,8.1,1.1c1.47,1.22,3.24,1.88,5.09,2.37c2.02,0.53,4,0,6-0.1c2.56-0.13,4.84,0.31,6.69,2.32
	c0.93,1.01,2.15,1.71,3.71,2.19c-0.07-1.69,1.26-3.29-0.28-4.84c-3.26-3.27-7.22-4.49-11.72-3.7c-3.02,0.53-5.58-0.24-7.97-1.98
	c-3.41-2.48-7.14-2.63-10.94-1.28c-2.93,1.04-5.75,1.09-8.63-0.05c-0.82-0.32-1.67-0.56-2.5-0.83c-0.21-0.07-0.57-0.11-0.96-0.12
	C40.83,66.88,40.65,67.1,40.52,67.59z"/>
<path class="st2" d="M151.93,83.31c0.29,1.63,1.13,3.18,0.88,4.91c0.02,0.13,0.04,0.26,0.06,0.39c0.98,0.26,1.1,1.09,1.31,1.85
	c0.07,0.25,0.15,0.5,0.28,0.71c0.14,0.24,0.29,0.47,0.45,0.71c1.08,1.62,2.41,3.08,3.13,4.92c0.57-0.22,1.13-0.48,1.7-0.68
	c0.19-0.07,0.38-0.13,0.58-0.18c1.33-0.35,1.63-1.01,1.05-2.28c-0.81-1.78-1.2-3.69-1.39-5.63c-0.49-4.84,0.11-9.5,2.23-13.92
	c0.24-0.5,0.68-1.29-0.5-1.27c-3.18,0.05-6.37-0.12-9.53,0.46C151.57,76.61,151.33,79.93,151.93,83.31z"/>
<path class="st7" d="M260.84,141.15c-0.06-0.38-0.1-0.7-0.16-1c-0.87-3.97-1.67-7.96-2.64-11.91c-1.32-5.42-2.96-10.74-4.95-15.96
	c-0.6-1.58-1.2-2.29-3.14-1.52c-3.61,1.41-7.31,2.67-11.29,2.69c-1.13,0-1.26,0.52-0.97,1.6c2.29,8.54,3.72,17.26,4.71,26.04
	c0.12,1.06,0.23,2.12,0.34,3.18h15.59c0.2-0.17,0.41-0.33,0.6-0.51C259.73,143.04,260.63,142.28,260.84,141.15z"/>
<path class="st2" d="M276.4,85.89c-0.08-1.57-0.1-3.12,0.03-4.68c-2.34-0.41-4.68-0.77-7-1.24c-1.06-0.21-1.3,0.18-1.24,1.14
	c0.09,1.24,0.13,2.49,0.12,3.74c-0.04,3.73-0.89,7.29-2.41,10.86c3.27,0.22,5.93,1.53,8.37,3.37c-0.03-1.01,0.1-1.98,0.46-2.94
	C276.01,92.86,276.57,89.42,276.4,85.89z"/>
<path class="st2" d="M273.41,71.16c-0.2-0.36-0.39-0.68-0.5-0.84c-2.64-4.09-6.43-6.51-11.1-7.66c1.62,2.23,3.02,4.57,3.96,7.16
	c0.22,0.62,0.54,1.14,1.27,1.2c1.89,0.16,5.69,0.69,6.73,0.84c-0.02-0.03-0.03-0.06-0.05-0.1
	C273.63,71.56,273.52,71.36,273.41,71.16z"/>
<path class="st8" d="M152.81,88.22c-0.77-0.82-1.64-1.34-2.83-1.05c-1.58,0.39-3.17,0.71-4.74,1.14c-2.07,0.56-3.67,1.9-4.3,3.88
	c-0.8,2.55-0.43,5.22,0.21,7.79c0.24,0.94,1.19,1.26,2.14,1.18c0.98-0.08,1.4-0.78,1.52-1.64c0.08-0.55,0-1.13,0.02-1.69
	c0.22-5.73-0.39-4.76,4.64-6.16c0.43-0.12,0.83-0.26,1.2-0.42c1.1-0.5,1.89-1.26,2.2-2.63C152.84,88.49,152.83,88.35,152.81,88.22z"
	/>
<path class="st8" d="M287.1,92.5c-1.51-0.44-3.07-0.57-4.62-0.77c-1.3-0.17-2.29,0.23-2.54,1.59c-0.23,1.3,0.57,1.97,1.75,2.25
	c1.28,0.31,2.56,0.61,3.84,0.87c1.94,0.41,2.47,1.77,2.33,3.51c-0.09,1.18-0.38,2.35-0.52,3.54c-0.14,1.2,0.24,2.17,1.56,2.38
	c1.37,0.22,2.16-0.57,2.39-1.84c0.17-0.98,0.14-2,0.2-3c0.03,0,0.05,0,0.07,0c0.05-0.82,0.14-1.63,0.14-2.44
	C291.71,94.99,290.57,93.51,287.1,92.5z"/>
<path class="st8" d="M201.07,43.74c1.57,0.07,3.14,0.18,4.7,0.28c0,0.02,0,0.03,0,0.04c6.39,0.1,12.79,0.23,19.18,0.29
	c2.13,0.02,4.27-0.01,6.38-0.24c1.47-0.16,2.55-1.08,2.64-2.73c0.08-1.64-0.91-2.52-2.32-3.04c-0.41-0.15-0.85-0.28-1.28-0.3
	c-2.82-0.14-5.64-0.33-8.47-0.32c-1.15,0-1.59-0.12-1.72-1.43c-0.21-2.17-2.74-3.94-4.94-3.74c-2.08,0.19-3.65,1.83-3.62,4.08
	c0.01,0.97-0.27,1.23-1.1,1.21c-0.88-0.03-1.76-0.07-2.64-0.09c-2.45-0.04-4.9-0.21-7.31,0.31c-1.59,0.34-2.56,1.39-2.4,3.08
	C198.32,42.8,199.37,43.67,201.07,43.74z"/>
<path class="st8" d="M10.05,140.5c0.46,1.3,0.65,2.53,0.65,3.77h23.44c0.34-0.13,0.65-0.17,0.89,0h7.41
	c-0.24-0.42-0.5-0.82-0.79-1.2c-1.83-2.36-1.55-3.96-0.75-6.29c1.59-4.65,2.23-9.43,0.73-14.25c-0.33-1.05,0.31-1.38,0.86-1.82
	c6.75-5.42,5.91-14.58,1.83-20.43c-1.57-2.25-3.87-3.57-6.48-4.28c-0.96-0.26-1.35-0.57-1.2-1.63c0.72-5.04,1.38-10.09,2.03-15.14
	c0.1-0.81,0.57-1.06,1.26-1.08c1.31-0.04,2.63-0.05,3.49-0.07c13.13,1.43,25.48,4.3,37.73,7.73c1.14,0.32,1.46,0.88,1.24,2.03
	c-0.64,3.33-1.24,6.68-1.75,10.03c-0.17,1.1-0.91,1.18-1.68,1.43c-6.35,2.08-10.96,6.08-13.22,12.43c-1.12,3.14-1.07,6.51-0.28,9.68
	c0.87,3.46,0.09,5.54-3.01,7.58c-5.24,3.45-8.72,8.41-10.1,14.69c-0.04,0.2-0.08,0.39-0.11,0.59h6.41c1.52-5.45,4.58-9.53,9.53-12.4
	c0.71-0.41,1.43-0.81,2.16-1.15c1.46-0.69,1.91-1.83,1.75-3.38c-0.41-3.86-1.14-7.66-0.98-11.6c0.28-7.5,9.35-13.3,16.43-9.77
	c4.13,2.06,6.79,5.28,6.4,8.5c-0.38,3.09-1.51,5.94-3.2,8.56c-1.3,2-2.71,3.91-3.83,6.04c-1.09,2.08-1.43,4.13-0.87,6.35
	c0.74,2.92,1.12,5.87,0.95,8.87h4.32c1.46-2.84,2.25-5.89,2.54-9.11c0.32-3.59,2.23-6.39,4.64-8.83c5.12-5.16,10.94-9.4,17.38-12.81
	c1.27-0.67,1.71-0.54,1.86,0.92c0.7,6.87,1.19,13.76,1.59,20.65c0.14,2.38,0.14,4.77,0.29,7.14c0.08,1.27-0.43,1.82-1.64,2.01
	c-0.05,0.01-0.09,0.02-0.13,0.02h10.32c0-0.06,0-0.13,0-0.19c-0.11-3.81-0.22-7.62-0.33-11.44c-0.68-4.38-0.98-8.8-1.35-13.22
	c-0.12-1.47-0.26-2.94-0.41-4.41c-1.02-9.63-2.71-19.16-4.42-28.69c-0.55-3.03-0.85-6.1-0.97-9.18c-0.11-2.74,0.01-2.83,2.69-3.14
	c4.94-0.59,9.91-0.6,14.86-0.78c3.83-0.14,7.66-0.1,11.49-0.12c0.81,0,1.62,0.12,2.43,0.18c3.16-0.57,6.35-0.41,9.53-0.46
	c1.18-0.01,0.74,0.77,0.5,1.27c-2.12,4.43-2.72,9.08-2.23,13.92c0.19,1.94,0.58,3.86,1.39,5.63c0.58,1.28,0.29,1.93-1.05,2.28
	c-0.19,0.05-0.39,0.11-0.58,0.18c-0.57,0.2-1.13,0.46-1.7,0.68c0,0,0,0,0,0c-5.36,4.02-8.25,9.33-8.89,15.62
	c-0.09,0.9-0.14,1.82-0.14,2.75c0,5.94,1.81,11.5,4.75,16.68c2.59,4.56,5.57,8.69,8.9,12.41h10.53c-0.13-0.82-0.12-1.71,0.03-2.74
	c1.44-9.59,3.41-19.05,6.16-28.34c0.25-0.84,0.49-1.1,1.4-0.71c3.42,1.44,7.02,1.8,10.92,1.6c-1.52,10.02-2.39,20.06-2.87,30.19
	h5.74c0.07-5.01,0.32-10.01,0.95-15.01c0.59-4.73,0.63-9.53,0.89-14.3c0.03-0.71-0.06-1.39,0.82-1.68
	c4.15-1.36,7.72-3.92,11.71-5.61c0.34-0.14,0.68-0.28,1.34-0.54c-0.45,5.55-0.3,10.81-0.19,16.07c0.11,5.13,0.33,10.26,0.48,15.4
	c0.06,1.89,0.1,3.78,0.15,5.67h5.47c0.01-3.87,0.02-7.74-0.01-11.61c-0.06-7.72-0.32-15.45-0.5-23.17c0.15-2.66,0.14-2.62,2.67-1.93
	c3.65,1,6.74,3.59,10.46,4.13c3.87,0.56,4.9,2.52,5.19,6.17c0.73,8.82,1.77,17.61,2.76,26.4h6c-0.11-1.06-0.22-2.12-0.34-3.18
	c-1-8.78-2.42-17.5-4.71-26.04c-0.29-1.08-0.16-1.6,0.97-1.6c3.97-0.02,7.68-1.27,11.29-2.69c1.94-0.76,2.54-0.06,3.14,1.52
	c1.99,5.22,3.63,10.54,4.95,15.96c0.96,3.95,1.76,7.94,2.64,11.91c0.07,0.3,0.1,0.62,0.16,1c-0.21,1.13-1.11,1.89-1.91,2.61
	c-0.2,0.18-0.41,0.34-0.6,0.51h8.11c5.99-6.5,10.54-13.97,12.97-22.62c2.28-8.15,1.3-15.71-4.87-22.07
	c-0.13-0.13-0.18-0.32-0.27-0.49c-2.44-1.84-5.09-3.15-8.37-3.37c1.52-3.57,2.37-7.13,2.41-10.86c0.01-1.25-0.03-2.5-0.12-3.74
	c-0.06-0.96,0.17-1.35,1.24-1.14c2.32,0.47,4.67,0.83,7,1.24c2.6,0.32,5.22,0.49,7.79,0.97c7.22,1.35,14.57,1.93,21.73,3.59
	c1.39,0.32,2.2,0.52,1.7,2.41c-2.54,9.58-5.43,19.07-8.09,28.62c-0.47,1.69-0.93,3.39-1.37,5.09c-1.32,5.1-2.54,10.24-3.82,15.35
	c-0.47,2.34-0.93,4.69-1.4,7.03h5.27l9.89-46.2c0.84,1.31,2.27,2.7,3.96,4.07c1.32-4.5,2.6-9.02,3.71-13.59
	c0.38-1.58,0.65-3.2,0.83-4.82c0.18-1.57-0.19-2.83-1.08-3.77c-0.53-0.56-1.24-1-2.14-1.33c-1.52-0.56-3.09-0.99-4.96-1.58
	c-2.81-0.67-2.28-2.07-1.29-7.77c0.75-4.31,1.4-8.32,2.05-12.34c0.48-2.95,1.07-5.88,1.6-8.81c0.7-3.85,1.28-7.71,1.29-11.65
	c0.01-3.63-0.71-7.11-3.21-9.97c-4.93-3.67-10.77-4.99-16.59-6.31c-8.78-1.99-17.66-3.33-26.65-3.96c-0.81-0.05-1.6-0.32-2.4-0.48
	c-7.07-0.33-14.13-0.67-21.2-1c-2.76-0.11-5.53-0.23-8.29-0.33c-14.51-0.49-29.02-0.37-43.53,0.18c-1.88,0.07-3.77,0.16-5.65,0.25
	c-5.65,0.26-11.3,0.52-16.96,0.4c0,0,0,0,0,0c-0.25,0.02-0.5,0.03-0.74,0.05c-4.76,0.31-9.51,0.61-14.27,0.92
	c-2.13,0.14-4.24,0.52-6.38,0.39l-0.09,0.07l-0.11-0.02c-5.86,0.7-11.71,1.39-17.57,2.08c-0.49,0.07-0.99,0.14-1.49,0.23
	c-4.56,0.78-6,2.37-6.35,6.96c-0.61,7.92,0.2,15.79,0.66,23.68c0.27,4.61,0.64,9.21,0.88,13.81c0.16,3.07-0.24,3.43-3.19,3.34
	c-0.76,0.49-1.66,0.48-2.5,0.67c-3.91,0.87-4.52,1.58-4.06,5.53c0.94,8.16,1.63,16.35,3.17,24.44c0.54,2.85,0.36,5.6-1.3,8.14
	c-2.89,4.44-7.78,5.91-12.11,8.18c-1.19,0.63-2.53-0.05-2.78-1.85c-0.18-1.29-0.67-2.54-1.02-3.8c0,0,0,0,0,0
	c-2.01-3.66-4.99-6.26-8.81-7.85c-1.06-0.44-1.19-1.01-1.13-1.99c0.43-6.27,2.71-21.58,3.14-23.08c0.32-1.14,0.51-2.31,0.68-3.48
	c0.22-1.61,0.4-3.22,0.82-4.79c0.3-1.98,0.62-3.95,0.91-5.93c0.36-2.59-0.36-4.67-2.74-6.06c-1.18-0.69-2.28-1.54-3.41-2.32l-0.09,0
	c0,0,0.03-0.09,0.03-0.09c-0.19-0.17-0.55-1.78-0.87-3.64c-0.3-1.81-0.56-3.87-0.57-5.12c0-0.35-0.44-8.79-2.02-18.14
	c-0.97-4.78-4.67-7.27-9.12-8.48c-1.27-0.35-2.57-0.6-3.86-0.9c-3.21-0.74-5.25,0.03-7.15,2.78c-3.12,4.51-5.61,9.37-7.92,14.33
	c-1.57,3.36-3.22,6.68-4.77,10.05c-0.45,0.98-1.01,1.41-2.13,1.43c-2.13,0.03-4.26,0.25-6.39,0.38c-1.37,0.08-2.09,0.96-2.72,2.05
	c-2.64,4.58-3.65,9.72-5.12,14.71c-0.44,1.5-0.92,2.99-1.38,4.49c-0.56,3.14-1.04,6.31-1.71,9.43c-1.21,5.7-1.6,11.54-3.17,17.19
	c-0.58,2.09-1.47,2.97-3.66,3.39c-8.87,1.72-13.69,9.06-11.51,17.64c0.63,2.45,0.66,4.28-1.06,6.24c-2.02,2.32-2.55,5.39-3.47,8.24
	C9,132.58,8.67,136.64,10.05,140.5z M174.07,111.2c-1.77,7.12-3.79,14.18-4.85,21.47c-0.36,2.47-1.03,4.9-1.63,7.64
	c-3.5-3.53-6.01-7.47-8.19-11.64c-2.49-4.75-4.14-9.77-3.61-15.16c0.5-5.05,2.33-9.6,6.66-12.76c1.25-0.92,1.94-1.14,3.08,0.47
	c2.06,2.91,4.8,5.27,7.72,7.32C174.36,109.31,174.36,110.01,174.07,111.2z M208.83,88.23c-0.08,5.52-2.06,10.04-5.63,13.85
	c-5.53,5.9-12.32,7.67-19.91,5.09c-7.48-2.55-13.14-7.45-16.29-14.84c-4.5-10.57,1.75-23.4,11.94-27.26
	c8.26-3.13,16.29-2.96,23.27,3.3c4.2,3.77,5.74,8.87,6.46,14.27C208.95,84.58,209.07,86.52,208.83,88.23z M238.46,106.11
	c-2.03-0.08-4.11-0.46-6.21-1.21c-10.3-3.71-14.21-11.39-15.27-21.39c-0.12-1.13-0.18-2.26-0.23-3.39
	c-0.03-0.69,0.01-1.38,0.02-2.07c0.01-0.12,0.03-0.23,0.03-0.34c0-0.12,0.01-0.24,0.01-0.36c0.26-5.47,2.79-9.9,7.11-12.93
	c8.15-5.75,17.09-6.93,26.34-2.88c4.86,2.13,8.26,5.87,9.86,11.06c2.27,7.34,3.09,14.64-0.7,21.77
	C255.83,101.11,247.64,106.73,238.46,106.11z M274.3,110.65c1.13,6.09-0.55,11.69-3.47,16.99c-1.44,2.62-2.79,5.31-4.96,7.97
	c-1.39-7.99-3.65-15.34-6.75-22.43c-0.73-1.67-1.44-3.34-2.53-4.82c-0.48-0.64-0.43-1.01,0.22-1.51c1.74-1.34,3.42-2.76,4.82-4.48
	c0.54-0.66,1.29-0.64,2.05-0.72C269.94,101,273.47,106.11,274.3,110.65z M201.92,21.54c4.7-0.13,9.41,0,14.12,0.02
	c3.95,0.01,7.9,0.03,11.85,0.05c0.04,0,0.09,0,0.13,0.01c4.99,0.28,9.99,0.26,14.98,0.54c8.32-0.29,16.58,0.76,24.83,1.51
	c9.73,0.88,19.44,2.25,28.94,4.7c1.93,0.5,3.82,1.21,5.72,1.83c1.67,0.55,2.46,1.72,2.7,3.48c0.54,3.83-0.41,7.51-1.12,11.19
	c-1.82,9.43-3.51,18.88-4.98,28.37c-0.19,1.19-0.63,1.95-1.9,1.78c-7.72-1.01-15.49-1.71-23.15-3.12c-0.02,0-0.11-0.02-0.26-0.04
	c-1.04-0.15-4.83-0.68-6.73-0.84c-0.74-0.06-1.05-0.58-1.27-1.2c-0.94-2.6-2.34-4.94-3.96-7.16c-11.88-13.38-32.91-11.11-43.57-0.67
	c-3.64,3.56-9.37,4.76-14.04,1.1c-0.46-0.36-1.49-0.89-2.71-1.44c-0.01-0.01-0.03-0.01-0.04-0.02c-2.41-1.09-5.55-2.27-6.66-2.53
	c-8.79-2.09-16.9-0.81-24.27,4.56c-0.51,0.37-1.01,0.75-1.68,0.75c-3.88,0.03-7.76,0.07-11.65,0.1c-6.26,0.55-12.54,0.61-18.81,0.8
	c-2.51,0.08-5.03,0.18-7.54,0.36c-1.21,0.09-1.73-0.06-1.75-1.53c-0.07-5.52-0.26-11.04-0.57-16.56
	c-0.36-6.51-1.03-13.02-0.58-19.57c0.1-1.42,0.42-2.08,1.97-2.29c6.65-0.9,13.33-1.55,20.02-2.15c8.69-0.78,17.4-0.9,26.12-1.09
	C184.67,22.29,193.29,21.78,201.92,21.54z M42.88,59.24c0.67-1.96,1.13-3.99,1.65-6c0.34-1.33,1.15-2.05,2.54-2.08
	c1.76-0.05,3.52-0.19,5.27-0.1c1.7,0.08,2.64-0.57,3.26-2.17c2.17-5.63,4.24-11.29,6.85-16.74c1.45-3.02,3.28-5.8,5.07-8.6
	c0.97-1.51,2.33-2.01,4.05-1.61c7.25,1.67,6.78,2.06,7.88,7.96c1.06,5.64,1.46,11.34,1.43,15.91c0.13,6.16,0.14,6.12-4.7,5.05
	c-2.39-0.53-4.71-1.34-7.18-1.53c-1.26-0.09-2.55-0.22-2.91,1.31c-0.39,1.66,0.82,2.36,2.15,2.8c3.76,1.25,7.53,2.45,11.28,3.72
	c2.03,0.68,3.96,1.59,5.86,2.59c0.98,0.51,1.4,1.21,1.22,2.28c-0.27,1.67-0.62,3.34-0.81,5.02c-0.18,1.56-0.86,1.45-1.99,0.89
	c-4.81-2.4-9.88-4.11-15.15-5.09c-8.05-1.51-16.19-2.18-24.39-1.86C42.81,61.03,42.36,60.76,42.88,59.24z M42.02,66.91
	c0.84,0.27,1.69,0.51,2.5,0.83c2.88,1.13,5.69,1.09,8.63,0.05c3.8-1.35,7.54-1.19,10.94,1.28c2.39,1.74,4.95,2.51,7.97,1.98
	c4.49-0.79,8.46,0.43,11.72,3.7c1.54,1.55,0.21,3.15,0.28,4.84c-1.56-0.48-2.78-1.18-3.71-2.19c-1.85-2-4.13-2.45-6.69-2.32
	c-2,0.1-3.98,0.64-6,0.1c-1.85-0.49-3.62-1.15-5.09-2.37c-2.5-2.08-5.2-2.35-8.1-1.1c-4.71,2.03-9.26,1.02-13.68-0.85
	c-0.13-0.05-0.24-0.11-0.34-0.18c-1.23-0.77-0.21-2.08,0.07-3.11c0.13-0.49,0.31-0.71,0.54-0.79C41.32,66.7,41.65,66.8,42.02,66.91z
	 M26.78,102.68c2.06-0.34,4.1-0.57,5.76-0.36c6.22,0.3,9.23,3.53,8.77,8.96c-0.2,2.26-1.51,3.83-3.32,4.97
	c-1.54,0.96-3.06-0.13-4.49-0.53c-4.24-1.2-8.47-1.72-12.81-0.74c-1.05,0.23-1.49,0.09-1.71-1.15
	C17.9,107.71,20.69,103.69,26.78,102.68z M18.5,122.35c1.16-1.69,3.03-2.03,4.84-2.32c3.19-0.5,6.35-0.31,9.49,0.51
	c3.2,0.84,4.34,2.45,4.46,6.61c0.02,0.75-0.08,1.5-0.13,2.26c0,0,0,0,0,0c0.02,0.29,0.02,0.58,0.01,0.86
	c-0.05,1.42-0.4,2.8-0.81,4.14c-0.17,0.54-0.34,1.07-0.51,1.6c-0.84,2.59-3.34,3.31-5.63,3.87c-3.46,0.86-7.01,1.37-10.5,2.1
	c-1.73,0.36-2.84-0.22-3.24-1.94C15.02,133.9,14.71,127.88,18.5,122.35z"/>
<path class="st2" d="M260.12,72.58c-1.61-5.18-5.01-8.93-9.86-11.06c-9.25-4.05-18.19-2.86-26.34,2.88
	c-4.31,3.04-6.84,7.46-7.11,12.93c0,0.12-0.01,0.24-0.01,0.36c-0.01,0.59-0.03,1.18-0.01,1.77c0.05,1.16,0.11,2.32,0.23,3.48
	c1.09,10.26,5.1,18.14,15.67,21.95c1.94,0.7,3.87,1.08,5.76,1.21c9.18,0.61,17.37-5,20.96-11.76
	C263.21,87.22,262.39,79.92,260.12,72.58z"/>
<path class="st4" d="M416.91,137.46c-0.85,2.34-0.81,4.46-0.37,6.81h10.95c-0.66-5.31-2.94-10.16-6.07-14.77
	c-1.01-1.49-1.91-3.07-3.56-3.97C418,129.54,418.31,133.61,416.91,137.46z"/>
<path class="st6" d="M343.21,22.2c0.99-4.78,4.7-7.25,9.15-8.44c1.27-0.34,2.57-0.59,3.86-0.88c3.21-0.73,5.25,0.05,7.14,2.81
	c3.1,4.52,5.56,9.4,7.86,14.37c1.55,3.37,3.19,6.69,4.72,10.07c0.45,0.98,1.01,1.42,2.13,1.44c2.13,0.04,4.26,0.27,6.39,0.41
	c1.37,0.09,2.08,0.97,2.71,2.06c2.62,4.6,3.6,9.74,5.05,14.73c0.43,1.51,0.9,3,1.36,4.5c1.27-0.6,1.32-1.96,1.65-3.02
	c1.86-5.93,1.78-11.76-1.75-17.12c-1.8-2.73-4.28-4.71-7.46-5.8c-1.81-0.63-3.61-1.43-5.23-2.45c-0.84-0.52-1.32-1.69-1.51-2.76
	c-0.79-4.61-2.32-8.96-4.8-12.9c-2.18-3.45-4.56-6.78-7.65-9.55c-1.25-1.13-2.45-2.31-3.86-3.22c-1.2-0.78-4.89-1.85-6.39-2.09
	c-3.5-0.56-9.46,0.5-11.84,2.33c-6.66,5.09-7.7,12.44-8.26,15.88c-0.82,5.02,1.8,19.1,2.5,20.2c0.23,0.36,0.93,1.75,1.53,2.68
	c0.31-1.81,0.58-3.86,0.6-5.12C341.1,39.98,341.58,31.54,343.21,22.2z"/>
<path class="st6" d="M337.6,96.81c1.06-0.43,1.19-1,1.14-1.99c-0.4-6.27-2.61-21.6-3.03-23.09c-0.32-1.14-0.5-2.31-0.66-3.48
	c-3.82,22.02-5.72,18.12-8.65,23.78c-1.45,2.79-1.17,10.47,2.36,12.59C330.78,100.97,333.77,98.38,337.6,96.81z"/>
<polygon class="st5" points="339.62,49.08 339.53,49.09 339.56,49.17 339.66,49.17 "/>
<path class="st8" d="M308.13,98.07l-9.89,46.2h20.5c-6.7-3.12-14.19-5.77-19.01-6.55l7.82-29.43c6.42,3.43,15.87,9.4,20.97,14.59
	c2.4,2.44,4.3,5.26,4.6,8.85c0.34,4.01,1.44,7.75,3.66,11.16c0.52,0.8,0.94,1.58,1.99,1.27c1.09-0.31,1.32-1.24,1.23-2.27
	c-0.32-3.36,0.09-6.64,0.93-9.89c0.57-2.23,0.25-4.27-0.84-6.36c-1.11-2.13-2.51-4.05-3.8-6.06c-1.68-2.62-2.8-5.48-3.17-8.57
	c-0.38-3.21,2.3-6.43,6.44-8.47c7.1-3.49,16.13,2.35,16.38,9.85c0.13,3.95-0.61,7.74-1.04,11.6c-0.17,1.55,0.28,2.69,1.73,3.39
	c0.74,0.35,1.45,0.75,2.16,1.16c5.88,3.45,9.07,8.59,10.17,15.71H375c-0.02-1.26-0.15-2.53-0.42-3.82
	c-1.35-6.29-4.8-11.27-10.03-14.74c-3.09-2.05-3.86-4.14-2.97-7.59c0.81-3.16,0.87-6.54-0.23-9.68
	c-2.24-6.36-6.83-10.39-13.17-12.49c-0.77-0.26-1.51-0.34-1.68-1.44c-0.49-3.36-1.08-6.7-1.7-10.04c-0.21-1.15,0.11-1.71,1.25-2.02
	c12.26-3.37,24.63-6.19,37.77-7.56c0.86,0.02,2.18,0.04,3.49,0.08c0.7,0.02,1.16,0.27,1.26,1.09c0.63,5.06,1.26,10.11,1.96,15.15
	c0.15,1.06-0.24,1.37-1.2,1.63c-2.61,0.69-4.91,2-6.5,4.25c-4.11,5.83-4.99,14.99,1.73,20.43c0.55,0.45,1.18,0.78,0.85,1.83
	c-1.52,4.81-0.9,9.6,0.66,14.26c0.79,2.34,1.06,3.93-0.78,6.29c-0.97,1.24-1.63,2.75-2.03,4.39h6.16c0.49-1.31,1.46-2.28,2.41-3.12
	c0.63-0.55,1.7,0.48,2.6,0.71c3.27,0.84,6.53,1.73,9.84,2.41h12.27c-0.44-2.34-0.48-4.47,0.37-6.81c1.39-3.85,1.09-7.91,0.95-11.93
	c-0.91-2.86-1.42-5.92-3.43-8.26c-1.7-1.97-1.67-3.79-1.03-6.25c2.22-8.57-2.57-15.93-11.43-17.69c-2.19-0.43-3.07-1.32-3.64-3.41
	c-1.54-5.65-1.9-11.5-3.09-17.21c-0.65-3.13-1.11-6.29-1.66-9.44c-0.45-1.5-0.92-2.99-1.36-4.5c-1.44-4.99-2.43-10.14-5.05-14.73
	c-0.62-1.09-1.34-1.98-2.71-2.06c-2.13-0.14-4.26-0.37-6.39-0.41c-1.12-0.02-1.68-0.46-2.13-1.44c-1.53-3.38-3.17-6.7-4.72-10.07
	c-2.29-4.97-4.76-9.85-7.86-14.37c-1.89-2.76-3.93-3.54-7.14-2.81c-1.29,0.29-2.59,0.54-3.86,0.88c-4.45,1.19-8.16,3.66-9.15,8.44
	c-1.63,9.33-2.11,17.77-2.1,18.13c-0.02,1.25-0.29,3.31-0.6,5.12c-0.32,1.86-0.69,3.46-0.89,3.64c0,0,0.03,0.09,0.03,0.09l-0.09,0
	c-1.14,0.77-2.24,1.61-3.43,2.3c-2.38,1.38-3.12,3.46-2.77,6.05c0.27,1.98,0.59,3.95,0.88,5.93c0.41,1.57,0.58,3.19,0.8,4.79
	c0.16,1.17,0.34,2.34,0.66,3.48c0.42,1.5,2.63,16.82,3.03,23.09c0.06,0.99-0.08,1.55-1.14,1.99c-3.83,1.57-6.82,4.16-8.85,7.81
	c0,0,0,0,0,0c-0.36,1.27-0.86,2.51-1.04,3.8c-0.26,1.8-1.6,2.47-2.79,1.84c-3.05-1.62-8.73-4.82-12.82-8.13
	C310.4,100.76,308.97,99.37,308.13,98.07z M410.5,136.97c-0.41,1.71-1.52,2.29-3.25,1.92c-3.49-0.74-7.03-1.27-10.49-2.15
	c-2.29-0.57-4.79-1.31-5.62-3.9c-0.08-0.27-0.17-0.53-0.26-0.8c-0.59-1.87-1.15-3.79-1.03-5.81c-0.04-0.75-0.14-1.51-0.12-2.26
	c0.14-4.16,1.28-5.77,4.49-6.59c3.14-0.81,6.31-0.98,9.5-0.47c1.81,0.29,3.68,0.65,4.83,2.34
	C412.32,124.82,411.97,130.84,410.5,136.97z M394.6,99.18c1.66-0.2,3.7,0.04,5.76,0.38c6.09,1.04,8.86,5.07,7.74,11.19
	c-0.22,1.23-0.67,1.38-1.71,1.14c-4.33-1-8.56-0.51-12.81,0.68c-1.42,0.39-2.95,1.48-4.49,0.51c-1.8-1.14-3.11-2.72-3.3-4.98
	C385.35,102.67,388.38,99.45,394.6,99.18z M386.78,64.41c0.29,1.12,1.46,2.56-0.29,3.29c-4.44,1.85-8.98,2.84-13.69,0.79
	c-2.9-1.27-5.6-1.01-8.11,1.06c-1.48,1.22-3.25,1.87-5.1,2.35c-2.02,0.53-4-0.02-6-0.13c-2.56-0.14-4.84,0.29-6.7,2.29
	c-0.93,1-2.16,1.7-3.72,2.17c0.07-1.69-1.25-3.3,0.3-4.84c3.27-3.25,7.25-4.46,11.73-3.64c3.02,0.54,5.58-0.22,7.98-1.95
	c3.42-2.46,7.15-2.6,10.95-1.23c2.93,1.06,5.74,1.12,8.63-0.01c0.82-0.32,1.67-0.56,2.51-0.82
	C385.98,63.51,386.51,63.34,386.78,64.41z M355.94,18.6c1.73-0.39,3.09,0.12,4.05,1.63c1.78,2.81,3.6,5.6,5.03,8.63
	c2.58,5.46,4.63,11.14,6.77,16.77c0.61,1.6,1.54,2.26,3.25,2.19c1.75-0.07,3.51,0.08,5.27,0.13c1.38,0.04,2.19,0.76,2.53,2.09
	c0.51,2.01,0.96,4.04,1.62,6c0.51,1.53,0.07,1.79-1.4,1.73c-8.2-0.36-16.34,0.28-24.4,1.75c-5.27,0.96-10.35,2.65-15.17,5.02
	c-1.13,0.56-1.81,0.67-1.98-0.9c-0.18-1.68-0.52-3.35-0.79-5.03c-0.17-1.07,0.25-1.77,1.23-2.27c1.9-0.99,3.84-1.89,5.87-2.56
	c3.76-1.25,7.54-2.44,11.3-3.67c1.34-0.44,2.55-1.13,2.17-2.79c-0.35-1.53-1.64-1.41-2.9-1.32c-2.47,0.18-4.8,0.98-7.18,1.5
	c-4.85,1.05-4.84,1.09-4.68-5.07c0-4.57,0.42-10.27,1.5-15.9C349.16,20.63,348.68,20.24,355.94,18.6z"/>
<path class="st4" d="M358.81,128.55c-0.71-0.41-1.42-0.81-2.16-1.16c-1.45-0.7-1.91-1.84-1.73-3.39c0.42-3.86,1.17-7.65,1.04-11.6
	c-0.25-7.5-9.29-13.34-16.38-9.85c-4.14,2.04-6.82,5.25-6.44,8.47c0.37,3.09,1.48,5.95,3.17,8.57c1.29,2,2.69,3.92,3.8,6.06
	c1.08,2.08,1.41,4.13,0.84,6.36c-0.84,3.25-1.24,6.53-0.93,9.89c0.1,1.02-0.13,1.95-1.23,2.27c-1.06,0.3-1.47-0.48-1.99-1.27
	c-2.22-3.41-3.32-7.15-3.66-11.16c-0.3-3.59-2.2-6.4-4.6-8.85c-5.1-5.19-14.54-11.16-20.97-14.59l-7.82,29.43
	c4.81,0.78,12.31,3.43,19.01,6.55h50.24C367.88,137.15,364.69,132.01,358.81,128.55z"/>
<path class="st4" d="M403.72,116.93c-3.18-0.52-6.35-0.34-9.5,0.47c-3.21,0.82-4.35,2.43-4.49,6.59c-0.02,0.75,0.08,1.5,0.12,2.26
	c-0.12,2.02,0.44,3.94,1.03,5.81c0.08,0.27,0.17,0.53,0.26,0.8c0.83,2.59,3.33,3.33,5.62,3.9c3.46,0.87,7,1.41,10.49,2.15
	c1.73,0.36,2.84-0.21,3.25-1.92c1.47-6.13,1.82-12.15-1.95-17.7C407.4,117.58,405.53,117.22,403.72,116.93z"/>
<path class="st4" d="M391.84,141.15c-0.96,0.84-1.93,1.81-2.41,3.12h14.85c-3.31-0.67-6.57-1.57-9.84-2.41
	C393.54,141.63,392.47,140.6,391.84,141.15z"/>
<path class="st4" d="M385.79,108.1c0.19,2.26,1.49,3.84,3.3,4.98c1.54,0.97,3.06-0.12,4.49-0.51c4.25-1.18,8.48-1.68,12.81-0.68
	c1.05,0.24,1.49,0.09,1.71-1.14c1.12-6.12-1.65-10.15-7.74-11.19c-2.06-0.35-4.1-0.59-5.76-0.38
	C388.38,99.45,385.35,102.67,385.79,108.1z"/>
<path class="st6" d="M386.08,133.59c-1.57-4.65-2.18-9.44-0.66-14.26c0.33-1.05-0.3-1.38-0.85-1.83
	c-6.73-5.45-5.84-14.61-1.73-20.43c1.58-2.24,3.88-3.55,6.5-4.25c0.96-0.26,1.35-0.56,1.2-1.63c-0.7-5.04-1.34-10.1-1.96-15.15
	c-0.1-0.81-0.56-1.06-1.26-1.09c-1.31-0.04-2.63-0.06-3.49-0.08c-13.13,1.37-25.5,4.18-37.77,7.56c-1.15,0.31-1.47,0.87-1.25,2.02
	c0.62,3.34,1.21,6.68,1.7,10.04c0.16,1.1,0.9,1.18,1.68,1.44c6.34,2.11,10.93,6.13,13.17,12.49c1.11,3.14,1.04,6.52,0.23,9.68
	c-0.88,3.45-0.11,5.54,2.97,7.59c5.23,3.47,8.68,8.45,10.03,14.74c0.28,1.29,0.41,2.57,0.42,3.82h8.27c0.4-1.64,1.06-3.15,2.03-4.39
	C387.14,137.53,386.86,135.93,386.08,133.59z"/>
<path class="st6" d="M348.02,26.52c-1.09,5.63-1.51,11.33-1.5,15.9c-0.16,6.16-0.17,6.12,4.68,5.07c2.39-0.52,4.72-1.32,7.18-1.5
	c1.26-0.09,2.55-0.21,2.9,1.32c0.38,1.66-0.83,2.35-2.17,2.79c-3.76,1.23-7.54,2.42-11.3,3.67c-2.03,0.68-3.97,1.57-5.87,2.56
	c-0.98,0.51-1.4,1.2-1.23,2.27c0.27,1.68,0.61,3.34,0.79,5.03c0.17,1.56,0.85,1.46,1.98,0.9c4.82-2.38,9.9-4.06,15.17-5.02
	c8.06-1.47,16.2-2.1,24.4-1.75c1.47,0.07,1.91-0.2,1.4-1.73c-0.66-1.96-1.12-3.99-1.62-6c-0.34-1.34-1.14-2.05-2.53-2.09
	c-1.76-0.05-3.52-0.2-5.27-0.13c-1.7,0.07-2.64-0.59-3.25-2.19c-2.14-5.64-4.19-11.31-6.77-16.77c-1.43-3.02-3.25-5.81-5.03-8.63
	c-0.96-1.51-2.32-2.02-4.05-1.63C348.68,20.24,349.16,20.63,348.02,26.52z"/>
<path class="st6" d="M374.15,64.55c-3.79-1.37-7.53-1.23-10.95,1.23c-2.4,1.73-4.96,2.49-7.98,1.95c-4.49-0.81-8.46,0.39-11.73,3.64
	c-1.55,1.54-0.23,3.15-0.3,4.84c1.56-0.47,2.79-1.17,3.72-2.17c1.86-2,4.14-2.43,6.7-2.29c2,0.11,3.98,0.66,6,0.13
	c1.85-0.48,3.62-1.13,5.1-2.35c2.51-2.07,5.21-2.32,8.11-1.06c4.7,2.05,9.25,1.06,13.69-0.79c1.75-0.73,0.58-2.17,0.29-3.29
	c-0.28-1.06-0.8-0.9-1.5-0.68c-0.84,0.26-1.69,0.5-2.51,0.82C379.9,65.67,377.08,65.61,374.15,64.55z"/>
</svg>
