<?xml version="1.0" encoding="utf-8"?>
<!-- Generator: Adobe Illustrator 24.1.3, SVG Export Plug-In . SVG Version: 6.00 Build 0)  -->
<svg version="1.1" id="Layer_1" xmlns="http://www.w3.org/2000/svg" xmlns:xlink="http://www.w3.org/1999/xlink" x="0px" y="0px"
	 viewBox="0 0 1238.1 294.21" style="enable-background:new 0 0 1238.1 294.21;" xml:space="preserve">
<style type="text/css">
	.st0{fill:#FF37B7;}
	.st1{fill:#010101;}
	.st2{fill:#020001;}
	.st3{fill:#F98523;}
	.st4{fill:#F88523;}
	.st5{fill:#0C0703;}
	.st6{fill:#080405;}
	.st7{fill:#FFC41E;}
	.st8{fill:#00ED70;}
	.st9{fill:#010000;}
	.st10{fill:#A6BBFF;}
	.st11{fill:#FF2C2C;}
	.st12{fill:#97DE49;}
	.st13{fill:#FFF02C;}
	.st14{fill:#FFFFFF;}
	.st15{fill:#3ABF48;}
	.st16{fill:#080906;}
	.st17{fill:#050301;}
	.st18{fill:#0C0303;}
	.st19{fill:#0B0202;}
	.st20{fill:#0E0505;}
	.st21{fill:#1C070C;}
	.st22{fill:#6C666C;}
	.st23{fill:#00BEEA;}
	.st24{fill:#C768A9;}
	.st25{fill:#EAEAEA;}
	.st26{fill:#050202;}
	.st27{fill:#0B0808;}
	.st28{fill:#100D0E;}
	.st29{fill:#1B1108;}
	.st30{fill:#0E070A;}
	.st31{fill:#0C0709;}
	.st32{fill:#110D10;}
	.st33{fill:#0B060A;}
	.st34{fill:#0B0708;}
</style>
<g id="Layer_2_1_">
</g>
<g id="Layer_2_2_">
</g>
<g id="Layer_3">
</g>
<path class="st0" d="M991.57,65.11c-0.1,3.18-0.48,3.66-0.96,6.75c-0.48,2.8-1.73,3.66-4.24,2.41c-4.34-2.12-8.96-3.76-13.69-5.01
	c-8.48-2.12-13.98,2.22-14.17,10.99c-0.1,4.05,1.54,7.71,1.73,11.57c-7.04-4.82-9.25-11.76-8.39-19.85
	c0.67-6.07,7.32-11.57,14.07-11.76c7.81-0.29,10.31,1.54,17.73,5.01C987.72,67.03,990.61,66.74,991.57,65.11z"/>
<path class="st1" d="M786.18,241.29c-2.8,1.45-5.59,1.35-8.48,0.29c-4.05-1.45-8.19-2.51-12.63-2.7c-1.93-1.06-4.05-0.96-5.98,0
	c-7.13,3.47-14.07,2.41-21.11-0.1c-1.06-0.39-2.22-0.77-3.37-0.77c-2.7,0-3.47-1.54-3.37-3.95c0.1-2.89,0-5.88,0.48-8.77
	c1.25-7.81,3.18-15.52,4.92-23.23c3.28-14.46,6.07-29.01,10.22-43.18c2.31-7.9-0.48-12.91-8.58-14.75c-1.35-0.29-2.8-0.39-4.14-0.58
	s-2.51-0.58-2.7-2.22c-0.29-3.57,0.19-7.13,0.67-10.6c2.31-15.61,4.82-31.23,4.92-47.13c0.29-5.3-2.31-8.96-6.75-11.47
	c-2.7-1.54-5.69-2.12-8.77-2.7c-18.7-3.47-37.59-3.95-56.48-4.43c-28.91-0.77-57.83-0.1-86.55,3.28
	c-22.84,2.7-45.88,4.14-68.62,7.71c-9.06,1.45-18.12,3.08-27.18,5.01c-6.36,1.35-8.87,4.63-8.96,10.99
	c-0.1,4.92-0.19,9.93,0.48,14.94c1.45,10.6,2.41,21.3,3.28,32c0.29,3.57,0.67,7.32-3.47,9.25c-6.36,2.02-8.39,4.72-7.61,11.18
	c0.67,5.69,1.93,11.28,2.99,16.87c2.02,10.41,5.3,20.63,6.46,31.32c-0.29,2.51,0,5.01,0.48,7.52c1.45,7.52,2.99,14.94,4.05,22.46
	c0.29,1.83-1.25,3.86,0.48,5.3c0.19,0,2.6,4.53-0.77,4.63c-2.7,1.54-5.01,0-7.13-1.16c-7.32-3.86-14.65-3.86-22.07-0.1
	c-2.8,1.45-5.2,1.25-8-0.19c-14.75-7.61-27.08-4.43-35.85,9.64c-6.84,10.89-9.16,23.32-11.28,35.76c3.18,0.96,6.36,0.87,9.64,0.1
	c1.93-2.41,1.83-5.49,2.41-8.39c1.64-8.29,3.76-16.48,8.58-23.52c4.92-7.23,11.28-8.48,19.57-6.36c3.76,0.96,4.05,2.12,2.12,5.4
	c-4.53,7.52-6.46,15.81-7.71,24.29c-0.39,2.6-0.77,5.3,0.77,7.81c1.35,3.86,4.05,1.83,6.36,1.35c1.54-1.93,0.96-4.14,1.06-6.26
	c0.58-11.37,4.14-21.49,12.63-29.49c5.69-5.4,10.7-5.98,17.73-2.12c2.8,1.45,3.08,2.8,1.64,5.69c-4.24,8.39-6.65,17.35-6.55,26.89
	c0,1.93,0,3.86,1.73,5.3c2.02,1.25,4.24,0.58,6.36,0.48c0.96-1.16,0.48-2.41,0.39-3.66c-0.77-10.51,1.83-19.85,8.48-28.14
	c7.32-9.06,17.83-10.6,27.47-4.05c5.88,3.95,8.96,9.93,12.14,15.9c3.28,6.26,5.98,13.01,10.41,18.6c2.41,1.06,4.53-0.1,6.65-0.96
	c0.77-1.45,0.1-2.7-0.39-4.05c-0.87-2.51-2.02-4.92-3.18-7.32c-5.01-10.79-10.71-22.87-19.48-31.16c-5.88-5.59-20.9-5.57-20.71-5.85
	c-0.1-8.48-1.25-16.87-2.6-25.25c-1.45-8.39-2.7-16.87-4.72-25.16c-2.12-8.77-4.72-17.54-5.88-26.5c-0.67-5.2,0-6.17,5.11-6.84
	c11.76-1.64,23.61-2.99,35.47-3.18c2.89-0.58,5.88-0.58,8.77-1.06s3.28,0.77,2.8,3.18c-1.45,7.52-1.54,14.94,1.06,22.17
	c0.77,2.02,0.19,3.47-1.73,4.43c-2.12,1.25-3.86,2.89-5.4,4.82c-7.52,9.35-8.67,19.85-5.49,31.03
	c3.57,12.72,11.76,22.55,21.01,31.52c8.77,8.58,19.08,14.84,30.36,19.76c18.51,8,37.59,10.31,57.25,4.82
	c8.67-2.41,16.67-6.36,24.48-10.79c20.14-11.37,35.76-26.7,43.37-49.06c5.3-15.52,4.34-28.72-8.58-39.23
	c-1.73-1.25-3.66-2.31-5.88-2.8c-2.6-0.58-3.18-2.02-2.7-4.43c0.87-4.14,1.25-8.29,0.77-12.53c-0.29-2.31,0.96-2.89,2.89-2.89
	c2.22,0,4.24,0.77,6.46,0.67c7.9,0.19,15.71,1.35,23.61,1.83c4.72,0.29,9.45,0.67,14.07,1.35c3.95,0.58,4.43,1.16,3.76,4.92
	c-0.58,3.37-1.25,6.75-1.93,10.12c-3.18,14.75-6.94,29.49-9.35,44.43c-0.67,5.3-1.93,10.6-1.93,15.9c0,4.63-2.22,7.61-5.49,10.41
	c-1.73,1.45-3.57,2.89-5.11,4.63c-8.48,9.45-13.11,20.91-16.87,32.67c-0.96,2.99-2.12,6.26-0.87,9.64c2.22,0,4.53,0,6.84,0
	c1.35-0.96,1.64-2.51,2.12-3.95c2.89-7.9,5.78-15.9,10.41-22.94c5.4-8.29,12.24-14.17,23.13-12.14c0.87,0.19,1.73,0.1,2.6-0.29
	c5.11,0.1,10.02-1.54,14.46-3.66c8.96-4.24,17.64-4.24,26.7-0.58c2.6,1.06,12.43-2.76,13.59-5.75
	C790.43,240.65,786.67,240.71,786.18,241.29z"/>
<path class="st2" d="M341.2,245.63c0.39,1.54,0.77,2.99,1.25,4.53c1.54,2.8,3.66,3.86,7.04,3.95c10.02,0.48,17.73,5.11,22.36,14.26
	c2.99,5.98,4.92,12.34,6.46,18.79c0.29,1.35,0.58,2.8-0.29,4.05c-3.86,2.31-5.59,1.93-7.9-1.73c-1.83-4.34-2.12-9.25-4.53-13.4
	c-3.66-6.26-8-11.66-16.1-11.76c-5.2-0.1-9.35,2.12-12.24,6.65c-3.47,5.4-5.01,11.37-6.46,17.44c-1.45,4.53-2.8,5.11-7.04,3.28
	c-1.73-3.18-0.29-6.26,0.39-9.25c1.16-4.92,2.8-9.83,5.49-14.26c1.73-2.89,1.25-3.86-2.12-4.72c-6.55-1.83-14.65,2.31-18.41,9.35
	c-2.7,5.11-4.14,10.7-5.2,16.38c-1.45,4.82-3.37,5.49-7.23,2.6c-1.06-2.41-0.67-4.72,0-7.13c1.35-5.2,2.6-10.41,5.3-15.13
	c1.06-1.93,0.67-2.89-1.45-3.76c-5.59-2.22-10.99-0.96-14.84,3.66c-3.76,4.43-6.26,9.64-8.87,14.65c-1.35,2.6-2.41,5.4-4.14,7.81
	c-1.25,1.54-3.08,1.73-4.82,1.45c-5.49-0.67-11.18,0.77-16.38-1.83c-2.6-1.16-4.53-3.18-6.46-5.2c-2.12-2.41-4.43-4.53-7.04-6.36
	c-7.42-7.61-15.32-14.75-24.38-20.34c-8.29-5.11-17.16-7.42-26.7-5.2c-5.11,1.16-10.12,1.35-15.23,1.06
	c-8.77-0.48-13.59-6.26-17.16-13.49c-1.16-2.41-1.83-5.01-2.7-7.61c-4.53-15.9-7.61-32.09-12.53-47.8
	c-1.93-8.19-3.47-16.38-5.3-24.67c-2.31-10.89,0.96-15.81,12.72-20.82c0.77-0.39,1.73-0.29,2.51-0.77c2.7-1.06,3.57-2.99,2.8-5.78
	c-0.48-1.93-0.67-3.95-0.77-5.98c-0.1-3.47-0.19-3.57-3.86-2.31c-5.78,3.08-12.05,4.92-18.12,7.32
	c-12.43,5.01-15.04,8.77-14.94,22.17c0,5.11,0.58,10.22,1.64,15.23c2.99,13.98,5.88,27.95,8.87,41.93
	c3.08,14.07,4.43,28.43,4.92,42.89c0.19,5.49,0.58,10.99,1.54,16.38c0.58,5.59,1.25,11.18,2.8,16.67c0.39,1.45,1.06,2.89,0.29,4.34
	c-4.24,1.25-8.58,1.83-12.72-0.19c-2.7-5.11-3.66-10.79-5.69-16.19c-1.83-5.01-4.72-9.25-9.06-12.53
	c-6.84-5.11-15.71-3.86-20.53,3.28c-4.05,5.98-6.17,12.82-6.46,20.05c-0.1,2.31,0.67,4.82-1.06,6.94c-2.02,0-4.05,0-6.17,0
	c-2.02-3.47-1.25-7.23-0.67-10.79c0.96-6.46,3.08-12.63,6.07-18.41c1.64-3.28,1.16-4.24-2.51-4.72c-7.32-1.16-13.88,1.93-17.35,8.48
	c-3.57,6.84-6.17,13.98-5.4,21.97c0.1,1.25,0,2.51-0.96,3.57c-2.02,0-4.05,0-6.17,0c-1.16-1.25-1.06-2.8-1.16-4.34
	c-0.29-8.1,2.02-15.61,5.4-22.84c1.73-3.76,1.25-4.24-2.8-5.3c-8.19-2.22-13.98,0.96-18.51,7.42c-3.86,5.49-5.49,11.76-6.55,18.22
	c-0.39,2.31-0.29,4.92-1.83,6.94c-0.48,0-7.96,7.83-7.58,0.41c0.1-1.16-2.4-21.16-1.72-22.13c1.25-1.83,10.45-9.51,11.8-11.15
	c6.36-7.42,14.36-10.7,23.9-8.48c6.26,1.45,12.05,1.25,17.93-0.96c5.59-2.12,10.99-0.77,16.29,1.45c3.18,1.73,6.17-0.29,9.25-0.29
	c1.54,0,2.99-0.48,4.53-0.87c6.26-2.8,11.57-0.19,16.87,2.7c1.54,0.87,3.08,2.8,4.72,2.02c1.93-0.96,1.06-3.47,0.96-5.3
	c-0.58-10.99-1.64-21.78-3.66-32.58c-3.47-17.93-7.9-35.56-10.6-53.68c-1.25-8.19-0.77-16.29,0.67-24.38
	c1.06-5.78,4.05-11.08,9.25-13.98c9.06-5.01,18.7-8.87,29.01-10.51c6.65-2.22,11.95-5.98,15.81-12.05
	c7.81-12.24,25.64-19.37,39.9-16.29c4.14,0.87,8.29,1.73,12.24,3.28c6.17,2.31,11.57,1.45,16.48-2.7
	c8.67-7.42,18.79-9.83,29.97-9.16c8.1,0.48,15.32,3.37,21.4,8.48c7.13,5.98,15.42,8.29,24.19,9.45c4.92,0.67,9.93,1.16,14.84,1.93
	c10.31,1.64,16,7.71,18.31,17.44c3.37,6.65,2.99,13.88,3.28,20.91c0.48,11.47,1.83,22.84,2.31,34.22c0.1,2.51,0.19,5.11,0.19,7.61
	c0,15.42,0.1,30.84,0.1,46.26C341.29,233,342.35,239.36,341.2,245.63z"/>
<path class="st3" d="M370.88,289c1.35,3.76,4.05,2.89,6.75,1.93c1.45-0.39,2.99-0.48,4.43-0.39c4.63-0.19,9.25,0,13.88-0.39
	c3.28,0.29,6.55,0.29,9.83,0c8.39,0.1,16.77,0.67,25.16-0.48c2.31,1.45,4.92,1.64,7.52,1.16c9.06,0.29,18.12,0.19,27.18-0.1
	c2.22,0.19,4.53,0.29,6.75,0.29c10.02,0.48,19.95-0.96,29.88-2.12c0.48-0.1,1.06-0.19,1.45,0.19c2.02,2.51,4.34,2.02,6.75,0.77
	c3.86-1.06,7.61,0.58,11.37,0.39c2.89-0.19,5.88-0.1,8.77-0.19c2.51,0.39,4.92-0.58,7.42-0.77c5.98-0.29,11.85,1.35,17.83,0.67
	c38.74-1.45,77.49-0.39,116.23-0.87c2.02,0,4.05-0.29,6.07-0.58c4.24,1.06,8.58,0.48,12.92,0.77c2.31-0.1,4.63-0.19,6.84,0
	c6.17,0.1,12.34-1.45,18.51-0.77c2.7,0.96,5.4,0.29,8.1-0.29c10.02-0.1,20.05,0.67,30.07-0.48c2.51,1.73,5.11,0.96,7.71,0.1
	c8.96,0.96,18.02,0.58,27.08,0.58c2.51,0.67,4.82,0.87,6.26-1.93c0.19-0.48,0.87-0.1,1.25,0.19c1.45,1.64,3.37,1.45,5.3,1.64
	c6.46,0.39,12.72-0.87,19.08-0.77c3.18-0.1,6.36,0.19,9.54-0.77c5.01,0.96,10.12,0.96,15.13,0.1c4.05-0.58,8.19,0.48,12.05-1.54
	c3.18,2.22,6.65,0.96,9.93,0.87c3.08,1.93,6.46,0.96,9.64,1.16c1.35,0.1,2.8-0.1,4.14,0.1c3.18,0.96,6.26,0.19,9.35-0.48
	c2.41,1.35,5.01,1.83,7.71,1.83c6.36,0.1,12.63,0.19,18.99-0.19c3.37,0.96,5.4-0.67,7.04-3.37c1.73,2.89,4.34,3.66,7.61,3.95
	c5.4,0.48,10.7,0.39,16.1,0.1c3.37,1.06,5.49-0.48,7.04-3.28c1.93,2.6,4.72,2.99,7.71,2.8c6.65-0.39,13.3,1.73,19.95-0.19
	c2.89,0.19,5.78,0.29,8.58-0.77c5.59,1.45,11.37,0.67,16.96,0.96c1.73-0.1,3.47-0.1,5.2-0.1c2.22,0.19,4.53-0.19,6.84,0
	c2.31,1.35,4.53,0.1,6.84-0.1c13.49,0.67,26.89-1.06,40.38-0.77c1.54,0,3.08-0.1,4.53,0.1c3.37,0.96,5.01-1.45,6.75-3.57
	c1.73,5.2,5.78,2.51,8.96,2.6c3.28,0.39,6.55,0.1,9.83-0.1c5.2,0.39,10.41,1.35,15.61,0.87c2.7,1.45,5.4,0.48,8.1-0.1
	c9.45,0,18.99,0.1,28.43-0.19c0.87,0,1.73,0.29,2.6,0.48c2.12,0.48,2.99-0.48,3.18-2.51c0.19-1.83-0.48-3.86,1.35-5.2
	c2.02,0.87,1.64,2.7,1.64,4.34c0.1,2.8,1.45,3.86,4.05,3.86c3.57,0,7.13-0.1,10.7,0c2.6,0.1,4.72-0.58,6.36-2.7
	c0.1,0,0.29-0.1,0.39-0.1c1.73,2.89,4.05,2.89,6.75,1.54c0.48,0.39,0.87,0.77,1.25,1.16c0.67,0.48,1.25,0.87,2.02,0.87
	c7.04,0.1,14.17,0,21.2,0c0.77,0,1.45-0.48,1.83-1.16c0.58-2.22-0.39-4.43,0.29-6.65c0.77-7.42,0.1-14.84-0.1-22.17
	c0.96-3.28-0.48-6.84,1.06-10.02c0.29-0.39,0.67-0.48,1.16-0.29c0,13.78,22.06,30.6,22.16,44.38c0,1.93-0.39,2.7-2.31,2.31
	c-0.39-0.1-0.77,0-1.16,0c-347.55,0.67-717.16-1.78-1064.71-1.11c0.58-2.6,2.8-1.83,4.34-1.83c8-0.1,16-0.1,24-0.1
	c1.64,0,3.28,0.1,4.92-0.48c2.31-0.39,4.63-0.48,6.94-0.96c8.39-0.48,16.67-0.1,25.06-0.39c5.2,1.54,10.41,1.25,15.52-0.19
	c6.17,2.51,12.63,1.73,18.99,2.12c0.77,0,1.54-0.87,2.22-1.25c6.75,0.67,13.4-0.96,20.14-0.67c1.54,0.1,3.08-0.29,4.43,0.67
	c3.76,2.31,6.55,1.93,7.42-2.22c2.22,1.54,3.18,1.54,5.69,1.64c4.53,0.1,9.16-0.77,13.69,0.58c4.63,1.45,5.77,1.81,6.64-2.43
	c1.93,2.12,3.67,1.95,6.47,1.85c5.69-0.19,11.37,0.1,17.06-0.19c2.51,0,5.01,0.58,7.42-0.48C364.71,290.44,367.99,291.79,370.88,289
	z"/>
<path class="st3" d="M79.04,294.59c-0.96-8.19,0.77-15.9,4.05-23.32c2.8-6.36,7.23-10.6,14.26-11.08
	c7.42-0.58,12.63,3.76,16.38,9.45c4.53,6.94,5.98,15.04,8.29,22.75c0.67,1.64-0.58,1.73-1.54,1.64c-2.7-0.1-5.3,0.39-8-0.29
	c-2.12-0.96-2.22-3.18-3.08-4.92c-0.48-1.06-0.96-2.31-2.41-1.93c-1.45,0.39-1.16,1.73-0.96,2.89c0.19,1.54,1.25,3.18-0.1,4.63
	C96.97,294.49,88,294.59,79.04,294.59z"/>
<path class="st3" d="M20.63,294.68c0.48-9.54,2.22-18.79,8.1-26.7c5.88-8,12.34-9.45,22.36-5.88c1.64,0.58,2.8,1.16,1.54,3.28
	c-5.4,9.06-7.42,18.89-6.75,29.3C37.5,294.68,29.12,294.68,20.63,294.68z"/>
<path class="st3" d="M52.15,294.59c-1.35-9.64,1.06-18.41,5.78-26.7c4.34-7.42,12.82-10.6,20.34-8c2.7,0.96,3.76,1.93,1.93,4.82
	c-5.78,9.06-7.71,19.18-7.32,29.88C65.93,294.59,59.09,294.59,52.15,294.59z"/>
<path class="st4" d="M112.2,293.14c3.37,0.87,6.75,2.02,9.93-0.67c3.95,2.41,8.1,1.54,12.24,0.48c1.35-1.25,2.99-1.16,4.72-1.25
	c5.3-0.1,10.7,0.67,15.61-2.22c1.16,1.64,2.6,2.51,4.72,2.31c1.73-0.19,3.57,0,5.4-0.19c6.65-0.77,7.42-1.83,6.94-8.39
	c-0.19-2.12-0.29-4.34,0.1-6.46c0.19-1.35,0.39-2.99,2.51-2.31c0.48,4.82,1.06,9.54,0.87,14.36c-0.1,2.22,0.58,3.18,2.7,2.8
	c6.36-1.06,12.72-0.39,19.08-0.58c0.87,0,1.83,0,2.7-0.19c0.58-0.19,1.25-0.39,1.25-1.16c0-0.96-0.77-1.25-1.54-1.35
	c-2.31-0.1-4.53,0.67-6.75,1.06c-1.54,0.29-3.08,0.87-4.43,0.1c-2.31-1.25-3.18-3.18-1.73-5.69c3.57,3.37,7.52,1.83,11.57,1.35
	c5.59-0.77,8.19,2.51,6.36,7.81c-1.54,0.87-3.18,0.87-4.82,0.87c-8.39,0-16.77,0-25.16,0.1c-1.35,0-2.8-0.48-3.95,0.77
	c-19.47,0-38.94,0.1-58.41,0.1C111.62,294.01,111.62,293.53,112.2,293.14z"/>
<path class="st5" d="M112.2,293.14c0,0.48-0.1,0.96-0.1,1.35c-2.02,0-4.05,0-6.17,0c0.1-1.93-0.87-3.66-1.25-5.49
	c-0.29-1.54,0.29-2.8,1.73-3.37c1.64-0.67,2.8,0.1,3.47,1.45C110.75,289,111.42,291.12,112.2,293.14z"/>
<path class="st6" d="M867.53,286.4c-2.99,2.41-7.9,2.12-9.35-0.58c-1.06-3.18,0.48-5.88,1.93-8.48c2.41-4.34,4.72-8.77,8.19-12.53
	c4.14-6.17,10.12-10.02,16.48-13.4c6.17-3.28,6.26-3.66,2.02-9.45c-1.93-2.6-4.24-4.82-6.46-7.04c-2.7-2.7-3.47-5.78-2.22-9.45
	c0.96-2.8,1.83-5.59,2.6-8.39c2.02-7.42,1.45-14.65-1.25-21.78c-0.67-1.93-1.54-3.76-1.25-5.88c-0.19-2.7,1.25-4.53,2.99-6.26
	c2.99-2.99,5.88-5.98,8.77-8.87c0.96-1.93,2.12-3.76,3.47-5.49c1.83-2.22,2.8-4.92,2.89-7.81c0.19-5.01,0.48-10.02-0.1-14.94
	c-0.58-4.72-0.19-9.45,0.19-14.07c0.58-7.42,5.2-11.95,12.72-12.14c6.75-0.19,13.3,1.16,19.66,2.8c5.4,1.35,9.45,0.19,12.82-4.05
	c1.54-1.83,3.18-3.66,5.88-4.05c4.63-4.05,10.12-6.36,16.19-7.04c2.51-0.29,2.99-1.25,1.83-3.47c-1.93-3.86-3.57-7.9-5.3-11.85
	c-3.28-5.4-3.28-11.28-1.73-16.96c1.45-5.4,7.04-8.19,12.82-7.04c4.82,0.96,9.25,2.8,13.78,4.53c3.47,1.35,3.95,1.25,4.72-2.41
	c0.58-2.51,5.88-28.24,8-38.74c1.25-6.26,3.28-12.34,7.13-17.54c5.88-7.9,14.65-10.6,23.52-7.32c2.51,0.87,5.01,3.28,5.49,3.86
	c2.6,3.18,2.8,3.28,6.17,0.96c10.31-7.23,23.04-4.14,28.72,7.23c4.63,9.25,4.82,18.79,1.83,28.53c-3.37,9.45-5.69,19.18-8.29,28.91
	c-3.18,10.12-1.64,8,5.69,7.81c5.3-0.1,10.7-0.77,16,0.39c8.1,1.83,11.37,7.81,8.39,15.52c-1.64,4.34-4.34,8.1-7.71,11.28
	c-4.43,4.24-8.87,8.39-13.4,12.43c-3.37,3.08-5.3,6.55-3.28,11.18c2.02,4.63,4.92,8.29,10.7,8.1c0.29,0,0.48,0.1,0.77,0.19
	c13.59-0.29,26.5,3.66,39.52,6.55c9.16,2.12,11.57,6.26,9.83,15.32c-1.45,7.23-3.47,14.36-4.72,21.69
	c-1.25,7.71-1.93,15.42-2.02,23.23c0,6.46-1.45,12.91-0.58,19.37c0.39,3.18,0.77,6.36,1.06,9.54c0.19,2.12,0.67,3.08,3.28,2.8
	c2.6-0.39,10.7,1.54,13.01,3.08c-0.87,1.06-7.32-0.77-8.48-0.87c-5.4-0.58-10.7-0.96-15.42,2.31c-0.58,0.39-1.45,0.58-2.02-0.19
	c-1.64-5.3-1.83-10.79-2.12-16.29c-1.16-19.85-0.87-39.71,4.43-59.18c2.41-9.06,2.22-9.35-7.04-10.89
	c-11.08-1.83-21.97-4.92-33.15-5.69c-5.01-0.87-5.88-0.67-8.29,3.76c-5.49,9.93-13.3,16.87-24.38,19.76
	c-0.67,0.96-4.34-1.25-2.41,2.41c2.12,2.99,4.43,5.98,6.84,8.77c4.14,4.92,10.99,6.75,17.06,4.82c3.08-1.06,5.3-3.08,6.46-6.17
	c1.73-4.63-2.22-9.93-7.04-8.1c-1.35,0.58-3.18,1.16-4.05-0.77c-0.77-1.73,0.58-2.89,1.64-3.95c4.72-4.63,12.91-3.76,17.64,1.93
	c1.73,2.12,2.89,4.53,3.47,7.13c3.76,15.71-3.37,28.91-18.99,34.6c-6.17,2.31-12.63,3.37-19.28,2.22c-3.28-0.58-5.11,0.58-6.46,3.37
	c-3.37,7.23-7.13,14.07-12.14,20.34c-3.08,3.86-6.55,7.13-10.99,9.45c-9.06,4.72-18.02,3.37-25.35-3.66
	c-7.9-7.52-13.78-16.38-18.89-25.93c-0.96-1.83-1.83-3.66-2.89-5.4c-1.25-2.31-3.08-2.99-5.78-2.7c-8.29,0.96-16.1-0.67-23.23-4.82
	c-9.54-5.59-14.07-16.77-11.28-27.28c1.16-4.34,3.47-8,8-9.54c3.57-1.25,7.61,0.39,8.87,3.37c0.77,1.83,0.19,3.28-1.93,3.08
	c-3.08-0.19-5.69-0.1-6.75,3.37s0.29,7.52,3.28,9.93c4.43,3.57,12.05,3.57,16.87-0.1c3.37-2.51,5.69-5.78,7.32-9.64
	c0.1-0.19,0.19-0.48,0.29-0.67c3.08-6.75,3.08-6.46-3.57-9.25c-12.91-5.49-20.91-15.13-23.9-28.91c-0.58-2.51,0-5.4-2.12-7.61
	c-7.04-3.18-14.36-5.3-22.26-4.92c-2.89,0.1-4.24,1.16-4.14,4.05c0.19,5.4-0.1,10.7,0.58,16c1.45,12.34-3.86,22.07-12.34,30.36
	c-0.58,0.58-1.16,1.06-1.83,1.45c-3.57,2.41-4.63,5.4-2.89,9.54c3.76,8.87,3.28,17.73-0.39,26.41c-2.31,5.49-0.96,9.73,3.18,13.78
	s6.94,9.16,8.48,14.75c-0.58,2.02-3.95,0.48-3.95,2.8c0,2.02,2.8,1.93,3.76,3.37c0.77,1.16,2.31,2.12,1.16,3.95
	c-1.25,0.67-2.51,0.29-3.76,0.1c-8.87-1.54-15.13,2.89-20.82,8.87c-3.95,4.14-6.07,9.35-8,14.65
	C869.65,283.99,869.55,285.82,867.53,286.4z"/>
<path class="st7" d="M737.03,83.51c-1.93-9.16-8.58-12.24-16.96-13.4c-25.73-3.66-51.76-3.86-77.68-4.34
	c-29.11-0.58-57.92,3.47-86.84,5.88c-23.71,2.02-47.23,5.2-70.55,9.83c-8.48,1.73-10.22,3.66-10.22,12.24
	c0,10.99,1.83,21.88,2.99,32.77c0.67,6.07,0.96,12.24,1.25,18.31c0.1,3.57-2.99,2.51-5.01,3.08c0.77-7.52-1.64-14.07-5.59-20.24
	c-5.2-8-9.83-16.29-12.63-25.64c-5.11-17.25,2.6-34.22,18.89-42.21c9.54-4.72,18.99-5.2,28.91-1.73c9.45,3.37,18.79,7.42,28.91,8.87
	c5.2,0.77,10.22,0.39,15.13-1.25c5.88-1.83,11.57-4.24,17.06-6.94c16.1-7.9,32.48-8.29,49.54-3.76c16.38,4.34,33.06,6.36,50.02,3.66
	c7.23-1.16,13.88-4.34,20.72-6.65c9.73-3.28,19.66-4.82,29.69-1.83c7.9,2.31,14.55,6.94,19.37,13.59
	C738.57,69.92,739.25,76.57,737.03,83.51z"/>
<path class="st8" d="M142.27,117.15c-7.42,2.7-14.84,5.2-22.17,8.1c-9.06,3.47-14.07,9.93-15.52,19.95
	c-2.41,16.38,2.02,31.81,5.11,47.52c2.8,14.36,6.36,28.63,8,43.18c0.77,7.13,1.16,14.26,1.06,21.4c0,3.37-1.35,2.99-3.37,1.64
	c-3.18-1.93-6.26-3.95-9.73-5.2c-3.47-1.25-8.18-1.06-11.75-0.86c0.48-0.48,3.07-1.2,2.69-2.74c-2.51-8.77-0.29-16.16,2.02-24.54
	c2.02-7.61,4.63-15.13,4.63-23.13c0-10.02-2.31-19.66-6.36-28.82c-3.08-6.94-6.65-13.78-8.19-21.4
	c-4.43-21.78,12.82-41.83,36.24-38.74C130.8,114.36,136.58,115.42,142.27,117.15z"/>
<path class="st9" d="M1113.2,245.82c6.17-5.3,13.4-3.86,20.53-3.08c4.63,1.16,9.06,1.54,13.3-1.35c5.01-2.8,10.51-2.89,15.61-1.54
	c9.45,2.6,18.89,2.31,28.43,2.51c8.96,0.29,16.48,4.14,22.07,11.28c1.25,1.54,12.54,27.8,12.44,29.82c1.16,7.71-7.01,8.16-9.55,6.8
	c-2.02-1.54-3.08-12.24-3.57-14.36c-1.45-6.26-3.95-12.14-8.19-17.06c-6.46-7.42-12.63-6.84-21.2-4.72
	c-2.7,0.67-1.83,2.41-0.96,4.24c3.08,6.55,5.88,13.3,6.17,20.72c0.1,2.8,1.16,5.78-0.96,8.39c-0.77,2.31-2.6,2.41-4.53,2.12
	c-2.51-0.29-2.22-2.7-2.7-3.86c-0.67-0.67,0.19-1.25,0.19-2.12c-0.19-7.13-2.51-13.78-4.63-20.43
	c-3.37-10.51-13.69-15.61-24.19-12.43c-2.89,0.87-3.18,1.73-1.45,4.34c4.43,6.75,7.23,13.98,8.1,22.07c0.1,1.25,1.85,2.62,0.89,3.78
	c-0.1,1.35-0.02,2.3-0.02,3.65c0,5.2-2.99,6.36-7.71,3.86c-1.45-1.64-0.87-3.66-0.96-5.49c-0.67-8.39-3.08-16.1-7.71-23.23
	c-6.94-10.89-22.26-7.81-28.14-0.58c-5.3,6.46-9.35,13.59-12.43,21.4c-0.96,2.51-1.54,5.4-3.86,7.32
	c-3.28,1.35-6.65,1.16-10.02,0.19c-0.58-0.67-0.48-1.45-0.19-2.22c4.24-10.79,7.61-21.97,14.84-31.32c1.83-2.51,3.95-4.72,6.26-6.75
	C1110.02,246.3,1111.28,244.95,1113.2,245.82z"/>
<path class="st10" d="M947.43,114.26c-0.19,0.29-0.48,0.48-0.77,0.87c-6.46,9.64-15.13,10.41-25.35,7.13
	c-3.86-1.25-8-1.45-12.14-1.35c-7.61,0.29-11.08,3.57-11.95,11.08c-0.67,5.98-0.19,11.95,0,17.83c0.1,2.8,0.19,5.59,0.29,8.39
	c0.19,6.55-2.51,11.85-7.61,15.81c0-7.04-2.6-13.01-6.75-18.6c-6.55-8.67-9.64-18.22-6.17-29.11c4.24-13.3,18.31-22.46,33.54-21.78
	c7.32,0.29,13.98,2.6,20.72,5.01C936.63,111.37,941.84,113.3,947.43,114.26z"/>
<path class="st7" d="M765.17,238.88c-4.34,0.58-8.58,1.35-12.53,3.28c-2.22,1.06-4.43,0.87-6.65,0.1
	c-4.43-1.54-8.87-3.18-13.69-3.18c-2.7,0-2.22-1.73-2.22-3.37c0-9.64,2.31-18.89,4.34-28.24c3.28-14.75,6.75-29.49,10.22-44.24
	c0.48-2.12,1.25-4.14,1.83-6.17c1.54-5.4-0.77-9.64-6.17-11.18c-2.12-0.58-4.24-1.16-6.46-1.06c-2.8,0.19-3.86-0.77-2.22-3.47
	c3.76,0.96,7.61-0.29,11.37,0.19c13.4,1.54,21.59,11.76,19.95,25.25c-1.16,9.73-5.11,18.22-10.79,26.12
	c-4.53,6.36-8.67,12.91-8.77,21.11c0,7.81,3.47,13.3,10.41,16.77C757.94,232.9,762.28,234.93,765.17,238.88z"/>
<path class="st8" d="M341.2,245.63c-1.83-14.65-1.54-29.49-1.25-44.24c0.29-17.44-0.48-34.89-2.02-52.33
	c-0.87-10.51-1.16-21.01-2.51-31.52c8.58,5.98,15.71,12.91,17.54,23.9c1.45,8.77,0.58,17.35-2.8,25.44
	c-2.51,6.07-3.95,12.34-4.72,18.89c-0.48,4.34,0.29,8.39,2.41,12.14c1.73,3.28,3.47,6.55,5.01,9.83
	c6.26,13.69,3.76,23.52-8.48,32.19C342.35,241.58,341.1,243.12,341.2,245.63z"/>
<path class="st11" d="M395.94,291.02c-4.72,1.16-9.54,0.48-14.36,0.48c0.48-3.95,3.47-6.55,5.4-9.64c0.48-0.67,1.06-1.35,1.35-2.12
	c2.51-6.65,3.37-13.49,2.99-20.63c-0.67-12.82,6.07-23.61,16.58-26.99c4.63-1.54,9.35-1.25,13.98,0.19
	c3.95,1.25,7.71,2.89,11.08,5.2c6.84,4.82,14.26,4.72,21.97,2.99c2.02-0.48,3.95-0.87,5.98-1.35c3.28-1.25,6.55-1.06,9.54,0.58
	c3.66,2.12,7.61,3.95,10.41,7.42c-0.39,1.73-1.83,1.54-3.08,1.54c-1.25-0.1-2.51-0.48-3.66-1.06c-7.9-4.24-15.9-4.24-23.9-0.19
	c-2.7,1.35-5.2,0.48-7.71-0.77c-3.66-1.93-7.52-3.18-11.66-3.66c-11.47-1.25-20.53,7.71-24.96,16.96
	c-4.24,8.77-6.17,18.31-8.48,27.76C397.1,288.9,397.39,290.25,395.94,291.02z"/>
<path class="st12" d="M1121.68,228.95c-1.16-9.73-0.87-19.47-0.39-29.2c0.67-11.95,3.57-23.61,6.46-35.28
	c2.12-8.58-0.67-11.95-9.73-14.26c-12.72-3.08-25.64-5.3-38.46-7.52c2.12,0,3.66-0.48,5.01-2.51c1.83-2.8,4.92-3.47,8.19-2.89
	c2.89,0.58,5.69,1.54,8.29,2.8c4.24,2.12,8.77,2.89,13.4,2.22c4.14-0.58,8.19-0.29,12.24,0.19c11.47,1.45,14.94,9.16,13.4,21.01
	c-0.48,3.47-1.93,6.55-4.14,9.35c-4.72,5.98-5.69,12.91-4.72,20.24c0.39,2.8,0.29,5.59,0.19,8.39c-0.1,4.14-1.45,8-4.92,10.31
	c-4.82,3.18-5.01,7.81-5.01,12.72C1121.59,226.16,1122.17,227.6,1121.68,228.95z"/>
<path class="st10" d="M878.13,189.15c5.3,10.89,6.46,22.17,1.73,33.54c-2.22,5.4-1.64,9.64,3.37,13.3c3.28,2.41,5.4,6.07,7.23,9.73
	c1.06,2.12,0.96,3.47-1.45,4.43c-8,3.37-14.75,8.48-20.63,14.84c-0.29,0.1-0.58,0.1-0.87-0.1c-0.58-2.7,0.19-5.4,1.06-7.81
	c2.12-6.36,1.06-12.24-1.64-18.12c-0.87-1.83-1.73-3.66-2.51-5.59c-2.51-7.04-0.87-13.3,4.53-18.02c5.3-4.63,7.61-9.93,7.13-16.77
	C876.01,195.41,876.11,192.04,878.13,189.15z"/>
<path class="st11" d="M787.82,241.29c-0.48,0-1.06,0-1.54,0c12.05-15.71,34.12-13.3,42.21,4.82c0.87,1.93,1.83,3.95,2.22,6.07
	c2.02,11.66,7.81,21.01,17.25,28.14c2.22,1.06,1.83,2.6,0.96,4.43c-0.67,1.25-1.64,2.22-2.6,3.18c-4.34,1.16-8.67,0.77-13.01,0.87
	c-1.06,0-1.54-0.77-1.93-1.45c-1.83-0.77-1.35-2.51-1.73-3.95c-2.41-9.25-4.05-18.7-8.67-27.28c-3.08-5.78-7.32-10.41-13.11-13.59
	c-5.01-2.8-10.12-3.18-15.52-1.54C790.81,241.29,789.36,241.96,787.82,241.29z"/>
<path class="st3" d="M388.42,279.65c-1.16,4.53-4.24,8-6.75,11.85c-1.35,0-2.8,0.39-4.05-0.58c-1.16-9.16-3.66-17.93-8.96-25.64
	c-4.92-7.13-12.05-10.6-20.72-9.93c-4.24,0.29-5.4-1.73-5.49-5.2c6.36-3.37,12.82-6.36,20.34-4.53c10.02,2.41,16.1,8.77,18.99,18.51
	c1.35,4.63,1.45,9.64,3.47,13.98C385.72,279.07,385.92,282.25,388.42,279.65z"/>
<path class="st3" d="M13.82,294.21C13.62,293.92,0,295.63,0,295.34c11.28-19.05,7.74-28.24,14.57-39.31
	c3.9-6.32,20.14-13.77,26.88-13.01c5.15,0.58,12.72,5.98,20.05,5.3c4.24-0.39,8.39-0.77,12.53,0.19c3.28,0.77,5.88,2.41,7.32,5.49
	c-0.87,0-1.83,0.1-2.6-0.1c-5.88-1.64-11.57-1.25-17.25,0.87c-4.14,1.64-8.48,1.25-12.72,0.19
	C36.15,251.6,14.21,260.27,13.82,294.21z"/>
<path class="st7" d="M480.22,248.29c-1.64-1.06-3.41-3.05-4.86-4.31c-4.14-3.66-9.06-5.01-14.46-4.92
	c0.96-8.96,4.82-16.67,10.02-23.81c1.83-2.51,3.28-5.3,4.92-8c2.51,10.89,4.63,21.78,6.17,32.87c0.1,0.87,0.44,3.37,0.44,3.37
	S482.86,247.02,480.22,248.29z"/>
<path class="st13" d="M293,134.31c0.96-0.1,2.02-0.29,2.99-0.29c4.82-0.1,5.98,0.96,5.98,5.69c0,8.67-1.35,17.25-2.02,25.93
	c-1.54,17.93-2.6,35.85-2.41,53.88c0,1.45,0,2.8,0,4.24c-0.19,6.65-1.16,7.71-7.71,8.39c-28.63,2.7-57.35,4.82-85.78,9.35
	c-7.71,1.25-15.32,2.6-23.03,4.05c-10.22,1.93-15.42-0.67-18.51-10.51c-3.08-9.93-5.59-20.14-8.1-30.26
	c-3.66-14.84-8-29.59-10.51-44.62c-1.06-6.36-0.67-7.42,5.88-10.22c1.35,0.1,1.83,1.25,2.41,2.22c6.84,11.85,21.4,17.06,35.76,12.53
	c2.7-0.87,5.3-1.83,8-2.7c7.04-2.02,13.3-5.49,18.99-10.22c5.59-4.63,11.85-5.11,18.31-2.12c15.42,7.13,30.17,5.88,44.34-3.08
	c1.06-0.39,2.02-1.16,2.99-1.73C285.39,142.11,288.67,137.58,293,134.31z"/>
<path class="st8" d="M236.24,291.31c-2.41,1.25-4.92,0.67-7.42,0.67c-6.17,0.1-12.34,0-18.51,0c-1.54-2.02-1.45-4.53-1.73-6.94
	c-0.67-5.01-1.73-5.78-6.84-4.92c-1.93,0.39-3.76,0.77-5.69,1.06c-2.89,0.48-4.72-0.58-5.2-3.57c-0.29-1.54-0.58-2.99-0.87-4.53
	c-0.77-4.14-1.83-5.11-6.17-5.2c-4.14-0.1-8.19,0.48-12.14,1.45c-3.76,0.96-4.92,2.8-4.63,6.75c0.1,1.73,0.87,3.47-0.19,5.2
	c-1.16,0.96-2.41,0.48-3.66,0.48c-4.24-0.1-8.39,0.58-12.43,1.83c-8.1,2.41-10.89,1.54-16.1-5.2c-1.54-2.02-3.08-4.05-4.34-6.26
	c-1.35-6.17-1.16-12.43-1.45-18.7c-0.96-21.11-5.01-41.64-9.54-62.26c-2.7-12.53-6.26-24.96-6.17-37.97
	c0.1-9.73,3.95-16.29,13.11-19.76c7.04-2.6,13.98-5.49,21.01-8.19c0.87,2.51-0.1,5.01-0.1,7.52c0.1,3.18,0.39,6.07,2.31,8.58
	c-2.51,0.87-4.92,1.54-7.23,2.99c-7.61,4.72-9.16,8-7.32,16.77c1.64,8.29,3.47,16.67,5.2,24.96c0.29,5.59-1.73,10.89-2.22,16.48
	c-1.35,13.78,3.28,24.58,14.94,32.29c1.83,5.01,3.57,10.02,7.32,14.07c6.07,6.65,14.17,7.23,21.59,5.2
	c17.25-4.72,30.65,1.73,43.08,12.34c4.82,4.14,9.83,8.1,13.78,13.2C240.96,284.66,240.09,288.71,236.24,291.31z"/>
<path class="st8" d="M311.41,140.48c-0.1-0.19-0.19-0.48-0.19-0.77c0.39-8.87-3.95-13.69-12.63-15.04
	c-0.58-0.77-0.58-1.64-0.39-2.51c0.96-4.24,1.35-8.48,1.25-12.72c0-0.77,0.19-1.54,0.77-2.02c5.59,0.29,11.18,1.16,16.58,2.6
	c4.53,1.16,6.65,4.92,7.23,8.96c1.35,8.39,2.41,16.87,3.28,25.35c1.83,17.44,2.51,35.08,2.8,52.62c0.29,15.23,0.87,30.55,1.54,45.78
	c0.1,3.66,0.87,7.32,1.54,10.89c0.48,2.31,0.39,3.08-2.31,2.31c-5.4-1.54-10.89-1.06-16.19,0.67c-3.76,1.25-7.52,1.25-11.37,0.39
	c-3.66-0.77-7.23-1.64-10.99-1.35c-2.22,0.1-2.51-0.67-1.45-2.41c2.41-3.95,4.72-7.9,7.13-11.76c3.47-0.87,7.04-1.25,9.73-4.05
	c3.57-3.66,4.43-8.19,4.82-12.91c0.48-5.78-1.25-11.37-1.64-17.06c-0.48-7.13,0.77-13.88,3.76-20.43c5.4-11.85,5.3-24.19,2.22-36.62
	C316.04,146.64,313.15,143.94,311.41,140.48z"/>
<path class="st14" d="M250.89,145c-5.88,0.29-12.63-1.73-18.22-6.84c-8.29-7.71-10.22-21.69-4.63-33.25
	c5.11-10.51,16.29-16.19,28.34-14.36c9.54,1.45,17.83,4.72,21.3,14.84c3.95,11.37,3.76,22.17-4.14,31.81
	C268.24,143.85,260.43,145,250.89,145z"/>
<path class="st14" d="M215.61,125.44c-0.1,13.2-5.88,21.97-17.16,26.22c-10.89,4.05-23.42,1.25-30.75-6.84
	c-11.57-12.91-7.9-37.97,11.76-43.85c4.82-1.45,9.73-2.31,14.75-1.64C208.29,101.25,215.71,110.31,215.61,125.44z"/>
<path class="st3" d="M370.88,289c0.1,1.73-0.29,2.99-2.41,2.6c-2.22-0.39-6.52,2.2-8.35-0.02c-2.22-0.67-0.52-4.12-1.48-5.67
	c-0.58-0.87-1.16-1.83-2.41-1.54s-1.16,1.45-1.16,2.51c-0.1,1.35,0.77,2.7-0.1,4.05c-4.72,1.35-9.54,0.39-14.26,0.77
	c-2.12,0.19-4.34-0.19-6.46,0.1c-3.08,0.39-4.53-0.67-4.34-3.76c1.06-4.34,2.12-8.58,3.86-12.72c2.89-6.75,7.23-11.76,15.13-12.05
	c8.19-0.29,13.11,4.72,16.96,11.08C368.57,278.88,369.24,284.08,370.88,289z"/>
<path class="st13" d="M311.41,140.48c4.05,2.02,5.69,5.98,6.65,9.83c3.28,12.05,3.47,24.29-1.83,35.85
	c-4.53,10.02-5.2,19.95-2.99,30.55c1.25,6.17,1.06,12.43-1.93,18.22c-2.89,5.4-8.1,7.9-13.2,6.55c0.29-1.73,1.54-2.89,2.89-3.95
	c3.76-2.8,5.01-6.55,5.11-10.99c0.1-14.75,0.39-29.49,1.54-44.24C308.91,168.33,310.26,154.45,311.41,140.48z"/>
<path class="st3" d="M323.84,292.5c-6.26,1.45-13.69,1.43-20.06,1.71c-2.22,0.1-1.12-3.25-0.86-5.21c1.16-6.36,2.8-12.63,6.26-18.22
	c4.43-7.13,12.91-10.31,20.14-7.71c2.6,0.96,3.95,1.83,1.83,5.01C326.74,275.02,324.52,284.11,323.84,292.5z"/>
<path class="st3" d="M296.64,292.66c-7.71,0.77-14.92,0-22.63,0c-0.96,0-1.35-0.58-1.54-1.35c3.28-7.52,6.65-14.94,11.66-21.4
	c4.72-6.17,10.41-7.52,17.64-4.92c2.31,0.87,3.18,1.64,1.73,4.34C299.66,276.08,296.74,284.76,296.64,292.66z"/>
<path class="st3" d="M273.25,266.35c-0.39,0.58-0.87,1.35-1.35,2.12c-3.18,5.01-6.36,10.12-8.77,15.61
	c-1.35,2.99-3.08,3.28-5.2,1.25c-4.92-4.72-9.64-9.45-14.36-14.36c-2.12-2.22,1.06-8.1,4.63-8.1c6.17-0.1,12.14-1.06,18.31-1.73
	C269.39,260.85,273.44,264.03,273.25,266.35z"/>
<path class="st13" d="M152.96,234.93c-1.73,1.06-2.89-0.19-4.05-1.16c-8.58-7.32-12.82-16.58-12.34-27.85
	c0.29-6.75,1.35-13.3,3.66-19.66c3.86,10.7,5.78,21.88,8.67,32.77C150.27,224.33,151.61,229.63,152.96,234.93z"/>
<path class="st3" d="M130.31,272.13c2.8,1.54,4.24,4.34,6.07,6.75c3.76,5.01,6.94,5.98,12.91,3.95c5.49-1.93,11.18-2.51,16.96-1.64
	c2.51,2.8,2.12,5.78-1.35,7.13c-3.18,1.25-6.55,2.02-10.02,1.45c-6.17,5.4-13.69,2.41-20.63,3.08
	C132.24,286.11,130.7,279.26,130.31,272.13z"/>
<path class="st14" d="M195.85,161.87c-12.63,10.12-35.85,5.69-44.05-8.39c-0.67-1.16-1.35-2.41-2.02-3.66
	c5.59-3.76,7.32-3.57,11.66,1.16c7.81,8.48,17.73,11.66,29.11,11.18C192.29,162.06,194.12,161.97,195.85,161.87z"/>
<path class="st14" d="M232.29,260.76c-4.82-3.37-9.45-6.94-14.75-9.54c-0.77-0.39-1.83-0.67-1.54-1.83
	c0.19-0.87,1.16-0.87,1.93-0.96c6.46-0.87,12.91-1.64,19.37-2.6c2.02-0.29,3.28,0.39,3.47,2.41c0.29,2.6,0.48,5.3,0.67,7.9
	C238.74,258.54,235.47,259.41,232.29,260.76z"/>
<path class="st14" d="M271.42,249.77c0-6.75,0-6.75,6.07-7.42c3.18-0.39,6.36-0.67,9.54-0.96c2.12-0.19,2.41,0.67,1.45,2.41
	c-2.89,4.92-5.78,9.83-8.67,14.84c-1.06,1.83-2.12,2.22-3.86,0.67C272.77,256.52,270.16,253.72,271.42,249.77z"/>
<path class="st14" d="M300.33,107.42c0.96,5.98,0.1,11.66-1.64,17.35c-6.07,0.58-8.19-1.16-8.67-7.04
	c-0.19-2.99-0.58-6.07-1.16-9.06c-0.48-2.51,0.39-3.28,2.89-2.8C294.55,106.45,297.44,106.84,300.33,107.42z"/>
<path class="st3" d="M247.9,252.28c-0.96-1.06-0.67-2.41-1.06-3.57c-0.77-2.8,0.39-4.14,3.18-4.24c4.72-0.19,9.45-1.64,14.07,0.19
	c0.67,1.73,0,3.08-1.54,3.76c-3.86,1.83-7.9,3.47-12.05,4.82C249.54,253.63,248.57,253.24,247.9,252.28z"/>
<path class="st14" d="M149.69,141.44c-1.16-0.39-2.7-0.1-2.89-1.93c-0.39-4.72-1.54-9.54,0.58-14.17c0.87-0.39,1.83-0.87,2.7-1.35
	c1.45-0.67,2.22-0.1,2.12,1.45c-0.1,3.76,0.58,7.52,1.35,11.18C154.12,139.61,151.81,140.57,149.69,141.44z"/>
<path class="st3" d="M236.24,291.31c2.99-3.37,2.22-7.61,2.51-11.57c5.01,2.6,7.81,7.81,12.43,10.79c0,0.39,0.1,1.06,0,1.06
	c-4.63,1.45-9.45,1.54-14.26,0.96C236.72,292.56,236.53,291.79,236.24,291.31z"/>
<path class="st3" d="M247.38,251.43c3.18,0.87,6.01-0.6,8.71-1.47c1.83-0.58,3.57-1.35,5.4-2.02c1.64-0.58,2.6-1.54,2.6-3.37
	c1.35,2.6,0.77,5.4,0.87,8.1c0.1,1.73-1.45,1.93-2.7,2.02c-3.57,0.39-7.13,0.77-10.6,1.16C248.86,256.32,247,254.33,247.38,251.43z"
	/>
<path class="st14" d="M293,134.31c-2.89,5.11-7.42,8.29-12.24,11.28c-1.35,0.67-3.18,0.96-3.18,0.96c1.21-0.59,2.7-3.28,3.08-3.86
	c1.73-2.51,3.37-5.01,5.2-7.32C287.8,132.96,290.5,134.11,293,134.31z"/>
<path class="st14" d="M232.29,260.76c2.51-2.6,5.88-3.47,9.16-4.53c0.39,2.89-1.45,4.92-2.89,7.13c-0.77,1.25-1.93,1.64-3.08,0.48
	C234.31,262.88,232.96,262.2,232.29,260.76z"/>
<path class="st14" d="M280.67,145.58c-0.87,0.87-1.93,1.35-3.18,0.87"/>
<path class="st10" d="M1103.47,254.4c-7.32,10.12-10.99,21.88-15.61,33.25c-1.93,1.16-4.14,0.96-6.26,1.16
	c-3.47,0.29-1.35-2.7-2.12-4.05c-1.06-3.66-2.7-6.84-6.17-8.87c-5.88-4.82-12.34-7.04-20.05-5.01c-2.99,0.77-5.69-0.48-8.1-2.22
	c-2.12-1.06-3.95-2.7-5.98-3.95c-2.89-2.41-5.59-0.87-8.29,0.39c-0.29,0.19-0.67,0.29-1.06,0.39c-9.25,2.12-14.94,10.02-13.88,19.37
	c0.19,1.93,0.58,3.86-1.45,5.11c-1.83,0.19-3.76,0.39-5.59-0.29c-3.37-4.63-7.52-8.58-11.66-12.63c-2.8-2.8-4.24-6.36-5.69-9.83
	c-3.18-7.52-8.29-13.59-14.65-18.41c-6.65-5.01-14.46-5.69-22.26-2.99c-8.1,2.8-15.13,2.02-21.59-3.95
	c-4.72-4.34-10.22-3.95-15.23,0.29c-2.51,2.12-4.63,4.82-7.52,6.55c-2.31,1.35-4.53,2.31-7.23,1.83c-0.58-0.1-1.16-0.39-1.54-0.96
	c-3.37-6.55-6.75-13.11-12.34-18.22c-2.31-2.12-2.22-5.4-1.06-8.29c4.63-10.89,5.01-21.78-0.1-32.58c-0.96-2.02,0.39-2.99,1.73-4.14
	c6.55-5.4,12.14-11.47,15.13-19.76c1.83-5.01,1.73-10.02,1.25-15.04c-0.48-5.49-0.87-10.89-0.48-16.38c0.19-2.6,1.35-3.47,3.86-3.66
	c8.48-0.39,16.48,1.45,24,5.2c-0.19,4.34-1.64,8.39-1.45,12.82c0.19,7.23,2.89,13.3,7.71,18.6c5.59,6.36,12.53,10.79,20.05,14.36
	c1.16,0.58,2.51,0.67,2.99,2.12c-2.89,8.87-9.83,13.78-18.31,12.91c-6.65-0.67-11.37-5.78-10.99-11.95c0.29-5.11,2.89-7.13,7.9-6.07
	c0.67,0.1,1.45,0.48,1.73-0.19c0.19-0.48-0.1-1.25-0.39-1.73c-2.02-3.57-7.13-4.05-10.7-0.96c-4.53,4.05-5.59,9.45-5.01,15.04
	c1.06,10.22,6.65,17.25,16.38,20.63c6.07,2.12,12.34,3.37,18.89,2.22c2.8-0.48,4.24,0.67,5.4,2.99c3.86,7.61,8.1,15.04,13.2,21.97
	c3.08,4.14,6.55,7.9,10.41,11.18c7.9,6.84,19.57,5.78,28.24-2.22c5.3-4.92,9.06-10.99,12.53-17.25c1.35-2.51,2.7-4.92,3.76-7.52
	c1.54-3.95,3.86-5.01,8.19-4.53c11.85,1.45,22.65-1.45,31.23-10.31c6.75-6.94,8.58-20.91,3.95-29.4c-4.05-7.42-13.2-9.35-18.31-3.86
	c-0.77,0.87-1.93,1.83-1.16,2.89c0.77,1.16,1.83,0,2.7-0.29c2.6-0.96,5.11-0.77,7.04,1.35c2.02,2.22,2.8,4.82,1.83,7.81
	c-2.8,8.29-15.81,11.08-22.94,4.53c-3.76-3.47-7.13-7.32-9.45-11.95c0.48-2.02,2.22-1.93,3.66-1.93c2.51,0,4.82-0.58,6.94-1.83
	c9.54-4.43,17.25-10.99,22.46-20.24c0.58-1.06,1.16-2.31,2.6-2.51c3.95,0.48,7.9,0.87,11.76,1.45c3.76,0.58,7.04,1.93,9.64,4.92
	c1.83,2.12,3.95,4.05,5.98,5.98c3.08,2.99,3.86,6.55,2.22,10.51c-2.7,6.55-4.72,13.2-6.36,20.05c-3.95,16.38-3.76,32.58,1.93,48.58
	c0.77,2.02,1.93,3.86,3.08,5.69C1103.76,251.41,1104.43,252.76,1103.47,254.4z"/>
<path class="st7" d="M490.78,217c-2.7-17.16-7.23-33.83-10.7-50.79c-0.29-1.64-0.39-3.28-0.58-4.92c-0.29-2.31,0.58-3.66,2.99-4.05
	c13.01-1.93,26.02-3.66,39.23-3.47c0.96,0.58,1.16,1.64,1.06,2.7c-0.48,4.82,0.29,9.54,1.73,14.07c0.39,1.06,0.67,2.22,0.1,3.28
	c-3.08,0.87-6.36,0-9.45,1.35c-5.4,2.31-8,8.58-5.3,13.78c0.39,0.67,0.77,1.45,1.64,1.35c0.87-0.1,1.25-0.77,1.45-1.54
	c0.39-1.54,0.29-2.99,0.29-4.53c0-2.6,1.16-4.43,3.66-5.2c2.7-0.96,4.82-2.7,7.04-4.43c0.58-0.58,1.25-0.48,1.64,0.1
	c2.22,3.28,5.3,6.07,6.75,9.93c-11.08,9.73-13.59,21.88-9.25,35.47c4.82,14.84,14.84,26.12,26.89,35.56
	c17.06,13.4,36.34,21.3,58.21,21.78c14.07,0.29,26.99-3.76,39.42-10.02c17.35-8.67,32.38-20.05,42.6-36.91
	c4.63-7.61,7.81-15.81,9.35-24.58c1.83-10.6-0.67-19.76-8.67-27.18c-0.48-0.39-0.77-0.96-1.16-1.45c-0.19-0.48-0.48-0.96-0.39-1.45
	c1.45-6.75,2.12-13.59,1.25-20.53c-0.1-0.58,0.29-1.16,0.77-1.64c13.3,0.39,26.5,1.83,39.71,3.18c2.99,0.29,3.86,1.73,3.18,4.63
	c-3.86,17.83-7.61,35.66-11.37,53.49c-0.19,0.96-0.39,2.02-0.48,2.99c-1.64,6.84-5.98,12.34-9.73,18.02
	c-10.22,15.32-18.89,31.52-28.91,46.84c-1.45,2.31-2.31,5.2-5.11,6.36c-1.25,1.73-3.18,1.25-4.92,1.25
	c-35.66,0.1-71.32,0.29-106.98,0.29c-3.86,0-7.61,1.35-11.37,0.1c-3.28-0.96-4.82-3.95-6.84-6.26
	c-9.93-11.76-20.24-23.32-30.26-35.08c-8.19-9.64-16.87-18.89-24.96-28.63C492.22,219.6,491.55,218.25,490.78,217z"/>
<path class="st11" d="M472.27,292.18c-2.12-12.34,0.39-23.42,8.58-33.15c10.89-13.01,26.41-7.9,34.02,1.45
	c4.53,5.49,7.42,11.85,10.31,18.22c1.83,4.14,5.01,7.61,5.98,12.24c-4.92,0.96-9.93,0.77-14.84,0.29c-2.12-0.19-4.34-0.19-6.46-0.39
	c-1.64-0.96-1.73-2.7-2.31-4.24c-0.96-2.51-2.02-4.92-3.76-7.04c-0.87-1.06-2.02-1.83-3.28-0.87c-1.16,0.87-0.58,2.02,0,3.08
	c0.77,1.35,1.64,2.6,2.12,4.05c0.48,1.25,1.45,2.41,0.58,3.95c-0.39,0.77-0.87,1.16-1.73,1.16
	C491.74,291.12,482.1,293.14,472.27,292.18z"/>
<path class="st11" d="M697.9,290.25c3.47-11.76,7.61-23.23,15.71-32.77c5.4-6.36,12.34-9.25,20.82-7.23c0.58,0.1,1.25,0.1,1.93,0.1
	c4.82-0.48,8.29,2.22,11.08,5.49c7.42,8.48,9.83,18.7,9.16,29.78c-0.1,0.96-0.19,2.02-1.25,2.51c-0.58,0.96-1.35,1.35-2.51,1.35
	c-9.16-0.1-18.41,0-27.56-0.1c-0.48,0-0.96-0.29-1.45-0.48c-1.06-1.64-0.1-3.18,0.39-4.72c0.48-1.45,1.35-2.7,2.02-4.05
	c0.77-1.45,2.02-3.28,0.1-4.24c-1.83-0.96-2.89,0.96-3.76,2.31c-1.25,2.02-2.22,4.24-2.99,6.55c-0.48,1.64-0.87,3.47-2.31,4.72
	C710.81,289.29,704.45,290.83,697.9,290.25z"/>
<path class="st9" d="M755.34,288.23c1.06-9.35-0.29-18.22-5.01-26.41c-3.18-5.59-9.83-9.64-15.9-11.57
	c-0.48-1.25,1.93-1.54,3.08-1.16c3.18,0.96,5.49-0.77,8.29-1.64c9.06-2.6,18.22-7.42,28.14-3.18c0.96,0.39,1.93,0.58,2.89,1.06
	c2.12,1.06,4.24,2.31,5.2-1.35c0.29-1.16,1.54-1.16,2.6-1.16c1.35,0,2.6-0.1,3.28-1.45c13.3-5.59,25.54-0.77,33.44,12.91
	c2.12,3.76,3.86,7.71,5.01,11.95c1.83,6.94,4.43,13.78,5.11,21.01c-1.06,2.6-3.28,1.25-5.01,1.45c-1.54,0.19-3.08,0-4.63-0.1
	c-1.25-1.25-0.96-2.8-1.16-4.34c-1.73-10.79-4.34-21.3-11.66-29.88c-4.24-5.01-13.01-6.65-18.6-3.37c-1.93,1.16-0.87,2.41-0.19,3.57
	c3.47,6.84,5.98,14.17,6.94,21.78c0.48,3.37,1.73,7.04-0.96,10.22c-0.77,3.95-1.83,4.34-6.07,2.51c-1.64-2.89-0.77-5.98-0.87-8.96
	c-0.29-8.39-2.7-16-7.81-22.75c-4.92-6.46-15.71-9.45-23.23-6.55c-2.89,1.06-3.28,2.12-1.73,5.3c3.18,6.75,5.59,13.69,6.36,21.11
	c0.39,3.66,1.54,7.52-1.06,10.99C759.58,290.83,757.17,290.83,755.34,288.23z"/>
<path class="st9" d="M901.55,249.39c0.67,0.1,1.25,0.19,1.93,0.29c1.64,0.19,3.37,0.19,4.92,0.87c2.6,1.06,4.92,0.48,7.42-0.48
	c6.17-2.6,12.43-2.6,18.51,0.39c4.72,2.31,9.35,2.99,14.46,1.35c12.63-4.05,22.26,0.1,29.88,10.7c5.49,7.61,9.06,16.19,13.11,24.58
	c0.19,0.48,0.19,0.96,0.1,1.45c-2.41,2.31-5.11,1.83-7.9,0.77c-1.54-0.48-1.83-2.02-2.41-3.28c-3.28-6.65-6.55-13.3-10.89-19.28
	c-5.01-6.84-10.41-8.87-17.44-7.04c-4.24,1.16-4.63,1.93-2.7,5.78c2.7,5.2,4.53,10.79,5.59,16.58c0.29,1.54,0.58,2.99-0.48,4.34
	c-0.1,4.72-0.77,5.11-6.17,3.57c-1.73-1.83-1.54-4.24-2.02-6.46c-1.16-5.4-2.41-10.7-5.4-15.42c-4.05-6.55-9.54-10.89-17.83-10.6
	c-1.25,0-2.51,0.19-3.76,0.58c-3.28,1.06-3.66,1.93-1.93,4.92c3.37,5.69,5.3,11.85,6.75,18.22c0.29,1.45,0.96,2.99-0.29,4.34
	c-0.29,5.11-1.16,5.59-6.26,3.66c-1.64-1.73-1.25-4.05-1.83-6.07c-2.12-7.52-3.95-15.13-10.12-20.72c-1.25-1.16-3.28-1.64-3.57-3.76
	c-0.96-1.73-1.83-3.76-3.95-4.43c-1.64-0.48-3.37-1.06-2.7-3.28c0.58-1.93,2.41-2.02,4.14-1.73
	C900.78,249.29,901.17,249.29,901.55,249.39z"/>
<path class="st11" d="M761.51,288.13c1.45-11.76-1.54-22.75-7.13-32.96c-1.45-2.6-1.06-3.66,1.54-4.82
	c8.29-3.95,20.43-1.35,26.02,5.88c7.52,9.73,9.54,20.82,8,32.77c-0.87,0.87-1.93,1.16-3.18,0.96c-7.32-1.16-14.75-0.29-22.07-0.48
	C763.44,289.48,762.09,289.77,761.51,288.13z"/>
<path class="st11" d="M437.67,291.89c-0.58-13.01,2.12-25.06,11.18-35.08c8.39-9.25,15.13-7.61,24.1-1.93
	c1.93,1.25,0.48,2.12,0,3.08c-5.78,10.6-8.67,21.69-6.94,33.73C456.56,292.66,447.12,292.37,437.67,291.89z"/>
<path class="st11" d="M405.58,291.12c1.16-9.73,2.89-19.47,7.52-28.24c6.36-12.14,13.01-13.69,23.71-10.99
	c5.11,1.25,5.11,2.41,2.51,6.75c-5.78,9.73-7.71,20.53-8,31.81c-0.48,0.29-1.06,0.96-1.54,0.96
	C421.67,291.31,413.67,292.18,405.58,291.12z"/>
<path class="st11" d="M796.11,286.59c1.06-11.76-2.31-22.46-7.71-32.58c-1.54-2.89-0.77-3.66,1.93-4.34
	c12.43-3.18,18.79-0.19,24.48,11.37c4.34,8.67,6.75,17.83,6.94,27.56c-7.42,0.29-14.75,0.48-22.17,0.87
	C797.27,289.58,796.21,288.8,796.11,286.59z"/>
<path class="st15" d="M537.91,289.96c-4.63-12.72-10.51-24.77-19.28-35.18c-5.3-6.26-11.57-11.08-20.24-11.47
	c-1.54-0.1-2.99-0.58-4.53-0.87c-1.64-6.65-1.45-13.49-2.51-20.24c-0.29-1.73-0.39-3.47-0.58-5.2c6.84,7.71,13.69,15.32,20.43,23.13
	c12.14,13.88,24.29,27.85,36.34,41.83c2.6,2.99,5.11,5.98,7.61,8.96C549.38,291.89,543.69,290.64,537.91,289.96z"/>
<path class="st16" d="M154.89,289.86c2.31-1.25,4.72-1.54,7.32-1.83c4.92-0.58,5.69-1.93,4.14-6.75c-0.19-2.12-0.39-4.34-0.58-6.46
	c-0.29-3.57,1.54-5.59,4.72-6.36c4.92-1.16,10.02-1.73,15.13-1.45c3.37,0.1,5.01,1.83,5.49,5.11c1.25,8.67,1.35,8.67,10.22,7.04
	c6.55-1.25,7.81-0.29,8.39,6.46c0.19,2.12,0.39,4.34,0.58,6.46c-1.83,1.25-3.95,0.58-5.88,0.77c-1.06-7.71-1.16-7.81-8.77-6.17
	c-0.87,0.19-1.83,0.19-2.6,0.48c-3.37,1.35-5.49,0.19-6.46-3.28c-1.54-1.25-1.73-3.08-2.02-4.82c-0.48-3.37-2.41-4.43-5.59-4.14
	c-1.54,0.19-3.28,0.87-4.82-0.39c-2.12,0.29-1.64,1.93-1.64,3.28c0.19,3.08,0.48,6.07,0.77,9.16c0.19,2.12-0.29,3.66-2.51,4.43
	c-5.01,1.93-10.31,1.83-15.52,1.45C152.29,292.56,154.89,290.93,154.89,289.86z"/>
<path class="st12" d="M1073.59,288.9c-14.17,0.29-28.43,0.67-42.6,0.96c-1.45,0-3.08,0.48-4.43-0.67c-1.16-1.35-0.58-2.89-0.39-4.34
	c0.67-4.05,1.73-8,3.37-11.76c2.8-6.36,8.48-7.04,12.82-1.54c1.25,1.64,2.02,3.57,3.08,5.3c1.83,2.99,4.43,4.43,8,4.05
	c2.89-0.29,5.88-0.77,8.67-1.54c2.12-0.58,4.24-0.77,6.46-0.77c2.6,0,4.92,0.77,6.07,3.18
	C1075.9,284.37,1075.61,286.78,1073.59,288.9z"/>
<path class="st15" d="M678.62,289.09c13.49-21.88,27.08-43.76,40.58-65.73c1.16-1.83,2.12-3.76,3.18-5.59
	c-0.87,6.55-2.12,13.01-2.22,19.66c0,1.54-1.06,2.6-2.22,3.47c-12.14,9.45-18.99,22.36-23.9,36.53c-1.45,4.24-2.02,8.67-2.99,13.01
	c-3.28,0-6.55,0.1-9.83,0.1C680.17,290.44,679.01,290.44,678.62,289.09z"/>
<path class="st17" d="M1073.59,288.9c0.19-0.96,0.39-2.02,0.48-2.99c0.48-4.34-1.16-6.07-5.59-6.17c-4.05-0.1-7.81,1.16-11.66,2.02
	c-7.13,1.54-9.93,0.48-13.49-5.98c-0.67-1.25-1.25-2.51-2.12-3.66c-3.66-5.01-8.39-4.53-10.79,1.16c-2.12,5.01-3.18,10.41-4.05,15.9
	c-1.83,1.64-3.66,2.31-5.4,0c-0.19-0.29-0.58-0.58-0.58-0.96c0.58-7.61,2.12-14.94,6.55-21.4c0.87-1.16,2.22-1.64,3.47-2.22l0,0
	c2.89-1.54,5.16-2.79,9.06-1.77c2.79,1.11,3.67,2.58,5.3,4.76c1.64,1.06,2.8,2.6,3.66,4.34c1.54,3.08,4.05,4.05,7.32,3.47
	c2.6-0.48,5.3-0.87,7.9-1.64c3.86-1.16,7.23-0.39,10.51,1.45c3.47,2.22,6.17,4.82,5.3,9.45
	C1079.28,288.42,1077.35,289.96,1073.59,288.9z"/>
<path class="st12" d="M1030.61,264.61c-7.23,6.65-7.71,15.9-9.45,24.58c-2.12,1.16-4.43,0.39-6.65,0.58
	c1.93-3.76-0.39-7.61,0.58-11.47C1016.63,271.94,1024.44,263.55,1030.61,264.61z"/>
<path class="st18" d="M717.27,289.58c0.77-4.92,2.7-9.45,5.59-13.49c1.16-1.64,2.7-2.6,4.53-1.35c2.02,1.35,1.64,3.28,0.48,5.01
	c-1.93,2.89-3.47,5.88-4.05,9.35C721.8,290.64,719.59,290.44,717.27,289.58z"/>
<path class="st19" d="M503.21,289.58c-1.06-2.7-2.12-5.4-3.95-7.71c-1.16-1.64-1.45-3.37,0.48-4.63c1.73-1.16,3.37-0.48,4.63,1.16
	c2.8,3.66,4.43,7.9,5.49,12.34C507.26,293.33,504.56,292.85,503.21,289.58z"/>
<path class="st20" d="M1114.07,288.13c0.39-2.22,1.16-4.34,2.22-6.36c0.87-1.64,1.83-3.28,4.05-2.41c2.12,0.87,2.51,2.7,1.83,4.72
	c-0.39,1.35-0.77,2.7-1.16,3.95C1118.7,290.25,1116.38,290.83,1114.07,288.13z"/>
<path class="st21" d="M882.37,288.42c0.77-1.73,1.45-3.47,2.12-5.2c0.87-2.12,2.12-3.86,4.72-3.18c2.89,0.77,2.12,3.28,2.02,5.3
	c0,0.58-0.39,1.16-0.67,1.73C888.44,291.02,885.17,288.61,882.37,288.42z"/>
<path class="st5" d="M354.98,294.02c-0.39-1.54-1.35-5.99-1.25-7.72c0.1-1.45,0-2.89,1.83-3.28c1.73-0.39,2.99,0.29,3.76,1.83
	c0.87,1.83,1.73,6.66,2.51,8.49C359.7,296.05,357.29,294.6,354.98,294.02z"/>
<path class="st22" d="M1187.42,288.9c9.45,0.77,18.79,1.06,28.24-0.29c-0.1,1.73-1.35,1.54-2.51,1.54c-7.81,0-15.61,0-23.32,0
	C1188.67,290.25,1187.61,290.35,1187.42,288.9z"/>
<path class="st3" d="M174.17,274.54c10.31-1.64,10.31-1.64,12.24,8.58c0.1,0.29,0.1,0.48,0.1,0.77c0,4.82,0.87,5.4,5.3,4.43
	c2.31-0.48,4.72-1.06,7.13-1.54c2.02-0.39,3.47,0,3.76,2.51c0.29,2.51-0.87,2.99-3.08,2.99c-7.61,0.1-15.32-0.29-22.94,0.48
	c-2.02,0.19-4.24,0.39-2.7-3.18c0.67-1.64,0-3.95-0.19-5.98C173.59,280.52,172.82,277.43,174.17,274.54z"/>
<path class="st7" d="M671.3,130.64c-17.83-19.08-46.17-12.91-58.7-0.29c-1.06,1.06-2.22,2.12-3.37,3.18
	c-3.66,3.66-8,4.43-12.63,2.12c-5.3-2.7-10.7-5.2-16.38-7.23c-15.13-6.65-29.3-4.72-42.7,4.63c-1.64,1.16-3.28,2.51-4.72,3.86
	c-1.16,1.06-2.22,2.22-1.73,3.95c-12.72,1.35-25.35,2.8-38.07,4.24c-1.93,0.19-3.18-0.29-3.37-2.51
	c-1.54-14.84-3.28-29.69-4.63-44.53c-0.58-6.46-0.1-6.46,6.46-7.81c22.75-4.63,45.88-6.17,68.82-8.77
	c29.69-3.37,59.47-4.92,89.25-5.69c21.69-0.58,43.56,0,65.06,4.14c12.24,2.41,12.14,1.64,11.37,15.23
	c-0.87,14.46-2.89,28.91-4.14,43.37c-0.29,3.47-1.45,4.63-5.01,4.34c-10.7-0.77-21.4-1.06-32.09-2.31
	c-1.25-4.43-4.82-6.55-8.58-8.39C674.58,131.32,672.94,131.03,671.3,130.64z"/>
<path class="st14" d="M670.53,159.08c0.1,15.71-10.12,28.14-24.29,30.94c-13.3,2.6-27.66-5.4-32.77-18.41
	c-1.73-4.43-2.7-9.06-3.18-13.78c-1.16-9.73,2.31-17.35,10.41-23.03c13.2-9.25,31.52-8.67,41.25,1.73
	C668.41,143.17,669.76,151.75,670.53,159.08z"/>
<path class="st14" d="M600.17,169.2c0,13.78-8.48,25.16-20.91,28.14c-14.36,3.37-32.96-8.58-37.4-24
	c-4.05-14.07,4.53-29.59,19.18-34.7c20.43-7.23,37.78,5.11,39.03,27.56C600.27,167.08,600.17,168.14,600.17,169.2z"/>
<path class="st23" d="M645.85,257.87c0.1,0.96-0.77,1.83-2.02,2.41c-7.52,3.66-15.23,6.65-23.52,8.1c-2.51,0.48-3.76-0.19-3.86-3.08
	c-1.16-21.69-2.7-43.27-4.72-64.86c-0.1-1.25-0.1-2.51-0.19-3.86c-0.1-2.31,1.16-2.99,3.18-2.41c1.73,0.48,3.47,0.96,5.11,1.64
	c3.37,1.45,6.84,2.8,10.6,3.18c3.28,0.39,5.49,2.22,6.07,5.49c3.08,17.35,6.17,34.7,9.25,51.95
	C645.76,256.81,645.76,257,645.85,257.87z"/>
<path class="st15" d="M609.71,265.19c0.67,3.08-0.96,4.34-4.24,3.86c-5.01-0.77-10.12-1.54-15.13-2.31
	c-1.93-0.29-2.89-1.54-3.08-3.37c-0.48-5.69-1.25-11.37-1.35-17.16c-0.19-12.91-0.1-25.73-0.19-38.65c0-1.93,0.39-3.37,2.22-4.43
	c4.24-2.31,8.39-4.82,12.53-7.32c2.02-1.16,3.37-1.35,3.47,1.54c0.39,22.07,3.76,43.85,5.59,65.83
	C609.61,263.75,609.61,264.32,609.71,265.19z"/>
<path class="st24" d="M675.44,235.41c0.1,1.54-0.67,2.6-1.73,3.66c-5.01,5.3-10.89,9.64-16.87,13.78c-2.51,1.83-3.57,0.96-4.14-2.8
	c-2.02-12.72-4.14-25.35-7.81-37.78c-0.87-2.89-1.83-5.88-2.7-8.77c-0.67-1.93-0.29-3.37,2.02-3.47c4.63-0.29,8.67-2.02,12.72-3.95
	c2.8-1.35,4.63-0.87,5.88,1.93c5.49,11.76,9.06,24.1,12.43,36.53C675.35,234.93,675.35,235.12,675.44,235.41z"/>
<path class="st7" d="M578.29,238.49c0,6.84,0,13.78,0.1,20.72c0,2.6-0.77,3.18-3.08,2.12c-5.49-2.41-10.6-5.69-15.61-8.96
	c-2.41-1.64-3.28-4.24-3.08-7.04c0.87-13.01,2.7-25.83,5.49-38.65c0.48-2.02,1.45-2.8,3.57-2.02c3.18,1.06,6.55,1.25,9.83,0.96
	c2.7-0.19,3.66,0.77,3.37,3.47C578.2,218.83,577.81,228.66,578.29,238.49z"/>
<path class="st11" d="M530.39,209.77c0-8.1,2.02-14.07,6.94-18.99c2.02-2.02,3.76-2.31,5.78,0.1c2.7,3.08,5.78,5.78,9.45,7.81
	c2.22,1.25,2.99,2.99,2.41,5.4c-2.41,11.37-4.05,22.84-5.3,34.31c-0.1,1.25,0,2.89-1.25,3.37c-1.45,0.58-2.22-1.06-2.99-1.93
	c-5.11-5.88-9.73-12.14-12.63-19.47C531.26,216.52,530.29,212.66,530.39,209.77z"/>
<path class="st14" d="M524.03,173.73c-1.73-6.55-3.28-13.11-2.31-19.95c3.57-1.25,7.23-1.16,10.89-1.54
	c1.93-0.19,2.89,0.29,2.22,2.51c-2.6,8.58-2.41,17.06,1.16,25.35c1.54,3.66-1.93,3.37-3.66,4.34c-3.37-2.7-5.01-6.75-7.9-9.83
	C523.84,174.5,523.74,174.21,524.03,173.73z"/>
<path class="st14" d="M531.16,140.76c-1.25-0.29-2.89-0.1-1.35-2.22c8.58-12.43,33.93-19.18,47.61-12.43
	c1.16,0.58,2.41,0.96,2.99,2.31c-5.01-0.1-10.02-1.45-15.23-0.39c-7.42,1.54-14.17,4.24-19.47,9.64c-2.02,2.02-4.24,2.6-6.84,2.7
	C536.27,140.38,533.76,140.67,531.16,140.76z"/>
<path class="st14" d="M691.35,153.49c1.16,8,1.06,15.9-1.73,23.61c-3.08-1.16-5.88-2.8-9.25-3.18c-1.54-0.19-1.45-1.45-1.06-2.7
	c1.54-5.3,2.02-10.7,1.06-16.19c-0.39-2.12,0.77-2.8,2.6-2.6C685.85,152.72,688.55,153.1,691.35,153.49z"/>
<path class="st14" d="M671.3,130.64c1.93-1.45,3.57,0,5.2,0.58c3.57,1.35,6.17,3.86,8.58,6.55c0.87,0.96,1.83,2.12-0.48,2.6
	c-1.73-0.1-3.57-0.19-5.3-0.19c-1.64,0-2.8-0.67-3.66-2.22C674.29,135.56,672.74,133.15,671.3,130.64z"/>
<path class="st14" d="M1005.26,140.09c0.19-16.96,10.12-25.83,27.66-24.58c10.12,0.67,18.22,5.4,22.75,14.65
	c4.34,8.77,4.53,17.83-1.16,26.22c-4.92,7.32-12.24,10.6-20.72,11.57c-2.6,0.29-4.34-1.06-5.88-2.99
	c-4.92-6.07-10.6-11.08-18.7-12.53c-1.83-0.29-2.7-1.83-3.08-3.57C1005.55,145.78,1005.16,142.6,1005.26,140.09z"/>
<path class="st14" d="M944.25,137.97c-0.1-11.95,8.87-21.49,21.2-22.75c18.12-1.83,32.67,15.32,28.34,33.06
	c-0.67,2.7-2.02,4.34-4.82,5.11c-4.92,1.35-9.64,3.57-13.01,7.32c-4.34,4.92-9.25,4.43-14.46,2.41
	C951.67,159.46,944.34,148.47,944.25,137.97z"/>
<path class="st25" d="M1010.94,228.18c3.66,1.93,6.94,0.29,10.22,0.1c1.16-0.1,2.6-0.67,3.28,0.29c0.77,1.06-0.39,2.12-0.96,3.08
	c-2.7,4.82-5.69,9.45-10.02,12.91c-6.55,5.3-13.49,5.01-19.66-0.87c-8.77-8.19-13.88-18.79-19.57-29.11
	c-0.96-1.83-0.39-2.8,1.45-3.37c6.94-2.31,13.3-5.98,19.37-10.02c2.22-1.45,4.14-1.45,6.36,0c8.48,5.78,17.16,11.18,26.99,14.26
	c2.22,0.67,2.31,2.02,1.25,3.76c-1.25,2.31-3.37,3.37-5.69,4.14C1019.62,225,1015.28,226.64,1010.94,228.18z"/>
<path class="st12" d="M1103.47,254.4c0.29-2.22-1.64-3.28-2.6-4.92c-4.14-7.52-5.98-15.71-6.65-24
	c-1.45-17.06,2.12-33.35,8.58-49.06c2.12-5.3,1.35-6.36-2.12-10.89c-6.75-8.77-15.81-11.85-26.31-12.05
	c-0.58-0.19-0.58-0.48-0.1-0.77c7.61-0.19,14.84,2.12,22.26,3.28c5.78,0.87,11.47,2.41,17.25,3.28c4.05,0.58,4.53,2.8,3.86,6.17
	c-1.64,7.32-3.76,14.55-4.72,21.97c-2.22,17.54-2.12,34.99,0.29,52.53c0.29,2.02,0.77,4.05-0.1,5.98
	C1108.96,247.55,1106.55,251.31,1103.47,254.4z"/>
<path class="st14" d="M962.95,184.42c-14.46-5.78-26.99-13.69-31.13-29.88c-1.54-6.07-1.35-12.34,1.93-18.12
	c2.02,0.58,2.22,2.22,2.31,3.95c0.87,16.96,14.46,31.32,27.76,33.64c2.7,0.48,3.47,1.83,2.31,4.34
	C965.07,180.38,964.68,182.69,962.95,184.42z"/>
<path class="st14" d="M1074.36,152.62c-4.72-1.35-6.17-0.77-8.67,4.24c-3.86,7.52-9.35,13.3-16.96,16.87
	c-2.22,1.06-4.72,1.83-7.04,2.7c0.87-0.48-2.02,0.48-3.95,1.25c-0.87,0.39,1.35,3.47,2.22,3.86c1.64-0.77,2.6-0.77,3.95-0.87
	c2.7-0.1,7.42-2.31,7.42-2.31c10.89-4.72,20.14-13.98,23.13-24.96C1074.46,153.1,1074.46,152.91,1074.36,152.62z"/>
<path class="st26" d="M220.53,227.41c-7.32,0.1-15.52-5.69-23.32-12.34c-5.69-4.92-10.99-10.41-15.71-16.29
	c-1.54-1.93-2.8-3.95-3.76-6.17c-2.89-7.42-0.77-13.98,5.98-18.22c5.11-3.28,10.89-4.82,16.77-4.72
	c21.69,0.48,43.08-3.08,64.57-4.63c6.75-0.48,10.12,3.37,8.67,10.02c-0.39,1.73-0.96,3.47-1.73,5.01
	c-6.84,14.07-15.04,27.28-26.12,38.46C240,224.23,232.19,227.41,220.53,227.41z"/>
<path class="st27" d="M265.44,111.37c0,4.05-2.89,7.23-6.65,7.32c-3.95,0.1-6.94-2.89-6.84-6.94c0.1-4.24,3.37-8,7.13-7.9
	C262.65,103.85,265.44,107.03,265.44,111.37z"/>
<path class="st28" d="M200.67,110.4c3.95,0,7.13,3.57,7.13,7.9c0,4.14-3.28,7.52-7.52,7.52c-4.14,0-7.13-3.28-7.04-7.81
	C193.35,113.68,196.53,110.31,200.67,110.4z"/>
<path class="st12" d="M1074.27,275.22c-5.59-2.41-10.99-0.19-16.38,0.87c-7.23,1.45-7.23,1.54-10.79-4.82
	c-0.67-1.25-1.35-2.41-2.12-3.66c4.24,2.7,8.67,2.31,13.4,1.45c4.14-0.67,8.48-0.39,11.47,3.47
	C1070.99,273.96,1073.4,273.38,1074.27,275.22z"/>
<path class="st29" d="M524.41,174.59c-1.25,2.89-3.66,4.14-6.46,4.82c-2.99,0.77-4.14,2.51-3.86,5.59c0.19,1.64,0.1,3.28,0,4.92
	c-0.1,1.06-0.77,1.93-1.93,2.02c-1.06,0.1-2.02-0.19-2.7-1.06c-2.12-2.8-1.93-11.18,0.39-13.88c2.89-3.28,10.89-5.2,14.26-3.37
	C524.13,174.02,524.32,174.3,524.41,174.59z"/>
<path class="st30" d="M713.9,179.03c-0.1,1.06-0.1,2.7-0.39,4.34c-0.29,1.35-1.25,2.22-2.8,2.02c-1.54-0.1-2.51-1.16-2.22-2.6
	c1.35-7.13-1.54-10.51-8.67-10.7c-1.54,0-2.51-1.35-2.22-2.99c0.29-1.54,1.45-2.02,2.8-2.12c3.18-0.1,6.46,0.1,9.45,1.45
	C714.19,170.55,713.71,174.59,713.9,179.03z"/>
<path class="st31" d="M604.8,108.96c-6.17,0-12.24,0-18.41,0.1c-2.41,0-4.34-0.58-4.72-3.28c-0.39-2.89,1.45-4.05,3.95-4.63
	c3.28-0.77,6.65-0.67,9.93-0.67c2.12,0,3.66-0.39,3.86-2.99c0.19-2.6,1.83-4.24,4.43-4.63c2.99-0.48,5.59,0.67,6.65,3.37
	c1.06,2.6,2.7,2.99,5.11,2.8c3.18-0.19,6.36-0.19,9.54-0.1c2.51,0.1,4.63,1.06,4.82,3.86c0.29,2.99-1.73,4.14-4.24,4.34
	c-7.04,0.67-13.98,1.06-21.01,1.54C604.8,108.77,604.8,108.86,604.8,108.96z"/>
<path class="st32" d="M640.46,150.88c0,4.24-3.28,7.71-7.32,7.71c-4.05,0-7.71-3.86-7.71-8s3.47-7.71,7.42-7.71
	C636.99,142.79,640.46,146.45,640.46,150.88z"/>
<path class="st33" d="M587.25,155.7c0,4.63-3.47,8.48-7.61,8.48s-7.42-3.66-7.32-8.19c0.1-4.43,3.47-7.71,7.81-7.71
	C584.27,148.28,587.25,151.46,587.25,155.7z"/>
<path class="st14" d="M689.42,187.8c-4.82-7.81-12.72-8.67-18.89-2.31c-0.77,0.87-1.54,1.73-2.41,2.41
	c-2.02,1.64-2.22,3.37-0.77,5.59c3.47,5.2,5.88,10.99,8.39,16.77c1.93,4.63,2.8,9.73,5.4,14.17c-0.19,1.16-0.48,2.51,0.96,2.89
	c1.35,0.39,1.93-0.96,2.41-2.02c2.51-4.72,5.11-9.45,6.65-14.65C693.47,202.93,693.95,195.12,689.42,187.8z"/>
<path d="M1027.04,140.48c-4.05,0-7.32-3.18-7.42-7.23c-0.1-4.05,3.47-8.1,7.13-8.1c3.95-0.1,7.9,3.86,7.9,7.9
	C1034.85,136.81,1030.99,140.48,1027.04,140.48z"/>
<path class="st6" d="M970.37,129.97c0.1,3.57-2.89,6.94-6.26,6.94c-3.18,0-5.88-2.8-5.98-6.17c-0.1-3.57,2.6-6.46,6.07-6.65
	C967.48,123.9,970.27,126.5,970.37,129.97z"/>
<path class="st0" d="M1032.82,9.78c2.51-1.25,4.05-3.47,8-6.26c8.77-4.63,14.65-4.72,23.52-0.1c3.86,2.02,7.23,4.82,9.35,8.39
	c6.84,12.43,3.95,22.84-2.41,33.93c0.58-6.46,1.06-11.85-0.39-18.31c-1.25-5.59-3.28-10.6-7.61-14.65
	c-5.98-5.49-15.42-6.07-21.88-1.16c-5.01,3.76-4.05,3.76-7.52-1.25C1033.5,9.88,1033.11,10.26,1032.82,9.78z"/>
<path class="st0" d="M1224.16,289.86c-7.59-46.17-25.08-46.84-37.52-46.26c-7.32,0.39-14.46,0.19-21.49-2.22
	c-5.98-2.02-12.14-0.48-18.22,0c2.31-5.88,7.52-8.87,12.53-11.66c6.84-3.66,14.75-5.01,21.11,0c10.22,8,23.79,0.42,33.44,7.52
	c10.32,7.59,7.86,19.73,11.68,25.65C1229.36,268.57,1244.67,290.2,1224.16,289.86z"/>
<path class="st0" d="M846.23,287.84c0.1-1.64,1.25-2.7,2.02-3.95c0.87-1.45,0.58-2.51-0.39-3.66c1.16-0.1,2.31,1.06,3.37-0.58
	c4.14-6.26,10.02-10.79,16.29-14.65c0.29,0,0.58,0,0.87,0.1c-2.12,3.66-4.24,7.23-6.36,10.79c-1.83,3.08-3.18,6.26-3.86,9.83
	c-0.48,1.45-1.16,2.31-2.89,2.22C852.3,287.74,849.22,287.84,846.23,287.84z"/>
<path class="st0" d="M1097.98,287.46c3.66-10.41,7.61-20.63,15.23-28.91c3.66-4.14,8.1-6.84,13.78-7.42
	c8.96-0.96,14.55,3.66,18.41,10.99c4.34,8.19,6.46,16.87,5.69,26.12c-1.25,0.77-2.6,0.77-4.05,0.77c-7.52,0-14.94,0-22.46,0
	c-1.25,0-2.6,0.29-3.57-0.77c-1.06-1.64,0.19-3.18,0.19-4.82c0-1.25-0.19-2.41-1.54-2.7c-1.25-0.29-1.73,0.77-2.31,1.54
	c-1.35,1.83-1.16,4.53-3.18,5.98C1108.67,289.96,1103.28,288.42,1097.98,287.46z"/>
<path class="st0" d="M903,258.73c11.66,6.84,13.88,18.6,15.52,30.46c-0.87,0.96-2.12,0.77-3.18,0.77
	c-7.42-0.1-14.84,0.19-22.17-0.77c-1.45-0.19-2.51-0.39-2.41-2.12c-0.1-0.1-0.1-0.19-0.19-0.39c-0.58-1.83,1.06-4.82-2.02-5.3
	c-2.7-0.39-2.99,2.6-4.05,4.34c-0.58,0.96-1.25,1.93-2.12,2.6c-3.95,0-7.9,0-11.85,0c-1.54,0-2.8-0.29-2.89-2.12
	c2.8-6.36,4.43-13.4,9.45-18.6c5.49-5.69,11.18-10.89,20.05-10.22C899.14,257.67,900.97,258.54,903,258.73z"/>
<path class="st0" d="M991.67,288.42c-3.08-4.53-4.92-9.73-7.32-14.65c-2.7-5.4-5.98-10.41-9.93-14.84c-7.04-8-16-9.64-25.73-6.17
	c-4.92,1.73-9.25,1.35-13.59-0.87c-6.65-3.47-13.3-4.05-20.14-0.39c-4.34,2.31-7.81-0.58-11.57-1.83c4.24-0.29,7.52-2.31,10.31-5.3
	c1.64-1.73,3.37-3.47,5.49-4.72c4.34-2.7,13.78-1.73,17.35,1.83c7.23,7.04,10.6,5.69,19.66,2.89c9.64-2.99,18.41-0.39,25.54,7.13
	c4.63,4.82,8.87,9.93,11.18,16.29c2.02,5.69,6.07,9.93,10.51,13.88c2.41,2.22,5.11,4.34,5.49,7.9
	C1003.14,289.29,997.26,290.73,991.67,288.42z"/>
<path class="st0" d="M1187.22,287.26c1.06-10.6-1.73-20.43-6.94-29.59c-1.45-2.6-1.16-3.86,1.64-4.63
	c12.92-3.95,21.11-1.45,28.53,13.59c2.41,4.82,3.37,10.12,4.43,15.42c-0.58,2.31,0.67,4.43,0.67,6.65c-0.48,1.16-1.54,1.16-2.6,1.16
	c-7.81,0-15.52,0-23.32,0c-0.96,0-1.73-0.1-2.31-0.96C1187.32,288.42,1187.22,287.84,1187.22,287.26z"/>
<path class="st0" d="M1157.44,280.52c-0.96-9.35-3.37-18.22-9.35-25.83c-2.02-2.6-1.25-3.86,1.64-4.92
	c10.41-3.95,21.49,0.19,25.73,10.51c3.37,8.1,5.98,16.48,5.49,25.54c-0.58,3.28-2.6,3.95-5.78,3.76c-4.14-0.29-8.39-0.29-12.63-0.19
	C1156.21,289.38,1158.31,281.77,1157.44,280.52z"/>
<path class="st0" d="M924.78,285.53c-1.45-8.29-3.57-16.48-8.48-23.52c-1.64-2.31-0.77-3.28,1.45-4.24c8-3.76,18.41-0.48,23.81,7.71
	c4.82,7.42,7.04,15.71,7.71,24.48c-5.3,1.16-10.6,0.48-15.9,0.39c-0.77,0-1.54-0.39-2.22-0.19
	C927.29,290.83,925.07,289.48,924.78,285.53z"/>
<path class="st0" d="M955.43,286.4c-0.96-8.19-3.18-16-7.52-23.03c-1.16-1.93-0.39-2.6,1.25-3.47c7.42-3.66,15.23-2.31,20.43,4.05
	c6.26,7.52,10.31,16.38,14.17,25.25c-3.37,1.93-7.13,1.73-10.7,1.25c-4.14-0.48-8.39-0.58-12.53-0.39
	C957.65,290.15,955.81,289.48,955.43,286.4z"/>
<path class="st0" d="M966.51,81.2c-0.1-4.53,1.16-5.69,5.4-4.53c4.53,1.16,8.96,2.8,13.49,4.24c1.83,0.58,2.22,2.02,1.73,3.66
	c-1.83,7.13-4.34,14.07-5.59,21.4c-0.19,1.16-0.96,1.73-2.12,1.73c-1.93,0.19-3.18-0.96-4.05-2.41c-2.99-5.49-6.17-10.79-7.71-16.96
	C967.19,85.92,966.51,83.61,966.51,81.2z"/>
<path class="st0" d="M1083.23,94.31L1083.23,94.31c-0.87-1.45-2.31-1.45-3.66-1.35c-5.3,0.58-10.6,1.25-15.9,1.83
	c-10.51,1.16-21.11,1.45-31.61-0.29c-8-1.35-15.13-5.2-22.36-8.67l0,0l0,0c0.77-2.31,2.51-1.16,3.76-0.87
	c10.6,2.51,21.4,3.86,32.29,3.47c2.41-0.1,4.24-0.58,4.92-3.28c2.99-13.59,7.71-26.7,11.57-40c2.22-7.52,2.99-15.32-0.87-22.75
	c-3.76-7.13-10.51-9.06-17.44-4.92c-5.01,2.99-7.9,7.42-9.93,12.72c-0.67,1.73-0.87,3.76-2.89,4.92c-1.35-2.22-0.77-4.53-0.48-6.75
	c0.39-2.7,0.39-5.3-0.1-8c-0.77-4.05-2.7-7.32-6.84-8.39c-3.95-1.06-7.23,0.67-10.02,3.37c-6.26,5.98-7.61,13.98-8.77,21.97
	c-2.41,16.58-5.3,32.96-10.6,48.86c-2.12,6.46-4.34,12.82-6.36,19.28c-0.87,2.7-1.45,7.23,1.73,8.77c4.72,2.22,8.87,7.81,11.57,5.78
	c11.57-8.67,15.42-12.53,32.77-12.53c19.28,0,25.06,13.49,29.88,12.53c4.53-4.24,15.52-14.94,18.99-20.24
	C1083.9,98.07,1085.16,96.33,1083.23,94.31z M1038.89,96.33L1038.89,96.33L1038.89,96.33L1038.89,96.33z"/>
<path class="st14" d="M233.15,198.3c5.11,0.87,9.25,0,13.49,0.19c0.96,0,2.22-0.48,2.8,0.58c0.67,1.06-0.39,1.93-0.96,2.7
	c-3.28,4.72-6.84,9.25-11.66,12.53c-7.61,5.11-15.42,5.78-23.52,1.16c-10.89-6.17-19.37-14.94-26.5-25.06
	c-2.6-3.86-1.93-6.46,2.12-8.87c2.31-1.45,4.92-2.31,7.61-2.6c3.08-0.39,6.07-0.87,9.16-0.87c18.41,0.1,36.82-0.67,55.03-3.76
	c1.16-0.19,2.8-0.87,3.66,0.29c1.06,1.35-0.39,2.6-1.06,3.76c-7.9,13.98-5.59,13.3-21.78,16.96
	C239.03,195.99,236.43,196.57,233.15,198.3z"/>
<path class="st34" d="M1021.06,132.96c0.1-3.76,2.6-6.55,6.07-6.55c3.66,0,6.46,2.99,6.46,6.65c0,3.37-2.99,6.36-6.36,6.36
	C1023.47,139.41,1020.97,136.72,1021.06,132.96z"/>
</svg>
