<?xml version="1.0" encoding="utf-8"?>
<!-- Generator: Adobe Illustrator 24.1.3, SVG Export Plug-In . SVG Version: 6.00 Build 0)  -->
<svg version="1.1" id="Layer_1" xmlns="http://www.w3.org/2000/svg" xmlns:xlink="http://www.w3.org/1999/xlink" x="0px" y="0px"
	 viewBox="0 0 57.87 80.29" style="enable-background:new 0 0 57.87 80.29;" xml:space="preserve">
<style type="text/css">
	.st0{fill:#000001;}
	.st1{fill:#7FC3FF;}
</style>
<g>
	<path class="st0" d="M14.97,29.8c-1.01-0.64-1.87-1.12-2.61-1.76c-2.9-2.51-3.85-5.93-2.5-9.07c1.18-2.74,4.05-4.23,6.99-3.65
		c1.48,0.29,2.79,0.95,4.08,1.76c-0.14-3.04,0.81-5.61,2.96-7.66c2.2-2.1,4.78-2.82,7.69-1.68c2.98,1.17,4.52,3.42,4.75,6.59
		c0.02,0.26,0,0.52,0.02,0.78c0.02,0.22-0.08,0.46,0.07,0.67c0.24,0.03,0.36-0.17,0.52-0.27c3.11-1.92,7.1-1.42,9.47,1.21
		c2.17,2.41,2.14,6.67-0.07,9.43c-0.95,1.19-2.14,2.09-3.41,3.03c1.84,0,3.69-0.01,5.53,0c1.19,0.01,2.38,0.08,3.55,0.29
		c1.93,0.35,2.95,1.3,3.24,3.24c0.48,3.23,0.18,6.42-0.75,9.55c-0.31,1.02-0.93,1.9-1.86,2.45c-0.57,0.33-0.72,0.77-0.75,1.35
		c-0.13,2.35-0.22,4.7-0.4,7.04c-0.39,4.95-0.34,9.92-0.82,14.87c-0.41,4.19-2.71,6.39-6.95,6.92c-3.6,0.44-7.19,0.26-10.79,0.33
		c-2.73,0.05-5.46,0.17-8.19,0.11c-2.81-0.06-5.63-0.12-8.43-0.45c-0.29-0.03-0.57-0.08-0.86-0.14c-3.62-0.72-5.27-2.51-5.56-6.21
		c-0.23-2.95-0.38-5.91-0.54-8.86c-0.23-4.23-0.45-8.46-0.64-12.69c-0.02-0.52-0.13-0.69-0.68-0.69c-1.9,0-2.51-0.43-2.93-2.27
		c-0.76-3.34-0.86-6.73-0.26-10.11c0.33-1.89,1.5-3.01,3.38-3.41c1.88-0.4,3.81-0.41,5.71-0.62C14.21,29.84,14.48,29.84,14.97,29.8z
		"/>
	<g>
		<path class="st1" d="M37.38,63.92c0-5.78,0.01-11.56-0.02-17.34c0-0.7,0.13-0.92,0.88-0.91c3.05,0.06,6.1,0.04,9.16,0.03
			c0.48,0,0.72,0.03,0.67,0.64c-0.2,2.75-0.33,5.5-0.52,8.25c-0.3,4.4-0.31,8.82-0.69,13.22C46.69,69.83,46,70.67,44,71.06
			c-1.88,0.37-3.8,0.5-5.72,0.52c-0.49,0-0.56-0.19-0.59-0.6C37.49,68.63,37.68,66.27,37.38,63.92z"/>
		<path class="st1" d="M19.53,46.02c0,0,0.52,0,0.78,0c1.58-0.02,1.56-0.02,1.64,1.52c0.29,5.79,0.59,11.59,0.89,17.38
			c0.1,2,0.23,4,0.33,5.99c0.01,0.27,0.19,0.69-0.38,0.66c-2.4-0.11-4.82-0.09-7.19-0.58c-0.99-0.21-1.59-0.8-1.76-1.88
			c-0.34-2.07-0.33-4.16-0.45-6.24c-0.31-5.24-0.51-10.49-0.79-15.73c-0.04-0.76,0.15-0.98,0.93-0.96L19.53,46.02z"/>
		<path class="st1" d="M33.8,55.81c0,4.96-0.01,9.93,0.01,14.89c0,0.63-0.08,0.9-0.82,0.88c-1.74-0.05-3.49-0.02-5.23,0.03
			c-0.51,0.01-0.7-0.1-0.72-0.65c-0.14-3.07-0.33-6.14-0.49-9.21c-0.27-4.84-0.54-9.68-0.8-14.51c0-0.09-0.01-0.17-0.01-0.26
			c-0.05-1.14-0.05-1.13,1.13-1.16c1.97-0.04,3.95-0.08,5.92-0.15c0.51-0.02,0.69,0.09,0.69,0.65
			C33.52,49.48,33.67,52.64,33.8,55.81z"/>
		<path class="st1" d="M43.57,41.98c-1.89,0-3.77-0.01-5.66,0.01c-0.43,0-0.67-0.03-0.67-0.58c0.01-2.64-0.01-5.28-0.05-7.92
			c-0.01-0.51,0.1-0.7,0.66-0.69c4.18,0.02,8.35,0.09,12.53,0.2c0.83,0.02,1.26,0.22,1.24,1.19c-0.04,2.17-0.06,4.34-0.57,6.48
			c-0.23,0.95-0.79,1.36-1.74,1.35c-1.91-0.01-3.83,0-5.74,0C43.57,41.99,43.57,41.99,43.57,41.98z"/>
		<path class="st1" d="M9.39,42.56c-0.51,0.02-0.78-0.07-0.83-0.67c-0.22-2.28-0.32-4.56-0.06-6.85c0.07-0.62,0.33-0.96,1.03-1.03
			c3.4-0.34,6.8-0.66,10.22-0.87c0.46-0.03,1.11-0.28,1.34-0.06c0.35,0.32,0.14,0.98,0.17,1.5c0.13,2.31,0.23,4.63,0.37,6.95
			c0.04,0.59-0.11,0.81-0.74,0.8C17.92,42.29,10.26,42.52,9.39,42.56z"/>
		<path class="st1" d="M28.6,27.1c-1.27-3.32-2.92-6.24-3.64-9.53c-0.49-2.25,0.12-4.19,1.85-5.74c0.96-0.86,2.06-1.15,3.3-0.68
			c1.25,0.47,2.04,1.31,2.3,2.69c0.24,1.3,0.08,2.55-0.26,3.78C31.28,20.81,29.95,23.83,28.6,27.1z"/>
		<path class="st1" d="M29.22,32.8c1.16,0,2.32,0.02,3.49-0.01c0.45-0.01,0.58,0.12,0.6,0.58c0.13,2.64,0.1,5.28,0.14,7.92
			c0.01,0.5-0.08,0.7-0.65,0.7c-2.26,0.01-4.53,0.07-6.79,0.13c-0.39,0.01-0.49-0.11-0.51-0.48c-0.14-2.72-0.3-5.45-0.47-8.17
			c-0.03-0.49,0.11-0.66,0.62-0.65c1.19,0.03,2.38,0.01,3.57,0.01C29.22,32.82,29.22,32.81,29.22,32.8z"/>
		<path class="st1" d="M32.45,28.23c1.49-3.03,3.08-5.92,5.28-8.42c0.69-0.79,1.46-1.52,2.57-1.66c2.95-0.38,4.66,1.81,3.63,4.68
			c-0.6,1.66-1.98,2.52-3.48,3.2c-2.2,1-4.49,1.71-6.88,2.09C33.23,28.16,32.91,28.36,32.45,28.23z"/>
		<path class="st1" d="M24.21,27.83c-2.75-0.47-5.34-0.52-7.75-1.54c-1.03-0.44-1.85-1.18-2.55-2.05c-0.92-1.16-0.97-2.46-0.53-3.79
			c0.42-1.26,1.79-1.8,3.26-1.34c1.12,0.35,2.14,0.91,2.97,1.75C21.56,22.83,22.6,25.38,24.21,27.83z"/>
	</g>
</g>
</svg>
