<?xml version="1.0" encoding="utf-8"?>
<!-- Generator: Adobe Illustrator 24.1.3, SVG Export Plug-In . SVG Version: 6.00 Build 0)  -->
<svg version="1.1" id="Layer_1" xmlns="http://www.w3.org/2000/svg" xmlns:xlink="http://www.w3.org/1999/xlink" x="0px" y="0px"
	 viewBox="0 0 55.42 81.21" style="enable-background:new 0 0 55.42 81.21;" xml:space="preserve">
<style type="text/css">
	.st0{fill:#000001;}
	.st1{fill:#57FF54;}
	.st2{fill:#000102;}
</style>
<g>
	<path class="st0" d="M37.36,42c0.81,0.17,1.6,0.29,2.37,0.51c1.88,0.54,2.82,1.73,2.86,3.68c0.03,1.86-0.01,3.72-0.05,5.58
		c-0.01,0.54,0.11,0.79,0.71,0.78c0.72-0.01,1.45,0.16,2.17,0.14c2.05-0.05,3.23,1.45,3.53,3.1c0.54,2.93,0.46,5.9,0.32,8.86
		c-0.1,2.12-0.33,4.22-0.76,6.3c-0.44,2.12-1.59,3.53-3.61,4.32c-5.76,2.27-11.71,3.54-17.91,3.65c-4.26,0.07-8.48-0.21-12.64-1.14
		c-2.3-0.52-4.52-1.28-6.64-2.33c-2.69-1.34-4.04-3.46-4.2-6.5C3.3,65,3.27,61.06,3.55,57.11c0.17-2.33,0.84-3.06,3.12-3.46
		c0.8-0.14,1.61-0.27,2.41-0.35c0.5-0.05,0.6-0.26,0.61-0.72c0.05-1.89,0.11-3.78,0.22-5.66c0.15-2.5,1.02-3.51,3.48-4.1
		c1.61-0.38,3.27-0.4,4.9-0.65c1.17-0.17,2.36-0.29,3.54-0.4c0.35-0.03,0.45-0.14,0.37-0.49c-0.67-3.05-1.42-6.06-3.65-8.45
		c-0.76-0.81-1.02-1.79-0.51-2.81c3.22-6.51,7.48-12.17,13.95-15.72c9.72-5.34,18.91,0.25,21.82,7.96c1.76,4.68,0.44,8.77-2.54,12.5
		c-1.63,2.03-3.72,3.38-6.18,4.21c-2.31,0.78-4.7,1.32-6.89,2.43C37.93,41.56,37.56,41.63,37.36,42z"/>
	<path class="st1" d="M28.77,55.94c5.43-0.05,10.57,0.47,15.73,0.75c0.6,0.03,0.73,0.33,0.76,0.82c0.19,2.93,0.17,5.86,0,8.79
		c-0.07,1.25-0.29,2.48-0.52,3.71c-0.14,0.76-0.54,1.21-1.26,1.5c-3.5,1.38-7.09,2.38-10.83,2.89c-6.49,0.89-12.92,0.65-19.26-1.06
		c-1.7-0.46-3.39-1.04-4.85-2.11c-0.55-0.4-0.85-0.87-0.94-1.57c-0.49-3.79-0.38-7.59-0.19-11.39c0.03-0.67,0.42-0.73,0.9-0.79
		c2.42-0.26,4.84-0.55,7.27-0.77C20.04,56.29,24.52,55.85,28.77,55.94z"/>
	<path class="st1" d="M25.2,38.42c-0.44-1.23-0.8-2.33-1.21-3.41c-0.5-1.31-1.18-2.53-2.06-3.62c-0.29-0.36-0.39-0.66-0.15-1.09
		c2.74-4.91,6.1-9.29,10.94-12.31c3.16-1.98,6.64-2.9,10.31-1.64c3.98,1.37,6.73,4.05,7.83,8.21c0.82,3.09-0.42,5.62-2.28,7.96
		c-1.4,1.75-3.29,2.71-5.39,3.34c-1.5,0.45-2.99,0.92-4.46,1.44c-2.05,0.71-3.93,1.77-5.61,3.12c-1,0.79-2.02,1.1-3.28,1.04
		c-1.83-0.09-1.86-0.03-1.35-1.82c1.71-6.02,4.97-11.09,9.49-15.38c0.11-0.1,0.22-0.19,0.33-0.29c0.36-0.34,0.46-0.73,0.17-1.17
		c-0.3-0.43-0.72-0.47-1.16-0.26c-0.61,0.29-1.08,0.78-1.56,1.24c-3.76,3.59-6.65,7.83-9.2,12.31
		C26.13,36.83,25.69,37.57,25.2,38.42z"/>
	<path class="st1" d="M38.61,51.52c0.03,0.6-0.18,0.7-0.76,0.66c-4.64-0.3-9.29-0.36-13.94-0.19c-3.16,0.11-6.32,0.41-9.46,0.79
		c-0.68,0.08-0.85-0.07-0.83-0.74c0.04-1.48,0.06-2.96,0.16-4.44c0.04-0.57,0.23-0.81,0.8-0.9c6.48-0.97,13-1.12,19.53-0.79
		c1.22,0.06,2.43,0.2,3.65,0.29c0.67,0.05,1.07,0.27,0.98,1.07c-0.08,0.66-0.1,2.13-0.1,2.13S38.57,50.76,38.61,51.52z"/>
	<path class="st0" d="M19.71,65.16c-0.09,1.14-0.33,2.11-0.76,3.09c-0.39,0.89-1.1,1.33-2.06,1.34c-0.92,0.01-1.6-0.46-2.04-1.25
		c-0.88-1.57-0.55-5.02,0.61-6.39c1.09-1.29,2.93-1.05,3.74,0.49C19.53,63.07,19.76,64.02,19.71,65.16z"/>
	<path class="st2" d="M30.71,66.2c-0.05,0.82-0.23,1.8-0.61,2.59c-0.4,0.84-1.06,1.29-1.98,1.32c-0.93,0.04-1.61-0.41-2.08-1.18
		c-0.92-1.55-0.59-5.1,0.59-6.46c1.11-1.28,2.94-1.03,3.74,0.52C30.8,63.84,30.79,64.82,30.71,66.2z"/>
</g>
</svg>
