<?xml version="1.0" encoding="utf-8"?>
<!-- Generator: Adobe Illustrator 24.1.3, SVG Export Plug-In . SVG Version: 6.00 Build 0)  -->
<svg version="1.1" id="Layer_1" xmlns="http://www.w3.org/2000/svg" xmlns:xlink="http://www.w3.org/1999/xlink" x="0px" y="0px"
	 viewBox="0 0 666.64 260.38" style="enable-background:new 0 0 666.64 260.38;" xml:space="preserve">
<style type="text/css">
	.st0{fill:#FFFFFF;}
	.st1{fill:#231F20;}
	.st2{fill:#FFD800;}
	.st3{fill:#00A1E1;}
	.st4{fill:#F0442D;}
	.st5{fill:#2FB444;}
	.st6{fill:#EF559E;}
</style>
<g>
	<path class="st0" d="M70.31,205.97c-27.27,0-49.46-22.19-49.46-49.46c0-27.27,22.19-49.46,49.46-49.46s49.46,22.19,49.46,49.46
		C119.77,183.78,97.58,205.97,70.31,205.97z M70.31,147.77c-4.82,0-8.74,3.92-8.74,8.74c0,4.82,3.92,8.74,8.74,8.74
		s8.74-3.92,8.74-8.74C79.05,151.69,75.13,147.77,70.31,147.77z"/>
</g>
<g>
	<path class="st0" d="M66.36,193.83c-2.8,0-5.65-0.37-8.52-1.1c-1.74-0.45-3.13-0.88-4.4-1.39l-0.18-0.07
		c-1.41-0.57-2.44-1.03-3.33-1.47l-0.45-0.23c-5.26-2.79-9.31-6.52-12.05-11.09c-3.59-6.02-4.64-12.87-3-19.34
		c1.02-4.04,3.07-7.8,5.94-10.87l0.34-0.35c2.85-2.91,6.27-5.02,9.97-6.24l0.72-2.83c1.73-6.78,5.97-12.43,11.93-15.97
		c5.91-3.51,12.85-4.53,19.51-2.86c6.9,1.75,12.61,6.12,16.11,12.31c3.31,5.82,4.24,12.7,2.57,19.31l-4.31,16.95
		c-1.46,5.69-3.97,10.59-7.47,14.61c-3.94,4.54-9.09,7.83-14.84,9.46C72.09,193.44,69.25,193.83,66.36,193.83z M67.94,157.23
		c1.49,1.04,3.16,1.82,4.91,2.27c0.17,0.04,0.34,0.08,0.51,0.12c-0.27-0.71-0.6-1.39-0.98-2.03c-0.8-1.34-1.66-2.29-2.36-2.92
		L67.94,157.23z M67.01,156.53c0.04,0.03,0.07,0.06,0.11,0.09l0.04-0.06l0.47-1.19L67.01,156.53z M65.48,155.09
		c0.2,0.22,0.41,0.43,0.62,0.63l0.68-2.6c-0.03,0-0.06,0-0.09,0L65.48,155.09z M68.42,153.87l-0.74,1.81l1.16-1.92
		c-0.15-0.09-0.24-0.15-0.28-0.17L68.42,153.87z M64.12,153.39c0.21,0.3,0.43,0.6,0.66,0.89l0.5-1.1
		C64.91,153.22,64.52,153.29,64.12,153.39z"/>
</g>
<g>
	<path class="st0" d="M192.65,190c-27.27,0-49.46-22.19-49.46-49.46c0-27.27,22.19-49.46,49.46-49.46
		c27.27,0,49.46,22.19,49.46,49.46C242.11,167.82,219.92,190,192.65,190z M192.65,131.8c-4.82,0-8.74,3.92-8.74,8.74
		c0,4.82,3.92,8.74,8.74,8.74c4.82,0,8.74-3.92,8.74-8.74C201.39,135.72,197.47,131.8,192.65,131.8z"/>
</g>
<g>
	<path class="st0" d="M192.63,178.45c-4.13,0-8.21-0.66-12.13-1.95c-3.9-1.27-7.61-3.21-10.97-5.73c-3.33-2.5-6.2-5.5-8.52-8.91
		c-1.45-2.09-2.69-4.33-3.69-6.65l-0.06-0.13c-0.97-2.3-1.7-4.64-2.2-6.96c-0.52-2.44-0.8-5.01-0.8-7.59c0-2.53,0.27-5.07,0.8-7.54
		c0.5-2.39,1.26-4.79,2.26-7.13c1.02-2.38,2.27-4.64,3.72-6.72c2.37-3.43,5.25-6.42,8.58-8.88c3.27-2.44,6.91-4.34,10.82-5.65
		c6.95-2.31,14.38-2.59,21.39-0.87c2.99,0.73,5.91,1.83,8.66,3.26c2.79,1.46,5.35,3.22,7.63,5.23c2.3,2.01,4.4,4.39,6.19,7.02
		c4.38,6.37,6.7,13.72,6.7,21.27c0,3.82-0.59,7.62-1.76,11.28c-1.18,3.64-2.86,7.03-5.04,10.15c-1.74,2.5-3.8,4.81-6.11,6.85
		c-2.33,2.07-4.89,3.84-7.6,5.25c-2.55,1.34-5.39,2.42-8.4,3.19C198.97,178.05,195.79,178.45,192.63,178.45z M190.73,142.26
		c0.11,0.14,0.29,0.35,0.54,0.57c0.17,0.15,0.33,0.24,0.38,0.27c0.18,0.1,0.34,0.16,0.51,0.2c0.22,0.06,0.51,0.07,0.77,0.04
		l-0.33-1.54l-0.81-1.21l-1.42,0.6C190.45,141.66,190.62,142.06,190.73,142.26z M192.94,142.31l0.17,0.99
		c0.08-0.02,0.15-0.04,0.22-0.06c0.06-0.02,0.12-0.04,0.18-0.07L192.94,142.31z M192.87,141.95l0.75,1.17
		c0.1-0.05,0.21-0.11,0.32-0.19c0.22-0.17,0.43-0.38,0.59-0.59c0.15-0.23,0.23-0.41,0.26-0.48c0-0.01,0.07-0.16,0.13-0.44
		c0.06-0.29,0.09-0.59,0.09-0.89c0-0.29-0.03-0.61-0.1-0.91c-0.04-0.19-0.09-0.32-0.09-0.32l-2.24,0.94L192.87,141.95z
		 M191.95,140.5l0.54,0.85l-0.21-0.99L191.95,140.5z M190.67,138.92c-0.06,0.11-0.12,0.25-0.17,0.42c-0.13,0.42-0.19,0.81-0.19,1.19
		c0,0.19,0.02,0.38,0.05,0.56l1.38-0.59L190.67,138.92z M190.8,138.69l1.1,1.73l0.36-0.15l-0.51-2.35
		c-0.04,0.02-0.08,0.04-0.12,0.06c-0.28,0.15-0.47,0.3-0.52,0.35c-0.04,0.04-0.17,0.16-0.31,0.36
		C190.8,138.69,190.8,138.69,190.8,138.69z M192.13,137.78l0.42,2.37l2.21-0.95c-0.06-0.15-0.14-0.3-0.22-0.43
		c-0.16-0.21-0.36-0.41-0.55-0.55c-0.22-0.16-0.5-0.31-0.76-0.39C192.96,137.73,192.35,137.74,192.13,137.78z"/>
</g>
<g>
	<path class="st0" d="M304.52,225.95c-28.65,0-51.95-23.31-51.95-51.95c0-28.65,23.3-51.95,51.95-51.95
		c28.65,0,51.95,23.31,51.95,51.95C356.48,202.64,333.17,225.95,304.52,225.95z M304.52,162.76c-6.19,0-11.23,5.04-11.23,11.24
		s5.04,11.24,11.23,11.24c6.2,0,11.24-5.04,11.24-11.24S310.72,162.76,304.52,162.76z"/>
</g>
<g>
	<g>
		<g>
			<path class="st0" d="M337.56,220.63l-19.33-16.77c-2.95,0.37-5.94,0.21-8.82-0.47c-2.71,1.64-5.75,2.76-8.98,3.28
				c-7.09,1.15-14.05-0.69-19.6-5.17l-0.55-0.46c-4.79-4.15-7.83-9.6-8.78-15.75l-3.15-19.99c-0.77-4.94-0.1-9.9,1.93-14.39
				l0.06-0.13c1.09-2.37,2.52-4.53,4.24-6.41l-4.2-26.57L291,136.28c2.68-0.21,5.34,0.01,7.93,0.67c2.76-1.69,5.85-2.83,9.13-3.35
				c3.22-0.51,6.46-0.39,9.62,0.34c3.4,0.78,6.53,2.26,9.3,4.37c2.49,1.86,4.59,4.17,6.26,6.85l0.14,0.23
				c1.71,2.84,2.84,5.93,3.34,9.16l3.3,20.97c0.13,0.96,0.18,1.82,0.22,2.61l0.04,0.76l-0.02,0.76c-0.1,3.99-1.18,7.95-3.13,11.46
				c-0.97,1.75-2.12,3.35-3.46,4.8L337.56,220.63z M302.06,170.5c0.09,0.08,0.19,0.15,0.28,0.22l3.64-0.58
				c0.1-0.14,0.2-0.29,0.29-0.43c-0.21-0.17-0.43-0.33-0.66-0.49l-3.01,0.47C302.42,169.96,302.24,170.23,302.06,170.5z"/>
		</g>
	</g>
	<g>
		<g>
			<path class="st0" d="M337.56,220.63l-19.33-16.77c-2.95,0.37-5.94,0.21-8.82-0.47c-2.71,1.64-5.75,2.76-8.98,3.28
				c-7.09,1.15-14.05-0.69-19.6-5.17l-0.55-0.46c-4.79-4.15-7.83-9.6-8.78-15.75l-3.15-19.99c-0.77-4.94-0.1-9.9,1.93-14.39
				l0.06-0.13c1.09-2.37,2.52-4.53,4.24-6.41l-4.2-26.57L291,136.28c2.68-0.21,5.34,0.01,7.93,0.67c2.76-1.69,5.85-2.83,9.13-3.35
				c3.22-0.51,6.46-0.39,9.62,0.34c3.4,0.78,6.53,2.26,9.3,4.37c2.49,1.86,4.59,4.17,6.26,6.85l0.14,0.23
				c1.71,2.84,2.84,5.93,3.34,9.16l3.3,20.97c0.13,0.96,0.18,1.82,0.22,2.61l0.04,0.76l-0.02,0.76c-0.1,3.99-1.18,7.95-3.13,11.46
				c-0.97,1.75-2.12,3.35-3.46,4.8L337.56,220.63z M302.06,170.5c0.09,0.08,0.19,0.15,0.28,0.22l3.64-0.58
				c0.1-0.14,0.2-0.29,0.29-0.43c-0.21-0.17-0.43-0.33-0.66-0.49l-3.01,0.47C302.42,169.96,302.24,170.23,302.06,170.5z"/>
		</g>
	</g>
	<g>
		<g>
			<path class="st0" d="M337.56,220.63l-19.33-16.77c-2.95,0.37-5.94,0.21-8.82-0.47c-2.71,1.64-5.75,2.76-8.98,3.28
				c-7.09,1.15-14.05-0.69-19.6-5.17l-0.55-0.46c-4.79-4.15-7.83-9.6-8.78-15.75l-3.15-19.99c-0.77-4.94-0.1-9.9,1.93-14.39
				l0.06-0.13c1.09-2.37,2.52-4.53,4.24-6.41l-4.2-26.57L291,136.28c2.68-0.21,5.34,0.01,7.93,0.67c2.76-1.69,5.85-2.83,9.13-3.35
				c3.22-0.51,6.46-0.39,9.62,0.34c3.4,0.78,6.53,2.26,9.3,4.37c2.49,1.86,4.59,4.17,6.26,6.85l0.14,0.23
				c1.71,2.84,2.84,5.93,3.34,9.16l3.3,20.97c0.13,0.96,0.18,1.82,0.22,2.61l0.04,0.76l-0.02,0.76c-0.1,3.99-1.18,7.95-3.13,11.46
				c-0.97,1.75-2.12,3.35-3.46,4.8L337.56,220.63z M302.06,170.5c0.09,0.08,0.19,0.15,0.28,0.22l3.64-0.58
				c0.1-0.14,0.2-0.29,0.29-0.43c-0.21-0.17-0.43-0.33-0.66-0.49l-3.01,0.47C302.42,169.96,302.24,170.23,302.06,170.5z"/>
		</g>
	</g>
</g>
<g>
	<path class="st0" d="M406.85,203.89c-27.82,0-50.46-22.63-50.46-50.46s22.63-50.46,50.46-50.46c27.82,0,50.46,22.63,50.46,50.46
		S434.67,203.89,406.85,203.89z M406.85,143.69c-5.37,0-9.74,4.37-9.74,9.74c0,5.37,4.37,9.74,9.74,9.74s9.74-4.37,9.74-9.74
		C416.59,148.06,412.22,143.69,406.85,143.69z"/>
</g>
<g>
	<g>
		<path class="st0" d="M397.45,190.99c-2.32,0-4.64-0.32-6.92-0.95l-0.06-0.02c-4.67-1.3-8.83-3.8-12.03-7.22
			c-3.5-3.75-5.75-8.44-6.52-13.58l-0.02-0.14c-0.45-3.17-0.29-6.55,0.46-10.04l0.07-0.3l4.96-21.49
			c1.37-5.82,4.22-10.91,8.25-14.82c1.53-1.48,3.2-2.76,4.98-3.84l7-30.41l15.3,27.17c2.04,0.54,4.03,1.31,5.93,2.31
			c4.92,2.56,9.1,6.65,12.03,11.79l0.06,0.11l11.21,19.99c1.57,3.11,2.55,6.04,2.98,8.95l0.02,0.17c0.73,5.18-0.12,10.33-2.44,14.91
			c-2.13,4.22-5.44,7.79-9.59,10.34c-3.07,1.91-6.42,3.13-9.96,3.63c-3.88,0.54-7.74,0.19-11.39-1c-3.21,2.2-6.82,3.62-10.69,4.17
			C399.88,190.9,398.67,190.99,397.45,190.99z"/>
	</g>
</g>
<g>
	<path class="st0" d="M526.21,202c-28.65,0-51.95-23.31-51.95-51.95c0-28.65,23.31-51.95,51.95-51.95
		c28.65,0,51.95,23.31,51.95,51.95C578.16,178.7,554.85,202,526.21,202z M526.21,138.81c-6.2,0-11.24,5.04-11.24,11.24
		s5.04,11.24,11.24,11.24s11.24-5.04,11.24-11.24S532.4,138.81,526.21,138.81z"/>
</g>
<g>
	<g>
		<g>
			<path class="st0" d="M536.45,190.65c-1.13,0-2.27-0.07-3.41-0.22c-3.4-0.45-6.58-1.52-9.49-3.18c-0.46-0.26-0.9-0.53-1.34-0.82
				c-0.57,0.18-1.15,0.35-1.74,0.49c-3.2,0.79-6.46,0.97-9.71,0.54c-6.88-0.91-13.01-4.45-17.22-9.97l0,0
				c-4.23-5.53-6.05-12.38-5.13-19.29l3.29-24.7c0.93-6.94,4.48-13.06,10-17.28c5.49-4.21,12.34-6.04,19.26-5.11
				c3.88,0.52,7.53,1.88,10.73,3.98c3.65-1.19,7.53-1.55,11.43-1.03c3.15,0.41,6.25,1.42,9.14,3l0.19,0.1
				c3.22,1.8,5.94,4.19,8.07,7.11c1.35,1.8,2.46,3.76,3.28,5.84c0.81,2.02,1.37,4.16,1.66,6.37c0.3,2.28,0.3,4.57,0,6.82
				l-3.29,24.72c-0.46,3.35-1.53,6.52-3.19,9.45l-0.07,0.12c-1.75,3.04-4.03,5.64-6.79,7.73
				C547.56,188.81,542.1,190.65,536.45,190.65z M551,166.5l0,0.03C550.99,166.52,550.99,166.51,551,166.5z"/>
		</g>
	</g>
	<g>
		<g>
			<path class="st0" d="M536.45,190.65c-1.13,0-2.27-0.07-3.41-0.22c-3.4-0.45-6.58-1.52-9.49-3.18c-0.46-0.26-0.9-0.53-1.34-0.82
				c-0.57,0.18-1.15,0.35-1.74,0.49c-3.2,0.79-6.46,0.97-9.71,0.54c-6.88-0.91-13.01-4.45-17.22-9.97l0,0
				c-4.23-5.53-6.05-12.38-5.13-19.29l3.29-24.7c0.93-6.94,4.48-13.06,10-17.28c5.49-4.21,12.34-6.04,19.26-5.11
				c3.88,0.52,7.53,1.88,10.73,3.98c3.65-1.19,7.53-1.55,11.43-1.03c3.15,0.41,6.25,1.42,9.14,3l0.19,0.1
				c3.22,1.8,5.94,4.19,8.07,7.11c1.35,1.8,2.46,3.76,3.28,5.84c0.81,2.02,1.37,4.16,1.66,6.37c0.3,2.28,0.3,4.57,0,6.82
				l-3.29,24.72c-0.46,3.35-1.53,6.52-3.19,9.45l-0.07,0.12c-1.75,3.04-4.03,5.64-6.79,7.73
				C547.56,188.81,542.1,190.65,536.45,190.65z M551,166.5l0,0.03C550.99,166.52,550.99,166.51,551,166.5z"/>
		</g>
	</g>
	<g>
		<g>
			<path class="st0" d="M536.45,190.65c-1.13,0-2.27-0.07-3.41-0.22c-3.4-0.45-6.58-1.52-9.49-3.18c-0.46-0.26-0.9-0.53-1.34-0.82
				c-0.57,0.18-1.15,0.35-1.74,0.49c-3.2,0.79-6.46,0.97-9.71,0.54c-6.88-0.91-13.01-4.45-17.22-9.97l0,0
				c-4.23-5.53-6.05-12.38-5.13-19.29l3.29-24.7c0.93-6.94,4.48-13.06,10-17.28c5.49-4.21,12.34-6.04,19.26-5.11
				c3.88,0.52,7.53,1.88,10.73,3.98c3.65-1.19,7.53-1.55,11.43-1.03c3.15,0.41,6.25,1.42,9.14,3l0.19,0.1
				c3.22,1.8,5.94,4.19,8.07,7.11c1.35,1.8,2.46,3.76,3.28,5.84c0.81,2.02,1.37,4.16,1.66,6.37c0.3,2.28,0.3,4.57,0,6.82
				l-3.29,24.72c-0.46,3.35-1.53,6.52-3.19,9.45l-0.07,0.12c-1.75,3.04-4.03,5.64-6.79,7.73
				C547.56,188.81,542.1,190.65,536.45,190.65z M551,166.5l0,0.03C550.99,166.52,550.99,166.51,551,166.5z"/>
		</g>
	</g>
</g>
<g>
	
		<rect x="296.72" y="172.18" transform="matrix(0.9868 -0.1621 0.1621 0.9868 -27.1453 52.4483)" class="st0" width="22.11" height="40.72"/>
</g>
<g>
	<g>
		<g>
			<g>
				<path class="st1" d="M590.28,139.04c-13.26,0-13.93-9.19-13.93-11.03c0-4.47,2.4-7.11,5.43-10.44c0.14-0.16,0.32-0.35,0.5-0.56
					c-18.12-0.36-31.98-2.99-42.25-8.01c-15.22-7.44-23.26-20.4-23.26-37.49c0-33.91,31.37-61.5,69.94-61.5
					c38.56,0,69.93,27.59,69.93,61.5c0,30.32-15.11,46.77-27.78,55.24C615.28,135.82,599.59,139.04,590.28,139.04z M586.71,30.72
					c-27.14,0-49.22,18.29-49.22,40.78c0,12.28,5.85,24.83,49.22,24.83c10.41,0,17.13,3.24,19.96,9.64c1.29,2.92,1.48,5.8,0.96,8.56
					c4.88-1.92,10.01-4.71,14.48-8.68c9.17-8.15,13.82-19.71,13.82-34.35C635.93,49.01,613.85,30.72,586.71,30.72z"/>
			</g>
			<g>
				<g>
					<path class="st1" d="M564.2,100.84l-0.13,0c-5.22-0.06-9.69-3.36-11.59-8.02c-2.21,0.87-4.64,1.1-6.98,0.63
						c-6.66-1.27-11.15-7.76-10.13-14.74c1.53-10.45,3.37-18.97,5.46-25.33c4.26-12.92,10.8-18.94,19.42-17.88
						c11.51,1.4,13.96,15,14.76,19.48c1.39,7.75,2.02,18.51,1.9,32.92C576.84,95.04,571.14,100.84,564.2,100.84z M572.21,87.84
						c0,0,0,0.01,0,0.01C572.21,87.84,572.21,87.84,572.21,87.84z M539.98,79.58c0,0.01,0,0.02,0,0.02
						C539.98,79.6,539.98,79.59,539.98,79.58z"/>
				</g>
				<g>
					<path class="st1" d="M576.03,100.51c-5.77,0-10.83-4-12.29-9.74c-0.09-0.35-2.16-8.55-3.5-17.94
						c-1.64-11.47-1.54-19.85,0.4-26.08l-0.7-4.23l1.64,1.71c0.57-1.31,1.24-2.51,2.01-3.61c3.6-5.15,9.21-7.82,15.36-7.34
						c11.08,0.84,20.16,10.49,20.66,21.96c0.22,4.99-1.32,10.8-5.54,15.69l1.73,1.81c4.54,4.76,4.87,12.24,0.77,17.4
						c-2.29,2.87-5.66,4.61-9.27,4.78c-0.29,0.01-0.58,0.02-0.86,0.01c-1.53,2.25-3.76,4.03-6.48,4.94
						C578.71,100.29,577.38,100.51,576.03,100.51z"/>
				</g>
				<g>
					<path class="st1" d="M600.42,100.48c-2.65,0-5.27-0.73-7.57-2.11c-5.41-3.24-7.86-9.34-9.01-15.76
						c-3.38-1.79-5.91-5.1-6.66-9.14c-1.01-5.48,1.43-10.8,5.81-13.56c0.24-5,0.64-9.63,1-13.08c0.37-3.53,2.14-6.79,4.87-8.95
						c2.68-2.12,6.01-3.05,9.37-2.61c6.94,0.95,11.76,7.23,11.02,14.32c-0.19,1.82-0.35,3.65-0.49,5.48
						c0.93,0.33,1.82,0.76,2.66,1.31c2.94,1.92,5.01,5.03,5.67,8.55c0.72,3.89-0.3,7.7-2.51,10.57c4.17,4.74,4.4,11.93,0.43,16.95
						c-0.79,0.99-1.25,1.49-1.84,2.05l-0.15,0.14C608.23,99.46,603.53,100.48,600.42,100.48z M602.26,81.54l1.13,0.88L602.26,81.54
						L602.26,81.54z M602.08,81.4l0.07,0.06l0-0.01l-0.07-0.05L602.08,81.4z M609.13,79.71L609.13,79.71L609.13,79.71z"/>
				</g>
				<g>
					<path class="st1" d="M618.67,95.39c-8.98,0-16.59-6.29-20.37-16.83c-1.47-4.1-0.78-8.54,1.49-11.94
						c-4.46-5.86-4.64-11.89-4.51-14.2c0.45-7.95,5.62-14.82,12.88-17.08c8.45-2.63,17.27,1.34,22.47,10.11
						c2.37,4.01,2.43,8.81,0.48,12.73c7.47,7.61,7.29,16.16,6.94,19.18c-1.08,9.22-7.93,16.56-16.65,17.85
						C620.49,95.32,619.57,95.39,618.67,95.39z M619.65,50.34L619.65,50.34L619.65,50.34z M626.74,48.43
						c0.01,0.01,0.01,0.02,0.02,0.03C626.75,48.44,626.74,48.43,626.74,48.43z"/>
				</g>
			</g>
		</g>
		<g>
			<g>
				<path class="st1" d="M590.28,139.04c-13.26,0-13.93-9.19-13.93-11.03c0-4.47,2.4-7.11,5.43-10.44c0.14-0.16,0.32-0.35,0.5-0.56
					c-18.12-0.36-31.98-2.99-42.25-8.01c-15.22-7.44-23.26-20.4-23.26-37.49c0-33.91,31.37-61.5,69.94-61.5
					c38.56,0,69.93,27.59,69.93,61.5c0,30.32-15.11,46.77-27.78,55.24C615.28,135.82,599.59,139.04,590.28,139.04z M586.71,30.72
					c-27.14,0-49.22,18.29-49.22,40.78c0,12.28,5.85,24.83,49.22,24.83c10.41,0,17.13,3.24,19.96,9.64c1.29,2.92,1.48,5.8,0.96,8.56
					c4.88-1.92,10.01-4.71,14.48-8.68c9.17-8.15,13.82-19.71,13.82-34.35C635.93,49.01,613.85,30.72,586.71,30.72z"/>
			</g>
			<g>
				<g>
					<path class="st1" d="M564.2,100.84l-0.13,0c-5.22-0.06-9.69-3.36-11.59-8.02c-2.21,0.87-4.64,1.1-6.98,0.63
						c-6.66-1.27-11.15-7.76-10.13-14.74c1.53-10.45,3.37-18.97,5.46-25.33c4.26-12.92,10.8-18.94,19.42-17.88
						c11.51,1.4,13.96,15,14.76,19.48c1.39,7.75,2.02,18.51,1.9,32.92C576.84,95.04,571.14,100.84,564.2,100.84z M572.21,87.84
						c0,0,0,0.01,0,0.01C572.21,87.84,572.21,87.84,572.21,87.84z M539.98,79.58c0,0.01,0,0.02,0,0.02
						C539.98,79.6,539.98,79.59,539.98,79.58z"/>
				</g>
				<g>
					<path class="st1" d="M576.03,100.51c-5.77,0-10.83-4-12.29-9.74c-0.09-0.35-2.16-8.55-3.5-17.94
						c-1.64-11.47-1.54-19.85,0.4-26.08l-0.7-4.23l1.64,1.71c0.57-1.31,1.24-2.51,2.01-3.61c3.6-5.15,9.21-7.82,15.36-7.34
						c11.08,0.84,20.16,10.49,20.66,21.96c0.22,4.99-1.32,10.8-5.54,15.69l1.73,1.81c4.54,4.76,4.87,12.24,0.77,17.4
						c-2.29,2.87-5.66,4.61-9.27,4.78c-0.29,0.01-0.58,0.02-0.86,0.01c-1.53,2.25-3.76,4.03-6.48,4.94
						C578.71,100.29,577.38,100.51,576.03,100.51z"/>
				</g>
				<g>
					<path class="st1" d="M600.42,100.48c-2.65,0-5.27-0.73-7.57-2.11c-5.41-3.24-7.86-9.34-9.01-15.76
						c-3.38-1.79-5.91-5.1-6.66-9.14c-1.01-5.48,1.43-10.8,5.81-13.56c0.24-5,0.64-9.63,1-13.08c0.37-3.53,2.14-6.79,4.87-8.95
						c2.68-2.12,6.01-3.05,9.37-2.61c6.94,0.95,11.76,7.23,11.02,14.32c-0.19,1.82-0.35,3.65-0.49,5.48
						c0.93,0.33,1.82,0.76,2.66,1.31c2.94,1.92,5.01,5.03,5.67,8.55c0.72,3.89-0.3,7.7-2.51,10.57c4.17,4.74,4.4,11.93,0.43,16.95
						c-0.79,0.99-1.25,1.49-1.84,2.05l-0.15,0.14C608.23,99.46,603.53,100.48,600.42,100.48z M602.26,81.54l1.13,0.88L602.26,81.54
						L602.26,81.54z M602.08,81.4l0.07,0.06l0-0.01l-0.07-0.05L602.08,81.4z M609.13,79.71L609.13,79.71L609.13,79.71z"/>
				</g>
				<g>
					<path class="st1" d="M618.67,95.39c-8.98,0-16.59-6.29-20.37-16.83c-1.47-4.1-0.78-8.54,1.49-11.94
						c-4.46-5.86-4.64-11.89-4.51-14.2c0.45-7.95,5.62-14.82,12.88-17.08c8.45-2.63,17.27,1.34,22.47,10.11
						c2.37,4.01,2.43,8.81,0.48,12.73c7.47,7.61,7.29,16.16,6.94,19.18c-1.08,9.22-7.93,16.56-16.65,17.85
						C620.49,95.32,619.57,95.39,618.67,95.39z M619.65,50.34L619.65,50.34L619.65,50.34z M626.74,48.43
						c0.01,0.01,0.01,0.02,0.02,0.03C626.75,48.44,626.74,48.43,626.74,48.43z"/>
				</g>
			</g>
		</g>
		<g>
			<g>
				<path class="st1" d="M590.28,139.04c-13.26,0-13.93-9.19-13.93-11.03c0-4.47,2.4-7.11,5.43-10.44c0.14-0.16,0.32-0.35,0.5-0.56
					c-18.12-0.36-31.98-2.99-42.25-8.01c-15.22-7.44-23.26-20.4-23.26-37.49c0-33.91,31.37-61.5,69.94-61.5
					c38.56,0,69.93,27.59,69.93,61.5c0,30.32-15.11,46.77-27.78,55.24C615.28,135.82,599.59,139.04,590.28,139.04z M586.71,30.72
					c-27.14,0-49.22,18.29-49.22,40.78c0,12.28,5.85,24.83,49.22,24.83c10.41,0,17.13,3.24,19.96,9.64c1.29,2.92,1.48,5.8,0.96,8.56
					c4.88-1.92,10.01-4.71,14.48-8.68c9.17-8.15,13.82-19.71,13.82-34.35C635.93,49.01,613.85,30.72,586.71,30.72z"/>
			</g>
			<g>
				<g>
					<path class="st1" d="M564.2,100.84l-0.13,0c-5.22-0.06-9.69-3.36-11.59-8.02c-2.21,0.87-4.64,1.1-6.98,0.63
						c-6.66-1.27-11.15-7.76-10.13-14.74c1.53-10.45,3.37-18.97,5.46-25.33c4.26-12.92,10.8-18.94,19.42-17.88
						c11.51,1.4,13.96,15,14.76,19.48c1.39,7.75,2.02,18.51,1.9,32.92C576.84,95.04,571.14,100.84,564.2,100.84z M572.21,87.84
						c0,0,0,0.01,0,0.01C572.21,87.84,572.21,87.84,572.21,87.84z M539.98,79.58c0,0.01,0,0.02,0,0.02
						C539.98,79.6,539.98,79.59,539.98,79.58z"/>
				</g>
				<g>
					<path class="st1" d="M576.03,100.51c-5.77,0-10.83-4-12.29-9.74c-0.09-0.35-2.16-8.55-3.5-17.94
						c-1.64-11.47-1.54-19.85,0.4-26.08l-0.7-4.23l1.64,1.71c0.57-1.31,1.24-2.51,2.01-3.61c3.6-5.15,9.21-7.82,15.36-7.34
						c11.08,0.84,20.16,10.49,20.66,21.96c0.22,4.99-1.32,10.8-5.54,15.69l1.73,1.81c4.54,4.76,4.87,12.24,0.77,17.4
						c-2.29,2.87-5.66,4.61-9.27,4.78c-0.29,0.01-0.58,0.02-0.86,0.01c-1.53,2.25-3.76,4.03-6.48,4.94
						C578.71,100.29,577.38,100.51,576.03,100.51z"/>
				</g>
				<g>
					<path class="st1" d="M600.42,100.48c-2.65,0-5.27-0.73-7.57-2.11c-5.41-3.24-7.86-9.34-9.01-15.76
						c-3.38-1.79-5.91-5.1-6.66-9.14c-1.01-5.48,1.43-10.8,5.81-13.56c0.24-5,0.64-9.63,1-13.08c0.37-3.53,2.14-6.79,4.87-8.95
						c2.68-2.12,6.01-3.05,9.37-2.61c6.94,0.95,11.76,7.23,11.02,14.32c-0.19,1.82-0.35,3.65-0.49,5.48
						c0.93,0.33,1.82,0.76,2.66,1.31c2.94,1.92,5.01,5.03,5.67,8.55c0.72,3.89-0.3,7.7-2.51,10.57c4.17,4.74,4.4,11.93,0.43,16.95
						c-0.79,0.99-1.25,1.49-1.84,2.05l-0.15,0.14C608.23,99.46,603.53,100.48,600.42,100.48z M602.26,81.54l1.13,0.88L602.26,81.54
						L602.26,81.54z M602.08,81.4l0.07,0.06l0-0.01l-0.07-0.05L602.08,81.4z M609.13,79.71L609.13,79.71L609.13,79.71z"/>
				</g>
				<g>
					<path class="st1" d="M618.67,95.39c-8.98,0-16.59-6.29-20.37-16.83c-1.47-4.1-0.78-8.54,1.49-11.94
						c-4.46-5.86-4.64-11.89-4.51-14.2c0.45-7.95,5.62-14.82,12.88-17.08c8.45-2.63,17.27,1.34,22.47,10.11
						c2.37,4.01,2.43,8.81,0.48,12.73c7.47,7.61,7.29,16.16,6.94,19.18c-1.08,9.22-7.93,16.56-16.65,17.85
						C620.49,95.32,619.57,95.39,618.67,95.39z M619.65,50.34L619.65,50.34L619.65,50.34z M626.74,48.43
						c0.01,0.01,0.01,0.02,0.02,0.03C626.75,48.44,626.74,48.43,626.74,48.43z"/>
				</g>
			</g>
		</g>
	</g>
	<g>
		<path class="st1" d="M403.87,228.85c-39.89,0-72.34-32.45-72.34-72.34s32.45-72.34,72.34-72.34c39.89,0,72.34,32.45,72.34,72.34
			S443.76,228.85,403.87,228.85z M403.87,104.88c-28.46,0-51.62,23.16-51.62,51.62s23.16,51.62,51.62,51.62
			c28.47,0,51.62-23.16,51.62-51.62S432.34,104.88,403.87,104.88z"/>
	</g>
	<g>
		<path class="st1" d="M192.65,210.69c-38.68,0-70.14-31.47-70.14-70.14c0-38.68,31.47-70.14,70.14-70.14
			c38.68,0,70.15,31.47,70.15,70.14C262.79,179.22,231.33,210.69,192.65,210.69z M192.65,91.12c-27.25,0-49.42,22.17-49.42,49.43
			c0,27.25,22.17,49.43,49.42,49.43c27.25,0,49.43-22.17,49.43-49.43C242.08,113.29,219.9,91.12,192.65,91.12z"/>
	</g>
	<g>
		<path class="st1" d="M86.24,232.75c-42.04,0-76.24-34.2-76.24-76.24c0-42.04,34.2-76.24,76.24-76.24s76.24,34.2,76.24,76.24
			C162.48,198.55,128.28,232.75,86.24,232.75z M86.24,100.98c-30.62,0-55.52,24.91-55.52,55.52c0,30.62,24.91,55.52,55.52,55.52
			c30.62,0,55.52-24.91,55.52-55.52C141.76,125.89,116.86,100.98,86.24,100.98z"/>
	</g>
	<g>
		<path class="st1" d="M70.31,195.97c-21.76,0-39.46-17.7-39.46-39.46c0-21.76,17.7-39.46,39.46-39.46s39.46,17.7,39.46,39.46
			C109.77,178.27,92.07,195.97,70.31,195.97z M70.31,137.77c-10.33,0-18.74,8.41-18.74,18.74c0,10.33,8.41,18.74,18.74,18.74
			s18.74-8.41,18.74-18.74C89.05,146.17,80.64,137.77,70.31,137.77z"/>
	</g>
	<g>
		<path class="st1" d="M66.37,183.82c-1.98,0-4.01-0.26-6.07-0.79c-1.29-0.33-2.33-0.65-3.19-1c-1.25-0.51-2.06-0.86-2.71-1.19
			l-0.23-0.12c-3.63-1.92-6.37-4.41-8.16-7.4c-2.84-4.76-2.59-9.04-1.88-11.8c0.59-2.37,1.79-4.57,3.54-6.45l0.17-0.18
			c2.97-3.03,6.83-4.59,10.92-4.49l2.32-9.11c1.07-4.17,3.67-7.66,7.33-9.83c3.68-2.19,7.83-2.8,11.97-1.76
			c4.21,1.07,7.7,3.74,9.84,7.53c2.08,3.65,2.63,7.79,1.58,11.95l-4.31,16.93c-1.06,4.15-2.85,7.67-5.31,10.5
			c-2.72,3.13-6.1,5.29-10.03,6.41C70.28,183.56,68.35,183.82,66.37,183.82z"/>
	</g>
	<g>
		<path class="st1" d="M192.65,180c-21.76,0-39.46-17.7-39.46-39.46c0-21.76,17.7-39.46,39.46-39.46c21.76,0,39.46,17.7,39.46,39.46
			C232.11,162.3,214.41,180,192.65,180z M192.65,121.8c-10.34,0-18.74,8.41-18.74,18.74c0,10.33,8.41,18.74,18.74,18.74
			c10.33,0,18.74-8.41,18.74-18.74C211.39,130.21,202.98,121.8,192.65,121.8z"/>
	</g>
	<g>
		<path class="st1" d="M297.46,250.38c-42.41,0-76.91-34.5-76.91-76.92c0-42.41,34.5-76.92,76.91-76.92
			c42.41,0,76.92,34.5,76.92,76.92C374.38,215.88,339.87,250.38,297.46,250.38z M297.46,117.27c-30.99,0-56.2,25.21-56.2,56.2
			c0,30.99,25.21,56.2,56.2,56.2c30.99,0,56.2-25.21,56.2-56.2C353.66,142.48,328.45,117.27,297.46,117.27z"/>
	</g>
	<g>
		<path class="st1" d="M192.63,168.45c-3.06,0-6.08-0.49-8.98-1.45c-2.89-0.95-5.63-2.37-8.11-4.23c-2.46-1.85-4.58-4.07-6.29-6.58
			c-1.08-1.54-2-3.2-2.73-4.91c-0.75-1.79-1.3-3.53-1.66-5.23c-0.38-1.78-0.58-3.64-0.58-5.52c0-1.84,0.2-3.7,0.59-5.51
			c0.35-1.7,0.92-3.49,1.67-5.24c0.75-1.76,1.67-3.42,2.74-4.95c1.76-2.55,3.89-4.76,6.35-6.58c2.37-1.78,5.08-3.19,8-4.17
			c5.13-1.7,10.65-1.91,15.83-0.64c2.22,0.54,4.38,1.36,6.42,2.42c2.07,1.08,3.96,2.38,5.64,3.86c1.69,1.48,3.23,3.23,4.54,5.16
			c3.28,4.77,4.95,10.02,4.95,15.63c0,2.79-0.43,5.56-1.29,8.23c-0.86,2.66-2.11,5.16-3.72,7.47c-1.29,1.85-2.82,3.57-4.53,5.08
			c-1.73,1.53-3.61,2.84-5.6,3.87c-1.89,0.99-4,1.79-6.26,2.38C197.3,168.15,194.96,168.45,192.63,168.45z M189.59,140.84
			c0.03,0.08,0.11,0.34,0.33,0.66c0.26,0.38,0.66,0.73,1.09,0.96c0.52,0.29,1.19,0.46,1.81,0.42l-0.23-1.08l-1.96-2.94
			c-0.21,0.14-0.42,0.33-0.57,0.53c-0.17,0.22-0.3,0.46-0.38,0.7c-0.09,0.27-0.1,0.49-0.1,0.5
			C189.58,140.69,189.59,140.78,189.59,140.84z M192.94,142.31l0.1,0.54c0.08-0.01,0.16-0.02,0.24-0.04L192.94,142.31z
			 M192.87,141.95l0.53,0.83c0.37-0.09,0.74-0.24,1.06-0.44c0.55-0.34,0.94-0.83,1.12-1.16c0.16-0.3,0.19-0.57,0.19-0.65
			c0-0.08-0.04-0.36-0.21-0.69c-0.16-0.3-0.52-0.74-1.05-1.08c-0.57-0.36-1.28-0.56-1.9-0.56c-0.24,0-0.37,0.02-0.38,0.02
			L192.87,141.95z M191.84,138.31c-0.34,0.07-0.7,0.22-1.01,0.42l1.67,2.63L191.84,138.31z"/>
	</g>
	<g>
		<path class="st1" d="M304.52,215.95c-23.13,0-41.95-18.82-41.95-41.95s18.82-41.95,41.95-41.95c23.13,0,41.95,18.82,41.95,41.95
			S327.66,215.95,304.52,215.95z M304.52,152.76c-11.71,0-21.23,9.53-21.23,21.24c0,11.71,9.53,21.24,21.23,21.24
			c11.71,0,21.24-9.53,21.24-21.24C325.76,162.28,316.23,152.76,304.52,152.76z"/>
	</g>
	<g>
		<g>
			<g>
				<path class="st1" d="M296.36,197c-3.35,0-6.57-1.13-9.24-3.28l-0.28-0.24c-2.98-2.58-4.86-5.95-5.45-9.73l-3.16-20.02
					c-0.46-2.99-0.06-5.99,1.17-8.71c1.31-2.85,3.36-5.13,5.94-6.67l-0.69-4.34l3.39,3.04c0.84-0.3,1.71-0.53,2.6-0.67
					c2.58-0.41,6.18-0.29,10.05,1.99c2.33-2.63,5.45-4.36,8.92-4.9c1.95-0.31,3.9-0.24,5.81,0.2c2.02,0.47,3.89,1.35,5.53,2.61
					c1.5,1.12,2.78,2.51,3.79,4.15l0.07,0.11c1.04,1.73,1.72,3.59,2.02,5.54l3.27,20.76c0.06,0.48,0.11,1,0.15,1.79l0.02,0.39
					l-0.01,0.39c-0.06,2.43-0.7,4.75-1.9,6.89c-1.07,1.95-2.61,3.66-4.52,5c-0.3,0.21-0.61,0.41-0.93,0.6l0.51,3.23l-2.55-2.21
					c-1.08,0.44-2.21,0.75-3.38,0.94c-2.67,0.44-5.49,0.12-8.07-0.94l-0.5-0.22c-0.46-0.22-0.9-0.45-1.32-0.69
					c-2.27,2.55-5.35,4.24-8.8,4.79C297.99,196.94,297.17,197,296.36,197z"/>
			</g>
		</g>
		<g>
			<g>
				<path class="st1" d="M296.36,197c-3.35,0-6.57-1.13-9.24-3.28l-0.28-0.24c-2.98-2.58-4.86-5.95-5.45-9.73l-3.16-20.02
					c-0.46-2.99-0.06-5.99,1.17-8.71c1.31-2.85,3.36-5.13,5.94-6.67l-0.69-4.34l3.39,3.04c0.84-0.3,1.71-0.53,2.6-0.67
					c2.58-0.41,6.18-0.29,10.05,1.99c2.33-2.63,5.45-4.36,8.92-4.9c1.95-0.31,3.9-0.24,5.81,0.2c2.02,0.47,3.89,1.35,5.53,2.61
					c1.5,1.12,2.78,2.51,3.79,4.15l0.07,0.11c1.04,1.73,1.72,3.59,2.02,5.54l3.27,20.76c0.06,0.48,0.11,1,0.15,1.79l0.02,0.39
					l-0.01,0.39c-0.06,2.43-0.7,4.75-1.9,6.89c-1.07,1.95-2.61,3.66-4.52,5c-0.3,0.21-0.61,0.41-0.93,0.6l0.51,3.23l-2.55-2.21
					c-1.08,0.44-2.21,0.75-3.38,0.94c-2.67,0.44-5.49,0.12-8.07-0.94l-0.5-0.22c-0.46-0.22-0.9-0.45-1.32-0.69
					c-2.27,2.55-5.35,4.24-8.8,4.79C297.99,196.94,297.17,197,296.36,197z"/>
			</g>
		</g>
		<g>
			<g>
				<path class="st1" d="M296.36,197c-3.35,0-6.57-1.13-9.24-3.28l-0.28-0.24c-2.98-2.58-4.86-5.95-5.45-9.73l-3.16-20.02
					c-0.46-2.99-0.06-5.99,1.17-8.71c1.31-2.85,3.36-5.13,5.94-6.67l-0.69-4.34l3.39,3.04c0.84-0.3,1.71-0.53,2.6-0.67
					c2.58-0.41,6.18-0.29,10.05,1.99c2.33-2.63,5.45-4.36,8.92-4.9c1.95-0.31,3.9-0.24,5.81,0.2c2.02,0.47,3.89,1.35,5.53,2.61
					c1.5,1.12,2.78,2.51,3.79,4.15l0.07,0.11c1.04,1.73,1.72,3.59,2.02,5.54l3.27,20.76c0.06,0.48,0.11,1,0.15,1.79l0.02,0.39
					l-0.01,0.39c-0.06,2.43-0.7,4.75-1.9,6.89c-1.07,1.95-2.61,3.66-4.52,5c-0.3,0.21-0.61,0.41-0.93,0.6l0.51,3.23l-2.55-2.21
					c-1.08,0.44-2.21,0.75-3.38,0.94c-2.67,0.44-5.49,0.12-8.07-0.94l-0.5-0.22c-0.46-0.22-0.9-0.45-1.32-0.69
					c-2.27,2.55-5.35,4.24-8.8,4.79C297.99,196.94,297.17,197,296.36,197z"/>
			</g>
		</g>
	</g>
	<g>
		<path class="st1" d="M406.85,193.89c-22.31,0-40.46-18.15-40.46-40.46s18.15-40.46,40.46-40.46c22.31,0,40.46,18.15,40.46,40.46
			S429.16,193.89,406.85,193.89z M406.85,133.69c-10.88,0-19.74,8.85-19.74,19.74s8.86,19.74,19.74,19.74
			c10.88,0,19.74-8.86,19.74-19.74S417.73,133.69,406.85,133.69z"/>
	</g>
	<g>
		<g>
			<path class="st1" d="M397.46,180.98c-1.43,0-2.85-0.2-4.26-0.58l-0.03-0.01c-2.95-0.82-5.45-2.31-7.42-4.42
				c-2.11-2.25-3.46-5.09-3.92-8.21c-0.29-2.07-0.18-4.28,0.32-6.62l0.03-0.15l4.96-21.49c0.93-3.96,2.77-7.27,5.46-9.88
				c1.93-1.86,4.2-3.25,6.7-4.13l2.28-9.91l4.99,8.86c2.67,0.13,5.26,0.83,7.64,2.08c3.29,1.71,5.99,4.37,7.99,7.89l11.04,19.67
				c1.08,2.14,1.74,4.07,2.01,5.91c0.45,3.23-0.05,6.34-1.45,9.09c-1.29,2.57-3.34,4.76-5.92,6.34c-1.89,1.18-3.95,1.93-6.11,2.24
				c-3.29,0.46-6.57-0.15-9.52-1.76c-0.77-0.42-1.51-0.9-2.2-1.45c-0.48,0.68-1.02,1.32-1.6,1.91c-2.43,2.46-5.46,3.99-8.77,4.46
				C398.94,180.93,398.2,180.98,397.46,180.98z M402.36,165.67L402.36,165.67L402.36,165.67z"/>
		</g>
	</g>
	<g>
		<path class="st1" d="M514.28,224.73c-42.14,0-76.43-34.29-76.43-76.43s34.29-76.43,76.43-76.43c42.14,0,76.43,34.29,76.43,76.43
			S556.42,224.73,514.28,224.73z M514.28,92.58c-30.72,0-55.71,24.99-55.71,55.71c0,30.72,24.99,55.71,55.71,55.71
			c30.72,0,55.71-24.99,55.71-55.71C569.99,117.58,545,92.58,514.28,92.58z"/>
	</g>
	<g>
		<path class="st1" d="M526.21,192c-23.13,0-41.95-18.82-41.95-41.95s18.82-41.95,41.95-41.95c23.13,0,41.95,18.82,41.95,41.95
			S549.34,192,526.21,192z M526.21,128.81c-11.71,0-21.24,9.53-21.24,21.24s9.53,21.24,21.24,21.24c11.71,0,21.24-9.53,21.24-21.24
			S537.92,128.81,526.21,128.81z"/>
	</g>
	<g>
		<g>
			<g>
				<path class="st1" d="M536.5,180.65c-0.71,0-1.44-0.05-2.17-0.14c-2.09-0.28-4.05-0.93-5.82-1.94c-1.69-0.97-3.23-2.27-4.56-3.87
					l-0.13-0.16c-0.01-0.02-0.03-0.04-0.04-0.05c-1.73,1.32-3.66,2.24-5.75,2.75c-1.91,0.48-3.94,0.59-5.95,0.33
					c-4.24-0.56-8.01-2.74-10.6-6.13l0,0c-2.64-3.45-3.73-7.57-3.16-11.89l3.29-24.7c0.58-4.34,2.71-8.02,6.15-10.65
					c3.43-2.63,7.54-3.72,11.86-3.14c4.15,0.55,7.86,2.69,10.47,6.02c3.36-2.53,7.52-3.63,11.7-3.07c1.96,0.25,3.88,0.88,5.68,1.87
					l0.1,0.05c1.97,1.1,3.63,2.56,4.92,4.34c0.84,1.12,1.53,2.33,2.04,3.6c0.51,1.26,0.85,2.6,1.03,3.99c0.18,1.35,0.19,2.77,0,4.16
					l-3.29,24.71c-0.28,2.06-0.94,4.02-1.98,5.85c-1.12,1.95-2.53,3.55-4.23,4.84C543.25,179.54,539.97,180.65,536.5,180.65z
					 M541.08,165.21L541.08,165.21C541.08,165.22,541.08,165.21,541.08,165.21z M544.32,140.53l0,0.03
					C544.31,140.55,544.32,140.54,544.32,140.53z"/>
			</g>
		</g>
		<g>
			<g>
				<path class="st1" d="M536.5,180.65c-0.71,0-1.44-0.05-2.17-0.14c-2.09-0.28-4.05-0.93-5.82-1.94c-1.69-0.97-3.23-2.27-4.56-3.87
					l-0.13-0.16c-0.01-0.02-0.03-0.04-0.04-0.05c-1.73,1.32-3.66,2.24-5.75,2.75c-1.91,0.48-3.94,0.59-5.95,0.33
					c-4.24-0.56-8.01-2.74-10.6-6.13l0,0c-2.64-3.45-3.73-7.57-3.16-11.89l3.29-24.7c0.58-4.34,2.71-8.02,6.15-10.65
					c3.43-2.63,7.54-3.72,11.86-3.14c4.15,0.55,7.86,2.69,10.47,6.02c3.36-2.53,7.52-3.63,11.7-3.07c1.96,0.25,3.88,0.88,5.68,1.87
					l0.1,0.05c1.97,1.1,3.63,2.56,4.92,4.34c0.84,1.12,1.53,2.33,2.04,3.6c0.51,1.26,0.85,2.6,1.03,3.99c0.18,1.35,0.19,2.77,0,4.16
					l-3.29,24.71c-0.28,2.06-0.94,4.02-1.98,5.85c-1.12,1.95-2.53,3.55-4.23,4.84C543.25,179.54,539.97,180.65,536.5,180.65z
					 M541.08,165.21L541.08,165.21C541.08,165.22,541.08,165.21,541.08,165.21z M544.32,140.53l0,0.03
					C544.31,140.55,544.32,140.54,544.32,140.53z"/>
			</g>
		</g>
		<g>
			<g>
				<path class="st1" d="M536.5,180.65c-0.71,0-1.44-0.05-2.17-0.14c-2.09-0.28-4.05-0.93-5.82-1.94c-1.69-0.97-3.23-2.27-4.56-3.87
					l-0.13-0.16c-0.01-0.02-0.03-0.04-0.04-0.05c-1.73,1.32-3.66,2.24-5.75,2.75c-1.91,0.48-3.94,0.59-5.95,0.33
					c-4.24-0.56-8.01-2.74-10.6-6.13l0,0c-2.64-3.45-3.73-7.57-3.16-11.89l3.29-24.7c0.58-4.34,2.71-8.02,6.15-10.65
					c3.43-2.63,7.54-3.72,11.86-3.14c4.15,0.55,7.86,2.69,10.47,6.02c3.36-2.53,7.52-3.63,11.7-3.07c1.96,0.25,3.88,0.88,5.68,1.87
					l0.1,0.05c1.97,1.1,3.63,2.56,4.92,4.34c0.84,1.12,1.53,2.33,2.04,3.6c0.51,1.26,0.85,2.6,1.03,3.99c0.18,1.35,0.19,2.77,0,4.16
					l-3.29,24.71c-0.28,2.06-0.94,4.02-1.98,5.85c-1.12,1.95-2.53,3.55-4.23,4.84C543.25,179.54,539.97,180.65,536.5,180.65z
					 M541.08,165.21L541.08,165.21C541.08,165.22,541.08,165.21,541.08,165.21z M544.32,140.53l0,0.03
					C544.31,140.55,544.32,140.54,544.32,140.53z"/>
			</g>
		</g>
	</g>
	<g>
		
			<rect x="296.72" y="182.18" transform="matrix(0.9868 -0.1622 0.1622 0.9868 -27.1476 52.4538)" class="st1" width="22.11" height="20.72"/>
	</g>
</g>
<g>
	<g>
		<path class="st0" d="M646.28,71.5c0-28.24-26.67-51.14-59.58-51.14c-32.9,0-59.58,22.9-59.58,51.14
			c0,28.24,26.67,35.19,59.58,35.19c24.3,0,0,19.21,0,21.31C586.71,130.66,646.28,128.03,646.28,71.5z"/>
	</g>
	<g>
		<g>
			<path class="st1" d="M558.97,45.79c-6.72-0.83-11,18.26-13.36,34.41c-0.21,1.46,0.65,2.85,1.93,3.09
				c1.26,0.25,2.49-0.74,2.7-2.21c0.5-3.41,1.09-6.75,1.73-9.92l9.6,1.79c0.23,4.63,0.34,9.67,0.3,14.81
				c-0.01,1.48,1.03,2.7,2.32,2.71c0.01,0,0.01,0,0.02,0c1.28,0,2.33-1.19,2.34-2.66C566.76,60.56,564.21,46.41,558.97,45.79z
				 M553.1,65.94c1.82-7.73,3.84-13.52,5.3-14.67c1.18,1.64,2.2,7.85,2.82,16.18L553.1,65.94z"/>
		</g>
		<g>
			<path class="st1" d="M578.15,69.27c10.63-3.66,11.23-11.14,11.12-13.56c-0.27-6.22-5.26-11.64-11.12-12.09
				c-2.5-0.2-4.58,0.83-6.07,2.96c-2.86,4.08-3.38,12.19-1.58,24.8c1.26,8.84,3.2,16.52,3.29,16.85c0.3,1.17,1.23,1.94,2.25,1.94
				c0.22,0,0.44-0.04,0.66-0.11c1.24-0.42,1.96-1.91,1.6-3.33c-0.93-3.65-1.89-8.17-2.66-12.81l9.53,9.97
				c0.96,1,2.44,0.92,3.31-0.17c0.87-1.1,0.8-2.8-0.15-3.8L578.15,69.27z M574.44,64.81c-0.6-6.63-0.42-12.42,1.29-14.87
				c0.47-0.67,1.03-0.97,1.83-0.97c0.09,0,0.18,0,0.28,0.01c3.51,0.27,6.6,3.47,6.75,6.99C584.76,59.96,581,63.21,574.44,64.81z"/>
		</g>
		<g>
			<path class="st1" d="M603.39,82.42c-0.24,0.31-0.3,0.37-0.42,0.49c-0.09,0.09-0.21,0.2-0.38,0.37c-1.43,1.46-2.12,1.51-2.24,1.44
				c-1.35-0.81-2.17-5.84-2.39-12.98l7.13-1.73c1.27-0.31,2.08-1.74,1.81-3.19c-0.27-1.45-1.51-2.37-2.78-2.07l-6.21,1.51
				c0.05-5.4,0.38-11.51,1.03-17.75c0.15-1.47-0.77-2.81-2.05-2.98c-1.29-0.17-2.45,0.88-2.6,2.35c-0.49,4.72-1.11,12.19-1.14,19.53
				l-3.98,0.97c-1.27,0.31-2.07,1.74-1.81,3.19c0.24,1.26,1.21,2.13,2.29,2.13c0.16,0,0.32-0.02,0.49-0.06l3.11-0.75
				c0.35,7.83,1.67,14.64,4.93,16.6c0.6,0.36,1.35,0.63,2.24,0.63c1.41,0,3.19-0.69,5.28-2.82l0.27-0.26
				c0.26-0.25,0.39-0.37,0.9-1.01c0.87-1.1,0.79-2.8-0.17-3.79C605.74,81.24,604.26,81.32,603.39,82.42z"/>
		</g>
		<g>
			<path class="st1" d="M616.69,60.61c-4.14-1.98-6.53-4.7-6.39-7.27c0.08-1.37,0.95-2.56,2.18-2.94c1.79-0.56,3.79,0.69,5.37,3.34
				c0.73,1.23,2.19,1.55,3.26,0.71c1.07-0.83,1.35-2.51,0.62-3.73c-2.75-4.64-6.66-6.7-10.48-5.51c-3.16,0.99-5.42,4.11-5.62,7.78
				c-0.13,2.39,0.5,8.39,9.26,12.58c5.56,2.66,8.64,6.34,8.23,9.85c-0.25,2.14-1.86,3.9-3.82,4.19c-2.71,0.41-5.29-2.06-6.91-6.59
				c-0.49-1.37-1.86-2.03-3.06-1.46c-1.2,0.56-1.77,2.13-1.28,3.51c2.27,6.34,6.18,9.97,10.62,9.97c0.4,0,0.81-0.03,1.22-0.09
				c4.1-0.6,7.33-4.22,7.87-8.8C628.11,73.22,627.71,65.88,616.69,60.61z"/>
		</g>
	</g>
</g>
<g>
	<path class="st2" d="M341.89,156.51c0-34.23,27.75-61.98,61.98-61.98c34.23,0,61.98,27.75,61.98,61.98
		c0,34.23-27.75,61.98-61.98,61.98C369.64,218.49,341.89,190.74,341.89,156.51z"/>
</g>
<g>
	<path class="st3" d="M132.87,140.54c0-33.02,26.77-59.79,59.78-59.79c33.02,0,59.79,26.77,59.79,59.79
		c0,33.02-26.77,59.78-59.79,59.78C159.63,200.33,132.87,173.56,132.87,140.54z"/>
</g>
<g>
	<path class="st4" d="M20.36,156.51c0-36.38,29.5-65.88,65.88-65.88c36.38,0,65.88,29.5,65.88,65.88c0,36.38-29.5,65.88-65.88,65.88
		C49.86,222.39,20.36,192.89,20.36,156.51z"/>
</g>
<g>
	<path class="st0" d="M41.21,156.51c0-16.07,13.03-29.1,29.1-29.1c16.07,0,29.1,13.03,29.1,29.1s-13.03,29.1-29.1,29.1
		C54.24,185.61,41.21,172.58,41.21,156.51z"/>
</g>
<g>
	<path class="st1" d="M64.1,163.4c0.69,0.18,1.23,0.07,1.64-0.32c0.41-0.39,0.76-1.13,1.05-2.22l4.32-17
		c0.39-1.52,1.25-2.68,2.58-3.47c1.33-0.79,2.71-0.99,4.17-0.63c1.47,0.37,2.59,1.24,3.35,2.58c0.76,1.34,0.94,2.79,0.55,4.33
		l-4.3,16.9c-0.66,2.56-1.68,4.64-3.08,6.25c-1.39,1.61-3.08,2.69-5.05,3.25c-1.96,0.55-4.13,0.53-6.49-0.07
		c-0.84-0.21-1.49-0.41-1.94-0.59c-0.87-0.35-1.5-0.62-1.89-0.82c-1.94-1.03-3.32-2.22-4.13-3.57c-0.81-1.35-1.05-2.65-0.73-3.9
		c0.18-0.73,0.54-1.39,1.08-1.96c1.18-1.2,2.6-1.62,4.26-1.25c0.64,0.16,1.28,0.44,1.93,0.83c0.15,0.07,0.26,0.14,0.36,0.2
		c0.09,0.06,0.18,0.12,0.25,0.15l0.64,0.46l0.56,0.46C63.38,163.08,63.66,163.22,64.1,163.4z"/>
</g>
<g>
	<path class="st0" d="M163.55,140.54c0-16.07,13.03-29.1,29.1-29.1c16.07,0,29.1,13.03,29.1,29.1s-13.03,29.1-29.1,29.1
		C176.58,169.64,163.55,156.62,163.55,140.54z"/>
</g>
<g>
	<path class="st5" d="M230.91,173.47c0-36.76,29.8-66.56,66.55-66.56c36.76,0,66.56,29.8,66.56,66.56
		c0,36.76-29.8,66.56-66.56,66.56C260.71,240.02,230.91,210.22,230.91,173.47z"/>
</g>
<g>
	<path class="st1" d="M177.79,150.31c-0.69-0.98-1.27-2.02-1.74-3.11c-0.46-1.1-0.82-2.2-1.05-3.3c-0.24-1.11-0.35-2.24-0.35-3.37
		c0-1.1,0.12-2.21,0.35-3.33c0.23-1.12,0.59-2.23,1.07-3.34c0.47-1.11,1.04-2.14,1.72-3.11c1.1-1.6,2.43-2.99,4-4.15
		c1.56-1.17,3.27-2.05,5.13-2.68c1.86-0.62,3.77-0.93,5.72-0.93c1.48,0,2.93,0.17,4.36,0.53c1.43,0.35,2.8,0.87,4.11,1.55
		c1.31,0.68,2.51,1.5,3.58,2.45c1.08,0.95,2.02,2.03,2.84,3.24c2.1,3.04,3.14,6.29,3.14,9.78c0,1.73-0.27,3.43-0.8,5.08
		c-0.54,1.66-1.32,3.23-2.35,4.7c-0.82,1.17-1.77,2.26-2.89,3.25c-1.11,0.99-2.29,1.8-3.52,2.44c-1.23,0.65-2.58,1.15-4.05,1.53
		c-1.47,0.37-2.94,0.56-4.41,0.56c-1.95,0-3.87-0.31-5.72-0.92c-1.86-0.61-3.58-1.51-5.14-2.68
		C180.2,153.31,178.87,151.92,177.79,150.31z M185.4,140.53c0,1.51,0.32,2.89,0.97,4.13c0.65,1.24,1.52,2.2,2.62,2.89
		c1.1,0.68,2.3,1.02,3.59,1.02c0.46,0,0.93-0.05,1.43-0.13c0.87-0.19,1.66-0.51,2.37-0.96c0.7-0.47,1.33-1.05,1.87-1.75
		c0.54-0.7,0.96-1.49,1.25-2.35c0.3-0.86,0.44-1.8,0.44-2.79c0-0.47-0.05-0.98-0.14-1.51c-0.23-1.34-0.68-2.48-1.34-3.45
		c-0.66-0.96-1.5-1.72-2.51-2.27c-1.01-0.56-2.12-0.83-3.31-0.83c-1.32,0-2.54,0.34-3.64,1.02c-1.11,0.68-1.98,1.64-2.62,2.88
		C185.73,137.66,185.4,139.04,185.4,140.53z"/>
</g>
<g>
	<path class="st0" d="M272.93,173.99c0-17.45,14.15-31.59,31.59-31.59c17.45,0,31.6,14.15,31.6,31.59
		c0,17.45-14.14,31.59-31.6,31.59C287.08,205.59,272.93,191.44,272.93,173.99z"/>
</g>
<g>
	<g>
		<path class="st1" d="M293.62,185.66c-1.12-0.97-1.79-2.14-2-3.49l-3.16-20.04c-0.16-1-0.03-1.94,0.37-2.82
			c0.41-0.89,1.01-1.58,1.85-2.06c0.53-0.32,1.07-0.53,1.64-0.62c1.41-0.22,2.84,0.31,4.35,1.58l12.14,10.53l-1.5-9.57
			c-0.2-1.3,0.08-2.48,0.87-3.56c0.78-1.06,1.79-1.68,3.06-1.88c0.62-0.1,1.25-0.08,1.86,0.06c0.61,0.14,1.15,0.4,1.63,0.78
			c0.48,0.34,0.89,0.79,1.24,1.35c0.34,0.56,0.56,1.15,0.66,1.78l3.24,20.54c0.03,0.19,0.05,0.51,0.07,0.94
			c-0.02,0.74-0.21,1.43-0.58,2.09c-0.35,0.64-0.83,1.16-1.43,1.58c-0.6,0.42-1.27,0.69-2.01,0.8c-0.9,0.15-1.74,0.04-2.53-0.28
			c-0.57-0.27-1.02-0.56-1.32-0.85l-12.62-11.31l1.58,9.97c0.21,1.34-0.06,2.54-0.83,3.6c-0.74,1.02-1.73,1.62-2.98,1.82
			C295.83,186.79,294.65,186.49,293.62,185.66z"/>
	</g>
</g>
<g>
	<path class="st0" d="M376.75,153.43c0-16.62,13.48-30.1,30.1-30.1c16.63,0,30.1,13.48,30.1,30.1s-13.47,30.1-30.1,30.1
		C390.23,183.53,376.75,170.05,376.75,153.43z"/>
</g>
<g>
	<g>
		<path class="st1" d="M395.95,170.42c-1.09-0.31-1.97-0.81-2.65-1.53c-0.67-0.72-1.08-1.6-1.24-2.65c-0.11-0.77-0.05-1.74,0.2-2.92
			l4.96-21.48c0.46-1.97,1.32-3.55,2.58-4.77c1.25-1.2,2.77-1.94,4.56-2.19c1.81-0.26,3.48,0.01,5.02,0.82
			c1.55,0.81,2.81,2.1,3.81,3.85l10.8,19.22c0.57,1.12,0.9,2.04,1.01,2.75c0.15,1.05,0.01,2.01-0.45,2.89
			c-0.44,0.89-1.15,1.62-2.12,2.2c-0.67,0.42-1.38,0.69-2.12,0.8c-1.06,0.15-2.09-0.04-3.09-0.59c-0.99-0.54-1.8-1.38-2.4-2.51
			l-0.74-1.45l-11.12,1.59l-0.34,1.61c-0.24,1.22-0.76,2.24-1.57,3.06c-0.81,0.82-1.75,1.31-2.84,1.46
			C397.48,170.68,396.72,170.63,395.95,170.42z M403.13,155.01l8.12-1.16l-5.57-9.9L403.13,155.01z"/>
	</g>
</g>
<g>
	<path class="st6" d="M448.21,148.3c0-36.49,29.58-66.07,66.07-66.07c36.49,0,66.07,29.58,66.07,66.07
		c0,36.49-29.58,66.07-66.07,66.07C477.79,214.37,448.21,184.78,448.21,148.3z"/>
</g>
<g>
	<circle class="st0" cx="526.21" cy="150.05" r="31.59"/>
</g>
<g>
	<g>
		<path class="st1" d="M509.7,165.12c-0.95-1.25-1.33-2.65-1.12-4.23l3.29-24.7c0.21-1.58,0.94-2.84,2.18-3.78
			c1.23-0.95,2.63-1.32,4.19-1.11c1.52,0.2,2.77,0.94,3.74,2.2c0.31,0.41,0.56,0.84,0.74,1.29c0.18,0.45,0.3,0.94,0.37,1.46
			c0.07,0.52,0.07,1.01,0.01,1.49l-0.94,7.05l10.94,1.46l0.94-7.05c0.1-0.74,0.34-1.45,0.73-2.12c0.39-0.67,0.87-1.23,1.46-1.68
			c1.26-0.97,2.66-1.35,4.18-1.15c0.72,0.09,1.42,0.33,2.09,0.69c0.67,0.37,1.23,0.86,1.65,1.47c0.32,0.4,0.57,0.84,0.74,1.28
			c0.18,0.45,0.31,0.94,0.38,1.45c0.07,0.52,0.07,1.02,0.01,1.49l-3.29,24.71c-0.1,0.74-0.35,1.45-0.73,2.11
			c-0.38,0.67-0.87,1.23-1.46,1.68c-1.23,0.94-2.6,1.31-4.13,1.11c-0.74-0.1-1.41-0.32-2.02-0.67c-0.61-0.35-1.19-0.84-1.73-1.49
			c-0.96-1.2-1.33-2.61-1.12-4.23l1.04-7.83l-11.06-1.47l-1.04,7.83c-0.22,1.64-0.94,2.9-2.16,3.8c-0.61,0.48-1.27,0.81-1.99,0.98
			c-0.72,0.18-1.43,0.22-2.14,0.12C511.89,167.08,510.64,166.35,509.7,165.12z"/>
	</g>
</g>
<g>
	<path class="st1" d="M296.86,197.1c-1.33,0-2.51-0.96-2.73-2.32c-0.25-1.51,0.77-2.93,2.28-3.18l21.82-3.59
		c1.52-0.26,2.93,0.77,3.18,2.28c0.25,1.51-0.77,2.93-2.28,3.18l-21.82,3.59C297.16,197.09,297.01,197.1,296.86,197.1z"/>
</g>
</svg>
