<?xml version="1.0" encoding="utf-8"?>
<!-- Generator: Adobe Illustrator 24.1.3, SVG Export Plug-In . SVG Version: 6.00 Build 0)  -->
<svg version="1.1" id="Layer_1" xmlns="http://www.w3.org/2000/svg" xmlns:xlink="http://www.w3.org/1999/xlink" x="0px" y="0px"
	 viewBox="0 0 424.95 87.65" style="enable-background:new 0 0 424.95 87.65;" xml:space="preserve">
<style type="text/css">
	.st0{fill:#FFFFFF;}
</style>
<g>
	<path d="M105.44,56.42c0.04-0.04,0.06-0.08,0.1-0.12c0.04-0.04,0.06-0.08,0.1-0.12c0.04-0.04,0.06-0.08,0.1-0.12
		c0.04-0.04,0.06-0.08,0.1-0.12c0.04-0.04,0.06-0.08,0.1-0.12c0.04-0.04,0.06-0.08,0.1-0.12c0.04-0.04,0.06-0.08,0.1-0.12
		c0.04-0.04,0.06-0.08,0.1-0.12c0.04-0.04,0.06-0.08,0.1-0.12c0.04-0.04,0.06-0.08,0.1-0.12c0.04-0.04,0.06-0.08,0.1-0.12
		c0.04-0.04,0.06-0.08,0.1-0.12c0.04-0.04,0.06-0.08,0.1-0.12c0.04-0.04,0.06-0.08,0.1-0.12c0.04-0.04,0.06-0.08,0.1-0.12
		c0.04-0.04,0.06-0.08,0.1-0.12c0.04-0.04,0.06-0.08,0.1-0.12c0.04-0.04,0.06-0.08,0.1-0.12c0.04-0.04,0.06-0.08,0.1-0.12
		c0.04-0.04,0.06-0.08,0.1-0.12c0.04-0.04,0.06-0.08,0.1-0.12c0.04-0.04,0.06-0.08,0.1-0.12c0.04-0.04,0.06-0.08,0.1-0.12
		c0.04-0.04,0.06-0.08,0.1-0.12c0.04-0.04,0.06-0.08,0.1-0.12c0.04-0.04,0.06-0.08,0.1-0.12c0.04-0.04,0.06-0.08,0.1-0.12
		c0.04-0.04,0.06-0.08,0.1-0.12c0.04-0.04,0.06-0.08,0.1-0.12c0.04-0.04,0.06-0.08,0.1-0.12c0.04-0.04,0.06-0.08,0.1-0.12
		c0.04-0.04,0.06-0.08,0.1-0.12c0.04-0.04,0.06-0.08,0.1-0.12c0.04-0.04,0.06-0.08,0.1-0.12c0.04-0.04,0.06-0.08,0.1-0.12
		c0.04-0.04,0.06-0.08,0.1-0.12c0.04-0.04,0.06-0.08,0.1-0.12c0.04-0.04,0.06-0.08,0.1-0.12c0.04-0.04,0.06-0.08,0.1-0.12
		c0.04-0.04,0.06-0.08,0.1-0.12c0.04-0.04,0.06-0.08,0.1-0.12c0.04-0.04,0.06-0.08,0.1-0.12c0.04-0.04,0.06-0.08,0.1-0.12
		c0.04-0.04,0.06-0.08,0.1-0.12c0.04-0.04,0.06-0.08,0.1-0.12c0.04-0.04,0.06-0.08,0.1-0.12c0.04-0.04,0.06-0.08,0.1-0.12
		c0.04-0.04,0.06-0.08,0.1-0.12c1.68-1.92,2.29-3.72,1.81-5.42c-0.2-0.71-0.65-1.26-1.37-1.64c-0.71-0.38-1.42-0.48-2.14-0.28
		c-0.42,0.12-0.77,0.39-1.08,0.8c-0.03,0.04-0.06,0.08-0.1,0.12c-0.03,0.04-0.06,0.08-0.1,0.12c-0.03,0.04-0.06,0.08-0.1,0.12
		c-0.03,0.04-0.06,0.08-0.1,0.12c-0.03,0.04-0.06,0.08-0.1,0.12c-0.03,0.04-0.06,0.08-0.1,0.12c-0.03,0.04-0.06,0.08-0.1,0.12
		c-0.03,0.04-0.06,0.08-0.1,0.12c-0.03,0.04-0.06,0.08-0.1,0.12c-0.03,0.04-0.06,0.08-0.1,0.12c-0.03,0.04-0.06,0.08-0.1,0.12
		c-0.03,0.04-0.06,0.08-0.1,0.12c-0.03,0.04-0.06,0.08-0.1,0.12c-0.03,0.04-0.06,0.08-0.1,0.12c-0.03,0.04-0.06,0.08-0.1,0.12
		c-0.03,0.04-0.06,0.08-0.1,0.12c-0.03,0.04-0.06,0.08-0.1,0.12c-0.03,0.04-0.06,0.08-0.1,0.12c-0.03,0.04-0.06,0.08-0.1,0.12
		c-0.03,0.04-0.06,0.08-0.1,0.12c-0.03,0.04-0.06,0.08-0.1,0.12c-0.03,0.04-0.06,0.08-0.1,0.12c-0.03,0.04-0.06,0.08-0.1,0.12
		c-0.03,0.04-0.06,0.08-0.1,0.12c-0.03,0.04-0.06,0.08-0.1,0.12c-0.03,0.04-0.06,0.08-0.1,0.12c-0.03,0.04-0.06,0.08-0.1,0.12
		c-0.03,0.04-0.06,0.08-0.1,0.12c-0.03,0.04-0.06,0.08-0.1,0.12c-0.03,0.04-0.06,0.08-0.1,0.12c-0.03,0.04-0.06,0.08-0.1,0.12
		c-0.03,0.04-0.06,0.08-0.1,0.12c-0.03,0.04-0.06,0.08-0.1,0.12c-0.03,0.04-0.06,0.08-0.1,0.12c-0.03,0.04-0.06,0.08-0.1,0.12
		c-0.03,0.04-0.06,0.08-0.1,0.12c-0.03,0.04-0.06,0.08-0.1,0.12c-0.03,0.04-0.06,0.08-0.1,0.12c-0.03,0.04-0.06,0.08-0.1,0.12
		c-0.03,0.04-0.06,0.08-0.1,0.12c-0.03,0.04-0.06,0.08-0.1,0.12c-0.03,0.04-0.06,0.08-0.1,0.12c-0.01,0.01-0.01,0.01-0.02,0.02
		c-0.18,0.12-0.37,0.24-0.56,0.36c-1.75,1.06-3.32,1.78-4.73,2.18c-2.26,0.63-4.36,0.76-6.3,0.38c-1.49-0.29-2.88-0.88-4.18-1.76
		l4.1-3.55c2.87-2.47,4.71-4.21,5.52-5.23c0.01-0.02,0.02-0.03,0.04-0.05c0.02-0.02,0.04-0.05,0.06-0.07
		c0.01-0.02,0.02-0.03,0.04-0.05c0.02-0.02,0.04-0.05,0.06-0.07c0.01-0.02,0.02-0.03,0.04-0.05c0.02-0.02,0.04-0.05,0.06-0.07
		c0.01-0.02,0.02-0.03,0.04-0.05c0.02-0.02,0.04-0.05,0.06-0.07c0.01-0.02,0.02-0.03,0.04-0.05c0.02-0.02,0.04-0.05,0.06-0.07
		c0.01-0.02,0.02-0.03,0.04-0.05c0.02-0.02,0.04-0.05,0.06-0.07c0.01-0.02,0.02-0.03,0.04-0.05c0.02-0.02,0.04-0.05,0.06-0.07
		c0.01-0.02,0.02-0.03,0.04-0.05c0.02-0.02,0.04-0.05,0.06-0.07c0.01-0.02,0.02-0.03,0.04-0.05c0.02-0.02,0.04-0.05,0.06-0.07
		c0.01-0.02,0.02-0.03,0.04-0.05c0.02-0.02,0.04-0.05,0.06-0.07c0.01-0.02,0.02-0.03,0.04-0.05c0.02-0.02,0.04-0.05,0.06-0.07
		c0.01-0.02,0.02-0.03,0.04-0.05c0.02-0.02,0.04-0.05,0.06-0.07c0.01-0.02,0.02-0.03,0.04-0.05c0.02-0.02,0.04-0.05,0.06-0.07
		c0.01-0.02,0.02-0.03,0.04-0.05c0.02-0.02,0.04-0.05,0.06-0.07c0.01-0.02,0.02-0.03,0.04-0.05c0.02-0.02,0.04-0.05,0.06-0.07
		c0.01-0.02,0.02-0.03,0.04-0.05c0.02-0.02,0.04-0.05,0.06-0.07c0.01-0.02,0.02-0.03,0.04-0.05c0.02-0.02,0.04-0.05,0.06-0.07
		c0.01-0.02,0.02-0.03,0.04-0.05c0.02-0.02,0.04-0.05,0.06-0.07c0.01-0.02,0.02-0.03,0.04-0.05c0.02-0.02,0.04-0.05,0.06-0.07
		c0.01-0.02,0.02-0.03,0.04-0.05c0.02-0.02,0.04-0.05,0.06-0.07c0.01-0.02,0.02-0.03,0.04-0.05c0.02-0.02,0.04-0.05,0.06-0.07
		c0.01-0.02,0.02-0.03,0.04-0.05c0.02-0.02,0.04-0.05,0.06-0.07c0.01-0.02,0.02-0.03,0.04-0.05c0.02-0.02,0.04-0.05,0.06-0.07
		c0.01-0.02,0.02-0.03,0.04-0.05c0.02-0.02,0.04-0.05,0.06-0.07c0.01-0.02,0.02-0.03,0.04-0.05c0.02-0.02,0.04-0.05,0.06-0.07
		c0.01-0.02,0.02-0.03,0.04-0.05c0.02-0.02,0.04-0.05,0.06-0.07c0.01-0.02,0.02-0.03,0.04-0.05c0.02-0.02,0.04-0.05,0.06-0.07
		c0.01-0.02,0.02-0.03,0.04-0.05c0.02-0.02,0.04-0.05,0.06-0.07c0.01-0.02,0.02-0.03,0.04-0.05c0.02-0.02,0.04-0.05,0.06-0.07
		c0.01-0.02,0.02-0.03,0.04-0.05c0.02-0.02,0.04-0.05,0.06-0.07c0.01-0.02,0.02-0.03,0.04-0.05c0.02-0.02,0.04-0.05,0.06-0.07
		c0.01-0.02,0.02-0.03,0.04-0.05c0.02-0.02,0.04-0.05,0.06-0.07c0.01-0.02,0.02-0.03,0.04-0.05c0.02-0.02,0.04-0.05,0.06-0.07
		c0.01-0.02,0.02-0.03,0.04-0.05c0.02-0.02,0.04-0.05,0.06-0.07c0.01-0.02,0.02-0.03,0.04-0.05c0.02-0.02,0.04-0.05,0.06-0.07
		c0.01-0.02,0.02-0.03,0.04-0.05c0.02-0.02,0.04-0.05,0.06-0.07c0.01-0.02,0.02-0.03,0.04-0.05c0.02-0.02,0.04-0.05,0.06-0.07
		c0.01-0.02,0.02-0.03,0.04-0.05c0.02-0.02,0.04-0.05,0.06-0.07c0.01-0.02,0.02-0.03,0.04-0.05c0.02-0.02,0.04-0.05,0.06-0.07
		c0.01-0.02,0.02-0.03,0.04-0.05c0.02-0.02,0.04-0.05,0.06-0.07c0.01-0.02,0.02-0.03,0.04-0.05c0.02-0.02,0.04-0.05,0.06-0.07
		c0.01-0.02,0.02-0.03,0.04-0.05c0.02-0.02,0.04-0.05,0.06-0.07c0.01-0.02,0.02-0.03,0.04-0.05c0.02-0.02,0.04-0.05,0.06-0.07
		c0.01-0.02,0.02-0.03,0.04-0.05c0.02-0.02,0.04-0.05,0.06-0.07c0.01-0.02,0.02-0.03,0.04-0.05c0.02-0.02,0.04-0.05,0.06-0.07
		c0.01-0.02,0.02-0.03,0.04-0.05c0.02-0.02,0.04-0.05,0.06-0.07c0.01-0.02,0.02-0.03,0.04-0.05c0.02-0.02,0.04-0.05,0.06-0.07
		c0.01-0.02,0.02-0.03,0.04-0.05c0.02-0.02,0.04-0.05,0.06-0.07c0.01-0.02,0.02-0.03,0.04-0.05c0.02-0.02,0.04-0.05,0.06-0.07
		c0.01-0.02,0.02-0.03,0.04-0.05c0.02-0.02,0.04-0.05,0.06-0.07c0.01-0.02,0.02-0.03,0.04-0.05c0.02-0.02,0.04-0.05,0.06-0.07
		c1.84-2.31,2.47-4.49,1.9-6.53c-0.81-2.91-2.73-4.71-5.75-5.38c-2.46-0.54-5.38-0.34-8.76,0.6c-2.95,0.82-5.3,2.33-7.06,4.5
		c-0.03,0.04-0.06,0.08-0.1,0.12c-0.03,0.04-0.06,0.08-0.1,0.12c-0.03,0.04-0.06,0.08-0.1,0.12c-0.03,0.04-0.06,0.08-0.1,0.12
		c-0.03,0.04-0.06,0.08-0.1,0.12c-0.03,0.04-0.06,0.08-0.1,0.12c-0.03,0.04-0.06,0.08-0.1,0.12c-0.03,0.04-0.06,0.08-0.1,0.12
		c-0.03,0.04-0.06,0.08-0.1,0.12c-0.03,0.04-0.06,0.08-0.1,0.12c-0.03,0.04-0.06,0.08-0.1,0.12c-0.03,0.04-0.06,0.08-0.1,0.12
		c-0.03,0.04-0.06,0.08-0.1,0.12c-0.03,0.04-0.06,0.08-0.1,0.12c-0.03,0.04-0.06,0.08-0.1,0.12c-0.03,0.04-0.06,0.08-0.1,0.12
		c-0.03,0.04-0.06,0.08-0.1,0.12c-0.03,0.04-0.06,0.08-0.1,0.12c-0.03,0.04-0.06,0.08-0.1,0.12c-0.03,0.04-0.06,0.08-0.1,0.12
		c-0.03,0.04-0.06,0.08-0.1,0.12c-0.03,0.04-0.06,0.08-0.1,0.12c-0.03,0.04-0.06,0.08-0.1,0.12c-0.03,0.04-0.06,0.08-0.1,0.12
		c-0.03,0.04-0.06,0.08-0.1,0.12c-0.03,0.04-0.06,0.08-0.1,0.12c-0.03,0.04-0.06,0.08-0.1,0.12c-0.03,0.04-0.06,0.08-0.1,0.12
		c-0.03,0.04-0.06,0.08-0.1,0.12c-0.03,0.04-0.06,0.08-0.1,0.12c-0.03,0.04-0.06,0.08-0.1,0.12c-0.03,0.04-0.06,0.08-0.1,0.12
		c-0.03,0.04-0.06,0.08-0.1,0.12c-0.03,0.04-0.06,0.08-0.1,0.12c-0.03,0.04-0.06,0.08-0.1,0.12c-0.03,0.04-0.06,0.08-0.1,0.12
		c-0.03,0.04-0.06,0.08-0.1,0.12c-0.03,0.04-0.06,0.08-0.1,0.12c-0.03,0.04-0.06,0.08-0.1,0.12c-0.03,0.04-0.06,0.08-0.1,0.12
		c-0.03,0.04-0.06,0.08-0.1,0.12c-0.03,0.04-0.06,0.08-0.1,0.12c-0.03,0.04-0.06,0.08-0.1,0.12c-0.03,0.04-0.06,0.08-0.1,0.12
		c-0.03,0.04-0.06,0.08-0.1,0.12c-0.03,0.04-0.06,0.08-0.1,0.12c-0.03,0.04-0.06,0.08-0.1,0.12c-0.03,0.04-0.06,0.08-0.1,0.12
		c-0.03,0.04-0.06,0.08-0.1,0.12c-0.03,0.04-0.06,0.08-0.1,0.12c-1.07,1.29-1.93,2.83-2.58,4.61c-1.57,4.3-1.61,9.1-0.13,14.4
		c1.28,4.58,3.83,7.71,7.66,9.39c3.49,1.51,7.54,1.62,12.15,0.33c2.95-0.82,5.8-2.37,8.53-4.62c0.85-0.7,1.55-1.39,2.12-2.06
		c0.04-0.04,0.06-0.08,0.1-0.12C105.38,56.5,105.41,56.46,105.44,56.42z M92.35,36.9l-8.13,7.08c-0.2-3.09-0.01-5.69,0.57-7.8
		c0.39-0.17,0.78-0.32,1.21-0.44c2.9-0.81,5.39-0.76,7.49,0.14C93.13,36.21,92.75,36.55,92.35,36.9z"/>
	<path d="M419.6,39.61c0.03-0.04,0.07-0.08,0.1-0.12c0.03-0.04,0.07-0.08,0.1-0.12c0.03-0.04,0.07-0.08,0.1-0.12
		c0.03-0.04,0.07-0.08,0.1-0.12c0.03-0.04,0.07-0.08,0.1-0.12c0.03-0.04,0.07-0.08,0.1-0.12c0.03-0.04,0.07-0.08,0.1-0.12
		c0.03-0.04,0.07-0.08,0.1-0.12c0.03-0.04,0.07-0.08,0.1-0.12c0.03-0.04,0.07-0.08,0.1-0.12c0.03-0.04,0.07-0.08,0.1-0.12
		c0.03-0.04,0.07-0.08,0.1-0.12c0.03-0.04,0.07-0.08,0.1-0.12c0.03-0.04,0.07-0.08,0.1-0.12c0.03-0.04,0.07-0.08,0.1-0.12
		c0.03-0.04,0.07-0.08,0.1-0.12c0.03-0.04,0.07-0.08,0.1-0.12c0.03-0.04,0.07-0.08,0.1-0.12c0.03-0.04,0.07-0.08,0.1-0.12
		c0.03-0.04,0.07-0.08,0.1-0.12c0.03-0.04,0.07-0.08,0.1-0.12c0.03-0.04,0.07-0.08,0.1-0.12c0.03-0.04,0.07-0.08,0.1-0.12
		c0.03-0.04,0.07-0.08,0.1-0.12c0.03-0.04,0.07-0.08,0.1-0.12c0.03-0.04,0.07-0.08,0.1-0.12c0.03-0.04,0.07-0.08,0.1-0.12
		c0.03-0.04,0.07-0.08,0.1-0.12c0.03-0.04,0.07-0.08,0.1-0.12c0.03-0.04,0.07-0.08,0.1-0.12c0.03-0.04,0.07-0.08,0.1-0.12
		c0.03-0.04,0.07-0.08,0.1-0.12c0.03-0.04,0.07-0.08,0.1-0.12c0.03-0.04,0.07-0.08,0.1-0.12c0.03-0.04,0.07-0.08,0.1-0.12
		c0.03-0.04,0.07-0.08,0.1-0.12c0.03-0.04,0.07-0.08,0.1-0.12c0.03-0.04,0.07-0.08,0.1-0.12c0.03-0.04,0.07-0.08,0.1-0.12
		c0.03-0.04,0.07-0.08,0.1-0.12c0.03-0.04,0.07-0.08,0.1-0.12c0.03-0.04,0.07-0.08,0.1-0.12c0.03-0.04,0.07-0.08,0.1-0.12
		c0.03-0.04,0.07-0.08,0.1-0.12c0.03-0.04,0.07-0.08,0.1-0.12c0.03-0.04,0.07-0.08,0.1-0.12c0.03-0.04,0.07-0.08,0.1-0.12
		c0.03-0.04,0.07-0.08,0.1-0.12c0.32-0.44,0.55-0.94,0.67-1.52c0.22-1.06,0.03-2.05-0.58-2.97c-0.6-0.9-1.43-1.45-2.5-1.67
		s-2.05-0.02-2.95,0.57c-0.46,0.31-0.83,0.67-1.11,1.1c-0.03,0.04-0.07,0.08-0.1,0.12c-0.03,0.04-0.07,0.08-0.1,0.12
		c-0.03,0.04-0.07,0.08-0.1,0.12c-0.03,0.04-0.07,0.08-0.1,0.12c-0.03,0.04-0.07,0.08-0.1,0.12c-0.03,0.04-0.07,0.08-0.1,0.12
		c-0.03,0.04-0.07,0.08-0.1,0.12c-0.03,0.04-0.07,0.08-0.1,0.12c-0.03,0.04-0.07,0.08-0.1,0.12c-0.03,0.04-0.07,0.08-0.1,0.12
		c-0.03,0.04-0.07,0.08-0.1,0.12c-0.03,0.04-0.07,0.08-0.1,0.12c-0.03,0.04-0.07,0.08-0.1,0.12c-0.03,0.04-0.07,0.08-0.1,0.12
		c-0.03,0.04-0.07,0.08-0.1,0.12c-0.03,0.04-0.07,0.08-0.1,0.12c-0.03,0.04-0.07,0.08-0.1,0.12c-0.03,0.04-0.07,0.08-0.1,0.12
		c-0.03,0.04-0.07,0.08-0.1,0.12c-0.03,0.04-0.07,0.08-0.1,0.12c-0.03,0.04-0.07,0.08-0.1,0.12c-0.03,0.04-0.07,0.08-0.1,0.12
		c-0.03,0.04-0.07,0.08-0.1,0.12c-0.03,0.04-0.07,0.08-0.1,0.12c-0.03,0.04-0.07,0.08-0.1,0.12c-0.03,0.04-0.07,0.08-0.1,0.12
		c-0.03,0.04-0.07,0.08-0.1,0.12c-0.03,0.04-0.07,0.08-0.1,0.12c-0.03,0.04-0.07,0.08-0.1,0.12c-0.03,0.04-0.07,0.08-0.1,0.12
		c-0.03,0.04-0.07,0.08-0.1,0.12c-0.03,0.04-0.07,0.08-0.1,0.12c-0.03,0.04-0.07,0.08-0.1,0.12c-0.03,0.04-0.07,0.08-0.1,0.12
		c-0.03,0.04-0.07,0.08-0.1,0.12c-0.03,0.04-0.07,0.08-0.1,0.12c-0.03,0.04-0.07,0.08-0.1,0.12c-0.03,0.04-0.07,0.08-0.1,0.12
		c-0.03,0.04-0.07,0.08-0.1,0.12c-0.03,0.04-0.07,0.08-0.1,0.12c-0.03,0.04-0.07,0.08-0.1,0.12c-0.03,0.04-0.07,0.08-0.1,0.12
		c-0.03,0.04-0.07,0.08-0.1,0.12c-0.03,0.04-0.07,0.08-0.1,0.12c-0.03,0.04-0.07,0.08-0.1,0.12c-0.03,0.04-0.07,0.08-0.1,0.12
		c-0.03,0.04-0.07,0.08-0.1,0.12c-0.03,0.04-0.07,0.08-0.1,0.12c-0.03,0.04-0.07,0.08-0.1,0.12c-0.03,0.04-0.07,0.08-0.1,0.12
		c-0.32,0.45-0.55,0.95-0.66,1.53c-0.21,1.06-0.01,2.05,0.59,2.94c0.61,0.92,1.44,1.48,2.5,1.69c1.06,0.21,2.04,0.01,2.96-0.6
		c0.45-0.3,0.82-0.66,1.1-1.08c0.03-0.04,0.07-0.08,0.1-0.12C419.53,39.69,419.57,39.66,419.6,39.61z"/>
	<path d="M120.14,56.37c0.03-0.04,0.07-0.08,0.1-0.12c0.03-0.04,0.07-0.08,0.1-0.12c0.03-0.04,0.07-0.08,0.1-0.12
		c0.03-0.04,0.07-0.08,0.1-0.12c0.03-0.04,0.07-0.08,0.1-0.12c0.03-0.04,0.07-0.08,0.1-0.12c0.03-0.04,0.07-0.08,0.1-0.12
		c0.03-0.04,0.07-0.08,0.1-0.12c0.03-0.04,0.07-0.08,0.1-0.12c0.03-0.04,0.07-0.08,0.1-0.12c0.03-0.04,0.07-0.08,0.1-0.12
		c0.03-0.04,0.07-0.08,0.1-0.12c0.03-0.04,0.07-0.08,0.1-0.12c0.03-0.04,0.07-0.08,0.1-0.12c0.03-0.04,0.07-0.08,0.1-0.12
		c0.03-0.04,0.07-0.08,0.1-0.12c0.03-0.04,0.07-0.08,0.1-0.12c0.03-0.04,0.07-0.08,0.1-0.12c0.03-0.04,0.07-0.08,0.1-0.12
		c0.03-0.04,0.07-0.08,0.1-0.12c0.03-0.04,0.07-0.08,0.1-0.12c0.03-0.04,0.07-0.08,0.1-0.12c0.03-0.04,0.07-0.08,0.1-0.12
		c0.03-0.04,0.07-0.08,0.1-0.12c0.03-0.04,0.07-0.08,0.1-0.12c0.03-0.04,0.07-0.08,0.1-0.12c0.03-0.04,0.07-0.08,0.1-0.12
		c0.03-0.04,0.07-0.08,0.1-0.12c0.03-0.04,0.07-0.08,0.1-0.12c0.03-0.04,0.07-0.08,0.1-0.12c0.03-0.04,0.07-0.08,0.1-0.12
		c0.03-0.04,0.07-0.08,0.1-0.12c0.03-0.04,0.07-0.08,0.1-0.12c0.03-0.04,0.07-0.08,0.1-0.12c0.03-0.04,0.07-0.08,0.1-0.12
		c0.03-0.04,0.07-0.08,0.1-0.12c0.03-0.04,0.07-0.08,0.1-0.12c0.03-0.04,0.07-0.08,0.1-0.12c0.03-0.04,0.07-0.08,0.1-0.12
		c0.03-0.04,0.07-0.08,0.1-0.12c0.03-0.04,0.07-0.08,0.1-0.12c0.03-0.04,0.07-0.08,0.1-0.12c0.03-0.04,0.07-0.08,0.1-0.12
		c0.03-0.04,0.07-0.08,0.1-0.12c0.03-0.04,0.07-0.08,0.1-0.12c0.03-0.04,0.07-0.08,0.1-0.12c0.04-0.06,0.08-0.11,0.12-0.17
		c0.44-0.62,0.62-1.47,0.53-2.55c-0.42-3.21-0.78-5.64-1.08-7.29l-2.39-15.59c-0.61-3.29-1.25-7.06-1.92-11.31
		c-0.67-4.25-1.31-8.02-1.92-11.31c-0.38-2.08-1.6-2.93-3.66-2.55c-1.03,0.19-1.75,0.6-2.16,1.23c-0.03,0.04-0.07,0.08-0.1,0.12
		c-0.03,0.04-0.07,0.08-0.1,0.12c-0.03,0.04-0.07,0.08-0.1,0.12c-0.03,0.04-0.07,0.08-0.1,0.12c-0.03,0.04-0.07,0.08-0.1,0.12
		c-0.03,0.04-0.07,0.08-0.1,0.12c-0.03,0.04-0.07,0.08-0.1,0.12c-0.03,0.04-0.07,0.08-0.1,0.12c-0.03,0.04-0.07,0.08-0.1,0.12
		c-0.03,0.04-0.07,0.08-0.1,0.12c-0.03,0.04-0.07,0.08-0.1,0.12c-0.03,0.04-0.07,0.08-0.1,0.12c-0.03,0.04-0.07,0.08-0.1,0.12
		c-0.03,0.04-0.07,0.08-0.1,0.12c-0.03,0.04-0.07,0.08-0.1,0.12c-0.03,0.04-0.07,0.08-0.1,0.12c-0.03,0.04-0.07,0.08-0.1,0.12
		c-0.03,0.04-0.07,0.08-0.1,0.12c-0.03,0.04-0.07,0.08-0.1,0.12c-0.03,0.04-0.07,0.08-0.1,0.12c-0.03,0.04-0.07,0.08-0.1,0.12
		c-0.03,0.04-0.07,0.08-0.1,0.12c-0.03,0.04-0.07,0.08-0.1,0.12c-0.03,0.04-0.07,0.08-0.1,0.12c-0.03,0.04-0.07,0.08-0.1,0.12
		c-0.03,0.04-0.07,0.08-0.1,0.12c-0.03,0.04-0.07,0.08-0.1,0.12c-0.03,0.04-0.07,0.08-0.1,0.12c-0.03,0.04-0.07,0.08-0.1,0.12
		c-0.03,0.04-0.07,0.08-0.1,0.12c-0.03,0.04-0.07,0.08-0.1,0.12c-0.03,0.04-0.07,0.08-0.1,0.12c-0.03,0.04-0.07,0.08-0.1,0.12
		c-0.03,0.04-0.07,0.08-0.1,0.12c-0.03,0.04-0.07,0.08-0.1,0.12c-0.03,0.04-0.07,0.08-0.1,0.12c-0.03,0.04-0.07,0.08-0.1,0.12
		c-0.03,0.04-0.07,0.08-0.1,0.12c-0.03,0.04-0.07,0.08-0.1,0.12c-0.03,0.04-0.07,0.08-0.1,0.12c-0.03,0.04-0.07,0.08-0.1,0.12
		c-0.03,0.04-0.07,0.08-0.1,0.12c-0.03,0.04-0.07,0.08-0.1,0.12c-0.03,0.04-0.07,0.08-0.1,0.12c-0.03,0.04-0.07,0.08-0.1,0.12
		c-0.03,0.04-0.07,0.08-0.1,0.12c-0.03,0.04-0.07,0.08-0.1,0.12c-0.03,0.04-0.07,0.08-0.1,0.12c-0.03,0.04-0.07,0.08-0.1,0.12
		c-0.03,0.04-0.07,0.08-0.1,0.12c-0.47,0.62-0.62,1.48-0.42,2.58c0.61,3.29,1.24,7.06,1.92,11.31c0.67,4.25,1.31,8.02,1.92,11.31
		c0.46,2.52,1.04,6.32,1.74,11.41c0.7,5.09,1.28,8.89,1.74,11.41c0.39,2.12,1.6,3,3.64,2.62c0.75-0.14,1.32-0.43,1.73-0.86
		c0.15-0.13,0.28-0.29,0.39-0.45c0.03-0.04,0.07-0.08,0.1-0.12C120.08,56.44,120.11,56.41,120.14,56.37z"/>
	<path d="M64.72,69.47c0.17-0.42,0.29-0.88,0.31-1.41c-0.15-5.24-0.37-9.19-0.66-11.84l-1.3-24.74l-0.84-5.85L61.91,22
		c-0.14-1.88-0.29-2.98-0.44-3.3c-0.91-1.91-2.32-2.41-4.25-1.49c-0.56,0.27-1.01,0.65-1.33,1.14c-0.03,0.04-0.07,0.08-0.1,0.12
		c-0.03,0.04-0.07,0.08-0.1,0.12c-0.03,0.04-0.07,0.08-0.1,0.12c-0.03,0.04-0.07,0.08-0.1,0.12c-0.03,0.04-0.07,0.08-0.1,0.12
		c-0.03,0.04-0.07,0.08-0.1,0.12c-0.03,0.04-0.07,0.08-0.1,0.12c-0.03,0.04-0.07,0.08-0.1,0.12c-0.03,0.04-0.07,0.08-0.1,0.12
		c-0.03,0.04-0.07,0.08-0.1,0.12c-0.03,0.04-0.07,0.08-0.1,0.12c-0.03,0.04-0.07,0.08-0.1,0.12c-0.03,0.04-0.07,0.08-0.1,0.12
		c-0.03,0.04-0.07,0.08-0.1,0.12c-0.03,0.04-0.07,0.08-0.1,0.12c-0.03,0.04-0.07,0.08-0.1,0.12c-0.03,0.04-0.07,0.08-0.1,0.12
		c-0.03,0.04-0.07,0.08-0.1,0.12c-0.03,0.04-0.07,0.08-0.1,0.12c-0.03,0.04-0.07,0.08-0.1,0.12c-0.03,0.04-0.07,0.08-0.1,0.12
		c-0.03,0.04-0.07,0.08-0.1,0.12c-0.03,0.04-0.07,0.08-0.1,0.12c-0.03,0.04-0.07,0.08-0.1,0.12c-0.03,0.04-0.07,0.08-0.1,0.12
		c-0.03,0.04-0.07,0.08-0.1,0.12c-0.03,0.04-0.07,0.08-0.1,0.12c-0.03,0.04-0.07,0.08-0.1,0.12c-0.03,0.04-0.07,0.08-0.1,0.12
		c-0.03,0.04-0.07,0.08-0.1,0.12c-0.03,0.04-0.07,0.08-0.1,0.12c-0.03,0.04-0.07,0.08-0.1,0.12c-0.03,0.04-0.07,0.08-0.1,0.12
		c-0.03,0.04-0.07,0.08-0.1,0.12c-0.03,0.04-0.07,0.08-0.1,0.12c-0.03,0.04-0.07,0.08-0.1,0.12c-0.03,0.04-0.07,0.08-0.1,0.12
		c-0.03,0.04-0.07,0.08-0.1,0.12c-0.03,0.04-0.07,0.08-0.1,0.12c-0.03,0.04-0.07,0.08-0.1,0.12c-0.03,0.04-0.07,0.08-0.1,0.12
		c-0.03,0.04-0.07,0.08-0.1,0.12c-0.03,0.04-0.07,0.08-0.1,0.12c-0.03,0.04-0.07,0.08-0.1,0.12c-0.03,0.04-0.07,0.08-0.1,0.12
		c-0.03,0.04-0.07,0.08-0.1,0.12c-0.03,0.04-0.07,0.08-0.1,0.12c-0.03,0.04-0.07,0.08-0.1,0.12c-0.03,0.04-0.07,0.08-0.1,0.12
		c-0.03,0.04-0.07,0.08-0.1,0.12c-0.36,0.49-0.6,1.1-0.71,1.83c-0.21,1.62-0.07,3.68,0.44,6.18c0.7,3.39,1.07,5.42,1.14,6.1
		c0.54,5.9,0.99,11.21,1.36,15.97l-2.05-2.65c-3-3.96-5.44-7.42-7.3-10.37c-3.64-5.86-6.2-9.44-7.67-10.76
		c-1.2-1.09-2.47-1.32-3.8-0.69c-0.41,0.19-0.75,0.52-1.04,0.98c-0.03,0.04-0.07,0.07-0.1,0.12c-0.03,0.04-0.07,0.07-0.1,0.12
		c-0.03,0.04-0.07,0.07-0.1,0.12c-0.03,0.04-0.07,0.07-0.1,0.12c-0.03,0.04-0.07,0.07-0.1,0.12c-0.03,0.04-0.07,0.07-0.1,0.12
		c-0.03,0.04-0.07,0.07-0.1,0.12c-0.03,0.04-0.07,0.07-0.1,0.12c-0.03,0.04-0.07,0.07-0.1,0.12c-0.03,0.04-0.07,0.07-0.1,0.12
		c-0.03,0.04-0.07,0.07-0.1,0.12c-0.03,0.04-0.07,0.07-0.1,0.12c-0.03,0.04-0.07,0.07-0.1,0.12c-0.03,0.04-0.07,0.07-0.1,0.12
		c-0.03,0.04-0.07,0.07-0.1,0.12c-0.03,0.04-0.07,0.07-0.1,0.12c-0.03,0.04-0.07,0.07-0.1,0.12c-0.03,0.04-0.07,0.07-0.1,0.12
		c-0.03,0.04-0.07,0.07-0.1,0.12c-0.03,0.04-0.07,0.07-0.1,0.12c-0.03,0.04-0.07,0.07-0.1,0.12c-0.03,0.04-0.07,0.07-0.1,0.12
		c-0.03,0.04-0.07,0.07-0.1,0.12c-0.03,0.04-0.07,0.07-0.1,0.12c-0.03,0.04-0.07,0.07-0.1,0.12c-0.03,0.04-0.07,0.07-0.1,0.12
		c-0.03,0.04-0.07,0.07-0.1,0.12c-0.03,0.04-0.07,0.07-0.1,0.12c-0.03,0.04-0.07,0.07-0.1,0.12c-0.03,0.04-0.07,0.07-0.1,0.12
		c-0.03,0.04-0.07,0.07-0.1,0.12c-0.03,0.04-0.07,0.07-0.1,0.12c-0.03,0.04-0.07,0.07-0.1,0.12c-0.03,0.04-0.07,0.07-0.1,0.12
		c-0.03,0.04-0.07,0.07-0.1,0.12c-0.03,0.04-0.07,0.07-0.1,0.12c-0.03,0.04-0.07,0.07-0.1,0.12c-0.03,0.04-0.07,0.07-0.1,0.12
		c-0.03,0.04-0.07,0.07-0.1,0.12c-0.03,0.04-0.07,0.07-0.1,0.12c-0.03,0.04-0.07,0.07-0.1,0.12c-0.03,0.04-0.07,0.07-0.1,0.12
		c-0.03,0.04-0.07,0.07-0.1,0.12c-0.03,0.04-0.07,0.07-0.1,0.12c-0.03,0.04-0.07,0.07-0.1,0.12c-0.03,0.04-0.07,0.07-0.1,0.12
		c-0.03,0.04-0.07,0.07-0.1,0.12c-0.03,0.04-0.07,0.07-0.1,0.12c-0.03,0.04-0.07,0.07-0.1,0.12c-0.03,0.04-0.07,0.07-0.1,0.12
		c-0.93,1.34-1.29,3.95-1.07,7.85c0.11,1.91,0.53,5.24,1.25,9.97c0.33,2.15,0.62,4.22,0.88,6.22l-2.68-3.46
		c-3.44-4.34-6.54-7.97-9.31-10.9c-2.6-2.77-4.24-4.42-4.91-4.94C9.52,40.62,8.24,40.39,7,40.98c-0.77,0.37-1.33,0.8-1.68,1.29
		c-0.03,0.04-0.07,0.08-0.1,0.12c-0.03,0.04-0.07,0.08-0.1,0.12c-0.03,0.04-0.07,0.08-0.1,0.12c-0.03,0.04-0.07,0.08-0.1,0.12
		c-0.03,0.04-0.07,0.08-0.1,0.12c-0.03,0.04-0.07,0.08-0.1,0.12c-0.03,0.04-0.07,0.08-0.1,0.12c-0.03,0.04-0.07,0.08-0.1,0.12
		c-0.03,0.04-0.07,0.08-0.1,0.12c-0.03,0.04-0.07,0.08-0.1,0.12c-0.03,0.04-0.07,0.08-0.1,0.12c-0.03,0.04-0.07,0.08-0.1,0.12
		c-0.03,0.04-0.07,0.08-0.1,0.12c-0.03,0.04-0.07,0.08-0.1,0.12c-0.03,0.04-0.07,0.08-0.1,0.12c-0.03,0.04-0.07,0.08-0.1,0.12
		c-0.03,0.04-0.07,0.08-0.1,0.12c-0.03,0.04-0.07,0.08-0.1,0.12c-0.03,0.04-0.07,0.08-0.1,0.12c-0.03,0.04-0.07,0.08-0.1,0.12
		c-0.03,0.04-0.07,0.08-0.1,0.12c-0.03,0.04-0.07,0.08-0.1,0.12c-0.03,0.04-0.07,0.08-0.1,0.12c-0.03,0.04-0.07,0.08-0.1,0.12
		c-0.03,0.04-0.07,0.08-0.1,0.12c-0.03,0.04-0.07,0.08-0.1,0.12c-0.03,0.04-0.07,0.08-0.1,0.12c-0.03,0.04-0.07,0.08-0.1,0.12
		c-0.03,0.04-0.07,0.08-0.1,0.12c-0.03,0.04-0.07,0.08-0.1,0.12c-0.03,0.04-0.07,0.08-0.1,0.12c-0.03,0.04-0.07,0.08-0.1,0.12
		c-0.03,0.04-0.07,0.08-0.1,0.12c-0.03,0.04-0.07,0.08-0.1,0.12c-0.03,0.04-0.07,0.08-0.1,0.12c-0.03,0.04-0.07,0.08-0.1,0.12
		c-0.03,0.04-0.07,0.08-0.1,0.12c-0.03,0.04-0.07,0.08-0.1,0.12c-0.03,0.04-0.07,0.08-0.1,0.12c-0.03,0.04-0.07,0.08-0.1,0.12
		c-0.03,0.04-0.07,0.08-0.1,0.12c-0.03,0.04-0.07,0.08-0.1,0.12c-0.03,0.04-0.07,0.08-0.1,0.12c-0.03,0.04-0.07,0.08-0.1,0.12
		c-0.03,0.04-0.07,0.08-0.1,0.12c-0.03,0.04-0.07,0.08-0.1,0.12c-0.03,0.04-0.07,0.08-0.1,0.12c-0.03,0.04-0.07,0.08-0.1,0.12
		c-0.03,0.04-0.07,0.08-0.1,0.12c-0.03,0.04-0.07,0.08-0.1,0.12c-0.65,0.8-0.7,1.78-0.16,2.93c0.16,0.34,0.41,0.7,0.74,1.05
		c7.2,7.43,12.54,13.21,16.03,17.36l9.79,12.57l2.62,3.22c1.1,2.31,2.93,2.86,5.51,1.63c0.68-0.32,1.23-0.78,1.65-1.35
		c0.03-0.04,0.06-0.07,0.08-0.11c0.03-0.04,0.07-0.08,0.1-0.12c0.03-0.04,0.07-0.08,0.1-0.12c0.03-0.04,0.07-0.08,0.1-0.12
		c0.03-0.04,0.07-0.08,0.1-0.12c0.03-0.04,0.07-0.08,0.1-0.12c0.03-0.04,0.07-0.08,0.1-0.12c0.03-0.04,0.07-0.08,0.1-0.12
		c0.03-0.04,0.07-0.08,0.1-0.12c0.03-0.04,0.07-0.08,0.1-0.12c0.03-0.04,0.07-0.08,0.1-0.12c0.03-0.04,0.07-0.08,0.1-0.12
		c0.03-0.04,0.07-0.08,0.1-0.12c0.03-0.04,0.07-0.08,0.1-0.12c0.03-0.04,0.07-0.08,0.1-0.12c0.03-0.04,0.07-0.08,0.1-0.12
		c0.03-0.04,0.07-0.08,0.1-0.12c0.03-0.04,0.07-0.08,0.1-0.12c0.03-0.04,0.07-0.08,0.1-0.12c0.03-0.04,0.07-0.08,0.1-0.12
		c0.03-0.04,0.07-0.08,0.1-0.12c0.03-0.04,0.07-0.08,0.1-0.12c0.03-0.04,0.07-0.08,0.1-0.12c0.03-0.04,0.07-0.08,0.1-0.12
		c0.03-0.04,0.07-0.08,0.1-0.12c0.03-0.04,0.07-0.08,0.1-0.12c0.03-0.04,0.07-0.08,0.1-0.12c0.03-0.04,0.07-0.08,0.1-0.12
		c0.03-0.04,0.07-0.08,0.1-0.12c0.03-0.04,0.07-0.08,0.1-0.12c0.03-0.04,0.07-0.08,0.1-0.12c0.03-0.04,0.07-0.08,0.1-0.12
		c0.03-0.04,0.07-0.08,0.1-0.12c0.03-0.04,0.07-0.08,0.1-0.12c0.03-0.04,0.07-0.08,0.1-0.12c0.03-0.04,0.07-0.08,0.1-0.12
		c0.03-0.04,0.07-0.08,0.1-0.12c0.03-0.04,0.07-0.08,0.1-0.12c0.03-0.04,0.07-0.08,0.1-0.12c0.03-0.04,0.07-0.08,0.1-0.12
		c0.03-0.04,0.07-0.08,0.1-0.12c0.03-0.04,0.07-0.08,0.1-0.12c0.03-0.04,0.07-0.08,0.1-0.12c0.03-0.04,0.07-0.08,0.1-0.12
		c0.03-0.04,0.07-0.08,0.1-0.12c0.03-0.04,0.07-0.08,0.1-0.12c0.03-0.04,0.07-0.08,0.1-0.12c0.03-0.04,0.07-0.08,0.1-0.12
		c0.03-0.04,0.07-0.08,0.1-0.12c0.03-0.04,0.06-0.07,0.09-0.1c0.17-0.21,0.32-0.44,0.46-0.68c0.5-0.92,0.55-1.81,0.14-2.67
		c-0.2-0.42-0.52-0.8-0.96-1.13c-0.69-3.18-1.11-7.84-1.25-13.98c-0.02-0.75-0.05-1.52-0.09-2.31c0.3,0.41,0.6,0.82,0.91,1.25
		c4.5,6.18,7.21,9.94,8.12,11.28c0.92,1.34,2.37,2.96,4.34,4.86c0.4,0.84,1.12,1.37,2.15,1.58c0.9,0.18,1.8,0.06,2.68-0.36
		c0.4-0.19,0.73-0.43,1.02-0.7c0.17-0.14,0.32-0.3,0.45-0.46c0.03-0.04,0.06-0.08,0.1-0.12c0.03-0.04,0.06-0.08,0.1-0.12
		c0.03-0.04,0.06-0.08,0.1-0.12c0.03-0.04,0.06-0.08,0.1-0.12c0.03-0.04,0.06-0.08,0.1-0.12c0.03-0.04,0.06-0.08,0.1-0.12
		c0.03-0.04,0.06-0.08,0.1-0.12c0.03-0.04,0.06-0.08,0.1-0.12c0.03-0.04,0.06-0.08,0.1-0.12c0.03-0.04,0.06-0.08,0.1-0.12
		c0.03-0.04,0.06-0.08,0.1-0.12c0.03-0.04,0.06-0.08,0.1-0.12c0.03-0.04,0.06-0.08,0.1-0.12c0.03-0.04,0.06-0.08,0.1-0.12
		c0.03-0.04,0.06-0.08,0.1-0.12c0.03-0.04,0.06-0.08,0.1-0.12c0.03-0.04,0.06-0.08,0.1-0.12c0.03-0.04,0.06-0.08,0.1-0.12
		c0.03-0.04,0.06-0.08,0.1-0.12c0.03-0.04,0.06-0.08,0.1-0.12c0.03-0.04,0.06-0.08,0.1-0.12c0.03-0.04,0.06-0.08,0.1-0.12
		c0.03-0.04,0.06-0.08,0.1-0.12c0.03-0.04,0.06-0.08,0.1-0.12c0.03-0.04,0.06-0.08,0.1-0.12c0.03-0.04,0.06-0.08,0.1-0.12
		c0.03-0.04,0.06-0.08,0.1-0.12c0.03-0.04,0.06-0.08,0.1-0.12c0.03-0.04,0.06-0.08,0.1-0.12c0.03-0.04,0.06-0.08,0.1-0.12
		c0.03-0.04,0.06-0.08,0.1-0.12c0.03-0.04,0.06-0.08,0.1-0.12c0.03-0.04,0.06-0.08,0.1-0.12c0.03-0.04,0.06-0.08,0.1-0.12
		c0.03-0.04,0.06-0.08,0.1-0.12c0.03-0.04,0.06-0.08,0.1-0.12c0.03-0.04,0.06-0.08,0.1-0.12c0.03-0.04,0.06-0.08,0.1-0.12
		c0.03-0.04,0.06-0.08,0.1-0.12c0.03-0.04,0.06-0.08,0.1-0.12c0.03-0.04,0.06-0.08,0.1-0.12c0.03-0.04,0.06-0.08,0.1-0.12
		c0.03-0.04,0.06-0.08,0.1-0.12c0.03-0.04,0.06-0.08,0.1-0.12c0.03-0.04,0.06-0.08,0.1-0.12c0.03-0.04,0.06-0.08,0.1-0.12
		c0.03-0.04,0.06-0.08,0.1-0.12c0.03-0.04,0.06-0.08,0.1-0.12c0.14-0.16,0.27-0.33,0.38-0.52c0.01-0.02,0.03-0.05,0.04-0.07
		C64.56,69.88,64.65,69.68,64.72,69.47z"/>
	<path d="M157.5,38.59c-0.27,0.03-0.71,0.24-1.31,0.63l-3.48,2.3c-1.37,0.81-2.69,1.27-3.95,1.39c-2.78,0.26-5.12-0.27-7.03-1.6
		c-2.05-1.42-3.2-3.53-3.46-6.3c-0.24-2.57,0.43-5.7,2.02-9.4c0,0,0,0,0-0.01c0.32-0.12,0.63-0.21,0.96-0.24
		c2.82-0.26,4.9,0.04,6.24,0.91c0.45,0.32,0.93,0.64,1.41,0.97c0.49,0.33,1.04,0.46,1.65,0.4c0.78-0.07,1.4-0.44,1.87-1.12
		c0.01-0.01,0.01-0.02,0.01-0.02c0.03-0.03,0.06-0.06,0.08-0.1c0.01-0.01,0.01-0.02,0.01-0.02c0.03-0.03,0.06-0.06,0.08-0.1
		c0.01-0.01,0.01-0.02,0.01-0.02c0.03-0.03,0.06-0.06,0.08-0.1c0.01-0.01,0.01-0.02,0.01-0.02c0.03-0.03,0.06-0.06,0.08-0.1
		c0.01-0.01,0.01-0.02,0.01-0.02c0.03-0.03,0.06-0.06,0.08-0.1c0.01-0.01,0.01-0.02,0.01-0.02c0.03-0.03,0.06-0.06,0.08-0.1
		c0.01-0.01,0.01-0.02,0.01-0.02c0.03-0.03,0.06-0.06,0.08-0.1c0.01-0.01,0.01-0.02,0.01-0.02c0.03-0.03,0.06-0.06,0.08-0.1
		c0.01-0.01,0.01-0.02,0.01-0.02c0.03-0.03,0.06-0.06,0.08-0.1c0.01-0.01,0.01-0.02,0.01-0.02c0.03-0.03,0.06-0.06,0.08-0.1
		c0.01-0.01,0.01-0.02,0.01-0.02c0.03-0.03,0.06-0.06,0.08-0.1c0.01-0.01,0.01-0.02,0.01-0.02c0.03-0.03,0.06-0.06,0.08-0.1
		c0.01-0.01,0.01-0.02,0.01-0.02c0.03-0.03,0.06-0.06,0.08-0.1c0.01-0.01,0.01-0.02,0.01-0.02c0.03-0.03,0.06-0.06,0.08-0.1
		c0.01-0.01,0.01-0.02,0.01-0.02c0.03-0.03,0.06-0.06,0.08-0.1c0.01-0.01,0.01-0.02,0.01-0.02c0.03-0.03,0.06-0.06,0.08-0.1
		c0.01-0.01,0.01-0.02,0.01-0.02c0.03-0.03,0.06-0.06,0.08-0.1c0.01-0.01,0.01-0.02,0.01-0.02c0.03-0.03,0.06-0.06,0.08-0.1
		c0.01-0.01,0.01-0.02,0.01-0.02c0.03-0.03,0.06-0.06,0.08-0.1c0.01-0.01,0.01-0.02,0.01-0.02c0.03-0.03,0.06-0.06,0.08-0.1
		c0.01-0.01,0.01-0.02,0.01-0.02c0.03-0.03,0.06-0.06,0.08-0.1c0.01-0.01,0.01-0.02,0.01-0.02c0.03-0.03,0.06-0.06,0.08-0.1
		c0.01-0.01,0.01-0.02,0.01-0.02c0.03-0.03,0.06-0.06,0.08-0.1c0.01-0.01,0.01-0.02,0.01-0.02c0.03-0.03,0.06-0.06,0.08-0.1
		c0.01-0.01,0.01-0.02,0.01-0.02c0.03-0.03,0.06-0.06,0.08-0.1c0.01-0.01,0.01-0.02,0.01-0.02c0.03-0.03,0.06-0.06,0.08-0.1
		c0.01-0.01,0.01-0.02,0.01-0.02c0.03-0.03,0.06-0.06,0.08-0.1c0.01-0.01,0.01-0.02,0.01-0.02c0.03-0.03,0.06-0.06,0.08-0.1
		c0.01-0.01,0.01-0.02,0.01-0.02c0.03-0.03,0.06-0.06,0.08-0.1c0.01-0.01,0.01-0.02,0.01-0.02c0.03-0.03,0.06-0.06,0.08-0.1
		c0.01-0.01,0.01-0.02,0.01-0.02c0.03-0.03,0.06-0.06,0.08-0.1c0.01-0.01,0.01-0.02,0.01-0.02c0.03-0.03,0.06-0.06,0.08-0.1
		c0.01-0.01,0.01-0.02,0.01-0.02c0.03-0.03,0.06-0.06,0.08-0.1c0.01-0.01,0.01-0.02,0.01-0.02c0.03-0.03,0.06-0.06,0.08-0.1
		c0.01-0.01,0.01-0.02,0.01-0.02c0.03-0.03,0.06-0.06,0.08-0.1c0.01-0.01,0.01-0.02,0.01-0.02c0.03-0.03,0.06-0.06,0.08-0.1
		c0.01-0.01,0.01-0.02,0.01-0.02c0.03-0.03,0.06-0.06,0.08-0.1c0.01-0.01,0.01-0.02,0.01-0.02c0.03-0.03,0.06-0.06,0.08-0.1
		c0.01-0.01,0.01-0.02,0.01-0.02c0.03-0.03,0.06-0.06,0.08-0.1c0.01-0.01,0.01-0.02,0.01-0.02c0.03-0.03,0.06-0.06,0.08-0.1
		c0.01-0.01,0.01-0.02,0.01-0.02c0.03-0.03,0.06-0.06,0.08-0.1c0.01-0.01,0.01-0.02,0.01-0.02c0.03-0.03,0.06-0.06,0.08-0.1
		c0.01-0.01,0.01-0.02,0.01-0.02c0.03-0.03,0.06-0.06,0.08-0.1c0.01-0.01,0.01-0.02,0.01-0.02c0.03-0.03,0.06-0.06,0.08-0.1
		c0.01-0.01,0.01-0.02,0.01-0.02c0.03-0.03,0.06-0.06,0.08-0.1c0.01-0.01,0.01-0.02,0.01-0.02c0.03-0.03,0.06-0.06,0.08-0.1
		c0.01-0.01,0.01-0.02,0.01-0.02c0.03-0.03,0.06-0.06,0.08-0.1c0.01-0.01,0.01-0.02,0.01-0.02c0.03-0.03,0.06-0.06,0.08-0.1
		c0.01-0.01,0.01-0.02,0.01-0.02c0.03-0.03,0.06-0.06,0.08-0.1c0.01-0.01,0.01-0.02,0.01-0.02c0.03-0.03,0.06-0.06,0.08-0.1
		c0.01-0.01,0.01-0.02,0.01-0.02c0.03-0.03,0.06-0.06,0.08-0.1c0.47-0.67,0.66-1.41,0.59-2.21c-0.17-1.79-1.92-3.16-5.26-4.1
		c-2.64-0.73-4.99-1-7.05-0.81c-2.97,0.28-5.59,1.96-7.84,5.05c-0.03,0.04-0.06,0.08-0.1,0.12c-0.03,0.04-0.06,0.08-0.1,0.12
		c-0.03,0.04-0.06,0.08-0.1,0.12c-0.03,0.04-0.06,0.08-0.1,0.12c-0.03,0.04-0.06,0.08-0.1,0.12c-0.03,0.04-0.06,0.08-0.1,0.12
		c-0.03,0.04-0.06,0.08-0.1,0.12c-0.03,0.04-0.06,0.08-0.1,0.12c-0.03,0.04-0.06,0.08-0.1,0.12c-0.03,0.04-0.06,0.08-0.1,0.12
		c-0.03,0.04-0.06,0.08-0.1,0.12c-0.03,0.04-0.06,0.08-0.1,0.12c-0.03,0.04-0.06,0.08-0.1,0.12c-0.03,0.04-0.06,0.08-0.1,0.12
		c-0.03,0.04-0.06,0.08-0.1,0.12c-0.03,0.04-0.06,0.08-0.1,0.12c-0.03,0.04-0.06,0.08-0.1,0.12c-0.03,0.04-0.06,0.08-0.1,0.12
		c-0.03,0.04-0.06,0.08-0.1,0.12c-0.03,0.04-0.06,0.08-0.1,0.12c-0.03,0.04-0.06,0.08-0.1,0.12c-0.03,0.04-0.06,0.08-0.1,0.12
		c-0.03,0.04-0.06,0.08-0.1,0.12c-0.03,0.04-0.06,0.08-0.1,0.12c-0.03,0.04-0.06,0.08-0.1,0.12c-0.03,0.04-0.06,0.08-0.1,0.12
		c-0.03,0.04-0.06,0.08-0.1,0.12c-0.03,0.04-0.06,0.08-0.1,0.12c-0.03,0.04-0.06,0.08-0.1,0.12c-0.03,0.04-0.06,0.08-0.1,0.12
		c-0.03,0.04-0.06,0.08-0.1,0.12c-0.03,0.04-0.06,0.08-0.1,0.12c-0.03,0.04-0.06,0.08-0.1,0.12c-0.03,0.04-0.06,0.08-0.1,0.12
		c-0.03,0.04-0.06,0.08-0.1,0.12c-0.03,0.04-0.06,0.08-0.1,0.12c-0.03,0.04-0.06,0.08-0.1,0.12c-0.03,0.04-0.06,0.08-0.1,0.12
		c-0.03,0.04-0.06,0.08-0.1,0.12c-0.03,0.04-0.06,0.08-0.1,0.12c-0.03,0.04-0.06,0.08-0.1,0.12c-0.03,0.04-0.06,0.08-0.1,0.12
		c-0.03,0.04-0.06,0.08-0.1,0.12c-0.03,0.04-0.06,0.08-0.1,0.12c-0.03,0.04-0.06,0.08-0.1,0.12c-0.03,0.04-0.06,0.08-0.1,0.12
		c-0.03,0.04-0.06,0.08-0.1,0.12c-0.03,0.04-0.06,0.08-0.1,0.12c-0.03,0.04-0.06,0.08-0.1,0.12c-0.03,0.04-0.06,0.08-0.1,0.12
		c-0.78,1.05-1.53,2.27-2.22,3.65c-2.42,4.82-3.43,9.36-3.03,13.63c0.42,4.49,2.27,7.96,5.56,10.41c3.13,2.34,6.85,3.31,11.17,2.91
		c1.87-0.18,4.17-1.03,6.9-2.56c1.63-0.91,2.8-1.79,3.53-2.64c0.04-0.04,0.06-0.08,0.1-0.12c0.04-0.04,0.06-0.08,0.1-0.12
		c0.04-0.04,0.06-0.08,0.1-0.12c0.04-0.04,0.06-0.08,0.1-0.12c0.04-0.04,0.06-0.08,0.1-0.12c0.04-0.04,0.06-0.08,0.1-0.12
		c0.04-0.04,0.06-0.08,0.1-0.12c0.04-0.04,0.06-0.08,0.1-0.12c0.04-0.04,0.06-0.08,0.1-0.12c0.04-0.04,0.06-0.08,0.1-0.12
		c0.04-0.04,0.06-0.08,0.1-0.12c0.04-0.04,0.06-0.08,0.1-0.12c0.04-0.04,0.06-0.08,0.1-0.12c0.04-0.04,0.06-0.08,0.1-0.12
		c0.04-0.04,0.06-0.08,0.1-0.12c0.04-0.04,0.06-0.08,0.1-0.12c0.04-0.04,0.06-0.08,0.1-0.12c0.04-0.04,0.06-0.08,0.1-0.12
		c0.04-0.04,0.06-0.08,0.1-0.12c0.04-0.04,0.06-0.08,0.1-0.12c0.04-0.04,0.06-0.08,0.1-0.12c0.04-0.04,0.06-0.08,0.1-0.12
		c0.04-0.04,0.06-0.08,0.1-0.12c0.04-0.04,0.06-0.08,0.1-0.12c0.04-0.04,0.06-0.08,0.1-0.12c0.04-0.04,0.06-0.08,0.1-0.12
		c0.04-0.04,0.06-0.08,0.1-0.12c0.04-0.04,0.06-0.08,0.1-0.12c0.04-0.04,0.06-0.08,0.1-0.12c0.04-0.04,0.06-0.08,0.1-0.12
		c0.04-0.04,0.06-0.08,0.1-0.12c0.04-0.04,0.06-0.08,0.1-0.12c0.04-0.04,0.06-0.08,0.1-0.12c0.04-0.04,0.06-0.08,0.1-0.12
		c0.04-0.04,0.06-0.08,0.1-0.12c0.04-0.04,0.06-0.08,0.1-0.12c0.04-0.04,0.06-0.08,0.1-0.12c0.04-0.04,0.06-0.08,0.1-0.12
		c0.04-0.04,0.06-0.08,0.1-0.12c0.04-0.04,0.06-0.08,0.1-0.12c0.04-0.04,0.06-0.08,0.1-0.12c0.04-0.04,0.06-0.08,0.1-0.12
		c0.04-0.04,0.06-0.08,0.1-0.12c0.04-0.04,0.06-0.08,0.1-0.12c0.04-0.04,0.06-0.08,0.1-0.12c0.04-0.04,0.06-0.08,0.1-0.12
		c0.04-0.04,0.06-0.08,0.1-0.12c0.04-0.04,0.06-0.08,0.1-0.12c0.04-0.04,0.06-0.08,0.1-0.12c0.04-0.04,0.06-0.08,0.1-0.12
		c0.75-0.82,1.08-1.62,1.01-2.39c-0.08-0.8-0.43-1.48-1.05-2.05C158.98,38.76,158.28,38.52,157.5,38.59z"/>
	<path d="M181.88,13.11c-5.29-0.14-9.47,1.9-12.54,6.12c0,0-0.01,0.01-0.01,0.01c-0.03,0.04-0.06,0.07-0.09,0.1
		c0,0-0.01,0.01-0.01,0.01c-0.03,0.04-0.06,0.07-0.09,0.11c0,0-0.01,0.01-0.01,0.01c-0.03,0.04-0.06,0.07-0.09,0.1
		c0,0-0.01,0.01-0.01,0.01c-0.03,0.04-0.06,0.07-0.09,0.11c0,0-0.01,0.01-0.01,0.01c-0.03,0.04-0.06,0.07-0.09,0.11
		c0,0-0.01,0.01-0.01,0.01c-0.03,0.04-0.06,0.07-0.09,0.11c0,0-0.01,0.01-0.01,0.02c-0.03,0.04-0.06,0.07-0.09,0.1
		c0,0-0.01,0.01-0.01,0.01c-0.03,0.04-0.06,0.07-0.09,0.11c0,0-0.01,0.01-0.01,0.01c-0.03,0.04-0.06,0.07-0.09,0.11
		c0,0-0.01,0.01-0.01,0.01c-0.03,0.04-0.06,0.07-0.09,0.11c0,0-0.01,0.01-0.01,0.02c-0.03,0.04-0.06,0.07-0.09,0.1
		c0,0-0.01,0.01-0.01,0.01c-0.03,0.04-0.06,0.07-0.09,0.11c0,0-0.01,0.01-0.01,0.01c-0.03,0.04-0.06,0.07-0.09,0.11
		c0,0-0.01,0.01-0.01,0.02c-0.03,0.04-0.06,0.07-0.09,0.1c0,0-0.01,0.01-0.01,0.01c-0.03,0.04-0.06,0.07-0.09,0.11
		c0,0-0.01,0.01-0.01,0.01c-0.03,0.04-0.06,0.07-0.09,0.11c0,0-0.01,0.01-0.01,0.01c-0.03,0.04-0.06,0.07-0.09,0.11
		c0,0-0.01,0.01-0.01,0.02c-0.03,0.04-0.06,0.07-0.09,0.1c0,0-0.01,0.01-0.01,0.01c-0.03,0.04-0.06,0.07-0.09,0.11
		c0,0-0.01,0.01-0.01,0.01c-0.03,0.04-0.06,0.07-0.09,0.11c0,0-0.01,0.01-0.01,0.02c-0.03,0.04-0.06,0.07-0.09,0.1
		c0,0-0.01,0.01-0.01,0.01c-0.03,0.04-0.06,0.07-0.09,0.11c0,0-0.01,0.01-0.01,0.01c-0.03,0.04-0.06,0.07-0.09,0.11
		c0,0-0.01,0.01-0.01,0.01c-0.03,0.04-0.06,0.07-0.09,0.11c0,0-0.01,0.01-0.01,0.02c-0.03,0.04-0.06,0.07-0.09,0.1
		c0,0-0.01,0.01-0.01,0.01c-0.03,0.04-0.06,0.07-0.09,0.11c0,0-0.01,0.01-0.01,0.01c-0.03,0.04-0.06,0.07-0.09,0.11
		c0,0-0.01,0.01-0.01,0.01c-0.03,0.04-0.06,0.07-0.09,0.11c0,0-0.01,0.01-0.01,0.01c-0.03,0.04-0.06,0.07-0.09,0.1
		c0,0-0.01,0.01-0.01,0.01c-0.03,0.04-0.06,0.07-0.09,0.11c0,0-0.01,0.01-0.01,0.01c-0.03,0.04-0.06,0.07-0.09,0.11
		c0,0-0.01,0.01-0.01,0.01c-0.03,0.04-0.06,0.07-0.09,0.1c0,0-0.01,0.01-0.01,0.01c-0.03,0.04-0.06,0.07-0.09,0.11
		c0,0-0.01,0.01-0.01,0.01c-0.03,0.04-0.06,0.07-0.09,0.11c0,0-0.01,0.01-0.01,0.01c-0.03,0.04-0.06,0.07-0.09,0.11
		c0,0-0.01,0.01-0.01,0.01c-0.03,0.04-0.06,0.07-0.09,0.1c0,0-0.01,0.01-0.01,0.01c-0.03,0.04-0.06,0.07-0.09,0.11
		c0,0-0.01,0.01-0.01,0.01c-0.03,0.04-0.06,0.07-0.09,0.11c0,0-0.01,0.01-0.01,0.01c-0.03,0.04-0.06,0.07-0.09,0.11
		c0,0-0.01,0.01-0.01,0.01c-0.03,0.04-0.06,0.07-0.09,0.1c0,0-0.01,0.01-0.01,0.01c-0.03,0.04-0.06,0.07-0.09,0.11
		c0,0-0.01,0.01-0.01,0.01c-0.03,0.04-0.06,0.07-0.09,0.11c0,0-0.01,0.01-0.01,0.01c-0.03,0.04-0.06,0.07-0.09,0.1
		c0,0-0.01,0.01-0.01,0.01c-0.03,0.04-0.06,0.07-0.09,0.11c0,0-0.01,0.01-0.01,0.01c-0.03,0.04-0.06,0.07-0.09,0.11
		c0,0-0.01,0.01-0.01,0.01c-0.03,0.04-0.06,0.07-0.09,0.11c0,0-0.01,0.01-0.01,0.01c-0.03,0.04-0.06,0.07-0.09,0.1
		c0,0-0.01,0.01-0.01,0.01c-0.03,0.04-0.06,0.07-0.09,0.11c0,0-0.01,0.01-0.01,0.01c-0.03,0.04-0.06,0.07-0.09,0.11
		c0,0-0.01,0.01-0.01,0.01c-0.03,0.04-0.06,0.07-0.09,0.11c0,0-0.01,0.01-0.01,0.01c-0.03,0.04-0.06,0.07-0.09,0.11
		c-2.63,3.57-3.95,7.75-3.94,12.53c0.02,4.93,1.42,8.89,4.2,11.88c2.49,2.69,5.51,4.08,9.06,4.17c4.46,0.12,8.09-1.67,10.9-5.37
		c0.01-0.01,0.02-0.02,0.02-0.03c0.02-0.03,0.05-0.05,0.07-0.08c0.01-0.01,0.02-0.02,0.02-0.03c0.02-0.03,0.05-0.05,0.07-0.09
		c0.01-0.01,0.02-0.02,0.02-0.03c0.02-0.03,0.05-0.05,0.07-0.09c0.01-0.01,0.02-0.02,0.02-0.03c0.02-0.03,0.05-0.05,0.07-0.09
		c0.01-0.01,0.02-0.02,0.02-0.03c0.02-0.03,0.05-0.05,0.07-0.08c0.01-0.01,0.02-0.02,0.02-0.03c0.02-0.03,0.05-0.05,0.07-0.09
		c0.01-0.01,0.02-0.02,0.02-0.03c0.02-0.03,0.05-0.05,0.07-0.09c0.01-0.01,0.02-0.02,0.02-0.03c0.02-0.03,0.05-0.05,0.07-0.09
		c0.01-0.01,0.02-0.02,0.02-0.03c0.02-0.03,0.05-0.05,0.07-0.08c0.01-0.01,0.02-0.02,0.02-0.03c0.02-0.03,0.05-0.05,0.07-0.09
		c0.01-0.01,0.02-0.02,0.02-0.03c0.02-0.03,0.05-0.05,0.07-0.09c0.01-0.01,0.02-0.02,0.02-0.03c0.02-0.03,0.05-0.05,0.07-0.08
		c0.01-0.01,0.02-0.02,0.02-0.03c0.02-0.03,0.05-0.05,0.07-0.09c0.01-0.01,0.02-0.02,0.02-0.03c0.02-0.03,0.05-0.05,0.07-0.09
		c0.01-0.01,0.02-0.02,0.02-0.03c0.02-0.03,0.05-0.05,0.07-0.09c0.01-0.01,0.02-0.02,0.02-0.03c0.02-0.03,0.05-0.05,0.07-0.08
		c0.01-0.01,0.02-0.02,0.02-0.03c0.02-0.03,0.05-0.05,0.07-0.09c0.01-0.01,0.02-0.02,0.02-0.03c0.02-0.03,0.05-0.05,0.07-0.09
		c0.01-0.01,0.02-0.02,0.02-0.03c0.02-0.03,0.05-0.05,0.07-0.09c0.01-0.01,0.02-0.02,0.02-0.03c0.02-0.03,0.05-0.05,0.07-0.08
		c0.01-0.01,0.02-0.02,0.02-0.03c0.02-0.03,0.05-0.05,0.07-0.09c0.01-0.01,0.02-0.02,0.02-0.03c0.02-0.03,0.05-0.05,0.07-0.09
		c0.01-0.01,0.02-0.02,0.02-0.03c0.02-0.03,0.05-0.05,0.07-0.08c0.01-0.01,0.02-0.02,0.02-0.03c0.02-0.03,0.05-0.05,0.07-0.09
		c0.01-0.01,0.02-0.02,0.02-0.03c0.02-0.03,0.05-0.05,0.07-0.09c0.01-0.01,0.02-0.02,0.02-0.03c0.02-0.03,0.05-0.06,0.07-0.09
		c0.01-0.01,0.02-0.02,0.02-0.03c0.02-0.03,0.05-0.05,0.07-0.08c0.01-0.01,0.02-0.02,0.02-0.03c0.02-0.03,0.05-0.05,0.07-0.09
		c0.01-0.01,0.02-0.02,0.02-0.03c0.02-0.03,0.05-0.05,0.07-0.09c0.01-0.01,0.02-0.02,0.02-0.03c0.02-0.03,0.05-0.05,0.07-0.09
		c0.01-0.01,0.02-0.02,0.02-0.03c0.02-0.03,0.05-0.05,0.07-0.08c0.01-0.01,0.02-0.02,0.02-0.03c0.02-0.03,0.05-0.05,0.07-0.09
		c0.01-0.01,0.02-0.02,0.02-0.03c0.02-0.03,0.05-0.05,0.07-0.09c0.01-0.01,0.02-0.02,0.02-0.03c0.02-0.03,0.05-0.05,0.07-0.08
		c0.01-0.01,0.02-0.02,0.02-0.03c0.02-0.03,0.05-0.05,0.07-0.09c0.01-0.01,0.02-0.02,0.02-0.03c0.02-0.03,0.05-0.05,0.07-0.09
		c0.01-0.01,0.02-0.02,0.02-0.03c0.02-0.03,0.05-0.05,0.07-0.09c0.01-0.01,0.02-0.02,0.02-0.03c0.02-0.03,0.05-0.05,0.07-0.08
		c0.01-0.01,0.02-0.02,0.02-0.03c0.02-0.03,0.05-0.05,0.07-0.09c0.01-0.01,0.02-0.02,0.02-0.03c0.02-0.03,0.05-0.05,0.07-0.09
		c0.01-0.01,0.02-0.02,0.02-0.03c0.02-0.03,0.05-0.05,0.07-0.08c0.01-0.01,0.02-0.02,0.02-0.03c0.02-0.03,0.05-0.05,0.07-0.09
		c0.01-0.01,0.02-0.02,0.02-0.03c0.02-0.03,0.05-0.05,0.07-0.09c0.01-0.01,0.02-0.02,0.02-0.03c0.02-0.03,0.05-0.05,0.07-0.09
		c0.01-0.01,0.02-0.02,0.02-0.03c0.02-0.03,0.05-0.05,0.07-0.08c0.01-0.01,0.02-0.02,0.02-0.03c0.02-0.03,0.05-0.05,0.07-0.09
		c0.01-0.01,0.02-0.02,0.02-0.03c0.02-0.03,0.05-0.05,0.07-0.09c0.01-0.01,0.02-0.02,0.02-0.03c0.02-0.03,0.05-0.05,0.07-0.09
		c0.01-0.01,0.02-0.02,0.02-0.03c0.02-0.03,0.05-0.05,0.07-0.08c0.01-0.01,0.02-0.02,0.02-0.03c0.02-0.03,0.05-0.05,0.07-0.09
		c0.01-0.01,0.02-0.02,0.02-0.03c0.02-0.03,0.05-0.05,0.07-0.09c2.48-3.26,3.81-7.23,3.99-11.92c0.18-4.4-0.56-8.18-2.21-11.36
		C189.27,15.24,186.11,13.22,181.88,13.11z M178.83,41.4c-1.88-0.05-3.5-0.8-4.86-2.25c-1.63-1.76-2.4-4.17-2.32-7.23
		c0.05-1.99,0.42-3.82,1.04-5.51c1.12-0.55,2.36-0.81,3.73-0.77c4.71,0.14,6.82,4.3,6.31,12.48c-0.06,0.92-0.2,1.78-0.41,2.58
		C181.25,41.19,180.09,41.43,178.83,41.4z"/>
	<path d="M237.16,19.24c-2.05-0.34-3.92-0.26-5.64,0.24c-1.71,0.5-3.27,1.41-4.67,2.74c-0.69-3.46-2.67-5.46-5.95-6.01
		c-1.48-0.25-3.43,0.36-5.83,1.81c-1.85,1.12-3.42,2.42-4.71,3.89c-0.03,0.04-0.06,0.08-0.1,0.12c-0.03,0.04-0.06,0.08-0.1,0.12
		c-0.03,0.04-0.06,0.08-0.1,0.12c-0.03,0.04-0.06,0.08-0.1,0.12c-0.03,0.04-0.06,0.08-0.1,0.12c-0.03,0.04-0.06,0.08-0.1,0.12
		c-0.03,0.04-0.06,0.08-0.1,0.12c-0.03,0.04-0.06,0.08-0.1,0.12c-0.03,0.04-0.06,0.08-0.1,0.12c-0.03,0.04-0.06,0.08-0.1,0.12
		c-0.03,0.04-0.06,0.08-0.1,0.12c-0.01,0.01-0.02,0.03-0.03,0.04l0.48-3.29c0.07-0.44,0.23-1.07,0.47-1.88
		c0.24-0.82,0.4-1.42,0.46-1.82c0.14-0.83-0.07-1.66-0.63-2.49c-0.56-0.82-1.25-1.3-2.06-1.44c-1.07-0.18-1.97,0.29-2.7,1.39
		c-0.03,0.04-0.07,0.07-0.1,0.12c-0.03,0.04-0.07,0.07-0.1,0.12c-0.03,0.04-0.07,0.07-0.1,0.12c-0.03,0.04-0.07,0.07-0.1,0.12
		c-0.03,0.04-0.07,0.07-0.1,0.12c-0.03,0.04-0.07,0.07-0.1,0.12c-0.03,0.04-0.07,0.07-0.1,0.12c-0.03,0.04-0.07,0.07-0.1,0.12
		c-0.03,0.04-0.07,0.07-0.1,0.12c-0.03,0.04-0.07,0.07-0.1,0.12c-0.03,0.04-0.07,0.07-0.1,0.12c-0.03,0.04-0.07,0.07-0.1,0.12
		c-0.03,0.04-0.07,0.07-0.1,0.12c-0.03,0.04-0.07,0.07-0.1,0.12c-0.03,0.04-0.07,0.07-0.1,0.12c-0.03,0.04-0.07,0.07-0.1,0.12
		c-0.03,0.04-0.07,0.07-0.1,0.12c-0.03,0.04-0.07,0.07-0.1,0.12c-0.03,0.04-0.07,0.07-0.1,0.12c-0.03,0.04-0.07,0.07-0.1,0.12
		c-0.03,0.04-0.07,0.07-0.1,0.12c-0.03,0.04-0.07,0.07-0.1,0.12c-0.03,0.04-0.07,0.07-0.1,0.12c-0.03,0.04-0.07,0.07-0.1,0.12
		c-0.03,0.04-0.07,0.07-0.1,0.12c-0.03,0.04-0.07,0.07-0.1,0.12c-0.03,0.04-0.07,0.07-0.1,0.12c-0.03,0.04-0.07,0.07-0.1,0.12
		c-0.03,0.04-0.07,0.07-0.1,0.12c-0.03,0.04-0.07,0.07-0.1,0.12c-0.03,0.04-0.07,0.07-0.1,0.12c-0.03,0.04-0.07,0.07-0.1,0.12
		c-0.03,0.04-0.07,0.07-0.1,0.12c-0.03,0.04-0.07,0.07-0.1,0.12c-0.03,0.04-0.07,0.07-0.1,0.12c-0.03,0.04-0.07,0.07-0.1,0.12
		c-0.03,0.04-0.07,0.07-0.1,0.12c-0.03,0.04-0.07,0.07-0.1,0.12c-0.03,0.04-0.07,0.07-0.1,0.12c-0.03,0.04-0.07,0.07-0.1,0.12
		c-0.03,0.04-0.07,0.07-0.1,0.12c-0.03,0.04-0.07,0.07-0.1,0.12c-0.03,0.04-0.07,0.07-0.1,0.12c-0.03,0.04-0.07,0.07-0.1,0.12
		c-0.03,0.04-0.07,0.07-0.1,0.12c-0.03,0.04-0.07,0.07-0.1,0.12c-0.03,0.04-0.07,0.07-0.1,0.12c-0.03,0.04-0.07,0.07-0.1,0.12
		c-0.03,0.04-0.07,0.07-0.1,0.12c-0.03,0.04-0.07,0.07-0.1,0.12c-0.77,1.09-1.37,2.84-1.77,5.3c-0.19,1.13-0.37,2.81-0.54,5.06
		c-0.17,2.24-0.35,3.92-0.53,5.03c-0.21,1.25-0.63,3.1-1.28,5.54c-0.64,2.44-1.07,4.29-1.28,5.54c-0.89,5.36-0.16,8.24,2.2,8.63
		c0.86,0.14,1.65-0.03,2.38-0.5c0.37-0.24,0.66-0.53,0.88-0.87c0.03-0.04,0.07-0.08,0.1-0.12c0.03-0.04,0.07-0.08,0.1-0.12
		c0.03-0.04,0.07-0.08,0.1-0.12c0.03-0.04,0.07-0.08,0.1-0.12c0.03-0.04,0.07-0.08,0.1-0.12c0.03-0.04,0.07-0.08,0.1-0.12
		c0.03-0.04,0.07-0.08,0.1-0.12c0.03-0.04,0.07-0.08,0.1-0.12c0.03-0.04,0.07-0.08,0.1-0.12c0.03-0.04,0.07-0.08,0.1-0.12
		c0.03-0.04,0.07-0.08,0.1-0.12c0.03-0.04,0.07-0.08,0.1-0.12c0.03-0.04,0.07-0.08,0.1-0.12c0.03-0.04,0.07-0.08,0.1-0.12
		c0.03-0.04,0.07-0.08,0.1-0.12c0.03-0.04,0.07-0.08,0.1-0.12c0.03-0.04,0.07-0.08,0.1-0.12c0.03-0.04,0.07-0.08,0.1-0.12
		c0.03-0.04,0.07-0.08,0.1-0.12c0.03-0.04,0.07-0.08,0.1-0.12c0.03-0.04,0.07-0.08,0.1-0.12c0.03-0.04,0.07-0.08,0.1-0.12
		c0.03-0.04,0.07-0.08,0.1-0.12c0.03-0.04,0.07-0.08,0.1-0.12c0.03-0.04,0.07-0.08,0.1-0.12c0.03-0.04,0.07-0.08,0.1-0.12
		c0.03-0.04,0.07-0.08,0.1-0.12c0.03-0.04,0.07-0.08,0.1-0.12c0.03-0.04,0.07-0.08,0.1-0.12c0.03-0.04,0.07-0.08,0.1-0.12
		c0.03-0.04,0.07-0.08,0.1-0.12c0.03-0.04,0.07-0.08,0.1-0.12c0.03-0.04,0.07-0.08,0.1-0.12c0.03-0.04,0.07-0.08,0.1-0.12
		c0.03-0.04,0.07-0.08,0.1-0.12c0.03-0.04,0.07-0.08,0.1-0.12c0.03-0.04,0.07-0.08,0.1-0.12c0.03-0.04,0.07-0.08,0.1-0.12
		c0.03-0.04,0.07-0.08,0.1-0.12c0.03-0.04,0.07-0.08,0.1-0.12c0.03-0.04,0.07-0.08,0.1-0.12c0.03-0.04,0.07-0.08,0.1-0.12
		c0.03-0.04,0.07-0.08,0.1-0.12c0.03-0.04,0.07-0.08,0.1-0.12c0.03-0.04,0.07-0.08,0.1-0.12c0.03-0.04,0.07-0.08,0.1-0.12
		c0.03-0.04,0.07-0.08,0.1-0.12c0.03-0.04,0.07-0.08,0.1-0.12c0.03-0.04,0.07-0.08,0.1-0.12c0.03-0.04,0.07-0.08,0.1-0.12
		c0.26-0.36,0.45-0.77,0.53-1.25c0.08-0.5,0.12-1.33,0.11-2.49c-0.01-1.16,0.04-2.05,0.14-2.68c0.19-1.17,0.61-2.95,1.25-5.36
		c0.31-1.15,0.56-2.17,0.77-3.06l1.92-1.54c1.75-1.25,3.41-2.09,4.99-2.51c0.42,1.34,0.45,3.11,0.08,5.32
		c-0.42,2.52-0.79,6.3-1.1,11.32c-0.31,5.02-0.68,8.79-1.1,11.32c-0.15,0.92,0.01,1.72,0.48,2.41c0.47,0.69,1.16,1.11,2.06,1.26
		c0.9,0.15,1.68-0.03,2.36-0.52c0.2-0.15,0.37-0.32,0.53-0.51c0.03-0.04,0.06-0.08,0.1-0.12c0.03-0.04,0.06-0.08,0.1-0.12
		c0.03-0.04,0.06-0.08,0.1-0.12c0.03-0.04,0.06-0.08,0.1-0.12c0.03-0.04,0.06-0.08,0.1-0.12c0.03-0.04,0.06-0.08,0.1-0.12
		c0.03-0.04,0.06-0.08,0.1-0.12c0.03-0.04,0.06-0.08,0.1-0.12c0.03-0.04,0.06-0.08,0.1-0.12c0.03-0.04,0.06-0.08,0.1-0.12
		c0.03-0.04,0.06-0.08,0.1-0.12c0.03-0.04,0.06-0.08,0.1-0.12c0.03-0.04,0.06-0.08,0.1-0.12c0.03-0.04,0.06-0.08,0.1-0.12
		c0.03-0.04,0.06-0.08,0.1-0.12c0.03-0.04,0.06-0.08,0.1-0.12c0.03-0.04,0.06-0.08,0.1-0.12c0.03-0.04,0.06-0.08,0.1-0.12
		c0.03-0.04,0.06-0.08,0.1-0.12c0.03-0.04,0.06-0.08,0.1-0.12c0.03-0.04,0.06-0.08,0.1-0.12c0.03-0.04,0.06-0.08,0.1-0.12
		c0.03-0.04,0.06-0.08,0.1-0.12c0.03-0.04,0.06-0.08,0.1-0.12c0.03-0.04,0.06-0.08,0.1-0.12c0.03-0.04,0.06-0.08,0.1-0.12
		c0.03-0.04,0.06-0.08,0.1-0.12c0.03-0.04,0.06-0.08,0.1-0.12c0.03-0.04,0.06-0.08,0.1-0.12c0.03-0.04,0.06-0.08,0.1-0.12
		c0.03-0.04,0.06-0.08,0.1-0.12c0.03-0.04,0.06-0.08,0.1-0.12c0.03-0.04,0.06-0.08,0.1-0.12c0.03-0.04,0.06-0.08,0.1-0.12
		c0.03-0.04,0.06-0.08,0.1-0.12c0.03-0.04,0.06-0.08,0.1-0.12c0.03-0.04,0.06-0.08,0.1-0.12c0.03-0.04,0.06-0.08,0.1-0.12
		c0.03-0.04,0.06-0.08,0.1-0.12c0.03-0.04,0.06-0.08,0.1-0.12c0.03-0.04,0.06-0.08,0.1-0.12c0.03-0.04,0.06-0.08,0.1-0.12
		c0.03-0.04,0.06-0.08,0.1-0.12c0.03-0.04,0.06-0.08,0.1-0.12c0.03-0.04,0.06-0.08,0.1-0.12c0.03-0.04,0.06-0.08,0.1-0.12
		c0.03-0.04,0.06-0.08,0.1-0.12c0.03-0.04,0.06-0.08,0.1-0.12c0.03-0.04,0.06-0.08,0.1-0.12c0.03-0.04,0.06-0.08,0.1-0.12
		c0.42-0.46,0.69-1.03,0.81-1.74c0.36-2.15,0.61-4.9,0.77-8.27l0.45-8.51c0.07-0.67,0.16-1.34,0.24-2.01
		c0.05-0.02,0.08-0.03,0.13-0.05c2.33-0.96,3.88-1.38,4.65-1.25c0.83,0.14,1.45,1.21,1.85,3.2c0.27,1.46,0.39,2.93,0.36,4.4
		l-0.55,9.88c-0.32,4.24-0.48,7.53-0.49,9.89c-0.01,1.86,0.84,2.94,2.55,3.22c0.9,0.15,1.71-0.02,2.43-0.5
		c0.23-0.15,0.41-0.32,0.57-0.51c0.04-0.04,0.06-0.08,0.1-0.12c0.04-0.04,0.06-0.08,0.1-0.12c0.04-0.04,0.06-0.08,0.1-0.12
		c0.04-0.04,0.06-0.08,0.1-0.12c0.04-0.04,0.06-0.08,0.1-0.12c0.04-0.04,0.06-0.08,0.1-0.12c0.04-0.04,0.06-0.08,0.1-0.12
		c0.04-0.04,0.06-0.08,0.1-0.12c0.04-0.04,0.06-0.08,0.1-0.12c0.04-0.04,0.06-0.08,0.1-0.12c0.04-0.04,0.06-0.08,0.1-0.12
		c0.04-0.04,0.06-0.08,0.1-0.12c0.04-0.04,0.06-0.08,0.1-0.12c0.04-0.04,0.06-0.08,0.1-0.12c0.04-0.04,0.06-0.08,0.1-0.12
		c0.04-0.04,0.06-0.08,0.1-0.12c0.04-0.04,0.06-0.08,0.1-0.12c0.04-0.04,0.06-0.08,0.1-0.12c0.04-0.04,0.06-0.08,0.1-0.12
		c0.04-0.04,0.06-0.08,0.1-0.12c0.04-0.04,0.06-0.08,0.1-0.12c0.04-0.04,0.06-0.08,0.1-0.12c0.04-0.04,0.06-0.08,0.1-0.12
		c0.04-0.04,0.06-0.08,0.1-0.12c0.04-0.04,0.06-0.08,0.1-0.12c0.04-0.04,0.06-0.08,0.1-0.12c0.04-0.04,0.06-0.08,0.1-0.12
		c0.04-0.04,0.06-0.08,0.1-0.12c0.04-0.04,0.06-0.08,0.1-0.12c0.04-0.04,0.06-0.08,0.1-0.12c0.04-0.04,0.06-0.08,0.1-0.12
		c0.04-0.04,0.06-0.08,0.1-0.12c0.04-0.04,0.06-0.08,0.1-0.12c0.04-0.04,0.06-0.08,0.1-0.12c0.04-0.04,0.06-0.08,0.1-0.12
		c0.04-0.04,0.06-0.08,0.1-0.12c0.04-0.04,0.06-0.08,0.1-0.12c0.04-0.04,0.06-0.08,0.1-0.12c0.04-0.04,0.06-0.08,0.1-0.12
		c0.04-0.04,0.06-0.08,0.1-0.12c0.04-0.04,0.06-0.08,0.1-0.12c0.04-0.04,0.06-0.08,0.1-0.12c0.04-0.04,0.06-0.08,0.1-0.12
		c0.04-0.04,0.06-0.08,0.1-0.12c0.04-0.04,0.06-0.08,0.1-0.12c0.04-0.04,0.06-0.08,0.1-0.12c0.04-0.04,0.06-0.08,0.1-0.12
		c0.04-0.04,0.06-0.08,0.1-0.12c0.04-0.04,0.06-0.08,0.1-0.12c0.04-0.04,0.06-0.08,0.1-0.12c0.42-0.43,0.67-0.96,0.72-1.6
		c0.47-8.52,0.72-14.62,0.73-18.31c0.25-5.21,0.31-8.22,0.18-9.01C242.71,22.09,240.65,19.82,237.16,19.24z"/>
	<path d="M278.69,48.48c-0.82-0.09-1.65,0.38-2.5,1.42c-0.84,1.04-2.55,1.76-5.11,2.17c-2.02,0.32-3.75,0.4-5.2,0.23
		c-2.33-0.27-4.33-0.95-5.98-2.03c-0.43-0.28-0.83-0.59-1.22-0.93l5.09-1.73c3.59-1.2,5.95-2.12,7.09-2.76
		c1.31-0.74,2.32-1.56,3.03-2.47c0.03-0.04,0.06-0.08,0.1-0.12c0.03-0.04,0.06-0.08,0.1-0.12c0.03-0.04,0.06-0.08,0.1-0.12
		c0.03-0.04,0.06-0.08,0.1-0.12c0.03-0.04,0.06-0.08,0.1-0.12c0.03-0.04,0.06-0.08,0.1-0.12c0.03-0.04,0.06-0.08,0.1-0.12
		c0.03-0.04,0.06-0.08,0.1-0.12c0.03-0.04,0.06-0.08,0.1-0.12c0.03-0.04,0.06-0.08,0.1-0.12c0.03-0.04,0.06-0.08,0.1-0.12
		c0.03-0.04,0.06-0.08,0.1-0.12c0.03-0.04,0.06-0.08,0.1-0.12c0.03-0.04,0.06-0.08,0.1-0.12c0.03-0.04,0.06-0.08,0.1-0.12
		c0.03-0.04,0.06-0.08,0.1-0.12c0.03-0.04,0.06-0.08,0.1-0.12c0.03-0.04,0.06-0.08,0.1-0.12c0.03-0.04,0.06-0.08,0.1-0.12
		c0.03-0.04,0.06-0.08,0.1-0.12c0.03-0.04,0.06-0.08,0.1-0.12c0.03-0.04,0.06-0.08,0.1-0.12c0.03-0.04,0.06-0.08,0.1-0.12
		c0.03-0.04,0.06-0.08,0.1-0.12c0.03-0.04,0.06-0.08,0.1-0.12c0.03-0.04,0.07-0.08,0.1-0.12c0.03-0.04,0.06-0.08,0.1-0.12
		c0.03-0.04,0.06-0.08,0.1-0.12c0.03-0.04,0.06-0.08,0.1-0.12c0.03-0.04,0.06-0.08,0.1-0.12c0.03-0.04,0.06-0.08,0.1-0.12
		c0.03-0.04,0.06-0.08,0.1-0.12c0.03-0.04,0.06-0.08,0.1-0.12c0.03-0.04,0.06-0.08,0.1-0.12c0.03-0.04,0.06-0.08,0.1-0.12
		c0.03-0.04,0.06-0.08,0.1-0.12c0.03-0.04,0.06-0.08,0.1-0.12c0.03-0.04,0.06-0.08,0.1-0.12c0.03-0.04,0.06-0.08,0.1-0.12
		c0.03-0.04,0.06-0.08,0.1-0.12c0.03-0.04,0.06-0.08,0.1-0.12c0.03-0.04,0.06-0.08,0.1-0.12c0.03-0.04,0.06-0.08,0.1-0.12
		c0.03-0.04,0.06-0.08,0.1-0.12c0.03-0.04,0.06-0.08,0.1-0.12c0.03-0.04,0.06-0.08,0.1-0.12c0.03-0.04,0.06-0.08,0.1-0.12
		c0.03-0.04,0.06-0.08,0.1-0.12c0.03-0.04,0.06-0.08,0.1-0.12c0.03-0.04,0.06-0.08,0.1-0.12c0.74-0.9,1.17-1.89,1.29-2.97
		c0.35-3-0.75-5.39-3.29-7.15c-2.07-1.43-4.85-2.35-8.34-2.75c-4.81-0.56-8.89,1.02-12.24,4.72c-0.39,0.43-0.76,0.88-1.11,1.35
		c-0.03,0.04-0.06,0.08-0.1,0.12c-0.03,0.04-0.07,0.08-0.1,0.12c-0.03,0.04-0.06,0.08-0.1,0.12c-0.03,0.04-0.06,0.08-0.1,0.12
		c-0.03,0.04-0.06,0.08-0.1,0.12c-0.03,0.04-0.07,0.08-0.1,0.12c-0.03,0.04-0.06,0.08-0.1,0.12c-0.03,0.04-0.06,0.08-0.1,0.12
		c-0.03,0.04-0.06,0.08-0.1,0.12c-0.03,0.04-0.07,0.08-0.1,0.12c-0.03,0.04-0.06,0.08-0.1,0.12c-0.03,0.04-0.06,0.08-0.1,0.12
		c-0.03,0.04-0.07,0.08-0.1,0.12c-0.03,0.04-0.06,0.08-0.1,0.12c-0.03,0.04-0.06,0.08-0.1,0.12c-0.03,0.04-0.06,0.08-0.1,0.12
		c-0.03,0.04-0.07,0.08-0.1,0.12c-0.03,0.04-0.06,0.08-0.1,0.12c-0.03,0.04-0.06,0.08-0.1,0.12c-0.03,0.04-0.07,0.08-0.1,0.12
		c-0.03,0.04-0.06,0.08-0.1,0.12c-0.03,0.04-0.06,0.08-0.1,0.12c-0.03,0.04-0.06,0.08-0.1,0.12c-0.03,0.04-0.07,0.08-0.1,0.12
		c-0.03,0.04-0.06,0.08-0.1,0.12c-0.03,0.04-0.07,0.08-0.1,0.12c-0.03,0.04-0.06,0.08-0.1,0.12c-0.03,0.04-0.07,0.08-0.1,0.12
		c-0.03,0.04-0.06,0.08-0.1,0.12c-0.03,0.04-0.06,0.08-0.1,0.12c-0.03,0.04-0.07,0.08-0.1,0.12c-0.03,0.04-0.06,0.08-0.1,0.12
		c-0.03,0.04-0.06,0.08-0.1,0.12c-0.03,0.04-0.06,0.08-0.1,0.12c-0.03,0.04-0.07,0.08-0.1,0.12c-0.03,0.04-0.06,0.08-0.1,0.12
		c-0.03,0.04-0.06,0.08-0.1,0.12c-0.03,0.04-0.06,0.08-0.1,0.12c-0.03,0.04-0.07,0.08-0.1,0.12c-0.03,0.04-0.06,0.08-0.1,0.12
		c-0.03,0.04-0.06,0.08-0.1,0.12c-0.03,0.04-0.07,0.08-0.1,0.12c-0.03,0.04-0.06,0.08-0.1,0.12c-0.03,0.04-0.06,0.08-0.1,0.12
		c-0.03,0.04-0.06,0.08-0.1,0.12c-0.03,0.04-0.07,0.08-0.1,0.12c-0.03,0.04-0.06,0.08-0.1,0.12c-0.03,0.04-0.06,0.08-0.1,0.12
		c-0.03,0.04-0.06,0.08-0.1,0.12c-0.03,0.04-0.07,0.08-0.1,0.12c-2.47,3.21-3.98,7.23-4.54,12.05c-0.55,4.73,0.63,8.59,3.55,11.59
		c2.67,2.72,6.37,4.35,11.12,4.9c3.05,0.35,6.26,0,9.64-1.06c2.53-0.8,4.3-1.82,5.32-3.06c0.03-0.04,0.06-0.08,0.1-0.12
		c0.03-0.04,0.06-0.08,0.1-0.12c0.03-0.04,0.06-0.08,0.1-0.12c0.03-0.04,0.06-0.08,0.1-0.12c0.03-0.04,0.06-0.08,0.1-0.12
		c0.03-0.04,0.06-0.08,0.1-0.12c0.03-0.04,0.06-0.08,0.1-0.12c0.03-0.04,0.06-0.08,0.1-0.12c0.03-0.04,0.06-0.08,0.1-0.12
		c0.03-0.04,0.06-0.08,0.1-0.12c0.03-0.04,0.06-0.08,0.1-0.12c0.03-0.04,0.06-0.08,0.1-0.12c0.03-0.04,0.06-0.08,0.1-0.12
		c0.03-0.04,0.06-0.08,0.1-0.12c0.03-0.04,0.06-0.08,0.1-0.12c0.03-0.04,0.06-0.08,0.1-0.12c0.03-0.04,0.06-0.08,0.1-0.12
		c0.03-0.04,0.06-0.08,0.1-0.12c0.03-0.04,0.06-0.08,0.1-0.12c0.03-0.04,0.06-0.08,0.1-0.12c0.03-0.04,0.06-0.08,0.1-0.12
		c0.03-0.04,0.06-0.08,0.1-0.12c0.03-0.04,0.06-0.08,0.1-0.12c0.03-0.04,0.06-0.08,0.1-0.12c0.03-0.04,0.06-0.08,0.1-0.12
		c0.03-0.04,0.06-0.08,0.1-0.12c0.03-0.04,0.06-0.08,0.1-0.12c0.03-0.04,0.06-0.08,0.1-0.12c0.03-0.04,0.06-0.08,0.1-0.12
		c0.03-0.04,0.06-0.08,0.1-0.12c0.03-0.04,0.06-0.08,0.1-0.12c0.03-0.04,0.06-0.08,0.1-0.12c0.03-0.04,0.06-0.08,0.1-0.12
		c0.03-0.04,0.06-0.08,0.1-0.12c0.03-0.04,0.06-0.08,0.1-0.12c0.03-0.04,0.06-0.08,0.1-0.12c0.03-0.04,0.06-0.08,0.1-0.12
		c0.03-0.04,0.06-0.08,0.1-0.12c0.03-0.04,0.06-0.08,0.1-0.12c0.03-0.04,0.06-0.08,0.1-0.12c0.03-0.04,0.06-0.08,0.1-0.12
		c0.03-0.04,0.06-0.08,0.1-0.12c0.03-0.04,0.06-0.08,0.1-0.12c0.03-0.04,0.06-0.08,0.1-0.12c0.03-0.04,0.06-0.08,0.1-0.12
		c0.03-0.04,0.06-0.08,0.1-0.12c0.03-0.04,0.06-0.08,0.1-0.12c0.03-0.04,0.06-0.08,0.1-0.12c0.03-0.04,0.06-0.08,0.1-0.12
		c0.03-0.04,0.06-0.08,0.1-0.12c0.64-0.73,1.01-1.54,1.12-2.43c0.08-0.74-0.13-1.42-0.64-2.04
		C280.05,48.92,279.43,48.56,278.69,48.48z M262.82,35.3c1.5,0.17,2.82,0.52,3.97,1.01c-0.16,0.06-0.31,0.11-0.47,0.17l-10.21,3.48
		c0.43-1.29,0.9-2.46,1.4-3.52C259.1,35.45,260.87,35.07,262.82,35.3z"/>
	<path d="M331.1,26.59c-0.68-0.21-2.12-0.31-4.32-0.29c-0.38,0-1.88,0.18-4.5,0.53l0.02-1.97l0.05-1.84
		c-0.01-1.1-0.04-2.04-0.11-2.82c-0.33-3.11-1.45-4.66-3.36-4.65c-0.89,0-1.64,0.3-2.25,0.88c-0.16,0.15-0.29,0.32-0.41,0.49
		c-0.03,0.04-0.07,0.08-0.1,0.12c-0.03,0.04-0.07,0.08-0.1,0.12c-0.03,0.04-0.07,0.08-0.1,0.12c-0.03,0.04-0.07,0.08-0.1,0.12
		c-0.03,0.04-0.07,0.08-0.1,0.12c-0.03,0.04-0.07,0.08-0.1,0.12c-0.03,0.04-0.07,0.08-0.1,0.12c-0.03,0.04-0.07,0.08-0.1,0.12
		c-0.03,0.04-0.07,0.08-0.1,0.12c-0.03,0.04-0.07,0.08-0.1,0.12c-0.03,0.04-0.07,0.08-0.1,0.12c-0.03,0.04-0.07,0.08-0.1,0.12
		c-0.03,0.04-0.07,0.08-0.1,0.12c-0.03,0.04-0.07,0.08-0.1,0.12c-0.03,0.04-0.07,0.08-0.1,0.12c-0.03,0.04-0.07,0.08-0.1,0.12
		c-0.03,0.04-0.07,0.08-0.1,0.12c-0.03,0.04-0.07,0.08-0.1,0.12c-0.03,0.04-0.07,0.08-0.1,0.12c-0.03,0.04-0.07,0.08-0.1,0.12
		c-0.03,0.04-0.07,0.08-0.1,0.12c-0.03,0.04-0.07,0.08-0.1,0.12c-0.03,0.04-0.07,0.08-0.1,0.12c-0.03,0.04-0.07,0.08-0.1,0.12
		c-0.03,0.04-0.07,0.08-0.1,0.12c-0.03,0.04-0.07,0.08-0.1,0.12c-0.03,0.04-0.07,0.08-0.1,0.12c-0.03,0.04-0.07,0.08-0.1,0.12
		c-0.03,0.04-0.07,0.08-0.1,0.12c-0.03,0.04-0.07,0.08-0.1,0.12c-0.03,0.04-0.07,0.08-0.1,0.12c-0.03,0.04-0.07,0.08-0.1,0.12
		c-0.03,0.04-0.07,0.08-0.1,0.12c-0.03,0.04-0.07,0.08-0.1,0.12c-0.03,0.04-0.07,0.08-0.1,0.12c-0.03,0.04-0.07,0.08-0.1,0.12
		c-0.03,0.04-0.07,0.08-0.1,0.12c-0.03,0.04-0.07,0.08-0.1,0.12c-0.03,0.04-0.07,0.08-0.1,0.12c-0.03,0.04-0.07,0.08-0.1,0.12
		c-0.03,0.04-0.07,0.08-0.1,0.12c-0.03,0.04-0.07,0.08-0.1,0.12c-0.03,0.04-0.07,0.08-0.1,0.12c-0.03,0.04-0.07,0.08-0.1,0.12
		c-0.03,0.04-0.07,0.08-0.1,0.12c-0.03,0.04-0.07,0.08-0.1,0.12c-0.03,0.04-0.07,0.08-0.1,0.12c-0.03,0.04-0.07,0.08-0.1,0.12
		c-0.03,0.04-0.07,0.08-0.1,0.12c-0.03,0.04-0.07,0.08-0.1,0.12c-0.39,0.52-0.6,1.13-0.59,1.84c0,0.43,0.02,1.03,0.05,1.75
		l-1.5-0.11c-0.89,0-1.62,0.32-2.18,0.93c-0.03,0.03-0.05,0.07-0.08,0.11c0,0.01-0.01,0.01-0.02,0.01
		c-0.03,0.03-0.05,0.07-0.08,0.11c-0.01,0.01-0.01,0.01-0.02,0.01c-0.03,0.03-0.05,0.07-0.08,0.11c0,0.01-0.01,0.01-0.02,0.01
		c-0.03,0.03-0.05,0.07-0.08,0.11c0,0.01-0.01,0.01-0.02,0.01c-0.03,0.03-0.05,0.07-0.08,0.11c-0.01,0.01-0.01,0.01-0.02,0.01
		c-0.03,0.03-0.05,0.07-0.08,0.11c-0.01,0.01-0.01,0.01-0.02,0.01c-0.03,0.03-0.05,0.07-0.08,0.11c0,0.01-0.01,0.01-0.02,0.01
		c-0.03,0.03-0.05,0.07-0.08,0.11c-0.01,0.01-0.01,0.01-0.02,0.01c-0.03,0.03-0.05,0.07-0.08,0.11c0,0.01-0.01,0.01-0.02,0.01
		c-0.03,0.03-0.05,0.07-0.08,0.11c-0.01,0.01-0.01,0.01-0.02,0.01c-0.03,0.03-0.05,0.07-0.08,0.11c0,0.01-0.01,0.01-0.02,0.01
		c-0.03,0.03-0.05,0.07-0.08,0.11c0,0.01-0.01,0.01-0.02,0.01c-0.03,0.03-0.05,0.07-0.08,0.11c-0.01,0.01-0.01,0.01-0.02,0.01
		c-0.03,0.03-0.05,0.07-0.08,0.11c0,0.01-0.01,0.01-0.02,0.01c-0.03,0.03-0.05,0.07-0.08,0.11c0,0.01-0.01,0.01-0.02,0.01
		c-0.03,0.03-0.05,0.07-0.08,0.11c-0.01,0.01-0.01,0.01-0.02,0.01c-0.03,0.03-0.05,0.07-0.08,0.11c0,0.01-0.01,0.01-0.02,0.01
		c-0.03,0.03-0.05,0.07-0.08,0.11c0,0.01-0.01,0.01-0.02,0.01c-0.03,0.03-0.05,0.07-0.08,0.11c-0.01,0.01-0.01,0.01-0.02,0.01
		c-0.03,0.03-0.05,0.07-0.08,0.11c0,0.01-0.01,0.01-0.02,0.01c-0.03,0.03-0.05,0.07-0.08,0.11c0,0.01-0.01,0.01-0.02,0.01
		c-0.03,0.03-0.05,0.07-0.08,0.11c0,0.01-0.01,0.01-0.02,0.01c-0.03,0.03-0.05,0.07-0.08,0.11c-0.01,0.01-0.01,0.01-0.02,0.01
		c-0.03,0.03-0.05,0.07-0.08,0.11c-0.01,0.01-0.01,0.01-0.02,0.01c-0.03,0.03-0.05,0.07-0.08,0.11c0,0.01-0.01,0.01-0.02,0.01
		c-0.03,0.03-0.05,0.07-0.08,0.11c-0.01,0.01-0.01,0.01-0.02,0.01c-0.03,0.03-0.05,0.07-0.08,0.11c-0.01,0.01-0.01,0.01-0.02,0.01
		c-0.03,0.03-0.05,0.07-0.08,0.11c-0.01,0.01-0.01,0.01-0.02,0.01c-0.03,0.03-0.05,0.07-0.08,0.11c0,0.01-0.01,0.01-0.02,0.01
		c-0.03,0.03-0.05,0.07-0.08,0.11c-0.01,0.01-0.01,0.01-0.02,0.01c-0.03,0.03-0.05,0.07-0.08,0.11c-0.01,0.01-0.01,0.01-0.02,0.01
		c-0.03,0.03-0.05,0.07-0.08,0.11c0,0.01-0.01,0.01-0.02,0.01c-0.03,0.03-0.05,0.07-0.08,0.11c-0.01,0.01-0.01,0.01-0.02,0.01
		c-0.03,0.03-0.05,0.07-0.08,0.11c0,0.01-0.01,0.01-0.02,0.01c-0.03,0.03-0.05,0.07-0.08,0.11c-0.01,0.01-0.01,0.01-0.02,0.01
		c-0.03,0.03-0.05,0.07-0.08,0.11c0,0.01-0.01,0.01-0.02,0.01c-0.03,0.03-0.05,0.07-0.08,0.11c0,0.01-0.01,0.01-0.02,0.01
		c-0.03,0.03-0.05,0.07-0.08,0.11c-0.01,0.01-0.01,0.01-0.02,0.01c-0.03,0.03-0.05,0.07-0.08,0.11c0,0.01-0.01,0.01-0.02,0.01
		c-0.03,0.03-0.05,0.07-0.08,0.11c0,0.01-0.01,0.01-0.02,0.01c-0.03,0.03-0.05,0.07-0.08,0.11c-0.01,0.01-0.01,0.01-0.02,0.01
		c-0.03,0.03-0.05,0.07-0.08,0.11c0,0.01-0.01,0.01-0.02,0.01c-0.03,0.03-0.05,0.07-0.08,0.11c0,0.01-0.01,0.01-0.02,0.01
		c-0.03,0.03-0.05,0.07-0.08,0.11c-0.01,0.01-0.01,0.01-0.02,0.01c-0.03,0.03-0.05,0.07-0.08,0.11c0,0.01-0.01,0.01-0.02,0.01
		c-0.03,0.03-0.05,0.07-0.08,0.11c-0.01,0.01-0.01,0.01-0.02,0.01c-0.03,0.03-0.05,0.07-0.08,0.11c0,0.01-0.01,0.01-0.02,0.01
		c-0.03,0.03-0.05,0.07-0.08,0.11c-0.01,0.01-0.01,0.01-0.02,0.01c-0.03,0.03-0.05,0.07-0.08,0.11c-0.01,0.01-0.01,0.01-0.02,0.01
		c-0.03,0.03-0.05,0.07-0.08,0.11c0,0.01-0.01,0.01-0.02,0.01c-0.03,0.03-0.05,0.07-0.08,0.11c0,0.01-0.01,0.01-0.02,0.01
		c-0.57,0.62-0.85,1.39-0.84,2.32c0.01,1.84,0.96,2.88,2.84,3.13c3.15,0.28,5.5,0.45,7.05,0.5l0.74,18.52c0,0.8-0.02,2.01-0.08,3.62
		c-0.05,1.61-0.08,2.81-0.08,3.62c0,0.82,0.32,1.51,0.95,2.06c0.63,0.55,1.36,0.82,2.21,0.81c0.89,0,1.6-0.36,2.13-1.06
		c0.03-0.04,0.06-0.08,0.1-0.12c0.03-0.04,0.06-0.08,0.1-0.12c0.03-0.04,0.06-0.08,0.1-0.12c0.03-0.04,0.06-0.08,0.1-0.12
		c0.03-0.04,0.06-0.08,0.1-0.12c0.03-0.04,0.06-0.08,0.1-0.12c0.03-0.04,0.06-0.08,0.1-0.12c0.03-0.04,0.06-0.08,0.1-0.12
		c0.03-0.04,0.06-0.08,0.1-0.12c0.03-0.04,0.06-0.08,0.1-0.12c0.03-0.04,0.06-0.08,0.1-0.12c0.03-0.04,0.06-0.08,0.1-0.12
		c0.03-0.04,0.06-0.08,0.1-0.12c0.03-0.04,0.06-0.08,0.1-0.12c0.03-0.04,0.06-0.08,0.1-0.12c0.03-0.04,0.06-0.08,0.1-0.12
		c0.03-0.04,0.06-0.08,0.1-0.12c0.03-0.04,0.06-0.08,0.1-0.12c0.03-0.04,0.06-0.08,0.1-0.12c0.03-0.04,0.06-0.08,0.1-0.12
		c0.03-0.04,0.06-0.08,0.1-0.12c0.03-0.04,0.06-0.08,0.1-0.12c0.03-0.04,0.06-0.08,0.1-0.12c0.03-0.04,0.06-0.08,0.1-0.12
		c0.03-0.04,0.06-0.08,0.1-0.12c0.03-0.04,0.06-0.08,0.1-0.12c0.03-0.04,0.06-0.08,0.1-0.12c0.03-0.04,0.06-0.08,0.1-0.12
		c0.03-0.04,0.06-0.08,0.1-0.12c0.03-0.04,0.06-0.08,0.1-0.12c0.03-0.04,0.06-0.08,0.1-0.12c0.03-0.04,0.06-0.08,0.1-0.12
		c0.03-0.04,0.06-0.08,0.1-0.12c0.03-0.04,0.06-0.08,0.1-0.12c0.03-0.04,0.06-0.08,0.1-0.12c0.03-0.04,0.06-0.08,0.1-0.12
		c0.03-0.04,0.06-0.08,0.1-0.12c0.03-0.04,0.06-0.08,0.1-0.12c0.03-0.04,0.06-0.08,0.1-0.12c0.03-0.04,0.06-0.08,0.1-0.12
		c0.03-0.04,0.06-0.08,0.1-0.12c0.03-0.04,0.06-0.08,0.1-0.12c0.03-0.04,0.06-0.08,0.1-0.12c0.03-0.04,0.06-0.08,0.1-0.12
		c0.03-0.04,0.06-0.08,0.1-0.12c0.03-0.04,0.06-0.08,0.1-0.12c0.03-0.04,0.06-0.08,0.1-0.12c0.03-0.04,0.06-0.08,0.1-0.12
		c0.03-0.04,0.06-0.08,0.1-0.12c0.03-0.04,0.06-0.08,0.1-0.12c0.91-1.08,1.33-3.08,1.26-6.03l-0.04-1.62l-0.04-1.4l-0.49-13.13
		c0.25,0.01,0.51,0.02,0.79,0.04c0.6,0.04,1.13,0.06,1.57,0.05c0.91,0,1.65-0.31,2.23-0.92c0.03-0.04,0.06-0.08,0.09-0.11
		c0,0,0,0,0.01-0.01c0.03-0.04,0.06-0.08,0.09-0.11c0,0,0,0,0.01-0.01c0.03-0.04,0.06-0.08,0.09-0.11c0,0,0,0,0.01-0.01
		c0.03-0.04,0.06-0.08,0.09-0.11c0,0,0,0,0.01-0.01c0.03-0.04,0.06-0.08,0.09-0.11c0,0,0,0,0.01-0.01c0.03-0.04,0.06-0.08,0.09-0.11
		c0,0,0,0,0.01-0.01c0.03-0.04,0.06-0.08,0.09-0.11c0,0,0,0,0.01-0.01c0.03-0.04,0.06-0.08,0.09-0.11c0,0,0,0,0.01-0.01
		c0.03-0.04,0.06-0.08,0.09-0.11c0,0,0,0,0.01-0.01c0.03-0.04,0.06-0.08,0.09-0.11c0,0,0,0,0.01-0.01c0.03-0.04,0.06-0.08,0.09-0.11
		c0,0,0,0,0.01-0.01c0.03-0.04,0.06-0.08,0.09-0.11c0,0,0,0,0.01-0.01c0.03-0.04,0.06-0.08,0.09-0.11c0,0,0,0,0.01-0.01
		c0.03-0.04,0.06-0.08,0.09-0.11c0,0,0,0,0.01-0.01c0.03-0.04,0.06-0.08,0.09-0.11c0,0,0,0,0.01-0.01c0.03-0.04,0.06-0.08,0.09-0.11
		c0,0,0,0,0.01-0.01c0.03-0.04,0.06-0.08,0.09-0.11c0,0,0,0,0.01-0.01c0.03-0.04,0.06-0.08,0.09-0.11c0,0,0,0,0.01-0.01
		c0.03-0.04,0.06-0.08,0.09-0.11c0,0,0,0,0.01-0.01c0.03-0.04,0.06-0.08,0.09-0.11c0,0,0,0,0.01-0.01c0.03-0.04,0.06-0.08,0.09-0.11
		c0,0,0,0,0.01-0.01c0.03-0.04,0.06-0.08,0.09-0.11c0,0,0,0,0.01-0.01c0.03-0.04,0.06-0.08,0.09-0.11c0,0,0,0,0.01-0.01
		c0.03-0.04,0.06-0.08,0.09-0.11c0,0,0,0,0.01-0.01c0.03-0.04,0.06-0.08,0.09-0.11c0,0,0,0,0.01-0.01c0.03-0.04,0.06-0.08,0.09-0.11
		c0,0,0,0,0.01-0.01c0.03-0.04,0.06-0.08,0.09-0.11c0,0,0,0,0.01-0.01c0.03-0.04,0.06-0.08,0.09-0.11c0,0,0,0,0.01-0.01
		c0.03-0.04,0.06-0.08,0.09-0.11c0,0,0,0,0.01-0.01c0.03-0.04,0.06-0.08,0.09-0.11c0,0,0,0,0.01-0.01c0.03-0.04,0.06-0.08,0.09-0.11
		c0,0,0,0,0.01-0.01c0.03-0.04,0.06-0.08,0.09-0.11c0,0,0,0,0.01-0.01c0.03-0.04,0.06-0.08,0.09-0.11c0,0,0,0,0.01-0.01
		c0.03-0.04,0.06-0.08,0.09-0.11c0,0,0,0,0.01-0.01c0.03-0.04,0.06-0.08,0.09-0.11c0,0,0,0,0.01-0.01c0.03-0.04,0.06-0.08,0.09-0.11
		c0,0,0,0,0.01-0.01c0.03-0.04,0.06-0.08,0.09-0.11c0,0,0,0,0.01-0.01c0.03-0.04,0.06-0.08,0.09-0.11c0,0,0,0,0.01-0.01
		c0.03-0.04,0.06-0.08,0.09-0.11c0,0,0,0,0.01-0.01c0.03-0.04,0.06-0.08,0.09-0.11c0,0,0,0,0.01-0.01c0.03-0.04,0.06-0.08,0.09-0.11
		c0,0,0,0,0.01-0.01c0.03-0.04,0.06-0.08,0.09-0.11c0,0,0,0,0.01-0.01c0.03-0.04,0.06-0.08,0.09-0.11c0,0,0,0,0.01-0.01
		c0.03-0.04,0.06-0.08,0.09-0.11c0,0,0,0,0.01-0.01c0.03-0.04,0.06-0.08,0.09-0.11c0,0,0,0,0.01-0.01c0.03-0.04,0.06-0.08,0.09-0.11
		c0,0,0,0,0.01-0.01c0.03-0.04,0.06-0.08,0.09-0.11c0,0,0,0,0.01-0.01c0.03-0.04,0.06-0.08,0.09-0.11c0,0,0,0,0.01-0.01
		c0.03-0.04,0.06-0.08,0.09-0.11c0,0,0,0,0.01-0.01c0.03-0.04,0.06-0.08,0.09-0.11c0,0,0,0,0.01-0.01c0.03-0.04,0.06-0.08,0.09-0.11
		c0,0,0,0,0.01-0.01c0.58-0.61,0.87-1.37,0.86-2.31C333.04,27.99,332.39,27,331.1,26.59z"/>
	<path d="M363.17,28.78c-2.73-3.5-6.19-4.93-10.37-4.3c-3.97,0.6-7.09,2.33-9.36,5.18c-0.02,0.03-0.04,0.06-0.06,0.08
		c-0.03,0.04-0.06,0.08-0.1,0.12c-0.03,0.04-0.06,0.08-0.1,0.12c-0.03,0.04-0.06,0.08-0.1,0.12c-0.03,0.04-0.06,0.08-0.1,0.12
		c-0.03,0.04-0.06,0.08-0.1,0.12c-0.03,0.04-0.06,0.08-0.1,0.12c-0.03,0.04-0.06,0.08-0.1,0.12c-0.03,0.04-0.06,0.08-0.1,0.12
		c-0.03,0.04-0.06,0.08-0.1,0.12c-0.03,0.04-0.06,0.08-0.1,0.12c-0.03,0.04-0.06,0.08-0.1,0.12c-0.03,0.04-0.06,0.08-0.1,0.12
		c-0.03,0.04-0.06,0.08-0.1,0.12c-0.03,0.04-0.06,0.08-0.1,0.12c-0.03,0.04-0.06,0.08-0.1,0.12c-0.03,0.04-0.06,0.08-0.1,0.12
		c-0.03,0.04-0.06,0.08-0.1,0.12c-0.03,0.04-0.06,0.08-0.1,0.12c-0.03,0.04-0.06,0.08-0.1,0.12c-0.03,0.04-0.06,0.08-0.1,0.12
		c-0.03,0.04-0.06,0.08-0.1,0.12c-0.03,0.04-0.06,0.08-0.1,0.12c-0.03,0.04-0.06,0.08-0.1,0.12c-0.03,0.04-0.06,0.08-0.1,0.12
		c-0.03,0.04-0.06,0.08-0.1,0.12c-0.03,0.04-0.06,0.08-0.1,0.12c-0.03,0.04-0.06,0.08-0.1,0.12c-0.03,0.04-0.06,0.08-0.1,0.12
		c-0.03,0.04-0.06,0.08-0.1,0.12c-0.03,0.04-0.06,0.08-0.1,0.12c-0.03,0.04-0.06,0.08-0.1,0.12c-0.03,0.04-0.06,0.08-0.1,0.12
		c-0.03,0.04-0.06,0.08-0.1,0.12c-0.03,0.04-0.06,0.08-0.1,0.12c-0.03,0.04-0.06,0.08-0.1,0.12c-0.03,0.04-0.06,0.08-0.1,0.12
		c-0.03,0.04-0.06,0.08-0.1,0.12c-0.03,0.04-0.06,0.08-0.1,0.12c-0.03,0.04-0.06,0.08-0.1,0.12c-0.03,0.04-0.06,0.08-0.1,0.12
		c-0.03,0.04-0.06,0.08-0.1,0.12c-0.03,0.04-0.06,0.08-0.1,0.12c-0.03,0.04-0.06,0.08-0.1,0.12c-0.03,0.04-0.06,0.08-0.1,0.12
		c-0.03,0.04-0.06,0.08-0.1,0.12c-0.03,0.04-0.06,0.08-0.1,0.12c-0.03,0.04-0.06,0.08-0.1,0.12c-0.03,0.04-0.06,0.08-0.1,0.12
		c-0.02,0.03-0.05,0.05-0.07,0.08c-0.79,0.95-1.48,2.02-2.07,3.23c-1.96,3.98-2.53,8.32-1.68,13.03c0.88,4.85,2.96,8.5,6.22,10.96
		c2.92,2.21,6.14,3.05,9.65,2.52c3.34-0.51,6.02-2.01,8.05-4.5c0.03-0.04,0.06-0.08,0.1-0.12c0.03-0.04,0.06-0.08,0.1-0.12
		c0.03-0.04,0.06-0.08,0.1-0.12c0.03-0.04,0.06-0.08,0.1-0.12c0.03-0.04,0.06-0.08,0.1-0.12c0.03-0.04,0.06-0.08,0.1-0.12
		c0.03-0.04,0.06-0.08,0.1-0.12c0.03-0.04,0.06-0.08,0.1-0.12c0.03-0.04,0.06-0.08,0.1-0.12c0.03-0.04,0.06-0.08,0.1-0.12
		c0.03-0.04,0.06-0.08,0.1-0.12c0.03-0.04,0.06-0.08,0.1-0.12c0.03-0.04,0.06-0.08,0.1-0.12c0.03-0.04,0.06-0.08,0.1-0.12
		c0.03-0.04,0.06-0.08,0.1-0.12c0.03-0.04,0.06-0.08,0.1-0.12c0.03-0.04,0.06-0.08,0.1-0.12c0.03-0.04,0.06-0.08,0.1-0.12
		c0.03-0.04,0.06-0.08,0.1-0.12c0.03-0.04,0.06-0.08,0.1-0.12c0.03-0.04,0.06-0.08,0.1-0.12c0.03-0.04,0.06-0.08,0.1-0.12
		c0.03-0.04,0.06-0.08,0.1-0.12c0.03-0.04,0.06-0.08,0.1-0.12c0.03-0.04,0.06-0.08,0.1-0.12c0.03-0.04,0.06-0.08,0.1-0.12
		c0.03-0.04,0.06-0.08,0.1-0.12c0.03-0.04,0.06-0.08,0.1-0.12c0.03-0.04,0.06-0.08,0.1-0.12c0.03-0.04,0.06-0.08,0.1-0.12
		c0.03-0.04,0.06-0.08,0.1-0.12c0.03-0.04,0.06-0.08,0.1-0.12c0.03-0.04,0.06-0.08,0.1-0.12c0.03-0.04,0.06-0.08,0.1-0.12
		c0.03-0.04,0.06-0.08,0.1-0.12c0.03-0.04,0.06-0.08,0.1-0.12c0.03-0.04,0.06-0.08,0.1-0.12c0.03-0.04,0.06-0.08,0.1-0.12
		c0.03-0.04,0.06-0.08,0.1-0.12c0.03-0.04,0.06-0.08,0.1-0.12c0.03-0.04,0.06-0.08,0.1-0.12c0.03-0.04,0.06-0.08,0.1-0.12
		c0.03-0.04,0.06-0.08,0.1-0.12c0.03-0.04,0.06-0.08,0.1-0.12c0.03-0.04,0.06-0.08,0.1-0.12c0.03-0.04,0.06-0.08,0.1-0.12
		c0.03-0.04,0.06-0.08,0.1-0.12c0.03-0.04,0.06-0.08,0.1-0.12c0.03-0.04,0.06-0.08,0.1-0.12c0.03-0.04,0.06-0.08,0.1-0.12
		c0.69-0.83,1.3-1.76,1.84-2.81c1.87-3.64,2.48-7.79,1.84-12.44C366.75,35.21,365.36,31.61,363.17,28.78z M354.76,52.87
		c-1.86,0.28-3.59-0.17-5.18-1.37c-1.91-1.44-3.09-3.68-3.55-6.71c-0.39-2.58-0.22-4.99,0.45-7.23c0.62-0.25,1.28-0.44,2-0.54
		c4.67-0.69,7.47,3.04,8.4,11.18c0.17,1.5,0.12,2.87-0.17,4.13C356.09,52.57,355.45,52.76,354.76,52.87z"/>
	<path d="M387.38,45.64c-0.98-0.48-1.98-0.55-3-0.21c-0.8,0.27-1.43,0.73-1.89,1.37c-0.03,0.04-0.07,0.08-0.1,0.12
		c-0.03,0.04-0.07,0.08-0.1,0.12c-0.03,0.04-0.07,0.08-0.1,0.12c-0.03,0.04-0.07,0.08-0.1,0.12c-0.03,0.04-0.07,0.08-0.1,0.12
		c-0.03,0.04-0.07,0.08-0.1,0.12c-0.03,0.04-0.07,0.08-0.1,0.12c-0.03,0.04-0.07,0.08-0.1,0.12c-0.03,0.04-0.07,0.08-0.1,0.12
		c-0.03,0.04-0.07,0.08-0.1,0.12c-0.03,0.04-0.07,0.08-0.1,0.12c-0.03,0.04-0.07,0.08-0.1,0.12c-0.03,0.04-0.07,0.08-0.1,0.12
		c-0.03,0.04-0.07,0.08-0.1,0.12c-0.03,0.04-0.07,0.08-0.1,0.12c-0.03,0.04-0.07,0.08-0.1,0.12c-0.03,0.04-0.07,0.08-0.1,0.12
		c-0.03,0.04-0.07,0.08-0.1,0.12c-0.03,0.04-0.07,0.08-0.1,0.12c-0.03,0.04-0.07,0.08-0.1,0.12c-0.03,0.04-0.07,0.08-0.1,0.12
		c-0.03,0.04-0.07,0.08-0.1,0.12c-0.03,0.04-0.07,0.08-0.1,0.12c-0.03,0.04-0.07,0.08-0.1,0.12c-0.03,0.04-0.07,0.08-0.1,0.12
		c-0.03,0.04-0.07,0.08-0.1,0.12c-0.03,0.04-0.07,0.08-0.1,0.12c-0.03,0.04-0.07,0.08-0.1,0.12c-0.03,0.04-0.07,0.08-0.1,0.12
		c-0.03,0.04-0.07,0.08-0.1,0.12c-0.03,0.04-0.07,0.08-0.1,0.12c-0.03,0.04-0.07,0.08-0.1,0.12c-0.03,0.04-0.07,0.08-0.1,0.12
		c-0.03,0.04-0.07,0.08-0.1,0.12c-0.03,0.04-0.07,0.08-0.1,0.12c-0.03,0.04-0.07,0.08-0.1,0.12c-0.03,0.04-0.07,0.08-0.1,0.12
		c-0.03,0.04-0.07,0.08-0.1,0.12c-0.03,0.04-0.07,0.08-0.1,0.12c-0.03,0.04-0.07,0.08-0.1,0.12c-0.03,0.04-0.07,0.08-0.1,0.12
		c-0.03,0.04-0.07,0.08-0.1,0.12c-0.03,0.04-0.07,0.08-0.1,0.12c-0.03,0.04-0.07,0.08-0.1,0.12c-0.03,0.04-0.07,0.08-0.1,0.12
		c-0.03,0.04-0.07,0.08-0.1,0.12c-0.03,0.04-0.07,0.08-0.1,0.12c-0.03,0.04-0.07,0.08-0.1,0.12c-0.03,0.04-0.07,0.08-0.1,0.12
		c-0.03,0.04-0.07,0.08-0.1,0.12c-0.18,0.23-0.34,0.47-0.48,0.75c-0.47,0.98-0.54,1.97-0.19,3c0.35,1.04,1.01,1.8,1.98,2.28
		s1.97,0.54,3.01,0.19c0.79-0.27,1.41-0.72,1.88-1.36c0.03-0.04,0.06-0.08,0.1-0.12c0.03-0.04,0.07-0.08,0.1-0.12
		c0.03-0.04,0.07-0.08,0.1-0.12c0.03-0.04,0.07-0.08,0.1-0.12c0.03-0.04,0.06-0.08,0.1-0.12c0.03-0.04,0.07-0.08,0.1-0.12
		c0.03-0.04,0.07-0.08,0.1-0.12c0.03-0.04,0.07-0.08,0.1-0.12c0.03-0.04,0.06-0.08,0.1-0.12c0.03-0.04,0.07-0.08,0.1-0.12
		c0.03-0.04,0.07-0.08,0.1-0.12c0.03-0.04,0.06-0.08,0.1-0.12c0.03-0.04,0.07-0.08,0.1-0.12c0.03-0.04,0.07-0.08,0.1-0.12
		c0.03-0.04,0.07-0.08,0.1-0.12c0.03-0.04,0.06-0.08,0.1-0.12c0.03-0.04,0.07-0.08,0.1-0.12c0.03-0.04,0.07-0.08,0.1-0.12
		c0.03-0.04,0.07-0.08,0.1-0.12c0.03-0.04,0.06-0.08,0.1-0.12c0.03-0.04,0.07-0.08,0.1-0.12c0.03-0.04,0.07-0.08,0.1-0.12
		c0.03-0.04,0.06-0.08,0.1-0.12c0.03-0.04,0.07-0.08,0.1-0.12c0.03-0.04,0.07-0.08,0.1-0.12c0.03-0.04,0.07-0.08,0.1-0.12
		c0.03-0.04,0.06-0.08,0.1-0.12c0.03-0.04,0.07-0.08,0.1-0.12c0.03-0.04,0.07-0.08,0.1-0.12c0.03-0.04,0.07-0.08,0.1-0.12
		c0.03-0.04,0.06-0.08,0.1-0.12c0.03-0.04,0.07-0.08,0.1-0.12c0.03-0.04,0.07-0.08,0.1-0.12c0.03-0.04,0.06-0.08,0.1-0.12
		c0.03-0.04,0.07-0.08,0.1-0.12c0.03-0.04,0.07-0.08,0.1-0.12c0.03-0.04,0.07-0.08,0.1-0.12c0.03-0.04,0.06-0.08,0.1-0.12
		c0.03-0.04,0.07-0.08,0.1-0.12c0.03-0.04,0.07-0.08,0.1-0.12c0.03-0.04,0.06-0.08,0.1-0.12c0.03-0.04,0.07-0.08,0.1-0.12
		c0.03-0.04,0.07-0.08,0.1-0.12c0.03-0.04,0.07-0.08,0.1-0.12c0.03-0.04,0.07-0.08,0.1-0.12c0.03-0.04,0.07-0.08,0.1-0.12
		c0.03-0.04,0.07-0.08,0.1-0.12c0.03-0.04,0.07-0.08,0.1-0.12c0.03-0.04,0.06-0.08,0.1-0.12c0.03-0.04,0.07-0.08,0.1-0.12
		c0.18-0.22,0.34-0.46,0.48-0.74c0.49-0.97,0.55-1.97,0.2-3.02C389.02,46.88,388.36,46.13,387.38,45.64z"/>
	<path d="M405.29,37.74c-1.04-0.35-2.04-0.28-3,0.2c-0.53,0.26-0.95,0.61-1.3,1.03c-0.03,0.04-0.06,0.08-0.1,0.12
		c-0.03,0.04-0.06,0.08-0.1,0.12c-0.03,0.04-0.06,0.08-0.1,0.12c-0.03,0.04-0.06,0.08-0.1,0.12c-0.03,0.04-0.06,0.08-0.1,0.12
		c-0.03,0.04-0.06,0.08-0.1,0.12c-0.03,0.04-0.06,0.08-0.1,0.12c-0.03,0.04-0.06,0.08-0.1,0.12c-0.03,0.04-0.06,0.08-0.1,0.12
		c-0.03,0.04-0.06,0.08-0.1,0.12c-0.03,0.04-0.06,0.08-0.1,0.12c-0.03,0.04-0.06,0.08-0.1,0.12c-0.03,0.04-0.06,0.08-0.1,0.12
		c-0.03,0.04-0.06,0.08-0.1,0.12c-0.03,0.04-0.06,0.08-0.1,0.12c-0.03,0.04-0.06,0.08-0.1,0.12c-0.03,0.04-0.06,0.08-0.1,0.12
		c-0.03,0.04-0.06,0.08-0.1,0.12c-0.03,0.04-0.06,0.08-0.1,0.12c-0.03,0.04-0.06,0.08-0.1,0.12c-0.03,0.04-0.06,0.08-0.1,0.12
		c-0.03,0.04-0.06,0.08-0.1,0.12c-0.03,0.04-0.06,0.08-0.1,0.12c-0.03,0.04-0.06,0.08-0.1,0.12c-0.03,0.04-0.06,0.08-0.1,0.12
		c-0.03,0.04-0.06,0.08-0.1,0.12c-0.03,0.04-0.06,0.08-0.1,0.12c-0.03,0.04-0.06,0.08-0.1,0.12c-0.03,0.04-0.06,0.08-0.1,0.12
		c-0.03,0.04-0.06,0.08-0.1,0.12c-0.03,0.04-0.06,0.08-0.1,0.12c-0.03,0.04-0.06,0.08-0.1,0.12c-0.03,0.04-0.06,0.08-0.1,0.12
		c-0.03,0.04-0.06,0.08-0.1,0.12c-0.03,0.04-0.06,0.08-0.1,0.12c-0.03,0.04-0.06,0.08-0.1,0.12c-0.03,0.04-0.06,0.08-0.1,0.12
		c-0.03,0.04-0.06,0.08-0.1,0.12c-0.03,0.04-0.06,0.08-0.1,0.12c-0.03,0.04-0.06,0.08-0.1,0.12c-0.03,0.04-0.06,0.08-0.1,0.12
		c-0.03,0.04-0.06,0.08-0.1,0.12c-0.03,0.04-0.06,0.08-0.1,0.12c-0.03,0.04-0.06,0.08-0.1,0.12c-0.03,0.04-0.06,0.08-0.1,0.12
		c-0.03,0.04-0.06,0.08-0.1,0.12c-0.03,0.04-0.06,0.08-0.1,0.12c-0.03,0.04-0.06,0.08-0.1,0.12c-0.03,0.04-0.06,0.08-0.1,0.12
		c-0.03,0.04-0.06,0.08-0.1,0.12c-0.35,0.39-0.61,0.84-0.78,1.37c-0.34,1.03-0.27,2.03,0.21,2.99c0.49,0.98,1.25,1.65,2.27,1.99
		c1.02,0.34,2.02,0.27,3.01-0.22c0.52-0.26,0.94-0.6,1.28-1.02c0.03-0.04,0.06-0.08,0.1-0.12c0.03-0.04,0.06-0.08,0.1-0.12
		c0.03-0.04,0.06-0.08,0.1-0.12c0.03-0.04,0.06-0.08,0.1-0.12c0.03-0.04,0.06-0.08,0.1-0.12c0.03-0.04,0.06-0.08,0.1-0.12
		c0.03-0.04,0.06-0.08,0.1-0.12c0.03-0.04,0.06-0.08,0.1-0.12c0.03-0.04,0.06-0.08,0.1-0.12c0.03-0.04,0.06-0.08,0.1-0.12
		c0.03-0.04,0.06-0.08,0.1-0.12c0.03-0.04,0.06-0.08,0.1-0.12c0.03-0.04,0.06-0.08,0.1-0.12c0.03-0.04,0.06-0.08,0.1-0.12
		c0.03-0.04,0.06-0.08,0.1-0.12c0.03-0.04,0.06-0.08,0.1-0.12c0.03-0.04,0.06-0.08,0.1-0.12c0.03-0.04,0.06-0.08,0.1-0.12
		c0.03-0.04,0.06-0.08,0.1-0.12c0.03-0.04,0.06-0.08,0.1-0.12c0.03-0.04,0.06-0.08,0.1-0.12c0.03-0.04,0.06-0.08,0.1-0.12
		c0.03-0.04,0.06-0.08,0.1-0.12c0.03-0.04,0.06-0.08,0.1-0.12c0.03-0.04,0.06-0.08,0.1-0.12c0.03-0.04,0.06-0.08,0.1-0.12
		c0.03-0.04,0.06-0.08,0.1-0.12c0.03-0.04,0.06-0.08,0.1-0.12c0.03-0.04,0.06-0.08,0.1-0.12c0.03-0.04,0.06-0.08,0.1-0.12
		c0.03-0.04,0.06-0.08,0.1-0.12c0.03-0.04,0.06-0.08,0.1-0.12c0.03-0.04,0.06-0.08,0.1-0.12c0.03-0.04,0.06-0.08,0.1-0.12
		c0.03-0.04,0.06-0.08,0.1-0.12c0.03-0.04,0.06-0.08,0.1-0.12c0.03-0.04,0.06-0.08,0.1-0.12c0.03-0.04,0.06-0.08,0.1-0.12
		c0.03-0.04,0.06-0.08,0.1-0.12c0.03-0.04,0.06-0.08,0.1-0.12c0.03-0.04,0.06-0.08,0.1-0.12c0.03-0.04,0.06-0.08,0.1-0.12
		c0.03-0.04,0.06-0.08,0.1-0.12c0.03-0.04,0.06-0.08,0.1-0.12c0.03-0.04,0.06-0.08,0.1-0.12c0.03-0.04,0.06-0.08,0.1-0.12
		c0.03-0.04,0.06-0.08,0.1-0.12c0.03-0.04,0.06-0.08,0.1-0.12c0.03-0.04,0.06-0.08,0.1-0.12c0.03-0.04,0.06-0.08,0.1-0.12
		c0.34-0.38,0.61-0.84,0.79-1.36c0.35-1.03,0.28-2.03-0.21-3.02C407.08,38.74,406.32,38.09,405.29,37.74z"/>
</g>
<g>
	<path class="st0" d="M62.85,71.46c-0.88,0.42-1.77,0.54-2.68,0.36c-1.04-0.21-1.75-0.74-2.15-1.58c-1.98-1.9-3.42-3.52-4.34-4.86
		c-0.92-1.34-3.63-5.1-8.12-11.28c-3.41-4.68-6.02-8.5-7.82-11.46c1.29,7.11,2,13.32,2.12,18.62c0.15,6.13,0.56,10.79,1.25,13.98
		c0.44,0.33,0.76,0.71,0.96,1.13c0.41,0.86,0.36,1.75-0.14,2.67c-0.44,0.84-1.11,1.47-1.98,1.89c-2.58,1.22-4.42,0.68-5.51-1.63
		l-2.62-3.22l-9.79-12.57C18.54,59.34,13.19,53.55,6,46.13c-0.33-0.36-0.58-0.71-0.74-1.05C4.41,43.3,4.99,41.93,7,40.98
		c1.24-0.59,2.52-0.36,3.83,0.68c0.67,0.53,2.31,2.17,4.91,4.94c2.77,2.92,5.87,6.56,9.31,10.9l8.79,11.35
		c-0.2-5.71-0.9-12.45-2.1-20.21c-0.72-4.74-1.14-8.06-1.25-9.97c-0.28-5.04,0.39-7.94,2.01-8.71c1.34-0.63,2.61-0.4,3.8,0.69
		c1.47,1.32,4.02,4.91,7.67,10.76c1.87,2.95,4.3,6.41,7.3,10.37l7.81,10.1c-0.36-7.37-1.1-17.21-2.24-29.52
		c-0.06-0.67-0.44-2.71-1.14-6.1c-0.51-2.5-0.65-4.56-0.44-6.18c0.19-1.38,0.84-2.33,1.95-2.85c1.93-0.91,3.35-0.42,4.25,1.49
		c0.15,0.33,0.3,1.43,0.44,3.3l0.32,3.64l0.84,5.85l1.3,24.74c0.3,2.65,0.52,6.59,0.66,11.84C64.95,69.67,64.22,70.8,62.85,71.46z"
		/>
	<path class="st0" d="M99.48,57.24c-4.6,1.29-8.65,1.18-12.15-0.33c-3.83-1.68-6.38-4.81-7.66-9.39c-1.48-5.3-1.44-10.1,0.13-14.4
		c1.7-4.69,4.88-7.69,9.55-8.99c3.38-0.94,6.3-1.15,8.76-0.6c3.02,0.67,4.94,2.46,5.75,5.38c0.57,2.04-0.06,4.21-1.9,6.53
		c-0.81,1.02-2.65,2.76-5.52,5.23l-10.13,8.79c1.61,1.37,3.39,2.25,5.33,2.63c1.94,0.38,4.04,0.26,6.3-0.38
		c1.41-0.39,2.98-1.12,4.73-2.18c2.22-1.34,3.52-2.66,3.91-3.94c0.39-1.28,0.98-2.04,1.77-2.26c0.71-0.2,1.42-0.11,2.14,0.28
		c0.71,0.38,1.17,0.93,1.37,1.64c0.63,2.26-0.65,4.72-3.84,7.36C105.28,54.87,102.44,56.41,99.48,57.24z M90.88,29.63
		c-2.49,0.69-4.28,2.23-5.4,4.62s-1.54,5.63-1.27,9.73l8.13-7.08c3.19-2.82,5.38-5.11,6.58-6.88
		C96.72,28.88,94.04,28.75,90.88,29.63z"/>
	<path class="st0" d="M121.73,25.26l2.39,15.59c0.3,1.64,0.66,4.07,1.08,7.29c0.17,2.12-0.65,3.35-2.48,3.68
		c-2.04,0.38-3.25-0.5-3.64-2.62c-0.46-2.52-1.04-6.32-1.74-11.41c-0.7-5.09-1.28-8.89-1.74-11.41c-0.61-3.29-1.25-7.06-1.92-11.31
		c-0.68-4.25-1.31-8.02-1.92-11.31c-0.38-2.08,0.44-3.31,2.48-3.68c2.06-0.38,3.28,0.47,3.66,2.55c0.61,3.29,1.25,7.06,1.92,11.31
		C120.48,18.2,121.12,21.97,121.73,25.26z"/>
	<path class="st0" d="M149.31,48.85c-4.32,0.4-8.04-0.57-11.17-2.91c-3.29-2.45-5.14-5.92-5.56-10.41
		c-0.4-4.27,0.61-8.82,3.03-13.63c2.69-5.35,6.01-8.21,9.97-8.58c2.06-0.19,4.41,0.08,7.05,0.81c3.34,0.94,5.09,2.31,5.26,4.1
		c0.07,0.8-0.12,1.54-0.59,2.21c-0.47,0.67-1.09,1.04-1.87,1.12c-0.61,0.06-1.16-0.08-1.65-0.4c-0.49-0.33-0.96-0.65-1.41-0.97
		c-1.34-0.87-3.41-1.18-6.24-0.91c-2.15,0.2-4.1,2.32-5.84,6.35c-1.59,3.7-2.26,6.83-2.02,9.4c0.26,2.78,1.41,4.88,3.46,6.3
		c1.91,1.33,4.25,1.86,7.03,1.6c1.26-0.12,2.58-0.58,3.95-1.39l3.48-2.3c0.6-0.4,1.04-0.61,1.31-0.63c0.78-0.07,1.48,0.17,2.11,0.74
		c0.63,0.57,0.98,1.25,1.05,2.05c0.14,1.54-1.34,3.17-4.45,4.91C153.49,47.82,151.19,48.67,149.31,48.85z"/>
	<path class="st0" d="M178.66,47.81c-3.55-0.09-6.57-1.48-9.06-4.17c-2.78-2.99-4.18-6.95-4.2-11.88c0-4.78,1.31-8.96,3.94-12.53
		c3.07-4.21,7.25-6.25,12.54-6.12c4.23,0.11,7.38,2.13,9.46,6.05c1.65,3.17,2.39,6.96,2.21,11.36c-0.19,4.69-1.52,8.67-3.99,11.92
		C186.76,46.14,183.12,47.92,178.66,47.81z M181.3,19.54c-3.11-0.1-5.57,1.31-7.38,4.25c-1.44,2.35-2.19,5.06-2.27,8.13
		c-0.08,3.07,0.69,5.48,2.32,7.23c1.36,1.45,2.98,2.2,4.86,2.25c2.2,0.06,4.11-0.7,5.74-2.26c1.84-1.73,2.86-4.1,3.04-7.12
		C188.12,23.84,186.02,19.68,181.3,19.54z"/>
	<path class="st0" d="M238.82,55.86c-1.71-0.28-2.56-1.36-2.55-3.22c0.01-2.36,0.17-5.65,0.49-9.89l0.55-9.88
		c0.03-1.47-0.09-2.94-0.36-4.4c-0.4-2-1.01-3.06-1.85-3.2c-0.77-0.13-2.32,0.29-4.65,1.25c-2.2,0.88-3.68,1.63-4.43,2.25
		c-0.35,1.96-0.62,3.93-0.82,5.91l-0.45,8.51c-0.15,3.36-0.41,6.12-0.77,8.27c-0.15,0.92-0.57,1.63-1.24,2.13
		c-0.67,0.5-1.46,0.67-2.36,0.52c-0.9-0.15-1.58-0.57-2.06-1.26c-0.48-0.69-0.64-1.49-0.48-2.41c0.42-2.52,0.79-6.3,1.1-11.32
		c0.31-5.02,0.68-8.79,1.1-11.32c0.37-2.21,0.34-3.98-0.08-5.32c-1.57,0.42-3.23,1.26-4.99,2.51l-4.38,3.52
		c-0.42,0.45-1.06,1.01-1.92,1.71c-0.21,1.25-0.63,3.08-1.27,5.48c-0.64,2.4-1.05,4.19-1.25,5.36c-0.1,0.63-0.15,1.52-0.14,2.68
		c0.01,1.16-0.03,1.99-0.11,2.49c-0.14,0.86-0.58,1.52-1.31,2c-0.73,0.48-1.53,0.65-2.38,0.5c-2.36-0.39-3.09-3.27-2.2-8.63
		c0.21-1.25,0.63-3.1,1.28-5.54c0.64-2.44,1.07-4.29,1.28-5.54c0.18-1.11,0.36-2.78,0.53-5.03c0.17-2.24,0.35-3.93,0.54-5.06
		c0.79-4.74,2.25-6.93,4.37-6.57c0.81,0.14,1.5,0.61,2.06,1.44c0.56,0.82,0.77,1.65,0.63,2.49c-0.07,0.4-0.22,1-0.46,1.82
		c-0.24,0.82-0.4,1.44-0.47,1.88l-0.48,3.3c1.46-2.05,3.39-3.8,5.8-5.26c2.41-1.45,4.35-2.06,5.83-1.81
		c3.28,0.54,5.26,2.55,5.95,6.01c1.4-1.33,2.96-2.25,4.67-2.74c1.71-0.5,3.59-0.58,5.64-0.24c3.48,0.58,5.55,2.85,6.2,6.82
		c0.13,0.79,0.06,3.8-0.18,9.01c-0.01,3.69-0.26,9.79-0.73,18.31c-0.08,0.84-0.48,1.51-1.2,1.99
		C240.52,55.84,239.71,56.01,238.82,55.86z"/>
	<path class="st0" d="M265.23,58c-4.75-0.55-8.46-2.18-11.12-4.9c-2.91-3-4.09-6.86-3.55-11.59c0.63-5.46,2.49-9.89,5.56-13.28
		c3.35-3.7,7.42-5.27,12.24-4.72c3.49,0.4,6.27,1.32,8.34,2.75c2.54,1.76,3.64,4.15,3.29,7.15c-0.24,2.1-1.65,3.88-4.23,5.32
		c-1.14,0.63-3.5,1.55-7.09,2.76l-12.7,4.31c0.97,1.88,2.29,3.36,3.94,4.45c1.65,1.09,3.64,1.76,5.98,2.03
		c1.45,0.17,3.18,0.09,5.2-0.23c2.56-0.41,4.26-1.13,5.11-2.17c0.84-1.04,1.68-1.51,2.5-1.42c0.73,0.09,1.36,0.44,1.87,1.06
		c0.51,0.62,0.73,1.3,0.64,2.04c-0.27,2.33-2.38,4.12-6.34,5.37C271.49,58,268.28,58.35,265.23,58z M267.7,29.19
		c-2.56-0.3-4.81,0.45-6.74,2.24c-1.93,1.79-3.55,4.63-4.85,8.53l10.21-3.48c4.02-1.41,6.91-2.7,8.69-3.88
		C273.39,30.7,270.96,29.57,267.7,29.19z"/>
	<path class="st0" d="M329.96,32.78c-0.44,0-0.97-0.02-1.57-0.05c-0.6-0.04-1.13-0.06-1.57-0.05c-0.49,0-1.92,0.17-4.31,0.5
		l0.7,18.75l0.04,1.4l0.04,1.62c0.11,4.63-0.99,6.95-3.29,6.97c-0.85,0-1.58-0.27-2.21-0.81c-0.63-0.55-0.94-1.23-0.95-2.06
		c0-0.8,0.02-2.01,0.08-3.62c0.05-1.61,0.08-2.81,0.08-3.62l-0.74-18.52c-1.54-0.05-3.89-0.22-7.05-0.5
		c-1.88-0.24-2.83-1.29-2.84-3.13c-0.01-0.93,0.28-1.7,0.84-2.32c0.57-0.62,1.3-0.93,2.18-0.93l6.67,0.5
		c-0.01-1.08-0.06-2.52-0.17-4.33s-0.16-3.11-0.16-3.92c0-0.89,0.3-1.62,0.91-2.21c0.61-0.58,1.36-0.88,2.25-0.88
		c1.9-0.01,3.02,1.54,3.36,4.65c0.07,0.78,0.1,1.72,0.11,2.82l-0.05,1.84l-0.02,1.97c2.62-0.35,4.12-0.53,4.5-0.53
		c2.2-0.01,3.64,0.09,4.32,0.29c1.29,0.42,1.94,1.41,1.95,2.97c0.01,0.93-0.28,1.7-0.86,2.31
		C331.61,32.47,330.87,32.77,329.96,32.78z"/>
	<path class="st0" d="M355.72,59.21c-3.51,0.53-6.73-0.31-9.65-2.52c-3.26-2.46-5.33-6.11-6.22-10.96
		c-0.84-4.71-0.28-9.05,1.68-13.03c2.28-4.69,6.04-7.43,11.27-8.22c4.18-0.63,7.64,0.8,10.37,4.3c2.18,2.84,3.57,6.43,4.17,10.79
		c0.64,4.65,0.03,8.8-1.84,12.44C363.39,56.14,360.13,58.54,355.72,59.21z M353.35,30.91c-3.08,0.45-5.25,2.27-6.52,5.48
		c-1,2.57-1.27,5.37-0.81,8.4c0.46,3.03,1.64,5.27,3.55,6.71c1.59,1.19,3.32,1.65,5.18,1.37c2.17-0.33,3.93-1.41,5.25-3.23
		c1.51-2.03,2.09-4.54,1.74-7.55C360.82,33.95,358.02,30.22,353.35,30.91z"/>
	<path class="st0" d="M386.9,52.89c-1.04,0.35-2.05,0.29-3.01-0.19s-1.62-1.24-1.98-2.28c-0.35-1.02-0.28-2.02,0.19-3
		c0.47-0.98,1.23-1.64,2.27-1.99c1.02-0.35,2.02-0.28,3,0.21c0.98,0.48,1.64,1.24,1.99,2.26c0.35,1.04,0.29,2.05-0.2,3.02
		C388.68,51.89,387.93,52.54,386.9,52.89z"/>
	<path class="st0" d="M405.79,44.98c-0.99,0.49-1.99,0.56-3.01,0.22c-1.02-0.34-1.78-1.01-2.27-1.99c-0.48-0.97-0.55-1.96-0.21-2.99
		c0.34-1.03,1-1.79,1.98-2.28c0.97-0.48,1.97-0.55,3-0.2c1.03,0.35,1.79,1,2.27,1.97c0.49,0.98,0.56,1.99,0.21,3.02
		C407.42,43.75,406.76,44.5,405.79,44.98z"/>
	<path class="st0" d="M423.19,34.83c-0.92,0.61-1.9,0.81-2.96,0.6s-1.89-0.78-2.5-1.69c-0.6-0.9-0.79-1.88-0.59-2.94
		c0.21-1.06,0.77-1.9,1.68-2.51c0.9-0.6,1.88-0.79,2.95-0.57s1.9,0.77,2.5,1.67c0.61,0.92,0.8,1.9,0.58,2.97
		C424.64,33.41,424.08,34.24,423.19,34.83z"/>
</g>
<g>
	<path class="st0" d="M62.85,71.46c-0.88,0.42-1.77,0.54-2.68,0.36c-1.04-0.21-1.75-0.74-2.15-1.58c-1.98-1.9-3.42-3.52-4.34-4.86
		c-0.92-1.34-3.63-5.1-8.12-11.28c-3.41-4.68-6.02-8.5-7.82-11.46c1.29,7.11,2,13.32,2.12,18.62c0.15,6.13,0.56,10.79,1.25,13.98
		c0.44,0.33,0.76,0.71,0.96,1.13c0.41,0.86,0.36,1.75-0.14,2.67c-0.44,0.84-1.11,1.47-1.98,1.89c-2.58,1.22-4.42,0.68-5.51-1.63
		l-2.62-3.22l-9.79-12.57C18.54,59.34,13.19,53.55,6,46.13c-0.33-0.36-0.58-0.71-0.74-1.05C4.41,43.3,4.99,41.93,7,40.98
		c1.24-0.59,2.52-0.36,3.83,0.68c0.67,0.53,2.31,2.17,4.91,4.94c2.77,2.92,5.87,6.56,9.31,10.9l8.79,11.35
		c-0.2-5.71-0.9-12.45-2.1-20.21c-0.72-4.74-1.14-8.06-1.25-9.97c-0.28-5.04,0.39-7.94,2.01-8.71c1.34-0.63,2.61-0.4,3.8,0.69
		c1.47,1.32,4.02,4.91,7.67,10.76c1.87,2.95,4.3,6.41,7.3,10.37l7.81,10.1c-0.36-7.37-1.1-17.21-2.24-29.52
		c-0.06-0.67-0.44-2.71-1.14-6.1c-0.51-2.5-0.65-4.56-0.44-6.18c0.19-1.38,0.84-2.33,1.95-2.85c1.93-0.91,3.35-0.42,4.25,1.49
		c0.15,0.33,0.3,1.43,0.44,3.3l0.32,3.64l0.84,5.85l1.3,24.74c0.3,2.65,0.52,6.59,0.66,11.84C64.95,69.67,64.22,70.8,62.85,71.46z"
		/>
	<path class="st0" d="M99.48,57.24c-4.6,1.29-8.65,1.18-12.15-0.33c-3.83-1.68-6.38-4.81-7.66-9.39c-1.48-5.3-1.44-10.1,0.13-14.4
		c1.7-4.69,4.88-7.69,9.55-8.99c3.38-0.94,6.3-1.15,8.76-0.6c3.02,0.67,4.94,2.46,5.75,5.38c0.57,2.04-0.06,4.21-1.9,6.53
		c-0.81,1.02-2.65,2.76-5.52,5.23l-10.13,8.79c1.61,1.37,3.39,2.25,5.33,2.63c1.94,0.38,4.04,0.26,6.3-0.38
		c1.41-0.39,2.98-1.12,4.73-2.18c2.22-1.34,3.52-2.66,3.91-3.94c0.39-1.28,0.98-2.04,1.77-2.26c0.71-0.2,1.42-0.11,2.14,0.28
		c0.71,0.38,1.17,0.93,1.37,1.64c0.63,2.26-0.65,4.72-3.84,7.36C105.28,54.87,102.44,56.41,99.48,57.24z M90.88,29.63
		c-2.49,0.69-4.28,2.23-5.4,4.62s-1.54,5.63-1.27,9.73l8.13-7.08c3.19-2.82,5.38-5.11,6.58-6.88
		C96.72,28.88,94.04,28.75,90.88,29.63z"/>
	<path class="st0" d="M121.73,25.26l2.39,15.59c0.3,1.64,0.66,4.07,1.08,7.29c0.17,2.12-0.65,3.35-2.48,3.68
		c-2.04,0.38-3.25-0.5-3.64-2.62c-0.46-2.52-1.04-6.32-1.74-11.41c-0.7-5.09-1.28-8.89-1.74-11.41c-0.61-3.29-1.25-7.06-1.92-11.31
		c-0.68-4.25-1.31-8.02-1.92-11.31c-0.38-2.08,0.44-3.31,2.48-3.68c2.06-0.38,3.28,0.47,3.66,2.55c0.61,3.29,1.25,7.06,1.92,11.31
		C120.48,18.2,121.12,21.97,121.73,25.26z"/>
	<path class="st0" d="M149.31,48.85c-4.32,0.4-8.04-0.57-11.17-2.91c-3.29-2.45-5.14-5.92-5.56-10.41
		c-0.4-4.27,0.61-8.82,3.03-13.63c2.69-5.35,6.01-8.21,9.97-8.58c2.06-0.19,4.41,0.08,7.05,0.81c3.34,0.94,5.09,2.31,5.26,4.1
		c0.07,0.8-0.12,1.54-0.59,2.21c-0.47,0.67-1.09,1.04-1.87,1.12c-0.61,0.06-1.16-0.08-1.65-0.4c-0.49-0.33-0.96-0.65-1.41-0.97
		c-1.34-0.87-3.41-1.18-6.24-0.91c-2.15,0.2-4.1,2.32-5.84,6.35c-1.59,3.7-2.26,6.83-2.02,9.4c0.26,2.78,1.41,4.88,3.46,6.3
		c1.91,1.33,4.25,1.86,7.03,1.6c1.26-0.12,2.58-0.58,3.95-1.39l3.48-2.3c0.6-0.4,1.04-0.61,1.31-0.63c0.78-0.07,1.48,0.17,2.11,0.74
		c0.63,0.57,0.98,1.25,1.05,2.05c0.14,1.54-1.34,3.17-4.45,4.91C153.49,47.82,151.19,48.67,149.31,48.85z"/>
	<path class="st0" d="M178.66,47.81c-3.55-0.09-6.57-1.48-9.06-4.17c-2.78-2.99-4.18-6.95-4.2-11.88c0-4.78,1.31-8.96,3.94-12.53
		c3.07-4.21,7.25-6.25,12.54-6.12c4.23,0.11,7.38,2.13,9.46,6.05c1.65,3.17,2.39,6.96,2.21,11.36c-0.19,4.69-1.52,8.67-3.99,11.92
		C186.76,46.14,183.12,47.92,178.66,47.81z M181.3,19.54c-3.11-0.1-5.57,1.31-7.38,4.25c-1.44,2.35-2.19,5.06-2.27,8.13
		c-0.08,3.07,0.69,5.48,2.32,7.23c1.36,1.45,2.98,2.2,4.86,2.25c2.2,0.06,4.11-0.7,5.74-2.26c1.84-1.73,2.86-4.1,3.04-7.12
		C188.12,23.84,186.02,19.68,181.3,19.54z"/>
	<path class="st0" d="M238.82,55.86c-1.71-0.28-2.56-1.36-2.55-3.22c0.01-2.36,0.17-5.65,0.49-9.89l0.55-9.88
		c0.03-1.47-0.09-2.94-0.36-4.4c-0.4-2-1.01-3.06-1.85-3.2c-0.77-0.13-2.32,0.29-4.65,1.25c-2.2,0.88-3.68,1.63-4.43,2.25
		c-0.35,1.96-0.62,3.93-0.82,5.91l-0.45,8.51c-0.15,3.36-0.41,6.12-0.77,8.27c-0.15,0.92-0.57,1.63-1.24,2.13
		c-0.67,0.5-1.46,0.67-2.36,0.52c-0.9-0.15-1.58-0.57-2.06-1.26c-0.48-0.69-0.64-1.49-0.48-2.41c0.42-2.52,0.79-6.3,1.1-11.32
		c0.31-5.02,0.68-8.79,1.1-11.32c0.37-2.21,0.34-3.98-0.08-5.32c-1.57,0.42-3.23,1.26-4.99,2.51l-4.38,3.52
		c-0.42,0.45-1.06,1.01-1.92,1.71c-0.21,1.25-0.63,3.08-1.27,5.48c-0.64,2.4-1.05,4.19-1.25,5.36c-0.1,0.63-0.15,1.52-0.14,2.68
		c0.01,1.16-0.03,1.99-0.11,2.49c-0.14,0.86-0.58,1.52-1.31,2c-0.73,0.48-1.53,0.65-2.38,0.5c-2.36-0.39-3.09-3.27-2.2-8.63
		c0.21-1.25,0.63-3.1,1.28-5.54c0.64-2.44,1.07-4.29,1.28-5.54c0.18-1.11,0.36-2.78,0.53-5.03c0.17-2.24,0.35-3.93,0.54-5.06
		c0.79-4.74,2.25-6.93,4.37-6.57c0.81,0.14,1.5,0.61,2.06,1.44c0.56,0.82,0.77,1.65,0.63,2.49c-0.07,0.4-0.22,1-0.46,1.82
		c-0.24,0.82-0.4,1.44-0.47,1.88l-0.48,3.3c1.46-2.05,3.39-3.8,5.8-5.26c2.41-1.45,4.35-2.06,5.83-1.81
		c3.28,0.54,5.26,2.55,5.95,6.01c1.4-1.33,2.96-2.25,4.67-2.74c1.71-0.5,3.59-0.58,5.64-0.24c3.48,0.58,5.55,2.85,6.2,6.82
		c0.13,0.79,0.06,3.8-0.18,9.01c-0.01,3.69-0.26,9.79-0.73,18.31c-0.08,0.84-0.48,1.51-1.2,1.99
		C240.52,55.84,239.71,56.01,238.82,55.86z"/>
	<path class="st0" d="M265.23,58c-4.75-0.55-8.46-2.18-11.12-4.9c-2.91-3-4.09-6.86-3.55-11.59c0.63-5.46,2.49-9.89,5.56-13.28
		c3.35-3.7,7.42-5.27,12.24-4.72c3.49,0.4,6.27,1.32,8.34,2.75c2.54,1.76,3.64,4.15,3.29,7.15c-0.24,2.1-1.65,3.88-4.23,5.32
		c-1.14,0.63-3.5,1.55-7.09,2.76l-12.7,4.31c0.97,1.88,2.29,3.36,3.94,4.45c1.65,1.09,3.64,1.76,5.98,2.03
		c1.45,0.17,3.18,0.09,5.2-0.23c2.56-0.41,4.26-1.13,5.11-2.17c0.84-1.04,1.68-1.51,2.5-1.42c0.73,0.09,1.36,0.44,1.87,1.06
		c0.51,0.62,0.73,1.3,0.64,2.04c-0.27,2.33-2.38,4.12-6.34,5.37C271.49,58,268.28,58.35,265.23,58z M267.7,29.19
		c-2.56-0.3-4.81,0.45-6.74,2.24c-1.93,1.79-3.55,4.63-4.85,8.53l10.21-3.48c4.02-1.41,6.91-2.7,8.69-3.88
		C273.39,30.7,270.96,29.57,267.7,29.19z"/>
	<path class="st0" d="M329.96,32.78c-0.44,0-0.97-0.02-1.57-0.05c-0.6-0.04-1.13-0.06-1.57-0.05c-0.49,0-1.92,0.17-4.31,0.5
		l0.7,18.75l0.04,1.4l0.04,1.62c0.11,4.63-0.99,6.95-3.29,6.97c-0.85,0-1.58-0.27-2.21-0.81c-0.63-0.55-0.94-1.23-0.95-2.06
		c0-0.8,0.02-2.01,0.08-3.62c0.05-1.61,0.08-2.81,0.08-3.62l-0.74-18.52c-1.54-0.05-3.89-0.22-7.05-0.5
		c-1.88-0.24-2.83-1.29-2.84-3.13c-0.01-0.93,0.28-1.7,0.84-2.32c0.57-0.62,1.3-0.93,2.18-0.93l6.67,0.5
		c-0.01-1.08-0.06-2.52-0.17-4.33s-0.16-3.11-0.16-3.92c0-0.89,0.3-1.62,0.91-2.21c0.61-0.58,1.36-0.88,2.25-0.88
		c1.9-0.01,3.02,1.54,3.36,4.65c0.07,0.78,0.1,1.72,0.11,2.82l-0.05,1.84l-0.02,1.97c2.62-0.35,4.12-0.53,4.5-0.53
		c2.2-0.01,3.64,0.09,4.32,0.29c1.29,0.42,1.94,1.41,1.95,2.97c0.01,0.93-0.28,1.7-0.86,2.31
		C331.61,32.47,330.87,32.77,329.96,32.78z"/>
	<path class="st0" d="M355.72,59.21c-3.51,0.53-6.73-0.31-9.65-2.52c-3.26-2.46-5.33-6.11-6.22-10.96
		c-0.84-4.71-0.28-9.05,1.68-13.03c2.28-4.69,6.04-7.43,11.27-8.22c4.18-0.63,7.64,0.8,10.37,4.3c2.18,2.84,3.57,6.43,4.17,10.79
		c0.64,4.65,0.03,8.8-1.84,12.44C363.39,56.14,360.13,58.54,355.72,59.21z M353.35,30.91c-3.08,0.45-5.25,2.27-6.52,5.48
		c-1,2.57-1.27,5.37-0.81,8.4c0.46,3.03,1.64,5.27,3.55,6.71c1.59,1.19,3.32,1.65,5.18,1.37c2.17-0.33,3.93-1.41,5.25-3.23
		c1.51-2.03,2.09-4.54,1.74-7.55C360.82,33.95,358.02,30.22,353.35,30.91z"/>
	<path class="st0" d="M386.9,52.89c-1.04,0.35-2.05,0.29-3.01-0.19s-1.62-1.24-1.98-2.28c-0.35-1.02-0.28-2.02,0.19-3
		c0.47-0.98,1.23-1.64,2.27-1.99c1.02-0.35,2.02-0.28,3,0.21c0.98,0.48,1.64,1.24,1.99,2.26c0.35,1.04,0.29,2.05-0.2,3.02
		C388.68,51.89,387.93,52.54,386.9,52.89z"/>
	<path class="st0" d="M405.79,44.98c-0.99,0.49-1.99,0.56-3.01,0.22c-1.02-0.34-1.78-1.01-2.27-1.99c-0.48-0.97-0.55-1.96-0.21-2.99
		c0.34-1.03,1-1.79,1.98-2.28c0.97-0.48,1.97-0.55,3-0.2c1.03,0.35,1.79,1,2.27,1.97c0.49,0.98,0.56,1.99,0.21,3.02
		C407.42,43.75,406.76,44.5,405.79,44.98z"/>
	<path class="st0" d="M423.19,34.83c-0.92,0.61-1.9,0.81-2.96,0.6s-1.89-0.78-2.5-1.69c-0.6-0.9-0.79-1.88-0.59-2.94
		c0.21-1.06,0.77-1.9,1.68-2.51c0.9-0.6,1.88-0.79,2.95-0.57s1.9,0.77,2.5,1.67c0.61,0.92,0.8,1.9,0.58,2.97
		C424.64,33.41,424.08,34.24,423.19,34.83z"/>
</g>
</svg>
