<?xml version="1.0" encoding="utf-8"?>
<!-- Generator: Adobe Illustrator 24.1.3, SVG Export Plug-In . SVG Version: 6.00 Build 0)  -->
<svg version="1.1" id="Layer_1" xmlns="http://www.w3.org/2000/svg" xmlns:xlink="http://www.w3.org/1999/xlink" x="0px" y="0px"
	 viewBox="0 0 1243.7 305.8" style="enable-background:new 0 0 1243.7 305.8;" xml:space="preserve">
<style type="text/css">
	.st0{fill:#FF37B7;}
	.st1{fill:#010101;}
	.st2{fill:#020001;}
	.st3{fill:#F98523;}
	.st4{fill:#F88523;}
	.st5{fill:#0C0703;}
	.st6{fill:#080405;}
	.st7{fill:#FFC41E;}
	.st8{fill:#00ED70;}
	.st9{fill:#010000;}
	.st10{fill:#A6BBFF;}
	.st11{fill:#FF2C2C;}
	.st12{fill:#97DE49;}
	.st13{fill:#FFF02C;}
	.st14{fill:#FFFFFF;}
	.st15{fill:#01A844;}
	.st16{fill:#080906;}
	.st17{fill:#01AD36;}
	.st18{fill:#050301;}
	.st19{fill:#0C0303;}
	.st20{fill:#0B0202;}
	.st21{fill:#0E0505;}
	.st22{fill:#1C070C;}
	.st23{fill:#6C666C;}
	.st24{fill:#00BEEA;}
	.st25{fill:#00AB32;}
	.st26{fill:#C768A9;}
	.st27{fill:#EAEAEA;}
	.st28{fill:#050202;}
	.st29{fill:#0B0808;}
	.st30{fill:#100D0E;}
	.st31{fill:#90AAFF;}
	.st32{fill:#1B1108;}
	.st33{fill:#0E070A;}
	.st34{fill:#0C0709;}
	.st35{fill:#110D10;}
	.st36{fill:#0B060A;}
	.st37{fill:#0B0708;}
</style>
<g id="Layer_2_1_">
</g>
<g id="Layer_1_1_">
	<g id="Layer_2_2_">
	</g>
	<g id="Layer_3">
	</g>
	<path class="st0" d="M1010.4,67.6c-0.1,3.3-0.5,3.8-1,7c-0.5,2.9-1.8,3.8-4.4,2.5c-4.5-2.2-9.3-3.9-14.2-5.2
		c-8.8-2.2-14.5,2.3-14.7,11.4c-0.1,4.2,1.6,8,1.8,12c-7.3-5-9.6-12.2-8.7-20.6c0.7-6.3,7.6-12,14.6-12.2c8.1-0.3,10.7,1.6,18.4,5.2
		C1006.4,69.6,1009.4,69.3,1010.4,67.6z"/>
	<path class="st1" d="M797.3,250.4c-2.9,1.5-5.8,1.4-8.8,0.3c-4.2-1.5-8.5-2.6-13.1-2.8c-2-1.1-4.2-1-6.2,0
		c-7.4,3.6-14.6,2.5-21.9-0.1c-1.1-0.4-2.3-0.8-3.5-0.8c-2.8,0-3.6-1.6-3.5-4.1c0.1-3,0-6.1,0.5-9.1c1.3-8.1,3.3-16.1,5.1-24.1
		c3.4-15,6.3-30.1,10.6-44.8c2.4-8.2-0.5-13.4-8.9-15.3c-1.4-0.3-2.9-0.4-4.3-0.6c-1.4-0.2-2.6-0.6-2.8-2.3c-0.3-3.7,0.2-7.4,0.7-11
		c2.4-16.2,5-32.4,5.1-48.9c0.3-5.5-2.4-9.3-7-11.9c-2.8-1.6-5.9-2.2-9.1-2.8c-19.4-3.6-39-4.1-58.6-4.6c-30-0.8-60-0.1-89.8,3.4
		c-23.7,2.8-47.6,4.3-71.2,8c-9.4,1.5-18.8,3.2-28.2,5.2c-6.6,1.4-9.2,4.8-9.3,11.4c-0.1,5.1-0.2,10.3,0.5,15.5
		c1.5,11,2.5,22.1,3.4,33.2c0.3,3.7,0.7,7.6-3.6,9.6c-6.6,2.1-8.7,4.9-7.9,11.6c0.7,5.9,2,11.7,3.1,17.5c2.1,10.8,5.5,21.4,6.7,32.5
		c-0.3,2.6,0,5.2,0.5,7.8c1.5,7.8,3.1,15.5,4.2,23.3c0.3,1.9,0.1,4,1.9,5.5c0.2,0,0.4-0.1,0.5-0.1c0,0.1,0,0.1,0,0.2
		c-0.6,1.8,0.8,4.6-2.7,4.7c-2.8,1.6-5.2,0-7.4-1.2c-7.6-4-15.2-4-22.9-0.1c-2.9,1.5-5.4,1.3-8.3-0.2c-15.3-7.9-28.1-4.6-37.2,10
		c-7.1,11.3-9.5,24.2-11.7,37.1c3.3,1,6.6,0.9,10,0.1c2-2.5,1.9-5.7,2.5-8.7c1.7-8.6,3.9-17.1,8.9-24.4c5.1-7.5,11.7-8.8,20.3-6.6
		c3.9,1,4.2,2.2,2.2,5.6c-4.7,7.8-6.7,16.4-8,25.2c-0.4,2.7-0.8,5.5,0.8,8.1c1.4,4,4.2,1.9,6.6,1.4c1.6-2,1-4.3,1.1-6.5
		c0.6-11.8,4.3-22.3,13.1-30.6c5.9-5.6,11.1-6.2,18.4-2.2c2.9,1.5,3.2,2.9,1.7,5.9c-4.4,8.7-6.9,18-6.8,27.9c0,2,0,4,1.8,5.5
		c2.1,1.3,4.4,0.6,6.6,0.5c1-1.2,0.5-2.5,0.4-3.8c-0.8-10.9,1.9-20.6,8.8-29.2c7.6-9.4,18.5-11,28.5-4.2c6.1,4.1,9.3,10.3,12.6,16.5
		c3.4,6.5,6.2,13.5,10.8,19.3c2.5,1.1,4.7-0.1,6.9-1c0.8-1.5,0.1-2.8-0.4-4.2c-0.9-2.6-2.1-5.1-3.3-7.6
		c-5.2-11.2-11.3-21.8-20.4-30.4c-6.1-5.8-13.3-8.1-21.6-7.2c-0.2,0-0.3,0-0.5,0c0.3-0.2,0.6-0.5,0.8-0.8
		c-0.1-8.8-1.3-17.5-2.7-26.2c-1.5-8.7-2.8-17.5-4.9-26.1c-2.2-9.1-4.9-18.2-6.1-27.5c-0.7-5.4,0-6.4,5.3-7.1
		c12.2-1.7,24.5-3.1,36.8-3.3c3-0.6,6.1-0.6,9.1-1.1c3-0.5,3.4,0.8,2.9,3.3c-1.5,7.8-1.6,15.5,1.1,23c0.8,2.1,0.2,3.6-1.8,4.6
		c-2.2,1.3-4,3-5.6,5c-7.8,9.7-9,20.6-5.7,32.2c3.7,13.2,12.2,23.4,21.8,32.7c9.1,8.9,19.8,15.4,31.5,20.5c19.2,8.3,39,10.7,59.4,5
		c9-2.5,17.3-6.6,25.4-11.2c20.9-11.8,37.1-27.7,45-50.9c5.5-16.1,4.5-29.8-8.9-40.7c-1.8-1.3-3.8-2.4-6.1-2.9
		c-2.7-0.6-3.3-2.1-2.8-4.6c0.9-4.3,1.3-8.6,0.8-13c-0.3-2.4,1-3,3-3c2.3,0,4.4,0.8,6.7,0.7c8.2,0.2,16.3,1.4,24.5,1.9
		c4.9,0.3,9.8,0.7,14.6,1.4c4.1,0.6,4.6,1.2,3.9,5.1c-0.6,3.5-1.3,7-2,10.5c-3.3,15.3-7.2,30.6-9.7,46.1c-0.7,5.5-2,11-2,16.5
		c0,4.8-2.3,7.9-5.7,10.8c-1.8,1.5-3.7,3-5.3,4.8c-8.8,9.8-13.6,21.7-17.5,33.9c-1,3.1-2.2,6.5-0.9,10c2.3,0,4.7,0,7.1,0
		c1.4-1,1.7-2.6,2.2-4.1c3-8.2,6-16.5,10.8-23.8c5.6-8.6,12.7-14.7,24-12.6c0.9,0.2,1.8,0.1,2.7-0.3c5.3,0.1,10.4-1.6,15-3.8
		c9.3-4.4,18.3-4.4,27.7-0.6c2.7,1.1,9.6-2.8,10.8-5.9C798.4,249.8,797.8,249.8,797.3,250.4z"/>
	<path class="st2" d="M335.6,254.9c0.4,1.6,0.8,3.1,1.3,4.7c1.6,2.9,3.8,4,7.3,4.1c10.4,0.5,18.4,5.3,23.2,14.8
		c3.1,6.2,5.1,12.8,6.7,19.5c0.3,1.4,0.6,2.9-0.3,4.2c-4,2.4-5.8,2-8.2-1.8c-1.9-4.5-2.2-9.6-4.7-13.9c-3.8-6.5-8.3-12.1-16.7-12.2
		c-5.4-0.1-9.7,2.2-12.7,6.9c-3.6,5.6-5.2,11.8-6.7,18.1c-1.5,4.7-2.9,5.3-7.3,3.4c-1.8-3.3-0.3-6.5,0.4-9.6
		c1.2-5.1,2.9-10.2,5.7-14.8c1.8-3,1.3-4-2.2-4.9c-6.8-1.9-15.2,2.4-19.1,9.7c-2.8,5.3-4.3,11.1-5.4,17c-1.5,5-3.5,5.7-7.5,2.7
		c-1.1-2.5-0.7-4.9,0-7.4c1.4-5.4,2.7-10.8,5.5-15.7c1.1-2,0.7-3-1.5-3.9c-5.8-2.3-11.4-1-15.4,3.8c-3.9,4.6-6.5,10-9.2,15.2
		c-1.4,2.7-2.5,5.6-4.3,8.1c-1.3,1.6-3.2,1.8-5,1.5c-5.7-0.7-11.6,0.8-17-1.9c-2.7-1.2-4.7-3.3-6.7-5.4c-2.2-2.5-4.6-4.7-7.3-6.6
		c-7.7-7.9-15.9-15.3-25.3-21.1c-8.6-5.3-17.8-7.7-27.7-5.4c-5.3,1.2-10.5,1.4-15.8,1.1c-9.1-0.5-14.1-6.5-17.8-14
		c-1.2-2.5-1.9-5.2-2.8-7.9c-4.7-16.5-7.9-33.3-13-49.6c-2-8.5-3.6-17-5.5-25.6c-2.4-11.3,1-16.4,13.2-21.6c0.8-0.4,1.8-0.3,2.6-0.8
		c2.8-1.1,3.7-3.1,2.9-6c-0.5-2-0.7-4.1-0.8-6.2c-0.1-3.6-0.2-3.7-4-2.4c-6,3.2-12.5,5.1-18.8,7.6c-12.9,5.2-15.6,9.1-15.5,23
		c0,5.3,0.6,10.6,1.7,15.8c3.1,14.5,6.1,29,9.2,43.5c3.2,14.6,4.6,29.5,5.1,44.5c0.2,5.7,0.6,11.4,1.6,17c0.6,5.8,1.3,11.6,2.9,17.3
		c0.4,1.5,1.1,3,0.3,4.5c-4.4,1.3-8.9,1.9-13.2-0.2c-2.8-5.3-3.8-11.2-5.9-16.8c-1.9-5.2-4.9-9.6-9.4-13c-7.1-5.3-16.3-4-21.3,3.4
		c-4.2,6.2-6.4,13.3-6.7,20.8c-0.1,2.4,0.7,5-1.1,7.2c-2.1,0-4.2,0-6.4,0c-2.1-3.6-1.3-7.5-0.7-11.2c1-6.7,3.2-13.1,6.3-19.1
		c1.7-3.4,1.2-4.4-2.6-4.9c-7.6-1.2-14.4,2-18,8.8c-3.7,7.1-6.4,14.5-5.6,22.8c0.1,1.3,0,2.6-1,3.7c-2.1,0-4.2,0-6.4,0
		c-1.2-1.3-1.1-2.9-1.2-4.5c-0.3-8.4,2.1-16.2,5.6-23.7c1.8-3.9,1.3-4.4-2.9-5.5c-8.5-2.3-14.5,1-19.2,7.7c-4,5.7-5.7,12.2-6.8,18.9
		c-0.4,2.4-0.3,5.1-1.9,7.2c-0.5,0-1.1,0-1.6,0c-0.6-0.7-1.1-1.5-1.1-2.5c-0.3-7.6-0.4-15.2,0-22.9c0.1-1.2,0.6-2.3,1.3-3.3
		c1.3-1.9,2.6-3.7,4-5.4c6.6-7.7,14.9-11.1,24.8-8.8c6.5,1.5,12.5,1.3,18.6-1c5.8-2.2,11.4-0.8,16.9,1.5c3.3,1.8,6.4-0.3,9.6-0.3
		c1.6,0,3.1-0.5,4.7-0.9c6.5-2.9,12-0.2,17.5,2.8c1.6,0.9,3.2,2.9,4.9,2.1c2-1,1.1-3.6,1-5.5c-0.6-11.4-1.7-22.6-3.8-33.8
		c-3.6-18.6-8.2-36.9-11-55.7c-1.3-8.5-0.8-16.9,0.7-25.3c1.1-6,4.2-11.5,9.6-14.5c9.4-5.2,19.4-9.2,30.1-10.9
		c6.9-2.3,12.4-6.2,16.4-12.5c8.1-12.7,26.6-20.1,41.4-16.9c4.3,0.9,8.6,1.8,12.7,3.4c6.4,2.4,12,1.5,17.1-2.8
		c9-7.7,19.5-10.2,31.1-9.5c8.4,0.5,15.9,3.5,22.2,8.8c7.4,6.2,16,8.6,25.1,9.8c5.1,0.7,10.3,1.2,15.4,2c10.7,1.7,16.6,8,19,18.1
		c3.5,6.9,3.1,14.4,3.4,21.7c0.5,11.9,1.9,23.7,2.4,35.5c0.1,2.6,0.2,5.3,0.2,7.9c0,16,0.1,32,0.1,48
		C335.7,241.8,336.8,248.4,335.6,254.9z"/>
	<path class="st3" d="M366.4,299.9c1.4,3.9,4.2,3,7,2c1.5-0.4,3.1-0.5,4.6-0.4c4.8-0.2,9.6,0,14.4-0.4c3.4,0.3,6.8,0.3,10.2,0
		c8.7,0.1,17.4,0.7,26.1-0.5c2.4,1.5,5.1,1.7,7.8,1.2c9.4,0.3,18.8,0.2,28.2-0.1c2.3,0.2,4.7,0.3,7,0.3c10.4,0.5,20.7-1,31-2.2
		c0.5-0.1,1.1-0.2,1.5,0.2c2.1,2.6,4.5,2.1,7,0.8c4-1.1,7.9,0.6,11.8,0.4c3-0.2,6.1-0.1,9.1-0.2c2.6,0.4,5.1-0.6,7.7-0.8
		c6.2-0.3,12.3,1.4,18.5,0.7c40.2-1.5,80.4-0.4,120.6-0.9c2.1,0,4.2-0.3,6.3-0.6c4.4,1.1,8.9,0.5,13.4,0.8c2.4-0.1,4.8-0.2,7.1,0
		c6.4,0.1,12.8-1.5,19.2-0.8c2.8,1,5.6,0.3,8.4-0.3c10.4-0.1,20.8,0.7,31.2-0.5c2.6,1.8,5.3,1,8,0.1c9.3,1,18.7,0.6,28.1,0.6
		c2.6,0.7,5,0.9,6.5-2c0.2-0.5,0.9-0.1,1.3,0.2c1.5,1.7,3.5,1.5,5.5,1.7c6.7,0.4,13.2-0.9,19.8-0.8c3.3-0.1,6.6,0.2,9.9-0.8
		c5.2,1,10.5,1,15.7,0.1c4.2-0.6,8.5,0.5,12.5-1.6c3.3,2.3,6.9,1,10.3,0.9c3.2,2,6.7,1,10,1.2c1.4,0.1,2.9-0.1,4.3,0.1
		c3.3,1,6.5,0.2,9.7-0.5c2.5,1.4,5.2,1.9,8,1.9c6.6,0.1,13.1,0.2,19.7-0.2c3.5,1,5.6-0.7,7.3-3.5c1.8,3,4.5,3.8,7.9,4.1
		c5.6,0.5,11.1,0.4,16.7,0.1c3.5,1.1,5.7-0.5,7.3-3.4c2,2.7,4.9,3.1,8,2.9c6.9-0.4,13.8,1.8,20.7-0.2c3,0.2,6,0.3,8.9-0.8
		c5.8,1.5,11.8,0.7,17.6,1c1.8-0.1,3.6-0.1,5.4-0.1c2.3,0.2,4.7-0.2,7.1,0c2.4,1.4,4.7,0.1,7.1-0.1c14,0.7,27.9-1.1,41.9-0.8
		c1.6,0,3.2-0.1,4.7,0.1c3.5,1,5.2-1.5,7-3.7c1.8,5.4,6,2.6,9.3,2.7c3.4,0.4,6.8,0.1,10.2-0.1c5.4,0.4,10.8,1.4,16.2,0.9
		c2.8,1.5,5.6,0.5,8.4-0.1c9.8,0,19.7,0.1,29.5-0.2c0.9,0,1.8,0.3,2.7,0.5c2.2,0.5,3.1-0.5,3.3-2.6c0.2-1.9-0.5-4,1.4-5.4
		c2.1,0.9,1.7,2.8,1.7,4.5c0.1,2.9,1.5,4,4.2,4c3.7,0,7.4-0.1,11.1,0c2.7,0.1,4.9-0.6,6.6-2.8c0.1,0,0.3-0.1,0.4-0.1
		c1.8,3,4.2,3,7,1.6c0.5,0.4,0.9,0.8,1.3,1.2c0.7,0.5,1.3,0.9,2.1,0.9c7.3,0.1,14.7,0,22,0c0.8,0,1.5-0.5,1.9-1.2
		c0.6-2.3-0.4-4.6,0.3-6.9c0.8-7.7,0.1-15.4-0.1-23c1-3.4-0.5-7.1,1.1-10.4c0.3-0.4,0.7-0.5,1.2-0.3c0,14.3,0,28.6,0.1,42.9
		c0,2-0.4,2.8-2.4,2.4c-0.4-0.1-0.8,0-1.2,0c-360.6,0.7-721.2,1.3-1081.8,2c0.6-2.7,2.9-1.9,4.5-1.9c8.3-0.1,16.6-0.1,24.9-0.1
		c1.7,0,3.4,0.1,5.1-0.5c2.4-0.4,4.8-0.5,7.2-1c8.7-0.5,17.3-0.1,26-0.4c5.4,1.6,10.8,1.3,16.1-0.2c6.4,2.6,13.1,1.8,19.7,2.2
		c0.8,0,1.6-0.9,2.3-1.3c7,0.7,13.9-1,20.9-0.7c1.6,0.1,3.2-0.3,4.6,0.7c3.9,2.4,5.2,1.8,6.1-2.5c2.3,1.6,4.9,1.8,7.5,1.9
		c4.7,0.1,9.5-0.8,14.2,0.6c4.8,1.5,5.3,1.2,6.2-3.2c2,2.2,4.5,2.7,7.4,2.6c5.9-0.2,11.8,0.1,17.7-0.2c2.6,0,5.2,0.6,7.7-0.5
		C360,301.4,363.4,302.8,366.4,299.9z"/>
	<path class="st3" d="M63.6,305.7c-1-8.5,0.8-16.5,4.2-24.2c2.9-6.6,7.5-11,14.8-11.5c7.7-0.6,13.1,3.9,17,9.8
		c4.7,7.2,6.2,15.6,8.6,23.6c0.7,1.7-0.6,1.8-1.6,1.7c-2.8-0.1-5.5,0.4-8.3-0.3c-2.2-1-2.3-3.3-3.2-5.1c-0.5-1.1-1-2.4-2.5-2
		s-1.2,1.8-1,3c0.2,1.6,1.3,3.3-0.1,4.8C82.2,305.6,72.9,305.7,63.6,305.7z"/>
	<path class="st3" d="M3,305.8c0.5-9.9,2.3-19.5,8.4-27.7c6.1-8.3,12.8-9.8,23.2-6.1c1.7,0.6,2.9,1.2,1.6,3.4
		c-5.6,9.4-7.7,19.6-7,30.4C20.5,305.8,11.8,305.8,3,305.8z"/>
	<path class="st3" d="M35.7,305.7c-1.4-10,1.1-19.1,6-27.7c4.5-7.7,13.3-11,21.1-8.3c2.8,1,3.9,2,2,5c-6,9.4-8,19.9-7.6,31
		C50,305.7,42.9,305.7,35.7,305.7z"/>
	<path class="st4" d="M98,304.2c3.5,0.9,7,2.1,10.3-0.7c4.1,2.5,8.4,1.6,12.7,0.5c1.4-1.3,3.1-1.2,4.9-1.3
		c5.5-0.1,11.1,0.7,16.2-2.3c1.2,1.7,2.7,2.6,4.9,2.4c1.8-0.2,3.7,0,5.6-0.2c6.9-0.8,7.7-1.9,7.2-8.7c-0.2-2.2-0.3-4.5,0.1-6.7
		c0.2-1.4,0.4-3.1,2.6-2.4c0.5,5,1.1,9.9,0.9,14.9c-0.1,2.3,0.6,3.3,2.8,2.9c6.6-1.1,13.2-0.4,19.8-0.6c0.9,0,1.9,0,2.8-0.2
		c0.6-0.2,1.3-0.4,1.3-1.2c0-1-0.8-1.3-1.6-1.4c-2.4-0.1-4.7,0.7-7,1.1c-1.6,0.3-3.2,0.9-4.6,0.1c-2.4-1.3-3.3-3.3-1.8-5.9
		c3.7,3.5,7.8,1.9,12,1.4c5.8-0.8,8.5,2.6,6.6,8.1c-1.6,0.9-3.3,0.9-5,0.9c-8.7,0-17.4,0-26.1,0.1c-1.4,0-2.9-0.5-4.1,0.8
		c-20.2,0-40.4,0.1-60.6,0.1C97.4,305.1,97.4,304.6,98,304.2z"/>
	<path class="st5" d="M98,304.2c0,0.5-0.1,1-0.1,1.4c-2.1,0-4.2,0-6.4,0c0.1-2-0.9-3.8-1.3-5.7c-0.3-1.6,0.3-2.9,1.8-3.5
		c1.7-0.7,2.9,0.1,3.6,1.5C96.5,299.9,97.2,302.1,98,304.2z"/>
	<path class="st6" d="M881.7,297.2c-3.1,2.5-8.2,2.2-9.7-0.6c-1.1-3.3,0.5-6.1,2-8.8c2.5-4.5,4.9-9.1,8.5-13
		c4.3-6.4,10.5-10.4,17.1-13.9c6.4-3.4,6.5-3.8,2.1-9.8c-2-2.7-4.4-5-6.7-7.3c-2.8-2.8-3.6-6-2.3-9.8c1-2.9,1.9-5.8,2.7-8.7
		c2.1-7.7,1.5-15.2-1.3-22.6c-0.7-2-1.6-3.9-1.3-6.1c-0.2-2.8,1.3-4.7,3.1-6.5c3.1-3.1,6.1-6.2,9.1-9.2c1-2,2.2-3.9,3.6-5.7
		c1.9-2.3,2.9-5.1,3-8.1c0.2-5.2,0.5-10.4-0.1-15.5c-0.6-4.9-0.2-9.8,0.2-14.6c0.6-7.7,5.4-12.4,13.2-12.6c7-0.2,13.8,1.2,20.4,2.9
		c5.6,1.4,9.8,0.2,13.3-4.2c1.6-1.9,3.3-3.8,6.1-4.2c4.8-4.2,10.5-6.6,16.8-7.3c2.6-0.3,3.1-1.3,1.9-3.6c-2-4-3.7-8.2-5.5-12.3
		c-3.4-5.6-3.4-11.7-1.8-17.6c1.5-5.6,7.3-8.5,13.3-7.3c5,1,9.6,2.9,14.3,4.7c3.6,1.4,4.1,1.3,4.9-2.5c0.6-2.6,6.1-29.3,8.3-40.2
		c1.3-6.5,3.4-12.8,7.4-18.2c6.1-8.2,15.2-11,24.4-7.6c2.6,0.9,5.2,3.4,5.7,4c2.7,3.3,2.9,3.4,6.4,1c10.7-7.5,23.9-4.3,29.8,7.5
		c4.8,9.6,5,19.5,1.9,29.6c-3.5,9.8-5.9,19.9-8.6,30c-3.3,10.5-1.7,8.3,5.9,8.1c5.5-0.1,11.1-0.8,16.6,0.4
		c8.4,1.9,11.8,8.1,8.7,16.1c-1.7,4.5-4.5,8.4-8,11.7c-4.6,4.4-9.2,8.7-13.9,12.9c-3.5,3.2-5.5,6.8-3.4,11.6
		c2.1,4.8,5.1,8.6,11.1,8.4c0.3,0,0.5,0.1,0.8,0.2c14.1-0.3,27.5,3.8,41,6.8c9.5,2.2,12,6.5,10.2,15.9c-1.5,7.5-3.6,14.9-4.9,22.5
		c-1.3,8-2,16-2.1,24.1c0,6.7-1.5,13.4-0.6,20.1c0.4,3.3,0.8,6.6,1.1,9.9c0.2,2.2,0.7,3.2,3.4,2.9c2.7-0.4,11.1,1.6,13.5,3.2
		c-0.9,1.1-7.6-0.8-8.8-0.9c-5.6-0.6-11.1-1-16,2.4c-0.6,0.4-1.5,0.6-2.1-0.2c-1.7-5.5-1.9-11.2-2.2-16.9
		c-1.2-20.6-0.9-41.2,4.6-61.4c2.5-9.4,2.3-9.7-7.3-11.3c-11.5-1.9-22.8-5.1-34.4-5.9c-5.2-0.9-6.1-0.7-8.6,3.9
		c-5.7,10.3-13.8,17.5-25.3,20.5c-0.7,1-4.5-1.3-2.5,2.5c2.2,3.1,4.6,6.2,7.1,9.1c4.3,5.1,11.4,7,17.7,5c3.2-1.1,5.5-3.2,6.7-6.4
		c1.8-4.8-2.3-10.3-7.3-8.4c-1.4,0.6-3.3,1.2-4.2-0.8c-0.8-1.8,0.6-3,1.7-4.1c4.9-4.8,13.4-3.9,18.3,2c1.8,2.2,3,4.7,3.6,7.4
		c3.9,16.3-3.5,30-19.7,35.9c-6.4,2.4-13.1,3.5-20,2.3c-3.4-0.6-5.3,0.6-6.7,3.5c-3.5,7.5-7.4,14.6-12.6,21.1
		c-3.2,4-6.8,7.4-11.4,9.8c-9.4,4.9-18.7,3.5-26.3-3.8c-8.2-7.8-14.3-17-19.6-26.9c-1-1.9-1.9-3.8-3-5.6c-1.3-2.4-3.2-3.1-6-2.8
		c-8.6,1-16.7-0.7-24.1-5c-9.9-5.8-14.6-17.4-11.7-28.3c1.2-4.5,3.6-8.3,8.3-9.9c3.7-1.3,7.9,0.4,9.2,3.5c0.8,1.9,0.2,3.4-2,3.2
		c-3.2-0.2-5.9-0.1-7,3.5c-1.1,3.6,0.3,7.8,3.4,10.3c4.6,3.7,12.5,3.7,17.5-0.1c3.5-2.6,5.9-6,7.6-10c0.1-0.2,0.2-0.5,0.3-0.7
		c3.2-7,3.2-6.7-3.7-9.6c-13.4-5.7-21.7-15.7-24.8-30c-0.6-2.6,0-5.6-2.2-7.9c-7.3-3.3-14.9-5.5-23.1-5.1c-3,0.1-4.4,1.2-4.3,4.2
		c0.2,5.6-0.1,11.1,0.6,16.6c1.5,12.8-4,22.9-12.8,31.5c-0.6,0.6-1.2,1.1-1.9,1.5c-3.7,2.5-4.8,5.6-3,9.9c3.9,9.2,3.4,18.4-0.4,27.4
		c-2.4,5.7-1,10.1,3.3,14.3c4.3,4.2,7.2,9.5,8.8,15.3c-0.6,2.1-4.1,0.5-4.1,2.9c0,2.1,2.9,2,3.9,3.5c0.8,1.2,2.4,2.2,1.2,4.1
		c-1.3,0.7-2.6,0.3-3.9,0.1c-9.2-1.6-15.7,3-21.6,9.2c-4.1,4.3-6.3,9.7-8.3,15.2C883.9,294.7,883.8,296.6,881.7,297.2z"/>
	<path class="st7" d="M746.3,86.7c-2-9.5-8.9-12.7-17.6-13.9c-26.7-3.8-53.7-4-80.6-4.5c-30.2-0.6-60.1,3.6-90.1,6.1
		c-24.6,2.1-49,5.4-73.2,10.2c-8.8,1.8-10.6,3.8-10.6,12.7c0,11.4,1.9,22.7,3.1,34c0.7,6.3,1,12.7,1.3,19c0.1,3.7-3.1,2.6-5.2,3.2
		c0.8-7.8-1.7-14.6-5.8-21c-5.4-8.3-10.2-16.9-13.1-26.6c-5.3-17.9,2.7-35.5,19.6-43.8c9.9-4.9,19.7-5.4,30-1.8
		c9.8,3.5,19.5,7.7,30,9.2c5.4,0.8,10.6,0.4,15.7-1.3c6.1-1.9,12-4.4,17.7-7.2c16.7-8.2,33.7-8.6,51.4-3.9c17,4.5,34.3,6.6,51.9,3.8
		c7.5-1.2,14.4-4.5,21.5-6.9c10.1-3.4,20.4-5,30.8-1.9c8.2,2.4,15.1,7.2,20.1,14.1C747.9,72.6,748.6,79.5,746.3,86.7z"/>
	<path class="st8" d="M129.2,121.6c-7.7,2.8-15.4,5.4-23,8.4c-9.4,3.6-14.6,10.3-16.1,20.7c-2.5,17,2.1,33,5.3,49.3
		c2.9,14.9,6.6,29.7,8.3,44.8c0.8,7.4,1.2,14.8,1.1,22.2c0,3.5-1.4,3.1-3.5,1.7c-3.3-2-6.5-4.1-10.1-5.4c-3.6-1.3-7.2-1.1-10.9-0.9
		c0.5-0.5,1.9-0.2,1.5-1.8c-2.6-9.1-0.3-17.8,2.1-26.5c2.1-7.9,4.8-15.7,4.8-24c0-10.4-2.4-20.4-6.6-29.9
		c-3.2-7.2-6.9-14.3-8.5-22.2c-4.6-22.6,13.3-43.4,37.6-40.2C117.3,118.7,123.3,119.8,129.2,121.6z"/>
	<path class="st9" d="M1136.6,255.1c6.4-5.5,13.9-4,21.3-3.2c4.8,1.2,9.4,1.6,13.8-1.4c5.2-2.9,10.9-3,16.2-1.6
		c9.8,2.7,19.6,2.4,29.5,2.6c9.3,0.3,17.1,4.3,22.9,11.7c1.3,1.6,2,3.4,1.9,5.5c1.2,8,1.6,16,0,24c-2.1-1.6-2.1-4.2-2.6-6.4
		c-1.5-6.5-4.1-12.6-8.5-17.7c-6.7-7.7-13.1-7.1-22-4.9c-2.8,0.7-1.9,2.5-1,4.4c3.2,6.8,6.1,13.8,6.4,21.5c0.1,2.9,1.2,6-1,8.7
		c-0.8,2.4-2.7,2.5-4.7,2.2c-2.6-0.3-1.2-2.5-1.7-3.7c-0.7-0.7-0.9-1.6-0.9-2.5c-0.2-7.4-2.6-14.3-4.8-21.2
		c-3.5-10.9-14.2-16.2-25.1-12.9c-3,0.9-3.3,1.8-1.5,4.5c4.6,7,7.5,14.5,8.4,22.9c0.1,1.3,0.5,2.6-0.5,3.8c-0.1,1.4-0.2,2.9-0.2,4.3
		c0,5.4-1.5,6.2-6.4,3.6c-1.5-1.7-0.9-3.8-1-5.7c-0.7-8.7-3.2-16.7-8-24.1c-7.2-11.3-23.1-8.1-29.2-0.6c-5.5,6.7-9.7,14.1-12.9,22.2
		c-1,2.6-1.6,5.6-4,7.6c-3.4,1.4-6.9,1.2-10.4,0.2c-0.6-0.7-0.5-1.5-0.2-2.3c4.4-11.2,7.9-22.8,15.4-32.5c1.9-2.6,4.1-4.9,6.5-7
		C1133.3,255.6,1134.6,254.2,1136.6,255.1z"/>
	<path class="st10" d="M964.6,118.6c-0.2,0.3-0.5,0.5-0.8,0.9c-6.7,10-15.7,10.8-26.3,7.4c-4-1.3-8.3-1.5-12.6-1.4
		c-7.9,0.3-11.5,3.7-12.4,11.5c-0.7,6.2-0.2,12.4,0,18.5c0.1,2.9,0.2,5.8,0.3,8.7c0.2,6.8-2.6,12.3-7.9,16.4c0-7.3-2.7-13.5-7-19.3
		c-6.8-9-10-18.9-6.4-30.2c4.4-13.8,19-23.3,34.8-22.6c7.6,0.3,14.5,2.7,21.5,5.2C953.4,115.6,958.8,117.6,964.6,118.6z"/>
	<path class="st7" d="M775.5,247.9c-4.5,0.6-8.9,1.4-13,3.4c-2.3,1.1-4.6,0.9-6.9,0.1c-4.6-1.6-9.2-3.3-14.2-3.3
		c-2.8,0-2.3-1.8-2.3-3.5c0-10,2.4-19.6,4.5-29.3c3.4-15.3,7-30.6,10.6-45.9c0.5-2.2,1.3-4.3,1.9-6.4c1.6-5.6-0.8-10-6.4-11.6
		c-2.2-0.6-4.4-1.2-6.7-1.1c-2.9,0.2-4-0.8-2.3-3.6c3.9,1,7.9-0.3,11.8,0.2c13.9,1.6,22.4,12.2,20.7,26.2
		c-1.2,10.1-5.3,18.9-11.2,27.1c-4.7,6.6-9,13.4-9.1,21.9c0,8.1,3.6,13.8,10.8,17.4C768,241.7,772.5,243.8,775.5,247.9z"/>
	<path class="st8" d="M335.6,254.9c-1.9-15.2-1.6-30.6-1.3-45.9c0.3-18.1-0.5-36.2-2.1-54.3c-0.9-10.9-1.2-21.8-2.6-32.7
		c8.9,6.2,16.3,13.4,18.2,24.8c1.5,9.1,0.6,18-2.9,26.4c-2.6,6.3-4.1,12.8-4.9,19.6c-0.5,4.5,0.3,8.7,2.5,12.6
		c1.8,3.4,3.6,6.8,5.2,10.2c6.5,14.2,3.9,24.4-8.8,33.4C336.8,250.7,335.5,252.3,335.6,254.9z"/>
	<path class="st11" d="M392.4,302c-4.9,1.2-9.9,0.5-14.9,0.5c0.5-4.1,3.6-6.8,5.6-10c0.5-0.7,1.1-1.4,1.4-2.2
		c2.6-6.9,3.5-14,3.1-21.4c-0.7-13.3,6.3-24.5,17.2-28c4.8-1.6,9.7-1.3,14.5,0.2c4.1,1.3,8,3,11.5,5.4c7.1,5,14.8,4.9,22.8,3.1
		c2.1-0.5,4.1-0.9,6.2-1.4c3.4-1.3,6.8-1.1,9.9,0.6c3.8,2.2,7.9,4.1,10.8,7.7c-0.4,1.8-1.9,1.6-3.2,1.6c-1.3-0.1-2.6-0.5-3.8-1.1
		c-8.2-4.4-16.5-4.4-24.8-0.2c-2.8,1.4-5.4,0.5-8-0.8c-3.8-2-7.8-3.3-12.1-3.8c-11.9-1.3-21.3,8-25.9,17.6c-4.4,9.1-6.4,19-8.8,28.8
		C393.6,299.8,393.9,301.2,392.4,302z"/>
	<path class="st12" d="M1145.4,237.6c-1.2-10.1-0.9-20.2-0.4-30.3c0.7-12.4,3.7-24.5,6.7-36.6c2.2-8.9-0.7-12.4-10.1-14.8
		c-13.2-3.2-26.6-5.5-39.9-7.8c2.2,0,3.8-0.5,5.2-2.6c1.9-2.9,5.1-3.6,8.5-3c3,0.6,5.9,1.6,8.6,2.9c4.4,2.2,9.1,3,13.9,2.3
		c4.3-0.6,8.5-0.3,12.7,0.2c11.9,1.5,15.5,9.5,13.9,21.8c-0.5,3.6-2,6.8-4.3,9.7c-4.9,6.2-5.9,13.4-4.9,21c0.4,2.9,0.3,5.8,0.2,8.7
		c-0.1,4.3-1.5,8.3-5.1,10.7c-5,3.3-5.2,8.1-5.2,13.2C1145.3,234.7,1145.9,236.2,1145.4,237.6z"/>
	<path class="st10" d="M892.7,196.3c5.5,11.3,6.7,23,1.8,34.8c-2.3,5.6-1.7,10,3.5,13.8c3.4,2.5,5.6,6.3,7.5,10.1
		c1.1,2.2,1,3.6-1.5,4.6c-8.3,3.5-15.3,8.8-21.4,15.4c-0.3,0.1-0.6,0.1-0.9-0.1c-0.6-2.8,0.2-5.6,1.1-8.1c2.2-6.6,1.1-12.7-1.7-18.8
		c-0.9-1.9-1.8-3.8-2.6-5.8c-2.6-7.3-0.9-13.8,4.7-18.7c5.5-4.8,7.9-10.3,7.4-17.4C890.5,202.8,890.6,199.3,892.7,196.3z"/>
	<path class="st11" d="M799,250.4c-0.5,0-1.1,0-1.6,0c12.5-16.3,35.4-13.8,43.8,5c0.9,2,1.9,4.1,2.3,6.3
		c2.1,12.1,8.1,21.8,17.9,29.2c2.3,1.1,1.9,2.7,1,4.6c-0.7,1.3-1.7,2.3-2.7,3.3c-4.5,1.2-9,0.8-13.5,0.9c-1.1,0-1.6-0.8-2-1.5
		c-1.9-0.8-1.4-2.6-1.8-4.1c-2.5-9.6-4.2-19.4-9-28.3c-3.2-6-7.6-10.8-13.6-14.1c-5.2-2.9-10.5-3.3-16.1-1.6
		C802.1,250.4,800.6,251.1,799,250.4z"/>
	<path class="st3" d="M384.6,290.2c-1.2,4.7-4.4,8.3-7,12.3c-1.4,0-2.9,0.4-4.2-0.6c-1.2-9.5-3.8-18.6-9.3-26.6
		c-5.1-7.4-12.5-11-21.5-10.3c-4.4,0.3-5.6-1.8-5.7-5.4c6.6-3.5,13.3-6.6,21.1-4.7c10.4,2.5,16.7,9.1,19.7,19.2
		c1.4,4.8,1.5,10,3.6,14.5C381.8,289.6,382,292.9,384.6,290.2z"/>
	<path class="st3" d="M2.9,277.2c-0.2-0.3-0.7-0.6-0.7-0.9c-1.3-9.9-1.3-19.7-0.2-29.6c8.8-3.3,16-0.2,22.6,5.5
		c6.1,5.3,13.2,6.2,20.8,5.5c4.4-0.4,8.7-0.8,13,0.2c3.4,0.8,6.1,2.5,7.6,5.7c-0.9,0-1.9,0.1-2.7-0.1c-6.1-1.7-12-1.3-17.9,0.9
		c-4.3,1.7-8.8,1.3-13.2,0.2C19.1,261.1,9.9,266.7,2.9,277.2z"/>
	<path class="st7" d="M479.8,256.5c-1.7-1.1-3.5-2-5-3.3c-4.3-3.8-9.4-5.2-15-5.1c1-9.3,5-17.3,10.4-24.7c1.9-2.6,3.4-5.5,5.1-8.3
		c2.6,11.3,4.8,22.6,6.4,34.1c0.1,0.9,0.5,1.8,0.7,2.6C484.1,255.6,483.5,256.5,479.8,256.5z"/>
	<path class="st13" d="M285.6,139.4c1-0.1,2.1-0.3,3.1-0.3c5-0.1,6.2,1,6.2,5.9c0,9-1.4,17.9-2.1,26.9c-1.6,18.6-2.7,37.2-2.5,55.9
		c0,1.5,0,2.9,0,4.4c-0.2,6.9-1.2,8-8,8.7c-29.7,2.8-59.5,5-89,9.7c-8,1.3-15.9,2.7-23.9,4.2c-10.6,2-16-0.7-19.2-10.9
		c-3.2-10.3-5.8-20.9-8.4-31.4c-3.8-15.4-8.3-30.7-10.9-46.3c-1.1-6.6-0.7-7.7,6.1-10.6c1.4,0.1,1.9,1.3,2.5,2.3
		c7.1,12.3,22.2,17.7,37.1,13c2.8-0.9,5.5-1.9,8.3-2.8c7.3-2.1,13.8-5.7,19.7-10.6c5.8-4.8,12.3-5.3,19-2.2c16,7.4,31.3,6.1,46-3.2
		c1.1-0.4,2.1-1.2,3.1-1.8C277.7,147.5,281.1,142.8,285.6,139.4z"/>
	<path class="st8" d="M226.7,302.3c-2.5,1.3-5.1,0.7-7.7,0.7c-6.4,0.1-12.8,0-19.2,0c-1.6-2.1-1.5-4.7-1.8-7.2
		c-0.7-5.2-1.8-6-7.1-5.1c-2,0.4-3.9,0.8-5.9,1.1c-3,0.5-4.9-0.6-5.4-3.7c-0.3-1.6-0.6-3.1-0.9-4.7c-0.8-4.3-1.9-5.3-6.4-5.4
		c-4.3-0.1-8.5,0.5-12.6,1.5c-3.9,1-5.1,2.9-4.8,7c0.1,1.8,0.9,3.6-0.2,5.4c-1.2,1-2.5,0.5-3.8,0.5c-4.4-0.1-8.7,0.6-12.9,1.9
		c-8.4,2.5-11.3,1.6-16.7-5.4c-1.6-2.1-3.2-4.2-4.5-6.5c-1.4-6.4-1.2-12.9-1.5-19.4c-1-21.9-5.2-43.2-9.9-64.6
		c-2.8-13-6.5-25.9-6.4-39.4c0.1-10.1,4.1-16.9,13.6-20.5c7.3-2.7,14.5-5.7,21.8-8.5c0.9,2.6-0.1,5.2-0.1,7.8
		c0.1,3.3,0.4,6.3,2.4,8.9c-2.6,0.9-5.1,1.6-7.5,3.1c-7.9,4.9-9.5,8.3-7.6,17.4c1.7,8.6,3.6,17.3,5.4,25.9
		c0.3,5.8-1.8,11.3-2.3,17.1c-1.4,14.3,3.4,25.5,15.5,33.5c1.9,5.2,3.7,10.4,7.6,14.6c6.3,6.9,14.7,7.5,22.4,5.4
		c17.9-4.9,31.8,1.8,44.7,12.8c5,4.3,10.2,8.4,14.3,13.7C231.6,295.4,230.7,299.6,226.7,302.3z"/>
	<path class="st8" d="M304.7,145.8c-0.1-0.2-0.2-0.5-0.2-0.8c0.4-9.2-4.1-14.2-13.1-15.6c-0.6-0.8-0.6-1.7-0.4-2.6
		c1-4.4,1.4-8.8,1.3-13.2c0-0.8,0.2-1.6,0.8-2.1c5.8,0.3,11.6,1.2,17.2,2.7c4.7,1.2,6.9,5.1,7.5,9.3c1.4,8.7,2.5,17.5,3.4,26.3
		c1.9,18.1,2.6,36.4,2.9,54.6c0.3,15.8,0.9,31.7,1.6,47.5c0.1,3.8,0.9,7.6,1.6,11.3c0.5,2.4,0.4,3.2-2.4,2.4
		c-5.6-1.6-11.3-1.1-16.8,0.7c-3.9,1.3-7.8,1.3-11.8,0.4c-3.8-0.8-7.5-1.7-11.4-1.4c-2.3,0.1-2.6-0.7-1.5-2.5
		c2.5-4.1,4.9-8.2,7.4-12.2c3.6-0.9,7.3-1.3,10.1-4.2c3.7-3.8,4.6-8.5,5-13.4c0.5-6-1.3-11.8-1.7-17.7c-0.5-7.4,0.8-14.4,3.9-21.2
		c5.6-12.3,5.5-25.1,2.3-38C309.5,152.2,306.5,149.4,304.7,145.8z"/>
	<path class="st14" d="M241.9,150.5c-6.1,0.3-13.1-1.8-18.9-7.1c-8.6-8-10.6-22.5-4.8-34.5c5.3-10.9,16.9-16.8,29.4-14.9
		c9.9,1.5,18.5,4.9,22.1,15.4c4.1,11.8,3.9,23-4.3,33C259.9,149.3,251.8,150.5,241.9,150.5z"/>
	<path class="st14" d="M205.3,130.2c-0.1,13.7-6.1,22.8-17.8,27.2c-11.3,4.2-24.3,1.3-31.9-7.1c-12-13.4-8.2-39.4,12.2-45.5
		c5-1.5,10.1-2.4,15.3-1.7C197.7,105.1,205.4,114.5,205.3,130.2z"/>
	<path class="st3" d="M366.4,299.9c0.1,1.8-0.3,3.1-2.5,2.7c-2.3-0.4-5,1-6.9-1.3c-2.3-0.7-2.3-3-3.3-4.6c-0.6-0.9-1.2-1.9-2.5-1.6
		c-1.3,0.3-1.2,1.5-1.2,2.6c-0.1,1.4,0.8,2.8-0.1,4.2c-4.9,1.4-9.9,0.4-14.8,0.8c-2.2,0.2-4.5-0.2-6.7,0.1c-3.2,0.4-4.7-0.7-4.5-3.9
		c1.1-4.5,2.2-8.9,4-13.2c3-7,7.5-12.2,15.7-12.5c8.5-0.3,13.6,4.9,17.6,11.5C364,289.4,364.7,294.8,366.4,299.9z"/>
	<path class="st13" d="M304.7,145.8c4.2,2.1,5.9,6.2,6.9,10.2c3.4,12.5,3.6,25.2-1.9,37.2c-4.7,10.4-5.4,20.7-3.1,31.7
		c1.3,6.4,1.1,12.9-2,18.9c-3,5.6-8.4,8.2-13.7,6.8c0.3-1.8,1.6-3,3-4.1c3.9-2.9,5.2-6.8,5.3-11.4c0.1-15.3,0.4-30.6,1.6-45.9
		C302.1,174.7,303.5,160.3,304.7,145.8z"/>
	<path class="st3" d="M317.7,302.3c-6.5,1.5-13.2,0.5-19.8,0.8c-2.3,0.1-1.5-2-2-3.2c1.2-6.6,2.9-13.1,6.5-18.9
		c4.6-7.4,13.4-10.7,20.9-8c2.7,1,4.1,1.9,1.9,5.2C320.6,285.4,318.4,293.6,317.7,302.3z"/>
	<path class="st3" d="M289.8,302.3c-8,0.8-15.9,1.4-23.9,1.4c-1,0-1.4-0.6-1.6-1.4c3.4-7.8,6.9-15.5,12.1-22.2
		c4.9-6.4,10.8-7.8,18.3-5.1c2.4,0.9,3.3,1.7,1.8,4.5C292.5,286.5,289.9,294.1,289.8,302.3z"/>
	<path class="st3" d="M265.1,276.4c-0.4,0.6-0.9,1.4-1.4,2.2c-3.3,5.2-6.6,10.5-9.1,16.2c-1.4,3.1-3.2,3.4-5.4,1.3
		c-5.1-4.9-10-9.8-14.9-14.9c-2.2-2.3,1.1-8.4,4.8-8.4c6.4-0.1,12.6-1.1,19-1.8C261.1,270.7,265.3,274,265.1,276.4z"/>
	<path class="st13" d="M140.3,243.8c-1.8,1.1-3-0.2-4.2-1.2c-8.9-7.6-13.3-17.2-12.8-28.9c0.3-7,1.4-13.8,3.8-20.4
		c4,11.1,6,22.7,9,34C137.5,232.8,138.9,238.3,140.3,243.8z"/>
	<path class="st3" d="M116.8,282.4c2.9,1.6,4.4,4.5,6.3,7c3.9,5.2,7.2,6.2,13.4,4.1c5.7-2,11.6-2.6,17.6-1.7c2.6,2.9,2.2,6-1.4,7.4
		c-3.3,1.3-6.8,2.1-10.4,1.5c-6.4,5.6-14.2,2.5-21.4,3.2C118.8,296.9,117.2,289.8,116.8,282.4z"/>
	<path class="st14" d="M184.8,168c-13.1,10.5-37.2,5.9-45.7-8.7c-0.7-1.2-1.4-2.5-2.1-3.8c5.8-3.9,7.6-3.7,12.1,1.2
		c8.1,8.8,18.4,12.1,30.2,11.6C181.1,168.2,183,168.1,184.8,168z"/>
	<path class="st14" d="M222.6,270.6c-5-3.5-9.8-7.2-15.3-9.9c-0.8-0.4-1.9-0.7-1.6-1.9c0.2-0.9,1.2-0.9,2-1
		c6.7-0.9,13.4-1.7,20.1-2.7c2.1-0.3,3.4,0.4,3.6,2.5c0.3,2.7,0.5,5.5,0.7,8.2C229.3,268.3,225.9,269.2,222.6,270.6z"/>
	<path class="st14" d="M263.2,259.2c0-7,0-7,6.3-7.7c3.3-0.4,6.6-0.7,9.9-1c2.2-0.2,2.5,0.7,1.5,2.5c-3,5.1-6,10.2-9,15.4
		c-1.1,1.9-2.2,2.3-4,0.7C264.6,266.2,261.9,263.3,263.2,259.2z"/>
	<path class="st14" d="M293.2,111.5c1,6.2,0.1,12.1-1.7,18c-6.3,0.6-8.5-1.2-9-7.3c-0.2-3.1-0.6-6.3-1.2-9.4c-0.5-2.6,0.4-3.4,3-2.9
		C287.2,110.5,290.2,110.9,293.2,111.5z"/>
	<path class="st3" d="M238.8,261.8c-1-1.1-0.7-2.5-1.1-3.7c-0.8-2.9,0.4-4.3,3.3-4.4c4.9-0.2,9.8-1.7,14.6,0.2
		c0.7,1.8,0,3.2-1.6,3.9c-4,1.9-8.2,3.6-12.5,5C240.5,263.2,239.5,262.8,238.8,261.8z"/>
	<path class="st14" d="M136.9,146.8c-1.2-0.4-2.8-0.1-3-2c-0.4-4.9-1.6-9.9,0.6-14.7c0.9-0.4,1.9-0.9,2.8-1.4
		c1.5-0.7,2.3-0.1,2.2,1.5c-0.1,3.9,0.6,7.8,1.4,11.6C141.5,144.9,139.1,145.9,136.9,146.8z"/>
	<path class="st3" d="M226.7,302.3c3.1-3.5,2.3-7.9,2.6-12c5.2,2.7,8.1,8.1,12.9,11.2c0,0.4,0.1,1.1,0,1.1c-4.8,1.5-9.8,1.6-14.8,1
		C227.2,303.6,227,302.8,226.7,302.3z"/>
	<path class="st3" d="M238.8,261.8c3.3,0.9,5.7-1.5,8.5-2.4c1.9-0.6,3.7-1.4,5.6-2.1c1.7-0.6,2.7-1.6,2.7-3.5
		c1.4,2.7,0.8,5.6,0.9,8.4c0.1,1.8-1.5,2-2.8,2.1c-3.7,0.4-7.4,0.8-11,1.2C239.8,266,238.4,264.8,238.8,261.8z"/>
	<path class="st14" d="M285.6,139.4c-3,5.3-7.7,8.6-12.7,11.7c-1.4,0.7-2,0.2-1.4-1.2c0.3-0.7,0.9-1.2,1.3-1.8
		c1.8-2.6,3.5-5.2,5.4-7.6C280.2,138,283,139.2,285.6,139.4z"/>
	<path class="st14" d="M222.6,270.6c2.6-2.7,6.1-3.6,9.5-4.7c0.4,3-1.5,5.1-3,7.4c-0.8,1.3-2,1.7-3.2,0.5
		C224.7,272.8,223.3,272.1,222.6,270.6z"/>
	<path class="st14" d="M272.8,148.1c0.9,1-2.5,2,0,3c-0.9,0.9-2,1.4-3.3,0.9C270.2,150.3,271.4,149.1,272.8,148.1z"/>
	<path class="st10" d="M1126.5,264c-7.6,10.5-11.4,22.7-16.2,34.5c-2,1.2-4.3,1-6.5,1.2c-3.6,0.3-1.4-2.8-2.2-4.2
		c-1.1-3.8-2.8-7.1-6.4-9.2c-6.1-5-12.8-7.3-20.8-5.2c-3.1,0.8-5.9-0.5-8.4-2.3c-2.2-1.1-4.1-2.8-6.2-4.1c-3-2.5-5.8-0.9-8.6,0.4
		c-0.3,0.2-0.7,0.3-1.1,0.4c-9.6,2.2-15.5,10.4-14.4,20.1c0.2,2,0.6,4-1.5,5.3c-1.9,0.2-3.9,0.4-5.8-0.3c-3.5-4.8-7.8-8.9-12.1-13.1
		c-2.9-2.9-4.4-6.6-5.9-10.2c-3.3-7.8-8.6-14.1-15.2-19.1c-6.9-5.2-15-5.9-23.1-3.1c-8.4,2.9-15.7,2.1-22.4-4.1
		c-4.9-4.5-10.6-4.1-15.8,0.3c-2.6,2.2-4.8,5-7.8,6.8c-2.4,1.4-4.7,2.4-7.5,1.9c-0.6-0.1-1.2-0.4-1.6-1c-3.5-6.8-7-13.6-12.8-18.9
		c-2.4-2.2-2.3-5.6-1.1-8.6c4.8-11.3,5.2-22.6-0.1-33.8c-1-2.1,0.4-3.1,1.8-4.3c6.8-5.6,12.6-11.9,15.7-20.5
		c1.9-5.2,1.8-10.4,1.3-15.6c-0.5-5.7-0.9-11.3-0.5-17c0.2-2.7,1.4-3.6,4-3.8c8.8-0.4,17.1,1.5,24.9,5.4c-0.2,4.5-1.7,8.7-1.5,13.3
		c0.2,7.5,3,13.8,8,19.3c5.8,6.6,13,11.2,20.8,14.9c1.2,0.6,2.6,0.7,3.1,2.2c-3,9.2-10.2,14.3-19,13.4c-6.9-0.7-11.8-6-11.4-12.4
		c0.3-5.3,3-7.4,8.2-6.3c0.7,0.1,1.5,0.5,1.8-0.2c0.2-0.5-0.1-1.3-0.4-1.8c-2.1-3.7-7.4-4.2-11.1-1c-4.7,4.2-5.8,9.8-5.2,15.6
		c1.1,10.6,6.9,17.9,17,21.4c6.3,2.2,12.8,3.5,19.6,2.3c2.9-0.5,4.4,0.7,5.6,3.1c4,7.9,8.4,15.6,13.7,22.8
		c3.2,4.3,6.8,8.2,10.8,11.6c8.2,7.1,20.3,6,29.3-2.3c5.5-5.1,9.4-11.4,13-17.9c1.4-2.6,2.8-5.1,3.9-7.8c1.6-4.1,4-5.2,8.5-4.7
		c12.3,1.5,23.5-1.5,32.4-10.7c7-7.2,8.9-21.7,4.1-30.5c-4.2-7.7-13.7-9.7-19-4c-0.8,0.9-2,1.9-1.2,3c0.8,1.2,1.9,0,2.8-0.3
		c2.7-1,5.3-0.8,7.3,1.4c2.1,2.3,2.9,5,1.9,8.1c-2.9,8.6-16.4,11.5-23.8,4.7c-3.9-3.6-7.4-7.6-9.8-12.4c0.5-2.1,2.3-2,3.8-2
		c2.6,0,5-0.6,7.2-1.9c9.9-4.6,17.9-11.4,23.3-21c0.6-1.1,1.2-2.4,2.7-2.6c4.1,0.5,8.2,0.9,12.2,1.5c3.9,0.6,7.3,2,10,5.1
		c1.9,2.2,4.1,4.2,6.2,6.2c3.2,3.1,4,6.8,2.3,10.9c-2.8,6.8-4.9,13.7-6.6,20.8c-4.1,17-3.9,33.8,2,50.4c0.8,2.1,2,4,3.2,5.9
		C1126.8,260.9,1127.5,262.3,1126.5,264z"/>
	<path class="st7" d="M490.8,225.2c-2.8-17.8-7.5-35.1-11.1-52.7c-0.3-1.7-0.4-3.4-0.6-5.1c-0.3-2.4,0.6-3.8,3.1-4.2
		c13.5-2,27-3.8,40.7-3.6c1,0.6,1.2,1.7,1.1,2.8c-0.5,5,0.3,9.9,1.8,14.6c0.4,1.1,0.7,2.3,0.1,3.4c-3.2,0.9-6.6,0-9.8,1.4
		c-5.6,2.4-8.3,8.9-5.5,14.3c0.4,0.7,0.8,1.5,1.7,1.4c0.9-0.1,1.3-0.8,1.5-1.6c0.4-1.6,0.3-3.1,0.3-4.7c0-2.7,1.2-4.6,3.8-5.4
		c2.8-1,5-2.8,7.3-4.6c0.6-0.6,1.3-0.5,1.7,0.1c2.3,3.4,5.5,6.3,7,10.3c-11.5,10.1-14.1,22.7-9.6,36.8c5,15.4,15.4,27.1,27.9,36.9
		c17.7,13.9,37.7,22.1,60.4,22.6c14.6,0.3,28-3.9,40.9-10.4c18-9,33.6-20.8,44.2-38.3c4.8-7.9,8.1-16.4,9.7-25.5
		c1.9-11-0.7-20.5-9-28.2c-0.5-0.4-0.8-1-1.2-1.5c-0.2-0.5-0.5-1-0.4-1.5c1.5-7,2.2-14.1,1.3-21.3c-0.1-0.6,0.3-1.2,0.8-1.7
		c13.8,0.4,27.5,1.9,41.2,3.3c3.1,0.3,4,1.8,3.3,4.8c-4,18.5-7.9,37-11.8,55.5c-0.2,1-0.4,2.1-0.5,3.1c-1.7,7.1-6.2,12.8-10.1,18.7
		c-10.6,15.9-19.6,32.7-30,48.6c-1.5,2.4-2.4,5.4-5.3,6.6c-1.3,1.8-3.3,1.3-5.1,1.3c-37,0.1-74,0.3-111,0.3c-4,0-7.9,1.4-11.8,0.1
		c-3.4-1-5-4.1-7.1-6.5c-10.3-12.2-21-24.2-31.4-36.4c-8.5-10-17.5-19.6-25.9-29.7C492.3,227.9,491.6,226.5,490.8,225.2z"/>
	<path class="st11" d="M471.6,303.2c-2.2-12.8,0.4-24.3,8.9-34.4c11.3-13.5,27.4-8.2,35.3,1.5c4.7,5.7,7.7,12.3,10.7,18.9
		c1.9,4.3,5.2,7.9,6.2,12.7c-5.1,1-10.3,0.8-15.4,0.3c-2.2-0.2-4.5-0.2-6.7-0.4c-1.7-1-1.8-2.8-2.4-4.4c-1-2.6-2.1-5.1-3.9-7.3
		c-0.9-1.1-2.1-1.9-3.4-0.9c-1.2,0.9-0.6,2.1,0,3.2c0.8,1.4,1.7,2.7,2.2,4.2c0.5,1.3,1.5,2.5,0.6,4.1c-0.4,0.8-0.9,1.2-1.8,1.2
		C491.8,302.1,481.8,304.2,471.6,303.2z"/>
	<path class="st11" d="M705.7,301.2c3.6-12.2,7.9-24.1,16.3-34c5.6-6.6,12.8-9.6,21.6-7.5c0.6,0.1,1.3,0.1,2,0.1
		c5-0.5,8.6,2.3,11.5,5.7c7.7,8.8,10.2,19.4,9.5,30.9c-0.1,1-0.2,2.1-1.3,2.6c-0.6,1-1.4,1.4-2.6,1.4c-9.5-0.1-19.1,0-28.6-0.1
		c-0.5,0-1-0.3-1.5-0.5c-1.1-1.7-0.1-3.3,0.4-4.9c0.5-1.5,1.4-2.8,2.1-4.2c0.8-1.5,2.1-3.4,0.1-4.4c-1.9-1-3,1-3.9,2.4
		c-1.3,2.1-2.3,4.4-3.1,6.8c-0.5,1.7-0.9,3.6-2.4,4.9C719.1,300.2,712.5,301.8,705.7,301.2z"/>
	<path class="st9" d="M765.3,299.1c1.1-9.7-0.3-18.9-5.2-27.4c-3.3-5.8-8.2-9.7-14.5-11.7c-0.5-1.3,0-1.9,1.2-1.5
		c3.3,1,5.7-0.8,8.6-1.7c9.4-2.7,18.9-7.7,29.2-3.3c1,0.4,2,0.6,3,1.1c2.2,1.1,4.4,2.4,5.4-1.4c0.3-1.2,1.6-1.2,2.7-1.2
		c1.4,0,2.7-0.1,3.4-1.5c13.8-5.8,26.5-0.8,34.7,13.4c2.2,3.9,4,8,5.2,12.4c1.9,7.2,4.6,14.3,5.3,21.8c-1.1,2.7-3.4,1.3-5.2,1.5
		c-1.6,0.2-3.2,0-4.8-0.1c-1.3-1.3-1-2.9-1.2-4.5c-1.8-11.2-4.5-22.1-12.1-31c-4.4-5.2-13.5-6.9-19.3-3.5c-2,1.2-0.9,2.5-0.2,3.7
		c3.6,7.1,6.2,14.7,7.2,22.6c0.5,3.5,1.8,7.3-1,10.6c-0.8,4.1-1.9,4.5-6.3,2.6c-1.7-3-0.8-6.2-0.9-9.3c-0.3-8.7-2.8-16.6-8.1-23.6
		c-5.1-6.7-16.3-9.8-24.1-6.8c-3,1.1-3.4,2.2-1.8,5.5c3.3,7,5.8,14.2,6.6,21.9c0.4,3.8,1.6,7.8-1.1,11.4
		C769.7,301.8,767.2,301.8,765.3,299.1z"/>
	<path class="st9" d="M917,258.8c0.7,0.1,1.3,0.2,2,0.3c1.7,0.2,3.5,0.2,5.1,0.9c2.7,1.1,5.1,0.5,7.7-0.5c6.4-2.7,12.9-2.7,19.2,0.4
		c4.9,2.4,9.7,3.1,15,1.4c13.1-4.2,23.1,0.1,31,11.1c5.7,7.9,9.4,16.8,13.6,25.5c0.2,0.5,0.2,1,0.1,1.5c-2.5,2.4-5.3,1.9-8.2,0.8
		c-1.6-0.5-1.9-2.1-2.5-3.4c-3.4-6.9-6.8-13.8-11.3-20c-5.2-7.1-10.8-9.2-18.1-7.3c-4.4,1.2-4.8,2-2.8,6c2.8,5.4,4.7,11.2,5.8,17.2
		c0.3,1.6,0.6,3.1-0.5,4.5c-0.1,4.9-0.8,5.3-6.4,3.7c-1.8-1.9-1.6-4.4-2.1-6.7c-1.2-5.6-2.5-11.1-5.6-16c-4.2-6.8-9.9-11.3-18.5-11
		c-1.3,0-2.6,0.2-3.9,0.6c-3.4,1.1-3.8,2-2,5.1c3.5,5.9,5.5,12.3,7,18.9c0.3,1.5,1,3.1-0.3,4.5c-0.3,5.3-1.2,5.8-6.5,3.8
		c-1.7-1.8-1.3-4.2-1.9-6.3c-2.2-7.8-4.1-15.7-10.5-21.5c-1.3-1.2-3.4-1.7-3.7-3.9c-1-1.8-1.9-3.9-4.1-4.6c-1.7-0.5-3.5-1.1-2.8-3.4
		c0.6-2,2.5-2.1,4.3-1.8C916.2,258.7,916.6,258.7,917,258.8z"/>
	<path class="st11" d="M771.7,299c1.5-12.2-1.6-23.6-7.4-34.2c-1.5-2.7-1.1-3.8,1.6-5c8.6-4.1,21.2-1.4,27,6.1
		c7.8,10.1,9.9,21.6,8.3,34c-0.9,0.9-2,1.2-3.3,1c-7.6-1.2-15.3-0.3-22.9-0.5C773.7,300.4,772.3,300.7,771.7,299z"/>
	<path class="st11" d="M435.7,302.9c-0.6-13.5,2.2-26,11.6-36.4c8.7-9.6,15.7-7.9,25-2c2,1.3,0.5,2.2,0,3.2c-6,11-9,22.5-7.2,35
		C455.3,303.7,445.5,303.4,435.7,302.9z"/>
	<path class="st11" d="M402.4,302.1c1.2-10.1,3-20.2,7.8-29.3c6.6-12.6,13.5-14.2,24.6-11.4c5.3,1.3,5.3,2.5,2.6,7
		c-6,10.1-8,21.3-8.3,33c-0.5,0.3-1.1,1-1.6,1C419.1,302.3,410.8,303.2,402.4,302.1z"/>
	<path class="st11" d="M807.6,297.4c1.1-12.2-2.4-23.3-8-33.8c-1.6-3-0.8-3.8,2-4.5c12.9-3.3,19.5-0.2,25.4,11.8
		c4.5,9,7,18.5,7.2,28.6c-7.7,0.3-15.3,0.5-23,0.9C808.8,300.5,807.7,299.7,807.6,297.4z"/>
	<path class="st15" d="M539.7,300.9c-4.8-13.2-10.9-25.7-20-36.5c-5.5-6.5-12-11.5-21-11.9c-1.6-0.1-3.1-0.6-4.7-0.9
		c-1.7-6.9-1.5-14-2.6-21c-0.3-1.8-0.4-3.6-0.6-5.4c7.1,8,14.2,15.9,21.2,24c12.6,14.4,25.2,28.9,37.7,43.4c2.7,3.1,5.3,6.2,7.9,9.3
		C551.6,302.9,545.7,301.6,539.7,300.9z"/>
	<path class="st16" d="M142.3,300.8c2.4-1.3,4.9-1.6,7.6-1.9c5.1-0.6,5.9-2,4.3-7c-0.2-2.2-0.4-4.5-0.6-6.7
		c-0.3-3.7,1.6-5.8,4.9-6.6c5.1-1.2,10.4-1.8,15.7-1.5c3.5,0.1,5.2,1.9,5.7,5.3c1.3,9,1.4,9,10.6,7.3c6.8-1.3,8.1-0.3,8.7,6.7
		c0.2,2.2,0.4,4.5,0.6,6.7c-1.9,1.3-4.1,0.6-6.1,0.8c-1.1-8-1.2-8.1-9.1-6.4c-0.9,0.2-1.9,0.2-2.7,0.5c-3.5,1.4-5.7,0.2-6.7-3.4
		c-1.6-1.3-1.8-3.2-2.1-5c-0.5-3.5-2.5-4.6-5.8-4.3c-1.6,0.2-3.4,0.9-5-0.4c-2.2,0.3-1.7,2-1.7,3.4c0.2,3.2,0.5,6.3,0.8,9.5
		c0.2,2.2-0.3,3.8-2.6,4.6c-5.2,2-10.7,1.9-16.1,1.5C139.6,303.6,142.3,301.9,142.3,300.8z"/>
	<path class="st12" d="M1095.5,299.8c-14.7,0.3-29.5,0.7-44.2,1c-1.5,0-3.2,0.5-4.6-0.7c-1.2-1.4-0.6-3-0.4-4.5
		c0.7-4.2,1.8-8.3,3.5-12.2c2.9-6.6,8.8-7.3,13.3-1.6c1.3,1.7,2.1,3.7,3.2,5.5c1.9,3.1,4.6,4.6,8.3,4.2c3-0.3,6.1-0.8,9-1.6
		c2.2-0.6,4.4-0.8,6.7-0.8c2.7,0,5.1,0.8,6.3,3.3C1097.9,295.1,1097.6,297.6,1095.5,299.8z"/>
	<path class="st17" d="M685.7,300c14-22.7,28.1-45.4,42.1-68.2c1.2-1.9,2.2-3.9,3.3-5.8c-0.9,6.8-2.2,13.5-2.3,20.4
		c0,1.6-1.1,2.7-2.3,3.6c-12.6,9.8-19.7,23.2-24.8,37.9c-1.5,4.4-2.1,9-3.1,13.5c-3.4,0-6.8,0.1-10.2,0.1
		C687.3,301.4,686.1,301.4,685.7,300z"/>
	<path class="st18" d="M1095.5,299.8c0.2-1,0.4-2.1,0.5-3.1c0.5-4.5-1.2-6.3-5.8-6.4c-4.2-0.1-8.1,1.2-12.1,2.1
		c-7.4,1.6-10.3,0.5-14-6.2c-0.7-1.3-1.3-2.6-2.2-3.8c-3.8-5.2-8.7-4.7-11.2,1.2c-2.2,5.2-3.3,10.8-4.2,16.5c-1.9,1.7-3.8,2.4-5.6,0
		c-0.2-0.3-0.6-0.6-0.6-1c0.6-7.9,2.2-15.5,6.8-22.2c0.9-1.2,2.3-1.7,3.6-2.3l0,0c3-1.6,6.1-2.4,9.4-0.8c1.8,1.3,3.7,2.6,5.5,3.9
		c1.7,1.1,2.9,2.7,3.8,4.5c1.6,3.2,4.2,4.2,7.6,3.6c2.7-0.5,5.5-0.9,8.2-1.7c4-1.2,7.5-0.4,10.9,1.5c3.6,2.3,6.4,5,5.5,9.8
		C1101.4,299.3,1099.4,300.9,1095.5,299.8z"/>
	<path class="st12" d="M1050.9,274.6c-7.5,6.9-8,16.5-9.8,25.5c-2.2,1.2-4.6,0.4-6.9,0.6c2-3.9-0.4-7.9,0.6-11.9
		C1036.4,282.2,1044.5,273.5,1050.9,274.6z"/>
	<path class="st19" d="M725.8,300.5c0.8-5.1,2.8-9.8,5.8-14c1.2-1.7,2.8-2.7,4.7-1.4c2.1,1.4,1.7,3.4,0.5,5.2c-2,3-3.6,6.1-4.2,9.7
		C730.5,301.6,728.2,301.4,725.8,300.5z"/>
	<path class="st20" d="M503.7,300.5c-1.1-2.8-2.2-5.6-4.1-8c-1.2-1.7-1.5-3.5,0.5-4.8c1.8-1.2,3.5-0.5,4.8,1.2
		c2.9,3.8,4.6,8.2,5.7,12.8C507.9,304.4,505.1,303.9,503.7,300.5z"/>
	<path class="st21" d="M1137.5,299c0.4-2.3,1.2-4.5,2.3-6.6c0.9-1.7,1.9-3.4,4.2-2.5c2.2,0.9,2.6,2.8,1.9,4.9
		c-0.4,1.4-0.8,2.8-1.2,4.1C1142.3,301.2,1139.9,301.8,1137.5,299z"/>
	<path class="st22" d="M897.1,299.3c0.8-1.8,1.5-3.6,2.2-5.4c0.9-2.2,2.2-4,4.9-3.3c3,0.8,2.2,3.4,2.1,5.5c0,0.6-0.4,1.2-0.7,1.8
		C903.4,302,900,299.5,897.1,299.3z"/>
	<path class="st5" d="M349.9,302c-0.4-1.6-1.4-3.1-1.3-4.9c0.1-1.5,0-3,1.9-3.4c1.8-0.4,3.1,0.3,3.9,1.9c0.9,1.9,1.8,3.8,2.6,5.7
		C354.8,304.1,352.3,302.6,349.9,302z"/>
	<path class="st23" d="M1213.6,299.8c9.8,0.8,19.5,1.1,29.3-0.3c-0.1,1.8-1.4,1.6-2.6,1.6c-8.1,0-16.2,0-24.2,0
		C1214.9,301.2,1213.8,301.3,1213.6,299.8z"/>
	<path class="st3" d="M162.3,284.9c10.7-1.7,10.7-1.7,12.7,8.9c0.1,0.3,0.1,0.5,0.1,0.8c0,5,0.9,5.6,5.5,4.6
		c2.4-0.5,4.9-1.1,7.4-1.6c2.1-0.4,3.6,0,3.9,2.6c0.3,2.6-0.9,3.1-3.2,3.1c-7.9,0.1-15.9-0.3-23.8,0.5c-2.1,0.2-4.4,0.4-2.8-3.3
		c0.7-1.7,0-4.1-0.2-6.2C161.7,291.1,160.9,287.9,162.3,284.9z"/>
	<path class="st7" d="M678.1,135.6c-18.5-19.8-47.9-13.4-60.9-0.3c-1.1,1.1-2.3,2.2-3.5,3.3c-3.8,3.8-8.3,4.6-13.1,2.2
		c-5.5-2.8-11.1-5.4-17-7.5c-15.7-6.9-30.4-4.9-44.3,4.8c-1.7,1.2-3.4,2.6-4.9,4c-1.2,1.1-2.3,2.3-1.8,4.1
		c-13.2,1.4-26.3,2.9-39.5,4.4c-2,0.2-3.3-0.3-3.5-2.6c-1.6-15.4-3.4-30.8-4.8-46.2c-0.6-6.7-0.1-6.7,6.7-8.1
		c23.6-4.8,47.6-6.4,71.4-9.1c30.8-3.5,61.7-5.1,92.6-5.9c22.5-0.6,45.2,0,67.5,4.3c12.7,2.5,12.6,1.7,11.8,15.8
		c-0.9,15-3,30-4.3,45c-0.3,3.6-1.5,4.8-5.2,4.5c-11.1-0.8-22.2-1.1-33.3-2.4c-1.3-4.6-5-6.8-8.9-8.7
		C681.5,136.3,679.8,136,678.1,135.6z"/>
	<path class="st14" d="M677.3,165.1c0.1,16.3-10.5,29.2-25.2,32.1c-13.8,2.7-28.7-5.6-34-19.1c-1.8-4.6-2.8-9.4-3.3-14.3
		c-1.2-10.1,2.4-18,10.8-23.9c13.7-9.6,32.7-9,42.8,1.8C675.1,148.6,676.5,157.5,677.3,165.1z"/>
	<path class="st14" d="M604.3,175.6c0,14.3-8.8,26.1-21.7,29.2c-14.9,3.5-34.2-8.9-38.8-24.9c-4.2-14.6,4.7-30.7,19.9-36
		c21.2-7.5,39.2,5.3,40.5,28.6C604.4,173.4,604.3,174.5,604.3,175.6z"/>
	<path class="st24" d="M651.7,267.6c0.1,1-0.8,1.9-2.1,2.5c-7.8,3.8-15.8,6.9-24.4,8.4c-2.6,0.5-3.9-0.2-4-3.2
		c-1.2-22.5-2.8-44.9-4.9-67.3c-0.1-1.3-0.1-2.6-0.2-4c-0.1-2.4,1.2-3.1,3.3-2.5c1.8,0.5,3.6,1,5.3,1.7c3.5,1.5,7.1,2.9,11,3.3
		c3.4,0.4,5.7,2.3,6.3,5.7c3.2,18,6.4,36,9.6,53.9C651.6,266.5,651.6,266.7,651.7,267.6z"/>
	<path class="st25" d="M614.2,275.2c0.7,3.2-1,4.5-4.4,4c-5.2-0.8-10.5-1.6-15.7-2.4c-2-0.3-3-1.6-3.2-3.5
		c-0.5-5.9-1.3-11.8-1.4-17.8c-0.2-13.4-0.1-26.7-0.2-40.1c0-2,0.4-3.5,2.3-4.6c4.4-2.4,8.7-5,13-7.6c2.1-1.2,3.5-1.4,3.6,1.6
		c0.4,22.9,3.9,45.5,5.8,68.3C614.1,273.7,614.1,274.3,614.2,275.2z"/>
	<path class="st26" d="M682.4,244.3c0.1,1.6-0.7,2.7-1.8,3.8c-5.2,5.5-11.3,10-17.5,14.3c-2.6,1.9-3.7,1-4.3-2.9
		c-2.1-13.2-4.3-26.3-8.1-39.2c-0.9-3-1.9-6.1-2.8-9.1c-0.7-2-0.3-3.5,2.1-3.6c4.8-0.3,9-2.1,13.2-4.1c2.9-1.4,4.8-0.9,6.1,2
		c5.7,12.2,9.4,25,12.9,37.9C682.3,243.8,682.3,244,682.4,244.3z"/>
	<path class="st7" d="M581.6,247.5c0,7.1,0,14.3,0.1,21.5c0,2.7-0.8,3.3-3.2,2.2c-5.7-2.5-11-5.9-16.2-9.3c-2.5-1.7-3.4-4.4-3.2-7.3
		c0.9-13.5,2.8-26.8,5.7-40.1c0.5-2.1,1.5-2.9,3.7-2.1c3.3,1.1,6.8,1.3,10.2,1c2.8-0.2,3.8,0.8,3.5,3.6
		C581.5,227.1,581.1,237.3,581.6,247.5z"/>
	<path class="st11" d="M531.9,217.7c0-8.4,2.1-14.6,7.2-19.7c2.1-2.1,3.9-2.4,6,0.1c2.8,3.2,6,6,9.8,8.1c2.3,1.3,3.1,3.1,2.5,5.6
		c-2.5,11.8-4.2,23.7-5.5,35.6c-0.1,1.3,0,3-1.3,3.5c-1.5,0.6-2.3-1.1-3.1-2c-5.3-6.1-10.1-12.6-13.1-20.2
		C532.8,224.7,531.8,220.7,531.9,217.7z"/>
	<path class="st14" d="M525.3,180.3c-1.8-6.8-3.4-13.6-2.4-20.7c3.7-1.3,7.5-1.2,11.3-1.6c2-0.2,3,0.3,2.3,2.6
		c-2.7,8.9-2.5,17.7,1.2,26.3c1.6,3.8-2,3.5-3.8,4.5c-3.5-2.8-5.2-7-8.2-10.2C525.1,181.1,525,180.8,525.3,180.3z"/>
	<path class="st14" d="M532.7,146.1c-1.3-0.3-3-0.1-1.4-2.3c8.9-12.9,35.2-19.9,49.4-12.9c1.2,0.6,2.5,1,3.1,2.4
		c-5.2-0.1-10.4-1.5-15.8-0.4c-7.7,1.6-14.7,4.4-20.2,10c-2.1,2.1-4.4,2.7-7.1,2.8C538,145.7,535.4,146,532.7,146.1z"/>
	<path class="st14" d="M698.9,159.3c1.2,8.3,1.1,16.5-1.8,24.5c-3.2-1.2-6.1-2.9-9.6-3.3c-1.6-0.2-1.5-1.5-1.1-2.8
		c1.6-5.5,2.1-11.1,1.1-16.8c-0.4-2.2,0.8-2.9,2.7-2.7C693.2,158.5,696,158.9,698.9,159.3z"/>
	<path class="st14" d="M678.1,135.6c2-1.5,3.7,0,5.4,0.6c3.7,1.4,6.4,4,8.9,6.8c0.9,1,1.9,2.2-0.5,2.7c-1.8-0.1-3.7-0.2-5.5-0.2
		c-1.7,0-2.9-0.7-3.8-2.3C681.2,140.7,679.6,138.2,678.1,135.6z"/>
	<path class="st14" d="M1024.6,145.4c0.2-17.6,10.5-26.8,28.7-25.5c10.5,0.7,18.9,5.6,23.6,15.2c4.5,9.1,4.7,18.5-1.2,27.2
		c-5.1,7.6-12.7,11-21.5,12c-2.7,0.3-4.5-1.1-6.1-3.1c-5.1-6.3-11-11.5-19.4-13c-1.9-0.3-2.8-1.9-3.2-3.7
		C1024.9,151.3,1024.5,148,1024.6,145.4z"/>
	<path class="st14" d="M961.3,143.2c-0.1-12.4,9.2-22.3,22-23.6c18.8-1.9,33.9,15.9,29.4,34.3c-0.7,2.8-2.1,4.5-5,5.3
		c-5.1,1.4-10,3.7-13.5,7.6c-4.5,5.1-9.6,4.6-15,2.5C969,165.5,961.4,154.1,961.3,143.2z"/>
	<path class="st27" d="M1030.5,236.8c3.8,2,7.2,0.3,10.6,0.1c1.2-0.1,2.7-0.7,3.4,0.3c0.8,1.1-0.4,2.2-1,3.2
		c-2.8,5-5.9,9.8-10.4,13.4c-6.8,5.5-14,5.2-20.4-0.9c-9.1-8.5-14.4-19.5-20.3-30.2c-1-1.9-0.4-2.9,1.5-3.5
		c7.2-2.4,13.8-6.2,20.1-10.4c2.3-1.5,4.3-1.5,6.6,0c8.8,6,17.8,11.6,28,14.8c2.3,0.7,2.4,2.1,1.3,3.9c-1.3,2.4-3.5,3.5-5.9,4.3
		C1039.5,233.5,1035,235.2,1030.5,236.8z"/>
	<path class="st12" d="M1126.5,264c0.3-2.3-1.7-3.4-2.7-5.1c-4.3-7.8-6.2-16.3-6.9-24.9c-1.5-17.7,2.2-34.6,8.9-50.9
		c2.2-5.5,1.4-6.6-2.2-11.3c-7-9.1-16.4-12.3-27.3-12.5c-0.6-0.2-0.6-0.5-0.1-0.8c7.9-0.2,15.4,2.2,23.1,3.4
		c6,0.9,11.9,2.5,17.9,3.4c4.2,0.6,4.7,2.9,4,6.4c-1.7,7.6-3.9,15.1-4.9,22.8c-2.3,18.2-2.2,36.3,0.3,54.5c0.3,2.1,0.8,4.2-0.1,6.2
		C1132.2,256.9,1129.7,260.8,1126.5,264z"/>
	<path class="st14" d="M980.7,191.4c-15-6-28-14.2-32.3-31c-1.6-6.3-1.4-12.8,2-18.8c2.1,0.6,2.3,2.3,2.4,4.1
		c0.9,17.6,15,32.5,28.8,34.9c2.8,0.5,3.6,1.9,2.4,4.5C982.9,187.2,982.5,189.6,980.7,191.4z"/>
	<path class="st14" d="M1096.3,158.4c-4.9-1.4-6.4-0.8-9,4.4c-4,7.8-9.7,13.8-17.6,17.5c-2.3,1.1-4.9,1.9-7.3,2.8
		c0.9-0.5-2.1,0.5-4.1,1.3c-0.9,0.4,1.4,3.6,2.3,4c1.7-0.8,2.7-0.8,4.1-0.9c2.8-0.1,7.7-2.4,7.7-2.4c11.3-4.9,20.9-14.5,24-25.9
		C1096.4,158.9,1096.4,158.7,1096.3,158.4z"/>
	<path class="st28" d="M210.4,236c-7.6,0.1-16.1-5.9-24.2-12.8c-5.9-5.1-11.4-10.8-16.3-16.9c-1.6-2-2.9-4.1-3.9-6.4
		c-3-7.7-0.8-14.5,6.2-18.9c5.3-3.4,11.3-5,17.4-4.9c22.5,0.5,44.7-3.2,67-4.8c7-0.5,10.5,3.5,9,10.4c-0.4,1.8-1,3.6-1.8,5.2
		c-7.1,14.6-15.6,28.3-27.1,39.9C230.6,232.7,222.5,236,210.4,236z"/>
	<path class="st29" d="M257,115.6c0,4.2-3,7.5-6.9,7.6c-4.1,0.1-7.2-3-7.1-7.2c0.1-4.4,3.5-8.3,7.4-8.2
		C254.1,107.8,257,111.1,257,115.6z"/>
	<path class="st30" d="M189.8,114.6c4.1,0,7.4,3.7,7.4,8.2c0,4.3-3.4,7.8-7.8,7.8c-4.3,0-7.4-3.4-7.3-8.1
		C182.2,118,185.5,114.5,189.8,114.6z"/>
	<path class="st12" d="M1096.2,285.6c-5.8-2.5-11.4-0.2-17,0.9c-7.5,1.5-7.5,1.6-11.2-5c-0.7-1.3-1.4-2.5-2.2-3.8
		c4.4,2.8,9,2.4,13.9,1.5c4.3-0.7,8.8-0.4,11.9,3.6C1092.8,284.3,1095.3,283.7,1096.2,285.6z"/>
	<path class="st31" d="M1060.3,273.8c-3.2-0.8-6.3-0.1-9.4,0.8C1053.9,272.2,1056.9,270.9,1060.3,273.8z"/>
	<path class="st32" d="M525.7,181.2c-1.3,3-3.8,4.3-6.7,5c-3.1,0.8-4.3,2.6-4,5.8c0.2,1.7,0.1,3.4,0,5.1c-0.1,1.1-0.8,2-2,2.1
		c-1.1,0.1-2.1-0.2-2.8-1.1c-2.2-2.9-2-11.6,0.4-14.4c3-3.4,11.3-5.4,14.8-3.5C525.4,180.6,525.6,180.9,525.7,181.2z"/>
	<path class="st33" d="M722.3,185.8c-0.1,1.1-0.1,2.8-0.4,4.5c-0.3,1.4-1.3,2.3-2.9,2.1c-1.6-0.1-2.6-1.2-2.3-2.7
		c1.4-7.4-1.6-10.9-9-11.1c-1.6,0-2.6-1.4-2.3-3.1c0.3-1.6,1.5-2.1,2.9-2.2c3.3-0.1,6.7,0.1,9.8,1.5
		C722.6,177,722.1,181.2,722.3,185.8z"/>
	<path class="st34" d="M609.1,113.1c-6.4,0-12.7,0-19.1,0.1c-2.5,0-4.5-0.6-4.9-3.4c-0.4-3,1.5-4.2,4.1-4.8
		c3.4-0.8,6.9-0.7,10.3-0.7c2.2,0,3.8-0.4,4-3.1c0.2-2.7,1.9-4.4,4.6-4.8c3.1-0.5,5.8,0.7,6.9,3.5c1.1,2.7,2.8,3.1,5.3,2.9
		c3.3-0.2,6.6-0.2,9.9-0.1c2.6,0.1,4.8,1.1,5,4c0.3,3.1-1.8,4.3-4.4,4.5c-7.3,0.7-14.5,1.1-21.8,1.6
		C609.1,112.9,609.1,113,609.1,113.1z"/>
	<path class="st35" d="M646.1,156.6c0,4.4-3.4,8-7.6,8c-4.2,0-8-4-8-8.3s3.6-8,7.7-8C642.5,148.2,646.1,152,646.1,156.6z"/>
	<path class="st36" d="M590.9,161.6c0,4.8-3.6,8.8-7.9,8.8s-7.7-3.8-7.6-8.5c0.1-4.6,3.6-8,8.1-8
		C587.8,153.9,590.9,157.2,590.9,161.6z"/>
	<path class="st14" d="M696.9,194.9c-5-8.1-13.2-9-19.6-2.4c-0.8,0.9-1.6,1.8-2.5,2.5c-2.1,1.7-2.3,3.5-0.8,5.8
		c3.6,5.4,6.1,11.4,8.7,17.4c2,4.8,2.9,10.1,5.6,14.7c-0.2,1.2-0.5,2.6,1,3c1.4,0.4,2-1,2.5-2.1c2.6-4.9,5.3-9.8,6.9-15.2
		C701.1,210.6,701.6,202.5,696.9,194.9z"/>
	<path d="M1047.2,145.8c-4.2,0-7.6-3.3-7.7-7.5c-0.1-4.2,3.6-8.4,7.4-8.4c4.1-0.1,8.2,4,8.2,8.2
		C1055.3,142,1051.3,145.8,1047.2,145.8z"/>
	<path class="st6" d="M988.4,134.9c0.1,3.7-3,7.2-6.5,7.2c-3.3,0-6.1-2.9-6.2-6.4c-0.1-3.7,2.7-6.7,6.3-6.9
		C985.4,128.6,988.3,131.3,988.4,134.9z"/>
	<path class="st0" d="M1053.2,10.2c2.6-1.3,4.2-3.6,8.3-6.5c9.1-4.8,15.2-4.9,24.4-0.1c4,2.1,7.5,5,9.7,8.7
		c7.1,12.9,4.1,23.7-2.5,35.2c0.6-6.7,1.1-12.3-0.4-19c-1.3-5.8-3.4-11-7.9-15.2c-6.2-5.7-16-6.3-22.7-1.2c-5.2,3.9-4.2,3.9-7.8-1.3
		C1053.9,10.3,1053.5,10.7,1053.2,10.2z"/>
	<path class="st0" d="M1242.1,268.7c-6-12.2-16.4-16.5-29.3-15.9c-7.6,0.4-15,0.2-22.3-2.3c-6.2-2.1-12.6-0.5-18.9,0
		c2.4-6.1,7.8-9.2,13-12.1c7.1-3.8,15.3-5.2,21.9,0c10.6,8.3,22.3,8.6,34.7,7.8c1.8,3.8,1.3,8,1.7,12
		C1242.3,261.7,1243.6,265.3,1242.1,268.7z"/>
	<path class="st0" d="M859.6,298.7c0.1-1.7,1.3-2.8,2.1-4.1c0.9-1.5,0.6-2.6-0.4-3.8c1.2-0.1,2.4,1.1,3.5-0.6
		c4.3-6.5,10.4-11.2,16.9-15.2c0.3,0,0.6,0,0.9,0.1c-2.2,3.8-4.4,7.5-6.6,11.2c-1.9,3.2-3.3,6.5-4,10.2c-0.5,1.5-1.2,2.4-3,2.3
		C865.9,298.6,862.7,298.7,859.6,298.7z"/>
	<path class="st0" d="M1120.8,298.3c3.8-10.8,7.9-21.4,15.8-30c3.8-4.3,8.4-7.1,14.3-7.7c9.3-1,15.1,3.8,19.1,11.4
		c4.5,8.5,6.7,17.5,5.9,27.1c-1.3,0.8-2.7,0.8-4.2,0.8c-7.8,0-15.5,0-23.3,0c-1.3,0-2.7,0.3-3.7-0.8c-1.1-1.7,0.2-3.3,0.2-5
		c0-1.3-0.2-2.5-1.6-2.8c-1.3-0.3-1.8,0.8-2.4,1.6c-1.4,1.9-1.2,4.7-3.3,6.2C1131.9,300.9,1126.3,299.3,1120.8,298.3z"/>
	<path class="st0" d="M918.5,268.5c12.1,7.1,14.4,19.3,16.1,31.6c-0.9,1-2.2,0.8-3.3,0.8c-7.7-0.1-15.4,0.2-23-0.8
		c-1.5-0.2-2.6-0.4-2.5-2.2c-0.1-0.1-0.1-0.2-0.2-0.4c-0.6-1.9,1.1-5-2.1-5.5c-2.8-0.4-3.1,2.7-4.2,4.5c-0.6,1-1.3,2-2.2,2.7
		c-4.1,0-8.2,0-12.3,0c-1.6,0-2.9-0.3-3-2.2c2.9-6.6,4.6-13.9,9.8-19.3c5.7-5.9,11.6-11.3,20.8-10.6
		C914.5,267.4,916.4,268.3,918.5,268.5z"/>
	<path class="st0" d="M1010.5,299.3c-3.2-4.7-5.1-10.1-7.6-15.2c-2.8-5.6-6.2-10.8-10.3-15.4c-7.3-8.3-16.6-10-26.7-6.4
		c-5.1,1.8-9.6,1.4-14.1-0.9c-6.9-3.6-13.8-4.2-20.9-0.4c-4.5,2.4-8.1-0.6-12-1.9c4.4-0.3,7.8-2.4,10.7-5.5c1.7-1.8,3.5-3.6,5.7-4.9
		c4.5-2.8,14.3-1.8,18,1.9c7.5,7.3,11,5.9,20.4,3c10-3.1,19.1-0.4,26.5,7.4c4.8,5,9.2,10.3,11.6,16.9c2.1,5.9,6.3,10.3,10.9,14.4
		c2.5,2.3,5.3,4.5,5.7,8.2C1022.4,300.2,1016.3,301.7,1010.5,299.3z"/>
	<path class="st0" d="M1213.4,298.1c1.1-11-1.8-21.2-7.2-30.7c-1.5-2.7-1.2-4,1.7-4.8c13.4-4.1,21.9-1.5,29.6,14.1
		c2.5,5,3.5,10.5,4.6,16c-0.6,2.4,0.7,4.6,0.7,6.9c-0.5,1.2-1.6,1.2-2.7,1.2c-8.1,0-16.1,0-24.2,0c-1,0-1.8-0.1-2.4-1
		C1213.5,299.3,1213.4,298.7,1213.4,298.1z"/>
	<path class="st0" d="M1182.5,291.1c-1-9.7-3.5-18.9-9.7-26.8c-2.1-2.7-1.3-4,1.7-5.1c10.8-4.1,22.3,0.2,26.7,10.9
		c3.5,8.4,6.2,17.1,5.7,26.5c-0.6,3.4-2.7,4.1-6,3.9c-4.3-0.3-8.7-0.3-13.1-0.2c-3.7,0.1-5.4-1.1-4.9-5
		C1183.1,294,1183.4,292.4,1182.5,291.1z"/>
	<path class="st0" d="M941.1,296.3c-1.5-8.6-3.7-17.1-8.8-24.4c-1.7-2.4-0.8-3.4,1.5-4.4c8.3-3.9,19.1-0.5,24.7,8
		c5,7.7,7.3,16.3,8,25.4c-5.5,1.2-11,0.5-16.5,0.4c-0.8,0-1.6-0.4-2.3-0.2C943.7,301.8,941.4,300.4,941.1,296.3z"/>
	<path class="st0" d="M972.9,297.2c-1-8.5-3.3-16.6-7.8-23.9c-1.2-2-0.4-2.7,1.3-3.6c7.7-3.8,15.8-2.4,21.2,4.2
		c6.5,7.8,10.7,17,14.7,26.2c-3.5,2-7.4,1.8-11.1,1.3c-4.3-0.5-8.7-0.6-13-0.4C975.2,301.1,973.3,300.4,972.9,297.2z"/>
	<path class="st0" d="M984.4,84.3c-0.1-4.7,1.2-5.9,5.6-4.7c4.7,1.2,9.3,2.9,14,4.4c1.9,0.6,2.3,2.1,1.8,3.8
		c-1.9,7.4-4.5,14.6-5.8,22.2c-0.2,1.2-1,1.8-2.2,1.8c-2,0.2-3.3-1-4.2-2.5c-3.1-5.7-6.4-11.2-8-17.6
		C985.1,89.2,984.4,86.8,984.4,84.3z"/>
	<path class="st0" d="M1105.5,97.9L1105.5,97.9c-0.9-1.5-2.4-1.5-3.8-1.4c-5.5,0.6-11,1.3-16.5,1.9c-10.9,1.2-21.9,1.5-32.8-0.3
		c-8.3-1.4-15.7-5.4-23.2-9l0,0l0,0c0.8-2.4,2.6-1.2,3.9-0.9c11,2.6,22.2,4,33.5,3.6c2.5-0.1,4.4-0.6,5.1-3.4
		c3.1-14.1,8-27.7,12-41.5c2.3-7.8,3.1-15.9-0.9-23.6c-3.9-7.4-10.9-9.4-18.1-5.1c-5.2,3.1-8.2,7.7-10.3,13.2
		c-0.7,1.8-0.9,3.9-3,5.1c-1.4-2.3-0.8-4.7-0.5-7c0.4-2.8,0.4-5.5-0.1-8.3c-0.8-4.2-2.8-7.6-7.1-8.7c-4.1-1.1-7.5,0.7-10.4,3.5
		c-6.5,6.2-7.9,14.5-9.1,22.8c-2.5,17.2-5.5,34.2-11,50.7c-2.2,6.7-4.5,13.3-6.6,20c-0.9,2.8-1.5,7.5,1.8,9.1c4.9,2.3,9.2,8.1,12,6
		c12-9,16-13,34-13c20,0,26,14,31,13c4.7-4.4,16.1-15.5,19.7-21C1106.2,101.8,1107.5,100,1105.5,97.9z M1059.5,100L1059.5,100
		L1059.5,100L1059.5,100z"/>
	<path class="st14" d="M223.5,205.8c5.3,0.9,9.6,0,14,0.2c1,0,2.3-0.5,2.9,0.6c0.7,1.1-0.4,2-1,2.8c-3.4,4.9-7.1,9.6-12.1,13
		c-7.9,5.3-16,6-24.4,1.2c-11.3-6.4-20.1-15.5-27.5-26c-2.7-4-2-6.7,2.2-9.2c2.4-1.5,5.1-2.4,7.9-2.7c3.2-0.4,6.3-0.9,9.5-0.9
		c19.1,0.1,38.2-0.7,57.1-3.9c1.2-0.2,2.9-0.9,3.8,0.3c1.1,1.4-0.4,2.7-1.1,3.9c-8.2,14.5-5.8,13.8-22.6,17.6
		C229.6,203.4,226.9,204,223.5,205.8z"/>
	<path class="st37" d="M1041,138c0.1-3.9,2.7-6.8,6.3-6.8c3.8,0,6.7,3.1,6.7,6.9c0,3.5-3.1,6.6-6.6,6.6
		C1043.5,144.7,1040.9,141.9,1041,138z"/>
</g>
</svg>
