<?xml version="1.0" encoding="utf-8"?>
<!-- Generator: Adobe Illustrator 24.1.3, SVG Export Plug-In . SVG Version: 6.00 Build 0)  -->
<svg version="1.1" id="Layer_1" xmlns="http://www.w3.org/2000/svg" xmlns:xlink="http://www.w3.org/1999/xlink" x="0px" y="0px"
	 viewBox="0 0 764.85 393.39" style="enable-background:new 0 0 764.85 393.39;" xml:space="preserve">
<style type="text/css">
	.st0{fill:#F590F5;}
	.st1{fill:none;stroke:#F590F5;stroke-width:5.0581;stroke-dasharray:6.2923,6.2923;}
	.st2{fill:none;stroke:#F590F5;stroke-width:3.6145;stroke-linecap:round;}
	.st3{fill:none;stroke:#F590F5;stroke-width:5.9323;stroke-dasharray:7.3797,7.3797;}
	.st4{fill:none;stroke:#F590F5;stroke-width:3.561;stroke-dasharray:4.4299,4.4299;}
	.st5{fill:none;stroke:#F590F5;stroke-width:2.9276;stroke-linecap:round;}
	.st6{fill:none;stroke:#F590F5;stroke-width:4.5593;stroke-dasharray:5.6718,5.6718;}
	.st7{fill:none;stroke:#F590F5;stroke-width:7.851;stroke-dasharray:9.7666,9.7666;}
	.st8{fill:none;stroke:#F590F5;stroke-width:5.7642;stroke-dasharray:7.1705,7.1705;}
	.st9{fill:none;stroke:#F590F5;stroke-width:4.7188;stroke-dasharray:5.8701,5.8701;}
	.st10{fill:none;stroke:#F590F5;stroke-width:3.3769;stroke-linecap:round;}
	.st11{fill:none;stroke:#F590F5;stroke-width:2.7353;stroke-linecap:round;}
	.st12{fill:none;stroke:#F590F5;stroke-width:2.3278;stroke-linecap:round;}
	.st13{fill:none;stroke:#F590F5;stroke-width:3.1003;stroke-linecap:round;}
	.st14{fill:none;stroke:#F590F5;stroke-width:3.1344;stroke-linecap:round;}
	.st15{fill:none;stroke:#F590F5;stroke-width:2.7037;stroke-linecap:round;}
</style>
<g>
	<polygon class="st0" points="217.65,166.39 248.12,138.36 257.15,178.77 	"/>
	<polygon class="st0" points="401.13,14.32 418.01,7.29 415.66,25.42 	"/>
	<g>
		<path class="st1" d="M73.17,43.91c-2.84,7.21-10.98,10.75-18.19,7.91c-7.21-2.84-10.75-10.98-7.91-18.19
			c2.84-7.21,10.98-10.75,18.19-7.91C72.47,28.56,76.01,36.7,73.17,43.91z"/>
	</g>
	<path class="st2" d="M15.86,125.37c4.15-5.58-9.66-17.93-5.56-23.45c4.1-5.52,19.27,3.39,22.8-1.36
		c3.53-4.75-9.21-18.02-5.47-23.06c3.75-5.04,19.54,4.3,23.79-1.42"/>
	<g>
		<path class="st3" d="M312.33,160.84c-3.33,8.45-12.88,12.6-21.33,9.27c-8.45-3.33-12.61-12.88-9.28-21.33
			c3.33-8.45,12.88-12.61,21.33-9.28C311.51,142.84,315.66,152.39,312.33,160.84z"/>
	</g>
	<g>
		<path class="st4" d="M379.64,30.77c-0.87,5.38-5.93,9.04-11.32,8.18c-5.38-0.87-9.04-5.93-8.18-11.32
			c0.87-5.38,5.93-9.05,11.32-8.18C376.85,20.32,380.51,25.39,379.64,30.77z"/>
	</g>
	<path class="st5" d="M385.92,63.93c1.35,3.32,10.5,0.53,11.84,3.82c1.34,3.29-6.65,7.6-5.5,10.43c1.15,2.83,10.42,0.75,11.64,3.75
		c1.22,3-7.12,7.47-5.73,10.88"/>
	<path class="st2" d="M169.68,78.87c1.53-6.76-16.05-12.43-14.54-19.12c1.51-6.69,18.93-4.7,20.23-10.45
		c1.3-5.75-15.68-12.7-14.3-18.8c1.38-6.11,19.55-3.98,21.11-10.91"/>
	<g>
		<path class="st6" d="M406.31,173.21c-1.11,6.89-7.6,11.58-14.49,10.47c-6.89-1.11-11.58-7.6-10.47-14.49
			c1.11-6.89,7.6-11.58,14.49-10.47C402.74,159.83,407.42,166.32,406.31,173.21z"/>
	</g>
	<path class="st2" d="M269.23,46.17c5.34-4.42-5.11-19.65,0.17-24.02c5.28-4.37,17.86,7.84,22.4,4.08
		c4.54-3.76-4.66-19.63,0.16-23.63c4.83-4,17.9,8.79,23.38,4.25"/>
	<path class="st2" d="M1.81,262.06c3.9,3.22,13.39-6.36,17.25-3.17c3.86,3.19-3.17,13.88,0.15,16.62
		c3.32,2.74,13.43-6.03,16.96-3.12c3.53,2.91-3.85,14.04,0.15,17.34"/>
	<g>
		<path class="st7" d="M266.93,268.71c-3.52,11.49-15.7,17.95-27.19,14.43c-11.49-3.52-17.95-15.7-14.43-27.19
			c3.52-11.49,15.7-17.96,27.19-14.43C263.99,245.04,270.45,257.22,266.93,268.71z"/>
	</g>
	<g>
		<path class="st3" d="M312.33,328.35c-3.33,8.45-12.88,12.6-21.33,9.28c-8.45-3.33-12.61-12.88-9.28-21.33
			c3.33-8.45,12.88-12.61,21.33-9.28C311.51,310.35,315.66,319.9,312.33,328.35z"/>
	</g>
	<g>
		<path class="st8" d="M52,373.76c-2.59,8.44-11.53,13.18-19.96,10.59c-8.44-2.59-13.18-11.52-10.59-19.96
			c2.59-8.44,11.53-13.18,19.96-10.59C49.84,356.38,54.59,365.32,52,373.76z"/>
	</g>
	<path class="st2" d="M330.64,185.77c2.38,5.85,18.47,0.93,20.82,6.72c2.35,5.78-11.7,13.37-9.67,18.34
		c2.03,4.97,18.32,1.32,20.47,6.6c2.15,5.28-12.53,13.15-10.09,19.14"/>
	<path class="st2" d="M177.37,251.31c-1.11-6.84-19.54-5.53-20.64-12.3c-1.1-6.77,15.8-11.44,14.85-17.26
		c-0.95-5.82-19.29-5.91-20.3-12.09c-1.01-6.18,16.64-10.99,15.5-18.01"/>
	<path class="st2" d="M146.14,360.56c-6.78,1.45-4.55,19.79-11.26,21.22c-6.7,1.44-12.21-15.21-17.98-13.97
		c-5.77,1.24-4.95,19.56-11.07,20.87c-6.13,1.31-11.81-16.07-18.76-14.58"/>
	<polygon class="st0" points="530.46,223.83 547.34,216.79 545,234.93 	"/>
	<g>
		<path class="st3" d="M499.48,33.81c-3.33,8.45-12.88,12.6-21.33,9.28c-8.45-3.33-12.6-12.88-9.28-21.33
			c3.33-8.45,12.88-12.61,21.33-9.28C498.66,15.81,502.81,25.36,499.48,33.81z"/>
	</g>
	<path class="st2" d="M456.05,79.81c-3.94,4.77,7.78,16.37,3.88,21.09c-3.89,4.72-16.97-3.88-20.32,0.18
		c-3.35,4.06,7.38,16.42,3.82,20.74c-3.56,4.31-17.17-4.7-21.2,0.19"/>
	<path class="st2" d="M552.84,120.46c6-3.48-1.79-20.22,4.14-23.66c5.93-3.44,16.31,10.69,21.42,7.73
		c5.1-2.96-1.34-20.13,4.07-23.27c5.42-3.14,16.2,11.64,22.35,8.07"/>
	<path class="st2" d="M699.87,46.17c5.34-4.42-5.11-19.65,0.17-24.02c5.28-4.37,17.86,7.84,22.4,4.08
		c4.54-3.76-4.66-19.63,0.16-23.63c4.83-4,17.9,8.79,23.38,4.25"/>
	<path class="st2" d="M456.97,281.02c5.03-0.6,4.64-14.07,9.61-14.67c4.97-0.59,7.85,11.88,12.12,11.37
		c4.28-0.51,4.91-13.88,9.45-14.42c4.54-0.54,7.5,12.48,12.65,11.86"/>
	<g>
		<path class="st9" d="M474.7,370.4c-2.12,6.91-9.44,10.79-16.34,8.67c-6.91-2.12-10.79-9.43-8.67-16.34
			c2.12-6.91,9.44-10.79,16.34-8.67C472.94,356.17,476.82,363.49,474.7,370.4z"/>
	</g>
	<path class="st2" d="M606.55,248.38c-1.11-6.84-19.53-5.53-20.64-12.3c-1.1-6.77,15.8-11.44,14.85-17.26
		c-0.95-5.82-19.29-5.91-20.3-12.09c-1.01-6.18,16.64-10.99,15.5-18.01"/>
	<path class="st2" d="M513.86,391.58c8.1-2.06,4.58-24.04,12.59-26.07c8.01-2.04,15.39,17.77,22.29,16.01
		c6.89-1.75,5.07-23.78,12.38-25.64c7.32-1.86,14.95,18.82,23.26,16.71"/>
	<g>
		<path class="st7" d="M690.25,90.01c-3.52,11.49-15.7,17.95-27.19,14.43c-11.49-3.52-17.95-15.7-14.43-27.19
			c3.52-11.49,15.7-17.96,27.19-14.43C687.31,66.34,693.77,78.51,690.25,90.01z"/>
	</g>
	<path class="st10" d="M315.41,94.21c0,2.32-1.88,4.19-4.19,4.19s-4.19-1.88-4.19-4.19c0-4.63,3.76-8.39,8.39-8.39
		s8.39,3.76,8.39,8.39c0,6.95-5.63,12.58-12.58,12.58s-12.58-5.63-12.58-12.58c0-9.27,7.51-16.78,16.78-16.78
		s16.78,7.51,16.78,16.78c0,11.58-9.39,20.97-20.97,20.97s-20.97-9.39-20.97-20.97c0-13.9,11.27-25.17,25.17-25.17
		s25.17,11.27,25.17,25.17"/>
	<path class="st11" d="M188.64,298.84c-1.81,0.49-3.68-0.58-4.17-2.39c-0.49-1.81,0.58-3.68,2.39-4.17
		c3.62-0.98,7.35,1.16,8.33,4.79c0.98,3.62-1.16,7.35-4.79,8.33c-5.43,1.47-11.03-1.74-12.5-7.18c-1.47-5.43,1.74-11.03,7.18-12.5
		c7.25-1.96,14.71,2.32,16.67,9.57c1.96,7.25-2.32,14.71-9.57,16.67c-9.06,2.45-18.38-2.91-20.83-11.96
		c-2.45-9.06,2.91-18.38,11.96-20.83c10.87-2.94,22.06,3.49,25,14.36c2.94,10.87-3.49,22.06-14.36,25"/>
	<path class="st12" d="M116.99,18.45c0.04-1.6,1.37-2.86,2.97-2.81c1.6,0.04,2.86,1.37,2.81,2.97c-0.09,3.19-2.75,5.71-5.94,5.62
		c-3.19-0.09-5.71-2.75-5.62-5.94c0.13-4.79,4.12-8.57,8.91-8.44c4.79,0.13,8.57,4.12,8.44,8.91c-0.17,6.39-5.49,11.42-11.88,11.25
		c-6.39-0.17-11.42-5.49-11.25-11.88c0.22-7.98,6.86-14.28,14.85-14.06c7.98,0.22,14.28,6.86,14.06,14.85
		c-0.26,9.58-8.24,17.13-17.81,16.87c-9.58-0.26-17.13-8.24-16.87-17.81"/>
	<path class="st13" d="M485.32,208.48c1.55-1.45,3.99-1.38,5.44,0.17c1.45,1.55,1.38,3.99-0.17,5.44c-3.1,2.91-7.98,2.75-10.89-0.35
		s-2.75-7.98,0.35-10.89c4.65-4.36,11.97-4.13,16.33,0.52s4.13,11.97-0.52,16.33c-6.21,5.82-15.95,5.51-21.77-0.7
		c-5.82-6.21-5.51-15.95,0.7-21.77c7.76-7.27,19.94-6.88,27.22,0.87c7.27,7.76,6.88,19.94-0.87,27.22
		c-9.31,8.73-23.93,8.26-32.66-1.05s-8.26-23.93,1.05-32.66"/>
	<path class="st14" d="M738.09,93.18c-2.08,0.56-4.21-0.67-4.78-2.74c-0.56-2.08,0.67-4.21,2.74-4.78c4.15-1.12,8.43,1.33,9.55,5.48
		s-1.33,8.43-5.48,9.55c-6.23,1.68-12.64-2-14.33-8.23s2-12.64,8.23-14.33c8.3-2.25,16.85,2.66,19.1,10.97
		c2.25,8.3-2.66,16.85-10.97,19.1c-10.38,2.81-21.07-3.33-23.88-13.71s3.33-21.07,13.71-23.88c12.45-3.37,25.28,4,28.65,16.45
		c3.37,12.45-4,25.28-16.45,28.65"/>
	<path class="st15" d="M614.57,314.76c1.29,1.33,1.25,3.46-0.08,4.75s-3.46,1.25-4.75-0.08c-2.58-2.67-2.5-6.92,0.17-9.5
		c2.67-2.58,6.92-2.5,9.5,0.17c3.87,4,3.75,10.38-0.25,14.25c-4,3.87-10.38,3.75-14.25-0.25c-5.15-5.34-5-13.84,0.33-18.99
		c5.34-5.15,13.84-5,18.99,0.33c6.44,6.67,6.26,17.3-0.42,23.74c-6.67,6.44-17.3,6.26-23.74-0.42c-7.73-8.01-7.51-20.76,0.5-28.49
		c8.01-7.73,20.76-7.51,28.49,0.5"/>
	<g>
		<path class="st6" d="M750.17,320.79c-1.11,6.89-7.6,11.58-14.49,10.47c-6.89-1.11-11.58-7.6-10.47-14.49
			c1.11-6.89,7.6-11.58,14.49-10.47C746.59,307.41,751.28,313.9,750.17,320.79z"/>
	</g>
	<g>
		<path class="st6" d="M753.83,210.2c-1.11,6.89-7.6,11.58-14.49,10.47c-6.89-1.11-11.58-7.6-10.47-14.49
			c1.11-6.89,7.6-11.58,14.49-10.47C750.26,196.82,754.94,203.3,753.83,210.2z"/>
	</g>
	<circle class="st0" cx="182.91" cy="129.18" r="16.15"/>
	<path class="st0" d="M316.43,39.87c0-5.51,4.47-9.98,9.98-9.98c5.51,0,9.98,4.47,9.98,9.98s-4.47,9.98-9.98,9.98
		C320.89,49.85,316.43,45.38,316.43,39.87z"/>
	<circle class="st0" cx="123.48" cy="105.99" r="10.77"/>
	<polygon class="st0" points="90.47,78.37 96.04,50.49 117.4,69.26 	"/>
	<polygon class="st0" points="202.76,29.36 221.92,38.07 204.8,50.31 	"/>
	<polygon class="st0" points="8.22,146.64 27.54,160.86 5.56,170.48 	"/>
	<polygon class="st0" points="94.72,143.68 77.95,146.1 70.43,161.3 62.94,146.09 46.17,143.64 58.32,131.81 55.47,115.1 
		70.46,123.01 85.48,115.13 82.6,131.84 	"/>
	<polygon class="st0" points="376.68,140.95 365.58,137.09 356.11,144.04 356.35,132.29 346.81,125.43 358.06,122.03 361.63,110.84 
		368.34,120.49 380.09,120.43 372.99,129.79 	"/>
	<polygon class="st0" points="225.74,218.88 214.64,215.01 205.17,221.97 205.41,210.22 195.87,203.36 207.12,199.96 210.7,188.77 
		217.41,198.41 229.16,198.36 222.05,207.72 	"/>
	<polygon class="st0" points="215.38,333.81 254.75,320.99 246.16,361.49 	"/>
	<circle class="st0" cx="129.48" cy="278.46" r="12.19"/>
	
		<ellipse transform="matrix(0.9257 -0.3783 0.3783 0.9257 -115.0936 159.7305)" class="st0" cx="349.03" cy="372.83" rx="17.38" ry="17.38"/>
	<polygon class="st0" points="90.55,247.98 97.46,213.41 123.94,236.68 	"/>
	<circle class="st0" cx="316.71" cy="264.88" r="16.74"/>
	<polygon class="st0" points="2.14,312.46 27.66,324.06 4.85,340.36 	"/>
	<polygon class="st0" points="100.12,320.33 83.34,322.76 75.83,337.95 68.34,322.74 51.57,320.29 63.72,308.47 60.86,291.76 
		75.86,299.66 90.87,291.78 87.99,308.49 	"/>
	<polygon class="st0" points="414.03,270.41 402.93,266.55 393.46,273.5 393.7,261.75 384.16,254.89 395.41,251.49 398.99,240.3 
		405.7,249.95 417.45,249.89 410.34,259.25 	"/>
	<polygon class="st0" points="206.58,387.83 193.97,383.44 183.19,391.35 183.47,377.99 172.62,370.19 185.41,366.33 189.48,353.6 
		197.11,364.57 210.47,364.5 202.39,375.15 	"/>
	<polygon class="st0" points="292.38,362.63 298.72,381.48 279.05,378.54 	"/>
	<polygon class="st0" points="644.63,163.46 675.1,135.43 684.14,175.84 	"/>
	<circle class="st0" cx="613.55" cy="130.64" r="16.15"/>
	<path class="st0" d="M742.86,41.8c0-6.07,4.92-10.99,10.99-10.99c6.07,0,10.99,4.92,10.99,10.99s-4.92,10.99-10.99,10.99
		C747.79,52.8,742.86,47.87,742.86,41.8z"/>
	<circle class="st0" cx="620.29" cy="45.54" r="9.78"/>
	<polygon class="st0" points="653.74,7.67 672.9,16.38 655.77,28.62 	"/>
	<polygon class="st0" points="435.2,151.76 454.52,165.99 432.54,175.61 	"/>
	<circle class="st0" cx="432.54" cy="50.35" r="8.73"/>
	<polygon class="st0" points="517.31,149.54 500.54,151.96 493.02,167.16 485.53,151.95 468.76,149.5 480.91,137.67 478.06,120.96 
		493.05,128.87 508.07,120.99 505.19,137.7 	"/>
	<polygon class="st0" points="653.46,218.14 642.36,214.28 632.89,221.23 633.13,209.49 623.59,202.63 634.84,199.23 638.42,188.03 
		645.12,197.68 656.87,197.63 649.77,206.99 	"/>
	<polygon class="st0" points="723.24,364.64 751.53,351.23 749,382.44 	"/>
	<circle class="st0" cx="692.52" cy="213.63" r="12.02"/>
	<polygon class="st0" points="539.04,181.37 544.62,153.5 565.97,172.26 	"/>
	<polygon class="st0" points="546.58,326.12 563.45,319.08 561.11,337.22 	"/>
	<polygon class="st0" points="433.89,308.97 451.75,317.09 435.79,328.49 	"/>
	<polygon class="st0" points="519,326.13 505.4,328.1 499.31,340.41 493.24,328.09 479.64,326.1 489.49,316.52 487.18,302.97 
		499.33,309.38 511.5,302.99 509.17,316.53 	"/>
	<polygon class="st0" points="637.7,390.29 626.6,386.43 617.13,393.38 617.37,381.63 607.83,374.77 619.08,371.37 622.65,360.18 
		629.36,369.83 641.11,369.77 634.01,379.13 	"/>
	<polygon class="st0" points="409.62,211.13 426.5,204.1 424.15,222.23 	"/>
	<path class="st0" d="M286.19,216.41c0.57,0.21,1.05,0.16,1.43-0.14c0.38-0.3,0.75-0.91,1.08-1.82l5.08-14.19
		c0.46-1.27,1.28-2.19,2.49-2.76c1.2-0.57,2.4-0.63,3.61-0.2c1.23,0.44,2.12,1.27,2.66,2.48c0.54,1.21,0.58,2.46,0.12,3.75
		l-5.05,14.1c-0.77,2.13-1.82,3.83-3.15,5.09c-1.32,1.26-2.85,2.05-4.58,2.36c-1.72,0.31-3.57,0.11-5.54-0.59
		c-0.7-0.25-1.24-0.48-1.61-0.67c-0.71-0.37-1.23-0.66-1.55-0.85c-1.58-1.04-2.66-2.17-3.24-3.39c-0.58-1.22-0.68-2.35-0.31-3.39
		c0.22-0.61,0.58-1.14,1.09-1.59c1.11-0.93,2.36-1.18,3.74-0.72c0.53,0.19,1.06,0.48,1.58,0.87c0.12,0.07,0.21,0.14,0.29,0.2
		c0.07,0.06,0.15,0.11,0.2,0.15l0.51,0.44l0.45,0.44C285.6,216.08,285.83,216.22,286.19,216.41z"/>
	<g>
		<path class="st0" d="M30.15,204.05c-0.58-1.79-2.63-2.99-4.47-2.63c-0.05,0.01-0.1,0.02-0.14,0.03c-0.41,0.11-0.66,0.35-0.8,0.76
			c-0.53,1.5,0.2,4.5,1.46,7.82C29.33,208.28,30.8,206.07,30.15,204.05z"/>
		<path class="st0" d="M15.39,213.66l4.39-0.38c-1.51-4.19-2.92-7.24-3.76-7.91C15.43,206.16,15.22,209.43,15.39,213.66z"/>
		<path class="st0" d="M26.16,185.45c-16.91,4.69-27.34,20.26-23.32,34.77c4.03,14.51,18.72,14.28,35.63,9.58
			c12.49-3.47,2.74,9.87,3.04,10.95c0.38,1.36,30.61-8.48,22.55-37.53C60.03,188.71,43.06,180.75,26.16,185.45z M25.41,222.98
			c0.2,0.76-0.17,1.52-0.82,1.7c0,0-0.01,0-0.01,0c-0.67,0.18-1.37-0.3-1.58-1.06c-0.71-2.65-1.49-5.22-2.26-7.57l-5.19,0.45
			c0.12,1.72,0.3,3.52,0.53,5.34c0.1,0.78-0.39,1.47-1.07,1.52c-0.69,0.06-1.33-0.53-1.43-1.31c-1.09-8.63-1.61-19.06,1.96-19.59
			C18.31,202.04,21.64,208.95,25.41,222.98z M36.1,217.74c-0.29,0.69-1.04,0.94-1.68,0.56l-6.32-3.76c1.05,2.27,2.2,4.46,3.19,6.2
			c0.39,0.68,0.23,1.55-0.34,1.94c-0.1,0.07-0.21,0.12-0.32,0.15c-0.52,0.14-1.11-0.11-1.43-0.67c-0.09-0.15-2.18-3.83-4.09-8.19
			c-2.72-6.22-3.61-10.46-2.73-12.97c0.46-1.3,1.39-2.13,2.7-2.38c3.08-0.61,6.41,1.47,7.44,4.62c0.4,1.23,1.16,5.16-3.78,8.56
			l6.74,4.02C36.11,216.19,36.39,217.05,36.1,217.74z M45.88,216.31c-0.17,0.4-0.22,0.48-0.32,0.65l-0.1,0.17
			c-0.77,1.39-1.59,2-2.31,2.2c-0.46,0.13-0.88,0.09-1.24-0.01c-1.95-0.54-3.6-3.85-4.9-7.82l-1.49,0.83
			c-0.08,0.04-0.16,0.08-0.24,0.1c-0.56,0.15-1.18-0.15-1.48-0.77c-0.34-0.71-0.13-1.56,0.47-1.89l1.91-1.06
			c-1.03-3.78-1.78-7.7-2.2-10.2c-0.13-0.78,0.31-1.48,1-1.58c0.68-0.09,1.35,0.46,1.48,1.24c0.56,3.29,1.26,6.48,2,9.26l2.97-1.66
			c0.61-0.33,1.38-0.04,1.72,0.67c0.34,0.71,0.13,1.56-0.47,1.89l-3.42,1.91c1.13,3.64,2.27,6.11,3.08,6.33
			c0.07,0.02,0.42-0.11,0.95-1.06c0.06-0.11,0.1-0.18,0.14-0.24c0.05-0.08,0.07-0.12,0.15-0.31c0.29-0.69,1.04-0.94,1.67-0.57
			C45.89,214.76,46.17,215.62,45.88,216.31z M55.2,208.25c0.38,2.43-0.77,4.75-2.79,5.64c-0.2,0.09-0.41,0.16-0.62,0.22
			c-2.28,0.63-4.81-0.67-6.88-3.61c-0.45-0.64-0.38-1.52,0.16-1.98c0.54-0.46,1.33-0.32,1.78,0.32c1.48,2.09,3.16,3,4.49,2.4
			c0.97-0.43,1.54-1.56,1.37-2.7c-0.29-1.86-2.4-3.31-5.63-3.89c-5.1-0.9-6.28-3.89-6.55-5.14c-0.42-1.91,0.3-3.84,1.78-4.8
			c1.79-1.15,4.09-0.66,6.17,1.33c0.55,0.53,0.64,1.42,0.21,2.01c-0.43,0.58-1.22,0.63-1.77,0.1c-1.19-1.14-2.39-1.49-3.23-0.95
			c-0.57,0.37-0.86,1.1-0.7,1.82c0.29,1.34,1.91,2.4,4.32,2.83C53.71,202.99,54.96,206.7,55.2,208.25z"/>
	</g>
	<path class="st0" d="M118,174.66c0.81,0.3,1.49,0.23,2.04-0.2c0.55-0.42,1.06-1.29,1.53-2.58l7.23-20.19
		c0.65-1.81,1.83-3.12,3.54-3.92c1.71-0.81,3.42-0.89,5.14-0.28c1.75,0.63,3.01,1.8,3.78,3.53c0.77,1.72,0.82,3.5,0.17,5.33
		l-7.19,20.07c-1.09,3.04-2.58,5.45-4.48,7.24c-1.88,1.79-4.06,2.92-6.52,3.36c-2.45,0.44-5.08,0.16-7.88-0.84
		c-0.99-0.36-1.76-0.68-2.29-0.95c-1.01-0.53-1.75-0.93-2.2-1.22c-2.25-1.48-3.78-3.09-4.61-4.82c-0.82-1.74-0.97-3.35-0.44-4.83
		c0.31-0.87,0.82-1.62,1.55-2.26c1.58-1.33,3.35-1.68,5.33-1.03c0.76,0.27,1.51,0.68,2.25,1.24c0.17,0.1,0.3,0.2,0.42,0.28
		c0.11,0.09,0.21,0.16,0.28,0.21l0.73,0.63l0.63,0.62C117.16,174.18,117.48,174.39,118,174.66z"/>
	<path class="st0" d="M132.76,328.66c0.57,0.21,1.05,0.16,1.43-0.14c0.38-0.3,0.75-0.91,1.08-1.82l5.08-14.19
		c0.46-1.27,1.28-2.19,2.49-2.76c1.2-0.57,2.4-0.63,3.61-0.2c1.23,0.44,2.12,1.27,2.66,2.48c0.54,1.21,0.58,2.46,0.12,3.75
		l-5.05,14.1c-0.77,2.13-1.82,3.83-3.15,5.09c-1.32,1.26-2.85,2.05-4.58,2.36c-1.72,0.31-3.57,0.11-5.54-0.59
		c-0.7-0.25-1.24-0.48-1.61-0.67c-0.71-0.37-1.23-0.66-1.55-0.85c-1.58-1.04-2.66-2.17-3.24-3.39c-0.58-1.22-0.68-2.35-0.31-3.39
		c0.22-0.61,0.58-1.14,1.09-1.59c1.11-0.93,2.36-1.18,3.74-0.72c0.53,0.19,1.06,0.48,1.58,0.87c0.12,0.07,0.21,0.14,0.29,0.2
		c0.07,0.06,0.15,0.11,0.2,0.15l0.51,0.44l0.45,0.44C132.17,328.32,132.4,328.47,132.76,328.66z"/>
	<g>
		<path class="st0" d="M234.47,76.65c0.27-1.39-0.63-2.92-1.97-3.35c-0.04-0.01-0.07-0.02-0.11-0.03c-0.31-0.07-0.56-0.01-0.8,0.21
			c-0.9,0.79-1.51,3.03-1.89,5.67C232.4,79.13,234.17,78.22,234.47,76.65z"/>
		<path class="st0" d="M221.28,77.58l3.02,1.35c0.54-3.3,0.72-5.81,0.41-6.56C224.04,72.68,222.71,74.74,221.28,77.58z"/>
		<path class="st0" d="M238.63,62.98c-12.81-3.08-25.33,3.34-27.97,14.34c-2.64,10.99,7.09,16.19,19.9,19.27
			c9.46,2.27-1.8,7.48-1.99,8.3c-0.25,1.03,23.19,5.58,28.47-16.42C259.67,77.46,251.43,66.06,238.63,62.98z M224.47,87.35
			c-0.14,0.57-0.66,0.94-1.16,0.82c0,0-0.01,0-0.01,0c-0.5-0.13-0.79-0.7-0.65-1.27c0.5-2,0.92-3.97,1.27-5.79l-3.57-1.59
			c-0.54,1.17-1.09,2.42-1.6,3.7c-0.22,0.55-0.79,0.82-1.26,0.61c-0.47-0.21-0.68-0.83-0.46-1.38c2.43-6.07,5.88-13.1,8.42-12.15
			C227.43,71.02,227.1,76.76,224.47,87.35z M233.39,87.8c-0.44,0.35-1.03,0.24-1.31-0.24l-2.78-4.77c-0.14,1.88-0.18,3.73-0.16,5.23
			c0.01,0.59-0.41,1.1-0.93,1.15c-0.09,0.01-0.18,0-0.27-0.02c-0.39-0.09-0.69-0.48-0.69-0.96c0-0.13-0.04-3.31,0.3-6.86
			c0.48-5.08,1.44-8.18,2.93-9.51c0.78-0.69,1.69-0.89,2.64-0.58c2.24,0.72,3.68,3.3,3.2,5.74c-0.19,0.95-1.12,3.81-5.6,4.24
			l2.97,5.09C233.97,86.79,233.83,87.46,233.39,87.8z M240.33,90.43c-0.26,0.2-0.32,0.24-0.44,0.31l-0.13,0.08
			c-1.02,0.63-1.77,0.74-2.32,0.6c-0.35-0.08-0.61-0.26-0.81-0.46c-1.09-1.06-0.96-3.84-0.37-6.92l-1.28,0
			c-0.07,0-0.13-0.01-0.2-0.02c-0.42-0.1-0.72-0.53-0.69-1.04c0.03-0.59,0.48-1.07,1-1.07l1.64,0c0.7-2.86,1.64-5.7,2.27-7.5
			c0.2-0.56,0.74-0.86,1.23-0.67c0.48,0.19,0.72,0.79,0.52,1.35c-0.83,2.37-1.53,4.71-2.06,6.81l2.56-0.01
			c0.52,0,0.92,0.48,0.89,1.07c-0.03,0.59-0.48,1.07-1,1.07l-2.94,0.01c-0.58,2.8-0.73,4.83-0.28,5.28
			c0.04,0.04,0.31,0.08,1.01-0.35c0.08-0.05,0.14-0.08,0.18-0.11c0.06-0.03,0.09-0.05,0.21-0.15c0.44-0.35,1.03-0.24,1.31,0.24
			C240.9,89.41,240.77,90.08,240.33,90.43z M249.39,88.53c-0.64,1.73-2.23,2.84-3.89,2.69c-0.17-0.01-0.33-0.04-0.48-0.08
			c-1.73-0.42-2.91-2.19-3.2-4.87c-0.06-0.58,0.31-1.14,0.83-1.25c0.52-0.11,0.99,0.28,1.05,0.86c0.21,1.91,0.98,3.12,2.07,3.21
			c0.79,0.07,1.58-0.46,1.88-1.27c0.49-1.33-0.37-3.05-2.28-4.6c-3.02-2.45-2.71-4.84-2.43-5.76c0.42-1.41,1.59-2.41,2.92-2.5
			c1.6-0.11,2.93,1.06,3.56,3.12c0.17,0.55-0.1,1.17-0.59,1.39c-0.49,0.22-1.03-0.04-1.2-0.58c-0.36-1.18-1.03-1.85-1.78-1.8
			c-0.51,0.04-0.96,0.41-1.12,0.94c-0.3,0.99,0.38,2.27,1.81,3.43C250.33,84.53,249.8,87.43,249.39,88.53z"/>
	</g>
	<path class="st0" d="M10.81,21.6c0.57,0.21,1.05,0.16,1.43-0.14c0.38-0.3,0.75-0.91,1.08-1.82L18.4,5.46
		c0.46-1.27,1.28-2.19,2.49-2.76c1.2-0.57,2.4-0.63,3.61-0.2c1.23,0.44,2.12,1.27,2.66,2.48c0.54,1.21,0.58,2.46,0.12,3.75
		l-5.05,14.1c-0.77,2.13-1.82,3.83-3.15,5.09c-1.32,1.26-2.85,2.05-4.58,2.36c-1.72,0.31-3.57,0.11-5.54-0.59
		c-0.7-0.25-1.24-0.48-1.61-0.67c-0.71-0.37-1.23-0.66-1.55-0.85c-1.58-1.04-2.66-2.17-3.24-3.39c-0.58-1.22-0.68-2.35-0.31-3.39
		c0.22-0.61,0.58-1.14,1.09-1.59c1.11-0.93,2.36-1.18,3.74-0.72c0.53,0.19,1.06,0.48,1.58,0.87c0.12,0.07,0.21,0.14,0.29,0.2
		c0.07,0.06,0.15,0.11,0.2,0.15l0.51,0.44l0.45,0.44C10.22,21.26,10.45,21.4,10.81,21.6z"/>
	<g>
		<path class="st0" d="M363.82,305.51c-0.38-1.64-2.11-2.87-3.78-2.69c-0.04,0.01-0.09,0.01-0.13,0.02
			c-0.38,0.07-0.61,0.26-0.77,0.62c-0.59,1.3-0.16,4.03,0.7,7.08C362.77,309.22,364.25,307.37,363.82,305.51z"/>
		<path class="st0" d="M349.93,312.95l3.94-0.01c-1.02-3.85-2.05-6.67-2.74-7.34C350.55,306.27,350.11,309.16,349.93,312.95z"/>
		<path class="st0" d="M361.69,288.63c-15.42,2.89-25.92,15.96-23.44,29.2c2.48,13.24,15.59,14.15,31.02,11.26
			c11.39-2.13,1.69,9,1.87,9.99c0.23,1.24,27.93-5.22,22.96-31.72C391.62,294.13,377.11,285.74,361.69,288.63z M358.16,322.02
			c0.12,0.69-0.26,1.34-0.86,1.45c0,0-0.01,0-0.01,0c-0.61,0.11-1.2-0.37-1.33-1.07c-0.43-2.42-0.93-4.77-1.44-6.92l-4.66,0.01
			c-0.02,1.54,0,3.16,0.06,4.8c0.03,0.71-0.46,1.28-1.07,1.27c-0.62,0-1.15-0.58-1.17-1.28c-0.31-7.78,0.02-17.1,3.24-17.3
			C353.43,302.82,355.87,309.22,358.16,322.02z M368.08,318.17c-0.31,0.59-1,0.76-1.54,0.37l-5.34-3.84
			c0.77,2.11,1.62,4.14,2.37,5.77c0.29,0.64,0.09,1.4-0.46,1.7c-0.1,0.05-0.2,0.09-0.3,0.11c-0.48,0.09-0.98-0.19-1.22-0.71
			c-0.07-0.14-1.65-3.58-3.02-7.61c-1.95-5.75-2.42-9.6-1.44-11.76c0.51-1.13,1.4-1.79,2.59-1.92c2.79-0.31,5.6,1.8,6.27,4.69
			c0.26,1.13,0.64,4.69-4.02,7.33l5.7,4.09C368.21,316.79,368.39,317.58,368.08,318.17z M376.9,317.64
			c-0.18,0.34-0.23,0.41-0.33,0.55l-0.1,0.15c-0.8,1.18-1.57,1.66-2.23,1.79c-0.42,0.08-0.8,0.02-1.11-0.1
			c-1.7-0.63-2.91-3.71-3.77-7.35l-1.39,0.63c-0.07,0.03-0.15,0.06-0.22,0.07c-0.51,0.1-1.04-0.23-1.26-0.8
			c-0.25-0.66,0-1.4,0.57-1.65l1.78-0.8c-0.63-3.45-0.99-7-1.18-9.26c-0.06-0.7,0.39-1.3,1.01-1.33c0.62-0.03,1.17,0.51,1.22,1.22
			c0.25,2.98,0.63,5.87,1.08,8.41l2.78-1.25c0.57-0.25,1.23,0.07,1.48,0.73c0.25,0.66,0,1.4-0.57,1.65l-3.19,1.44
			c0.73,3.33,1.55,5.61,2.26,5.88c0.06,0.02,0.38-0.06,0.92-0.87c0.06-0.09,0.11-0.16,0.14-0.21c0.05-0.07,0.07-0.1,0.16-0.27
			c0.31-0.59,1-0.76,1.54-0.38C377.03,316.26,377.21,317.05,376.9,317.64z M385.83,311.17c0.15,2.19-1.05,4.17-2.92,4.82
			c-0.19,0.06-0.38,0.12-0.57,0.15c-2.08,0.39-4.23-0.97-5.85-3.74c-0.35-0.6-0.22-1.39,0.29-1.76c0.51-0.37,1.21-0.18,1.56,0.42
			c1.16,1.98,2.58,2.91,3.82,2.48c0.89-0.31,1.49-1.27,1.42-2.3c-0.12-1.68-1.88-3.14-4.72-3.89c-4.47-1.19-5.3-3.95-5.45-5.08
			c-0.23-1.74,0.56-3.4,1.95-4.14c1.68-0.89,3.7-0.27,5.39,1.66c0.45,0.51,0.46,1.32,0.04,1.8c-0.43,0.48-1.14,0.46-1.59-0.05
			c-0.97-1.1-2.02-1.51-2.81-1.1c-0.54,0.29-0.85,0.92-0.76,1.57c0.16,1.22,1.52,2.28,3.63,2.85
			C384.9,306.37,385.73,309.78,385.83,311.17z"/>
	</g>
	<path class="st0" d="M402.24,365.35c0.7,0.26,1.28,0.2,1.75-0.17c0.47-0.36,0.91-1.11,1.32-2.22l6.22-17.37
		c0.56-1.55,1.57-2.68,3.04-3.37c1.47-0.69,2.94-0.77,4.42-0.24c1.5,0.54,2.59,1.55,3.25,3.04c0.67,1.48,0.71,3.01,0.15,4.59
		l-6.19,17.26c-0.94,2.61-2.22,4.69-3.85,6.23c-1.62,1.54-3.49,2.51-5.61,2.89c-2.11,0.38-4.37,0.14-6.78-0.72
		c-0.86-0.31-1.52-0.58-1.97-0.81c-0.87-0.45-1.5-0.8-1.89-1.05c-1.93-1.27-3.25-2.66-3.96-4.15c-0.71-1.5-0.84-2.88-0.38-4.15
		c0.26-0.75,0.71-1.4,1.33-1.95c1.36-1.14,2.88-1.44,4.58-0.88c0.65,0.23,1.3,0.59,1.94,1.07c0.15,0.08,0.26,0.17,0.36,0.24
		c0.09,0.07,0.18,0.14,0.24,0.18l0.63,0.54l0.55,0.54C401.52,364.94,401.8,365.11,402.24,365.35z"/>
	<g>
		<path class="st0" d="M556.83,21.78c-0.4-1.7-2.19-2.98-3.92-2.79c-0.05,0.01-0.09,0.01-0.13,0.02c-0.39,0.07-0.63,0.27-0.8,0.64
			c-0.61,1.35-0.17,4.18,0.73,7.35C555.74,25.62,557.28,23.7,556.83,21.78z"/>
		<path class="st0" d="M542.42,29.49l4.09-0.01c-1.06-3.99-2.12-6.92-2.85-7.61C543.06,22.57,542.61,25.56,542.42,29.49z"/>
		<path class="st0" d="M554.62,4.27c-16,3-26.88,16.56-24.31,30.29c2.57,13.73,16.17,14.68,32.17,11.68
			c11.82-2.21,1.75,9.34,1.94,10.36c0.24,1.29,28.97-5.41,23.82-32.9C585.67,9.97,570.61,1.27,554.62,4.27z M550.95,38.91
			c0.13,0.72-0.27,1.39-0.9,1.51c0,0-0.01,0-0.01,0c-0.63,0.11-1.25-0.38-1.38-1.11c-0.45-2.51-0.96-4.94-1.49-7.18l-4.83,0.01
			c-0.02,1.6,0,3.28,0.06,4.98c0.03,0.73-0.47,1.33-1.11,1.32c-0.64,0-1.19-0.6-1.22-1.33c-0.32-8.07,0.02-17.74,3.36-17.95
			C546.05,18.99,548.58,25.63,550.95,38.91z M561.24,34.91c-0.32,0.61-1.04,0.78-1.6,0.39l-5.54-3.98c0.79,2.19,1.68,4.3,2.46,5.99
			c0.31,0.66,0.09,1.45-0.47,1.76c-0.1,0.06-0.2,0.09-0.31,0.11c-0.49,0.09-1.02-0.19-1.27-0.74c-0.07-0.15-1.71-3.71-3.13-7.89
			c-2.02-5.97-2.51-9.96-1.49-12.2c0.53-1.17,1.45-1.86,2.68-1.99c2.89-0.32,5.81,1.87,6.51,4.86c0.27,1.17,0.66,4.86-4.17,7.61
			l5.92,4.25C561.38,33.47,561.57,34.29,561.24,34.91z M570.4,34.36c-0.19,0.36-0.24,0.43-0.34,0.57l-0.11,0.15
			c-0.83,1.23-1.63,1.72-2.31,1.85c-0.44,0.08-0.82,0.02-1.15-0.1c-1.76-0.65-3.02-3.84-3.91-7.62l-1.44,0.65
			c-0.08,0.03-0.15,0.06-0.23,0.07c-0.53,0.1-1.08-0.23-1.31-0.83c-0.26-0.68,0-1.45,0.59-1.71l1.85-0.83
			c-0.66-3.57-1.03-7.26-1.23-9.6c-0.06-0.73,0.41-1.34,1.05-1.38c0.64-0.03,1.21,0.53,1.27,1.26c0.25,3.09,0.65,6.09,1.12,8.72
			l2.88-1.3c0.59-0.26,1.28,0.07,1.54,0.75c0.26,0.68,0,1.45-0.59,1.71l-3.31,1.49c0.76,3.45,1.61,5.82,2.34,6.09
			c0.06,0.02,0.39-0.07,0.96-0.91c0.07-0.1,0.11-0.16,0.15-0.22c0.05-0.07,0.07-0.11,0.16-0.28c0.32-0.61,1.04-0.79,1.59-0.39
			C570.53,32.93,570.72,33.75,570.4,34.36z M579.66,27.65c0.16,2.27-1.09,4.33-3.03,5c-0.19,0.07-0.39,0.12-0.59,0.16
			c-2.16,0.4-4.39-1.01-6.07-3.88c-0.36-0.62-0.23-1.44,0.3-1.82c0.53-0.38,1.26-0.19,1.62,0.43c1.2,2.05,2.68,3.02,3.96,2.58
			c0.93-0.32,1.55-1.32,1.48-2.38c-0.12-1.74-1.95-3.25-4.9-4.04c-4.64-1.24-5.5-4.1-5.65-5.27c-0.23-1.8,0.58-3.53,2.03-4.29
			c1.75-0.93,3.84-0.28,5.6,1.72c0.46,0.53,0.48,1.37,0.04,1.87c-0.44,0.5-1.18,0.48-1.65-0.05c-1.01-1.15-2.1-1.57-2.91-1.14
			c-0.56,0.3-0.88,0.95-0.79,1.63c0.16,1.27,1.57,2.37,3.77,2.96C578.7,22.67,579.56,26.2,579.66,27.65z"/>
	</g>
	<path class="st0" d="M504.28,86.25c0.77,0.28,1.41,0.22,1.92-0.19c0.52-0.4,1-1.22,1.45-2.44l6.83-19.06
		c0.61-1.7,1.73-2.94,3.34-3.7c1.61-0.76,3.22-0.84,4.85-0.26c1.65,0.59,2.84,1.7,3.57,3.33c0.73,1.63,0.78,3.3,0.16,5.03
		l-6.79,18.94c-1.03,2.87-2.44,5.14-4.23,6.84c-1.78,1.69-3.83,2.75-6.15,3.18c-2.32,0.42-4.8,0.15-7.44-0.79
		c-0.94-0.34-1.66-0.64-2.16-0.89c-0.96-0.5-1.65-0.88-2.08-1.15c-2.12-1.4-3.57-2.91-4.35-4.55c-0.78-1.64-0.92-3.16-0.41-4.56
		c0.29-0.82,0.78-1.53,1.46-2.14c1.49-1.25,3.16-1.58,5.03-0.97c0.72,0.25,1.42,0.65,2.12,1.17c0.16,0.09,0.29,0.19,0.39,0.27
		c0.1,0.08,0.2,0.15,0.27,0.2l0.69,0.6l0.6,0.59C503.49,85.8,503.8,85.99,504.28,86.25z"/>
	<path class="st0" d="M552.38,284.05c0.7,0.26,1.28,0.2,1.75-0.17c0.47-0.36,0.91-1.11,1.32-2.22l6.22-17.37
		c0.56-1.55,1.57-2.68,3.04-3.37c1.47-0.69,2.94-0.77,4.42-0.24c1.5,0.54,2.59,1.55,3.25,3.04c0.67,1.48,0.71,3.01,0.15,4.59
		l-6.19,17.26c-0.94,2.61-2.22,4.69-3.85,6.23c-1.62,1.54-3.49,2.51-5.61,2.89c-2.11,0.38-4.37,0.14-6.78-0.72
		c-0.86-0.31-1.52-0.58-1.97-0.81c-0.87-0.45-1.5-0.8-1.89-1.05c-1.93-1.27-3.25-2.66-3.96-4.15c-0.71-1.5-0.84-2.88-0.38-4.15
		c0.26-0.75,0.71-1.4,1.33-1.95c1.36-1.14,2.88-1.44,4.58-0.88c0.65,0.23,1.3,0.59,1.94,1.07c0.15,0.08,0.26,0.17,0.36,0.24
		c0.09,0.07,0.18,0.14,0.24,0.18l0.63,0.54l0.55,0.54C551.66,283.64,551.94,283.82,552.38,284.05z"/>
	<g>
		<path class="st0" d="M665.82,261.31c0.37-1.87-0.84-3.95-2.65-4.55c-0.05-0.02-0.1-0.03-0.14-0.04c-0.42-0.1-0.75-0.02-1.09,0.28
			c-1.22,1.07-2.06,4.09-2.59,7.65C663,264.65,665.39,263.43,665.82,261.31z"/>
		<path class="st0" d="M647.98,262.49l4.08,1.84c0.75-4.46,1.01-7.86,0.6-8.87C651.74,255.88,649.93,258.66,647.98,262.49z"/>
		<path class="st0" d="M671.52,242.86c-17.3-4.24-34.27,4.37-37.91,19.22c-3.64,14.85,9.49,21.93,26.79,26.17
			c12.78,3.13-2.47,10.1-2.74,11.21c-0.34,1.39,31.32,7.69,38.6-22.04C699.89,262.56,688.81,247.09,671.52,242.86z M652.23,275.73
			c-0.2,0.77-0.9,1.26-1.57,1.1c0,0-0.01,0-0.01,0c-0.68-0.17-1.07-0.95-0.87-1.72c0.68-2.7,1.27-5.36,1.75-7.83l-4.82-2.17
			c-0.74,1.58-1.48,3.27-2.18,4.99c-0.3,0.74-1.07,1.11-1.7,0.81c-0.64-0.29-0.91-1.13-0.61-1.87c3.32-8.19,8.03-17.67,11.46-16.37
			C656.33,253.66,655.85,261.42,652.23,275.73z M664.29,276.39c-0.6,0.46-1.39,0.31-1.76-0.34l-3.73-6.47
			c-0.19,2.54-0.27,5.04-0.25,7.08c0.01,0.8-0.56,1.49-1.27,1.55c-0.12,0.01-0.24,0-0.36-0.03c-0.53-0.13-0.93-0.65-0.93-1.31
			c0-0.18-0.03-4.47,0.44-9.28c0.68-6.86,1.99-11.06,4.02-12.84c1.06-0.92,2.28-1.2,3.57-0.77c3.02,0.99,4.95,4.48,4.29,7.79
			c-0.26,1.29-1.53,5.15-7.59,5.7l3.98,6.9C665.07,275.02,664.89,275.92,664.29,276.39z M673.66,279.98
			c-0.35,0.27-0.44,0.32-0.6,0.41l-0.17,0.1c-1.38,0.85-2.4,0.98-3.14,0.8c-0.47-0.12-0.83-0.36-1.1-0.62
			c-1.46-1.45-1.28-5.2-0.45-9.36l-1.73,0c-0.09,0-0.18-0.01-0.26-0.03c-0.57-0.14-0.97-0.72-0.93-1.41
			c0.05-0.8,0.65-1.44,1.36-1.44l2.22,0c0.96-3.86,2.25-7.7,3.11-10.12c0.27-0.75,1.01-1.16,1.67-0.9c0.65,0.26,0.96,1.08,0.69,1.83
			c-1.14,3.19-2.1,6.37-2.82,9.2l3.46,0.01c0.7,0.01,1.24,0.65,1.19,1.45c-0.05,0.8-0.66,1.44-1.36,1.44l-3.97-0.01
			c-0.81,3.78-1.02,6.53-0.42,7.13c0.05,0.05,0.42,0.11,1.36-0.47c0.11-0.07,0.18-0.11,0.25-0.15c0.08-0.05,0.12-0.07,0.29-0.2
			c0.6-0.47,1.39-0.32,1.76,0.33C674.44,278.61,674.26,279.51,673.66,279.98z M685.92,277.47c-0.87,2.34-3.04,3.82-5.27,3.61
			c-0.22-0.02-0.44-0.06-0.65-0.11c-2.33-0.57-3.92-2.98-4.3-6.61c-0.08-0.78,0.42-1.54,1.12-1.68c0.7-0.14,1.34,0.38,1.42,1.16
			c0.27,2.59,1.31,4.22,2.78,4.35c1.07,0.1,2.14-0.62,2.55-1.71c0.67-1.79-0.48-4.12-3.06-6.24c-4.07-3.33-3.63-6.57-3.25-7.81
			c0.58-1.9,2.17-3.25,3.96-3.36c2.16-0.13,3.95,1.45,4.8,4.24c0.22,0.74-0.14,1.58-0.81,1.88c-0.67,0.3-1.4-0.05-1.62-0.79
			c-0.49-1.6-1.38-2.51-2.39-2.45c-0.69,0.04-1.31,0.55-1.52,1.26c-0.41,1.34,0.5,3.07,2.42,4.65
			C687.21,272.07,686.47,275.98,685.92,277.47z"/>
	</g>
	<circle class="st0" cx="689.03" cy="381.29" r="11.59"/>
	<path class="st0" d="M722.78,158.55c0.65,0.24,1.18,0.18,1.62-0.16c0.43-0.33,0.84-1.02,1.22-2.05l5.75-16.04
		c0.52-1.43,1.45-2.48,2.81-3.12c1.36-0.64,2.71-0.71,4.09-0.22c1.39,0.5,2.39,1.43,3,2.8c0.61,1.37,0.65,2.78,0.14,4.24
		l-5.71,15.94c-0.87,2.41-2.05,4.33-3.56,5.75c-1.5,1.42-3.22,2.32-5.18,2.67c-1.95,0.35-4.04,0.13-6.26-0.67
		c-0.79-0.28-1.4-0.54-1.82-0.75c-0.8-0.42-1.39-0.74-1.75-0.97c-1.78-1.18-3-2.45-3.66-3.83c-0.65-1.38-0.77-2.66-0.35-3.83
		c0.24-0.69,0.65-1.29,1.23-1.8c1.25-1.06,2.66-1.33,4.23-0.82c0.6,0.21,1.2,0.54,1.79,0.98c0.14,0.08,0.24,0.16,0.33,0.23
		c0.08,0.07,0.17,0.13,0.22,0.17l0.58,0.5l0.5,0.5C722.11,158.17,722.37,158.33,722.78,158.55z"/>
	<path class="st0" d="M668.73,342.28c0.53,0.19,0.97,0.15,1.33-0.13c0.36-0.27,0.69-0.84,1-1.68l4.72-13.17
		c0.42-1.18,1.19-2.03,2.31-2.56c1.11-0.53,2.23-0.58,3.35-0.18c1.14,0.41,1.96,1.18,2.46,2.3c0.5,1.12,0.54,2.28,0.11,3.48
		l-4.69,13.09c-0.71,1.98-1.68,3.55-2.92,4.72c-1.23,1.17-2.65,1.9-4.25,2.19c-1.6,0.29-3.32,0.11-5.14-0.55
		c-0.65-0.23-1.15-0.44-1.5-0.62c-0.66-0.34-1.14-0.61-1.43-0.79c-1.46-0.97-2.47-2.01-3.01-3.15c-0.54-1.13-0.63-2.18-0.29-3.15
		c0.2-0.57,0.54-1.06,1.01-1.48c1.03-0.87,2.19-1.09,3.48-0.67c0.49,0.18,0.98,0.45,1.47,0.81c0.11,0.06,0.2,0.13,0.27,0.19
		c0.07,0.06,0.14,0.11,0.18,0.14l0.48,0.41l0.41,0.41C668.18,341.97,668.39,342.11,668.73,342.28z"/>
	<polygon class="st0" points="740.93,277.71 733.29,272.42 724.6,275.71 727.27,266.81 721.45,259.56 730.75,259.35 735.84,251.58 
		738.91,260.36 747.88,262.8 740.48,268.43 	"/>
	<circle class="st0" cx="238.26" cy="11.04" r="8.73"/>
	<polygon class="st0" points="217.65,166.39 248.12,138.36 257.15,178.77 	"/>
	<polygon class="st0" points="401.13,14.32 418.01,7.29 415.66,25.42 	"/>
	<g>
		<path class="st1" d="M73.17,43.91c-2.84,7.21-10.98,10.75-18.19,7.91c-7.21-2.84-10.75-10.98-7.91-18.19
			c2.84-7.21,10.98-10.75,18.19-7.91C72.47,28.56,76.01,36.7,73.17,43.91z"/>
	</g>
	<path class="st2" d="M15.86,125.37c4.15-5.58-9.66-17.93-5.56-23.45c4.1-5.52,19.27,3.39,22.8-1.36
		c3.53-4.75-9.21-18.02-5.47-23.06c3.75-5.04,19.54,4.3,23.79-1.42"/>
	<g>
		<path class="st3" d="M312.33,160.84c-3.33,8.45-12.88,12.6-21.33,9.27c-8.45-3.33-12.61-12.88-9.28-21.33
			c3.33-8.45,12.88-12.61,21.33-9.28C311.51,142.84,315.66,152.39,312.33,160.84z"/>
	</g>
	<g>
		<path class="st4" d="M379.64,30.77c-0.87,5.38-5.93,9.04-11.32,8.18c-5.38-0.87-9.04-5.93-8.18-11.32
			c0.87-5.38,5.93-9.05,11.32-8.18C376.85,20.32,380.51,25.39,379.64,30.77z"/>
	</g>
	<path class="st5" d="M385.92,63.93c1.35,3.32,10.5,0.53,11.84,3.82c1.34,3.29-6.65,7.6-5.5,10.43c1.15,2.83,10.42,0.75,11.64,3.75
		c1.22,3-7.12,7.47-5.73,10.88"/>
	<path class="st2" d="M169.68,78.87c1.53-6.76-16.05-12.43-14.54-19.12c1.51-6.69,18.93-4.7,20.23-10.45
		c1.3-5.75-15.68-12.7-14.3-18.8c1.38-6.11,19.55-3.98,21.11-10.91"/>
	<g>
		<path class="st6" d="M406.31,173.21c-1.11,6.89-7.6,11.58-14.49,10.47c-6.89-1.11-11.58-7.6-10.47-14.49
			c1.11-6.89,7.6-11.58,14.49-10.47C402.74,159.83,407.42,166.32,406.31,173.21z"/>
	</g>
	<path class="st2" d="M269.23,46.17c5.34-4.42-5.11-19.65,0.17-24.02c5.28-4.37,17.86,7.84,22.4,4.08
		c4.54-3.76-4.66-19.63,0.16-23.63c4.83-4,17.9,8.79,23.38,4.25"/>
	<path class="st2" d="M1.81,262.06c3.9,3.22,13.39-6.36,17.25-3.17c3.86,3.19-3.17,13.88,0.15,16.62
		c3.32,2.74,13.43-6.03,16.96-3.12c3.53,2.91-3.85,14.04,0.15,17.34"/>
	<g>
		<path class="st7" d="M266.93,268.71c-3.52,11.49-15.7,17.95-27.19,14.43c-11.49-3.52-17.95-15.7-14.43-27.19
			c3.52-11.49,15.7-17.96,27.19-14.43C263.99,245.04,270.45,257.22,266.93,268.71z"/>
	</g>
	<g>
		<path class="st3" d="M312.33,328.35c-3.33,8.45-12.88,12.6-21.33,9.28c-8.45-3.33-12.61-12.88-9.28-21.33
			c3.33-8.45,12.88-12.61,21.33-9.28C311.51,310.35,315.66,319.9,312.33,328.35z"/>
	</g>
	<g>
		<path class="st8" d="M52,373.76c-2.59,8.44-11.53,13.18-19.96,10.59c-8.44-2.59-13.18-11.52-10.59-19.96
			c2.59-8.44,11.53-13.18,19.96-10.59C49.84,356.38,54.59,365.32,52,373.76z"/>
	</g>
	<path class="st2" d="M330.64,185.77c2.38,5.85,18.47,0.93,20.82,6.72c2.35,5.78-11.7,13.37-9.67,18.34
		c2.03,4.97,18.32,1.32,20.47,6.6c2.15,5.28-12.53,13.15-10.09,19.14"/>
	<path class="st2" d="M177.37,251.31c-1.11-6.84-19.54-5.53-20.64-12.3c-1.1-6.77,15.8-11.44,14.85-17.26
		c-0.95-5.82-19.29-5.91-20.3-12.09c-1.01-6.18,16.64-10.99,15.5-18.01"/>
	<path class="st2" d="M146.14,358.3c-6.78,1.45-4.55,19.79-11.26,21.22c-6.7,1.44-12.21-15.21-17.98-13.97
		c-5.77,1.24-4.95,19.56-11.07,20.87c-6.13,1.31-11.81-16.07-18.76-14.58"/>
	<polygon class="st0" points="530.46,223.83 547.34,216.79 545,234.93 	"/>
	<g>
		<path class="st3" d="M499.48,33.81c-3.33,8.45-12.88,12.6-21.33,9.28c-8.45-3.33-12.6-12.88-9.28-21.33
			c3.33-8.45,12.88-12.61,21.33-9.28C498.66,15.81,502.81,25.36,499.48,33.81z"/>
	</g>
	<path class="st2" d="M456.05,79.81c-3.94,4.77,7.78,16.37,3.88,21.09c-3.89,4.72-16.97-3.88-20.32,0.18
		c-3.35,4.06,7.38,16.42,3.82,20.74c-3.56,4.31-17.17-4.7-21.2,0.19"/>
	<path class="st2" d="M552.84,120.46c6-3.48-1.79-20.22,4.14-23.66c5.93-3.44,16.31,10.69,21.42,7.73
		c5.1-2.96-1.34-20.13,4.07-23.27c5.42-3.14,16.2,11.64,22.35,8.07"/>
	<path class="st2" d="M699.87,46.17c5.34-4.42-5.11-19.65,0.17-24.02c5.28-4.37,17.86,7.84,22.4,4.08
		c4.54-3.76-4.66-19.63,0.16-23.63c4.83-4,17.9,8.79,23.38,4.25"/>
	<path class="st2" d="M456.97,281.02c5.03-0.6,4.64-14.07,9.61-14.67c4.97-0.59,7.85,11.88,12.12,11.37
		c4.28-0.51,4.91-13.88,9.45-14.42c4.54-0.54,7.5,12.48,12.65,11.86"/>
	<g>
		<path class="st9" d="M474.7,370.4c-2.12,6.91-9.44,10.79-16.34,8.67c-6.91-2.12-10.79-9.43-8.67-16.34
			c2.12-6.91,9.44-10.79,16.34-8.67C472.94,356.17,476.82,363.49,474.7,370.4z"/>
	</g>
	<path class="st2" d="M606.55,248.38c-1.11-6.84-19.53-5.53-20.64-12.3c-1.1-6.77,15.8-11.44,14.85-17.26
		c-0.95-5.82-19.29-5.91-20.3-12.09c-1.01-6.18,16.64-10.99,15.5-18.01"/>
	<path class="st2" d="M513.86,391.58c8.1-2.06,4.58-24.04,12.59-26.07c8.01-2.04,15.39,17.77,22.29,16.01
		c6.89-1.75,5.07-23.78,12.38-25.64c7.32-1.86,14.95,18.82,23.26,16.71"/>
	<g>
		<path class="st7" d="M690.25,90.01c-3.52,11.49-15.7,17.95-27.19,14.43c-11.49-3.52-17.95-15.7-14.43-27.19
			c3.52-11.49,15.7-17.96,27.19-14.43C687.31,66.34,693.77,78.51,690.25,90.01z"/>
	</g>
	<path class="st10" d="M315.41,94.21c0,2.32-1.88,4.19-4.19,4.19s-4.19-1.88-4.19-4.19c0-4.63,3.76-8.39,8.39-8.39
		s8.39,3.76,8.39,8.39c0,6.95-5.63,12.58-12.58,12.58s-12.58-5.63-12.58-12.58c0-9.27,7.51-16.78,16.78-16.78
		s16.78,7.51,16.78,16.78c0,11.58-9.39,20.97-20.97,20.97s-20.97-9.39-20.97-20.97c0-13.9,11.27-25.17,25.17-25.17
		s25.17,11.27,25.17,25.17"/>
	<path class="st11" d="M188.64,298.84c-1.81,0.49-3.68-0.58-4.17-2.39c-0.49-1.81,0.58-3.68,2.39-4.17
		c3.62-0.98,7.35,1.16,8.33,4.79c0.98,3.62-1.16,7.35-4.79,8.33c-5.43,1.47-11.03-1.74-12.5-7.18c-1.47-5.43,1.74-11.03,7.18-12.5
		c7.25-1.96,14.71,2.32,16.67,9.57c1.96,7.25-2.32,14.71-9.57,16.67c-9.06,2.45-18.38-2.91-20.83-11.96
		c-2.45-9.06,2.91-18.38,11.96-20.83c10.87-2.94,22.06,3.49,25,14.36c2.94,10.87-3.49,22.06-14.36,25"/>
	<path class="st12" d="M116.99,18.45c0.04-1.6,1.37-2.86,2.97-2.81c1.6,0.04,2.86,1.37,2.81,2.97c-0.09,3.19-2.75,5.71-5.94,5.62
		c-3.19-0.09-5.71-2.75-5.62-5.94c0.13-4.79,4.12-8.57,8.91-8.44c4.79,0.13,8.57,4.12,8.44,8.91c-0.17,6.39-5.49,11.42-11.88,11.25
		c-6.39-0.17-11.42-5.49-11.25-11.88c0.22-7.98,6.86-14.28,14.85-14.06c7.98,0.22,14.28,6.86,14.06,14.85
		c-0.26,9.58-8.24,17.13-17.81,16.87c-9.58-0.26-17.13-8.24-16.87-17.81"/>
	<path class="st13" d="M485.32,208.48c1.55-1.45,3.99-1.38,5.44,0.17c1.45,1.55,1.38,3.99-0.17,5.44c-3.1,2.91-7.98,2.75-10.89-0.35
		s-2.75-7.98,0.35-10.89c4.65-4.36,11.97-4.13,16.33,0.52s4.13,11.97-0.52,16.33c-6.21,5.82-15.95,5.51-21.77-0.7
		c-5.82-6.21-5.51-15.95,0.7-21.77c7.76-7.27,19.94-6.88,27.22,0.87c7.27,7.76,6.88,19.94-0.87,27.22
		c-9.31,8.73-23.93,8.26-32.66-1.05s-8.26-23.93,1.05-32.66"/>
	<path class="st14" d="M738.09,93.18c-2.08,0.56-4.21-0.67-4.78-2.74c-0.56-2.08,0.67-4.21,2.74-4.78c4.15-1.12,8.43,1.33,9.55,5.48
		s-1.33,8.43-5.48,9.55c-6.23,1.68-12.64-2-14.33-8.23s2-12.64,8.23-14.33c8.3-2.25,16.85,2.66,19.1,10.97
		c2.25,8.3-2.66,16.85-10.97,19.1c-10.38,2.81-21.07-3.33-23.88-13.71s3.33-21.07,13.71-23.88c12.45-3.37,25.28,4,28.65,16.45
		c3.37,12.45-4,25.28-16.45,28.65"/>
	<path class="st15" d="M614.57,314.76c1.29,1.33,1.25,3.46-0.08,4.75s-3.46,1.25-4.75-0.08c-2.58-2.67-2.5-6.92,0.17-9.5
		c2.67-2.58,6.92-2.5,9.5,0.17c3.87,4,3.75,10.38-0.25,14.25c-4,3.87-10.38,3.75-14.25-0.25c-5.15-5.34-5-13.84,0.33-18.99
		c5.34-5.15,13.84-5,18.99,0.33c6.44,6.67,6.26,17.3-0.42,23.74c-6.67,6.44-17.3,6.26-23.74-0.42c-7.73-8.01-7.51-20.76,0.5-28.49
		c8.01-7.73,20.76-7.51,28.49,0.5"/>
	<g>
		<path class="st6" d="M750.17,320.79c-1.11,6.89-7.6,11.58-14.49,10.47c-6.89-1.11-11.58-7.6-10.47-14.49
			c1.11-6.89,7.6-11.58,14.49-10.47C746.59,307.41,751.28,313.9,750.17,320.79z"/>
	</g>
	<g>
		<path class="st6" d="M753.83,210.2c-1.11,6.89-7.6,11.58-14.49,10.47c-6.89-1.11-11.58-7.6-10.47-14.49
			c1.11-6.89,7.6-11.58,14.49-10.47C750.26,196.82,754.94,203.3,753.83,210.2z"/>
	</g>
	<circle class="st0" cx="182.91" cy="129.18" r="16.15"/>
	<path class="st0" d="M316.43,39.87c0-5.51,4.47-9.98,9.98-9.98c5.51,0,9.98,4.47,9.98,9.98s-4.47,9.98-9.98,9.98
		C320.89,49.85,316.43,45.38,316.43,39.87z"/>
	<circle class="st0" cx="123.48" cy="105.99" r="10.77"/>
	<polygon class="st0" points="90.47,78.37 96.04,50.49 117.4,69.26 	"/>
	<polygon class="st0" points="202.76,29.36 221.92,38.07 204.8,50.31 	"/>
	<polygon class="st0" points="8.22,146.64 27.54,160.86 5.56,170.48 	"/>
	<polygon class="st0" points="94.72,143.68 77.95,146.1 70.43,161.3 62.94,146.09 46.17,143.64 58.32,131.81 55.47,115.1 
		70.46,123.01 85.48,115.13 82.6,131.84 	"/>
	<polygon class="st0" points="376.68,140.95 365.58,137.09 356.11,144.04 356.35,132.29 346.81,125.43 358.06,122.03 361.63,110.84 
		368.34,120.49 380.09,120.43 372.99,129.79 	"/>
	<polygon class="st0" points="225.74,218.88 214.64,215.01 205.17,221.97 205.41,210.22 195.87,203.36 207.12,199.96 210.7,188.77 
		217.41,198.41 229.16,198.36 222.05,207.72 	"/>
	<polygon class="st0" points="215.38,333.81 254.75,320.99 246.16,361.49 	"/>
	<circle class="st0" cx="129.48" cy="278.46" r="12.19"/>
	
		<ellipse transform="matrix(0.9257 -0.3783 0.3783 0.9257 -115.0936 159.7305)" class="st0" cx="349.03" cy="372.83" rx="17.38" ry="17.38"/>
	<polygon class="st0" points="90.55,247.98 97.46,213.41 123.94,236.68 	"/>
	<circle class="st0" cx="316.71" cy="264.88" r="16.74"/>
	<polygon class="st0" points="2.14,312.46 27.66,324.06 4.85,340.36 	"/>
	<polygon class="st0" points="100.12,320.33 83.34,322.76 75.83,337.95 68.34,322.74 51.57,320.29 63.72,308.47 60.86,291.76 
		75.86,299.66 90.87,291.78 87.99,308.49 	"/>
	<polygon class="st0" points="414.03,270.41 402.93,266.55 393.46,273.5 393.7,261.75 384.16,254.89 395.41,251.49 398.99,240.3 
		405.7,249.95 417.45,249.89 410.34,259.25 	"/>
	<polygon class="st0" points="206.58,387.83 193.97,383.44 183.19,391.35 183.47,377.99 172.62,370.19 185.41,366.33 189.48,353.6 
		197.11,364.57 210.47,364.5 202.39,375.15 	"/>
	<polygon class="st0" points="292.38,362.63 298.72,381.48 279.05,378.54 	"/>
	<polygon class="st0" points="644.63,163.46 675.1,135.43 684.14,175.84 	"/>
	<circle class="st0" cx="613.55" cy="130.64" r="16.15"/>
	<path class="st0" d="M742.86,41.8c0-6.07,4.92-10.99,10.99-10.99c6.07,0,10.99,4.92,10.99,10.99s-4.92,10.99-10.99,10.99
		C747.79,52.8,742.86,47.87,742.86,41.8z"/>
	<circle class="st0" cx="620.29" cy="45.54" r="9.78"/>
	<polygon class="st0" points="653.74,7.67 672.9,16.38 655.77,28.62 	"/>
	<polygon class="st0" points="435.2,151.76 454.52,165.99 432.54,175.61 	"/>
	<circle class="st0" cx="432.54" cy="50.35" r="8.73"/>
	<polygon class="st0" points="517.31,149.54 500.54,151.96 493.02,167.16 485.53,151.95 468.76,149.5 480.91,137.67 478.06,120.96 
		493.05,128.87 508.07,120.99 505.19,137.7 	"/>
	<polygon class="st0" points="653.46,218.14 642.36,214.28 632.89,221.23 633.13,209.49 623.59,202.63 634.84,199.23 638.42,188.03 
		645.12,197.68 656.87,197.63 649.77,206.99 	"/>
	<polygon class="st0" points="723.24,364.64 751.53,351.23 749,382.44 	"/>
	<circle class="st0" cx="692.52" cy="213.63" r="12.02"/>
	<polygon class="st0" points="539.04,181.37 544.62,153.5 565.97,172.26 	"/>
	<polygon class="st0" points="546.58,326.12 563.45,319.08 561.11,337.22 	"/>
	<polygon class="st0" points="433.89,308.97 451.75,317.09 435.79,328.49 	"/>
	<polygon class="st0" points="519,326.13 505.4,328.1 499.31,340.41 493.24,328.09 479.64,326.1 489.49,316.52 487.18,302.97 
		499.33,309.38 511.5,302.99 509.17,316.53 	"/>
	<polygon class="st0" points="637.7,390.29 626.6,386.43 617.13,393.38 617.37,381.63 607.83,374.77 619.08,371.37 622.65,360.18 
		629.36,369.83 641.11,369.77 634.01,379.13 	"/>
	<polygon class="st0" points="409.62,211.13 426.5,204.1 424.15,222.23 	"/>
	<path class="st0" d="M286.19,216.41c0.57,0.21,1.05,0.16,1.43-0.14c0.38-0.3,0.75-0.91,1.08-1.82l5.08-14.19
		c0.46-1.27,1.28-2.19,2.49-2.76c1.2-0.57,2.4-0.63,3.61-0.2c1.23,0.44,2.12,1.27,2.66,2.48c0.54,1.21,0.58,2.46,0.12,3.75
		l-5.05,14.1c-0.77,2.13-1.82,3.83-3.15,5.09c-1.32,1.26-2.85,2.05-4.58,2.36c-1.72,0.31-3.57,0.11-5.54-0.59
		c-0.7-0.25-1.24-0.48-1.61-0.67c-0.71-0.37-1.23-0.66-1.55-0.85c-1.58-1.04-2.66-2.17-3.24-3.39c-0.58-1.22-0.68-2.35-0.31-3.39
		c0.22-0.61,0.58-1.14,1.09-1.59c1.11-0.93,2.36-1.18,3.74-0.72c0.53,0.19,1.06,0.48,1.58,0.87c0.12,0.07,0.21,0.14,0.29,0.2
		c0.07,0.06,0.15,0.11,0.2,0.15l0.51,0.44l0.45,0.44C285.6,216.08,285.83,216.22,286.19,216.41z"/>
	<g>
		<path class="st0" d="M30.15,204.05c-0.58-1.79-2.63-2.99-4.47-2.63c-0.05,0.01-0.1,0.02-0.14,0.03c-0.41,0.11-0.66,0.35-0.8,0.76
			c-0.53,1.5,0.2,4.5,1.46,7.82C29.33,208.28,30.8,206.07,30.15,204.05z"/>
		<path class="st0" d="M15.39,213.66l4.39-0.38c-1.51-4.19-2.92-7.24-3.76-7.91C15.43,206.16,15.22,209.43,15.39,213.66z"/>
		<path class="st0" d="M26.16,185.45c-16.91,4.69-27.34,20.26-23.32,34.77c4.03,14.51,18.72,14.28,35.63,9.58
			c12.49-3.47,2.74,9.87,3.04,10.95c0.38,1.36,30.61-8.48,22.55-37.53C60.03,188.71,43.06,180.75,26.16,185.45z M25.41,222.98
			c0.2,0.76-0.17,1.52-0.82,1.7c0,0-0.01,0-0.01,0c-0.67,0.18-1.37-0.3-1.58-1.06c-0.71-2.65-1.49-5.22-2.26-7.57l-5.19,0.45
			c0.12,1.72,0.3,3.52,0.53,5.34c0.1,0.78-0.39,1.47-1.07,1.52c-0.69,0.06-1.33-0.53-1.43-1.31c-1.09-8.63-1.61-19.06,1.96-19.59
			C18.31,202.04,21.64,208.95,25.41,222.98z M36.1,217.74c-0.29,0.69-1.04,0.94-1.68,0.56l-6.32-3.76c1.05,2.27,2.2,4.46,3.19,6.2
			c0.39,0.68,0.23,1.55-0.34,1.94c-0.1,0.07-0.21,0.12-0.32,0.15c-0.52,0.14-1.11-0.11-1.43-0.67c-0.09-0.15-2.18-3.83-4.09-8.19
			c-2.72-6.22-3.61-10.46-2.73-12.97c0.46-1.3,1.39-2.13,2.7-2.38c3.08-0.61,6.41,1.47,7.44,4.62c0.4,1.23,1.16,5.16-3.78,8.56
			l6.74,4.02C36.11,216.19,36.39,217.05,36.1,217.74z M45.88,216.31c-0.17,0.4-0.22,0.48-0.32,0.65l-0.1,0.17
			c-0.77,1.39-1.59,2-2.31,2.2c-0.46,0.13-0.88,0.09-1.24-0.01c-1.95-0.54-3.6-3.85-4.9-7.82l-1.49,0.83
			c-0.08,0.04-0.16,0.08-0.24,0.1c-0.56,0.15-1.18-0.15-1.48-0.77c-0.34-0.71-0.13-1.56,0.47-1.89l1.91-1.06
			c-1.03-3.78-1.78-7.7-2.2-10.2c-0.13-0.78,0.31-1.48,1-1.58c0.68-0.09,1.35,0.46,1.48,1.24c0.56,3.29,1.26,6.48,2,9.26l2.97-1.66
			c0.61-0.33,1.38-0.04,1.72,0.67c0.34,0.71,0.13,1.56-0.47,1.89l-3.42,1.91c1.13,3.64,2.27,6.11,3.08,6.33
			c0.07,0.02,0.42-0.11,0.95-1.06c0.06-0.11,0.1-0.18,0.14-0.24c0.05-0.08,0.07-0.12,0.15-0.31c0.29-0.69,1.04-0.94,1.67-0.57
			C45.89,214.76,46.17,215.62,45.88,216.31z M55.2,208.25c0.38,2.43-0.77,4.75-2.79,5.64c-0.2,0.09-0.41,0.16-0.62,0.22
			c-2.28,0.63-4.81-0.67-6.88-3.61c-0.45-0.64-0.38-1.52,0.16-1.98c0.54-0.46,1.33-0.32,1.78,0.32c1.48,2.09,3.16,3,4.49,2.4
			c0.97-0.43,1.54-1.56,1.37-2.7c-0.29-1.86-2.4-3.31-5.63-3.89c-5.1-0.9-6.28-3.89-6.55-5.14c-0.42-1.91,0.3-3.84,1.78-4.8
			c1.79-1.15,4.09-0.66,6.17,1.33c0.55,0.53,0.64,1.42,0.21,2.01c-0.43,0.58-1.22,0.63-1.77,0.1c-1.19-1.14-2.39-1.49-3.23-0.95
			c-0.57,0.37-0.86,1.1-0.7,1.82c0.29,1.34,1.91,2.4,4.32,2.83C53.71,202.99,54.96,206.7,55.2,208.25z"/>
	</g>
	<path class="st0" d="M118,174.66c0.81,0.3,1.49,0.23,2.04-0.2c0.55-0.42,1.06-1.29,1.53-2.58l7.23-20.19
		c0.65-1.81,1.83-3.12,3.54-3.92c1.71-0.81,3.42-0.89,5.14-0.28c1.75,0.63,3.01,1.8,3.78,3.53c0.77,1.72,0.82,3.5,0.17,5.33
		l-7.19,20.07c-1.09,3.04-2.58,5.45-4.48,7.24c-1.88,1.79-4.06,2.92-6.52,3.36c-2.45,0.44-5.08,0.16-7.88-0.84
		c-0.99-0.36-1.76-0.68-2.29-0.95c-1.01-0.53-1.75-0.93-2.2-1.22c-2.25-1.48-3.78-3.09-4.61-4.82c-0.82-1.74-0.97-3.35-0.44-4.83
		c0.31-0.87,0.82-1.62,1.55-2.26c1.58-1.33,3.35-1.68,5.33-1.03c0.76,0.27,1.51,0.68,2.25,1.24c0.17,0.1,0.3,0.2,0.42,0.28
		c0.11,0.09,0.21,0.16,0.28,0.21l0.73,0.63l0.63,0.62C117.16,174.18,117.48,174.39,118,174.66z"/>
	<path class="st0" d="M132.76,328.66c0.57,0.21,1.05,0.16,1.43-0.14c0.38-0.3,0.75-0.91,1.08-1.82l5.08-14.19
		c0.46-1.27,1.28-2.19,2.49-2.76c1.2-0.57,2.4-0.63,3.61-0.2c1.23,0.44,2.12,1.27,2.66,2.48c0.54,1.21,0.58,2.46,0.12,3.75
		l-5.05,14.1c-0.77,2.13-1.82,3.83-3.15,5.09c-1.32,1.26-2.85,2.05-4.58,2.36c-1.72,0.31-3.57,0.11-5.54-0.59
		c-0.7-0.25-1.24-0.48-1.61-0.67c-0.71-0.37-1.23-0.66-1.55-0.85c-1.58-1.04-2.66-2.17-3.24-3.39c-0.58-1.22-0.68-2.35-0.31-3.39
		c0.22-0.61,0.58-1.14,1.09-1.59c1.11-0.93,2.36-1.18,3.74-0.72c0.53,0.19,1.06,0.48,1.58,0.87c0.12,0.07,0.21,0.14,0.29,0.2
		c0.07,0.06,0.15,0.11,0.2,0.15l0.51,0.44l0.45,0.44C132.17,328.32,132.4,328.47,132.76,328.66z"/>
	<g>
		<path class="st0" d="M234.47,76.65c0.27-1.39-0.63-2.92-1.97-3.35c-0.04-0.01-0.07-0.02-0.11-0.03c-0.31-0.07-0.56-0.01-0.8,0.21
			c-0.9,0.79-1.51,3.03-1.89,5.67C232.4,79.13,234.17,78.22,234.47,76.65z"/>
		<path class="st0" d="M221.28,77.58l3.02,1.35c0.54-3.3,0.72-5.81,0.41-6.56C224.04,72.68,222.71,74.74,221.28,77.58z"/>
		<path class="st0" d="M238.63,62.98c-12.81-3.08-25.33,3.34-27.97,14.34c-2.64,10.99,7.09,16.19,19.9,19.27
			c9.46,2.27-1.8,7.48-1.99,8.3c-0.25,1.03,23.19,5.58,28.47-16.42C259.67,77.46,251.43,66.06,238.63,62.98z M224.47,87.35
			c-0.14,0.57-0.66,0.94-1.16,0.82c0,0-0.01,0-0.01,0c-0.5-0.13-0.79-0.7-0.65-1.27c0.5-2,0.92-3.97,1.27-5.79l-3.57-1.59
			c-0.54,1.17-1.09,2.42-1.6,3.7c-0.22,0.55-0.79,0.82-1.26,0.61c-0.47-0.21-0.68-0.83-0.46-1.38c2.43-6.07,5.88-13.1,8.42-12.15
			C227.43,71.02,227.1,76.76,224.47,87.35z M233.39,87.8c-0.44,0.35-1.03,0.24-1.31-0.24l-2.78-4.77c-0.14,1.88-0.18,3.73-0.16,5.23
			c0.01,0.59-0.41,1.1-0.93,1.15c-0.09,0.01-0.18,0-0.27-0.02c-0.39-0.09-0.69-0.48-0.69-0.96c0-0.13-0.04-3.31,0.3-6.86
			c0.48-5.08,1.44-8.18,2.93-9.51c0.78-0.69,1.69-0.89,2.64-0.58c2.24,0.72,3.68,3.3,3.2,5.74c-0.19,0.95-1.12,3.81-5.6,4.24
			l2.97,5.09C233.97,86.79,233.83,87.46,233.39,87.8z M240.33,90.43c-0.26,0.2-0.32,0.24-0.44,0.31l-0.13,0.08
			c-1.02,0.63-1.77,0.74-2.32,0.6c-0.35-0.08-0.61-0.26-0.81-0.46c-1.09-1.06-0.96-3.84-0.37-6.92l-1.28,0
			c-0.07,0-0.13-0.01-0.2-0.02c-0.42-0.1-0.72-0.53-0.69-1.04c0.03-0.59,0.48-1.07,1-1.07l1.64,0c0.7-2.86,1.64-5.7,2.27-7.5
			c0.2-0.56,0.74-0.86,1.23-0.67c0.48,0.19,0.72,0.79,0.52,1.35c-0.83,2.37-1.53,4.71-2.06,6.81l2.56-0.01
			c0.52,0,0.92,0.48,0.89,1.07c-0.03,0.59-0.48,1.07-1,1.07l-2.94,0.01c-0.58,2.8-0.73,4.83-0.28,5.28
			c0.04,0.04,0.31,0.08,1.01-0.35c0.08-0.05,0.14-0.08,0.18-0.11c0.06-0.03,0.09-0.05,0.21-0.15c0.44-0.35,1.03-0.24,1.31,0.24
			C240.9,89.41,240.77,90.08,240.33,90.43z M249.39,88.53c-0.64,1.73-2.23,2.84-3.89,2.69c-0.17-0.01-0.33-0.04-0.48-0.08
			c-1.73-0.42-2.91-2.19-3.2-4.87c-0.06-0.58,0.31-1.14,0.83-1.25c0.52-0.11,0.99,0.28,1.05,0.86c0.21,1.91,0.98,3.12,2.07,3.21
			c0.79,0.07,1.58-0.46,1.88-1.27c0.49-1.33-0.37-3.05-2.28-4.6c-3.02-2.45-2.71-4.84-2.43-5.76c0.42-1.41,1.59-2.41,2.92-2.5
			c1.6-0.11,2.93,1.06,3.56,3.12c0.17,0.55-0.1,1.17-0.59,1.39c-0.49,0.22-1.03-0.04-1.2-0.58c-0.36-1.18-1.03-1.85-1.78-1.8
			c-0.51,0.04-0.96,0.41-1.12,0.94c-0.3,0.99,0.38,2.27,1.81,3.43C250.33,84.53,249.8,87.43,249.39,88.53z"/>
	</g>
	<path class="st0" d="M10.81,21.6c0.57,0.21,1.05,0.16,1.43-0.14c0.38-0.3,0.75-0.91,1.08-1.82L18.4,5.46
		c0.46-1.27,1.28-2.19,2.49-2.76c1.2-0.57,2.4-0.63,3.61-0.2c1.23,0.44,2.12,1.27,2.66,2.48c0.54,1.21,0.58,2.46,0.12,3.75
		l-5.05,14.1c-0.77,2.13-1.82,3.83-3.15,5.09c-1.32,1.26-2.85,2.05-4.58,2.36c-1.72,0.31-3.57,0.11-5.54-0.59
		c-0.7-0.25-1.24-0.48-1.61-0.67c-0.71-0.37-1.23-0.66-1.55-0.85c-1.58-1.04-2.66-2.17-3.24-3.39c-0.58-1.22-0.68-2.35-0.31-3.39
		c0.22-0.61,0.58-1.14,1.09-1.59c1.11-0.93,2.36-1.18,3.74-0.72c0.53,0.19,1.06,0.48,1.58,0.87c0.12,0.07,0.21,0.14,0.29,0.2
		c0.07,0.06,0.15,0.11,0.2,0.15l0.51,0.44l0.45,0.44C10.22,21.26,10.45,21.4,10.81,21.6z"/>
	<g>
		<path class="st0" d="M363.82,305.51c-0.38-1.64-2.11-2.87-3.78-2.69c-0.04,0.01-0.09,0.01-0.13,0.02
			c-0.38,0.07-0.61,0.26-0.77,0.62c-0.59,1.3-0.16,4.03,0.7,7.08C362.77,309.22,364.25,307.37,363.82,305.51z"/>
		<path class="st0" d="M349.93,312.95l3.94-0.01c-1.02-3.85-2.05-6.67-2.74-7.34C350.55,306.27,350.11,309.16,349.93,312.95z"/>
		<path class="st0" d="M361.69,288.63c-15.42,2.89-25.92,15.96-23.44,29.2c2.48,13.24,15.59,14.15,31.02,11.26
			c11.39-2.13,1.69,9,1.87,9.99c0.23,1.24,27.93-5.22,22.96-31.72C391.62,294.13,377.11,285.74,361.69,288.63z M358.16,322.02
			c0.12,0.69-0.26,1.34-0.86,1.45c0,0-0.01,0-0.01,0c-0.61,0.11-1.2-0.37-1.33-1.07c-0.43-2.42-0.93-4.77-1.44-6.92l-4.66,0.01
			c-0.02,1.54,0,3.16,0.06,4.8c0.03,0.71-0.46,1.28-1.07,1.27c-0.62,0-1.15-0.58-1.17-1.28c-0.31-7.78,0.02-17.1,3.24-17.3
			C353.43,302.82,355.87,309.22,358.16,322.02z M368.08,318.17c-0.31,0.59-1,0.76-1.54,0.37l-5.34-3.84
			c0.77,2.11,1.62,4.14,2.37,5.77c0.29,0.64,0.09,1.4-0.46,1.7c-0.1,0.05-0.2,0.09-0.3,0.11c-0.48,0.09-0.98-0.19-1.22-0.71
			c-0.07-0.14-1.65-3.58-3.02-7.61c-1.95-5.75-2.42-9.6-1.44-11.76c0.51-1.13,1.4-1.79,2.59-1.92c2.79-0.31,5.6,1.8,6.27,4.69
			c0.26,1.13,0.64,4.69-4.02,7.33l5.7,4.09C368.21,316.79,368.39,317.58,368.08,318.17z M376.9,317.64
			c-0.18,0.34-0.23,0.41-0.33,0.55l-0.1,0.15c-0.8,1.18-1.57,1.66-2.23,1.79c-0.42,0.08-0.8,0.02-1.11-0.1
			c-1.7-0.63-2.91-3.71-3.77-7.35l-1.39,0.63c-0.07,0.03-0.15,0.06-0.22,0.07c-0.51,0.1-1.04-0.23-1.26-0.8
			c-0.25-0.66,0-1.4,0.57-1.65l1.78-0.8c-0.63-3.45-0.99-7-1.18-9.26c-0.06-0.7,0.39-1.3,1.01-1.33c0.62-0.03,1.17,0.51,1.22,1.22
			c0.25,2.98,0.63,5.87,1.08,8.41l2.78-1.25c0.57-0.25,1.23,0.07,1.48,0.73c0.25,0.66,0,1.4-0.57,1.65l-3.19,1.44
			c0.73,3.33,1.55,5.61,2.26,5.88c0.06,0.02,0.38-0.06,0.92-0.87c0.06-0.09,0.11-0.16,0.14-0.21c0.05-0.07,0.07-0.1,0.16-0.27
			c0.31-0.59,1-0.76,1.54-0.38C377.03,316.26,377.21,317.05,376.9,317.64z M385.83,311.17c0.15,2.19-1.05,4.17-2.92,4.82
			c-0.19,0.06-0.38,0.12-0.57,0.15c-2.08,0.39-4.23-0.97-5.85-3.74c-0.35-0.6-0.22-1.39,0.29-1.76c0.51-0.37,1.21-0.18,1.56,0.42
			c1.16,1.98,2.58,2.91,3.82,2.48c0.89-0.31,1.49-1.27,1.42-2.3c-0.12-1.68-1.88-3.14-4.72-3.89c-4.47-1.19-5.3-3.95-5.45-5.08
			c-0.23-1.74,0.56-3.4,1.95-4.14c1.68-0.89,3.7-0.27,5.39,1.66c0.45,0.51,0.46,1.32,0.04,1.8c-0.43,0.48-1.14,0.46-1.59-0.05
			c-0.97-1.1-2.02-1.51-2.81-1.1c-0.54,0.29-0.85,0.92-0.76,1.57c0.16,1.22,1.52,2.28,3.63,2.85
			C384.9,306.37,385.73,309.78,385.83,311.17z"/>
	</g>
	<path class="st0" d="M402.24,365.35c0.7,0.26,1.28,0.2,1.75-0.17c0.47-0.36,0.91-1.11,1.32-2.22l6.22-17.37
		c0.56-1.55,1.57-2.68,3.04-3.37c1.47-0.69,2.94-0.77,4.42-0.24c1.5,0.54,2.59,1.55,3.25,3.04c0.67,1.48,0.71,3.01,0.15,4.59
		l-6.19,17.26c-0.94,2.61-2.22,4.69-3.85,6.23c-1.62,1.54-3.49,2.51-5.61,2.89c-2.11,0.38-4.37,0.14-6.78-0.72
		c-0.86-0.31-1.52-0.58-1.97-0.81c-0.87-0.45-1.5-0.8-1.89-1.05c-1.93-1.27-3.25-2.66-3.96-4.15c-0.71-1.5-0.84-2.88-0.38-4.15
		c0.26-0.75,0.71-1.4,1.33-1.95c1.36-1.14,2.88-1.44,4.58-0.88c0.65,0.23,1.3,0.59,1.94,1.07c0.15,0.08,0.26,0.17,0.36,0.24
		c0.09,0.07,0.18,0.14,0.24,0.18l0.63,0.54l0.55,0.54C401.52,364.94,401.8,365.11,402.24,365.35z"/>
	<g>
		<path class="st0" d="M556.83,21.78c-0.4-1.7-2.19-2.98-3.92-2.79c-0.05,0.01-0.09,0.01-0.13,0.02c-0.39,0.07-0.63,0.27-0.8,0.64
			c-0.61,1.35-0.17,4.18,0.73,7.35C555.74,25.62,557.28,23.7,556.83,21.78z"/>
		<path class="st0" d="M542.42,29.49l4.09-0.01c-1.06-3.99-2.12-6.92-2.85-7.61C543.06,22.57,542.61,25.56,542.42,29.49z"/>
		<path class="st0" d="M554.62,4.27c-16,3-26.88,16.56-24.31,30.29c2.57,13.73,16.17,14.68,32.17,11.68
			c11.82-2.21,1.75,9.34,1.94,10.36c0.24,1.29,28.97-5.41,23.82-32.9C585.67,9.97,570.61,1.27,554.62,4.27z M550.95,38.91
			c0.13,0.72-0.27,1.39-0.9,1.51c0,0-0.01,0-0.01,0c-0.63,0.11-1.25-0.38-1.38-1.11c-0.45-2.51-0.96-4.94-1.49-7.18l-4.83,0.01
			c-0.02,1.6,0,3.28,0.06,4.98c0.03,0.73-0.47,1.33-1.11,1.32c-0.64,0-1.19-0.6-1.22-1.33c-0.32-8.07,0.02-17.74,3.36-17.95
			C546.05,18.99,548.58,25.63,550.95,38.91z M561.24,34.91c-0.32,0.61-1.04,0.78-1.6,0.39l-5.54-3.98c0.79,2.19,1.68,4.3,2.46,5.99
			c0.31,0.66,0.09,1.45-0.47,1.76c-0.1,0.06-0.2,0.09-0.31,0.11c-0.49,0.09-1.02-0.19-1.27-0.74c-0.07-0.15-1.71-3.71-3.13-7.89
			c-2.02-5.97-2.51-9.96-1.49-12.2c0.53-1.17,1.45-1.86,2.68-1.99c2.89-0.32,5.81,1.87,6.51,4.86c0.27,1.17,0.66,4.86-4.17,7.61
			l5.92,4.25C561.38,33.47,561.57,34.29,561.24,34.91z M570.4,34.36c-0.19,0.36-0.24,0.43-0.34,0.57l-0.11,0.15
			c-0.83,1.23-1.63,1.72-2.31,1.85c-0.44,0.08-0.82,0.02-1.15-0.1c-1.76-0.65-3.02-3.84-3.91-7.62l-1.44,0.65
			c-0.08,0.03-0.15,0.06-0.23,0.07c-0.53,0.1-1.08-0.23-1.31-0.83c-0.26-0.68,0-1.45,0.59-1.71l1.85-0.83
			c-0.66-3.57-1.03-7.26-1.23-9.6c-0.06-0.73,0.41-1.34,1.05-1.38c0.64-0.03,1.21,0.53,1.27,1.26c0.25,3.09,0.65,6.09,1.12,8.72
			l2.88-1.3c0.59-0.26,1.28,0.07,1.54,0.75c0.26,0.68,0,1.45-0.59,1.71l-3.31,1.49c0.76,3.45,1.61,5.82,2.34,6.09
			c0.06,0.02,0.39-0.07,0.96-0.91c0.07-0.1,0.11-0.16,0.15-0.22c0.05-0.07,0.07-0.11,0.16-0.28c0.32-0.61,1.04-0.79,1.59-0.39
			C570.53,32.93,570.72,33.75,570.4,34.36z M579.66,27.65c0.16,2.27-1.09,4.33-3.03,5c-0.19,0.07-0.39,0.12-0.59,0.16
			c-2.16,0.4-4.39-1.01-6.07-3.88c-0.36-0.62-0.23-1.44,0.3-1.82c0.53-0.38,1.26-0.19,1.62,0.43c1.2,2.05,2.68,3.02,3.96,2.58
			c0.93-0.32,1.55-1.32,1.48-2.38c-0.12-1.74-1.95-3.25-4.9-4.04c-4.64-1.24-5.5-4.1-5.65-5.27c-0.23-1.8,0.58-3.53,2.03-4.29
			c1.75-0.93,3.84-0.28,5.6,1.72c0.46,0.53,0.48,1.37,0.04,1.87c-0.44,0.5-1.18,0.48-1.65-0.05c-1.01-1.15-2.1-1.57-2.91-1.14
			c-0.56,0.3-0.88,0.95-0.79,1.63c0.16,1.27,1.57,2.37,3.77,2.96C578.7,22.67,579.56,26.2,579.66,27.65z"/>
	</g>
	<path class="st0" d="M504.28,86.25c0.77,0.28,1.41,0.22,1.92-0.19c0.52-0.4,1-1.22,1.45-2.44l6.83-19.06
		c0.61-1.7,1.73-2.94,3.34-3.7c1.61-0.76,3.22-0.84,4.85-0.26c1.65,0.59,2.84,1.7,3.57,3.33c0.73,1.63,0.78,3.3,0.16,5.03
		l-6.79,18.94c-1.03,2.87-2.44,5.14-4.23,6.84c-1.78,1.69-3.83,2.75-6.15,3.18c-2.32,0.42-4.8,0.15-7.44-0.79
		c-0.94-0.34-1.66-0.64-2.16-0.89c-0.96-0.5-1.65-0.88-2.08-1.15c-2.12-1.4-3.57-2.91-4.35-4.55c-0.78-1.64-0.92-3.16-0.41-4.56
		c0.29-0.82,0.78-1.53,1.46-2.14c1.49-1.25,3.16-1.58,5.03-0.97c0.72,0.25,1.42,0.65,2.12,1.17c0.16,0.09,0.29,0.19,0.39,0.27
		c0.1,0.08,0.2,0.15,0.27,0.2l0.69,0.6l0.6,0.59C503.49,85.8,503.8,85.99,504.28,86.25z"/>
	<path class="st0" d="M552.38,284.05c0.7,0.26,1.28,0.2,1.75-0.17c0.47-0.36,0.91-1.11,1.32-2.22l6.22-17.37
		c0.56-1.55,1.57-2.68,3.04-3.37c1.47-0.69,2.94-0.77,4.42-0.24c1.5,0.54,2.59,1.55,3.25,3.04c0.67,1.48,0.71,3.01,0.15,4.59
		l-6.19,17.26c-0.94,2.61-2.22,4.69-3.85,6.23c-1.62,1.54-3.49,2.51-5.61,2.89c-2.11,0.38-4.37,0.14-6.78-0.72
		c-0.86-0.31-1.52-0.58-1.97-0.81c-0.87-0.45-1.5-0.8-1.89-1.05c-1.93-1.27-3.25-2.66-3.96-4.15c-0.71-1.5-0.84-2.88-0.38-4.15
		c0.26-0.75,0.71-1.4,1.33-1.95c1.36-1.14,2.88-1.44,4.58-0.88c0.65,0.23,1.3,0.59,1.94,1.07c0.15,0.08,0.26,0.17,0.36,0.24
		c0.09,0.07,0.18,0.14,0.24,0.18l0.63,0.54l0.55,0.54C551.66,283.64,551.94,283.82,552.38,284.05z"/>
	<g>
		<path class="st0" d="M665.82,261.31c0.37-1.87-0.84-3.95-2.65-4.55c-0.05-0.02-0.1-0.03-0.14-0.04c-0.42-0.1-0.75-0.02-1.09,0.28
			c-1.22,1.07-2.06,4.09-2.59,7.65C663,264.65,665.39,263.43,665.82,261.31z"/>
		<path class="st0" d="M647.98,262.49l4.08,1.84c0.75-4.46,1.01-7.86,0.6-8.87C651.74,255.88,649.93,258.66,647.98,262.49z"/>
		<path class="st0" d="M671.52,242.86c-17.3-4.24-34.27,4.37-37.91,19.22c-3.64,14.85,9.49,21.93,26.79,26.17
			c12.78,3.13-2.47,10.1-2.74,11.21c-0.34,1.39,31.32,7.69,38.6-22.04C699.89,262.56,688.81,247.09,671.52,242.86z M652.23,275.73
			c-0.2,0.77-0.9,1.26-1.57,1.1c0,0-0.01,0-0.01,0c-0.68-0.17-1.07-0.95-0.87-1.72c0.68-2.7,1.27-5.36,1.75-7.83l-4.82-2.17
			c-0.74,1.58-1.48,3.27-2.18,4.99c-0.3,0.74-1.07,1.11-1.7,0.81c-0.64-0.29-0.91-1.13-0.61-1.87c3.32-8.19,8.03-17.67,11.46-16.37
			C656.33,253.66,655.85,261.42,652.23,275.73z M664.29,276.39c-0.6,0.46-1.39,0.31-1.76-0.34l-3.73-6.47
			c-0.19,2.54-0.27,5.04-0.25,7.08c0.01,0.8-0.56,1.49-1.27,1.55c-0.12,0.01-0.24,0-0.36-0.03c-0.53-0.13-0.93-0.65-0.93-1.31
			c0-0.18-0.03-4.47,0.44-9.28c0.68-6.86,1.99-11.06,4.02-12.84c1.06-0.92,2.28-1.2,3.57-0.77c3.02,0.99,4.95,4.48,4.29,7.79
			c-0.26,1.29-1.53,5.15-7.59,5.7l3.98,6.9C665.07,275.02,664.89,275.92,664.29,276.39z M673.66,279.98
			c-0.35,0.27-0.44,0.32-0.6,0.41l-0.17,0.1c-1.38,0.85-2.4,0.98-3.14,0.8c-0.47-0.12-0.83-0.36-1.1-0.62
			c-1.46-1.45-1.28-5.2-0.45-9.36l-1.73,0c-0.09,0-0.18-0.01-0.26-0.03c-0.57-0.14-0.97-0.72-0.93-1.41
			c0.05-0.8,0.65-1.44,1.36-1.44l2.22,0c0.96-3.86,2.25-7.7,3.11-10.12c0.27-0.75,1.01-1.16,1.67-0.9c0.65,0.26,0.96,1.08,0.69,1.83
			c-1.14,3.19-2.1,6.37-2.82,9.2l3.46,0.01c0.7,0.01,1.24,0.65,1.19,1.45c-0.05,0.8-0.66,1.44-1.36,1.44l-3.97-0.01
			c-0.81,3.78-1.02,6.53-0.42,7.13c0.05,0.05,0.42,0.11,1.36-0.47c0.11-0.07,0.18-0.11,0.25-0.15c0.08-0.05,0.12-0.07,0.29-0.2
			c0.6-0.47,1.39-0.32,1.76,0.33C674.44,278.61,674.26,279.51,673.66,279.98z M685.92,277.47c-0.87,2.34-3.04,3.82-5.27,3.61
			c-0.22-0.02-0.44-0.06-0.65-0.11c-2.33-0.57-3.92-2.98-4.3-6.61c-0.08-0.78,0.42-1.54,1.12-1.68c0.7-0.14,1.34,0.38,1.42,1.16
			c0.27,2.59,1.31,4.22,2.78,4.35c1.07,0.1,2.14-0.62,2.55-1.71c0.67-1.79-0.48-4.12-3.06-6.24c-4.07-3.33-3.63-6.57-3.25-7.81
			c0.58-1.9,2.17-3.25,3.96-3.36c2.16-0.13,3.95,1.45,4.8,4.24c0.22,0.74-0.14,1.58-0.81,1.88c-0.67,0.3-1.4-0.05-1.62-0.79
			c-0.49-1.6-1.38-2.51-2.39-2.45c-0.69,0.04-1.31,0.55-1.52,1.26c-0.41,1.34,0.5,3.07,2.42,4.65
			C687.21,272.07,686.47,275.98,685.92,277.47z"/>
	</g>
	<circle class="st0" cx="689.03" cy="381.29" r="11.59"/>
	<path class="st0" d="M722.78,158.55c0.65,0.24,1.18,0.18,1.62-0.16c0.43-0.33,0.84-1.02,1.22-2.05l5.75-16.04
		c0.52-1.43,1.45-2.48,2.81-3.12c1.36-0.64,2.71-0.71,4.09-0.22c1.39,0.5,2.39,1.43,3,2.8c0.61,1.37,0.65,2.78,0.14,4.24
		l-5.71,15.94c-0.87,2.41-2.05,4.33-3.56,5.75c-1.5,1.42-3.22,2.32-5.18,2.67c-1.95,0.35-4.04,0.13-6.26-0.67
		c-0.79-0.28-1.4-0.54-1.82-0.75c-0.8-0.42-1.39-0.74-1.75-0.97c-1.78-1.18-3-2.45-3.66-3.83c-0.65-1.38-0.77-2.66-0.35-3.83
		c0.24-0.69,0.65-1.29,1.23-1.8c1.25-1.06,2.66-1.33,4.23-0.82c0.6,0.21,1.2,0.54,1.79,0.98c0.14,0.08,0.24,0.16,0.33,0.23
		c0.08,0.07,0.17,0.13,0.22,0.17l0.58,0.5l0.5,0.5C722.11,158.17,722.37,158.33,722.78,158.55z"/>
	<path class="st0" d="M668.73,342.28c0.53,0.19,0.97,0.15,1.33-0.13c0.36-0.27,0.69-0.84,1-1.68l4.72-13.17
		c0.42-1.18,1.19-2.03,2.31-2.56c1.11-0.53,2.23-0.58,3.35-0.18c1.14,0.41,1.96,1.18,2.46,2.3c0.5,1.12,0.54,2.28,0.11,3.48
		l-4.69,13.09c-0.71,1.98-1.68,3.55-2.92,4.72c-1.23,1.17-2.65,1.9-4.25,2.19c-1.6,0.29-3.32,0.11-5.14-0.55
		c-0.65-0.23-1.15-0.44-1.5-0.62c-0.66-0.34-1.14-0.61-1.43-0.79c-1.46-0.97-2.47-2.01-3.01-3.15c-0.54-1.13-0.63-2.18-0.29-3.15
		c0.2-0.57,0.54-1.06,1.01-1.48c1.03-0.87,2.19-1.09,3.48-0.67c0.49,0.18,0.98,0.45,1.47,0.81c0.11,0.06,0.2,0.13,0.27,0.19
		c0.07,0.06,0.14,0.11,0.18,0.14l0.48,0.41l0.41,0.41C668.18,341.97,668.39,342.11,668.73,342.28z"/>
	<polygon class="st0" points="740.93,277.71 733.29,272.42 724.6,275.71 727.27,266.81 721.45,259.56 730.75,259.35 735.84,251.58 
		738.91,260.36 747.88,262.8 740.48,268.43 	"/>
	<circle class="st0" cx="238.26" cy="11.04" r="8.73"/>
</g>
</svg>
