<?xml version="1.0" encoding="utf-8"?>
<!-- Generator: Adobe Illustrator 24.1.3, SVG Export Plug-In . SVG Version: 6.00 Build 0)  -->
<svg version="1.1" xmlns="http://www.w3.org/2000/svg" xmlns:xlink="http://www.w3.org/1999/xlink" x="0px" y="0px"
	 viewBox="0 0 88.04 104.26" style="enable-background:new 0 0 88.04 104.26;" xml:space="preserve">
<style type="text/css">
	.st0{fill:#231F20;}
	.st1{fill:#FFFFFF;}
</style>
<g id="Layer_1">
</g>
<g id="Layer_2">
	<path class="st0" d="M87.61,47.62c-1.08-4.67-3.55-8.25-7.15-10.38c-4.17-2.46-8.84-2.46-11.81-2.09c-5.04-6.62-12-8-17.4-7.51
		V14.41c0-5.54-2.41-8.92-4.42-10.77C44.28,1.29,40.89,0,37.28,0c-8.79,0-13.39,6.69-13.39,13.3v29.82
		c-0.55-0.56-1.13-1.17-1.75-1.81c-4.93-5.12-12.03-5.7-17.26-1.4c-4.81,3.96-7.06,11.71-2.05,18.87
		c4.62,6.6,20.37,27.31,24.22,32.37l-0.1,13.11h48.83V90.26C78.58,84.64,90.43,59.83,87.61,47.62z M68.21,87.49l-0.44,0.86v7.91
		H35.01l0.06-7.78l-0.83-1.09c-0.2-0.26-19.79-25.96-24.86-33.2c-2.34-3.34-1.39-6.48,0.58-8.1c0.74-0.61,3.4-2.36,6.41,0.77
		c6.24,6.49,8.74,8.74,8.84,8.83l6.68,6.01V13.3c0-3.91,2.9-5.3,5.39-5.3c1.57,0,3.07,0.55,4.12,1.52c1.22,1.13,1.84,2.77,1.84,4.89
		V32.6l0.03,5.79l21.63,5.88l2.99-0.85c0.05-0.01,5.05-1.31,8.5,0.72c1.71,1.01,2.83,2.74,3.42,5.29
		C81.59,57.11,73.64,76.85,68.21,87.49z"/>
	<path class="st0" d="M43.92,53.32c-1.38,0-2.5,1.12-2.5,2.5v15.74c0,1.38,1.12,2.5,2.5,2.5s2.5-1.12,2.5-2.5V55.82
		C46.42,54.44,45.3,53.32,43.92,53.32z"/>
	<path class="st0" d="M53.94,53.32c-1.38,0-2.5,1.12-2.5,2.5v15.74c0,1.38,1.12,2.5,2.5,2.5s2.5-1.12,2.5-2.5V55.82
		C56.44,54.44,55.32,53.32,53.94,53.32z"/>
	<path class="st0" d="M63.95,53.32c-1.38,0-2.5,1.12-2.5,2.5v15.74c0,1.38,1.12,2.5,2.5,2.5c1.38,0,2.5-1.12,2.5-2.5V55.82
		C66.45,54.44,65.33,53.32,63.95,53.32z"/>
	<path class="st1" d="M46.42,71.56c0,1.38-1.12,2.5-2.5,2.5s-2.5-1.12-2.5-2.5V55.82c0-1.38,1.12-2.5,2.5-2.5s2.5,1.12,2.5,2.5
		V71.56z M56.44,71.56c0,1.38-1.12,2.5-2.5,2.5s-2.5-1.12-2.5-2.5V55.82c0-1.38,1.12-2.5,2.5-2.5s2.5,1.12,2.5,2.5V71.56z
		 M66.45,71.56c0,1.38-1.12,2.5-2.5,2.5c-1.38,0-2.5-1.12-2.5-2.5V55.82c0-1.38,1.12-2.5,2.5-2.5c1.38,0,2.5,1.12,2.5,2.5V71.56z
		 M76.4,44.13c-3.45-2.03-8.45-0.74-8.5-0.72l-2.99,0.85c-6.5-13.26-21.63-5.88-21.63-5.88l-0.03-5.79V14.41
		c0-2.12-0.62-3.76-1.84-4.89C40.36,8.55,38.85,8,37.28,8c-2.49,0-5.39,1.39-5.39,5.3v48.4l-6.68-6.01c-0.1-0.09-2.6-2.35-8.84-8.83
		c-3.01-3.13-5.67-1.38-6.41-0.77c-1.97,1.63-2.92,4.76-0.58,8.1c5.07,7.24,24.66,32.94,24.86,33.2l0.83,1.09l-0.06,7.78h32.76
		v-7.91l0.44-0.86c5.43-10.64,13.38-30.39,11.6-38.08C79.23,46.87,78.11,45.14,76.4,44.13z"/>
</g>
</svg>
