<?xml version="1.0" encoding="utf-8"?>
<!-- Generator: Adobe Illustrator 24.1.3, SVG Export Plug-In . SVG Version: 6.00 Build 0)  -->
<svg version="1.1" id="Layer_1" xmlns="http://www.w3.org/2000/svg" xmlns:xlink="http://www.w3.org/1999/xlink" x="0px" y="0px"
	 viewBox="0 0 73.98 77.48" style="enable-background:new 0 0 73.98 77.48;" xml:space="preserve">
<style type="text/css">
	.st0{fill:#000001;}
	.st1{fill:#FFFF65;}
</style>
<g>
	<path class="st0" d="M49.3,61.9c-1.12-0.06-2.16-0.13-3.19-0.15c-2.81-0.08-5.63-0.13-8.44-0.21c-1.94-0.05-3.88-0.14-5.83-0.19
		c-1.02-0.03-1.03,0-0.66,0.91c1.93,4.78-1.42,10.44-6.73,10.72c-3.1,0.16-5.47-1.3-6.82-4.1c-1.43-2.98-0.93-5.82,1.06-8.41
		c0.43-0.56,0.93-1.07,1.54-1.4c0.58-0.32,0.59-0.7,0.48-1.29c-1.6-8.47-3.17-16.94-4.76-25.41c-0.93-4.99-1.88-9.98-2.8-14.97
		c-0.12-0.66-0.47-0.41-0.82-0.31c-2.56,0.74-5.12,1.49-7.69,2.21c-1.38,0.39-2.38-0.09-2.71-1.27c-0.33-1.12,0.24-2.12,1.54-2.53
		c1.99-0.62,4.01-1.17,6.01-1.75c1.39-0.4,2.78-0.82,4.18-1.19c1.37-0.36,2.39,0.21,2.7,1.58c0.39,1.7,0.69,3.41,0.99,5.13
		c0.09,0.54,0.28,0.72,0.85,0.67c5.29-0.49,10.59-0.97,15.88-1.43c3.56-0.31,7.12-0.6,10.68-0.92c5.29-0.47,10.58-0.95,15.87-1.42
		c1.16-0.1,2.31-0.22,3.47-0.25c1.75-0.04,2.65,0.98,2.38,2.72c-1.05,6.67-2.12,13.35-3.19,20.02c-0.43,2.66-0.87,5.32-1.28,7.99
		c-0.35,2.26-0.87,2.75-3.11,2.96c-6.27,0.58-12.54,1.17-18.82,1.75c-4.42,0.41-8.84,0.82-13.26,1.23
		c-0.84,0.08-1.67,0.19-2.51,0.23c-0.55,0.02-0.61,0.25-0.51,0.72c0.21,0.99,0.42,1.99,0.56,2.99c0.06,0.45,0.26,0.57,0.67,0.59
		c1.71,0.05,3.42,0.11,5.14,0.17c6.39,0.21,12.77,0.41,19.16,0.62c2.35,0.08,4.7,0.06,7.04,0.29c1.93,0.18,3.44,1.07,4.6,2.61
		c3.66,4.9,1.37,11.88-4.63,13.11c-3.6,0.74-7.37-1.75-8.26-5.55C47.58,66.23,47.87,64.61,49.3,61.9z"/>
	<g>
		<path class="st1" d="M23.84,48.9c-0.64,0.24-0.93-0.06-1.09-0.94c-1.42-7.73-2.89-15.45-4.36-23.17c-0.14-0.71,0.03-0.9,0.77-0.96
			c6.22-0.5,12.43-1.04,18.64-1.58c3.84-0.33,7.69-0.66,11.53-1.01c4.16-0.37,8.32-0.76,12.48-1.15c0.43-0.04,0.62-0.03,0.53,0.52
			c-1.31,8.07-2.6,16.14-3.89,24.21c-0.09,0.57-0.24,0.85-0.94,0.91c-6.22,0.53-12.43,1.12-18.64,1.71
			C33.92,47.92,28.98,48.4,23.84,48.9z"/>
		<path class="st1" d="M24.42,61.73c1.51-0.36,3.37,1.19,3.43,3.14c0.07,2.19-1.47,3.97-3.63,4.11c-1.87,0.12-3.48-1.36-3.56-3.29
			C20.56,63.59,22.22,61.84,24.42,61.73z"/>
		<path class="st1" d="M55.4,62.78c1.67-0.36,3.42,1.3,3.47,3.07c0.07,2.23-1.5,4.04-3.68,4.14c-1.87,0.08-3.42-1.32-3.5-3.24
			C51.61,64.46,53.53,62.58,55.4,62.78z"/>
	</g>
	<path class="st0" d="M41.97,41.05c-2.96-0.05-5.27-1.31-7.22-3.34c-1.45-1.5-2.51-3.27-3.29-5.19c-0.11-0.27-0.19-0.55-0.23-0.84
		c-0.13-0.93,0.37-1.83,1.17-2.12c0.88-0.32,1.81,0.01,2.31,0.89c0.37,0.66,0.64,1.37,1.01,2.03c0.76,1.39,1.72,2.63,3.04,3.54
		c2.38,1.65,4.83,1.25,6.58-1.06c1.08-1.43,1.59-3.08,1.91-4.81c0.04-0.23,0.07-0.46,0.13-0.68c0.28-1.09,1.09-1.71,2.06-1.6
		c0.94,0.11,1.76,0.96,1.65,2.03c-0.44,4.22-1.92,7.89-5.78,10.18C44.25,40.69,43.08,40.93,41.97,41.05z"/>
</g>
</svg>
