<?xml version="1.0" encoding="utf-8"?>
<!-- Generator: Adobe Illustrator 24.1.3, SVG Export Plug-In . SVG Version: 6.00 Build 0)  -->
<svg version="1.1" id="Layer_1" xmlns="http://www.w3.org/2000/svg" xmlns:xlink="http://www.w3.org/1999/xlink" x="0px" y="0px"
	 viewBox="0 0 73.98 76.58" style="enable-background:new 0 0 73.98 76.58;" xml:space="preserve">
<style type="text/css">
	.st0{fill:#FFFFFF;}
	.st1{fill:#000001;}
	.st2{fill:#FFFF65;}
</style>
<g>
	<path class="st0" d="M71.74,54.3c-0.05-0.08-0.11-0.15-0.16-0.22c-0.38-0.59-0.92-1.22-1.66-1.87c-3.05-2.64-2.66-3.94-0.69-6.53
		c0.92-1.09,1.34-2.58,1.38-4.65c0.03-1.59,0.08-3.22,0.13-4.79c0.03-1.13,0.07-2.25,0.09-3.38c0.16-6.56,0.33-13.35,0.48-20.04
		c0.04-1.97-0.65-3.67-1.96-4.79c-1.31-1.11-3.1-1.53-5.04-1.17c-1.1,0.2-2.18,0.45-3.22,0.68l-0.23,0.05
		c-2.19,0.49-4.38,0.99-6.56,1.49c-3.05,0.69-6.09,1.38-9.14,2.07c-1.66,0.37-3.32,0.74-4.99,1.11c-1.74,0.38-3.48,0.77-5.22,1.16
		c-4.27,0.96-8.68,1.97-13.16,2.99c-0.12-0.38-0.25-0.76-0.37-1.13l-0.33-0.93c-0.63-1.92-1.72-3.24-3.24-3.91s-3.23-0.6-5.08,0.23
		c-0.79,0.35-1.59,0.7-2.39,1.05c-0.85,0.36-1.71,0.73-2.56,1.11c-0.33,0.15-0.66,0.29-1,0.44c-1.25,0.55-2.55,1.13-3.84,1.78
		c-2.71,1.39-3.75,4.62-2.36,7.34c1.3,2.54,4.12,3.61,6.88,2.59c0.34-0.13,0.65-0.26,0.91-0.38l0.81-0.36
		c1.08-0.47,2.15-0.95,3.23-1.42c0.93,2.82,1.87,5.64,2.79,8.42l-2.9,0.98c-1.87,0.63-3.74,1.26-5.61,1.9
		c-0.89,0.3-3.6,1.22-4.23,4.35c-0.38,1.89,0.23,3.76,1.63,5c1.19,1.05,2.77,1.51,4.42,1.33c-0.02,0.59,0.06,1.19,0.25,1.77
		c0.72,2.23,2.81,3.72,5.2,3.72c0.01,0,0.03,0,0.04,0c0.99-0.01,1.79-0.27,2.27-0.43c0.75-0.25,1.51-0.5,2.27-0.75
		c0.75-0.25,1.52-0.5,2.29-0.76c0.63,1.94,1.28,3.91,1.93,5.89c-2.38-1.15-5.23-0.41-6.86,1.89c-1.68,2.37-2.57,5.04-2.56,7.71
		c-0.02,2.74,0.62,5.06,1.96,7.12c1.14,1.75,2.93,2.71,4.75,2.71c0.97,0,1.94-0.27,2.83-0.83c0.37-0.23,0.7-0.51,0.99-0.81
		c0.41,0.47,0.85,0.9,1.34,1.3c2.05,1.65,4.35,2.49,6.7,2.49c1.37,0,2.77-0.29,4.15-0.87c3.97-1.67,6.37-4.9,6.92-9.36
		c0.12-0.96,0.11-1.91-0.03-2.85c2.47-0.26,4.94-0.52,7.41-0.77c0.57-0.06,1.14-0.12,1.72-0.17c0,0.15,0,0.28,0.01,0.41
		c0.12,3.68,2.08,7.01,5.25,8.91c3.15,1.89,6.99,2.05,10.27,0.43c2.96-1.46,5.13-4.14,5.96-7.35C74.48,60.87,73.79,57.26,71.74,54.3
		z M32.17,64.6c0.01-0.04,0.03-0.07,0.05-0.09C32.22,64.52,32.21,64.56,32.17,64.6z"/>
	<g>
		<g>
			<path class="st1" d="M56.47,57.86c-2.21,0.21-4.32,0.4-6.42,0.62c-3.52,0.36-7.04,0.74-10.57,1.11c-0.26,0.03-0.52,0.09-0.78,0.1
				c-0.54,0.03-0.55,0.24-0.29,0.65c0.91,1.48,1.34,3.08,1.12,4.82c-0.38,3.07-1.91,5.34-4.8,6.55c-2.62,1.1-5.09,0.63-7.28-1.12
				c-3.49-2.81-3.62-8.44-0.25-11.58c0.55-0.51,0.59-0.92,0.37-1.57c-1.43-4.24-2.83-8.49-4.2-12.74c-0.22-0.67-0.48-0.75-1.11-0.52
				c-2.34,0.82-4.71,1.58-7.07,2.36c-0.39,0.13-0.77,0.25-1.18,0.25c-0.88,0.01-1.61-0.49-1.87-1.29c-0.25-0.76,0.07-1.68,0.83-2.11
				c0.52-0.3,1.11-0.5,1.68-0.69c2.16-0.73,4.33-1.45,6.51-2.15c0.51-0.16,0.79-0.32,0.52-0.94c-0.34-0.79-0.35-1.98-0.92-2.35
				c-0.52-0.34-1.53,0.39-2.32,0.66c-3.2,1.08-6.39,2.17-9.59,3.24c-1.75,0.58-3.21-0.43-2.9-1.99c0.21-1.03,1.03-1.41,1.91-1.71
				c3.11-1.06,6.23-2.1,9.34-3.16c0.63-0.21,1.25-0.48,1.89-0.64c0.46-0.12,0.55-0.32,0.41-0.74c-1.59-4.76-3.18-9.53-4.74-14.3
				c-0.21-0.66-0.52-0.42-0.91-0.25c-2.26,1-4.51,1.99-6.77,2.98c-0.27,0.12-0.53,0.24-0.8,0.34c-1.07,0.39-2.06,0.04-2.53-0.89
				c-0.48-0.95-0.19-2.09,0.83-2.61c1.52-0.78,3.1-1.44,4.67-2.14c1.64-0.73,3.3-1.43,4.94-2.16c1.82-0.81,2.93-0.33,3.56,1.57
				c0.49,1.49,0.99,2.97,1.45,4.47c0.15,0.51,0.39,0.62,0.89,0.5c5.21-1.2,10.42-2.38,15.63-3.56c3.4-0.77,6.8-1.5,10.2-2.26
				c5.24-1.18,10.47-2.37,15.71-3.56c1.1-0.25,2.21-0.5,3.32-0.71c1.81-0.34,2.88,0.57,2.84,2.42c-0.15,6.68-0.32,13.35-0.48,20.03
				c-0.07,2.73-0.17,5.46-0.22,8.18c-0.05,2.4-0.41,2.88-2.78,3.44c-5.85,1.37-11.7,2.73-17.55,4.09
				c-5.37,1.24-10.74,2.47-16.12,3.69c-0.48,0.11-0.73,0.21-0.5,0.79c0.36,0.92,0.65,1.86,0.92,2.81c0.14,0.49,0.39,0.62,0.88,0.57
				c2.74-0.29,5.49-0.56,8.23-0.84c5.43-0.56,10.86-1.12,16.29-1.67c2.11-0.21,4.22-0.42,6.33-0.59c2.63-0.21,4.61,0.97,6.06,3.06
				c3.12,4.5,1.47,10.01-2.75,12.1c-4.71,2.33-10.27-1.03-10.45-6.29c-0.02-0.73,0-1.46,0.19-2.16
				C56.01,59.27,56.24,58.61,56.47,57.86z"/>
		</g>
		<g>
			<path class="st1" d="M16.91,63.86c-0.01-1.94,0.66-3.91,1.92-5.68c0.68-0.96,1.81-1.2,2.67-0.64c0.83,0.53,1.03,1.59,0.49,2.62
				c-0.12,0.23-0.26,0.45-0.39,0.68c-0.75,1.32-1.05,2.73-0.85,4.25c0.1,0.74,0.4,1.38,0.75,2.02c0.63,1.13,0.44,2.21-0.44,2.77
				c-0.93,0.57-2.06,0.25-2.76-0.83C17.32,67.55,16.89,65.89,16.91,63.86z"/>
		</g>
		<g>
			<g>
				<path class="st2" d="M63.55,28.67c-0.07,2.88-0.18,6.8-0.23,10.72c-0.01,0.84-0.17,1.24-1.1,1.44
					c-4.14,0.89-8.26,1.88-12.39,2.84c-6.5,1.51-13,3.02-19.5,4.54c-1.67,0.39-1.65,0.41-2.19-1.24
					c-2.34-7.12-4.69-14.23-7.04-21.34c-0.01-0.03-0.02-0.05-0.03-0.08c-0.41-1.19-0.41-1.17,0.83-1.45
					c5.27-1.18,10.53-2.39,15.79-3.57c3.43-0.77,6.86-1.51,10.28-2.28c4.22-0.95,8.43-1.92,12.64-2.87c0.93-0.21,1.87-0.41,2.8-0.63
					c0.37-0.08,0.51,0.02,0.5,0.43C63.8,19.33,63.69,23.48,63.55,28.67z"/>
			</g>
			<g>
				<path class="st2" d="M28.61,64.85c0.02-2.34,1.74-4.01,4.06-3.96c1.66,0.03,3.07,1.7,3.07,3.61c0,2.06-1.78,3.78-3.89,3.77
					C30.07,68.25,28.6,66.7,28.61,64.85z"/>
			</g>
			<g>
				<path class="st2" d="M59.5,61.69c0.05-2.31,1.71-3.92,4.02-3.89c1.72,0.02,3.18,1.73,3.11,3.64c-0.08,2.1-1.84,3.76-3.95,3.71
					C60.9,65.11,59.45,63.54,59.5,61.69z"/>
			</g>
		</g>
		<g>
			<path class="st1" d="M45.35,38.27c-3.43-0.09-5.98-1.67-8.15-4.01c-0.87-0.94-1.61-1.98-2.26-3.09c-0.3-0.51-0.48-1.04-0.41-1.66
				c0.08-0.74,0.45-1.25,1.12-1.53c0.68-0.28,1.31-0.16,1.88,0.3c0.39,0.32,0.63,0.76,0.89,1.18c1.03,1.65,2.27,3.09,3.99,4.05
				c2.68,1.5,5.25,0.72,6.68-2c0.78-1.47,1.05-3.06,1.15-4.7c0.02-0.26,0.01-0.52,0.03-0.78c0.1-1.07,0.79-1.83,1.7-1.91
				c0.97-0.08,1.8,0.59,2.05,1.65c1.12,4.79-2.61,11.09-7.32,12.34C46.22,38.23,45.72,38.23,45.35,38.27z"/>
		</g>
	</g>
</g>
</svg>
