<?xml version="1.0" encoding="utf-8"?>
<!-- Generator: Adobe Illustrator 24.1.3, SVG Export Plug-In . SVG Version: 6.00 Build 0)  -->
<svg version="1.1" id="Layer_1" xmlns="http://www.w3.org/2000/svg" xmlns:xlink="http://www.w3.org/1999/xlink" x="0px" y="0px"
	 viewBox="0 0 428.48 310.78" style="enable-background:new 0 0 428.48 310.78;" xml:space="preserve">
<style type="text/css">
	.st0{fill-rule:evenodd;clip-rule:evenodd;fill:#F8B700;}
	.st1{fill-rule:evenodd;clip-rule:evenodd;fill:#F2F2F2;}
	.st2{fill-rule:evenodd;clip-rule:evenodd;fill:#33C0EE;}
	.st3{fill-rule:evenodd;clip-rule:evenodd;fill:#E4241A;}
	.st4{fill-rule:evenodd;clip-rule:evenodd;fill:#3ABF48;}
	.st5{fill-rule:evenodd;clip-rule:evenodd;fill:#808080;}
	.st6{fill-rule:evenodd;clip-rule:evenodd;fill:#CF6EAC;}
	.st7{fill-rule:evenodd;clip-rule:evenodd;fill:#88802A;}
	.st8{fill-rule:evenodd;clip-rule:evenodd;fill:#0C070A;}
</style>
<path class="st0" d="M299.77,91.93c3.67-4.93,4.99-10.77,6.31-16.59c1.99-8.78,3.33-17.66,3.96-26.65c0.05-0.81,0.32-1.6,0.48-2.4
	c0.9,1.53,1.78,3.07,2.71,4.57c2.47,3.93,4.47,8.1,5.86,12.49c0.62,1.97,0.37,4.21,0.22,6.34c-0.34,4.79-2.01,9.19-4.66,13.03
	c-2.6,3.77-6.38,6.41-10.66,8.21C302.63,91.52,301.39,92.51,299.77,91.93z"/>
<path class="st0" d="M289.31,186.09c3.67-4.93,4.99-10.77,6.31-16.59c1.99-8.78,3.33-17.66,3.96-26.65c0.05-0.81,0.32-1.6,0.48-2.4
	c0.9,1.53,1.78,3.07,2.71,4.57c2.47,3.93,4.47,8.1,5.86,12.49c0.62,1.97,0.37,4.21,0.22,6.34c-0.34,4.79-2.01,9.19-4.66,13.03
	c-2.6,3.77-6.38,6.41-10.66,8.21C292.17,185.68,290.93,186.68,289.31,186.09z"/>
<path class="st0" d="M160.88,222.08c-4.37-5.42-7.92-13.76-11.81-19.52c-4.56-6.77-8.28-14.02-11.81-21.33
	c-2.88-5.97-5.43-12.14-7.22-18.57c-0.14-0.47-0.26-0.98-0.73-1.27c-0.4-5.77-0.24-11.54-0.35-17.32c0.64,0.4,0.83,1.07,1.1,1.71
	c1.02,2.43,1.95,4.91,3.11,7.27c5.68,11.6,11.88,22.92,18.47,34.03c5.46,9.21,12.18,17.45,19.98,24.81
	c2.93,2.76,8.81,5.67,12.4,8.05c-1.04,0.1-4.56,0.53-5.23,0.59C173.84,220.47,161.59,222.12,160.88,222.08z"/>
<path class="st0" d="M167.96,235.65c-3.33-3.79-10.23-6.15-14.82-7.98c1.53-0.62,5.7-0.04,7.25-0.07c4.13-0.08,8.28,0.01,12.41,0.06
	c0.6,0.01,1.19,0.14,2.27,0.27C171.95,230.21,170.19,233.13,167.96,235.65z"/>
<path class="st0" d="M242.83,14.75c-2.76-0.11-5.53-0.23-8.29-0.33c-14.51-0.49-29.02-0.37-43.53,0.18
	c-7.53,0.29-15.06,0.81-22.61,0.65c-2.55-0.08-21.67,4.57-21.67,4.57s-18.48-0.93-18.97-0.85c-4.56,0.78-6,2.37-6.35,6.96
	c-0.61,7.92,0.2,15.79,0.66,23.68c0.27,4.61,0.64,9.21,0.88,13.81c0.16,3.07-0.24,3.43-3.19,3.34c0.81-8.1-1.62-15.52-4.31-23.01
	c-2.16-6-4.63-12.03-4.63-18.63c0-1.21-0.6-2.37-0.44-3.67c1.35-10.94,5.9-17.25,16.64-20.52c4.14-1.26,8.64-1.28,13.25,0.17
	c5.92,1.87,11.26,4.93,17.02,7.01c6.17,2.23,12.23,3.99,19.16,2.05c6.2-1.73,12.6-3.02,18.95-4.33c4.34-0.89,8.68-1.63,13.07-1.97
	c3.75-0.3,7.53,0.25,11.28,0.56c3.59,0.29,7.02,1.45,10.31,2.67c3.48,1.3,6.9,3.04,9.74,5.57
	C240.74,13.51,241.97,13.84,242.83,14.75z"/>
<path class="st1" d="M157.97,64.5c2.17-2.77,4.92-4.92,7.87-6.73c4.1-2.5,8.58-4.18,13.4-4.47c6.67-0.41,13.21-0.01,18.69,4.57
	c0.92,0.77,3.82,3.31,4.71,4.11c-1.82,0.18-5.39-2.5-7.07-2.9c-8.79-2.09-16.9-0.81-24.27,4.56c-0.51,0.37-1.01,0.75-1.68,0.75
	C165.74,64.43,161.86,64.47,157.97,64.5z"/>
<path class="st2" d="M15.13,185.98c-0.53,3.72-1.03,7.45-1.6,11.17c-0.61,3.93-0.67,7.89-0.79,11.85c-0.06,1.86,0.86,3.31,2.42,4.42
	c2.16,1.54,4.5,2.77,6.89,3.9c8.99,4.25,18.44,6.71,28.4,6.68c4.3-0.01,8.72,0.14,12.7-2.04c0.42,5.53-0.38,10.93-2.61,15.94
	c-0.97,2.18-3.04,3.97-5.28,5.13c-4.3,2.23-8.62,1.59-12.55-0.82c-4.25-2.62-7.28-6.55-10.16-10.58c-1.38-1.93-2.95-3.72-4.54-5.48
	c-0.84-0.93-2.05-0.77-3.2-0.63c-2.79,0.34-5.54,0.98-8.41,0.65c-3.03-0.35-7.91-5.13-8.91-8.05c-1.38-4.03-1.74-8.05-1.26-12.17
	c0.36-3.11,1-6.16,2.28-9.07c0.65-1.46,0.98-3.01,1.87-4.42C11.83,190.18,13.11,187.82,15.13,185.98z"/>
<path class="st0" d="M172.99,240.13c2.17-4.18,5.99-6.6,9.61-9.33c4.07-3.07,8.52-2.41,12.96-2.16c5.9,0.33,11.8,0.69,17.69,1.05
	c9.03,0.56,18.06,0.96,27.07,1.78c0.75,0.07,2.89-0.74,3.63-0.62c-4.93,4.3-13.99,10.24-17.72,11.53
	c-3.99,1.38-11.09,0.12-15.75-0.83c-3.4-0.7-6.66-0.6-10.04-0.57c-2.26,0.02-3.97,1.08-5.76,1.96c-5.6,2.72-11.05,2.35-16.64,0.01
	C176.24,242.18,174.71,241.02,172.99,240.13z"/>
<path class="st2" d="M84.6,25.56c-0.97-4.78-4.2-7.24-8.65-8.45c-1.27-0.35-2.57-0.6-3.86-0.9c-3.21-0.74-5.25,0.03-7.15,2.78
	c-3.12,4.51-5.61,9.37-7.92,14.33c-1.57,3.36-3.22,6.68-4.77,10.05c-0.45,0.98-1.01,1.41-2.13,1.43c-2.13,0.03-4.26,0.25-6.39,0.38
	c-1.37,0.08-2.09,0.96-2.72,2.05c-2.64,4.58-3.65,9.72-5.12,14.71c-0.44,1.5-0.92,2.99-1.38,4.49c-1.27-0.61-1.31-1.97-1.64-3.03
	c-1.83-5.94-1.73-11.77,1.83-17.12c1.81-2.72,4.3-4.69,7.49-5.77c1.82-0.62,3.62-1.42,5.24-2.42c0.84-0.52,1.33-1.68,1.52-2.75
	c0.81-4.6,2.36-8.95,4.86-12.88c2.19-3.44,4.59-6.76,7.69-9.51c1.26-1.12,2.46-2.3,3.88-3.2c1.21-0.77,4.9-1.83,6.4-2.06
	c3.5-0.54,9.46,0.55,11.83,2.38c6.63,5.12,7.64,12.47,8.19,15.92c0.8,5.03-1.89,19.09-2.6,20.19c-0.35,0.54-1.82,3.51-2.35,3.52
	c-0.75,0.02-0.69-5.29-1.32-5.96C85.55,43.38,84.91,27.1,84.6,25.56z"/>
<path class="st3" d="M123.11,256.86c-0.6,0.53-1.13-0.05-1.79-0.17c-8.91-1.73-17.45,5.46-20.16,12.71
	c-2.48,6.64-2.73,13.22-0.17,19.82c1.91,4.95,5.2,8.95,9.14,12.43c-5.43-0.69-10.89-1.35-14.88-5.73
	c-5.15-5.65-7.53-12.18-6.54-19.91c1-7.79,4.71-13.94,10.86-18.64c6.1-4.67,12.86-5.26,19.94-2.62
	C120.78,255.23,123.11,256.86,123.11,256.86z"/>
<path class="st4" d="M317.78,249.17c3.8-3.3,7.27-6.89,9.86-11.27c4.35-7.38,3.94-14.66-0.31-21.9c-2.25-3.82-5.18-7.08-8.23-10.24
	c-0.69-0.72-1.32-1.5-1.98-2.25c1.51,0.43,6.66,2.16,8.51,2.86c2.59,1.08,4.54,3.05,6.59,4.86c2.88,2.54,5.25,5.54,7.29,8.78
	c0.4,0.63,1.97,3.56,2.25,4.3c1.43,3.73,0.86,7.25,0.33,9.3c-0.35,1.38-1.68,4.21-2.89,5.67c-2.24,3.02-5.14,5.17-8.68,6.41
	C326.36,247.16,322.18,248.55,317.78,249.17z"/>
<path class="st4" d="M120.1,185.11c0.02,10.87-0.76,21.71-1.26,32.55c-0.51,11.14,1.06,22.01,4.36,32.65c0,0-2.97-1.69-4.17-2.79
	c-9.17-5.96-18.13-21.79-4.42-46.66C116.94,195.77,118.63,190.49,120.1,185.11z"/>
<path class="st0" d="M309.67,26.5c-4.93-3.67-10.77-4.99-16.59-6.31c-8.78-1.99-17.66-3.33-26.65-3.96c-0.81-0.05-1.6-0.32-2.4-0.48
	c1.53-0.9,3.07-1.78,4.57-2.71c3.93-2.47,8.1-4.47,12.49-5.86c1.97-0.62,4.21-0.37,6.34-0.22c4.79,0.34,9.19,2.01,13.03,4.66
	c3.77,2.6,6.41,6.38,8.21,10.66C309.26,23.64,310.26,24.88,309.67,26.5z"/>
<path class="st3" d="M9.94,128.56c-0.16,4.02-0.49,8.08,0.89,11.94c0.97,2.71,0.75,5.13,0.09,7.93c-1.42,6,0.52,11.31,5.07,15.49
	c1.32,1.21,1.86,2.35,1.55,4.07c-0.27,1.48-0.33,3-0.48,4.5c-2.55,0.39-4.9-0.31-6.9-1.74c-5.86-4.18-9.11-10-9.97-17.11
	c-0.96-7.9,1.79-14.75,6.17-21.12C7.38,131.04,8.28,129.46,9.94,128.56z"/>
<path class="st3" d="M74.43,183.46c0.23-1.86,0.49-3.72,0.69-5.59c0.08-0.77,0.4-1.04,1.2-1.07c6.13-0.27,10.91-3.13,14.96-7.61
	c3.43-3.8,6.43-8.05,10.7-11.02c3.53-2.45,7.11-5.37,11.37-6.45c-0.11,0.22-0.16,0.52-0.33,0.64c-6.42,4.44-10.11,11.31-12.88,18.36
	c-1.32,3.35-3.11,6.51-5.66,9.01c-3.48,3.43-7.81,5.36-12.82,5.37C79.13,185.12,76.64,184.88,74.43,183.46z"/>
<path class="st3" d="M291.96,307.48c3.67-0.3,7.32-0.64,10.8-2.07c10.62-4.38,17.03-14.29,15.61-27.18
	c2.88,1.28,4.45,3.82,5.65,6.46c1,2.18,1.4,4.63,1.42,7.12c0.07,6.92-3.59,11.68-8.92,15.36c-5.85,4.04-12.27,4.4-18.98,2.51
	C295.58,309.14,293.82,308.2,291.96,307.48z"/>
<path class="st3" d="M153.7,298.2c4.05-0.01,7.96-0.56,11.67-2.36c6.79-3.3,11.38-11.78,10.21-19.13c-0.42-2.61-1.55-5.03-3.36-6.83
	c-3.97-3.97-4.73-8.64-3.82-13.86c1.29,4.43,3.07,8.44,6.56,11.78c5.21,4.98,8.2,11.08,7,18.58c-1.04,6.48-4.45,11.11-10.6,13.7
	c-5.24,2.2-10.29,1.53-15.28-0.69C155.28,299.05,154.76,299.07,153.7,298.2z"/>
<path class="st0" d="M313.37,127.4"/>
<path class="st3" d="M250.53,237.48c-1.51,2.58-3.42,4.9-4.46,7.77c-2.81,7.79-1.29,14.66,4.27,20.67c1.05,1.13,2.14,2.24,3.55,3.02
	c1.13,0.62,1.72,1.66,1.67,3.13c-0.06,1.61,0.23,3.23,0.37,4.85c-4.36-0.59-8.03-2.55-11.22-5.54c-4.53-4.25-6.92-9.5-7-15.65
	c-0.1-7.85,4.88-15.73,11.9-18.15C249.9,237.48,250.23,237.51,250.53,237.48z"/>
<path class="st2" d="M97.72,108.54c-2.01-3.66-3.56-6.74-7.39-8.32c-1.06-0.44-1.19-1.01-1.13-1.99c0.43-6.27-0.52-12.59,0.47-18.78
	c0.23-1.47,2.09-9.85,2.78-11.24c4.1,25.93,6.06,21.32,9.11,27.28c1.5,2.93,1.1,11.2-2.91,12.84
	C97.77,108.69,98.71,108.51,97.72,108.54z"/>
<polygon class="st5" points="88.59,52.57 88.5,52.57 88.53,52.48 88.62,52.49 "/>
<path class="st0" d="M204.11,220.97c-4.37-0.48-11.25,1.75-15.59,0.79c-0.71-1.44-0.77-1.96-1.93-2.74
	c-11.09-7.54-19.04-18.6-26.74-29.45c-3.82-5.38-6.87-11.25-10.03-17.02c-2.49-4.55-4.88-9.16-7.43-13.69
	c-4.49-7.98-9.2-15.84-12.54-24.42c-0.26-0.67-0.49-1.44-1.23-1.81c-0.9-5.84-1.13-11.75-1.76-17.63
	c-1.02-9.63-2.71-19.16-4.42-28.69c-0.55-3.03-0.85-6.1-0.97-9.18c-0.11-2.74,0.01-2.83,2.69-3.14c4.94-0.59,9.91-0.6,14.86-0.78
	c3.83-0.14,7.66-0.1,11.49-0.12c0.81,0,1.62,0.12,2.43,0.18c-0.59,3.33-0.84,6.65-0.24,10.03c0.29,1.63,1.13,3.18,0.88,4.91
	c-0.77-0.82-1.64-1.34-2.83-1.05c-1.58,0.39-3.17,0.71-4.74,1.14c-2.07,0.56-3.67,1.9-4.3,3.88c-0.8,2.55-0.43,5.22,0.21,7.79
	c0.24,0.94,1.19,1.26,2.14,1.18c0.98-0.08,1.4-0.78,1.52-1.64c0.08-0.55,0-1.13,0.02-1.69c0.22-5.73-0.39-4.76,4.64-6.16
	c1.72-0.48,2.99-1.22,3.39-3.05c1.31,0.34,1.08,1.71,1.59,2.56c1.14,1.91,2.75,3.53,3.58,5.63c-6.12,4.6-9.03,10.88-9.03,18.38
	c0,5.94,1.81,11.5,4.75,16.68c8.07,14.23,19.9,24.26,34.71,30.94c7.29,3.29,14.98,5.15,22.93,5.55c9.24,0.47,18.06-1.73,26.55-5.28
	c9.76-4.08,18.93-9.18,26.47-16.69c6.99-6.97,12.29-15.12,14.98-24.73c2.28-8.15,1.3-15.71-4.87-22.07
	c-0.13-0.13-0.18-0.32-0.27-0.49c-0.03-1.01,0.1-1.98,0.46-2.94c1.28-3.3,1.84-6.74,1.67-10.27c-0.08-1.57-0.1-3.12,0.03-4.68
	c2.6,0.32,5.22,0.49,7.79,0.97c7.22,1.35,14.57,1.93,21.73,3.59c1.39,0.32,2.2,0.52,1.7,2.41c-2.54,9.58-5.43,19.07-8.09,28.62
	c-1.89,6.77-3.47,13.62-5.19,20.44c-1.74,3.94-3.35,7.95-5.26,11.82c-2.12,4.27-4.93,8.15-7.53,12.14
	c-3.26,4.98-6.71,9.83-9.99,14.79c-4.95,7.46-9.97,14.87-15.85,21.64c-6.65,7.65-14.05,14.44-22.69,19.84
	c-2.31,1.45-1.2,5.13-3.01,7.34c-1.06,0.25-5.93-2.68-6.99-2.74c-6.31-0.35-12.63-0.7-18.94-1.05
	C204.63,221,204.37,220.99,204.11,220.97z M212.33,178.99c-1.05-0.29-2.63-0.28-4.13-0.25c-7.97,0.18-15.41,2.07-22.67,5.19
	c-1.16,0.49-1.39,1.27-0.88,2.42c0.62,1.44,1.19,2.91,1.66,4.41c0.4,1.31,1.14,1.73,2.38,1.22c1.79-0.74,3.53-1.66,5.38-2.25
	c7.4-2.35,14.88-3.74,22.74-2.55c6.79,1.03,13.26,2.67,18.91,6.73c0.92,0.67,1.39,0.4,1.92-0.41c1.05-1.56,2.08-3.15,3.26-4.62
	c1.03-1.29,0.75-1.92-0.65-2.68C231.66,181.55,222.45,179.89,212.33,178.99z M213.26,211.99c1.58-0.07,3.28-0.06,4.96-0.24
	c1.18-0.13,2.35-0.43,3.49-0.79c2.72-0.84,4.94-2.35,5.62-5.3c0.74-3.23-0.65-5.83-2.98-7.89c-5.12-4.53-15.11-5.74-21.2-2.66
	c-2.67,1.34-4.9,3.3-4.86,6.42c0.04,3.18,1.58,5.88,4.4,7.7C205.88,211.3,209.57,211.38,213.26,211.99z M292.27,101.04
	c0.03,0,0.05,0,0.07,0c0.05-0.82,0.14-1.63,0.14-2.44c0.01-3.61-1.13-5.09-4.6-6.1c-1.51-0.44-3.07-0.57-4.62-0.77
	c-1.3-0.17-2.29,0.23-2.54,1.59c-0.23,1.3,0.57,1.97,1.75,2.25c1.28,0.31,2.56,0.61,3.84,0.87c1.94,0.41,2.47,1.77,2.33,3.51
	c-0.09,1.18-0.38,2.35-0.52,3.54c-0.14,1.2,0.24,2.17,1.56,2.38c1.37,0.22,2.16-0.57,2.39-1.84
	C292.23,103.06,292.21,102.04,292.27,101.04z"/>
<path class="st0" d="M157.97,64.5c-6.26,0.55-12.54,0.61-18.81,0.8c-2.51,0.08-5.03,0.18-7.54,0.36c-1.21,0.09-1.73-0.06-1.75-1.53
	c-0.07-5.52-0.26-11.04-0.57-16.56c-0.36-6.51-1.03-13.02-0.58-19.57c0.1-1.42,0.42-2.08,1.97-2.29c6.65-0.9,13.33-1.55,20.02-2.15
	c8.69-0.78,17.4-0.9,26.12-1.09c8.63-0.19,17.25-0.7,25.87-0.94c4.7-0.13,9.41,0,14.12,0.02c3.95,0.01,7.9,0.03,11.86,0.05
	c0.33,0.35,3.49-3.31,3.92-3.28c4.22,0.25,5.79-0.27,10.01-0.02c0.43,0.03,4.65,2.35,4.99,1.99c8.31-0.3,12.76,2.63,21,3.38
	c9.73,0.88,19.44,2.25,28.94,4.7c1.93,0.5,3.82,1.21,5.72,1.83c1.67,0.55,2.46,1.72,2.7,3.48c0.54,3.83-0.41,7.51-1.12,11.19
	c-1.82,9.43-3.51,18.88-4.98,28.37c-0.19,1.19-0.63,1.95-1.9,1.78c-7.72-1.01-15.49-1.71-23.15-3.12c-0.18-0.03-0.33-0.17-0.5-0.25
	c-0.03-0.53-0.35-0.91-0.62-1.33c-2.64-4.09-6.43-6.51-11.1-7.66c-11.88-13.38-32.91-11.11-43.57-0.67
	c-3.64,3.56-9.38,4.92-14.05,1.25c-1.37-1.08-3.22-1.52-4.35-2.96c-0.9-0.8-1.77-1.63-2.69-2.4c-5.48-4.58-12.02-4.98-18.69-4.57
	c-4.82,0.3-9.3,1.97-13.4,4.47C162.89,59.57,160.15,61.72,157.97,64.5z M206.56,44.02c0,0.02,0,0.03,0,0.04
	c6.39,0.1,12.79,0.23,19.18,0.29c2.13,0.02,4.27-0.01,6.38-0.24c1.47-0.16,2.55-1.08,2.64-2.73c0.08-1.64-0.91-2.52-2.32-3.04
	c-0.41-0.15-0.85-0.28-1.28-0.3c-2.82-0.14-5.64-0.33-8.47-0.32c-1.15,0-1.59-0.12-1.72-1.43c-0.21-2.17-2.74-3.94-4.94-3.74
	c-2.08,0.19-3.65,1.83-3.62,4.08c0.01,0.97-0.27,1.23-1.1,1.21c-0.88-0.03-1.76-0.07-2.64-0.09c-2.45-0.04-4.9-0.21-7.31,0.31
	c-1.59,0.34-2.56,1.39-2.4,3.08c0.16,1.67,1.21,2.53,2.91,2.61C203.42,43.81,204.99,43.92,206.56,44.02z"/>
<path class="st2" d="M44.22,78.08c13.13,1.43,25.48,4.3,37.73,7.73c1.14,0.32,1.46,0.88,1.24,2.03c-0.64,3.33-1.24,6.68-1.75,10.03
	c-0.17,1.1-0.91,1.18-1.68,1.43c-6.35,2.08-10.96,6.08-13.22,12.43c-1.12,3.14-1.07,6.51-0.28,9.68c0.87,3.46,0.09,5.54-3.01,7.58
	c-5.24,3.45-8.72,8.41-10.1,14.69c-1.17,5.33,0.13,10.36,1.9,15.3c2.23,6.25,5.77,11.56,11.47,15.21c0.76,0.49,0.74,1.07,0.61,1.77
	c-0.72,3.89-1.45,7.79-2.14,11.69c-0.2,1.14-0.64,1.34-1.79,1.07c-12.62-2.97-25.33-5.44-38.25-6.64c-1.32-0.12-1.51-0.59-1.3-1.8
	c0.59-3.34,1.15-6.69,1.52-10.07c0.17-1.54,0.76-1.77,2.14-1.7c4.46,0.22,8.64-0.65,12.11-3.69c5.6-4.9,7.43-16.05,3.01-21.75
	c-1.83-2.36-1.55-3.96-0.75-6.29c1.59-4.65,2.23-9.43,0.73-14.25c-0.33-1.05,0.31-1.38,0.86-1.82c6.75-5.42,5.91-14.58,1.83-20.43
	c-1.57-2.25-3.87-3.57-6.48-4.28c-0.96-0.26-1.35-0.57-1.2-1.63c0.72-5.04,1.38-10.09,2.03-15.14c0.1-0.81,0.57-1.06,1.27-1.08
	C42.04,78.1,43.36,78.09,44.22,78.08z"/>
<path class="st3" d="M58.54,148.91c0.92-7.84,4.16-13.4,10.43-17.05c0.71-0.41,1.43-0.81,2.16-1.15c1.46-0.69,1.91-1.83,1.75-3.38
	c-0.41-3.86-1.14-7.66-0.98-11.6c0.28-7.5,9.35-13.3,16.43-9.77c4.13,2.06,6.79,5.28,6.4,8.5c-0.38,3.09-1.51,5.94-3.2,8.56
	c-1.3,2-2.71,3.91-3.83,6.04c-1.09,2.08-1.43,4.13-0.87,6.35c0.82,3.25,1.21,6.54,0.88,9.89c-0.1,1.02,0.12,1.95,1.22,2.27
	c1.06,0.31,1.48-0.47,2-1.26c2.24-3.4,3.36-7.14,3.71-11.14c0.32-3.59,2.23-6.39,4.64-8.83c5.12-5.16,10.94-9.4,17.38-12.81
	c1.27-0.67,1.71-0.54,1.86,0.92c0.7,6.87,1.19,13.76,1.59,20.65c0.14,2.38,0.14,4.77,0.29,7.14c0.08,1.27-0.43,1.82-1.64,2.01
	c-8.3,1.31-15.36,5.18-21.79,10.45c-4.14,3.4-7.2,7.78-10.82,11.64c-5.21,5.56-13.54,6.58-19.05,1.08
	C61.74,162.03,59.29,155.56,58.54,148.91z"/>
<path class="st3" d="M290.88,300.04c-10.92-0.71-18.93-4.99-24.19-13.89c-2.48-4.19-3.25-8.91-4.1-13.6
	c-0.22-1.23-0.47-2.47-0.7-3.7c-0.56-2.97-1.78-5.19-4.5-7.15c-5.52-3.95-7.53-9.42-4.81-15.43c3.53-7.82,12.82-11.28,19.38-6.95
	c2.72,1.8,4.09,4.57,5.11,7.48c1.22,3.49,2.05,7.1,2.53,10.77c0.32,2.42,0.82,3.03,3.24,3.38c6.89,0.99,13.53,2.81,19.5,6.45
	c3.96,2.42,7.6,5.36,8.78,10.12c2.15,8.71-2.02,18.61-12.46,21.51C295.86,299.81,293.05,300.41,290.88,300.04z"/>
<path class="st3" d="M315.92,72.78"/>
<path class="st1" d="M209.61,88.23c-0.08,5.52-2.06,10.04-5.63,13.85c-5.53,5.9-12.32,7.67-19.91,5.09
	c-7.48-2.55-13.14-7.45-16.29-14.84c-4.5-10.57,1.75-23.4,11.94-27.26c8.26-3.13,16.29-2.96,23.27,3.3
	c4.2,3.77,5.74,8.87,6.46,14.27C209.73,84.58,209.85,86.52,209.61,88.23z"/>
<path class="st3" d="M123.76,299.04c-7.45-0.74-12.54-4.87-15.5-11.51c-3.11-6.98-2.35-13.76,2.51-19.74
	c3.24-3.99,7.51-5.88,13.07-3.84c3.75,1.38,6.98,3.26,9.52,6.65c4.61,6.12,11.05,8.35,18.64,7.2c4.5-0.68,8.88-1.69,12.69-4.35
	c0.72-0.5,1.17-0.36,1.82,0.12c3.28,2.42,3.98,7.83,1.33,11.32c-3.03,3.99-6.88,6.23-12.13,5.85c-7.19-0.52-13.72,1.7-19.88,5.29
	C132.13,298.18,128.16,299.43,123.76,299.04z"/>
<path class="st4" d="M167.96,235.65c-1.23,2.75-3.12,5.15-4.06,8.05c-1.26,3.88-2.48,7.77-2.04,11.94c0.1,0.94-0.32,1.34-1.15,1.61
	c-2.05,0.66-4.13,1.12-6.27,1.14c-7.59,0.09-14.79-1.82-21.84-4.45c-0.8-0.3-1.15-0.83-1.38-1.61c-2.03-6.93-3.44-14-5.12-21.02
	c-0.38-1.6-0.13-2.27,1.81-2.37c9.02-0.5,18.01-1.49,27.07-1.25c0.25,0.01,0.5,0.05,0.75,0.07
	C160.32,229.6,164.64,231.86,167.96,235.65z"/>
<path class="st2" d="M216.43,109.49c0.15-2.66,0.14-2.62,2.67-1.93c3.65,1,6.74,3.59,10.46,4.13c3.87,0.56,4.9,2.52,5.19,6.17
	c0.85,10.31,2.14,20.59,3.26,30.87c0.25,2.3,0.5,4.61,0.86,6.9c0.13,0.78-0.02,1.11-0.73,1.43c-6.3,2.8-12.85,4.67-19.72,5.36
	c-1.15,0.11-1.6-0.15-1.59-1.49c0.1-9.42,0.17-18.85,0.09-28.27C216.87,124.94,216.61,117.21,216.43,109.49z"/>
<path class="st2" d="M81.67,45.79c0.13,6.16,0.14,6.12-4.7,5.05c-2.39-0.53-4.71-1.34-7.18-1.53c-1.26-0.09-2.55-0.22-2.91,1.31
	c-0.39,1.66,0.82,2.36,2.15,2.8c3.76,1.25,7.53,2.45,11.28,3.72c2.03,0.68,3.96,1.59,5.86,2.59c0.98,0.51,1.4,1.21,1.22,2.28
	c-0.27,1.67-0.62,3.34-0.81,5.02c-0.18,1.56-0.86,1.45-1.99,0.89c-4.81-2.4-9.88-4.11-15.15-5.09c-8.05-1.51-16.19-2.18-24.39-1.86
	c-1.47,0.06-1.91-0.21-1.39-1.73c0.67-1.96,1.13-3.99,1.65-6c0.34-1.33,1.15-2.05,2.54-2.08c1.76-0.05,3.52-0.19,5.27-0.1
	c1.7,0.08,2.64-0.57,3.26-2.17c2.17-5.63,4.24-11.29,6.85-16.74c1.45-3.02,3.28-5.8,5.07-8.6c0.97-1.51,2.33-2.01,4.05-1.61
	c7.25,1.67,6.78,2.06,7.88,7.96C81.3,35.52,81.69,41.22,81.67,45.79z"/>
<path class="st4" d="M161.03,219.62c-3.82,0.07-7.65,0.19-11.48,0.21c-5.91,0.03-11.78,0.73-17.68,1.02c-4.84,0.24-4.9,0.19-4.6-4.7
	c0.46-7.41,0.98-14.81,1.24-22.23c0.33-9.54,0.44-19.09,0.63-28.63c0.03-1.3-0.43-2.62,0.16-3.9c0.48,0.29,0.6,0.8,0.73,1.27
	c1.8,6.43,4.34,12.6,7.22,18.57c3.54,7.31,7.25,14.56,11.81,21.33C152.96,208.32,156.66,214.21,161.03,219.62z"/>
<path class="st4" d="M211.04,107.14c-0.45,5.55-0.3,10.81-0.19,16.07c0.11,5.13,0.33,10.26,0.48,15.4c0.14,4.7,0.24,9.39,0.37,14.09
	c0.07,2.57,0.13,5.13,0.29,7.69c0.08,1.44-0.14,2.22-1.91,1.95c-4.41-0.68-8.75-1.61-13.03-2.86c-0.92-0.27-1.53-0.76-1.56-1.83
	c-0.26-9.48-0.38-18.93,0.8-28.38c0.59-4.73,0.63-9.53,0.89-14.3c0.03-0.71-0.06-1.39,0.82-1.68c4.15-1.36,7.72-3.92,11.71-5.61
	C210.04,107.53,210.38,107.4,211.04,107.14z"/>
<path class="st4" d="M289.07,167.99c-0.36,3.05-0.54,6.14-1.12,9.15c-1.58,8.19-1.5,16.51-2.04,24.78
	c-0.51,7.96-0.56,15.94-1.19,23.9c-0.08,1.05-0.29,1.61-1.55,1.42c-7.26-1.09-14.56-1.75-21.86-2.48
	c-3.49-0.35-6.99-0.76-10.48-1.14c1.95-1.62,3.91-3.23,5.86-4.85c11.61-9.63,20.86-21.05,26.59-35.13
	C285.37,178.5,287.25,173.25,289.07,167.99z"/>
<path class="st0" d="M289.07,167.99c-1.82,5.26-3.7,10.5-5.8,15.66c-5.73,14.08-14.98,25.5-26.59,35.13
	c-1.95,1.62-3.9,3.23-5.86,4.85c-4.44,0.44-8.79-0.47-13.18-0.77c0.62-0.9,1.55-1.44,2.45-2.01c8.81-5.54,15.96-12.92,22.6-20.77
	c7.36-8.68,13.3-18.39,19.36-28c2.98-4.73,5.55-9.69,8-14.71c0.2-0.43,1.86-2.85,3.04-2.31c-0.94,2.03-2.36,5.49-2.87,7.62
	C289.79,164.44,289.51,166.24,289.07,167.99z"/>
<path class="st4" d="M291.29,156.28c-1.25,1.1-6.27,11.09-9.25,15.82c-6.06,9.6-12,19.32-19.36,28c-6.64,7.85-13.8,15.23-22.6,20.77
	c-0.89,0.56-1.82,1.11-2.45,2.01c-3.54-0.26-7.08-0.53-10.62-0.79c3.22-1.45,4.51-3.16,6.82-4.61c8.64-5.4,16.04-12.19,22.69-19.84
	c5.88-6.77,10.9-14.18,15.85-21.64c3.28-4.96,6.74-9.81,9.99-14.79c2.61-3.99,5.42-7.86,7.53-12.14c1.91-3.86,3.52-7.87,5.26-11.82
	c-1.05,5.26-2.09,10.53-3.16,15.79C291.76,154.1,291.96,155.29,291.29,156.28z"/>
<path class="st4" d="M181.05,220.26c-3.59-2.39-6.51-5.61-9.44-8.36c-7.79-7.36-14.52-15.61-19.98-24.81
	c-6.58-11.11-12.78-22.43-18.47-34.03c-1.16-2.36-2.09-4.84-3.11-7.27c-0.27-0.64-0.46-1.31-1.1-1.71
	c-0.11-3.81-0.22-7.62-0.33-11.44c0.74,0.38,0.97,1.14,1.23,1.81c3.33,8.58,8.05,16.44,12.54,24.42c2.55,4.52,4.94,9.13,7.43,13.69
	c3.16,5.77,6.2,11.64,10.03,17.02c7.71,10.85,16.54,20.59,27.63,28.13c1.16,0.79,2.29,1.72,3.48,2.37c-0.22,0.1-0.44,0.31-0.65,0.31
	C186.44,220.27,180.01,220.35,181.05,220.26z"/>
<path class="st0" d="M192.48,114.08c-2.1,13.88-2.99,27.79-3.26,41.96c-4.72-1.9-8.44-4.88-12.35-7.59c-2.6-1.8-3.34-3.79-2.87-6.91
	c1.44-9.59,3.41-19.05,6.16-28.34c0.25-0.84,0.49-1.1,1.4-0.71C184.97,113.92,188.58,114.27,192.48,114.08z"/>
<path class="st2" d="M28.74,201.9c10.38,1.07,20.63,2.9,30.85,4.96c1.05,0.21,1.36,0.65,1.13,1.67c-0.48,2.15-0.99,4.29-1.31,6.46
	c-0.24,1.63-1.09,2.16-2.63,2.29c-9.49,0.76-18.66-0.43-27.45-4.22c-2.43-1.05-4.77-2.25-7.11-3.46c-1.08-0.56-1.47-1.25-1.38-2.52
	c0.36-5.6,0.32-5.6,5.82-5.3C27.36,201.81,28.05,201.86,28.74,201.9z"/>
<path class="st3" d="M168.38,140.31c-3.5-3.53-6.01-7.47-8.19-11.64c-2.49-4.75-4.14-9.77-3.61-15.16c0.5-5.05,2.33-9.6,6.66-12.76
	c1.25-0.92,1.94-1.14,3.08,0.47c2.06,2.91,4.8,5.27,7.72,7.32c1.1,0.77,1.11,1.47,0.81,2.67c-1.77,7.12-3.79,14.18-4.85,21.47
	C169.65,135.15,168.97,137.58,168.38,140.31z"/>
<path class="st3" d="M37.94,129.4c0.12,2.31-0.63,4.48-1.32,6.6c-0.84,2.59-3.34,3.31-5.63,3.87c-3.46,0.86-7.01,1.37-10.5,2.1
	c-1.73,0.36-2.84-0.22-3.24-1.94c-1.44-6.14-1.76-12.16,2.03-17.7c1.16-1.69,3.03-2.03,4.84-2.32c3.19-0.5,6.35-0.31,9.49,0.51
	c3.2,0.84,4.34,2.45,4.46,6.61C38.09,127.9,37.99,128.65,37.94,129.4z"/>
<path class="st1" d="M266.66,135.61c-1.39-7.99-3.65-15.34-6.75-22.43c-0.73-1.67-1.44-3.34-2.53-4.82
	c-0.48-0.64-0.43-1.01,0.22-1.51c1.74-1.34,3.42-2.76,4.82-4.48c0.54-0.66,1.29-0.64,2.05-0.72c6.26-0.65,9.79,4.47,10.62,9
	c1.13,6.09-0.55,11.69-3.47,16.99C270.17,130.26,268.83,132.95,266.66,135.61z"/>
<path class="st3" d="M38.88,151.93c-0.18,2.82-0.57,5.09-2.14,6.98c-3.07,3.7-7.12,3.78-11.37,3.07c-3.2-0.54-5.87-2.31-7.58-4.83
	c-1.44-2.12-2.65-4.76-1.54-7.63c0.26-0.65,0.49-1.2,1.39-1.28c5.33-0.49,10.47-1.93,15.64-3.23c0.9-0.23,1.97-1.25,2.6-0.7
	c1.03,0.91,2.08,1.97,2.51,3.44C38.84,149.28,38.99,150.82,38.88,151.93z"/>
<path class="st3" d="M33.32,102.32c6.22,0.3,9.23,3.53,8.77,8.96c-0.2,2.26-1.51,3.83-3.32,4.97c-1.54,0.96-3.06-0.13-4.49-0.53
	c-4.24-1.2-8.47-1.72-12.81-0.74c-1.05,0.23-1.49,0.09-1.71-1.15c-1.09-6.12,1.7-10.14,7.79-11.15
	C29.62,102.34,31.66,102.11,33.32,102.32z"/>
<path class="st2" d="M84.84,79.59c-1.56-0.48-2.78-1.18-3.71-2.19c-1.85-2-4.13-2.45-6.69-2.32c-2,0.1-3.98,0.64-6,0.1
	c-1.85-0.49-3.62-1.15-5.09-2.37c-2.5-2.08-5.2-2.35-8.1-1.1c-4.71,2.03-9.26,1.02-13.68-0.85c-1.74-0.74-1.72-2.02-1.7-3.13
	c0.01-1.1,2.24-1.05,2.94-0.83c0.84,0.27,1.69,0.51,2.5,0.83c2.88,1.13,5.69,1.09,8.63,0.05c3.8-1.35,7.54-1.19,10.94,1.28
	c2.39,1.74,4.95,2.51,7.97,1.98c4.49-0.79,8.46,0.43,11.72,3.7C86.1,76.3,84.77,77.9,84.84,79.59z"/>
<path class="st2" d="M22.11,191.71c0.17-2.35,0.49-2.68,2.32-1.56c2.11,1.29,4.09,1.17,6.28,0.55c4.05-1.14,7.99-0.77,11.71,1.23
	c3.04,1.64,6.08,2.26,9.59,1.54c4.32-0.89,7.79,1.41,10.88,4.11c0.84,0.74,0.22,1.81-0.27,2.72c-0.54,1.01-1.05,0.54-1.8,0.3
	c-1.03-0.33-1.66-1.11-2.46-1.68c-2.01-1.43-4.2-1.99-6.6-1.43c-3.39,0.8-6.66,0.53-9.68-1.2c-3.84-2.2-7.83-2.58-11.99-1.25
	c-2.7,0.86-5.04,0.13-7.37-1.17C21.63,193.26,22.27,192.32,22.11,191.71z"/>
<path class="st1" d="M153.59,88.22c0.25-1.73-0.59-3.28-0.88-4.91c-0.6-3.38-0.35-6.7,0.24-10.03c3.16-0.57,6.35-0.41,9.53-0.46
	c1.18-0.01,0.74,0.77,0.5,1.27c-2.12,4.43-2.72,9.08-2.23,13.92c0.19,1.94,0.58,3.86,1.39,5.63c0.58,1.28,0.29,1.93-1.05,2.28
	c-0.78,0.21-1.52,0.57-2.28,0.87c-0.83-2.1-2.44-3.71-3.58-5.63c-0.51-0.85-0.28-2.22-1.59-2.56
	C153.63,88.49,153.61,88.35,153.59,88.22z"/>
<path class="st6" d="M261.62,141.15c-0.21,1.13-1.11,1.89-1.91,2.61c-3.4,3.05-7.16,5.62-11.06,7.98c-0.88,0.53-1.66,1.19-2.67,1.59
	c-1.34,0.53-1.54,0.04-1.64-1.01c-0.39-3.75-0.73-7.5-1.16-11.24c-1-8.78-2.42-17.5-4.71-26.04c-0.29-1.08-0.16-1.6,0.97-1.6
	c3.97-0.02,7.68-1.27,11.29-2.69c1.94-0.76,2.54-0.06,3.14,1.52c1.99,5.22,3.63,10.54,4.95,15.96c0.96,3.95,1.76,7.94,2.64,11.91
	C261.53,140.45,261.56,140.76,261.62,141.15z"/>
<path class="st1" d="M277.21,81.21c-0.13,1.56-0.11,3.11-0.03,4.68c0.17,3.53-0.39,6.97-1.67,10.27c-0.37,0.95-0.49,1.93-0.46,2.94
	c-2.44-1.84-5.09-3.15-8.37-3.37c1.52-3.57,2.37-7.13,2.41-10.86c0.01-1.25-0.03-2.5-0.12-3.74c-0.06-0.96,0.17-1.35,1.24-1.14
	C272.53,80.44,274.87,80.8,277.21,81.21z"/>
<path class="st4" d="M163.45,267.85c-0.12,1.27-0.88,1.5-1.84,1.02c-2-1.01-4.15-0.79-6.26-0.93c-0.61-0.04-0.98,0.27-1.47,0.61
	c-5.1,3.54-10.03,3.92-14.75-0.85c-2.09-2.11-4.79-3.78-5.75-6.85c-0.17-0.54-0.82-1.2-0.21-1.69c0.55-0.44,1.18,0.15,1.73,0.41
	c2.28,1.04,4.03,2.73,5.69,4.56c1.77,1.96,3.8,3.41,6.67,3.34c1.69-0.04,2.98-0.9,4.34-1.64c3.13-1.71,6.32-2.16,9.77-0.99
	C162.93,265.38,163.21,266.54,163.45,267.85z"/>
<path class="st4" d="M293.79,256.56c-0.75-0.05-1.51-0.07-2.26-0.14c-4.79-0.48-6.72-2.67-6.61-7.54c0.02-1.19,0.09-2.35-0.16-3.55
	c-0.22-1.08-0.66-1.93-1.65-2.34c-1.7-0.7-2.17-2.33-3-3.7c-0.17-0.27-0.32-0.59-0.02-0.84c0.24-0.21,0.55-0.18,0.88-0.11
	c4.36,0.99,6.76,3.79,7.11,8.3c0.45,5.88,0.61,6.05,6.46,6.59c1,0.09,2.02,0.07,2.96,0.48c0.64,0.28,1.8,0.27,1.61,1.17
	c-0.19,0.92-0.91,1.83-2.11,1.82c-1.07-0.01-2.13-0.12-3.19-0.18C293.8,256.54,293.79,256.55,293.79,256.56z"/>
<path class="st1" d="M262.6,62.66c4.67,1.15,8.45,3.57,11.1,7.66c0.27,0.42,1.11,1.82,1.13,2.35c-2.19,0.11-4.83-1.47-7-1.65
	c-0.74-0.06-1.05-0.58-1.27-1.2C265.62,67.22,264.21,64.88,262.6,62.66z"/>
<path class="st7" d="M204.11,220.97c0.26,0.01,0.52,0.03,0.78,0.04C204.61,221.26,204.36,221.25,204.11,220.97z"/>
<path class="st3" d="M212.31,178.36c10.11,0.89,19.35,3.18,27.94,7.85c1.4,0.76,1.69,1.39,0.65,2.68c-1.18,1.47-2.21,3.05-3.26,4.62
	c-0.54,0.81-1,1.07-1.92,0.41c-5.65-4.06-12.13-5.7-18.91-6.73c-7.87-1.19-15.34,0.2-22.74,2.55c-1.85,0.59-3.58,1.5-5.38,2.25
	c-1.24,0.51-1.98,0.1-2.38-1.22c-0.46-1.5-1.03-2.97-1.66-4.41c-0.5-1.16-0.28-1.93,0.88-2.42c7.26-3.12,14.76-5.29,22.73-5.47
	C209.76,178.43,211.32,178.25,212.31,178.36z"/>
<path class="st3" d="M213.26,211.99c-3.74-0.22-7.38-0.69-10.58-2.77c-2.82-1.82-4.35-4.53-4.4-7.7c-0.04-3.12,2.19-5.07,4.86-6.42
	c6.08-3.07,16.07-1.86,21.2,2.66c2.33,2.06,3.73,4.66,2.98,7.89c-0.68,2.95-2.89,4.45-5.62,5.3c-1.14,0.35-2.31,0.66-3.49,0.79
	C216.54,211.93,214.84,212.08,213.26,211.99z"/>
<path class="st8" d="M153.59,88.22c0.02,0.13,0.04,0.26,0.06,0.39c-0.4,1.83-1.68,2.57-3.39,3.05c-5.03,1.4-4.42,0.43-4.64,6.16
	c-0.02,0.56,0.06,1.13-0.02,1.69c-0.12,0.87-0.55,1.56-1.52,1.64c-0.95,0.08-1.9-0.24-2.14-1.18c-0.64-2.56-1.02-5.24-0.21-7.79
	c0.63-1.99,2.23-3.32,4.3-3.88c1.57-0.43,3.16-0.75,4.74-1.14C151.95,86.88,152.82,87.4,153.59,88.22z"/>
<path class="st8" d="M292.27,101.04c-0.06,1-0.03,2.02-0.2,3c-0.23,1.27-1.03,2.05-2.39,1.84c-1.31-0.21-1.7-1.18-1.56-2.38
	c0.14-1.18,0.43-2.35,0.52-3.54c0.14-1.73-0.39-3.1-2.33-3.51c-1.28-0.27-2.56-0.56-3.84-0.87c-1.17-0.28-1.98-0.96-1.75-2.25
	c0.25-1.37,1.24-1.76,2.54-1.59c1.55,0.2,3.11,0.33,4.62,0.77c3.47,1.01,4.61,2.49,4.6,6.1c0,0.81-0.09,1.63-0.14,2.44
	C292.32,101.04,292.29,101.04,292.27,101.04z"/>
<path class="st8" d="M206.56,44.02c-1.57-0.1-3.14-0.21-4.7-0.28c-1.7-0.07-2.75-0.94-2.91-2.61c-0.16-1.69,0.81-2.74,2.4-3.08
	c2.41-0.52,4.87-0.35,7.31-0.31c0.88,0.01,1.75,0.06,2.64,0.09c0.84,0.03,1.12-0.23,1.1-1.21c-0.03-2.25,1.54-3.89,3.62-4.08
	c2.21-0.19,4.74,1.57,4.94,3.74c0.13,1.31,0.57,1.43,1.72,1.43c2.82-0.01,5.64,0.18,8.47,0.32c0.43,0.02,0.87,0.15,1.28,0.3
	c1.41,0.51,2.4,1.4,2.32,3.04c-0.08,1.65-1.16,2.57-2.64,2.73c-2.11,0.23-4.25,0.27-6.38,0.24c-6.39-0.06-12.78-0.19-19.18-0.29
	C206.55,44.05,206.55,44.03,206.56,44.02z"/>
<path class="st8" d="M291.99,153.02c1.08-5.26,2.11-10.52,3.16-15.78c1.72-6.82,3.3-13.67,5.19-20.44
	c2.66-9.55,5.55-19.03,8.09-28.62c0.5-1.89-0.3-2.09-1.7-2.41c-7.17-1.66-14.52-2.23-21.73-3.59c-2.57-0.48-5.19-0.65-7.79-0.97
	c-2.34-0.41-4.68-0.77-7-1.24c-1.06-0.21-1.3,0.18-1.24,1.14c0.09,1.24,0.13,2.49,0.12,3.74c-0.04,3.73-0.89,7.29-2.41,10.86
	c3.27,0.22,5.93,1.53,8.37,3.37c0.08,0.16,0.14,0.36,0.27,0.49c6.17,6.35,7.15,13.92,4.87,22.07c-2.69,9.6-7.99,17.75-14.98,24.73
	c-7.55,7.51-16.71,12.61-26.47,16.69c-8.5,3.55-17.32,5.75-26.55,5.28c-7.95-0.4-15.64-2.26-22.93-5.55
	c-14.81-6.68-26.63-16.71-34.71-30.94c-2.94-5.18-4.75-10.74-4.75-16.68c0-7.5,2.91-13.78,9.03-18.37c0.76-0.29,1.5-0.66,2.28-0.87
	c1.33-0.35,1.63-1.01,1.05-2.28c-0.81-1.78-1.2-3.69-1.39-5.63c-0.49-4.84,0.11-9.5,2.23-13.92c0.24-0.5,0.68-1.29-0.5-1.27
	c-3.18,0.05-6.37-0.12-9.53,0.46c-0.81-0.06-1.62-0.18-2.43-0.18c-3.83,0.01-7.66-0.03-11.49,0.12c-4.96,0.18-9.93,0.19-14.86,0.78
	c-2.69,0.32-2.8,0.41-2.69,3.14c0.12,3.08,0.43,6.14,0.97,9.18c1.71,9.53,3.4,19.06,4.42,28.69c0.63,5.87,0.86,11.78,1.76,17.63
	c0.11,3.81,0.22,7.63,0.33,11.44c0.12,5.77-0.05,11.55,0.35,17.32c0,0-0.13,2.6-0.16,3.9c-0.19,9.55-0.3,19.09-0.63,28.63
	c-0.26,7.41-0.78,14.82-1.24,22.23c-0.3,4.89-0.24,4.94,4.6,4.7c5.9-0.29,11.77-0.98,17.68-1.02c3.83-0.02,7.65-0.14,11.48-0.21
	c0.7,0.04,12.73,0.3,17.66,0.37c3.87,0.13,12.05,0.18,12.27,0.08c5.46,0.29,33.83,1.98,36.05,2c3.54,0.26,7.08,0.53,10.62,0.79
	c4.39,0.31,8.81,0.54,13.18,0.77c3.5,0.38,6.99,0.79,10.48,1.14c7.3,0.73,14.61,1.39,21.86,2.48c1.27,0.19,1.47-0.37,1.55-1.42
	c0.63-7.96,0.68-15.94,1.19-23.9c0.54-8.27,0.45-16.59,2.04-24.78c0.58-3.01,0.76-6.1,1.12-9.15c0.45-1.76,0.72-3.56,1.14-5.31
	C290.72,160.56,291.76,154.1,291.99,153.02z M167.96,235.65c1.82-2.82,3.99-5.44,7.1-7.72c-1.07-0.13-1.67-0.26-2.27-0.27
	c-4.14-0.05-8.28-0.15-12.41-0.06c-1.55,0.03-5.16,0.1-5.41,0.1c-9.05-0.23-18.05,0.76-27.07,1.25c-1.94,0.1-2.19,0.77-1.81,2.37
	c1.67,7.01,3.09,14.09,5.12,21.02c0.23,0.78,0.58,1.32,1.38,1.61c7.05,2.63,14.24,4.53,21.84,4.45c2.14-0.02,4.23-0.48,6.27-1.14
	c0.84-0.27,1.25-0.67,1.15-1.61c-0.44-4.17,0.79-8.06,2.04-11.94C164.85,240.8,166.34,238.18,167.96,235.65z M309.23,77.05
	c1.87,0.59,3.44,1.02,4.96,1.58c2.4,0.87,3.5,2.59,3.22,5.1c-0.18,1.62-0.45,3.24-0.83,4.82c-2.5,10.32-5.88,20.39-8.67,30.62
	c-0.72,2.64-1.35,5.31-2.02,7.97c-1.95,2.94-4.67,18.14-5.37,21.54c-1.14,5.6-2.42,11.17-2.99,16.86
	c-0.64,3.63-1.23,7.27-1.93,10.89c-0.3,1.54,0.17,2.85,0.91,4.1c1.34,2.26,10.12,12.65,10.25,12.76c0.09,0.08,0.18,0.16,0.28,0.24
	c0.16,0.17,0.32,0.34,0.49,0.51c2.91,3.43,6.52,6.17,9.58,9.45c0.66,0.76,1.29,1.54,1.98,2.25c3.05,3.16,5.99,6.42,8.23,10.24
	c4.25,7.24,4.66,14.53,0.31,21.9c-2.58,4.38-6.05,7.97-9.86,11.27c-3.36,3.04-7.51,5.03-10.81,8.16c-0.46,0.43-0.96,0.83-1.34,1.32
	c-0.98,1.23-1.02,2.25,0.46,3.27c2.67,1.85,5.4,3.61,7.52,6.19c2.47,3,3.75,6.48,4.75,10.12c1.42,12.89-4.99,22.79-15.61,27.18
	c-3.47,1.43-7.12,1.77-10.8,2.07c-8.02-0.22-15.58-2.03-22.11-6.93c-7.08-5.31-11.22-12.57-13.29-21.08
	c-0.21-0.85-0.42-1.7-0.63-2.55c-0.14-1.62-0.43-3.24-0.37-4.85c0.06-1.47-0.54-2.51-1.67-3.13c-1.42-0.78-2.51-1.9-3.55-3.02
	c-5.56-6.01-7.08-12.88-4.27-20.67c1.04-2.87,2.95-5.2,4.46-7.77c1.77-1.38,3.2-3.12,5.06-4.63c-4.37-0.65-14.51-1.31-15.26-1.38
	c-9.01-0.82-18.04-1.23-27.07-1.78c-5.89-0.36-11.8-0.72-17.69-1.05c-4.44-0.25-8.89-0.91-12.96,2.16
	c-3.62,2.74-7.45,5.15-9.61,9.33c-3.44,4.74-4.63,10.14-4.6,15.89c-0.91,5.22-0.16,9.89,3.82,13.86c1.81,1.8,2.94,4.21,3.36,6.83
	c1.17,7.35-3.42,15.83-10.21,19.13c-3.71,1.81-7.62,2.35-11.67,2.36c-3.79-0.24-7.3,0.73-10.65,2.43c-3.23,1.64-6.34,3.49-9.84,4.58
	c-7.93,2.46-15.31,1.25-22.27-3.1c-0.27-0.16-0.55-0.31-0.82-0.46c-3.94-3.49-7.22-7.49-9.14-12.43c-2.56-6.6-2.31-13.18,0.17-19.82
	c2.7-7.24,11.25-14.43,20.16-12.71c0.66,0.13,3.42,0.22,3.21-2.5c-0.5-1.27-0.89-2.58-1.32-3.88c-3.3-10.64-4.88-21.5-4.36-32.65
	c0.51-10.85,1.28-21.69,1.26-32.55c0.52-8.02,0.42-16.06,0.42-24.09c0-3.08-0.05-6.15,0.06-9.23c0.06-1.48-0.6-1.75-1.78-1.44
	c-1.87,0.49-3.66,1.02-5.49,1.84c-4,1.81-7.81,3.53-11.34,5.98c-4.27,2.96-7.27,7.22-10.7,11.02c-4.05,4.48-8.83,7.34-14.96,7.61
	c-0.79,0.04-1.11,0.3-1.2,1.07c-0.2,1.86-0.46,3.73-0.69,5.59c-1.44,6.88-2.79,13.78-4.34,20.63c-1.06,4.7-2.45,9.34-3.59,14.03
	c-0.47,1.92-1.81,2.92-3.33,3.84c-3.99,2.19-8.4,2.03-12.7,2.04c-9.97,0.03-19.42-2.44-28.4-6.68c-2.39-1.13-4.72-2.35-6.89-3.9
	c-1.56-1.11-2.48-2.56-2.42-4.42c0.12-3.96,0.18-7.92,0.79-11.85c0.58-3.72,1.07-7.45,1.6-11.17c0.62-4.5,1.69-8.94,1.93-13.5
	c0.15-1.5,0.21-3.01,0.48-4.5c0.31-1.72-0.23-2.86-1.55-4.07c-4.54-4.17-6.48-9.49-5.07-15.49c0.66-2.8,0.87-5.22-0.09-7.93
	c-1.38-3.85-1.05-7.92-0.89-11.94c0.92-2.85,1.45-5.92,3.47-8.24c1.71-1.96,1.68-3.79,1.06-6.24c-2.18-8.58,2.64-15.92,11.51-17.64
	c2.19-0.42,3.08-1.31,3.66-3.39c1.57-5.65,1.96-11.49,3.17-17.19c0.66-3.12,1.14-6.29,1.71-9.43c0.46-1.5,0.94-2.99,1.38-4.49
	c1.47-4.99,2.48-10.13,5.12-14.71c0.63-1.09,1.35-1.97,2.72-2.05c2.13-0.13,4.26-0.35,6.39-0.38c1.12-0.02,1.68-0.45,2.13-1.43
	c1.55-3.37,3.2-6.69,4.77-10.05c2.31-4.96,4.8-9.82,7.92-14.33c1.91-2.75,3.95-3.52,7.15-2.78c1.29,0.3,2.58,0.55,3.86,0.9
	c4.44,1.21,8.14,3.7,9.12,8.48c1.58,9.34,2.03,17.78,2.02,18.14c0.02,2.54,1.07,8.42,1.44,8.76l-0.03,0.09h0.09
	c1.14,0.78,2.23,1.62,3.41,2.32c2.38,1.39,3.1,3.47,2.74,6.06c-0.28,1.98-0.6,3.95-0.91,5.93c-0.72,2.72-0.73,5.57-1.49,8.27
	c-0.42,1.49-2.7,16.81-3.14,23.08c-0.06,0.98,0.07,1.55,1.13,1.99c3.82,1.59,6.8,4.19,8.81,7.85c0.35,1.27,0.85,2.51,1.02,3.8
	c0.25,1.8,1.59,2.48,2.78,1.85c4.32-2.27,9.22-3.74,12.11-8.18c1.66-2.55,1.85-5.29,1.3-8.14c-1.54-8.08-2.23-16.28-3.17-24.44
	c-0.46-3.96,0.15-4.66,4.06-5.53c0.84-0.19,1.74-0.18,2.5-0.67c2.95,0.09,3.35-0.27,3.19-3.34c-0.24-4.61-0.61-9.21-0.88-13.81
	c-0.46-7.88-1.27-15.76-0.66-23.68c0.35-4.59,1.79-6.18,6.35-6.96c0.5-0.09,0.99-0.16,1.49-0.23c5.86-0.7,11.72-1.39,17.57-2.08
	l0.11,0.02l0.09-0.07c2.14,0.13,4.25-0.25,6.38-0.39c5.01-0.33,10.01-0.65,15.02-0.97c7.55,0.16,15.08-0.36,22.61-0.65
	c14.51-0.56,29.02-0.68,43.53-0.18c2.77,0.09,5.53,0.22,8.29,0.33c7.07,0.33,14.14,0.66,21.2,1c0.8,0.16,1.59,0.43,2.4,0.48
	c8.98,0.63,17.87,1.97,26.65,3.96c5.82,1.32,11.66,2.64,16.59,6.31c2.5,2.87,3.22,6.34,3.21,9.97c-0.02,6.95-1.79,13.66-2.89,20.46
	c-0.65,4.02-1.3,8.03-2.05,12.34C306.96,74.98,306.42,76.38,309.23,77.05z M274.82,71.9c7.66,1.41,15.43,2.11,23.15,3.12
	c1.27,0.17,1.72-0.59,1.9-1.78c1.47-9.49,3.16-18.94,4.98-28.37c0.71-3.68,1.66-7.35,1.12-11.19c-0.25-1.75-1.03-2.92-2.7-3.48
	c-1.9-0.63-3.79-1.33-5.72-1.83c-9.5-2.45-19.21-3.82-28.94-4.7c-8.25-0.75-16.51-1.8-24.83-1.51c-5.03-0.29-10.08-0.26-15.11-0.55
	c-3.95-0.02-7.9-0.03-11.85-0.05c-4.71-0.02-9.42-0.15-14.12-0.02c-8.63,0.24-17.25,0.75-25.87,0.94
	c-8.72,0.19-17.43,0.32-26.12,1.09c-6.69,0.6-13.36,1.25-20.02,2.15c-1.55,0.21-1.87,0.87-1.97,2.29
	c-0.44,6.55,0.22,13.06,0.58,19.57c0.31,5.52,0.5,11.04,0.57,16.56c0.02,1.46,0.54,1.61,1.75,1.53c2.5-0.18,5.02-0.28,7.54-0.36
	c6.27-0.2,12.56-0.25,18.81-0.8c3.88-0.03,7.76-0.07,11.65-0.1c0.67-0.01,1.17-0.39,1.68-0.75c7.37-5.37,15.48-6.65,24.27-4.56
	c1.68,0.4,8.05,2.91,9.42,3.99c4.67,3.67,10.4,2.47,14.04-1.1c10.67-10.43,31.69-12.7,43.57,0.67c1.62,2.23,3.02,4.57,3.96,7.16
	c0.22,0.62,0.54,1.14,1.27,1.2C269.99,71.21,274.64,71.87,274.82,71.9z M44.22,78.08c-0.86,0.02-2.18,0.03-3.49,0.06
	c-0.7,0.02-1.16,0.27-1.27,1.08c-0.65,5.05-1.31,10.1-2.03,15.14c-0.15,1.06,0.24,1.37,1.2,1.63c2.61,0.7,4.91,2.03,6.48,4.28
	c4.08,5.84,4.92,15.01-1.83,20.43c-0.55,0.44-1.19,0.77-0.86,1.82c1.5,4.82,0.86,9.61-0.73,14.25c-0.8,2.33-1.08,3.93,0.75,6.29
	c4.42,5.7,2.59,16.85-3.01,21.75c-3.47,3.04-7.66,3.91-12.11,3.69c-1.38-0.07-1.98,0.16-2.14,1.7c-0.36,3.37-0.92,6.73-1.52,10.07
	c-0.21,1.2-0.02,1.67,1.3,1.8c12.92,1.21,25.63,3.67,38.25,6.64c1.15,0.27,1.59,0.08,1.79-1.07c0.68-3.9,1.42-7.79,2.14-11.69
	c0.13-0.7,0.15-1.28-0.61-1.77c-5.69-3.65-9.24-8.96-11.47-15.21c-1.76-4.94-3.06-9.97-1.9-15.3c1.37-6.28,4.86-11.24,10.1-14.69
	c3.09-2.04,3.88-4.12,3.01-7.58c-0.79-3.16-0.84-6.54,0.28-9.68c2.27-6.35,6.88-10.35,13.22-12.43c0.78-0.25,1.52-0.33,1.68-1.43
	c0.51-3.36,1.11-6.7,1.75-10.03c0.22-1.15-0.1-1.71-1.24-2.03C69.7,82.38,57.35,79.51,44.22,78.08z M58.54,148.91
	c0.75,6.65,3.19,13.12,8.58,18.5c5.51,5.5,13.84,4.48,19.05-1.08c3.62-3.86,6.68-8.24,10.82-11.64c6.43-5.27,13.49-9.15,21.79-10.45
	c1.21-0.19,1.72-0.74,1.64-2.01c-0.15-2.38-0.15-4.77-0.29-7.14c-0.4-6.89-0.88-13.78-1.59-20.65c-0.15-1.46-0.59-1.59-1.86-0.92
	c-6.44,3.4-12.26,7.64-17.38,12.81c-2.41,2.43-4.33,5.24-4.64,8.83c-0.36,4.01-1.48,7.75-3.71,11.14c-0.52,0.79-0.95,1.57-2,1.26
	c-1.09-0.32-1.32-1.25-1.22-2.27c0.33-3.35-0.06-6.64-0.88-9.89c-0.56-2.23-0.23-4.28,0.87-6.35c1.12-2.13,2.53-4.04,3.83-6.04
	c1.7-2.62,2.82-5.47,3.2-8.56c0.39-3.21-2.27-6.44-6.4-8.5c-7.08-3.53-16.15,2.27-16.43,9.77c-0.15,3.95,0.58,7.75,0.98,11.6
	c0.16,1.55-0.29,2.69-1.75,3.38c-0.74,0.35-1.46,0.74-2.16,1.15C62.7,135.51,59.46,141.07,58.54,148.91z M290.88,300.04
	c2.17,0.36,4.97-0.23,7.78-1.01c10.45-2.9,14.62-12.8,12.46-21.51c-1.18-4.76-4.82-7.7-8.78-10.12c-5.97-3.65-12.61-5.47-19.5-6.45
	c-2.42-0.35-2.93-0.95-3.24-3.38c-0.48-3.67-1.32-7.28-2.53-10.77c-1.01-2.9-2.39-5.68-5.11-7.48c-6.56-4.33-15.85-0.87-19.38,6.95
	c-2.72,6.01-0.71,11.48,4.81,15.43c2.72,1.95,3.94,4.17,4.5,7.15c0.23,1.23,0.47,2.47,0.7,3.7c0.85,4.69,1.62,9.41,4.1,13.6
	C271.96,295.05,279.97,299.33,290.88,300.04z M217.55,78.05c-0.01,0.69-0.05,1.38-0.02,2.07c0.05,1.13,0.11,2.26,0.23,3.39
	c1.06,10,4.97,17.68,15.27,21.39c11.08,3.99,21.81-2.34,26.03-10.28c3.7-6.95,2.89-14.06,0.68-21.21c-1.56-5.05-4.88-8.7-9.61-10.77
	c-9.01-3.95-17.72-2.79-25.66,2.81C220.27,68.41,217.81,72.72,217.55,78.05z M209.61,88.23c0.24-1.7,0.11-3.65-0.15-5.59
	c-0.72-5.41-2.26-10.5-6.46-14.27c-6.98-6.26-15.01-6.43-23.27-3.3c-10.19,3.86-16.44,16.69-11.94,27.26
	c3.15,7.39,8.81,12.29,16.29,14.84c7.59,2.59,14.38,0.82,19.91-5.09C207.55,98.27,209.53,93.75,209.61,88.23z M123.76,299.04
	c4.39,0.39,8.37-0.85,12.07-3.01c6.16-3.59,12.68-5.81,19.88-5.29c5.25,0.38,9.1-1.86,12.13-5.85c2.65-3.49,1.94-8.91-1.33-11.32
	c-0.64-0.48-1.1-0.62-1.82-0.12c-3.81,2.66-8.19,3.67-12.69,4.35c-7.6,1.15-14.04-1.08-18.64-7.2c-2.55-3.39-5.78-5.27-9.52-6.65
	c-5.56-2.04-9.83-0.15-13.07,3.84c-4.86,5.99-5.62,12.76-2.51,19.74C111.23,294.17,116.31,298.3,123.76,299.04z M216.43,109.49
	c0.17,7.72,0.44,15.44,0.5,23.17c0.07,9.42,0,18.84-0.09,28.27c-0.01,1.34,0.44,1.61,1.59,1.49c6.87-0.69,13.43-2.56,19.72-5.36
	c0.7-0.31,0.85-0.65,0.73-1.43c-0.36-2.29-0.61-4.6-0.86-6.9c-1.13-10.29-2.41-20.56-3.26-30.87c-0.3-3.65-1.33-5.61-5.19-6.17
	c-3.72-0.54-6.81-3.13-10.46-4.13C216.57,106.87,216.58,106.84,216.43,109.49z M81.67,45.79c0.03-4.57-0.37-10.27-1.43-15.91
	c-1.11-5.9-0.63-6.29-7.88-7.96c-1.73-0.4-3.09,0.11-4.05,1.61c-1.8,2.8-3.63,5.58-5.07,8.6c-2.61,5.45-4.68,11.11-6.85,16.74
	c-0.62,1.6-1.56,2.25-3.26,2.17c-1.75-0.08-3.51,0.06-5.27,0.1c-1.38,0.04-2.19,0.75-2.54,2.08c-0.52,2.01-0.98,4.04-1.65,6
	c-0.52,1.53-0.08,1.79,1.39,1.73c8.2-0.32,16.34,0.35,24.39,1.86c5.27,0.99,10.34,2.7,15.15,5.09c1.13,0.56,1.81,0.67,1.99-0.89
	c0.19-1.68,0.54-3.35,0.81-5.02c0.18-1.07-0.25-1.77-1.22-2.28c-1.9-1-3.83-1.9-5.86-2.59c-3.75-1.27-7.52-2.47-11.28-3.72
	c-1.34-0.45-2.54-1.15-2.15-2.8c0.36-1.53,1.65-1.4,2.91-1.31c2.47,0.19,4.79,1,7.18,1.53C81.81,51.91,81.8,51.95,81.67,45.79z
	 M211.04,107.14c-0.66,0.26-1,0.39-1.34,0.54c-3.99,1.69-7.56,4.25-11.71,5.61c-0.88,0.29-0.78,0.96-0.82,1.68
	c-0.26,4.77-0.3,9.57-0.89,14.3c-1.18,9.45-1.06,18.91-0.8,28.38c0.03,1.07,0.64,1.56,1.56,1.83c4.28,1.25,8.62,2.18,13.03,2.86
	c1.77,0.27,1.99-0.51,1.91-1.95c-0.15-2.56-0.21-5.13-0.29-7.69c-0.13-4.7-0.23-9.4-0.37-14.09c-0.15-5.13-0.37-10.26-0.48-15.4
	C210.74,117.95,210.59,112.68,211.04,107.14z M261.62,141.15c-0.06-0.38-0.1-0.7-0.16-1c-0.87-3.97-1.67-7.96-2.64-11.91
	c-1.32-5.42-2.96-10.74-4.95-15.96c-0.6-1.58-1.2-2.29-3.14-1.52c-3.61,1.41-7.31,2.67-11.29,2.69c-1.13,0-1.26,0.52-0.97,1.6
	c2.29,8.54,3.72,17.26,4.71,26.04c0.42,3.74,0.77,7.49,1.16,11.24c0.1,1.05,0.3,1.54,1.64,1.01c1.02-0.4,1.79-1.06,2.67-1.59
	c3.9-2.36,7.66-4.93,11.06-7.98C260.51,143.04,261.41,142.28,261.62,141.15z M192.48,114.08c-3.9,0.2-7.5-0.16-10.92-1.6
	c-0.91-0.39-1.15-0.12-1.4,0.71c-2.76,9.29-4.73,18.75-6.16,28.34c-0.47,3.12,0.27,5.11,2.87,6.91c3.91,2.71,7.63,5.69,12.35,7.59
	C189.49,141.86,190.38,127.96,192.48,114.08z M28.74,201.9c-0.69-0.04-1.38-0.09-2.07-0.12c-5.5-0.3-5.46-0.3-5.82,5.3
	c-0.08,1.27,0.3,1.96,1.38,2.52c2.34,1.22,4.68,2.42,7.11,3.46c8.79,3.78,17.96,4.98,27.45,4.22c1.54-0.12,2.39-0.66,2.63-2.29
	c0.32-2.17,0.83-4.31,1.31-6.46c0.23-1.02-0.08-1.46-1.13-1.67C49.37,204.8,39.12,202.97,28.74,201.9z M168.38,140.31
	c0.59-2.73,1.27-5.16,1.63-7.64c1.05-7.29,3.07-14.35,4.85-21.47c0.29-1.19,0.29-1.9-0.81-2.67c-2.93-2.05-5.67-4.42-7.72-7.32
	c-1.14-1.61-1.83-1.39-3.08-0.47c-4.33,3.17-6.16,7.72-6.66,12.76c-0.53,5.39,1.12,10.41,3.61,15.16
	C162.37,132.85,164.87,136.79,168.38,140.31z M37.94,129.4c0.05-0.75,0.15-1.51,0.13-2.26c-0.12-4.16-1.25-5.77-4.46-6.61
	c-3.14-0.82-6.31-1.01-9.49-0.51c-1.81,0.29-3.69,0.63-4.84,2.32c-3.79,5.54-3.48,11.56-2.03,17.7c0.41,1.72,1.51,2.29,3.24,1.94
	c3.5-0.73,7.04-1.24,10.5-2.1c2.29-0.56,4.8-1.28,5.63-3.87C37.31,133.88,38.07,131.71,37.94,129.4z M266.66,135.61
	c2.17-2.66,3.52-5.35,4.96-7.97c2.92-5.3,4.6-10.89,3.47-16.99c-0.84-4.54-4.36-9.65-10.62-9c-0.75,0.08-1.51,0.06-2.05,0.72
	c-1.39,1.72-3.08,3.14-4.82,4.48c-0.65,0.5-0.69,0.87-0.22,1.51c1.09,1.47,1.8,3.15,2.53,4.82
	C263.01,120.27,265.27,127.61,266.66,135.61z M38.88,151.93c0.11-1.11-0.04-2.64-0.49-4.18c-0.43-1.47-1.48-2.53-2.51-3.44
	c-0.63-0.55-1.7,0.47-2.6,0.7c-5.17,1.3-10.31,2.74-15.64,3.23c-0.9,0.08-1.13,0.63-1.39,1.28c-1.11,2.87,0.1,5.51,1.54,7.63
	c1.71,2.52,4.38,4.29,7.58,4.83c4.25,0.71,8.3,0.64,11.37-3.07C38.31,157.01,38.7,154.75,38.88,151.93z M33.32,102.32
	c-1.66-0.21-3.7,0.02-5.76,0.36c-6.09,1.01-8.88,5.03-7.79,11.15c0.22,1.23,0.66,1.38,1.71,1.15c4.33-0.98,8.57-0.47,12.81,0.74
	c1.42,0.4,2.94,1.5,4.49,0.53c1.81-1.13,3.12-2.71,3.32-4.97C42.56,105.86,39.54,102.62,33.32,102.32z M84.84,79.59
	c-0.07-1.69,1.26-3.29-0.28-4.84c-3.26-3.27-7.22-4.49-11.72-3.7c-3.02,0.53-5.58-0.24-7.97-1.98c-3.41-2.48-7.14-2.63-10.94-1.28
	c-2.93,1.04-5.75,1.09-8.63-0.05c-0.82-0.32-1.67-0.56-2.5-0.83c-0.7-0.22-1.22-0.39-1.5,0.67c-0.3,1.12-1.47,2.55,0.27,3.29
	c4.43,1.87,8.97,2.88,13.68,0.85c2.9-1.25,5.6-0.98,8.1,1.1c1.47,1.22,3.24,1.88,5.09,2.37c2.02,0.53,4,0,6-0.1
	c2.56-0.13,4.84,0.31,6.69,2.32C82.06,78.41,83.28,79.12,84.84,79.59z M22.11,191.71c0.15,0.62-0.48,1.55,0.62,2.17
	c2.32,1.31,4.67,2.04,7.37,1.17c4.15-1.33,8.15-0.95,11.99,1.25c3.02,1.73,6.29,2,9.68,1.2c2.4-0.57,4.58,0,6.6,1.43
	c0.8,0.57,1.43,1.35,2.46,1.68c0.75,0.24,1.26,0.71,1.8-0.3c0.49-0.91,1.12-1.98,0.27-2.72c-3.09-2.7-6.56-5-10.88-4.11
	c-3.51,0.73-6.55,0.1-9.59-1.54c-3.72-2-7.66-2.38-11.71-1.23c-2.19,0.62-4.17,0.74-6.28-0.55
	C22.6,189.02,22.28,189.36,22.11,191.71z M163.45,267.85c-0.24-1.31-0.52-2.47-2.08-3c-3.45-1.17-6.65-0.72-9.77,0.99
	c-1.36,0.74-2.64,1.6-4.34,1.64c-2.87,0.07-4.89-1.38-6.67-3.34c-1.66-1.84-3.41-3.53-5.69-4.56c-0.55-0.25-1.19-0.84-1.73-0.41
	c-0.61,0.49,0.04,1.15,0.21,1.69c0.96,3.07,3.66,4.74,5.75,6.85c4.71,4.76,9.65,4.38,14.75,0.85c0.49-0.34,0.86-0.65,1.47-0.61
	c2.11,0.14,4.26-0.08,6.26,0.93C162.57,269.35,163.33,269.11,163.45,267.85z M293.79,256.56c0-0.01,0-0.02,0-0.03
	c1.07,0.07,2.13,0.17,3.19,0.18c1.2,0.01,1.92-0.9,2.11-1.82c0.19-0.9-0.97-0.89-1.61-1.17c-0.94-0.41-1.96-0.39-2.96-0.48
	c-5.85-0.54-6.01-0.71-6.46-6.59c-0.35-4.52-2.75-7.31-7.11-8.3c-0.34-0.08-0.64-0.11-0.88,0.11c-0.3,0.25-0.15,0.57,0.02,0.84
	c0.83,1.37,1.3,3,3,3.7c0.99,0.41,1.43,1.26,1.65,2.34c0.25,1.19,0.18,2.36,0.16,3.55c-0.1,4.87,1.83,7.06,6.61,7.54
	C292.29,256.5,293.04,256.52,293.79,256.56z M290.99,234.91c0.73,5.77,3.6,10.37,7.79,14.23c3.17,2.91,3.21,2.89,6.65,0.38
	c0.15-0.11,0.32-0.2,0.47-0.32c4.45-3.38,8.88-6.78,12.62-11c6.57-7.43,6.89-13.52,0.8-21.36c-1.72-2.23-3.82-4.16-5.74-6.24
	c-5.46-5.89-11.8-10.96-16.54-17.53c-0.88-1.21-1.8-2.39-2.71-3.58c-0.19,0.01-0.37,0.02-0.56,0.04c-0.6,9.94-1.21,19.87-1.81,29.81
	c2.52,3.29,2.59,6.73,2.13,10.62C293.95,231.23,294.59,233.98,290.99,234.91z"/>
<path class="st4" d="M291.97,219.34c0.6-9.94,1.21-19.87,1.81-29.81c0.18-0.01,0.37-0.02,0.56-0.04c0.91,1.19,1.83,2.36,2.71,3.58
	c4.75,6.57,11.08,11.64,16.54,17.53c1.92,2.07,4.02,4.01,5.74,6.24c6.09,7.83,5.77,13.93-0.8,21.36c-3.73,4.22-8.17,7.62-12.62,11
	c-0.15,0.12-0.32,0.21-0.47,0.32c-3.44,2.51-3.48,2.54-6.65-0.38c-4.2-3.85-7.06-8.46-7.79-14.23
	C291.32,229.72,291.64,224.53,291.97,219.34z"/>
<path class="st1" d="M217.6,77.35c0.26-5.47,2.79-9.9,7.11-12.93c8.15-5.75,17.09-6.93,26.34-2.88c4.86,2.13,8.26,5.87,9.86,11.06
	c2.27,7.34,3.09,14.64-0.7,21.77c-4.33,8.14-15.35,14.64-26.72,10.55c-10.57-3.81-14.58-11.69-15.67-21.95
	c-0.12-1.16-0.19-2.32-0.23-3.48C217.55,78.77,217.59,78.06,217.6,77.35z"/>
<path class="st3" d="M418.64,125.53c0.14,4.02,0.45,8.08-0.95,11.93c-0.98,2.71-0.78,5.13-0.13,7.93c1.39,6-0.58,11.31-5.14,15.46
	c-1.33,1.21-1.87,2.34-1.57,4.07c0.26,1.48,0.31,3,0.46,4.5c2.54,0.41,4.9-0.29,6.91-1.7c5.88-4.16,9.16-9.96,10.05-17.06
	c0.99-7.9-1.72-14.76-6.07-21.15C421.19,128.01,420.3,126.43,418.64,125.53z"/>
<path class="st3" d="M311.62,146.24c6.39,4.47,12.11,0.48,14.81,15.88c1.11,6.33,4.9,11.69,7.43,14.2c3.47,3.44,7.79,5.4,12.8,5.43
	c2.52,0.01,5.02-0.21,7.24-1.62c-0.23-1.86-0.47-3.73-0.67-5.59c-0.08-0.77-0.4-1.04-1.19-1.08c-6.13-0.3-10.9-3.18-14.92-7.68
	c-3.42-3.81-6.39-8.08-10.65-11.07c-3.52-2.46-7.09-5.4-11.34-6.5"/>
<g>
	<path class="st4" d="M413.18,182.92c0.51,3.73,0.99,7.46,1.55,11.18c0.59,3.93,0.64,7.9,0.73,11.85c0.05,1.86-0.88,3.31-2.44,4.41
		c-2.17,1.53-4.51,2.74-6.91,3.86c-9.01,4.2-18.47,6.63-28.43,6.55c-4.3-0.03-8.72,0.1-12.69-2.1c-0.45,5.53,0.33,10.93,2.53,15.95
		c0.96,2.19,3.02,3.99,5.25,5.15c4.29,2.25,8.62,1.63,12.55-0.76c4.26-2.6,7.31-6.52,10.2-10.53c1.39-1.92,2.97-3.7,4.57-5.46
		c0.84-0.93,2.06-0.76,3.2-0.61c2.79,0.35,5.53,1.01,8.41,0.68c3.03-0.34,7.94-5.09,8.95-8.01c1.4-4.03,1.78-8.04,1.31-12.17
		c-0.35-3.11-0.97-6.16-2.24-9.08c-0.64-1.46-0.97-3.01-1.85-4.43C416.46,187.14,415.2,184.77,413.18,182.92z"/>
	<path class="st4" d="M344.46,22.18c1-4.78,4.24-7.22,8.69-8.41c1.27-0.34,2.57-0.59,3.86-0.88c3.21-0.73,5.25,0.05,7.14,2.81
		c3.1,4.52,5.56,9.4,7.86,14.37c1.55,3.37,3.19,6.69,4.72,10.07c0.45,0.98,1.01,1.42,2.13,1.44c2.13,0.04,4.26,0.27,6.39,0.41
		c1.37,0.09,2.08,0.97,2.71,2.06c2.62,4.6,3.6,9.74,5.05,14.73c0.43,1.51,0.9,3,1.36,4.5c1.27-0.6,1.32-1.96,1.65-3.02
		c1.86-5.93,1.79-11.76-1.75-17.12c-1.8-2.73-4.28-4.71-7.46-5.8c-1.81-0.63-3.61-1.43-5.23-2.45c-0.84-0.52-1.32-1.69-1.51-2.76
		c-0.79-4.61-2.32-8.96-4.8-12.9c-2.18-3.45-4.56-6.78-7.65-9.55c-1.25-1.13-2.45-2.31-3.86-3.22c-1.2-0.78-4.89-1.85-6.39-2.09
		c-3.5-0.56-9.46,0.5-11.84,2.33c-6.66,5.09-7.7,12.44-8.26,15.88c-0.82,5.02,1.8,19.1,2.5,20.2c0.35,0.54,1.8,3.52,2.34,3.54
		c0.75,0.02,0.71-5.29,1.35-5.95C343.43,40,344.14,23.72,344.46,22.18z"/>
	<path class="st4" d="M330.95,105.1c2.02-3.65,3.6-6.72,7.43-8.29c1.06-0.43,1.19-1,1.14-1.99c-0.4-6.27,0.58-12.58-0.38-18.78
		c-0.23-1.48-2.04-9.86-2.73-11.25c-4.22,25.91-6.16,21.29-9.24,27.24c-1.51,2.92-1.16,11.19,2.85,12.86
		C330.9,105.25,329.97,105.06,330.95,105.1z"/>
</g>
<polygon class="st5" points="340.34,49.17 340.44,49.17 340.4,49.08 340.31,49.09 "/>
<path class="st2" d="M384.6,74.88c-13.13,1.37-25.5,4.18-37.77,7.56c-1.15,0.31-1.47,0.87-1.25,2.02c0.62,3.34,1.21,6.68,1.7,10.04
	c0.16,1.1,0.9,1.18,1.68,1.44c6.34,2.11,10.93,6.13,13.17,12.49c1.11,3.14,1.04,6.52,0.23,9.68c-0.88,3.45-0.11,5.54,2.97,7.59
	c5.23,3.47,8.68,8.45,10.03,14.74c1.14,5.34-0.18,10.36-1.97,15.29c-2.26,6.24-5.83,11.53-11.54,15.15
	c-0.77,0.49-0.75,1.06-0.62,1.77c0.7,3.9,1.42,7.79,2.08,11.7c0.2,1.15,0.63,1.34,1.79,1.08c12.63-2.91,25.35-5.32,38.28-6.47
	c1.32-0.12,1.51-0.59,1.3-1.79c-0.58-3.34-1.12-6.7-1.47-10.07c-0.16-1.54-0.75-1.77-2.14-1.71c-4.46,0.2-8.64-0.69-12.1-3.75
	c-5.58-4.93-7.36-16.08-2.91-21.76c1.84-2.35,1.57-3.95,0.78-6.29c-1.57-4.65-2.18-9.44-0.66-14.26c0.33-1.05-0.3-1.38-0.85-1.83
	c-6.73-5.45-5.84-14.61-1.73-20.43c1.58-2.24,3.88-3.55,6.5-4.25c0.96-0.26,1.35-0.56,1.2-1.63c-0.7-5.04-1.34-10.1-1.96-15.15
	c-0.1-0.81-0.56-1.06-1.26-1.09C386.78,74.92,385.46,74.91,384.6,74.88z"/>
<path class="st3" d="M309.74,140.7c8.3,1.34,15.34,5.25,21.74,10.55c4.12,3.42,7.16,7.81,10.76,11.69
	c5.18,5.58,13.51,6.64,19.04,1.17c5.41-5.36,7.88-11.82,8.66-18.46c-0.88-7.84-4.1-13.42-10.35-17.1c-0.71-0.41-1.42-0.81-2.16-1.16
	c-1.45-0.7-1.91-1.84-1.73-3.39c0.42-3.86,1.17-7.65,1.04-11.6c-0.25-7.5-9.29-13.34-16.38-9.85c-4.14,2.04-6.82,5.25-6.44,8.47
	c0.37,3.09,1.48,5.95,3.17,8.57c1.29,2,2.69,3.92,3.8,6.06c1.08,2.08,1.41,4.13,0.84,6.36c-0.84,3.25-1.24,6.53-0.93,9.89
	c0.1,1.02-0.13,1.95-1.23,2.27c-1.06,0.3-1.47-0.48-1.99-1.27c-2.22-3.41-3.32-7.15-3.66-11.16c-0.3-3.59-2.2-6.4-4.6-8.85
	c-5.1-5.19-10.9-9.45-17.32-12.89"/>
<path class="st2" d="M347.3,42.43c-0.16,6.16-0.17,6.12,4.68,5.07c2.39-0.52,4.72-1.32,7.18-1.5c1.26-0.09,2.55-0.21,2.9,1.32
	c0.38,1.66-0.83,2.35-2.17,2.79c-3.76,1.23-7.54,2.42-11.3,3.67c-2.03,0.68-3.97,1.57-5.87,2.56c-0.98,0.51-1.4,1.2-1.23,2.27
	c0.27,1.68,0.61,3.34,0.79,5.03c0.17,1.56,0.85,1.46,1.98,0.9c4.82-2.38,9.9-4.06,15.17-5.02c8.06-1.47,16.2-2.1,24.4-1.75
	c1.47,0.07,1.91-0.2,1.4-1.73c-0.66-1.96-1.12-3.99-1.62-6c-0.34-1.34-1.14-2.05-2.53-2.09c-1.76-0.05-3.52-0.2-5.27-0.13
	c-1.7,0.07-2.64-0.59-3.25-2.19c-2.14-5.64-4.19-11.31-6.77-16.77c-1.43-3.02-3.25-5.81-5.03-8.63c-0.96-1.51-2.32-2.02-4.05-1.63
	c-7.26,1.63-6.79,2.03-7.92,7.92C347.72,32.16,347.29,37.85,347.3,42.43z"/>
<path class="st2" d="M399.5,198.78c-10.38,1.03-20.65,2.8-30.88,4.81c-1.05,0.21-1.36,0.64-1.14,1.66c0.47,2.15,0.97,4.29,1.28,6.47
	c0.23,1.63,1.08,2.17,2.62,2.3c9.48,0.81,18.66-0.35,27.47-4.09c2.43-1.03,4.78-2.23,7.12-3.43c1.08-0.56,1.47-1.24,1.39-2.51
	c-0.33-5.6-0.29-5.6-5.79-5.33C400.88,198.7,400.19,198.74,399.5,198.78z"/>
<path class="st3" d="M390.63,126.24c-0.13,2.31,0.61,4.48,1.29,6.61c0.83,2.59,3.33,3.33,5.62,3.9c3.46,0.87,7,1.41,10.49,2.15
	c1.73,0.36,2.84-0.21,3.25-1.92c1.47-6.13,1.82-12.15-1.95-17.7c-1.15-1.69-3.02-2.05-4.83-2.34c-3.18-0.52-6.35-0.34-9.5,0.47
	c-3.21,0.82-4.35,2.43-4.49,6.59C390.49,124.73,390.59,125.49,390.63,126.24z"/>
<path class="st3" d="M389.59,148.76c0.16,2.82,0.54,5.09,2.1,6.99c3.05,3.72,7.11,3.81,11.35,3.12c3.2-0.52,5.88-2.28,7.6-4.79
	c1.45-2.12,2.67-4.75,1.57-7.62c-0.25-0.66-0.48-1.21-1.38-1.29c-5.33-0.52-10.46-1.98-15.62-3.3c-0.9-0.23-1.97-1.26-2.6-0.71
	c-1.03,0.9-2.09,1.96-2.53,3.43C389.64,146.11,389.49,147.65,389.59,148.76z"/>
<path class="st3" d="M395.38,99.18c-6.22,0.27-9.25,3.49-8.81,8.92c0.19,2.26,1.49,3.84,3.3,4.98c1.54,0.97,3.06-0.12,4.49-0.51
	c4.25-1.18,8.48-1.68,12.81-0.68c1.05,0.24,1.49,0.09,1.71-1.14c1.12-6.12-1.65-10.15-7.74-11.19
	C399.08,99.22,397.04,98.98,395.38,99.18z"/>
<path class="st2" d="M343.97,76.21c1.56-0.47,2.79-1.16,3.72-2.17c1.86-2,4.14-2.43,6.7-2.29c2,0.11,3.98,0.66,6,0.13
	c1.85-0.48,3.62-1.13,5.1-2.35c2.51-2.07,5.21-2.32,8.11-1.06c4.7,2.05,9.25,1.06,13.69-0.79c1.75-0.73,1.73-2.01,1.72-3.12
	c-0.01-1.1-2.23-1.06-2.93-0.84c-0.84,0.26-1.69,0.5-2.51,0.82c-2.88,1.12-5.7,1.06-8.63,0.01c-3.79-1.37-7.53-1.23-10.95,1.23
	c-2.4,1.73-4.96,2.49-7.98,1.95c-4.49-0.81-8.46,0.39-11.73,3.64C342.72,72.91,344.05,74.52,343.97,76.21z"/>
<path class="st2" d="M406.17,188.62c-0.16-2.35-0.47-2.69-2.32-1.57c-2.11,1.28-4.09,1.15-6.28,0.52
	c-4.05-1.16-7.99-0.81-11.71,1.18c-3.04,1.63-6.09,2.23-9.6,1.49c-4.32-0.91-7.79,1.37-10.9,4.06c-0.85,0.74-0.23,1.81,0.26,2.73
	c0.53,1.01,1.05,0.55,1.8,0.31c1.03-0.33,1.66-1.1,2.46-1.67c2.02-1.42,4.21-1.97,6.6-1.39c3.38,0.82,6.66,0.56,9.68-1.16
	c3.85-2.19,7.85-2.54,11.99-1.19c2.69,0.88,5.04,0.16,7.37-1.14C406.65,190.17,406.02,189.23,406.17,188.62z"/>
<path class="st8" d="M298.97,144.51c4,1.83,23.98,7.74,27.5,10.21c4.26,2.98,7.23,7.25,10.65,11.07c4.03,4.5,8.8,7.38,14.92,7.68
	c0.79,0.04,1.11,0.31,1.19,1.08c0.19,1.87,0.44,3.73,0.67,5.59c1.41,6.89,2.72,13.79,4.24,20.65c1.04,4.71,2.41,9.35,3.53,14.04
	c0.46,1.92,1.8,2.93,3.32,3.86c3.98,2.21,8.39,2.07,12.69,2.1c9.97,0.08,19.43-2.34,28.43-6.55c2.39-1.12,4.74-2.33,6.91-3.86
	c1.56-1.1,2.49-2.55,2.44-4.41c-0.1-3.96-0.14-7.92-0.73-11.85c-0.56-3.72-1.04-7.45-1.55-11.18c-0.6-4.51-1.64-8.95-1.87-13.51
	c-0.14-1.5-0.2-3.01-0.46-4.5c-0.3-1.72,0.25-2.86,1.57-4.07c4.56-4.15,6.53-9.46,5.14-15.46c-0.65-2.8-0.85-5.22,0.13-7.93
	c1.39-3.85,1.09-7.91,0.95-11.93c-0.91-2.86-1.42-5.92-3.43-8.26c-1.7-1.97-1.67-3.79-1.03-6.25c2.22-8.57-2.57-15.93-11.43-17.69
	c-2.19-0.43-3.07-1.32-3.64-3.41c-1.54-5.65-1.9-11.5-3.09-17.21c-0.65-3.13-1.11-6.29-1.66-9.44c-0.45-1.5-0.92-2.99-1.36-4.5
	c-1.44-4.99-2.43-10.14-5.05-14.73c-0.62-1.09-1.34-1.98-2.71-2.06c-2.13-0.14-4.26-0.37-6.39-0.41c-1.12-0.02-1.68-0.46-2.13-1.44
	c-1.53-3.38-3.17-6.7-4.72-10.07c-2.29-4.97-4.76-9.85-7.86-14.37c-1.89-2.76-3.93-3.54-7.14-2.81c-1.29,0.29-2.59,0.54-3.86,0.88
	c-4.45,1.19-8.16,3.66-9.15,8.44c-1.63,9.33-2.11,17.77-2.1,18.13c-0.03,2.54-1.11,8.41-1.48,8.75l0.03,0.09h-0.09
	c-1.14,0.77-2.24,1.61-3.43,2.3c-2.38,1.38-3.12,3.46-2.77,6.05c0.27,1.98,0.59,3.95,0.88,5.93c0.71,2.72,0.7,5.57,1.46,8.28
	c0.42,1.5,2.63,16.82,3.03,23.09c0.06,0.99-0.08,1.55-1.14,1.99c-3.83,1.57-6.82,4.16-8.85,7.81c-0.36,1.27-0.86,2.51-1.04,3.8
	c-0.26,1.8-1.6,2.47-2.79,1.84c-4.31-2.29-13.92-7.74-16.79-12.19"/>
<path class="st3" d="M308.33,108.29c6.42,3.43,15.87,9.4,20.97,14.59c2.4,2.44,4.3,5.26,4.6,8.85c0.34,4.01,1.44,7.75,3.66,11.16
	c0.52,0.8,0.94,1.58,1.99,1.27c1.09-0.31,1.32-1.24,1.23-2.27c-0.32-3.36,0.09-6.64,0.93-9.89c0.57-2.23,0.25-4.27-0.84-6.36
	c-1.11-2.13-2.51-4.05-3.8-6.06c-1.68-2.62-2.8-5.48-3.17-8.57c-0.38-3.21,2.3-6.43,6.44-8.47c7.1-3.49,16.13,2.35,16.38,9.85
	c0.13,3.95-0.61,7.74-1.04,11.6c-0.17,1.55,0.28,2.69,1.73,3.39c0.74,0.35,1.45,0.75,2.16,1.16c6.26,3.67,9.47,9.25,10.35,17.1
	c-0.78,6.64-3.26,13.11-8.66,18.46c-5.53,5.48-13.86,4.42-19.04-1.17c-3.6-3.88-6.64-8.27-10.76-11.69
	c-6.4-5.3-22.67-12.19-30.97-13.54"/>
<path class="st3" d="M390.63,126.24c-0.04-0.75-0.14-1.51-0.12-2.26c0.14-4.16,1.28-5.77,4.49-6.59c3.14-0.81,6.31-0.98,9.5-0.47
	c1.81,0.29,3.68,0.65,4.83,2.34c3.77,5.55,3.42,11.57,1.95,17.7c-0.41,1.71-1.52,2.29-3.25,1.92c-3.49-0.74-7.03-1.27-10.49-2.15
	c-2.29-0.57-4.79-1.31-5.62-3.9C391.24,130.72,390.5,128.55,390.63,126.24z"/>
<path class="st3" d="M389.59,148.76c-0.1-1.11,0.05-2.64,0.51-4.18c0.44-1.47,1.49-2.53,2.53-3.43c0.63-0.55,1.7,0.48,2.6,0.71
	c5.16,1.32,10.29,2.79,15.62,3.3c0.9,0.09,1.13,0.64,1.38,1.29c1.1,2.87-0.12,5.51-1.57,7.62c-1.72,2.51-4.4,4.27-7.6,4.79
	c-4.25,0.69-8.3,0.6-11.35-3.12C390.14,153.85,389.76,151.58,389.59,148.76z"/>
<path class="st3" d="M395.38,99.18c1.66-0.2,3.7,0.04,5.76,0.38c6.09,1.04,8.86,5.07,7.74,11.19c-0.22,1.23-0.67,1.38-1.71,1.14
	c-4.33-1-8.56-0.51-12.81,0.68c-1.42,0.39-2.95,1.48-4.49,0.51c-1.8-1.14-3.11-2.72-3.3-4.98
	C386.13,102.67,389.16,99.45,395.38,99.18z"/>
<g>
	<path class="st4" d="M384.6,74.88c0.86,0.02,2.18,0.04,3.49,0.08c0.7,0.02,1.16,0.27,1.26,1.09c0.63,5.06,1.26,10.11,1.96,15.15
		c0.15,1.06-0.24,1.37-1.2,1.63c-2.61,0.69-4.91,2-6.5,4.25c-4.11,5.83-4.99,14.99,1.73,20.43c0.55,0.45,1.18,0.78,0.85,1.83
		c-1.52,4.81-0.9,9.6,0.66,14.26c0.79,2.34,1.06,3.93-0.78,6.29c-4.45,5.68-2.67,16.84,2.91,21.76c3.46,3.05,7.64,3.95,12.1,3.75
		c1.38-0.06,1.98,0.17,2.14,1.71c0.35,3.37,0.89,6.73,1.47,10.07c0.2,1.2,0.02,1.67-1.3,1.79c-12.93,1.15-25.65,3.55-38.28,6.47
		c-1.16,0.27-1.59,0.07-1.79-1.08c-0.66-3.9-1.38-7.8-2.08-11.7c-0.13-0.7-0.15-1.28,0.62-1.77c5.71-3.62,9.28-8.92,11.54-15.15
		c1.79-4.93,3.11-9.95,1.97-15.29c-1.35-6.29-4.8-11.27-10.03-14.74c-3.09-2.05-3.86-4.14-2.97-7.59c0.81-3.16,0.87-6.54-0.23-9.68
		c-2.24-6.36-6.83-10.39-13.17-12.49c-0.77-0.26-1.51-0.34-1.68-1.44c-0.49-3.36-1.08-6.7-1.7-10.04c-0.21-1.15,0.11-1.71,1.25-2.02
		C359.09,79.07,371.46,76.25,384.6,74.88z"/>
	<path class="st4" d="M347.3,42.43c0-4.57,0.42-10.27,1.5-15.9c1.14-5.89,0.66-6.29,7.92-7.92c1.73-0.39,3.09,0.12,4.05,1.63
		c1.78,2.81,3.6,5.6,5.03,8.63c2.58,5.46,4.63,11.14,6.77,16.77c0.61,1.6,1.54,2.26,3.25,2.19c1.75-0.07,3.51,0.08,5.27,0.13
		c1.38,0.04,2.19,0.76,2.53,2.09c0.51,2.01,0.96,4.04,1.62,6c0.51,1.53,0.07,1.79-1.4,1.73c-8.2-0.36-16.34,0.28-24.4,1.75
		c-5.27,0.96-10.35,2.65-15.17,5.02c-1.13,0.56-1.81,0.67-1.98-0.9c-0.18-1.68-0.52-3.35-0.79-5.03c-0.17-1.07,0.25-1.76,1.23-2.27
		c1.9-0.99,3.84-1.89,5.87-2.56c3.76-1.25,7.54-2.44,11.3-3.67c1.34-0.44,2.55-1.13,2.17-2.79c-0.35-1.53-1.64-1.41-2.9-1.32
		c-2.47,0.18-4.8,0.98-7.18,1.5C347.13,48.54,347.14,48.59,347.3,42.43z"/>
	<path class="st4" d="M399.5,198.78c0.69-0.04,1.38-0.08,2.07-0.11c5.5-0.28,5.46-0.27,5.79,5.33c0.08,1.27-0.31,1.95-1.39,2.51
		c-2.34,1.21-4.69,2.4-7.12,3.43c-8.81,3.74-17.99,4.89-27.47,4.09c-1.54-0.13-2.39-0.67-2.62-2.3c-0.31-2.17-0.81-4.32-1.28-6.47
		c-0.22-1.02,0.09-1.46,1.14-1.66C378.85,201.58,389.11,199.8,399.5,198.78z"/>
	<path class="st4" d="M343.97,76.21c0.07-1.69-1.25-3.3,0.3-4.84c3.27-3.25,7.25-4.46,11.73-3.64c3.02,0.54,5.58-0.22,7.98-1.95
		c3.42-2.46,7.15-2.6,10.95-1.23c2.93,1.06,5.74,1.12,8.63-0.01c0.82-0.32,1.67-0.56,2.51-0.82c0.7-0.22,1.22-0.38,1.5,0.68
		c0.29,1.12,1.46,2.56-0.29,3.29c-4.44,1.85-8.98,2.84-13.69,0.79c-2.9-1.27-5.6-1.01-8.11,1.06c-1.48,1.22-3.25,1.87-5.1,2.35
		c-2.02,0.53-4-0.02-6-0.13c-2.56-0.14-4.84,0.29-6.7,2.29C346.76,75.04,345.53,75.74,343.97,76.21z"/>
	<path class="st4" d="M406.17,188.62c-0.16,0.61,0.48,1.55-0.63,2.17c-2.33,1.3-4.68,2.01-7.37,1.14
		c-4.15-1.35-8.14-0.99-11.99,1.19c-3.03,1.72-6.3,1.98-9.68,1.16c-2.4-0.58-4.58-0.03-6.6,1.39c-0.8,0.56-1.44,1.34-2.46,1.67
		c-0.75,0.24-1.27,0.7-1.8-0.31c-0.49-0.92-1.11-1.99-0.26-2.73c3.11-2.69,6.58-4.97,10.9-4.06c3.51,0.74,6.55,0.13,9.6-1.49
		c3.72-1.98,7.67-2.34,11.71-1.18c2.19,0.63,4.17,0.76,6.28-0.52C405.7,185.93,406.01,186.27,406.17,188.62z"/>
</g>
</svg>
