<?xml version="1.0" encoding="utf-8"?>
<!-- Generator: Adobe Illustrator 24.1.3, SVG Export Plug-In . SVG Version: 6.00 Build 0)  -->
<svg version="1.1" id="Layer_1" xmlns="http://www.w3.org/2000/svg" xmlns:xlink="http://www.w3.org/1999/xlink" x="0px" y="0px"
	 viewBox="0 0 77.65 83.11" style="enable-background:new 0 0 77.65 83.11;" xml:space="preserve">
<style type="text/css">
	.st0{fill:#FFFFFF;}
	.st1{fill:#000001;}
	.st2{fill:#FF71A6;}
</style>
<g>
	<path class="st0" d="M77.65,44.22c-0.08-2.83-0.18-6.34-1.07-9.87c-1.03-4.08-4.38-6.24-8.53-5.51c-1.62,0.29-3.05,0.67-4.35,1.17
		c-1.14,0.44-2.28,0.87-3.42,1.3c-0.22,0.09-0.45,0.17-0.67,0.26c0.13-0.38,0.3-0.74,0.53-1.08c1.09-1.67,1.87-3.41,2.35-5.2
		c0.91,0.74,2.03,1.15,3.27,1.15c0.15,0,0.31-0.01,0.46-0.02c2.25-0.18,4.01-1.61,4.7-3.83c0.27-0.86,0.26-1.63,0.26-2.13
		c0-0.17,0-0.31,0.01-0.41l0.02-0.22L71.2,19.6c-0.14-2.97-0.73-5.81-1.74-8.42c-1.79-4.64-4.42-7.99-8.01-10.23
		c-2.73-1.7-6.03-1.06-7.67,1.5c-0.63,0.98-0.9,2.05-0.85,3.09c-0.21-0.09-0.42-0.18-0.64-0.26c-4.61-1.72-9.6-1.31-13.68,1.12
		c-2.11,1.26-3.84,2.92-5.18,4.97c-1.17-0.72-2.51-1.29-4.03-1.73c-4.44-1.29-9.08-0.78-13.06,1.43c-3.87,2.15-6.66,5.67-7.85,9.92
		c-0.16,0.56-0.28,1.12-0.37,1.68c-0.82-0.49-1.79-0.76-2.84-0.74C2.27,22,0.05,24.45,0,27.75l0,0.24l0.06,0.52
		c0.03,0.29,0.07,0.63,0.12,0.97c0.87,5.92,3.66,10.68,8.3,14.15c1.07,0.8,2.3,1.22,3.52,1.22c0.27,0,0.54-0.02,0.81-0.06
		c1.4-0.22,2.64-0.99,3.49-2.18c0.54-0.76,0.86-1.6,0.96-2.45c0.02,0.01,0.04,0.02,0.07,0.03c0.04,0.42,0.09,0.84,0.14,1.24
		c0.1,0.88,0.19,1.72,0.26,2.56c0.32,3.76,0.84,7.72,1.63,12.45c0.56,3.37,2.32,5.23,4.04,6.25c0.11,0.71,0.25,1.5,0.53,2.31
		c-1.42,1.78-2.79,3.52-4.09,5.2c-1.25,1.61-1.59,3.64-0.93,5.44c0.63,1.71,2.11,2.95,3.94,3.32c2.69,0.54,4.56-0.99,5.66-2.37
		c1.53-1.93,2.94-3.73,4.3-5.46c0.55,0.06,1.1,0.1,1.63,0.13c0.02,1,0.05,2.08,0.09,3.25l0.01,0.29c0.04,1.18,0.07,2.4,0.22,3.67
		c0.3,2.52,2.36,4.47,4.91,4.64c0.12,0.01,0.23,0.01,0.34,0.01c2.18,0,4.18-1.34,5.04-3.43c0.46-1.11,0.43-2.12,0.41-2.72l0-0.16
		c-0.01-0.72-0.03-1.43-0.04-2.15c-0.02-1.2-0.04-2.42-0.07-3.64c0.78-0.06,1.51-0.15,2.21-0.26c1.49,1.54,2.99,3.08,4.45,4.58
		l1.87,1.92c0.41,0.42,1.02,1.05,1.96,1.5c1.73,0.84,3.65,0.73,5.27-0.32c1.61-1.04,2.48-2.77,2.4-4.73
		c-0.09-2.09-1.35-3.39-1.89-3.94l-2.48-2.54c-1.13-1.16-2.25-2.31-3.38-3.47c0.72-1.01,3.23-3.69,3.49-7.3
		c1.39,0.35,2.78,0.7,4.14,1.04l1.07,0.27c1.9,0.48,3.63,0.89,5.5,1.1c2.65,0.3,4.94-0.9,6.13-3.19c0.45-0.87,0.75-1.83,0.91-2.93
		c0.45-2.99,0.56-5.89,0.62-8.32l0-0.09L77.65,44.22z"/>
	<g>
		<g>
			<path class="st1" d="M74.13,44.31c-0.06,2.74-0.2,5.32-0.58,7.89c-0.09,0.63-0.26,1.26-0.56,1.83c-0.55,1.05-1.47,1.45-2.62,1.32
				c-1.71-0.19-3.37-0.6-5.04-1.01c-2.79-0.7-5.58-1.39-8.36-2.13c-0.66-0.18-0.84,0.01-0.83,0.63c0.02,0.85-0.11,1.68-0.25,2.51
				c-0.27,1.63-1.08,2.86-2.6,3.58c-0.27,0.13-0.5,0.25-0.54,0.61c-0.18,1.67-0.15,3.37-0.95,4.92c-0.15,0.29,0.21,0.44,0.38,0.62
				c2.31,2.38,4.62,4.75,6.93,7.12c0.45,0.46,0.87,0.94,0.9,1.64c0.03,0.69-0.21,1.25-0.8,1.63c-0.59,0.38-1.19,0.41-1.82,0.11
				c-0.4-0.19-0.7-0.51-1.01-0.82c-2.37-2.43-4.76-4.86-7.11-7.31c-0.36-0.38-0.69-0.49-1.21-0.37c-1.77,0.39-3.57,0.5-5.37,0.52
				c-0.7,0.01-0.95,0.15-0.93,0.91c0.1,2.79,0.13,5.58,0.19,8.37c0.01,0.49,0.06,0.99-0.14,1.46c-0.34,0.81-1.08,1.31-1.91,1.25
				c-0.82-0.05-1.54-0.64-1.65-1.54c-0.14-1.21-0.17-2.43-0.21-3.65c-0.06-1.97-0.11-3.95-0.13-5.93c0-0.59-0.24-0.74-0.79-0.73
				c-1.8,0.06-3.6,0.04-5.37-0.35c-0.43-0.09-0.62,0.15-0.84,0.44c-1.72,2.2-3.44,4.39-5.17,6.57c-0.56,0.71-1.2,1.31-2.2,1.11
				c-1.45-0.29-1.92-1.88-0.94-3.16c1.62-2.09,3.26-4.16,4.91-6.23c0.36-0.45,0.49-0.78,0.15-1.35c-0.68-1.14-0.76-2.49-0.97-3.78
				c-0.08-0.49-0.27-0.77-0.74-0.96c-1.88-0.76-2.81-2.25-3.13-4.19c-0.67-4.04-1.24-8.09-1.6-12.17c-0.15-1.76-0.39-3.52-0.54-5.28
				c-0.05-0.61-0.4-0.8-0.9-0.99c-6.07-2.3-9.66-9.32-7.92-15.48c1.98-7.03,9.37-11.01,16.55-8.93c2.21,0.64,4.15,1.66,5.59,3.5
				c0.43,0.55,0.61,0.53,0.86-0.15c1.05-2.94,2.83-5.33,5.54-6.94c6.72-4,15.89-0.48,18.4,7.06c1.43,4.29,0.8,8.35-1.63,12.08
				c-1.03,1.59-1.38,3.25-1.4,5.05c-0.01,0.78,0.1,1.57,0.08,2.35c-0.01,0.68,0.23,0.7,0.78,0.49c2.76-1.07,5.54-2.11,8.31-3.17
				c1.2-0.46,2.44-0.77,3.7-0.99c2.32-0.41,3.93,0.63,4.51,2.91C73.94,38.25,74.05,41.36,74.13,44.31z"/>
		</g>
		<g>
			<path class="st1" d="M67.68,19.77c-0.05,0.69,0.05,1.24-0.12,1.78c-0.25,0.81-0.77,1.3-1.61,1.36c-0.89,0.07-1.48-0.39-1.84-1.18
				c-0.23-0.52-0.23-1.07-0.24-1.62c-0.08-4-1.22-7.64-3.75-10.8c-0.71-0.89-1.58-1.61-2.53-2.24c-1.14-0.75-1.45-1.79-0.85-2.73
				c0.59-0.92,1.7-1.12,2.85-0.41c3.24,2.02,5.24,5.02,6.59,8.51C67.1,14.84,67.56,17.34,67.68,19.77z"/>
		</g>
		<g>
			<path class="st1" d="M3.52,27.8c0.02-1.42,0.77-2.32,1.85-2.35c1.05-0.02,1.84,0.78,1.93,2.05c0.3,4.27,2.14,7.7,5.52,10.33
				c1.03,0.8,1.25,1.86,0.63,2.73c-0.64,0.9-1.79,1.04-2.85,0.24c-3.97-2.97-6.21-6.96-6.93-11.84C3.6,28.54,3.56,28.11,3.52,27.8z"
				/>
		</g>
		<g>
			<g>
				<path class="st2" d="M52.28,44.52c0.01,2.28,0.15,5.53,0.03,8.78c-0.08,2.1-0.21,2.23-2.28,2.68c-1.62,0.35-3.28,0.45-4.92,0.62
					c-4.62,0.49-9.26,0.79-13.92,0.57c-1.07-0.05-2.15-0.09-3.19-0.42c-0.84-0.26-1.29-0.78-1.42-1.67
					c-0.32-2.3-0.76-4.58-1.03-6.89c-0.45-3.83-0.78-7.68-1.21-11.52c-0.1-0.9,0.2-1.15,1.08-1.29c5.54-0.87,11.1-1.55,16.67-2.13
					c2.42-0.25,4.83-0.62,7.24-0.99c2.32-0.35,2.56-0.2,2.64,2.14C52.11,37.46,52.17,40.5,52.28,44.52z"/>
			</g>
			<g>
				<path class="st2" d="M47.63,28.41c0.94-2.78,1.83-5.41,2.7-8.05c0.19-0.57,0.42-1.13,0.29-1.77c-0.16-0.76-0.56-1.26-1.3-1.46
					c-0.75-0.2-1.37,0.04-1.87,0.61c-0.36,0.4-0.5,0.91-0.67,1.4c-1,2.99-2,5.98-2.99,8.97c-0.32,0.97-1.15,1.28-2.08,0.77
					c-1.12-0.62-1.76-1.66-2.42-2.68c-3.13-4.83-0.93-12.11,4.22-14.06c5.64-2.14,12.14,2.34,12.22,8.39
					c0.03,2.62-0.7,4.92-2.6,6.78c-0.2,0.2-0.35,0.46-0.68,0.5C50.9,27.99,49.35,28.19,47.63,28.41z"/>
			</g>
			<g>
				<path class="st2" d="M25.24,31.28c0,0-2.9,0.26-4.21,1.71c-0.46,0.54-0.81,0.44-1.33,0.13c-5.53-3.29-5.81-11.08-0.69-15.13
					c3.59-2.83,10.11-1.74,12.1,1.04c1.62,2.25,2.3,4.79,2.57,7.49c0.16,2.59-0.69,3.7-1.36,3.72c-1.28,0.17-3.12,0.08-4.13-1.21
					c-1.27-1.62-2.73-3.09-4.11-4.62c-0.21-0.24-0.43-0.48-0.68-0.68c-0.75-0.61-1.72-0.61-2.4-0.03c-0.71,0.6-0.88,1.62-0.29,2.44
					c0.54,0.75,1.19,1.43,1.8,2.12C23.39,29.23,24.26,30.19,25.24,31.28z"/>
			</g>
			<g>
				<path class="st2" d="M70.3,44.06c-0.03,2.18-0.13,4.35-0.37,6.51c-0.07,0.59-0.23,0.86-0.92,0.7c-4.1-0.96-8.18-1.97-12.25-3.05
					c-0.46-0.12-0.59-0.36-0.59-0.8c-0.03-2.03-0.08-4.06-0.15-6.09c-0.01-0.42,0.14-0.63,0.52-0.78c3.63-1.39,7.22-2.9,10.92-4.1
					c1.98-0.64,2.07-0.52,2.37,1.54C70.11,40.01,70.26,42.03,70.3,44.06z"/>
			</g>
			<g>
				<path class="st2" d="M36.8,63.98c-1.61-0.1-3.25,0.03-4.83-0.46c-0.81-0.25-1.47-1.39-1.3-2.2c0.09-0.44,0.44-0.31,0.7-0.3
					c3.16,0.11,6.32,0.04,9.48-0.23c2.28-0.2,4.58-0.28,6.84-0.66c1.19-0.2,1.24-0.12,1.08,1.09c-0.02,0.14-0.02,0.29-0.04,0.43
					c-0.2,1.44-0.31,1.59-1.76,1.79C43.6,63.89,40.19,63.81,36.8,63.98z"/>
			</g>
		</g>
	</g>
</g>
</svg>
