<?xml version="1.0" encoding="utf-8"?>
<!-- Generator: Adobe Illustrator 24.1.3, SVG Export Plug-In . SVG Version: 6.00 Build 0)  -->
<svg version="1.1" id="Layer_1" xmlns="http://www.w3.org/2000/svg" xmlns:xlink="http://www.w3.org/1999/xlink" x="0px" y="0px"
	 viewBox="0 0 77.65 83.11" style="enable-background:new 0 0 77.65 83.11;" xml:space="preserve">
<style type="text/css">
	.st0{fill:#000001;}
	.st1{fill:#FF71A6;}
</style>
<g>
	<path class="st0" d="M35.71,74.8c0,0,0.08-3.02,0.12-4.53c0.01-0.52-0.12-0.75-0.66-0.75c-1.51,0-3.01-0.17-4.49-0.46
		c-0.59-0.12-0.67,0.24-0.81,0.64c-0.93,2.66-1.86,5.32-2.79,7.97c-0.19,0.55-0.38,1.1-0.81,1.53c-0.55,0.54-1.21,0.71-1.92,0.45
		c-0.75-0.27-1.16-0.84-1.2-1.65c-0.03-0.48,0.11-0.92,0.27-1.36c1.01-2.91,2.03-5.82,3.04-8.72c0.1-0.3,0.28-0.58,0.02-0.9
		c-1.07-1.29-1.16-2.89-1.29-4.45c-0.06-0.76-0.27-1.26-1.01-1.63c-1.6-0.78-2.35-2.22-2.53-3.93c-0.27-2.51-0.5-5.03-0.65-7.55
		c-0.2-3.45-0.31-6.9-0.41-10.36c-0.02-0.56-0.3-0.72-0.72-0.92c-5.61-2.57-7.99-7.88-7.6-13.26c0.38-5.2,4.78-10.17,10.09-11.14
		c5.07-0.93,9.66,0.19,13.01,4.51c0.36,0.47,0.51,0.43,0.72-0.08c0.62-1.49,1.45-2.85,2.55-4.03c5.1-5.42,13.31-5.3,18.4,0.26
		c4.41,4.82,4.7,12.07,0.59,17.3c-1.14,1.45-1.57,3.07-1.7,4.82c-0.06,0.81-0.02,1.63-0.08,2.44c-0.05,0.64,0.14,0.74,0.73,0.55
		c2.66-0.85,5.33-1.64,7.99-2.48c1.36-0.43,2.75-0.72,4.17-0.9c2.39-0.3,3.99,0.81,4.41,3.17c0.67,3.87,0.59,7.75,0.14,11.64
		c-0.25,2.19-0.44,4.4-1.22,6.49c-0.58,1.56-1.57,2.11-3.22,1.74c-4.06-0.9-7.98-2.31-11.93-3.59c-1.71-0.55-1.69-0.57-1.97,1.15
		c-0.11,0.69-0.27,1.37-0.46,2.04c-0.38,1.37-1.24,2.36-2.57,2.88c-0.46,0.18-0.69,0.44-0.74,0.94c-0.17,1.56-0.43,3.11-1.14,4.54
		c-0.18,0.36,0.05,0.68,0.16,1c1.11,2.97,2.22,5.93,3.33,8.9c0.15,0.41,0.32,0.82,0.4,1.24c0.18,0.97-0.33,1.85-1.2,2.17
		c-0.89,0.32-1.81-0.03-2.3-0.9c-0.21-0.38-0.36-0.79-0.51-1.2c-0.99-2.64-2-5.27-2.95-7.92c-0.25-0.69-0.55-0.94-1.31-0.85
		c-1.76,0.22-3.54,0.23-5.31,0.11c-0.57-0.04-0.62,0.18-0.64,0.63c-0.11,2.79-0.24,5.57-0.36,8.36c-0.02,0.41-0.01,0.82-0.09,1.21
		c-0.21,1.01-1.02,1.65-1.98,1.61c-0.95-0.05-1.69-0.78-1.72-1.85C35.47,78.05,35.71,74.8,35.71,74.8z"/>
	<g>
		<path class="st1" d="M40.85,59.03c-5.05-0.01-9.12-0.04-13.14-0.75c-1.7-0.3-2.17-0.76-2.35-2.47c-0.41-3.87-0.67-7.75-0.78-11.64
			c-0.06-2.23-0.13-4.47-0.24-6.7c-0.03-0.66,0.18-0.9,0.86-0.96c5.7-0.51,11.41-0.87,17.12-1.08c2.38-0.08,4.75-0.3,7.12-0.52
			c2.44-0.23,2.69-0.06,2.62,2.35c-0.15,4.62-0.29,9.23-0.53,13.84c-0.11,2.02-0.18,4.06-0.55,6.07c-0.14,0.74-0.48,1.16-1.21,1.26
			c-0.81,0.11-1.61,0.28-2.42,0.31C44.86,58.85,42.37,59.07,40.85,59.03z"/>
		<path class="st1" d="M56.65,24.15c0.06,2.51-1.51,4.86-3.81,6.83c-0.21,0.18-0.43,0.28-0.72,0.22c-0.78-0.15-1.56-0.14-2.34-0.09
			c-0.52,0.03-0.65-0.16-0.62-0.64c0.12-1.82,0.47-3.62,0.73-5.42c0.1-0.69,0.24-1.37,0.32-2.07c0.12-1.08-0.49-1.98-1.44-2.18
			c-1.01-0.21-2,0.36-2.23,1.46c-0.39,1.96-0.68,3.94-0.97,5.93c-0.13,0.91-0.38,1.79-0.61,2.68c-0.19,0.72-1.71,0.91-2.56,0.36
			c-1.27-0.82-2.02-2.06-2.67-3.36c-2.57-5.07,0.18-11.93,5.38-13.47C50.81,12.7,56.92,17.51,56.65,24.15z"/>
		<path class="st1" d="M31.38,32.17c-1.08,0.47-1.71-0.29-2.21-1.31c-1.01-2.03-2.04-4.05-3.06-6.07c-0.32-0.64-0.71-1.23-1.47-1.38
			c-0.7-0.14-1.33,0-1.82,0.57c-0.52,0.61-0.66,1.31-0.33,2.03c0.71,1.53,1.47,3.03,2.21,4.55c0.03,0.05,0.06,0.1,0.08,0.15
			c1,1.79,0.98,1.83-0.96,2.14c-1.07,0.17-2.12,0.37-2.91,1.23c-0.32,0.35-0.58,0.05-0.83-0.12c-2.62-1.75-3.71-4.3-4.07-7.35
			c-0.56-4.74,4.62-10.3,10.56-9.18c3.7,0.7,6.13,2.58,7.05,6.29c0.52,2.07,0.9,4.15,0.48,6.28C33.75,31.89,33.51,32.08,31.38,32.17
			z"/>
		<path class="st1" d="M69.77,45.42c-0.03,3.34-0.36,6.22-0.87,9.08c-0.09,0.49-0.15,0.87-0.87,0.65c-4.06-1.23-8.1-2.51-12.13-3.85
			c-0.4-0.14-0.54-0.34-0.52-0.76c0.1-2.06,0.18-4.12,0.23-6.18c0.01-0.44,0.21-0.61,0.58-0.73c3.71-1.16,7.38-2.49,11.18-3.38
			c2.31-0.54,1.95-0.58,2.22,1.67C69.74,43.23,69.81,44.54,69.77,45.42z"/>
		<path class="st1" d="M42.97,65.91c-3.96-0.19-7.96,0.12-11.88-0.66c-1.57-0.32-1.9-0.72-2.03-2.14c-0.05-0.53,0.07-0.75,0.64-0.68
			c4.89,0.54,9.8,0.43,14.7,0.31c0.72-0.02,1.45-0.07,2.17-0.15c0.64-0.06,0.76,0.24,0.64,0.78c-0.01,0.06-0.03,0.11-0.04,0.17
			c-0.45,2.26-0.49,2.3-2.8,2.38C43.9,65.92,43.44,65.91,42.97,65.91z"/>
	</g>
</g>
</svg>
