<?xml version="1.0" encoding="utf-8"?>
<!-- Generator: Adobe Illustrator 24.1.3, SVG Export Plug-In . SVG Version: 6.00 Build 0)  -->
<svg version="1.1" id="Layer_1" xmlns="http://www.w3.org/2000/svg" xmlns:xlink="http://www.w3.org/1999/xlink" x="0px" y="0px"
	 viewBox="0 0 57.87 80.29" style="enable-background:new 0 0 57.87 80.29;" xml:space="preserve">
<style type="text/css">
	.st0{fill:#FFFFFF;}
	.st1{fill:#000001;}
	.st2{fill:#7FC3FF;}
</style>
<g>
	<path class="st0" d="M57.3,36.62c0.86-3.63,0.71-7.38-0.2-11.07c-0.87-3.52-3.41-5.53-7.16-5.65c-0.53-0.02-1.04-0.02-1.53-0.02
		c0.57-1.82,0.66-3.76,0.24-5.79c-0.73-3.53-3.09-6.27-6.47-7.51c-2.15-0.79-4.46-0.89-6.6-0.33C35.1,5.21,34.49,4.3,33.73,3.5
		c-2.36-2.47-5.74-3.77-9.02-3.45c-3.33,0.32-6.27,2.22-8.3,5.35c-0.81,1.25-1.38,2.57-1.72,3.96c-1.01-0.15-2.11-0.18-3.26,0.05
		c-2.93,0.58-5.34,2.25-6.79,4.7c-1.49,2.52-1.79,5.55-0.84,8.53c0.33,1.04,0.8,2,1.4,2.88c-2.98,1.09-4.78,3.43-5.09,6.64
		c-0.26,2.68,0.06,5.21,0.42,7.34l0.01,0.03c0.28,1.68,0.4,3.7,1.59,5.46c1.94,2.87,3.5,1.32,4.2,25.2
		c0.16,5.33,3.17,8.41,8.48,9.43c0.35,0.07,0.69,0.12,1.03,0.16c3.06,0.36,6.14,0.42,8.85,0.48c0.51,0.01,1.01,0.01,1.51,0.01
		c1.49,0,2.97-0.04,4.41-0.08c0.69-0.02,1.37-0.04,2.06-0.05c1.05-0.02,2.13-0.02,3.18-0.02c2.63,0.01,5.35,0.01,8.14-0.33
		c6.02-0.73,9.52-4.23,10.13-10.13c0.21-2.08,0.77-13.4,0.8-14.59C55.49,35.73,56.13,41.52,57.3,36.62z"/>
	<g>
		<g>
			<path class="st1" d="M41.14,23.98c1.73-0.15,3.47-0.28,5.19-0.46c1.16-0.12,2.32-0.14,3.48-0.11c2.13,0.07,3.35,0.93,3.86,2.98
				c0.77,3.14,0.85,6.33,0.18,9.49c-0.51,2.41-2.12,3.53-5.07,3.89c-4.14,0.5-8.31,0.81-12.45,1.37c-2.44,0.33-4.92,0.31-7.36,0.69
				c-5.9,0.92-11.84,1.5-17.75,2.29c-1.23,0.17-2.47,0.3-3.7,0.44c-1.03,0.11-1.8-0.27-2.3-1.21c-0.73-1.39-0.98-2.91-1.24-4.42
				c-0.35-2.12-0.6-4.25-0.39-6.42c0.19-1.96,1.23-3.19,3.1-3.78c1.81-0.56,3.69-0.77,5.54-1.16c0.25-0.05,0.5-0.1,0.79-0.16
				c-0.17-0.39-0.53-0.38-0.78-0.51c-2.33-1.18-4.27-2.73-5.09-5.32c-1.3-4.07,0.88-7.91,4.96-8.72c1.53-0.3,3,0.1,4.42,0.66
				c0.45,0.18,0.9,0.39,1.43,0.62c-0.37-2.51,0.09-4.78,1.41-6.83c3.35-5.19,8.9-4.44,11.82-1.38c1.24,1.29,1.73,2.93,1.93,4.67
				c0.03,0.23,0.04,0.46,0.06,0.69c0.38,0.09,0.54-0.23,0.74-0.39C37.63,8,44.08,9.42,45.19,14.81c0.68,3.28-0.51,5.92-2.97,8.08
				c-0.37,0.32-0.76,0.61-1.14,0.91C41.11,23.86,41.13,23.92,41.14,23.98z"/>
		</g>
		<g>
			<path class="st1" d="M49.19,46.32c0.38-0.01,0.77-0.03,1.13,0.05c0.78,0.17,1.25,0.61,1.3,1.48c0.2,3.52-0.3,7.01-0.44,10.52
				c-0.07,1.71-0.17,3.42-0.23,5.13c-0.06,1.94-0.15,3.89-0.35,5.82c-0.45,4.32-2.71,6.48-7.05,7c-3.65,0.44-7.31,0.25-10.97,0.32
				c-2.61,0.05-5.23,0.17-7.84,0.11c-2.84-0.06-5.69-0.12-8.52-0.46c-0.26-0.03-0.52-0.07-0.77-0.12c-3.69-0.71-5.36-2.48-5.64-6.23
				c-0.31-4.17-0.49-8.34-0.72-12.52c-0.14-2.49-0.33-4.98-0.36-7.48c-0.01-0.56,0.1-1.09,0.21-1.62c0.18-0.81,1.08-1.36,2.16-1.38
				c4.65-0.08,9.3-0.16,13.95-0.22c1.8-0.02,5.4,0,5.4,0S42.94,46.43,49.19,46.32z"/>
		</g>
		<g>
			<g>
				<path class="st2" d="M42.54,36.76c-1.76,0.17-3.53,0.33-5.29,0.52c-0.41,0.04-0.61-0.01-0.66-0.5
					c-0.25-2.63-0.54-5.26-0.85-7.88c-0.07-0.58,0.12-0.74,0.68-0.79c3.97-0.31,7.93-0.66,11.89-0.98c0.38-0.03,0.75-0.03,1.13-0.02
					c0.35,0.01,0.58,0.14,0.64,0.56c0.33,2.28,0.5,4.56,0.18,6.85c-0.18,1.27-0.48,1.53-1.73,1.67
					C46.53,36.39,44.54,36.56,42.54,36.76C42.54,36.75,42.54,36.76,42.54,36.76z"/>
			</g>
			<g>
				<path class="st2" d="M7.41,34.63c-0.17-2.31-0.16-2.35,2.08-2.77c3.25-0.61,6.5-1.19,9.75-1.79c0.36-0.07,0.59-0.09,0.65,0.39
					c0.37,2.67,0.77,5.34,1.18,8c0.08,0.49-0.02,0.74-0.58,0.8c-3.77,0.43-7.55,0.88-11.32,1.37c-0.73,0.09-1.05-0.09-1.15-0.83
					C7.79,38.06,7.32,36.34,7.41,34.63z"/>
			</g>
			<g>
				<path class="st2" d="M26.62,23.2c-0.69-0.82-1.05-1.75-1.52-2.6c-1.16-2.11-2.44-4.15-3.14-6.48c-0.5-1.67-0.35-3.26,0.56-4.77
					c1.01-1.67,2.39-2.38,3.95-2.02c1.63,0.38,2.64,1.62,2.82,3.54c0.13,1.31-0.05,2.6-0.33,3.88
					C28.34,17.59,27.48,20.35,26.62,23.2z"/>
			</g>
			<g>
				<path class="st2" d="M32.84,37.12c0.07,0.46-0.13,0.59-0.58,0.64c-2.28,0.25-4.55,0.53-6.82,0.82
					c-0.32,0.04-0.47-0.01-0.52-0.37c-0.41-2.75-0.84-5.5-1.28-8.25c-0.07-0.45,0.14-0.56,0.51-0.59c2.37-0.24,4.73-0.48,7.1-0.74
					c0.4-0.04,0.58,0.05,0.63,0.47C32.18,31.77,32.52,34.45,32.84,37.12z"/>
			</g>
			<g>
				<path class="st2" d="M30.47,24.2c1.34-3.46,2.67-6.73,4.9-9.53c0.55-0.69,1.22-1.25,2.13-1.41c1.3-0.23,2.55-0.1,3.38,1.04
					c0.95,1.32,0.88,2.78,0.18,4.2c-0.43,0.88-1.13,1.55-1.94,2.08C36.52,22.28,33.68,23.4,30.47,24.2z"/>
			</g>
			<g>
				<path class="st2" d="M22.26,24.53c-2.82-0.18-5.44,0.08-7.9-0.81c-1.82-0.65-3.38-1.72-3.69-3.89
					c-0.33-2.37,1.21-3.77,3.52-3.16c1.34,0.35,2.53,1,3.51,2C19.41,20.39,20.63,22.46,22.26,24.53z"/>
			</g>
			<g>
				<path class="st2" d="M37.31,65.38c0,0,0.01-9.53-0.01-14.29c0-0.59,0.05-0.84,0.77-0.84c3.02,0,6.04-0.07,9.06-0.15
					c0.6-0.02,0.72,0.18,0.68,0.73c-0.32,4.46-0.56,8.92-0.72,13.39c-0.07,1.91-0.12,3.83-0.42,5.73c-0.23,1.45-1.11,2.21-2.44,2.48
					c-2,0.41-4.02,0.56-6.06,0.57c-0.44,0-0.52-0.16-0.55-0.54C37.39,70.09,37.31,65.38,37.31,65.38z"/>
			</g>
			<g>
				<path class="st2" d="M21.28,50.49c0.5-0.01,0.71,0.06,0.73,0.64c0.22,5.04,0.48,10.08,0.74,15.12c0.1,2,0.21,4,0.35,5.99
					c0.04,0.62-0.14,0.8-0.75,0.75c-1.97-0.16-3.94-0.21-5.9-0.4c-2.05-0.19-2.67-0.88-2.83-3.02c-0.16-2.2-0.27-4.4-0.39-6.6
					c-0.22-3.82-0.42-7.64-0.65-11.46c-0.04-0.61,0.02-0.94,0.79-0.89C14.66,50.68,19.95,50.52,21.28,50.49z"/>
			</g>
			<g>
				<path class="st2" d="M33.65,57.28c0,0,0.06,9.93,0.09,14.9c0,0.64-0.12,0.83-0.79,0.82c-1.71-0.04-3.43-0.01-5.14,0.03
					c-0.54,0.01-0.82-0.04-0.84-0.71c-0.11-2.81-0.3-5.62-0.46-8.43c-0.23-4.2-0.44-8.41-0.7-12.61c-0.04-0.7,0.17-0.85,0.83-0.85
					c2,0.01,4.01-0.03,6.01-0.12c0.72-0.03,0.89,0.21,0.87,0.87C33.48,53.21,33.65,57.28,33.65,57.28z"/>
			</g>
		</g>
	</g>
</g>
</svg>
