<?xml version="1.0" encoding="utf-8"?>
<!-- Generator: Adobe Illustrator 24.1.3, SVG Export Plug-In . SVG Version: 6.00 Build 0)  -->
<svg version="1.1" id="Layer_1" xmlns="http://www.w3.org/2000/svg" xmlns:xlink="http://www.w3.org/1999/xlink" x="0px" y="0px"
	 viewBox="0 0 54.42 81.21" style="enable-background:new 0 0 54.42 81.21;" xml:space="preserve">
<style type="text/css">
	.st0{fill:#FFFFFF;}
	.st1{fill:#000001;}
	.st2{fill:#57FF54;}
	.st3{fill:#010102;}
</style>
<g>
	<path class="st0" d="M52.77,55.12c-0.03-0.22-0.06-0.44-0.08-0.66c-0.38-3.13-2.85-6.25-6.44-6.52c0-0.13,0-0.27,0-0.4
		c0.01-1.11,0.01-2.21,0.03-3.32c0.07-3.79-2.13-5.36-4.17-6.01c0.34-0.29,0.66-0.62,0.97-0.98l0.71-0.84
		c2.54-3,5.16-6.11,7.48-9.48c2.46-3.57,3.49-7.55,3.05-11.83c-0.14-1.41-0.53-2.83-1.15-4.24c-2.1-4.77-6.72-8.66-12.07-10.16
		c-5.32-1.49-10.82-0.52-15.48,2.74c-3.06,2.14-5.56,4.94-7.64,8.56c-3.13,5.44-4.87,10.26-5.48,15.15
		c-0.27,2.22,0.61,4.21,2.44,5.44c0.83,0.56,1.61,1.29,2.39,2.23c0.6,0.72,1.05,1.4,1.36,2.07c-2.19,0.2-4.38,0.59-6.55,1.17
		c-3.55,0.94-5.2,2.9-5.51,6.53c-0.1,1.23-0.22,2.73-0.26,4.35l-0.14,0.02c-3.9,0.7-5.76,2.78-6.03,6.75
		c-0.25,3.64-0.27,7.59-0.05,12.09c0.21,4.36,2.34,7.67,6.13,9.57c2.05,1.03,4.27,1.84,6.61,2.42c3.89,0.97,8.16,1.44,13.02,1.44
		c0.42,0,0.85,0,1.29-0.01c6.38-0.11,12.79-1.4,19.06-3.85c3.18-1.24,5.16-3.6,5.88-6.99c0.91-4.32,0.92-8.63,0.86-12.67
		C52.99,56.76,52.87,55.89,52.77,55.12z"/>
	<g>
		<g>
			<path class="st1" d="M10.14,44.88c0.18-2.16,0.83-2.88,2.9-3.43c2.94-0.78,5.92-1.2,8.95-1.22c0.56,0,0.73-0.15,0.75-0.72
				c0.09-2.71-1.02-4.94-2.7-6.96c-0.92-1.1-1.93-2.08-3.12-2.89c-0.74-0.5-1.03-1.2-0.92-2.1c0.62-5,2.55-9.52,5.03-13.83
				c1.68-2.93,3.81-5.48,6.61-7.43c8.92-6.23,19.24-1.03,22.31,5.95c0.45,1.02,0.76,2.08,0.87,3.18c0.35,3.46-0.48,6.61-2.45,9.48
				c-2.43,3.53-5.23,6.78-7.99,10.06c-1.16,1.37-2.5,1.75-4.24,1.58c-2.13-0.21-4.19,0.24-6.1,1.24c-0.99,0.52-1.7,1.26-1.95,2.43
				c2.77,0.12,5.5,0.17,8.2,0.53c1.5,0.2,2.99,0.39,4.46,0.75c1.54,0.38,2.03,1.08,2,2.67c-0.04,2.15-0.03,4.3-0.06,6.45
				c-0.01,0.47,0.1,0.68,0.62,0.69c0.75,0.01,1.51,0.19,2.26,0.15c2.12-0.1,3.42,1.84,3.61,3.44c0.11,0.95,0.28,1.9,0.29,2.86
				c0.07,3.98,0.05,7.95-0.78,11.88c-0.46,2.18-1.62,3.62-3.72,4.44c-5.74,2.24-11.67,3.51-17.84,3.61c-4.52,0.08-9-0.23-13.4-1.32
				c-2.03-0.5-4-1.21-5.88-2.15c-2.73-1.37-4.04-3.53-4.19-6.6c-0.19-3.9-0.23-7.78,0.04-11.67c0.17-2.38,0.81-3.12,3.14-3.53
				c0.71-0.13,2.43-0.26,3.16-0.31L10.14,44.88z"/>
		</g>
		<g>
			<g>
				<path class="st2" d="M45.53,60.71c0.06,2.59-0.09,5.16-0.55,7.72c-0.19,1.03-0.68,1.61-1.66,1.99
					c-6.7,2.55-13.59,3.62-20.76,3.12c-3.82-0.27-7.57-0.76-11.15-2.15c-0.14-0.05-0.27-0.11-0.41-0.15
					c-2.3-0.73-3.46-2.14-3.49-4.71c-0.03-3.08-0.09-6.15,0.03-9.23c0.03-0.74,0.3-1,1-1.07c2.43-0.23,4.85-0.51,7.27-0.76
					c5.61-0.58,11.22-0.95,16.86-0.72c4.03,0.16,8.05,0.48,12.07,0.72c0.5,0.03,0.6,0.31,0.66,0.73
					C45.63,57.69,45.48,59.2,45.53,60.71z"/>
			</g>
			<g>
				<path class="st2" d="M28.83,34.47c-0.16-1.4-0.29-2.78-0.07-4.17c0.81-5.14,2.37-10,5.27-14.37c0.32-0.48,0.52-0.95-0.02-1.38
					c-0.52-0.43-1-0.19-1.37,0.24c-0.37,0.44-0.71,0.92-1.01,1.42c-2.75,4.45-4.48,9.31-5.82,14.33c-0.2,0.75-0.34,1.53-0.82,2.32
					c-0.33-0.5-0.62-0.95-0.91-1.4c-1.07-1.68-2.31-3.21-3.9-4.42c-0.32-0.25-0.55-0.48-0.43-0.94c1.56-5.87,3.84-11.37,8.38-15.6
					c4.82-4.49,11.62-4.44,16.3-0.02c3.26,3.09,3.84,6.91,1.66,10.82c-1.49,2.68-3.4,5.05-5.33,7.4c-0.49,0.6-0.99,1.18-1.5,1.76
					c-1.24,1.41-2.61,2.32-4.68,2.19c-1.6-0.1-3.15,0.67-4.63,1.37C29.59,34.17,29.27,34.43,28.83,34.47z"/>
			</g>
			<g>
				<path class="st2" d="M38.77,50.25c0.02,0.55-0.11,0.73-0.73,0.69c-4.64-0.31-9.29-0.36-13.94-0.2
					c-3.16,0.11-6.32,0.42-9.46,0.78c-0.64,0.07-0.88,0-0.86-0.71c0.05-1.48,0.07-2.96,0.16-4.44c0.05-0.81,0.46-1.2,1.16-1.41
					c1.14-0.34,2.32-0.45,3.49-0.53c4.95-0.31,9.91-0.44,14.87-0.37c1.39,0.02,2.78,0.12,4.15,0.35c0.93,0.15,1.28,0.57,1.27,1.48
					c0,0.35-0.01,0.7-0.01,1.05C38.87,47.29,38.74,49.5,38.77,50.25z"/>
			</g>
		</g>
		<g>
			<path class="st3" d="M21.63,64.09c0.02,0.68-0.14,1.33-0.36,1.96c-0.22,0.61-0.68,1-1.35,1.07c-0.66,0.07-1.19-0.17-1.59-0.69
				c-0.82-1.08-0.9-3.68-0.15-4.81c0.68-1.02,2.05-1.03,2.75,0.01C21.44,62.36,21.59,63.22,21.63,64.09z"/>
		</g>
		<g>
			<path class="st3" d="M25.97,63.07c-0.01-0.59,0.07-1.16,0.31-1.7c0.28-0.62,0.71-1.07,1.43-1.11c0.7-0.04,1.26,0.28,1.59,0.88
				c0.8,1.5,0.83,3.07,0.1,4.58c-0.58,1.19-2.26,1.08-2.98-0.14C25.96,64.8,25.98,63.93,25.97,63.07z"/>
		</g>
	</g>
</g>
</svg>
