<?xml version="1.0" encoding="utf-8"?>
<!-- Generator: Adobe Illustrator 24.1.3, SVG Export Plug-In . SVG Version: 6.00 Build 0)  -->
<svg version="1.1" id="Layer_1" xmlns="http://www.w3.org/2000/svg" xmlns:xlink="http://www.w3.org/1999/xlink" x="0px" y="0px"
	 viewBox="0 0 299.95 117.6" style="enable-background:new 0 0 299.95 117.6;" xml:space="preserve">
<style type="text/css">
	.st0{fill:#FFFFFF;}
	.st1{fill:#231F20;}
	.st2{fill:#FFD800;}
	.st3{fill:#00A1E1;}
	.st4{fill:#F0442D;}
	.st5{fill:#2FB444;}
	.st6{fill:#EF559E;}
</style>
<g>
	<path class="st0" d="M31.92,93.17c-12.44,0-22.56-10.12-22.56-22.56c0-12.44,10.12-22.56,22.56-22.56s22.56,10.12,22.56,22.56
		C54.48,83.05,44.36,93.17,31.92,93.17z M31.92,67.05c-1.96,0-3.56,1.6-3.56,3.56c0,1.96,1.6,3.56,3.56,3.56s3.56-1.6,3.56-3.56
		C35.48,68.65,33.88,67.05,31.92,67.05z"/>
</g>
<g>
	<path class="st0" d="M30.15,87.72c-1.29,0-2.6-0.17-3.92-0.51c-0.77-0.19-1.42-0.4-2.01-0.63c-0.77-0.31-1.27-0.54-1.58-0.69
		l-0.24-0.12c-2.42-1.29-4.28-3-5.54-5.11c-1.67-2.8-2.15-5.99-1.38-9c0.45-1.8,1.4-3.56,2.74-5l0.16-0.16
		c1.27-1.3,2.79-2.25,4.43-2.83l0.27-1.08c0.8-3.13,2.76-5.75,5.52-7.39c2.74-1.63,5.95-2.1,9.03-1.32c3.2,0.81,5.84,2.83,7.46,5.7
		c1.53,2.69,1.96,5.87,1.19,8.93l-1.94,7.61c-0.67,2.61-1.82,4.86-3.43,6.7c-1.82,2.1-4.19,3.61-6.84,4.36
		C32.79,87.55,31.48,87.72,30.15,87.72z M30.63,71.22c0.71,0.5,1.5,0.87,2.34,1.08c0.28,0.07,0.57,0.12,0.86,0.16
		c-0.16-0.55-0.38-1.07-0.66-1.55c-0.39-0.64-0.8-1.1-1.14-1.41L30.63,71.22z M30.29,70.96c0,0,0.01,0.01,0.01,0.01l1.15-1.9
		c-0.07-0.04-0.12-0.07-0.13-0.08L30.29,70.96z M29.56,70.3c0.12,0.12,0.24,0.24,0.37,0.36l0.44-1.68L29.56,70.3z M28.59,69.01
		c0.2,0.35,0.44,0.68,0.7,0.99l0.58-1.27c-0.27,0.02-0.59,0.07-0.94,0.16C28.81,68.93,28.7,68.96,28.59,69.01z"/>
</g>
<g>
	<path class="st0" d="M86.84,86.01c-12.44,0-22.56-10.12-22.56-22.56c0-12.44,10.12-22.56,22.56-22.56
		c12.44,0,22.56,10.12,22.56,22.56C109.4,75.89,99.28,86.01,86.84,86.01z M86.84,59.88c-1.96,0-3.56,1.6-3.56,3.56
		c0,1.96,1.6,3.56,3.56,3.56c1.96,0,3.56-1.6,3.56-3.56C90.4,61.48,88.8,59.88,86.84,59.88z"/>
</g>
<g>
	<path class="st0" d="M86.83,80.82c-1.89,0-3.76-0.3-5.55-0.89c-1.79-0.59-3.5-1.47-5.03-2.63c-1.53-1.15-2.84-2.52-3.91-4.08
		c-0.67-0.96-1.24-1.99-1.69-3.05c-0.47-1.11-0.81-2.19-1.03-3.25c-0.24-1.11-0.36-2.29-0.36-3.48c0-1.17,0.13-2.35,0.37-3.5
		c0.22-1.04,0.57-2.15,1.03-3.23c0.47-1.1,1.05-2.15,1.73-3.12c1.04-1.52,2.39-2.91,3.93-4.05c1.45-1.08,3.12-1.96,4.93-2.57
		c3.17-1.05,6.57-1.19,9.8-0.4c1.38,0.34,2.72,0.84,3.98,1.5c1.28,0.67,2.45,1.48,3.5,2.4c1.05,0.91,2.01,2,2.83,3.21
		c2.01,2.92,3.07,6.29,3.07,9.75c0,1.75-0.27,3.49-0.81,5.17c-0.54,1.68-1.32,3.23-2.31,4.66c-0.8,1.15-1.74,2.21-2.8,3.14
		c-1.06,0.94-2.23,1.75-3.48,2.4c-1.16,0.61-2.46,1.11-3.84,1.46C89.74,80.64,88.28,80.82,86.83,80.82z M85.67,64.42
		c0.06,0.08,0.16,0.2,0.31,0.33c0.09,0.08,0.2,0.14,0.23,0.16c0.11,0.06,0.21,0.09,0.31,0.12c0.16,0.04,0.34,0.05,0.51,0.02
		l-0.22-1.03l-1.09-1.63c0,0-0.01,0.01-0.01,0.01c-0.03,0.04-0.12,0.18-0.19,0.39c-0.07,0.23-0.11,0.44-0.11,0.65
		C85.42,63.86,85.56,64.24,85.67,64.42z M86.96,64.25l0.14,0.79c0.05-0.01,0.11-0.02,0.16-0.04c0.04-0.01,0.09-0.03,0.16-0.07
		L86.96,64.25z M86.93,64.07l0.53,0.84c0.06-0.03,0.12-0.07,0.19-0.12c0.1-0.07,0.24-0.22,0.34-0.36c0.05-0.07,0.11-0.19,0.13-0.25
		c0.01-0.02,0.05-0.12,0.09-0.29c0.02-0.1,0.04-0.27,0.04-0.44c0-0.16-0.02-0.33-0.05-0.49c-0.02-0.12-0.06-0.2-0.06-0.2
		c-0.06-0.13-0.11-0.23-0.16-0.31c-0.09-0.13-0.21-0.24-0.32-0.33c-0.13-0.1-0.29-0.18-0.45-0.23c-0.2-0.07-0.52-0.06-0.68-0.03
		L86.93,64.07z M85.8,62.29l0.96,1.52l-0.41-1.9c-0.04,0.02-0.09,0.04-0.15,0.07c-0.15,0.08-0.26,0.17-0.31,0.21
		C85.87,62.21,85.84,62.25,85.8,62.29z"/>
</g>
<g>
	<path class="st0" d="M137.05,102.14c-13.06,0-23.68-10.62-23.68-23.68s10.62-23.68,23.68-23.68c13.06,0,23.68,10.62,23.68,23.68
		S150.11,102.14,137.05,102.14z M137.05,73.78c-2.58,0-4.68,2.1-4.68,4.68s2.1,4.68,4.68,4.68c2.58,0,4.68-2.1,4.68-4.68
		S139.63,73.78,137.05,73.78z"/>
</g>
<g>
	<g>
		<g>
			<path class="st0" d="M152.39,100.32l-9.3-8.07c-1.25,0.14-2.53,0.07-3.78-0.21c-1.23,0.72-2.6,1.22-4.05,1.45
				c-3.25,0.53-6.48-0.32-9.06-2.4l-0.26-0.22c-2.22-1.93-3.63-4.45-4.07-7.31l-1.41-8.95c-0.36-2.28-0.05-4.58,0.9-6.67
				c0.49-1.07,1.12-2.04,1.87-2.89l-2.01-12.76l9.9,8.88c1.14-0.07,2.27,0.02,3.36,0.28c1.25-0.74,2.64-1.25,4.12-1.48
				c1.48-0.23,2.97-0.18,4.44,0.16c1.59,0.37,3.04,1.05,4.32,2.02c1.16,0.87,2.14,1.94,2.92,3.2c0.84,1.39,1.36,2.81,1.6,4.31
				l1.48,9.41c0.03,0.25,0.08,0.67,0.11,1.22l0.02,0.37l-0.01,0.37c-0.05,1.88-0.54,3.67-1.46,5.32c-0.41,0.74-0.9,1.44-1.47,2.07
				L152.39,100.32z M135.47,76.97c0.04,0.04,0.08,0.07,0.12,0.1l2.18-0.34l0.34-0.42c-0.02-0.02-0.05-0.04-0.07-0.06l-2.35,0.37
				C135.62,76.73,135.54,76.85,135.47,76.97z"/>
		</g>
	</g>
	<g>
		<g>
			<path class="st0" d="M152.39,100.32l-9.3-8.07c-1.25,0.14-2.53,0.07-3.78-0.21c-1.23,0.72-2.6,1.22-4.05,1.45
				c-3.25,0.53-6.48-0.32-9.06-2.4l-0.26-0.22c-2.22-1.93-3.63-4.45-4.07-7.31l-1.41-8.95c-0.36-2.28-0.05-4.58,0.9-6.67
				c0.49-1.07,1.12-2.04,1.87-2.89l-2.01-12.76l9.9,8.88c1.14-0.07,2.27,0.02,3.36,0.28c1.25-0.74,2.64-1.25,4.12-1.48
				c1.48-0.23,2.97-0.18,4.44,0.16c1.59,0.37,3.04,1.05,4.32,2.02c1.16,0.87,2.14,1.94,2.92,3.2c0.84,1.39,1.36,2.81,1.6,4.31
				l1.48,9.41c0.03,0.25,0.08,0.67,0.11,1.22l0.02,0.37l-0.01,0.37c-0.05,1.88-0.54,3.67-1.46,5.32c-0.41,0.74-0.9,1.44-1.47,2.07
				L152.39,100.32z M135.47,76.97c0.04,0.04,0.08,0.07,0.12,0.1l2.18-0.34l0.34-0.42c-0.02-0.02-0.05-0.04-0.07-0.06l-2.35,0.37
				C135.62,76.73,135.54,76.85,135.47,76.97z"/>
		</g>
	</g>
	<g>
		<g>
			<path class="st0" d="M152.39,100.32l-9.3-8.07c-1.25,0.14-2.53,0.07-3.78-0.21c-1.23,0.72-2.6,1.22-4.05,1.45
				c-3.25,0.53-6.48-0.32-9.06-2.4l-0.26-0.22c-2.22-1.93-3.63-4.45-4.07-7.31l-1.41-8.95c-0.36-2.28-0.05-4.58,0.9-6.67
				c0.49-1.07,1.12-2.04,1.87-2.89l-2.01-12.76l9.9,8.88c1.14-0.07,2.27,0.02,3.36,0.28c1.25-0.74,2.64-1.25,4.12-1.48
				c1.48-0.23,2.97-0.18,4.44,0.16c1.59,0.37,3.04,1.05,4.32,2.02c1.16,0.87,2.14,1.94,2.92,3.2c0.84,1.39,1.36,2.81,1.6,4.31
				l1.48,9.41c0.03,0.25,0.08,0.67,0.11,1.22l0.02,0.37l-0.01,0.37c-0.05,1.88-0.54,3.67-1.46,5.32c-0.41,0.74-0.9,1.44-1.47,2.07
				L152.39,100.32z M135.47,76.97c0.04,0.04,0.08,0.07,0.12,0.1l2.18-0.34l0.34-0.42c-0.02-0.02-0.05-0.04-0.07-0.06l-2.35,0.37
				C135.62,76.73,135.54,76.85,135.47,76.97z"/>
		</g>
	</g>
</g>
<g>
	<path class="st0" d="M182.98,92.24c-12.69,0-23.01-10.32-23.01-23.01s10.32-23.01,23.01-23.01c12.69,0,23.01,10.32,23.01,23.01
		S195.67,92.24,182.98,92.24z M182.98,65.22c-2.21,0-4.01,1.8-4.01,4.01s1.8,4.01,4.01,4.01c2.21,0,4.01-1.8,4.01-4.01
		S185.19,65.22,182.98,65.22z"/>
</g>
<g>
	<g>
		<path class="st0" d="M178.76,86.45c-1.07,0-2.15-0.15-3.2-0.44L175.53,86c-2.17-0.61-4.09-1.76-5.58-3.35
			c-1.61-1.72-2.66-3.89-3.01-6.28c-0.22-1.53-0.15-3.09,0.2-4.7l0.03-0.15l2.23-9.64c0.64-2.69,1.95-5.03,3.81-6.83
			c0.67-0.64,1.39-1.21,2.17-1.69l3.32-14.41l7.25,12.88c0.89,0.25,1.76,0.59,2.6,1.03c2.26,1.17,4.19,3.06,5.54,5.43l5.06,9.03
			c0.72,1.43,1.17,2.78,1.38,4.12c0.35,2.48-0.04,4.87-1.11,6.99c-0.99,1.96-2.52,3.62-4.45,4.8c-1.42,0.88-2.98,1.45-4.62,1.68
			c-1.73,0.24-3.46,0.1-5.09-0.41c-1.45,0.96-3.07,1.58-4.8,1.83C179.89,86.41,179.33,86.45,178.76,86.45z"/>
	</g>
</g>
<g>
	<path class="st0" d="M236.55,91.39c-13.06,0-23.68-10.62-23.68-23.68s10.62-23.68,23.68-23.68s23.68,10.62,23.68,23.68
		S249.61,91.39,236.55,91.39z M236.55,63.03c-2.58,0-4.68,2.1-4.68,4.68s2.1,4.68,4.68,4.68s4.68-2.1,4.68-4.68
		S239.14,63.03,236.55,63.03z"/>
</g>
<g>
	<g>
		<g>
			<path class="st0" d="M241.15,86.3c-0.52,0-1.05-0.03-1.57-0.1c-1.61-0.22-3.07-0.71-4.41-1.48c-0.16-0.09-0.31-0.18-0.47-0.28
				c-0.22,0.07-0.45,0.13-0.68,0.19c-1.41,0.35-2.93,0.44-4.44,0.24c-3.2-0.42-6.04-2.06-7.99-4.62l0,0
				c-1.96-2.56-2.8-5.73-2.37-8.93l1.47-11.08c0.43-3.21,2.07-6.04,4.62-7.99c2.54-1.95,5.71-2.8,8.91-2.37
				c1.74,0.23,3.38,0.83,4.82,1.75c1.64-0.5,3.38-0.66,5.14-0.42c1.45,0.19,2.89,0.66,4.22,1.39c1.56,0.87,2.83,1.98,3.82,3.33
				c0.63,0.84,1.14,1.75,1.53,2.71c0.38,0.94,0.63,1.93,0.77,2.95c0.14,1.02,0.14,2.08,0,3.11l-1.48,11.13
				c-0.22,1.57-0.71,3.03-1.48,4.38c-0.83,1.45-1.9,2.67-3.2,3.65C246.3,85.45,243.77,86.3,241.15,86.3z M248.04,75.13l0,0.03
				C248.04,75.15,248.04,75.14,248.04,75.13z"/>
		</g>
	</g>
	<g>
		<g>
			<path class="st0" d="M241.15,86.3c-0.52,0-1.05-0.03-1.57-0.1c-1.61-0.22-3.07-0.71-4.41-1.48c-0.16-0.09-0.31-0.18-0.47-0.28
				c-0.22,0.07-0.45,0.13-0.68,0.19c-1.41,0.35-2.93,0.44-4.44,0.24c-3.2-0.42-6.04-2.06-7.99-4.62l0,0
				c-1.96-2.56-2.8-5.73-2.37-8.93l1.47-11.08c0.43-3.21,2.07-6.04,4.62-7.99c2.54-1.95,5.71-2.8,8.91-2.37
				c1.74,0.23,3.38,0.83,4.82,1.75c1.64-0.5,3.38-0.66,5.14-0.42c1.45,0.19,2.89,0.66,4.22,1.39c1.56,0.87,2.83,1.98,3.82,3.33
				c0.63,0.84,1.14,1.75,1.53,2.71c0.38,0.94,0.63,1.93,0.77,2.95c0.14,1.02,0.14,2.08,0,3.11l-1.48,11.13
				c-0.22,1.57-0.71,3.03-1.48,4.38c-0.83,1.45-1.9,2.67-3.2,3.65C246.3,85.45,243.77,86.3,241.15,86.3z M248.04,75.13l0,0.03
				C248.04,75.15,248.04,75.14,248.04,75.13z"/>
		</g>
	</g>
	<g>
		<g>
			<path class="st0" d="M241.15,86.3c-0.52,0-1.05-0.03-1.57-0.1c-1.61-0.22-3.07-0.71-4.41-1.48c-0.16-0.09-0.31-0.18-0.47-0.28
				c-0.22,0.07-0.45,0.13-0.68,0.19c-1.41,0.35-2.93,0.44-4.44,0.24c-3.2-0.42-6.04-2.06-7.99-4.62l0,0
				c-1.96-2.56-2.8-5.73-2.37-8.93l1.47-11.08c0.43-3.21,2.07-6.04,4.62-7.99c2.54-1.95,5.71-2.8,8.91-2.37
				c1.74,0.23,3.38,0.83,4.82,1.75c1.64-0.5,3.38-0.66,5.14-0.42c1.45,0.19,2.89,0.66,4.22,1.39c1.56,0.87,2.83,1.98,3.82,3.33
				c0.63,0.84,1.14,1.75,1.53,2.71c0.38,0.94,0.63,1.93,0.77,2.95c0.14,1.02,0.14,2.08,0,3.11l-1.48,11.13
				c-0.22,1.57-0.71,3.03-1.48,4.38c-0.83,1.45-1.9,2.67-3.2,3.65C246.3,85.45,243.77,86.3,241.15,86.3z M248.04,75.13l0,0.03
				C248.04,75.15,248.04,75.14,248.04,75.13z"/>
		</g>
	</g>
</g>
<g>
	
		<rect x="133.55" y="77.29" transform="matrix(0.9868 -0.1621 0.1621 0.9868 -12.237 23.6022)" class="st0" width="9.93" height="19"/>
</g>
<g>
	<g>
		<g>
			<g>
				<path class="st1" d="M265.32,62.77c-5.95,0-6.25-4.12-6.25-4.95c0-2.01,1.08-3.19,2.44-4.69c0.07-0.07,0.14-0.16,0.23-0.25
					c-19.52-0.43-29.41-7.29-29.41-20.42c0-15.22,14.08-27.6,31.39-27.6c17.31,0,31.39,12.38,31.39,27.6
					c0,13.61-6.78,20.99-12.47,24.8C276.54,61.32,269.49,62.77,265.32,62.77z M263.71,14.15c-12.18,0-22.09,8.21-22.09,18.31
					c0,5.51,2.62,11.15,22.09,11.15c4.67,0,7.69,1.46,8.96,4.33c0.58,1.31,0.66,2.6,0.43,3.84c2.19-0.86,4.49-2.11,6.5-3.9
					c4.12-3.66,6.2-8.85,6.2-15.42C285.8,22.36,275.89,14.15,263.71,14.15z"/>
			</g>
			<g>
				<g>
					<path class="st1" d="M253.61,45.62c-2.39-0.02-4.4-1.51-5.26-3.6c-0.99,0.39-2.08,0.49-3.13,0.28c-3-0.58-5.01-3.49-4.55-6.62
						c1.55-10.6,3.99-20.28,11.16-19.39c6.41,0.78,7.6,9.21,7.48,23.52C259.28,43.02,256.72,45.62,253.61,45.62z M242.74,36.08
						c0,0,0,0.01,0,0.01C242.74,36.09,242.74,36.09,242.74,36.08z"/>
				</g>
				<g>
					<path class="st1" d="M258.92,45.48c-2.59,0-4.86-1.8-5.51-4.37c-0.04-0.14-0.96-3.77-1.57-8.05
						c-0.74-5.16-0.69-8.92,0.19-11.72l-0.31-1.88l0.73,0.76c0.26-0.59,0.56-1.12,0.9-1.62c1.62-2.31,4.12-3.51,6.89-3.29
						c4.97,0.38,9.05,4.71,9.27,9.86c0.1,2.24-0.59,4.85-2.49,7.04l0.78,0.81c2.04,2.14,2.19,5.49,0.35,7.81
						c-1.03,1.29-2.54,2.07-4.16,2.14c-0.13,0.01-0.26,0.01-0.39,0c-0.69,1.01-1.69,1.81-2.91,2.22
						C260.1,45.38,259.51,45.48,258.92,45.48z M255.42,40.43C255.42,40.43,255.42,40.43,255.42,40.43
						C255.42,40.43,255.42,40.43,255.42,40.43z"/>
				</g>
				<g>
					<path class="st1" d="M269.86,45.46c-1.19,0-2.37-0.33-3.4-0.95c-2.43-1.46-3.53-4.19-4.04-7.07c-1.52-0.8-2.65-2.29-2.99-4.1
						c-0.45-2.46,0.64-4.85,2.61-6.09c0.1-2.25,0.29-4.32,0.45-5.87c0.17-1.59,0.96-3.05,2.19-4.02c1.2-0.95,2.7-1.36,4.2-1.17
						c3.12,0.43,5.28,3.25,4.95,6.43c-0.08,0.82-0.16,1.64-0.22,2.46c0.42,0.15,0.82,0.34,1.19,0.59c1.32,0.86,2.25,2.26,2.54,3.84
						c0.32,1.75-0.14,3.46-1.13,4.75c1.87,2.13,1.97,5.35,0.2,7.61c-0.36,0.45-0.56,0.67-0.83,0.92l-0.09,0.09
						C273.39,45,271.27,45.46,269.86,45.46z M270.69,36.96l0.51,0.39L270.69,36.96L270.69,36.96z M270.61,36.9l0.03,0.02l0-0.01
						L270.61,36.9L270.61,36.9z"/>
				</g>
				<g>
					<path class="st1" d="M278.06,43.18c-4.03,0-7.45-2.82-9.14-7.56c-0.66-1.84-0.35-3.83,0.67-5.36c-2-2.63-2.08-5.34-2.02-6.38
						c0.2-3.57,2.52-6.65,5.78-7.67c3.79-1.19,7.75,0.6,10.09,4.54c1.06,1.8,1.09,3.95,0.22,5.71c3.35,3.42,3.27,7.25,3.12,8.61
						c-0.49,4.14-3.56,7.43-7.47,8.01C278.88,43.15,278.47,43.18,278.06,43.18z M278.49,22.96L278.49,22.96L278.49,22.96z"/>
				</g>
			</g>
		</g>
		<g>
			<g>
				<path class="st1" d="M265.32,62.77c-5.95,0-6.25-4.12-6.25-4.95c0-2.01,1.08-3.19,2.44-4.69c0.07-0.07,0.14-0.16,0.23-0.25
					c-19.52-0.43-29.41-7.29-29.41-20.42c0-15.22,14.08-27.6,31.39-27.6c17.31,0,31.39,12.38,31.39,27.6
					c0,13.61-6.78,20.99-12.47,24.8C276.54,61.32,269.49,62.77,265.32,62.77z M263.71,14.15c-12.18,0-22.09,8.21-22.09,18.31
					c0,5.51,2.62,11.15,22.09,11.15c4.67,0,7.69,1.46,8.96,4.33c0.58,1.31,0.66,2.6,0.43,3.84c2.19-0.86,4.49-2.11,6.5-3.9
					c4.12-3.66,6.2-8.85,6.2-15.42C285.8,22.36,275.89,14.15,263.71,14.15z"/>
			</g>
			<g>
				<g>
					<path class="st1" d="M253.61,45.62c-2.39-0.02-4.4-1.51-5.26-3.6c-0.99,0.39-2.08,0.49-3.13,0.28c-3-0.58-5.01-3.49-4.55-6.62
						c1.55-10.6,3.99-20.28,11.16-19.39c6.41,0.78,7.6,9.21,7.48,23.52C259.28,43.02,256.72,45.62,253.61,45.62z M242.74,36.08
						c0,0,0,0.01,0,0.01C242.74,36.09,242.74,36.09,242.74,36.08z"/>
				</g>
				<g>
					<path class="st1" d="M258.92,45.48c-2.59,0-4.86-1.8-5.51-4.37c-0.04-0.14-0.96-3.77-1.57-8.05
						c-0.74-5.16-0.69-8.92,0.19-11.72l-0.31-1.88l0.73,0.76c0.26-0.59,0.56-1.12,0.9-1.62c1.62-2.31,4.12-3.51,6.89-3.29
						c4.97,0.38,9.05,4.71,9.27,9.86c0.1,2.24-0.59,4.85-2.49,7.04l0.78,0.81c2.04,2.14,2.19,5.49,0.35,7.81
						c-1.03,1.29-2.54,2.07-4.16,2.14c-0.13,0.01-0.26,0.01-0.39,0c-0.69,1.01-1.69,1.81-2.91,2.22
						C260.1,45.38,259.51,45.48,258.92,45.48z M255.42,40.43C255.42,40.43,255.42,40.43,255.42,40.43
						C255.42,40.43,255.42,40.43,255.42,40.43z"/>
				</g>
				<g>
					<path class="st1" d="M269.86,45.46c-1.19,0-2.37-0.33-3.4-0.95c-2.43-1.46-3.53-4.19-4.04-7.07c-1.52-0.8-2.65-2.29-2.99-4.1
						c-0.45-2.46,0.64-4.85,2.61-6.09c0.1-2.25,0.29-4.32,0.45-5.87c0.17-1.59,0.96-3.05,2.19-4.02c1.2-0.95,2.7-1.36,4.2-1.17
						c3.12,0.43,5.28,3.25,4.95,6.43c-0.08,0.82-0.16,1.64-0.22,2.46c0.42,0.15,0.82,0.34,1.19,0.59c1.32,0.86,2.25,2.26,2.54,3.84
						c0.32,1.75-0.14,3.46-1.13,4.75c1.87,2.13,1.97,5.35,0.2,7.61c-0.36,0.45-0.56,0.67-0.83,0.92l-0.09,0.09
						C273.39,45,271.27,45.46,269.86,45.46z M270.69,36.96l0.51,0.39L270.69,36.96L270.69,36.96z M270.61,36.9l0.03,0.02l0-0.01
						L270.61,36.9L270.61,36.9z"/>
				</g>
				<g>
					<path class="st1" d="M278.06,43.18c-4.03,0-7.45-2.82-9.14-7.56c-0.66-1.84-0.35-3.83,0.67-5.36c-2-2.63-2.08-5.34-2.02-6.38
						c0.2-3.57,2.52-6.65,5.78-7.67c3.79-1.19,7.75,0.6,10.09,4.54c1.06,1.8,1.09,3.95,0.22,5.71c3.35,3.42,3.27,7.25,3.12,8.61
						c-0.49,4.14-3.56,7.43-7.47,8.01C278.88,43.15,278.47,43.18,278.06,43.18z M278.49,22.96L278.49,22.96L278.49,22.96z"/>
				</g>
			</g>
		</g>
		<g>
			<g>
				<path class="st1" d="M265.32,62.77c-5.95,0-6.25-4.12-6.25-4.95c0-2.01,1.08-3.19,2.44-4.69c0.07-0.07,0.14-0.16,0.23-0.25
					c-19.52-0.43-29.41-7.29-29.41-20.42c0-15.22,14.08-27.6,31.39-27.6c17.31,0,31.39,12.38,31.39,27.6
					c0,13.61-6.78,20.99-12.47,24.8C276.54,61.32,269.49,62.77,265.32,62.77z M263.71,14.15c-12.18,0-22.09,8.21-22.09,18.31
					c0,5.51,2.62,11.15,22.09,11.15c4.67,0,7.69,1.46,8.96,4.33c0.58,1.31,0.66,2.6,0.43,3.84c2.19-0.86,4.49-2.11,6.5-3.9
					c4.12-3.66,6.2-8.85,6.2-15.42C285.8,22.36,275.89,14.15,263.71,14.15z"/>
			</g>
			<g>
				<g>
					<path class="st1" d="M253.61,45.62c-2.39-0.02-4.4-1.51-5.26-3.6c-0.99,0.39-2.08,0.49-3.13,0.28c-3-0.58-5.01-3.49-4.55-6.62
						c1.55-10.6,3.99-20.28,11.16-19.39c6.41,0.78,7.6,9.21,7.48,23.52C259.28,43.02,256.72,45.62,253.61,45.62z M242.74,36.08
						c0,0,0,0.01,0,0.01C242.74,36.09,242.74,36.09,242.74,36.08z"/>
				</g>
				<g>
					<path class="st1" d="M258.92,45.48c-2.59,0-4.86-1.8-5.51-4.37c-0.04-0.14-0.96-3.77-1.57-8.05
						c-0.74-5.16-0.69-8.92,0.19-11.72l-0.31-1.88l0.73,0.76c0.26-0.59,0.56-1.12,0.9-1.62c1.62-2.31,4.12-3.51,6.89-3.29
						c4.97,0.38,9.05,4.71,9.27,9.86c0.1,2.24-0.59,4.85-2.49,7.04l0.78,0.81c2.04,2.14,2.19,5.49,0.35,7.81
						c-1.03,1.29-2.54,2.07-4.16,2.14c-0.13,0.01-0.26,0.01-0.39,0c-0.69,1.01-1.69,1.81-2.91,2.22
						C260.1,45.38,259.51,45.48,258.92,45.48z M255.42,40.43C255.42,40.43,255.42,40.43,255.42,40.43
						C255.42,40.43,255.42,40.43,255.42,40.43z"/>
				</g>
				<g>
					<path class="st1" d="M269.86,45.46c-1.19,0-2.37-0.33-3.4-0.95c-2.43-1.46-3.53-4.19-4.04-7.07c-1.52-0.8-2.65-2.29-2.99-4.1
						c-0.45-2.46,0.64-4.85,2.61-6.09c0.1-2.25,0.29-4.32,0.45-5.87c0.17-1.59,0.96-3.05,2.19-4.02c1.2-0.95,2.7-1.36,4.2-1.17
						c3.12,0.43,5.28,3.25,4.95,6.43c-0.08,0.82-0.16,1.64-0.22,2.46c0.42,0.15,0.82,0.34,1.19,0.59c1.32,0.86,2.25,2.26,2.54,3.84
						c0.32,1.75-0.14,3.46-1.13,4.75c1.87,2.13,1.97,5.35,0.2,7.61c-0.36,0.45-0.56,0.67-0.83,0.92l-0.09,0.09
						C273.39,45,271.27,45.46,269.86,45.46z M270.69,36.96l0.51,0.39L270.69,36.96L270.69,36.96z M270.61,36.9l0.03,0.02l0-0.01
						L270.61,36.9L270.61,36.9z"/>
				</g>
				<g>
					<path class="st1" d="M278.06,43.18c-4.03,0-7.45-2.82-9.14-7.56c-0.66-1.84-0.35-3.83,0.67-5.36c-2-2.63-2.08-5.34-2.02-6.38
						c0.2-3.57,2.52-6.65,5.78-7.67c3.79-1.19,7.75,0.6,10.09,4.54c1.06,1.8,1.09,3.95,0.22,5.71c3.35,3.42,3.27,7.25,3.12,8.61
						c-0.49,4.14-3.56,7.43-7.47,8.01C278.88,43.15,278.47,43.18,278.06,43.18z M278.49,22.96L278.49,22.96L278.49,22.96z"/>
				</g>
			</g>
		</g>
	</g>
	<g>
		<path class="st1" d="M181.64,103.08c-17.9,0-32.47-14.57-32.47-32.47s14.57-32.47,32.47-32.47s32.47,14.57,32.47,32.47
			S199.55,103.08,181.64,103.08z M181.64,47.44c-12.78,0-23.17,10.39-23.17,23.17c0,12.78,10.39,23.17,23.17,23.17
			c12.78,0,23.17-10.39,23.17-23.17C204.82,57.83,194.42,47.44,181.64,47.44z"/>
	</g>
	<g>
		<path class="st1" d="M86.83,94.93c-17.36,0-31.48-14.12-31.48-31.48s14.12-31.48,31.48-31.48c17.36,0,31.49,14.12,31.49,31.48
			S104.19,94.93,86.83,94.93z M86.83,41.26c-12.23,0-22.18,9.95-22.18,22.19s9.95,22.19,22.18,22.19c12.23,0,22.19-9.95,22.19-22.19
			S99.07,41.26,86.83,41.26z"/>
	</g>
	<g>
		<path class="st1" d="M39.07,104.83c-18.87,0-34.22-15.35-34.22-34.22c0-18.87,15.35-34.22,34.22-34.22s34.22,15.35,34.22,34.22
			C73.29,89.48,57.94,104.83,39.07,104.83z M39.07,45.69c-13.74,0-24.92,11.18-24.92,24.92s11.18,24.92,24.92,24.92
			c13.74,0,24.92-11.18,24.92-24.92S52.81,45.69,39.07,45.69z"/>
	</g>
	<g>
		<path class="st1" d="M31.92,88.32c-9.77,0-17.71-7.95-17.71-17.71c0-9.77,7.94-17.71,17.71-17.71s17.71,7.95,17.71,17.71
			C49.63,80.38,41.69,88.32,31.92,88.32z M31.92,62.2c-4.64,0-8.41,3.77-8.41,8.41s3.77,8.41,8.41,8.41s8.41-3.77,8.41-8.41
			S36.56,62.2,31.92,62.2z"/>
	</g>
	<g>
		<path class="st1" d="M30.15,82.87c-0.89,0-1.8-0.12-2.73-0.35c-0.57-0.14-1.03-0.29-1.43-0.45c-0.58-0.23-0.97-0.41-1.21-0.53
			l-0.12-0.06c-1.63-0.86-2.86-1.98-3.66-3.32c-1.27-2.14-1.16-4.06-0.84-5.3c0.26-1.06,0.8-2.05,1.59-2.9l0.08-0.08
			c1.33-1.36,3.08-2.04,4.9-2.02l1.04-4.09c0.48-1.87,1.65-3.44,3.29-4.41c1.66-0.98,3.52-1.26,5.38-0.79
			c1.89,0.48,3.46,1.68,4.42,3.38c0.93,1.63,1.18,3.49,0.71,5.36l-1.93,7.6c-0.48,1.86-1.28,3.44-2.38,4.71
			c-1.22,1.41-2.74,2.38-4.51,2.88C31.91,82.75,31.04,82.87,30.15,82.87z"/>
	</g>
	<g>
		<path class="st1" d="M86.84,81.16c-9.77,0-17.71-7.95-17.71-17.71c0-9.77,7.95-17.71,17.71-17.71c9.77,0,17.71,7.95,17.71,17.71
			C104.55,73.21,96.6,81.16,86.84,81.16z M86.84,55.03c-4.64,0-8.41,3.77-8.41,8.41s3.77,8.41,8.41,8.41c4.64,0,8.41-3.77,8.41-8.41
			S91.47,55.03,86.84,55.03z"/>
	</g>
	<g>
		<path class="st1" d="M133.88,112.75c-19.04,0-34.52-15.49-34.52-34.52s15.49-34.52,34.52-34.52c19.04,0,34.52,15.49,34.52,34.52
			S152.92,112.75,133.88,112.75z M133.88,53c-13.91,0-25.22,11.32-25.22,25.23s11.32,25.23,25.22,25.23
			c13.91,0,25.23-11.32,25.23-25.23S147.79,53,133.88,53z"/>
	</g>
	<g>
		<path class="st1" d="M86.83,75.97c-1.37,0-2.73-0.22-4.03-0.65c-1.3-0.43-2.53-1.07-3.64-1.9c-1.11-0.83-2.06-1.83-2.82-2.95
			c-0.48-0.7-0.9-1.44-1.23-2.21c-0.34-0.8-0.58-1.58-0.75-2.35c-0.17-0.79-0.26-1.63-0.26-2.47c0-0.83,0.09-1.66,0.26-2.47
			c0.16-0.76,0.41-1.56,0.75-2.35c0.34-0.79,0.76-1.55,1.24-2.24c0.77-1.12,1.73-2.12,2.84-2.93c1.06-0.79,2.28-1.43,3.59-1.87
			c2.29-0.77,4.76-0.86,7.1-0.29c1,0.25,1.97,0.61,2.89,1.09c0.93,0.49,1.78,1.07,2.53,1.73c0.76,0.67,1.46,1.46,2.05,2.34
			c1.45,2.1,2.21,4.46,2.21,6.99c0,1.25-0.19,2.49-0.58,3.69c-0.39,1.2-0.95,2.32-1.67,3.36c-0.58,0.83-1.26,1.6-2.04,2.28
			c-0.77,0.68-1.62,1.27-2.51,1.74c-0.84,0.44-1.79,0.8-2.81,1.07C88.93,75.84,87.88,75.97,86.83,75.97z M85.47,63.61
			c0,0,0.04,0.12,0.14,0.26c0.12,0.17,0.3,0.33,0.49,0.43c0.23,0.13,0.53,0.21,0.81,0.19l-0.1-0.47l-0.39-0.58h0.11l0.23,0.36
			l-0.08-0.36h0.14l0.11,0.63l0.24,0.38c0.17-0.04,0.33-0.11,0.47-0.2c0.24-0.15,0.42-0.37,0.5-0.52c0.07-0.14,0.09-0.26,0.09-0.29
			l0,0c0,0,0,0,0,0l0,0c0-0.04-0.02-0.16-0.1-0.31c-0.07-0.13-0.23-0.33-0.48-0.48c-0.3-0.19-0.66-0.31-1.02-0.24l0.18,1.03h-0.14
			l-0.21-1c-0.15,0.03-0.31,0.1-0.45,0.19l0.51,0.81h-0.11l-0.5-0.75c-0.09,0.06-0.18,0.14-0.25,0.23c-0.08,0.1-0.14,0.21-0.17,0.32
			c-0.03,0.09-0.04,0.17-0.04,0.2h-1.88h1.88c0,0.01,0,0.02,0,0.02c0,0.05,0,0.11,0.01,0.17C85.47,63.62,85.47,63.61,85.47,63.61z
			 M86.96,64.25l0.04,0.23c0.03,0,0.07-0.01,0.1-0.02L86.96,64.25z"/>
	</g>
	<g>
		<path class="st1" d="M137.05,97.29c-10.38,0-18.83-8.45-18.83-18.83s8.45-18.83,18.83-18.83c10.38,0,18.83,8.45,18.83,18.83
			S147.43,97.29,137.05,97.29z M137.05,68.93c-5.26,0-9.53,4.28-9.53,9.53s4.28,9.53,9.53,9.53c5.26,0,9.53-4.28,9.53-9.53
			S142.31,68.93,137.05,68.93z"/>
	</g>
	<g>
		<g>
			<g>
				<path class="st1" d="M133.39,88.79c-1.5,0-2.95-0.5-4.15-1.47l-0.13-0.11c-1.34-1.16-2.19-2.67-2.45-4.38l-1.42-8.98
					c-0.21-1.34-0.03-2.69,0.53-3.91c0.58-1.27,1.5-2.3,2.67-2.99l-0.31-1.95l1.52,1.37c0.38-0.14,0.77-0.24,1.17-0.3
					c1.16-0.18,2.78-0.13,4.51,0.89c1.04-1.18,2.45-1.96,4.01-2.2c0.87-0.14,1.74-0.11,2.6,0.09c0.92,0.21,1.75,0.61,2.48,1.17
					c0.68,0.5,1.25,1.13,1.71,1.88c0.49,0.81,0.8,1.64,0.93,2.52l1.45,9.22c0.04,0.26,0.06,0.54,0.08,0.91l0.01,0.18l0,0.18
					c-0.03,1.09-0.31,2.12-0.85,3.08c-0.49,0.88-1.17,1.64-2.03,2.24c-0.14,0.1-0.28,0.19-0.42,0.27l0.23,1.45l-1.14-0.99
					c-0.48,0.2-0.99,0.34-1.51,0.42c-1.21,0.2-2.47,0.06-3.62-0.42l-0.24-0.1c-0.21-0.1-0.4-0.2-0.59-0.31
					c-1.02,1.15-2.4,1.9-3.95,2.15C134.12,88.76,133.75,88.79,133.39,88.79z"/>
			</g>
		</g>
		<g>
			<g>
				<path class="st1" d="M133.39,88.79c-1.5,0-2.95-0.5-4.15-1.47l-0.13-0.11c-1.34-1.16-2.19-2.67-2.45-4.38l-1.42-8.98
					c-0.21-1.34-0.03-2.69,0.53-3.91c0.58-1.27,1.5-2.3,2.67-2.99l-0.31-1.95l1.52,1.37c0.38-0.14,0.77-0.24,1.17-0.3
					c1.16-0.18,2.78-0.13,4.51,0.89c1.04-1.18,2.45-1.96,4.01-2.2c0.87-0.14,1.74-0.11,2.6,0.09c0.92,0.21,1.75,0.61,2.48,1.17
					c0.68,0.5,1.25,1.13,1.71,1.88c0.49,0.81,0.8,1.64,0.93,2.52l1.45,9.22c0.04,0.26,0.06,0.54,0.08,0.91l0.01,0.18l0,0.18
					c-0.03,1.09-0.31,2.12-0.85,3.08c-0.49,0.88-1.17,1.64-2.03,2.24c-0.14,0.1-0.28,0.19-0.42,0.27l0.23,1.45l-1.14-0.99
					c-0.48,0.2-0.99,0.34-1.51,0.42c-1.21,0.2-2.47,0.06-3.62-0.42l-0.24-0.1c-0.21-0.1-0.4-0.2-0.59-0.31
					c-1.02,1.15-2.4,1.9-3.95,2.15C134.12,88.76,133.75,88.79,133.39,88.79z"/>
			</g>
		</g>
		<g>
			<g>
				<path class="st1" d="M133.39,88.79c-1.5,0-2.95-0.5-4.15-1.47l-0.13-0.11c-1.34-1.16-2.19-2.67-2.45-4.38l-1.42-8.98
					c-0.21-1.34-0.03-2.69,0.53-3.91c0.58-1.27,1.5-2.3,2.67-2.99l-0.31-1.95l1.52,1.37c0.38-0.14,0.77-0.24,1.17-0.3
					c1.16-0.18,2.78-0.13,4.51,0.89c1.04-1.18,2.45-1.96,4.01-2.2c0.87-0.14,1.74-0.11,2.6,0.09c0.92,0.21,1.75,0.61,2.48,1.17
					c0.68,0.5,1.25,1.13,1.71,1.88c0.49,0.81,0.8,1.64,0.93,2.52l1.45,9.22c0.04,0.26,0.06,0.54,0.08,0.91l0.01,0.18l0,0.18
					c-0.03,1.09-0.31,2.12-0.85,3.08c-0.49,0.88-1.17,1.64-2.03,2.24c-0.14,0.1-0.28,0.19-0.42,0.27l0.23,1.45l-1.14-0.99
					c-0.48,0.2-0.99,0.34-1.51,0.42c-1.21,0.2-2.47,0.06-3.62-0.42l-0.24-0.1c-0.21-0.1-0.4-0.2-0.59-0.31
					c-1.02,1.15-2.4,1.9-3.95,2.15C134.12,88.76,133.75,88.79,133.39,88.79z"/>
			</g>
		</g>
	</g>
	<g>
		<path class="st1" d="M182.98,87.39c-10.01,0-18.16-8.15-18.16-18.16s8.15-18.16,18.16-18.16c10.01,0,18.16,8.15,18.16,18.16
			S192.99,87.39,182.98,87.39z M182.98,60.37c-4.88,0-8.86,3.97-8.86,8.86s3.97,8.86,8.86,8.86c4.89,0,8.86-3.97,8.86-8.86
			S187.86,60.37,182.98,60.37z"/>
	</g>
	<g>
		<g>
			<path class="st1" d="M178.77,81.6c-0.64,0-1.28-0.09-1.92-0.26l-0.01,0c-1.33-0.37-2.45-1.04-3.34-1.99
				c-0.94-1-1.55-2.28-1.76-3.68c-0.13-0.94-0.09-1.9,0.14-2.97l2.24-9.72c0.42-1.78,1.25-3.27,2.45-4.44
				c0.87-0.83,1.88-1.46,3-1.85l1.03-4.45l2.24,3.98c1.2,0.06,2.36,0.37,3.43,0.94c1.47,0.76,2.68,1.96,3.58,3.54l4.95,8.82
				c0.49,0.96,0.78,1.82,0.91,2.65c0.21,1.46-0.02,2.87-0.66,4.11c-0.56,1.13-1.5,2.13-2.69,2.85c-0.78,0.49-1.72,0.84-2.7,0.98
				c-1.47,0.2-2.95-0.07-4.26-0.79c-0.35-0.19-0.68-0.4-0.99-0.65c-0.22,0.3-0.46,0.59-0.72,0.86c-1.09,1.1-2.45,1.79-3.94,2
				C179.43,81.58,179.1,81.6,178.77,81.6z M180.97,74.71L180.97,74.71L180.97,74.71C180.97,74.71,180.97,74.71,180.97,74.71z"/>
		</g>
	</g>
	<g>
		<path class="st1" d="M231.2,101.23c-18.92,0-34.31-15.39-34.31-34.31c0-18.92,15.39-34.31,34.31-34.31
			c18.92,0,34.31,15.39,34.31,34.31C265.51,85.84,250.12,101.23,231.2,101.23z M231.2,41.92c-13.79,0-25.01,11.22-25.01,25.01
			s11.22,25.01,25.01,25.01s25.01-11.22,25.01-25.01S244.99,41.92,231.2,41.92z"/>
	</g>
	<g>
		<path class="st1" d="M236.55,86.54c-10.38,0-18.83-8.45-18.83-18.83s8.45-18.83,18.83-18.83c10.38,0,18.83,8.45,18.83,18.83
			S246.94,86.54,236.55,86.54z M236.55,58.18c-5.26,0-9.53,4.28-9.53,9.53s4.28,9.53,9.53,9.53s9.53-4.28,9.53-9.53
			S241.81,58.18,236.55,58.18z"/>
	</g>
	<g>
		<g>
			<g>
				<path class="st1" d="M241.17,81.45c-0.32,0-0.64-0.02-0.97-0.06c-0.96-0.13-1.83-0.42-2.62-0.88c-0.75-0.42-1.44-1.01-2.04-1.73
					l-0.07-0.08c-0.01-0.01-0.01-0.01-0.02-0.02c-0.78,0.59-1.64,1-2.58,1.23c-0.85,0.21-1.76,0.27-2.67,0.15
					c-1.91-0.25-3.6-1.23-4.77-2.75l0,0c-1.19-1.55-1.67-3.4-1.42-5.34l1.47-11.08c0.26-1.95,1.22-3.6,2.76-4.78
					c1.54-1.18,3.38-1.67,5.32-1.41c1.87,0.25,3.53,1.21,4.7,2.7c1.5-1.13,3.37-1.63,5.25-1.38c0.88,0.11,1.74,0.4,2.55,0.84
					c0.92,0.51,1.67,1.17,2.25,1.97c0.39,0.51,0.7,1.06,0.93,1.65c0.21,0.51,0.37,1.12,0.45,1.75c0.08,0.62,0.08,1.25,0,1.86
					l-1.48,11.11c-0.13,0.94-0.43,1.81-0.89,2.63c-0.49,0.87-1.13,1.59-1.9,2.17C244.2,80.95,242.73,81.45,241.17,81.45z
					 M243.23,74.51L243.23,74.51C243.23,74.52,243.23,74.52,243.23,74.51z M233.25,73.19L233.25,73.19
					C233.25,73.19,233.25,73.19,233.25,73.19z M244.68,63.43l0,0.02C244.68,63.45,244.68,63.44,244.68,63.43z"/>
			</g>
		</g>
		<g>
			<g>
				<path class="st1" d="M241.17,81.45c-0.32,0-0.64-0.02-0.97-0.06c-0.96-0.13-1.83-0.42-2.62-0.88c-0.75-0.42-1.44-1.01-2.04-1.73
					l-0.07-0.08c-0.01-0.01-0.01-0.01-0.02-0.02c-0.78,0.59-1.64,1-2.58,1.23c-0.85,0.21-1.76,0.27-2.67,0.15
					c-1.91-0.25-3.6-1.23-4.77-2.75l0,0c-1.19-1.55-1.67-3.4-1.42-5.34l1.47-11.08c0.26-1.95,1.22-3.6,2.76-4.78
					c1.54-1.18,3.38-1.67,5.32-1.41c1.87,0.25,3.53,1.21,4.7,2.7c1.5-1.13,3.37-1.63,5.25-1.38c0.88,0.11,1.74,0.4,2.55,0.84
					c0.92,0.51,1.67,1.17,2.25,1.97c0.39,0.51,0.7,1.06,0.93,1.65c0.21,0.51,0.37,1.12,0.45,1.75c0.08,0.62,0.08,1.25,0,1.86
					l-1.48,11.11c-0.13,0.94-0.43,1.81-0.89,2.63c-0.49,0.87-1.13,1.59-1.9,2.17C244.2,80.95,242.73,81.45,241.17,81.45z
					 M243.23,74.51L243.23,74.51C243.23,74.52,243.23,74.52,243.23,74.51z M233.25,73.19L233.25,73.19
					C233.25,73.19,233.25,73.19,233.25,73.19z M244.68,63.43l0,0.02C244.68,63.45,244.68,63.44,244.68,63.43z"/>
			</g>
		</g>
		<g>
			<g>
				<path class="st1" d="M241.17,81.45c-0.32,0-0.64-0.02-0.97-0.06c-0.96-0.13-1.83-0.42-2.62-0.88c-0.75-0.42-1.44-1.01-2.04-1.73
					l-0.07-0.08c-0.01-0.01-0.01-0.01-0.02-0.02c-0.78,0.59-1.64,1-2.58,1.23c-0.85,0.21-1.76,0.27-2.67,0.15
					c-1.91-0.25-3.6-1.23-4.77-2.75l0,0c-1.19-1.55-1.67-3.4-1.42-5.34l1.47-11.08c0.26-1.95,1.22-3.6,2.76-4.78
					c1.54-1.18,3.38-1.67,5.32-1.41c1.87,0.25,3.53,1.21,4.7,2.7c1.5-1.13,3.37-1.63,5.25-1.38c0.88,0.11,1.74,0.4,2.55,0.84
					c0.92,0.51,1.67,1.17,2.25,1.97c0.39,0.51,0.7,1.06,0.93,1.65c0.21,0.51,0.37,1.12,0.45,1.75c0.08,0.62,0.08,1.25,0,1.86
					l-1.48,11.11c-0.13,0.94-0.43,1.81-0.89,2.63c-0.49,0.87-1.13,1.59-1.9,2.17C244.2,80.95,242.73,81.45,241.17,81.45z
					 M243.23,74.51L243.23,74.51C243.23,74.52,243.23,74.52,243.23,74.51z M233.25,73.19L233.25,73.19
					C233.25,73.19,233.25,73.19,233.25,73.19z M244.68,63.43l0,0.02C244.68,63.45,244.68,63.44,244.68,63.43z"/>
			</g>
		</g>
	</g>
	<g>
		
			<rect x="133.55" y="82.14" transform="matrix(0.9868 -0.1622 0.1622 0.9868 -12.2392 23.6077)" class="st1" width="9.93" height="9.3"/>
	</g>
</g>
<g>
	<g>
		<g>
			<path class="st0" d="M290.45,32.46c0-12.68-11.97-22.95-26.74-22.95c-14.77,0-26.74,10.28-26.74,22.95
				c0,12.68,11.97,15.8,26.74,15.8c10.91,0,0,8.62,0,9.57C263.71,59.01,290.45,57.83,290.45,32.46z"/>
		</g>
		<g>
			<g>
				<path class="st1" d="M251.26,20.91c-3.01-0.37-4.94,8.2-6,15.45c-0.1,0.66,0.29,1.28,0.86,1.39c0.57,0.11,1.12-0.33,1.21-0.99
					c0.22-1.53,0.49-3.03,0.77-4.45l4.31,0.8c0.1,2.08,0.15,4.34,0.13,6.65c-0.01,0.67,0.46,1.21,1.04,1.22c0,0,0.01,0,0.01,0
					c0.58,0,1.05-0.53,1.05-1.19C254.76,27.54,253.61,21.2,251.26,20.91z M248.62,29.96c0.82-3.47,1.72-6.07,2.38-6.59
					c0.53,0.74,0.99,3.53,1.27,7.26L248.62,29.96z"/>
			</g>
			<g>
				<path class="st1" d="M259.87,31.45c4.77-1.64,5.04-5,4.99-6.09c-0.12-2.79-2.36-5.22-4.99-5.43c-1.12-0.09-2.06,0.37-2.73,1.33
					c-1.28,1.83-1.52,5.47-0.71,11.13c0.57,3.97,1.44,7.42,1.48,7.56c0.13,0.53,0.55,0.87,1.01,0.87c0.1,0,0.2-0.02,0.29-0.05
					c0.56-0.19,0.88-0.86,0.72-1.49c-0.42-1.64-0.85-3.67-1.19-5.75l4.28,4.47c0.43,0.45,1.1,0.41,1.49-0.08
					c0.39-0.49,0.36-1.25-0.07-1.7L259.87,31.45z M258.2,29.45c-0.27-2.98-0.19-5.57,0.58-6.67c0.21-0.3,0.46-0.44,0.82-0.44
					c0.04,0,0.08,0,0.12,0c1.57,0.12,2.96,1.56,3.03,3.14C262.84,27.28,261.15,28.73,258.2,29.45z"/>
			</g>
			<g>
				<path class="st1" d="M271.2,37.36c-0.11,0.14-0.14,0.17-0.19,0.22c-0.04,0.04-0.09,0.09-0.17,0.17
					c-0.64,0.65-0.95,0.68-1.01,0.65c-0.61-0.36-0.97-2.62-1.07-5.83l3.2-0.78c0.57-0.14,0.93-0.78,0.81-1.43
					c-0.12-0.65-0.68-1.06-1.25-0.93l-2.79,0.68c0.02-2.42,0.17-5.17,0.46-7.97c0.07-0.66-0.34-1.26-0.92-1.34
					c-0.58-0.08-1.1,0.4-1.17,1.06c-0.22,2.12-0.5,5.47-0.51,8.77l-1.78,0.43c-0.57,0.14-0.93,0.78-0.81,1.43
					c0.11,0.57,0.54,0.96,1.03,0.96c0.07,0,0.15-0.01,0.22-0.03l1.4-0.34c0.16,3.52,0.75,6.57,2.21,7.45
					c0.27,0.16,0.6,0.28,1.01,0.28c0.63,0,1.43-0.31,2.37-1.27l0.12-0.12c0.12-0.11,0.18-0.17,0.4-0.45
					c0.39-0.49,0.36-1.26-0.07-1.7C272.25,36.83,271.59,36.86,271.2,37.36z"/>
			</g>
			<g>
				<path class="st1" d="M277.17,27.57c-1.86-0.89-2.93-2.11-2.87-3.27c0.03-0.62,0.43-1.15,0.98-1.32c0.8-0.25,1.7,0.31,2.41,1.5
					c0.33,0.55,0.98,0.69,1.46,0.32c0.48-0.37,0.6-1.12,0.28-1.68c-1.24-2.08-2.99-3.01-4.7-2.47c-1.42,0.44-2.43,1.85-2.52,3.49
					c-0.06,1.07,0.22,3.77,4.16,5.65c2.5,1.19,3.88,2.85,3.69,4.42c-0.11,0.96-0.83,1.75-1.71,1.88c-1.21,0.19-2.37-0.93-3.1-2.96
					c-0.22-0.62-0.83-0.91-1.37-0.66c-0.54,0.25-0.79,0.96-0.57,1.57c1.02,2.85,2.77,4.47,4.77,4.47c0.18,0,0.36-0.01,0.55-0.04
					c1.84-0.27,3.29-1.9,3.53-3.95C282.29,33.23,282.11,29.93,277.17,27.57z"/>
			</g>
		</g>
	</g>
	<g>
		<path class="st2" d="M153.82,70.61c0-15.36,12.46-27.82,27.82-27.82c15.36,0,27.82,12.46,27.82,27.82
			c0,15.36-12.46,27.82-27.82,27.82C166.28,98.43,153.82,85.98,153.82,70.61z"/>
	</g>
	<g>
		<path class="st3" d="M60,63.45c0-14.82,12.01-26.84,26.83-26.84c14.82,0,26.84,12.02,26.84,26.84c0,14.82-12.02,26.83-26.84,26.83
			C72.01,90.28,60,78.27,60,63.45z"/>
	</g>
	<g>
		<path class="st4" d="M9.5,70.61c0-16.33,13.24-29.57,29.57-29.57c16.33,0,29.57,13.24,29.57,29.57
			c0,16.33-13.24,29.57-29.57,29.57C22.74,100.18,9.5,86.94,9.5,70.61z"/>
	</g>
	<g>
		<path class="st0" d="M18.86,70.61c0-7.21,5.85-13.06,13.06-13.06c7.21,0,13.06,5.85,13.06,13.06c0,7.21-5.85,13.06-13.06,13.06
			C24.71,83.67,18.86,77.83,18.86,70.61z"/>
	</g>
	<g>
		<path class="st1" d="M29.13,73.71c0.31,0.08,0.55,0.03,0.74-0.14c0.19-0.17,0.34-0.51,0.47-1l1.94-7.63
			c0.17-0.68,0.56-1.2,1.16-1.56c0.6-0.35,1.22-0.45,1.87-0.28c0.66,0.17,1.16,0.55,1.5,1.16c0.34,0.6,0.42,1.25,0.25,1.94
			l-1.93,7.59c-0.29,1.15-0.75,2.08-1.38,2.8c-0.63,0.72-1.38,1.21-2.27,1.46c-0.88,0.25-1.85,0.24-2.91-0.03
			c-0.38-0.1-0.67-0.19-0.87-0.27c-0.39-0.16-0.67-0.28-0.85-0.37c-0.87-0.46-1.49-1-1.85-1.6c-0.36-0.61-0.47-1.19-0.33-1.75
			c0.08-0.33,0.24-0.62,0.49-0.88c0.53-0.54,1.17-0.73,1.91-0.56c0.29,0.07,0.58,0.2,0.87,0.37c0.07,0.03,0.12,0.06,0.16,0.09
			c0.04,0.03,0.08,0.05,0.11,0.07l0.29,0.21l0.25,0.21C28.81,73.56,28.94,73.63,29.13,73.71z"/>
	</g>
	<g>
		<path class="st0" d="M73.77,63.45c0-7.21,5.85-13.06,13.06-13.06c7.21,0,13.06,5.85,13.06,13.06s-5.85,13.06-13.06,13.06
			C79.62,76.51,73.77,70.66,73.77,63.45z"/>
	</g>
	<g>
		<path class="st5" d="M104.01,78.22c0-16.5,13.38-29.87,29.87-29.87c16.5,0,29.88,13.38,29.88,29.87
			c0,16.5-13.38,29.87-29.88,29.87C117.38,108.1,104.01,94.72,104.01,78.22z"/>
	</g>
	<g>
		<path class="st1" d="M80.16,67.83c-0.31-0.44-0.57-0.91-0.78-1.4c-0.21-0.49-0.37-0.99-0.47-1.48c-0.11-0.5-0.16-1-0.16-1.51
			c0-0.49,0.05-0.99,0.16-1.49c0.1-0.5,0.27-1,0.48-1.5c0.21-0.5,0.47-0.96,0.77-1.4c0.49-0.72,1.09-1.34,1.79-1.86
			c0.7-0.52,1.47-0.92,2.3-1.2c0.83-0.28,1.69-0.42,2.57-0.42c0.66,0,1.31,0.08,1.96,0.24c0.64,0.16,1.26,0.39,1.84,0.69
			c0.59,0.31,1.12,0.67,1.61,1.1c0.49,0.43,0.91,0.91,1.27,1.45c0.94,1.36,1.41,2.82,1.41,4.39c0,0.78-0.12,1.54-0.36,2.28
			c-0.24,0.75-0.59,1.45-1.05,2.11c-0.37,0.53-0.8,1.01-1.3,1.46c-0.5,0.44-1.03,0.81-1.58,1.1c-0.55,0.29-1.16,0.52-1.82,0.69
			c-0.66,0.17-1.32,0.25-1.98,0.25c-0.88,0-1.74-0.14-2.57-0.41c-0.84-0.27-1.61-0.68-2.31-1.2C81.25,69.18,80.65,68.55,80.16,67.83
			z M83.58,63.44c0,0.68,0.15,1.3,0.44,1.85c0.29,0.56,0.68,0.99,1.17,1.3c0.49,0.31,1.03,0.46,1.61,0.46
			c0.21,0,0.42-0.02,0.64-0.06c0.39-0.08,0.74-0.23,1.06-0.43c0.31-0.21,0.6-0.47,0.84-0.79c0.24-0.32,0.43-0.67,0.56-1.06
			c0.13-0.39,0.2-0.81,0.2-1.25c0-0.21-0.02-0.44-0.06-0.68c-0.1-0.6-0.3-1.11-0.6-1.55c-0.3-0.43-0.67-0.77-1.13-1.02
			c-0.45-0.25-0.95-0.37-1.49-0.37c-0.59,0-1.14,0.15-1.64,0.46c-0.5,0.31-0.89,0.74-1.17,1.29C83.73,62.15,83.58,62.77,83.58,63.44
			z"/>
	</g>
	<g>
		<path class="st0" d="M122.87,78.46c0-7.83,6.35-14.18,14.18-14.18c7.83,0,14.18,6.35,14.18,14.18c0,7.83-6.35,14.18-14.18,14.18
			C129.22,92.64,122.87,86.29,122.87,78.46z"/>
	</g>
	<g>
		<g>
			<path class="st1" d="M132.15,83.7c-0.5-0.44-0.8-0.96-0.9-1.57l-1.42-9c-0.07-0.45-0.01-0.87,0.17-1.27
				c0.18-0.4,0.46-0.71,0.83-0.93c0.24-0.15,0.48-0.24,0.73-0.28c0.63-0.1,1.28,0.14,1.95,0.71l5.45,4.73l-0.67-4.3
				c-0.09-0.58,0.04-1.11,0.39-1.6c0.35-0.47,0.8-0.76,1.37-0.85c0.28-0.04,0.56-0.03,0.83,0.03c0.27,0.06,0.52,0.18,0.73,0.35
				c0.22,0.15,0.4,0.36,0.56,0.61c0.15,0.25,0.25,0.52,0.3,0.8l1.45,9.22c0.01,0.09,0.02,0.23,0.03,0.42
				c-0.01,0.33-0.1,0.64-0.26,0.94c-0.16,0.29-0.37,0.52-0.64,0.71c-0.27,0.19-0.57,0.31-0.9,0.36c-0.4,0.07-0.78,0.02-1.14-0.13
				c-0.26-0.12-0.46-0.25-0.59-0.38l-5.66-5.08l0.71,4.48c0.09,0.6-0.03,1.14-0.37,1.61c-0.33,0.46-0.78,0.73-1.34,0.82
				C133.15,84.21,132.62,84.07,132.15,83.7z"/>
		</g>
	</g>
	<g>
		<path class="st0" d="M169.47,69.23c0-7.46,6.05-13.51,13.51-13.51c7.46,0,13.51,6.05,13.51,13.51s-6.05,13.51-13.51,13.51
			C175.52,82.74,169.47,76.69,169.47,69.23z"/>
	</g>
	<g>
		<g>
			<path class="st1" d="M178.09,76.85c-0.49-0.14-0.89-0.36-1.19-0.69c-0.3-0.32-0.49-0.72-0.56-1.19
				c-0.05-0.34-0.02-0.78,0.09-1.31l2.23-9.64c0.21-0.88,0.59-1.6,1.16-2.14c0.56-0.54,1.24-0.87,2.05-0.98
				c0.81-0.12,1.56,0,2.25,0.37c0.69,0.36,1.26,0.94,1.71,1.73l4.85,8.63c0.26,0.5,0.41,0.92,0.45,1.24c0.07,0.47,0,0.9-0.2,1.3
				c-0.2,0.4-0.52,0.73-0.95,0.99c-0.3,0.19-0.62,0.31-0.95,0.36c-0.48,0.07-0.94-0.02-1.39-0.26c-0.45-0.24-0.81-0.62-1.08-1.13
				l-0.33-0.65l-4.99,0.72l-0.15,0.72c-0.11,0.55-0.34,1-0.7,1.37c-0.36,0.37-0.79,0.59-1.28,0.66
				C178.77,76.97,178.43,76.95,178.09,76.85z M181.31,69.94l3.64-0.52l-2.5-4.44L181.31,69.94z"/>
		</g>
	</g>
	<g>
		<path class="st6" d="M201.54,66.93c0-16.38,13.28-29.66,29.66-29.66c16.38,0,29.66,13.28,29.66,29.66
			c0,16.38-13.28,29.66-29.66,29.66C214.82,96.58,201.54,83.3,201.54,66.93z"/>
	</g>
	<g>
		<circle class="st0" cx="236.55" cy="67.71" r="14.18"/>
	</g>
	<g>
		<g>
			<path class="st1" d="M229.14,74.48c-0.43-0.56-0.6-1.19-0.5-1.9l1.48-11.09c0.09-0.71,0.42-1.27,0.98-1.7
				c0.55-0.43,1.18-0.59,1.88-0.5c0.68,0.09,1.25,0.42,1.68,0.99c0.14,0.18,0.25,0.38,0.33,0.58c0.08,0.2,0.13,0.42,0.17,0.65
				c0.03,0.23,0.03,0.45,0,0.67l-0.42,3.16l4.91,0.65l0.42-3.16c0.04-0.33,0.15-0.65,0.33-0.95c0.17-0.3,0.39-0.55,0.66-0.75
				c0.57-0.44,1.19-0.61,1.88-0.52c0.32,0.04,0.64,0.15,0.94,0.31c0.3,0.17,0.55,0.38,0.74,0.66c0.14,0.18,0.25,0.38,0.33,0.58
				c0.08,0.2,0.14,0.42,0.17,0.65c0.03,0.23,0.03,0.46,0,0.67l-1.48,11.09c-0.05,0.33-0.16,0.65-0.33,0.95
				c-0.17,0.3-0.39,0.55-0.66,0.75c-0.55,0.42-1.17,0.59-1.85,0.5c-0.33-0.04-0.63-0.14-0.91-0.3c-0.27-0.16-0.53-0.38-0.77-0.67
				c-0.43-0.54-0.6-1.17-0.5-1.9l0.47-3.52l-4.97-0.66l-0.47,3.52c-0.1,0.73-0.42,1.3-0.97,1.7c-0.27,0.22-0.57,0.36-0.89,0.44
				c-0.32,0.08-0.64,0.1-0.96,0.06C230.13,75.36,229.57,75.03,229.14,74.48z"/>
		</g>
	</g>
	<g>
		<path class="st1" d="M133.61,88.83c-0.6,0-1.12-0.43-1.22-1.04c-0.11-0.68,0.35-1.32,1.03-1.43l9.79-1.61
			c0.66-0.11,1.32,0.35,1.43,1.03c0.11,0.68-0.35,1.32-1.03,1.43l-9.79,1.61C133.74,88.83,133.68,88.83,133.61,88.83z"/>
	</g>
</g>
</svg>
