<?xml version="1.0" encoding="utf-8"?>
<!-- Generator: Adobe Illustrator 24.1.3, SVG Export Plug-In . SVG Version: 6.00 Build 0)  -->
<svg version="1.1" id="Layer_1" xmlns="http://www.w3.org/2000/svg" xmlns:xlink="http://www.w3.org/1999/xlink" x="0px" y="0px"
	 viewBox="0 0 75.54 78.47" style="enable-background:new 0 0 75.54 78.47;" xml:space="preserve">
<style type="text/css">
	.st0{fill:#FFFFFF;}
	.st1{fill:#000001;}
	.st2{fill:#ECE9E9;}
	.st3{fill:#020304;}
	.st4{fill:#010203;}
</style>
<g>
	<path class="st0" d="M74.45,22.08c-0.27-2.61-1.53-4.07-2.54-4.84c-1-0.77-2.75-1.59-5.33-1.16c-0.56,0.09-1.12,0.17-1.68,0.25
		c-0.46,0.06-0.92,0.13-1.38,0.2c-2.06,0.32-4.22,0.66-6.38,1.01c-0.88-3.31-2.51-6.09-4.89-8.27c-3.79-3.48-8.39-4.4-12.95-2.58
		c-2.12,0.85-3.93,2.23-5.42,4.12c-2.31-1.78-5.03-2.72-7.84-2.63c-4.01,0.12-7.72,2.31-10.19,6c-2.01,3.01-3.01,6.53-2.99,10.49
		c-2,0.31-4.04,0.64-6.06,0.97c-4.22,0.7-6.83,3.79-6.81,8.06C0,35.07,0.1,36.29,0.31,37.44c0.65,3.5,1.44,6.97,2.2,10.34
		c0.29,1.28,0.58,2.55,0.86,3.83c0.61,2.77,1.26,5.56,1.9,8.27c0.6,2.57,1.22,5.24,1.8,7.85c1.12,5.05,3.86,7.68,8.88,8.51
		c2.24,0.37,4.45,0.45,7.07,0.46h0.11l0.11-0.01c0.41-0.03,0.87-0.06,1.36-0.09c1.14-0.08,2.43-0.17,3.71-0.22
		c6.69-0.28,13.76-0.74,21.63-1.41c0.46-0.04,0.92-0.08,1.38-0.11c2.9-0.23,5.89-0.48,8.91-1.11c7.06-1.49,9.29-6.18,9.91-9.85
		c0.41-2.39,0.88-5.24,1.23-8.18c0.97-8.12,1.85-15.68,2.69-23.13C74.42,29.57,74.84,25.83,74.45,22.08z"/>
	<g>
		<g>
			<path class="st1" d="M23.04,73.17c-2.52-0.01-4.52-0.08-6.5-0.41c-3.62-0.6-5.22-2.2-6.02-5.8C9.32,61.58,8,56.23,6.81,50.85
				c-1.03-4.67-2.17-9.32-3.03-14.03c-0.19-1.04-0.26-2.08-0.26-3.13c-0.01-2.56,1.32-4.16,3.87-4.58c2.67-0.44,5.33-0.86,8-1.28
				c1.2-0.19,1.2-0.18,1.09-1.36c-0.34-3.7,0.22-7.21,2.31-10.34c3.84-5.77,10.86-5.94,15.04-0.4c0.72,0.96,0.72,0.95,1.23-0.12
				c1.2-2.52,2.91-4.6,5.55-5.65c3.46-1.38,6.58-0.57,9.26,1.9c2.57,2.36,3.85,5.41,4.31,8.81c0.1,0.73,0.33,0.87,1.02,0.76
				c2.95-0.5,5.91-0.97,8.86-1.43c1.03-0.16,2.06-0.29,3.09-0.46c2.18-0.36,3.56,0.7,3.79,2.9c0.34,3.26,0,6.5-0.36,9.74
				c-0.87,7.7-1.77,15.41-2.69,23.1c-0.32,2.68-0.75,5.34-1.2,8.01c-0.71,4.13-3.26,6.17-7.17,7c-3.26,0.69-6.56,0.89-9.86,1.16
				c-7.15,0.6-14.31,1.09-21.48,1.4C26.3,72.93,24.41,73.08,23.04,73.17z"/>
		</g>
		<g>
			<g>
				<path class="st2" d="M35.95,31.32c0.73,0.79,1.26,1.59,1.95,2.24c4.12,3.87,9.65,3.53,13.25-0.84c1.5-1.81,2.4-3.91,2.83-6.2
					c0.12-0.65,0.39-0.89,1.05-0.99c3.79-0.53,7.56-1.26,11.37-1.68c0.49-0.05,0.67,0.02,0.66,0.54c-0.01,2.41-0.17,4.82-0.42,7.22
					c-0.04,0.43-0.28,0.66-0.58,0.91C58.14,38.96,50.22,45.4,42.3,51.84c-1.51,1.23-3.04,2.43-4.52,3.68
					c-0.47,0.39-0.8,0.46-1.37,0.14C27.27,50.49,18.1,45.34,8.93,40.19c-0.38-0.21-0.59-0.47-0.68-0.92
					c-0.37-1.7-0.72-3.41-0.84-5.15c-0.05-0.65,0.2-0.95,0.84-1.06c3.01-0.48,6.02-0.98,9.02-1.5c0.45-0.08,0.6,0.1,0.77,0.46
					c0.58,1.25,1.36,2.37,2.31,3.36c4.32,4.54,10.65,3.98,14.15-1.24C35.06,33.3,35.53,32.4,35.95,31.32z"/>
			</g>
			<g>
				<path class="st2" d="M58.98,66.37c-2.04,0.61-4.1,0.74-6.14,0.9c-6.72,0.53-13.42,1.2-20.16,1.44
					c-3.19,0.11-6.38,0.39-9.57,0.55c-1.8,0.09-3.6-0.03-5.39-0.23c-0.79-0.09-0.58-0.35-0.27-0.78c1.92-2.59,3.82-5.2,5.74-7.79
					c1.19-1.62,2.4-3.22,3.55-4.85c0.34-0.48,0.59-0.55,1.11-0.25c2.72,1.56,5.47,3.08,8.21,4.6c0.98,0.55,1.79,0.49,2.66-0.2
					c2.71-2.19,5.42-4.37,8.09-6.58c0.5-0.41,0.74-0.41,1.16,0.1c3.57,4.27,7.18,8.52,10.77,12.77
					C58.81,66.14,58.88,66.23,58.98,66.37z"/>
			</g>
			<g>
				<path class="st2" d="M65.95,38c-1.07,8.64-1.78,17.34-3.37,26c-0.7-0.21-0.93-0.72-1.24-1.09c-3.42-4.03-6.81-8.07-10.22-12.11
					c-0.32-0.38-0.59-0.64-0.02-1.09c4.77-3.83,9.51-7.69,14.26-11.53C65.49,38.08,65.6,37.91,65.95,38z"/>
			</g>
			<g>
				<path class="st2" d="M33.01,25.75c-0.02,2.01-0.43,3.92-1.44,5.67c-2.13,3.71-5.95,4.04-8.71,0.78
					c-2.9-3.43-3.39-9.59-1.07-13.43c2.29-3.78,6.32-3.95,8.94-0.37C32.18,20.37,33.03,23.11,33.01,25.75z"/>
			</g>
			<g>
				<path class="st2" d="M50.36,22.97c-0.04,2.82-0.58,5-1.98,6.89c-2.23,3.03-5.67,3.14-8.14,0.28c-3.05-3.53-3.57-9.62-1.16-13.65
					c0.19-0.32,0.4-0.64,0.64-0.94c2.16-2.68,5.42-2.8,7.76-0.26C49.6,17.6,50.27,20.43,50.36,22.97z"/>
			</g>
			<g>
				<path class="st2" d="M14.27,66.07c-1.61-7.05-3.17-13.91-4.73-20.75c0.36-0.16,0.52,0.07,0.7,0.17c4.29,2.4,8.56,4.81,12.85,7.2
					c0.54,0.3,0.68,0.49,0.25,1.07c-2.83,3.8-5.61,7.63-8.41,11.45C14.77,65.44,14.58,65.66,14.27,66.07z"/>
			</g>
		</g>
		<g>
			<path class="st3" d="M26.81,24.71c0.02-0.18,0.03-0.46,0.08-0.75c0.18-1.03,0.69-1.64,1.44-1.74c0.8-0.1,1.51,0.41,1.88,1.38
				c0.42,1.09,0.49,2.19,0.16,3.32c-0.19,0.65-0.61,1.05-1.26,1.19c-0.62,0.13-1.14-0.11-1.54-0.58
				C26.91,26.75,26.81,25.64,26.81,24.71z"/>
		</g>
		<g>
			<path class="st4" d="M44.73,20.32c-1.22-1.69-3.25-1.66-4.35,0.11c-0.55,0.89-0.71,1.88-0.73,2.9c-0.03,1.01,0.16,1.97,0.62,2.86
				c0.54,1.05,1.34,1.79,2.58,1.75c1.3-0.04,2.1-0.89,2.47-2.02C45.97,24.01,46.01,22.1,44.73,20.32z M43.66,25.21
				c-0.08,0.34-0.31,0.65-0.69,0.7c-0.37,0.05-0.67-0.17-0.85-0.48c-0.62-1.08-0.76-2.23-0.35-3.41c0.13-0.39,0.39-0.72,0.85-0.76
				c0.52-0.04,0.82,0.32,0.92,0.69C43.83,22.77,43.96,23.95,43.66,25.21z"/>
		</g>
	</g>
</g>
</svg>
