<?xml version="1.0" encoding="utf-8"?>
<!-- Generator: Adobe Illustrator 24.1.3, SVG Export Plug-In . SVG Version: 6.00 Build 0)  -->
<svg version="1.1" id="Layer_1" xmlns="http://www.w3.org/2000/svg" xmlns:xlink="http://www.w3.org/1999/xlink" x="0px" y="0px"
	 viewBox="0 0 75.4 77.82" style="enable-background:new 0 0 75.4 77.82;" xml:space="preserve">
<style type="text/css">
	.st0{fill:#000001;}
	.st1{fill:#ECE9E9;}
	.st2{fill:#010102;}
</style>
<g>
	<path class="st0" d="M36.04,19.67c0.78-1.58,1.73-2.89,3.01-3.94c3.19-2.65,7.44-2.6,10.59,0.16c2.88,2.51,4.11,5.83,4.39,9.53
		c0.06,0.78,0.31,0.87,0.97,0.83c2.78-0.16,5.57-0.28,8.36-0.41c0.98-0.05,1.97-0.1,2.95-0.11c1.87-0.02,3.07,1.09,3.17,2.97
		c0.15,2.98-0.31,5.92-0.8,8.83c-1.56,9.12-3.09,18.25-4.95,27.32c-0.23,1.11-0.59,2.18-0.88,3.28c-0.82,3.09-2.99,4.52-6,5.02
		c-4.13,0.69-8.29,0.39-12.43,0.3c-3.69-0.09-7.38-0.05-11.06-0.27c-4.64-0.28-9.28-0.44-13.92-0.72c-1.74-0.1-3.44-0.5-5.14-0.91
		c-3.21-0.78-4.8-2.87-5.22-6.06c-0.88-6.8-1.86-13.6-2.7-20.41c-0.41-3.36-1.01-6.71-1.14-10.11c-0.04-0.9-0.03-1.8,0.05-2.7
		c0.19-2.24,1.68-3.65,3.93-3.77c2.67-0.14,5.34-0.28,8.01-0.37c0.79-0.03,1.05-0.23,1.02-1.09c-0.1-3.31,0.66-6.4,2.66-9.11
		c3.63-4.92,9.79-5.06,13.66-0.32C35.07,18.22,35.5,18.91,36.04,19.67z"/>
	<path class="st1" d="M36.27,33.53c0.63,0.89,1.17,1.78,1.87,2.55c3.68,4.01,9.15,3.97,12.72-0.12c1.22-1.4,2.08-3.02,2.54-4.81
		c0.21-0.82,0.55-1.09,1.39-1.1c3.4-0.05,6.78-0.4,10.18-0.36c0.64,0.01,0.87,0.08,0.81,0.77c-0.19,2.14-0.45,4.27-0.77,6.39
		c-0.08,0.51-0.38,0.74-0.74,0.98c-8.48,5.74-16.96,11.48-25.45,17.22c-0.86,0.58-1.76,1.13-2.59,1.76
		c-0.51,0.39-0.86,0.35-1.37-0.01c-5.54-3.94-11.1-7.84-16.65-11.76c-2.78-1.96-5.55-3.92-8.33-5.87c-0.36-0.25-0.54-0.51-0.6-0.97
		c-0.19-1.62-0.36-3.23-0.36-4.86c0-0.68,0.22-1,0.93-1.04c2.9-0.14,5.8-0.29,8.7-0.48c0.5-0.03,0.57,0.25,0.69,0.57
		c0.66,1.7,1.6,3.22,2.93,4.49c3.86,3.69,9.18,3.32,12.51-0.86C35.29,35.27,35.77,34.45,36.27,33.53z"/>
	<path class="st1" d="M15.17,67.79c2.63-3,5.17-5.91,7.72-8.81c0.92-1.05,1.86-2.08,2.74-3.15c0.37-0.45,0.64-0.5,1.13-0.15
		c2.45,1.76,4.93,3.49,7.41,5.21c1.08,0.75,1.71,0.74,2.78,0.02c2.7-1.83,5.4-3.66,8.11-5.49c0.27-0.18,0.51-0.49,0.85-0.01
		c3.24,4.65,6.5,9.29,9.81,14.01c-2.59,0.43-5.11,0.28-7.61,0.25c-3.98-0.04-7.96-0.04-11.93-0.24c-5.62-0.29-11.26-0.37-16.87-0.85
		C17.94,68.47,16.6,68.24,15.17,67.79z"/>
	<path class="st1" d="M64.01,42.65c-1.6,8.4-2.74,16.67-4.77,24.78c-0.46-0.09-0.56-0.35-0.71-0.56c-3.11-4.44-6.22-8.88-9.34-13.3
		c-0.32-0.45-0.4-0.69,0.16-1.06c4.72-3.16,9.42-6.37,14.13-9.56C63.57,42.89,63.67,42.84,64.01,42.65z"/>
	<path class="st1" d="M38.38,25.17c0-1.34,0.57-3.5,1.98-5.38c2.15-2.84,5.39-2.9,7.68-0.18c2.89,3.43,3.06,9.73,0.38,13.34
		c-2.25,3.01-5.68,3.04-7.94,0.03C38.97,30.97,38.37,28.65,38.38,25.17z"/>
	<path class="st1" d="M21.98,26.55c0-2.39,0.58-4.6,2.06-6.51c2.05-2.65,5.11-2.77,7.39-0.31c3.19,3.44,3.34,10.36,0.29,13.94
		c-2.19,2.57-5.29,2.55-7.45-0.09C22.61,31.55,21.98,29.14,21.98,26.55z"/>
	<path class="st1" d="M12.75,64.59C11.83,57.76,10.92,50.93,10,44.1c0.36-0.07,0.51,0.16,0.68,0.28c3.92,2.75,7.83,5.51,11.75,8.27
		c0.32,0.23,0.7,0.36,0.23,0.89c-3.2,3.6-6.37,7.24-9.54,10.86c-0.07,0.08-0.07,0.23-0.11,0.35C12.93,64.69,12.84,64.64,12.75,64.59
		z"/>
	<path class="st0" d="M45.58,26.93c-0.03,0.86-0.12,1.72-0.46,2.54c-0.42,1-1.21,1.54-2.13,1.47c-0.9-0.06-1.73-0.74-1.95-1.72
		c-0.27-1.22-0.34-2.46-0.02-3.69c0.16-0.6,0.46-1.12,0.92-1.55c0.97-0.89,2.26-0.74,2.99,0.36C45.44,25.12,45.54,26.01,45.58,26.93
		z"/>
	<path class="st2" d="M31.44,27.49c0.01,0.64-0.06,1.27-0.26,1.88c-0.34,1.03-1.06,1.62-2,1.64c-0.91,0.02-1.76-0.56-2.09-1.55
		c-0.39-1.19-0.54-2.43-0.33-3.68c0.08-0.49,0.28-0.94,0.57-1.35c0.96-1.32,2.6-1.27,3.43,0.13C31.3,25.46,31.47,26.46,31.44,27.49z
		"/>
</g>
</svg>
