<?xml version="1.0" encoding="utf-8"?>
<!-- Generator: Adobe Illustrator 24.1.3, SVG Export Plug-In . SVG Version: 6.00 Build 0)  -->
<svg version="1.1" xmlns="http://www.w3.org/2000/svg" xmlns:xlink="http://www.w3.org/1999/xlink" x="0px" y="0px"
	 viewBox="0 0 1335 421" style="enable-background:new 0 0 1335 421;" xml:space="preserve">
<style type="text/css">
	.st0{fill:#FF37B7;}
	.st1{fill:#010101;}
	.st2{fill:#020001;}
	.st3{fill:#F98523;}
	.st4{fill:#F88523;}
	.st5{fill:#0C0703;}
	.st6{fill:#080405;}
	.st7{fill:#FFBB21;}
	.st8{fill:#2CD200;}
	.st9{fill:#010000;}
	.st10{fill:#90AAFF;}
	.st11{fill:#FF2C2C;}
	.st12{fill:#637CFF;}
	.st13{fill:#FFF02C;}
	.st14{fill:#FFFFFF;}
	.st15{fill:#01A844;}
	.st16{fill:#080906;}
	.st17{fill:#01AD36;}
	.st18{fill:#050301;}
	.st19{fill:#0C0303;}
	.st20{fill:#0B0202;}
	.st21{fill:#0E0505;}
	.st22{fill:#1C070C;}
	.st23{fill:#6C666C;}
	.st24{fill:#00BEEA;}
	.st25{fill:#00AB32;}
	.st26{fill:#A33A98;}
	.st27{fill:#F5AD00;}
	.st28{fill:#EAEAEA;}
	.st29{fill:#050202;}
	.st30{fill:#0B0808;}
	.st31{fill:#100D0E;}
	.st32{fill:#1B1108;}
	.st33{fill:#0E070A;}
	.st34{fill:#0C0709;}
	.st35{fill:#110D10;}
	.st36{fill:#0B060A;}
	.st37{fill:#0B0708;}
</style>
<g id="Layer_2">
</g>
<g id="Layer_3">
</g>
<g id="Layer_1">
	<path class="st0" d="M1054,118c-0.06,3.32-0.49,3.78-1,7c-0.46,2.86-1.78,3.83-4.44,2.53c-4.52-2.22-9.26-3.92-14.15-5.17
		c-8.8-2.24-14.48,2.27-14.69,11.36c-0.1,4.16,1.64,7.97,1.78,12.04c-7.28-5.04-9.6-12.24-8.67-20.63
		c0.7-6.27,7.59-11.99,14.57-12.23c8.09-0.28,10.74,1.64,18.44,5.18C1050,120,1053.05,119.7,1054,118z"/>
	<path class="st1" d="M840.96,300.81c-2.88,1.47-5.84,1.36-8.79,0.29c-4.23-1.53-8.55-2.64-13.08-2.79
		c-2.05-1.12-4.25-0.96-6.15-0.02c-7.38,3.63-14.64,2.53-21.94-0.11c-1.12-0.41-2.29-0.75-3.49-0.77c-2.82-0.05-3.57-1.64-3.5-4.14
		c0.08-3.04,0.04-6.07,0.54-9.1c1.34-8.1,3.28-16.07,5.08-24.08c3.36-14.97,6.27-30.06,10.57-44.8c2.4-8.21-0.53-13.35-8.91-15.26
		c-1.43-0.33-2.89-0.42-4.33-0.64c-1.38-0.21-2.63-0.57-2.79-2.27c-0.28-3.7,0.2-7.36,0.74-10.99c2.42-16.24,5.04-32.45,5.07-48.93
		c0.26-5.49-2.37-9.29-6.99-11.95c-2.82-1.62-5.93-2.22-9.07-2.81c-19.38-3.61-39.04-4.11-58.64-4.64
		c-29.98-0.82-59.96-0.14-89.8,3.37c-23.71,2.79-47.56,4.29-71.17,8c-9.44,1.49-18.84,3.21-28.18,5.21
		c-6.63,1.42-9.25,4.78-9.35,11.43c-0.08,5.15-0.18,10.31,0.52,15.46c1.48,11.02,2.5,22.09,3.4,33.17c0.3,3.72,0.73,7.55-3.57,9.58
		c-6.56,2.1-8.69,4.87-7.89,11.65c0.69,5.87,2,11.67,3.13,17.48c2.11,10.84,5.5,21.42,6.69,32.45c-0.34,2.64,0.02,5.22,0.53,7.82
		c1.51,7.76,3.12,15.5,4.21,23.34c0.26,1.89,0.13,4.02,1.87,5.46c0.2-0.02,0.37-0.06,0.52-0.12c0,0.08-0.01,0.15-0.01,0.23
		c-0.56,1.76,0.77,4.6-2.71,4.67c-2.79,1.64-5.15-0.05-7.38-1.22c-7.64-4.01-15.25-3.97-22.85-0.13c-2.89,1.46-5.42,1.26-8.26-0.19
		c-15.33-7.88-28.1-4.6-37.21,9.95c-7.07,11.28-9.5,24.17-11.67,37.07c3.32,1.02,6.65,0.87,9.98,0.12c1.99-2.55,1.9-5.71,2.48-8.66
		c1.7-8.61,3.88-17.07,8.93-24.42c5.13-7.47,11.72-8.84,20.3-6.56c3.88,1.03,4.23,2.21,2.17,5.64c-4.67,7.76-6.72,16.35-7.95,25.16
		c-0.37,2.67-0.83,5.54,0.79,8.11c1.44,3.95,4.2,1.86,6.6,1.43c1.61-1.96,0.97-4.3,1.08-6.5c0.61-11.8,4.31-22.27,13.07-30.62
		c5.88-5.61,11.12-6.16,18.41-2.25c2.89,1.55,3.23,2.92,1.74,5.87c-4.41,8.74-6.87,18.04-6.78,27.91c0.02,1.99,0.05,4.01,1.75,5.49
		c2.12,1.33,4.39,0.56,6.61,0.46c1.01-1.17,0.49-2.5,0.39-3.79c-0.83-10.86,1.89-20.63,8.8-29.19c7.58-9.39,18.5-10.98,28.55-4.22
		c6.1,4.11,9.33,10.28,12.59,16.5c3.43,6.53,6.16,13.45,10.76,19.34c2.51,1.08,4.71-0.06,6.94-0.96c0.85-1.47,0.11-2.81-0.37-4.16
		c-0.93-2.61-2.09-5.13-3.26-7.64c-5.21-11.16-11.27-21.77-20.37-30.35c-6.1-5.75-13.33-8.05-21.62-7.22
		c-0.16,0-0.34-0.02-0.51-0.04c0.28-0.23,0.57-0.47,0.85-0.75c-0.09-8.81-1.3-17.52-2.65-26.22c-1.49-8.73-2.84-17.48-4.87-26.12
		c-2.15-9.14-4.88-18.16-6.09-27.5c-0.69-5.38,0.02-6.38,5.28-7.09c12.22-1.66,24.46-3.06,36.81-3.32c3-0.59,6.07-0.62,9.06-1.13
		c2.97-0.51,3.4,0.79,2.89,3.34c-1.54,7.76-1.64,15.49,1.13,23.04c0.78,2.12,0.23,3.58-1.77,4.56c-2.23,1.26-3.99,3.01-5.59,5
		c-7.84,9.72-8.98,20.6-5.69,32.24c3.74,13.21,12.23,23.39,21.75,32.7c9.07,8.87,19.83,15.43,31.51,20.46
		c19.24,8.29,38.98,10.72,59.37,5.05c9-2.5,17.32-6.63,25.41-11.2c20.87-11.79,37.1-27.71,45.03-50.86
		c5.51-16.08,4.47-29.77-8.89-40.69c-1.85-1.33-3.82-2.43-6.06-2.89c-2.7-0.55-3.32-2.11-2.79-4.63c0.91-4.28,1.33-8.63,0.77-13
		c-0.31-2.44,1.03-2.98,3.05-2.96c2.26,0.02,4.43,0.84,6.7,0.7c8.2,0.21,16.33,1.37,24.51,1.91c4.87,0.32,9.77,0.67,14.61,1.43
		c4.08,0.64,4.59,1.23,3.92,5.12c-0.6,3.51-1.29,7.01-2.05,10.49c-3.35,15.34-7.15,30.6-9.68,46.11c-0.66,5.5-2.05,10.95-2.05,16.47
		c0,4.79-2.34,7.92-5.68,10.77c-1.81,1.55-3.67,3.01-5.28,4.81c-8.79,9.81-13.56,21.69-17.51,33.94c-1.01,3.14-2.25,6.54-0.91,10.02
		c2.35-0.01,4.71-0.02,7.06-0.03c1.42-1,1.72-2.62,2.25-4.1c2.98-8.23,6-16.46,10.81-23.84c5.61-8.63,12.7-14.68,24.02-12.61
		c0.93,0.17,1.85,0.09,2.73-0.3c5.32,0.08,10.39-1.62,14.95-3.77c9.32-4.39,18.34-4.43,27.68-0.62c2.66,1.09,9.57-2.78,10.84-5.85
		C842.03,300.24,841.46,300.26,840.96,300.81z"/>
	<path class="st2" d="M379.26,305.37c0.42,1.56,0.84,3.11,1.26,4.67c1.56,2.93,3.75,3.99,7.3,4.15c10.43,0.47,18.4,5.29,23.25,14.84
		c3.15,6.2,5.09,12.78,6.67,19.5c0.34,1.43,0.56,2.88-0.32,4.23c-3.99,2.42-5.82,2.02-8.19-1.76c-1.88-4.51-2.2-9.58-4.67-13.85
		c-3.75-6.48-8.32-12.08-16.72-12.22c-5.43-0.09-9.69,2.21-12.66,6.85c-3.57,5.56-5.25,11.8-6.71,18.13
		c-1.47,4.69-2.86,5.33-7.27,3.36c-1.75-3.28-0.34-6.54,0.42-9.63c1.25-5.13,2.93-10.16,5.68-14.76c1.79-3,1.29-3.95-2.24-4.93
		c-6.84-1.9-15.22,2.41-19.07,9.74c-2.81,5.34-4.26,11.09-5.4,16.95c-1.48,4.95-3.52,5.67-7.51,2.66c-1.07-2.45-0.66-4.94-0.02-7.38
		c1.41-5.37,2.66-10.81,5.47-15.68c1.13-1.96,0.7-3.03-1.46-3.89c-5.79-2.3-11.42-0.98-15.42,3.75c-3.88,4.6-6.48,9.96-9.22,15.24
		c-1.4,2.7-2.47,5.56-4.27,8.06c-1.34,1.63-3.22,1.75-5.05,1.53c-5.66-0.68-11.57,0.82-16.99-1.91c-2.7-1.21-4.74-3.26-6.67-5.41
		c-2.21-2.45-4.6-4.67-7.31-6.56c-7.72-7.88-15.85-15.26-25.26-21.12c-8.55-5.33-17.76-7.72-27.72-5.38
		c-5.27,1.24-10.54,1.41-15.82,1.09c-9.06-0.55-14.1-6.53-17.8-13.99c-1.23-2.49-1.86-5.23-2.81-7.85
		c-4.67-16.46-7.9-33.29-12.97-49.65c-2.02-8.47-3.64-17.03-5.46-25.55c-2.42-11.33,0.97-16.44,13.23-21.59
		c0.84-0.35,1.82-0.33,2.65-0.78c2.83-1.11,3.66-3.14,2.92-6.01c-0.53-2.04-0.74-4.13-0.81-6.24c-0.12-3.65-0.23-3.67-4.01-2.44
		c-6,3.21-12.54,5.05-18.81,7.59c-12.93,5.24-15.56,9.09-15.46,23.04c0.04,5.31,0.62,10.58,1.73,15.75
		c3.12,14.48,6.06,29.01,9.24,43.48c3.21,14.63,4.62,29.52,5.07,44.47c0.17,5.71,0.63,11.35,1.57,16.96
		c0.59,5.83,1.27,11.64,2.89,17.29c0.43,1.49,1.09,2.97,0.26,4.54c-4.44,1.33-8.87,1.89-13.25-0.23
		c-2.78-5.31-3.81-11.22-5.87-16.79c-1.93-5.22-4.91-9.63-9.38-12.97c-7.06-5.28-16.34-3.96-21.26,3.36
		c-4.2,6.24-6.39,13.26-6.73,20.83c-0.11,2.44,0.7,5.05-1.09,7.25c-2.12,0-4.25,0.01-6.37,0.01c-2.1-3.61-1.26-7.47-0.71-11.19
		c1.01-6.71,3.25-13.06,6.32-19.13c1.71-3.38,1.17-4.35-2.58-4.94c-7.61-1.2-14.43,2-17.96,8.83c-3.67,7.1-6.39,14.52-5.58,22.76
		c0.13,1.34,0.01,2.65-1.01,3.7c-2.12,0-4.25,0.01-6.37,0.01c-1.25-1.28-1.08-2.91-1.15-4.49c-0.33-8.42,2.06-16.2,5.61-23.7
		c1.82-3.86,1.33-4.41-2.87-5.55c-8.46-2.31-14.48,1-19.18,7.7c-3.98,5.68-5.7,12.17-6.79,18.91c-0.4,2.44-0.26,5.07-1.92,7.19
		c-0.53,0-1.06,0-1.59,0c-0.63-0.71-1.1-1.52-1.14-2.47c-0.31-7.63-0.42-15.25,0.02-22.88c0.07-1.19,0.6-2.28,1.26-3.28
		c1.26-1.85,2.59-3.67,4.05-5.38c6.59-7.69,14.95-11.06,24.84-8.77c6.48,1.5,12.5,1.27,18.64-1c5.85-2.16,11.45-0.83,16.92,1.55
		c3.26,1.76,6.4-0.28,9.61-0.34c1.56-0.03,3.11-0.55,4.66-0.85c6.48-2.91,12.02-0.22,17.54,2.84c1.58,0.88,3.21,2.93,4.89,2.06
		c2-1.02,1.06-3.61,0.96-5.47c-0.56-11.36-1.67-22.62-3.82-33.84c-3.56-18.58-8.16-36.95-11.01-55.66
		c-1.29-8.46-0.8-16.95,0.7-25.28c1.08-6,4.18-11.53,9.61-14.51c9.4-5.16,19.35-9.19,30.08-10.87c6.89-2.29,12.36-6.24,16.36-12.49
		c8.15-12.74,26.61-20.14,41.43-16.86c4.27,0.95,8.6,1.84,12.67,3.37c6.38,2.41,12.04,1.51,17.09-2.81
		c9.01-7.71,19.52-10.19,31.09-9.53c8.4,0.48,15.91,3.51,22.2,8.77c7.4,6.18,15.98,8.57,25.15,9.83c5.12,0.7,10.26,1.23,15.37,2.04
		c10.69,1.7,16.64,7.96,19.01,18.14c3.49,6.86,3.11,14.42,3.41,21.71c0.5,11.88,1.87,23.68,2.44,35.54
		c0.13,2.64,0.17,5.28,0.18,7.92c0.04,15.99,0.1,31.97,0.07,47.96C379.32,292.25,380.38,298.82,379.26,305.37z"/>
	<path class="st3" d="M410.05,350.37c1.37,3.94,4.17,3,6.97,2.03c1.52-0.41,3.06-0.51,4.62-0.39c4.79-0.19,9.58,0,14.36-0.35
		c3.4,0.33,6.79,0.3,10.19-0.02c8.71,0.14,17.44,0.73,26.12-0.45c2.44,1.47,5.09,1.66,7.84,1.21c9.42,0.27,18.83,0.25,28.25-0.09
		c2.32,0.17,4.65,0.26,6.98,0.31c10.42,0.46,20.7-1.03,30.99-2.24c0.51-0.11,1.13-0.23,1.47,0.19c2.09,2.6,4.49,2.06,6.98,0.75
		c3.98-1.06,7.87,0.59,11.84,0.37c3.03-0.17,6.08-0.08,9.12-0.25c2.63,0.38,5.14-0.56,7.72-0.78c6.18-0.26,12.28,1.35,18.48,0.66
		c40.2-1.46,80.42-0.43,120.62-0.85c2.13-0.02,4.23-0.31,6.33-0.62c4.41,1.12,8.94,0.48,13.4,0.78c2.38-0.1,4.76-0.21,7.14-0.02
		c6.41,0.14,12.75-1.55,19.18-0.75c2.84,0.96,5.63,0.26,8.42-0.31c10.4-0.1,20.8,0.69,31.17-0.55c2.64,1.83,5.31,0.98,7.98,0.06
		c9.35,0.96,18.73,0.58,28.09,0.61c2.56,0.66,4.95,0.85,6.48-2.01c0.25-0.47,0.92-0.06,1.34,0.23c1.5,1.69,3.53,1.53,5.52,1.66
		c6.65,0.43,13.22-0.86,19.85-0.76c3.3-0.15,6.63,0.19,9.86-0.8c5.24,1,10.48,1.02,15.74,0.15c4.16-0.62,8.55,0.55,12.5-1.65
		c3.26,2.34,6.86,1,10.35,0.92c3.15,1.96,6.65,1.03,10.01,1.22c1.44,0.08,2.89-0.06,4.33,0.08c3.28,0.96,6.46,0.21,9.66-0.5
		c2.46,1.44,5.2,1.86,7.97,1.88c6.57,0.07,13.14,0.19,19.7-0.17c3.49,1.02,5.64-0.74,7.31-3.51c1.81,2.95,4.49,3.81,7.87,4.08
		c5.58,0.45,11.13,0.44,16.69,0.06c3.46,1.08,5.66-0.54,7.27-3.41c2.03,2.72,4.86,3.12,8,2.92c6.91-0.44,13.84,1.84,20.73-0.19
		c3.01,0.16,6.01,0.26,8.91-0.84c5.82,1.48,11.76,0.68,17.64,0.99c1.8-0.09,3.6-0.11,5.39-0.07c2.35,0.24,4.7-0.22,7.06-0.04
		c2.39,1.37,4.73,0.09,7.1-0.14c13.99,0.67,27.93-1.09,41.91-0.82c1.58,0.03,3.17-0.08,4.74,0.1c3.53,1.02,5.17-1.5,6.96-3.73
		c1.77,5.36,5.96,2.59,9.28,2.74c3.39,0.37,6.77,0.14,10.16-0.07c5.41,0.38,10.79,1.37,16.25,0.93c2.8,1.48,5.59,0.47,8.38-0.06
		c9.85-0.01,19.69,0.1,29.52-0.16c0.92,0.03,1.79,0.32,2.68,0.54c2.24,0.54,3.09-0.51,3.31-2.61c0.19-1.86-0.52-4,1.42-5.42
		c2.06,0.9,1.72,2.84,1.74,4.46c0.05,2.89,1.46,4.01,4.21,4c3.72-0.01,7.44-0.12,11.14,0.03c2.72,0.11,4.94-0.59,6.56-2.84
		c0.12-0.03,0.34-0.12,0.36-0.08c1.78,2.99,4.23,3.02,7.03,1.63c0.49,0.35,0.9,0.76,1.34,1.17c0.65,0.46,1.31,0.9,2.14,0.91
		c7.33,0.06,14.66,0.05,21.98-0.04c0.85-0.01,1.48-0.46,1.92-1.16c0.62-2.27-0.43-4.62,0.31-6.87c0.82-7.69,0.12-15.36-0.05-23.04
		c1.02-3.39-0.53-7.07,1.13-10.4c0.33-0.44,0.74-0.53,1.23-0.28c0.03,14.31,0.01,28.62,0.13,42.92c0.02,1.99-0.45,2.77-2.44,2.4
		c-0.38-0.07-0.79-0.01-1.19-0.01c-360.58,0.66-721.17,1.32-1081.75,1.98c0.63-2.66,2.87-1.87,4.51-1.9c8.3-0.13,16.6-0.07,24.9-0.1
		c1.71-0.01,3.43,0.07,5.08-0.55c2.38-0.44,4.82-0.5,7.2-0.98c8.66-0.55,17.34-0.14,26.01-0.35c5.39,1.62,10.77,1.26,16.13-0.18
		c6.35,2.56,13.07,1.84,19.66,2.17c0.76,0.04,1.56-0.86,2.34-1.32c7.01,0.71,13.94-1,20.94-0.68c1.56,0.07,3.19-0.26,4.62,0.68
		c3.93,2.36,5.22,1.83,6.13-2.51c2.29,1.56,4.85,1.77,7.55,1.86c4.73,0.15,9.53-0.84,14.21,0.6c4.75,1.45,5.27,1.18,6.2-3.24
		c2,2.23,4.55,2.66,7.43,2.57c5.89-0.19,11.8,0.07,17.69-0.23c2.57-0.01,5.18,0.64,7.69-0.48
		C403.63,351.81,407.05,353.22,410.05,350.37z"/>
	<path class="st3" d="M107.2,356.12c-1.01-8.5,0.78-16.45,4.25-24.21c2.93-6.56,7.46-10.95,14.79-11.5
		c7.75-0.58,13.06,3.85,16.96,9.83c4.67,7.16,6.18,15.61,8.65,23.64c0.68,1.72-0.58,1.75-1.63,1.72c-2.76-0.08-5.54,0.4-8.27-0.28
		c-2.24-0.96-2.34-3.28-3.23-5.1c-0.52-1.06-1.02-2.39-2.49-1.97c-1.47,0.42-1.17,1.8-1.04,2.98c0.17,1.62,1.28,3.26-0.1,4.84
		C125.79,356.09,116.49,356.1,107.2,356.12z"/>
	<path class="st3" d="M46.64,356.23c0.55-9.91,2.33-19.47,8.42-27.67c6.14-8.27,12.83-9.75,23.23-6.14
		c1.67,0.58,2.91,1.16,1.61,3.37c-5.56,9.37-7.67,19.57-6.97,30.39C64.17,356.2,55.4,356.21,46.64,356.23z"/>
	<path class="st3" d="M79.31,356.17c-1.36-9.96,1.07-19.14,6.01-27.7c4.46-7.72,13.29-11.05,21.09-8.34
		c2.8,0.97,3.91,1.97,1.98,5.01c-6.01,9.43-8,19.94-7.56,30.99C93.65,356.14,86.48,356.16,79.31,356.17z"/>
	<path class="st4" d="M141.58,354.62c3.5,0.85,7.03,2.06,10.27-0.74c4.14,2.54,8.42,1.57,12.71,0.55c1.39-1.3,3.15-1.22,4.87-1.26
		c5.48-0.13,11.1,0.69,16.17-2.32c1.22,1.68,2.73,2.61,4.95,2.38c1.84-0.19,3.71,0.02,5.56-0.2c6.88-0.81,7.74-1.88,7.19-8.73
		c-0.18-2.24-0.28-4.51,0.06-6.73c0.21-1.4,0.41-3.11,2.65-2.43c0.47,4.95,1.06,9.92,0.94,14.89c-0.06,2.33,0.56,3.27,2.82,2.9
		c6.57-1.06,13.19-0.44,19.78-0.63c0.92-0.03,1.86,0.02,2.76-0.21c0.64-0.16,1.32-0.38,1.32-1.22c-0.01-1.03-0.77-1.32-1.6-1.37
		c-2.41-0.13-4.69,0.66-7.02,1.11c-1.55,0.3-3.17,0.89-4.65,0.07c-2.43-1.34-3.32-3.29-1.79-5.9c3.67,3.46,7.84,1.93,12.03,1.39
		c5.84-0.76,8.46,2.59,6.62,8.06c-1.55,0.92-3.26,0.88-4.99,0.88c-8.7,0-17.41,0.01-26.11,0.07c-1.39,0.01-2.94-0.49-4.12,0.76
		c-20.19,0.04-40.37,0.07-60.56,0.11C140.98,355.54,141.07,355.06,141.58,354.62z"/>
	<path class="st5" d="M141.58,354.62c-0.04,0.48-0.08,0.96-0.12,1.44c-2.12,0-4.25,0.01-6.37,0.01c0.13-2.04-0.92-3.81-1.31-5.73
		c-0.33-1.64,0.3-2.87,1.84-3.52c1.68-0.72,2.93,0.14,3.59,1.54C140.15,350.37,140.8,352.53,141.58,354.62z"/>
	<path class="st6" d="M925.32,347.6c-3.13,2.53-8.2,2.19-9.7-0.64c-1.07-3.33,0.52-6.12,2-8.84c2.48-4.55,4.92-9.15,8.46-13.03
		c4.28-6.35,10.47-10.39,17.07-13.89c6.42-3.4,6.53-3.84,2.13-9.82c-1.98-2.68-4.38-4.97-6.71-7.32c-2.8-2.82-3.59-6.04-2.31-9.83
		c0.97-2.88,1.9-5.78,2.69-8.73c2.07-7.69,1.45-15.2-1.28-22.61c-0.72-1.97-1.61-3.93-1.34-6.12c-0.19-2.75,1.28-4.7,3.11-6.51
		c3.08-3.05,6.09-6.16,9.12-9.25c1.05-1.99,2.19-3.9,3.6-5.68c1.86-2.33,2.89-5.07,2.98-8.06c0.16-5.16,0.52-10.37-0.12-15.46
		c-0.62-4.94-0.16-9.75,0.2-14.61c0.57-7.68,5.4-12.41,13.15-12.62c6.95-0.19,13.76,1.23,20.42,2.89c5.63,1.41,9.78,0.18,13.35-4.24
		c1.56-1.93,3.35-3.82,6.07-4.2c4.84-4.18,10.49-6.57,16.81-7.34c2.59-0.32,3.07-1.28,1.92-3.64c-1.96-4.03-3.65-8.19-5.46-12.3
		c-3.37-5.58-3.44-11.66-1.83-17.61c1.51-5.61,7.31-8.5,13.31-7.29c4.96,1,9.64,2.88,14.32,4.74c3.59,1.43,4.07,1.27,4.89-2.47
		c0.58-2.61,6.05-29.31,8.3-40.19c1.35-6.52,3.45-12.77,7.45-18.21c6.07-8.25,15.17-11.05,24.45-7.61c2.62,0.87,5.2,3.42,5.7,4.03
		c2.73,3.35,2.94,3.38,6.36,0.98c10.74-7.54,23.93-4.27,29.8,7.49c4.78,9.57,4.98,19.5,1.89,29.61c-3.49,9.8-5.92,19.91-8.58,29.95
		c-3.35,10.48-1.72,8.3,5.93,8.15c5.54-0.1,11.11-0.84,16.63,0.38c8.37,1.85,11.76,8.07,8.71,16.09c-1.72,4.53-4.52,8.38-7.97,11.71
		c-4.56,4.4-9.24,8.69-13.94,12.94c-3.54,3.2-5.52,6.84-3.45,11.58c2.11,4.82,5.14,8.61,11.13,8.42c0.26-0.01,0.52,0.11,0.77,0.17
		c14.09-0.29,27.48,3.75,40.99,6.84c9.46,2.16,12,6.48,10.17,15.85c-1.47,7.53-3.64,14.91-4.87,22.51
		c-1.29,7.99-2.01,15.99-2.06,24.08c-0.04,6.71-1.47,13.39-0.6,20.13c0.38,3.28,0.85,6.56,1.11,9.85c0.17,2.22,0.74,3.22,3.37,2.87
		c2.71-0.37,11.06,1.61,13.51,3.24c-0.87,1.15-7.6-0.77-8.77-0.89c-5.56-0.57-11.08-1-16.04,2.43c-0.63,0.44-1.48,0.62-2.14-0.16
		c-1.7-5.49-1.91-11.23-2.23-16.86c-1.18-20.65-0.93-41.24,4.55-61.45c2.54-9.36,2.28-9.73-7.3-11.33
		c-11.49-1.92-22.77-5.09-34.45-5.91c-5.19-0.89-6.08-0.7-8.62,3.94c-5.65,10.34-13.79,17.46-25.34,20.46
		c-0.71,0.97-4.53-1.28-2.52,2.46c2.23,3.14,4.62,6.16,7.1,9.09c4.34,5.12,11.37,7.04,17.73,4.96c3.23-1.06,5.48-3.2,6.65-6.37
		c1.75-4.75-2.29-10.33-7.26-8.41c-1.42,0.55-3.27,1.24-4.15-0.79c-0.76-1.75,0.55-3,1.69-4.13c4.89-4.84,13.37-3.9,18.28,2.04
		c1.81,2.18,2.96,4.68,3.62,7.44c3.93,16.28-3.52,30-19.7,35.92c-6.43,2.35-13.14,3.45-19.97,2.27c-3.36-0.58-5.29,0.59-6.66,3.5
		c-3.51,7.45-7.45,14.65-12.57,21.14c-3.15,4-6.78,7.43-11.36,9.79c-9.43,4.85-18.65,3.47-26.33-3.83
		c-8.18-7.78-14.31-17.01-19.62-26.85c-1.01-1.87-1.92-3.78-2.97-5.62c-1.34-2.36-3.16-3.12-5.95-2.78
		c-8.56,1.05-16.68-0.7-24.11-5.01c-9.91-5.76-14.64-17.38-11.67-28.33c1.23-4.53,3.56-8.31,8.32-9.93c3.73-1.28,7.93,0.36,9.15,3.5
		c0.75,1.91,0.25,3.35-1.95,3.18c-3.17-0.25-5.89-0.05-7.02,3.54c-1.12,3.58,0.27,7.81,3.41,10.33c4.64,3.73,12.51,3.68,17.47-0.11
		c3.46-2.64,5.93-6.03,7.64-10c0.1-0.24,0.22-0.48,0.34-0.72c3.25-6.96,3.15-6.73-3.66-9.63c-13.36-5.7-21.69-15.67-24.75-29.96
		c-0.57-2.65-0.01-5.65-2.19-7.85c-7.34-3.33-14.91-5.46-23.09-5.13c-3,0.12-4.4,1.17-4.29,4.24c0.2,5.55-0.06,11.09,0.59,16.65
		c1.5,12.76-4.01,22.86-12.85,31.52c-0.57,0.55-1.21,1.05-1.86,1.49c-3.66,2.49-4.79,5.57-2.98,9.85c3.87,9.15,3.38,18.39-0.4,27.43
		c-2.38,5.69-0.98,10.07,3.33,14.28c4.3,4.2,7.17,9.45,8.78,15.31c-0.62,2.11-4.12,0.51-4.12,2.85c0,2.14,2.88,2,3.92,3.52
		c0.84,1.23,2.37,2.25,1.25,4.08c-1.29,0.67-2.61,0.28-3.89,0.06c-9.2-1.58-15.73,3.02-21.56,9.23c-4.08,4.34-6.28,9.72-8.34,15.17
		C927.55,345.16,927.4,347.08,925.32,347.6z"/>
	<path class="st7" d="M789.97,137.19c-2.02-9.46-8.93-12.65-17.57-13.89c-26.74-3.83-53.67-3.98-80.61-4.5
		c-30.23-0.58-60.09,3.62-90.09,6.11c-24.6,2.05-49.01,5.36-73.22,10.21c-8.8,1.76-10.61,3.76-10.6,12.74
		c0.02,11.42,1.91,22.66,3.12,33.97c0.67,6.31,1.03,12.66,1.27,19c0.14,3.67-3.12,2.62-5.18,3.16c0.84-7.75-1.66-14.63-5.78-20.98
		c-5.42-8.35-10.22-16.95-13.07-26.58c-5.3-17.91,2.71-35.51,19.56-43.77c9.92-4.87,19.67-5.42,30.01-1.75
		c9.85,3.49,19.5,7.68,29.99,9.21c5.38,0.78,10.56,0.36,15.7-1.27c6.09-1.92,11.96-4.4,17.65-7.22c16.66-8.25,33.72-8.58,51.44-3.92
		c17.01,4.47,34.34,6.57,51.94,3.84c7.52-1.17,14.38-4.5,21.52-6.9c10.09-3.39,20.4-5.01,30.84-1.91
		c8.22,2.44,15.12,7.16,20.14,14.13C791.48,123.02,792.18,129.96,789.97,137.19z"/>
	<path class="st8" d="M172.86,172.09c-7.67,2.79-15.39,5.45-23,8.4c-9.44,3.65-14.55,10.31-16.08,20.67
		c-2.51,17.02,2.1,33.01,5.3,49.3c2.92,14.9,6.64,29.67,8.3,44.8c0.81,7.36,1.17,14.76,1.1,22.19c-0.03,3.46-1.35,3.06-3.54,1.73
		c-3.28-1.98-6.47-4.12-10.13-5.43c-3.59-1.28-7.25-1.07-10.91-0.92c0.54-0.54,1.92-0.17,1.47-1.76
		c-2.55-9.06-0.31-17.77,2.06-26.49c2.14-7.89,4.78-15.71,4.78-24.01c0.01-10.45-2.43-20.38-6.61-29.95
		c-3.17-7.25-6.92-14.31-8.51-22.16c-4.57-22.57,13.31-43.4,37.64-40.17C160.89,169.11,166.95,170.24,172.86,172.09z"/>
	<path class="st9" d="M1180.22,305.54c6.42-5.47,13.9-4.02,21.28-3.22c4.75,1.22,9.43,1.64,13.75-1.39
		c5.16-2.9,10.94-3.02,16.19-1.57c9.77,2.69,19.61,2.38,29.51,2.65c9.34,0.26,17.07,4.27,22.91,11.66c1.26,1.59,1.97,3.39,1.88,5.45
		c1.15,7.98,1.62,15.96,0,23.95c-2.11-1.64-2.11-4.16-2.63-6.43c-1.5-6.54-4.07-12.57-8.49-17.68c-6.66-7.71-13.13-7.14-22.04-4.93
		c-2.75,0.68-1.89,2.55-1.04,4.37c3.19,6.83,6.1,13.77,6.41,21.45c0.12,2.94,1.16,6.03-0.97,8.74c-0.8,2.39-2.67,2.46-4.72,2.21
		c-2.6-0.33-1.16-2.48-1.71-3.72c-0.74-0.69-0.9-1.62-0.92-2.55c-0.17-7.4-2.62-14.31-4.84-21.22
		c-3.52-10.92-14.16-16.25-25.05-12.92c-3,0.92-3.31,1.78-1.51,4.53c4.55,6.99,7.54,14.54,8.44,22.86c0.14,1.3,0.53,2.64-0.53,3.77
		c-0.07,1.44-0.18,2.89-0.19,4.33c-0.04,5.38-1.46,6.18-6.41,3.56c-1.49-1.69-0.88-3.76-1.04-5.69c-0.7-8.7-3.21-16.67-8.01-24.15
		c-7.24-11.28-23.09-8.1-29.21-0.65c-5.53,6.73-9.74,14.13-12.89,22.2c-1.04,2.65-1.56,5.63-3.99,7.57
		c-3.44,1.39-6.91,1.18-10.4,0.23c-0.56-0.72-0.46-1.53-0.17-2.27c4.39-11.19,7.91-22.8,15.4-32.53c1.88-2.58,4.06-4.9,6.46-7
		C1176.93,306.05,1178.21,304.68,1180.22,305.54z"/>
	<path class="st10" d="M1008.23,169.04c-0.25,0.28-0.55,0.54-0.76,0.86c-6.67,9.97-15.73,10.76-26.31,7.35
		c-3.96-1.28-8.31-1.52-12.58-1.38c-7.86,0.26-11.5,3.66-12.42,11.49c-0.72,6.19-0.22,12.36,0.05,18.54c0.13,2.9,0.2,5.81,0.28,8.71
		c0.19,6.83-2.56,12.26-7.93,16.42c-0.03-7.28-2.65-13.49-7.03-19.32c-6.75-8.97-9.98-18.91-6.36-30.19
		c4.42-13.81,18.99-23.26,34.8-22.65c7.56,0.29,14.55,2.7,21.54,5.22C996.99,166.07,1002.45,168.09,1008.23,169.04z"/>
	<path class="st7" d="M819.09,298.31c-4.46,0.65-8.87,1.44-12.98,3.4c-2.28,1.09-4.56,0.9-6.94,0.09
		c-4.63-1.58-9.25-3.33-14.24-3.29c-2.8,0.02-2.34-1.83-2.35-3.52c-0.03-9.99,2.36-19.62,4.49-29.26
		c3.39-15.33,7.01-30.61,10.58-45.9c0.51-2.18,1.3-4.29,1.93-6.44c1.63-5.59-0.78-9.99-6.42-11.63c-2.16-0.63-4.36-1.17-6.65-1.05
		c-2.93,0.16-4.02-0.83-2.34-3.61c3.93,1,7.88-0.26,11.83,0.19c13.91,1.56,22.38,12.25,20.74,26.19
		c-1.18,10.09-5.32,18.92-11.18,27.13c-4.69,6.57-9.05,13.37-9.1,21.93c-0.05,8.1,3.58,13.81,10.81,17.4
		C811.63,292.12,816.08,294.21,819.09,298.31z"/>
	<path class="st8" d="M379.26,305.37c-1.89-15.25-1.56-30.56-1.3-45.86c0.31-18.13-0.54-36.19-2.07-54.26
		c-0.92-10.89-1.19-21.84-2.65-32.68c8.86,6.22,16.32,13.4,18.23,24.78c1.53,9.13,0.65,17.96-2.93,26.44
		c-2.65,6.3-4.07,12.83-4.87,19.56c-0.53,4.47,0.28,8.66,2.45,12.63c1.84,3.36,3.61,6.77,5.22,10.25
		c6.53,14.18,3.86,24.41-8.81,33.42C380.41,301.14,379.1,302.75,379.26,305.37z"/>
	<path class="st11" d="M436.07,352.47c-4.92,1.16-9.91,0.51-14.87,0.52c0.54-4.08,3.61-6.78,5.61-10.04
		c0.45-0.74,1.06-1.42,1.41-2.25c2.57-6.91,3.45-14.02,3.07-21.4c-0.68-13.28,6.3-24.47,17.17-28.02c4.83-1.57,9.68-1.27,14.49,0.21
		c4.08,1.26,8,2.98,11.46,5.42c7.14,5.02,14.84,4.9,22.83,3.09c2.07-0.47,4.13-0.92,6.2-1.38c3.39-1.34,6.76-1.11,9.86,0.64
		c3.85,2.16,7.91,4.1,10.75,7.69c-0.42,1.78-1.86,1.63-3.17,1.57c-1.34-0.06-2.64-0.47-3.81-1.09c-8.24-4.39-16.49-4.35-24.82-0.24
		c-2.79,1.37-5.43,0.51-7.99-0.83c-3.79-1.99-7.77-3.32-12.07-3.79c-11.92-1.3-21.32,8-25.93,17.61
		c-4.38,9.14-6.39,19.03-8.76,28.79C437.23,350.22,437.48,351.69,436.07,352.47z"/>
	<path class="st12" d="M1189.01,288.05c-1.22-10.09-0.94-20.23-0.36-30.32c0.72-12.42,3.73-24.49,6.72-36.56
		c2.22-8.93-0.65-12.45-10.09-14.77c-13.19-3.24-26.56-5.52-39.92-7.76c2.15-0.02,3.81-0.51,5.21-2.56
		c1.94-2.85,5.05-3.62,8.48-2.97c3.02,0.58,5.9,1.59,8.63,2.94c4.43,2.18,9.09,2.99,13.91,2.34c4.27-0.58,8.51-0.3,12.68,0.21
		c11.89,1.46,15.53,9.51,13.87,21.83c-0.48,3.56-2,6.84-4.27,9.7c-4.95,6.24-5.88,13.35-4.89,21c0.37,2.86,0.3,5.8,0.22,8.7
		c-0.12,4.29-1.49,8.27-5.13,10.68c-5.01,3.32-5.24,8.13-5.15,13.24C1188.95,285.18,1189.55,286.61,1189.01,288.05z"/>
	<path class="st10" d="M936.33,246.79c5.52,11.35,6.66,22.99,1.83,34.82c-2.3,5.64-1.66,10.03,3.48,13.84
		c3.42,2.53,5.6,6.27,7.55,10.07c1.14,2.22,0.95,3.55-1.54,4.61c-8.28,3.53-15.31,8.84-21.41,15.4c-0.31,0.14-0.62,0.12-0.9-0.08
		c-0.57-2.84,0.24-5.58,1.1-8.15c2.21-6.58,1.07-12.73-1.69-18.8c-0.87-1.92-1.84-3.8-2.56-5.78c-2.63-7.26-0.94-13.76,4.73-18.67
		c5.49-4.75,7.89-10.3,7.44-17.4C934.15,253.25,934.23,249.79,936.33,246.79z"/>
	<path class="st11" d="M842.6,300.83c-0.55-0.01-1.1-0.02-1.64-0.02c12.53-16.33,35.41-13.75,43.79,4.95
		c0.91,2.04,1.93,4.13,2.3,6.3c2.1,12.14,8.13,21.82,17.92,29.24c2.3,1.09,1.89,2.74,1,4.56c-0.65,1.33-1.66,2.31-2.71,3.28
		c-4.45,1.18-9,0.79-13.52,0.87c-1.12,0.02-1.56-0.76-2.04-1.53c-1.87-0.8-1.4-2.65-1.78-4.08c-2.52-9.58-4.2-19.44-8.95-28.31
		c-3.19-5.96-7.64-10.77-13.61-14.1c-5.15-2.87-10.53-3.33-16.14-1.6C845.72,300.86,844.22,301.54,842.6,300.83z"/>
	<path class="st3" d="M428.22,340.69c-1.23,4.73-4.44,8.33-7.02,12.29c-1.42,0.02-2.89,0.4-4.17-0.59
		c-1.25-9.51-3.78-18.63-9.33-26.58c-5.15-7.38-12.48-10.95-21.46-10.34c-4.41,0.3-5.59-1.75-5.71-5.43
		c6.62-3.48,13.33-6.61,21.15-4.71c10.35,2.52,16.7,9.13,19.67,19.19c1.42,4.81,1.54,9.95,3.65,14.55
		C425.43,340.02,425.59,343.34,428.22,340.69z"/>
	<path class="st3" d="M46.5,327.66c-0.25-0.3-0.67-0.58-0.71-0.91c-1.34-9.86-1.34-19.74-0.2-29.62c8.77-3.27,16.04-0.24,22.6,5.45
		c6.06,5.26,13.25,6.2,20.81,5.51c4.36-0.4,8.69-0.77,13,0.19c3.39,0.75,6.06,2.53,7.63,5.73c-0.91-0.03-1.87,0.12-2.72-0.13
		c-6.08-1.74-11.99-1.34-17.88,0.92c-4.35,1.67-8.82,1.3-13.24,0.16C62.71,311.58,53.53,317.14,46.5,327.66z"/>
	<path class="st7" d="M523.43,306.98c-1.66-1.08-3.47-1.99-4.95-3.28c-4.35-3.76-9.42-5.17-15.04-5.08
		c0.95-9.31,4.99-17.29,10.45-24.72c1.92-2.62,3.43-5.54,5.13-8.32c2.6,11.28,4.82,22.63,6.42,34.09c0.12,0.89,0.46,1.76,0.7,2.64
		C527.73,306,527.15,306.99,523.43,306.98z"/>
	<path class="st13" d="M329.19,189.87c1.05-0.1,2.1-0.28,3.15-0.3c4.97-0.07,6.17,0.96,6.2,5.95c0.05,9.02-1.37,17.93-2.13,26.89
		c-1.59,18.59-2.7,37.21-2.49,55.89c0.02,1.46,0.03,2.91-0.01,4.37c-0.18,6.88-1.22,8.05-8,8.69c-29.7,2.82-59.47,5.05-88.97,9.71
		c-7.99,1.26-15.94,2.73-23.9,4.2c-10.58,1.96-15.98-0.73-19.17-10.92c-3.24-10.34-5.79-20.9-8.38-31.43
		c-3.79-15.41-8.27-30.66-10.95-46.34c-1.14-6.64-0.67-7.67,6.09-10.62c1.45,0.08,1.92,1.29,2.49,2.29
		c7.07,12.26,22.18,17.72,37.06,13.03c2.77-0.87,5.5-1.91,8.26-2.83c7.32-2.13,13.83-5.68,19.73-10.55
		c5.75-4.75,12.32-5.32,18.99-2.22c15.99,7.45,31.27,6.14,46.03-3.2c1.12-0.45,2.07-1.19,3.09-1.82
		C321.28,197.9,324.7,193.24,329.19,189.87z"/>
	<path class="st8" d="M270.34,352.75c-2.47,1.34-5.14,0.66-7.72,0.7c-6.42,0.09-12.83-0.01-19.25-0.03
		c-1.62-2.13-1.49-4.73-1.84-7.18c-0.74-5.2-1.82-6.03-7.1-5.06c-1.96,0.36-3.9,0.78-5.86,1.13c-3.03,0.54-4.88-0.58-5.4-3.7
		c-0.26-1.57-0.55-3.13-0.85-4.69c-0.82-4.33-1.89-5.26-6.4-5.41c-4.27-0.14-8.48,0.52-12.59,1.53c-3.95,0.97-5.09,2.85-4.84,6.98
		c0.11,1.81,0.93,3.65-0.22,5.42c-1.17,0.97-2.51,0.51-3.81,0.48c-4.4-0.1-8.69,0.58-12.88,1.85c-8.37,2.53-11.31,1.59-16.71-5.41
		c-1.61-2.08-3.16-4.2-4.48-6.47c-1.4-6.38-1.17-12.89-1.48-19.35c-1.03-21.86-5.22-43.22-9.88-64.55
		c-2.84-12.99-6.46-25.87-6.35-39.42c0.08-10.11,4.06-16.92,13.64-20.49c7.31-2.72,14.53-5.66,21.79-8.51
		c0.92,2.59-0.09,5.18-0.05,7.77c0.05,3.26,0.4,6.29,2.43,8.95c-2.57,0.88-5.15,1.61-7.52,3.1c-7.87,4.91-9.48,8.26-7.64,17.42
		c1.73,8.64,3.58,17.26,5.38,25.88c0.32,5.84-1.78,11.34-2.34,17.08c-1.4,14.28,3.37,25.52,15.51,33.46
		c1.95,5.17,3.74,10.35,7.62,14.61c6.33,6.93,14.73,7.53,22.42,5.42c17.9-4.92,31.76,1.82,44.73,12.78
		c5.04,4.26,10.25,8.35,14.26,13.69C275.19,345.8,274.28,350.06,270.34,352.75z"/>
	<path class="st8" d="M348.37,196.27c-0.06-0.25-0.19-0.51-0.18-0.76c0.37-9.16-4.13-14.23-13.09-15.57
		c-0.56-0.81-0.64-1.73-0.42-2.64c1.05-4.36,1.44-8.77,1.31-13.24c-0.02-0.8,0.24-1.55,0.82-2.14c5.84,0.27,11.59,1.18,17.22,2.68
		c4.67,1.25,6.86,5.05,7.55,9.33c1.41,8.73,2.47,17.52,3.39,26.31c1.9,18.15,2.61,36.35,2.92,54.6c0.28,15.84,0.92,31.7,1.57,47.54
		c0.15,3.8,0.85,7.61,1.64,11.34c0.51,2.4,0.38,3.19-2.35,2.44c-5.64-1.57-11.3-1.12-16.83,0.68c-3.9,1.27-7.83,1.26-11.76,0.39
		c-3.76-0.83-7.51-1.68-11.39-1.44c-2.28,0.14-2.56-0.72-1.48-2.51c2.47-4.07,4.91-8.15,7.36-12.23c3.58-0.86,7.29-1.32,10.08-4.18
		c3.67-3.77,4.59-8.46,4.97-13.43c0.46-6.01-1.34-11.78-1.74-17.71c-0.49-7.42,0.79-14.41,3.85-21.19
		c5.57-12.33,5.47-25.07,2.31-37.96C353.17,202.65,350.09,199.83,348.37,196.27z"/>
	<path class="st14" d="M285.53,200.98c-6.14,0.27-13.12-1.76-18.87-7.1c-8.61-7.98-10.57-22.5-4.77-34.46
		c5.26-10.86,16.93-16.84,29.4-14.92c9.87,1.52,18.47,4.9,22.15,15.43c4.11,11.75,3.86,22.97-4.32,32.96
		C303.5,199.75,295.47,200.95,285.53,200.98z"/>
	<path class="st14" d="M248.97,180.63c-0.08,13.71-6.06,22.84-17.83,27.22c-11.29,4.2-24.34,1.34-31.88-7.05
		c-12.02-13.38-8.17-39.41,12.18-45.52c5.02-1.5,10.08-2.42,15.3-1.7C241.37,155.59,249.07,164.99,248.97,180.63z"/>
	<path class="st3" d="M410.05,350.37c0.08,1.77-0.34,3.09-2.55,2.74c-2.31-0.37-4.96,1.03-6.9-1.3c-2.27-0.7-2.3-3.01-3.33-4.6
		c-0.58-0.91-1.24-1.88-2.46-1.58c-1.3,0.32-1.17,1.55-1.23,2.6c-0.07,1.41,0.78,2.83-0.08,4.22c-4.88,1.41-9.89,0.44-14.83,0.8
		c-2.23,0.16-4.5-0.16-6.7,0.12c-3.17,0.4-4.7-0.66-4.48-3.92c1.1-4.46,2.16-8.93,3.99-13.2c3.01-7.03,7.46-12.22,15.7-12.5
		c8.47-0.29,13.61,4.87,17.63,11.45C407.66,339.85,408.35,345.29,410.05,350.37z"/>
	<path class="st13" d="M348.37,196.27c4.19,2.1,5.87,6.22,6.94,10.17c3.42,12.52,3.58,25.17-1.85,37.19
		c-4.68,10.35-5.35,20.74-3.07,31.69c1.34,6.42,1.11,12.92-2.05,18.93c-2.98,5.65-8.38,8.24-13.67,6.82
		c0.34-1.83,1.61-3.04,2.99-4.06c3.87-2.86,5.23-6.81,5.27-11.41c0.15-15.32,0.38-30.65,1.63-45.93
		C345.74,225.19,347.09,210.73,348.37,196.27z"/>
	<path class="st3" d="M361.3,352.7c-6.54,1.49-13.17,0.47-19.76,0.75c-2.32,0.1-1.52-2.02-2-3.21c1.16-6.64,2.9-13.09,6.54-18.88
		c4.64-7.37,13.4-10.72,20.89-8.01c2.67,0.97,4.07,1.89,1.93,5.2C364.19,335.82,361.99,344.07,361.3,352.7z"/>
	<path class="st3" d="M333.41,352.75c-7.95,0.77-15.91,1.43-23.91,1.37c-0.96-0.01-1.39-0.58-1.65-1.38
		c3.37-7.78,6.89-15.48,12.12-22.24c4.92-6.36,10.77-7.84,18.34-5.06c2.42,0.89,3.29,1.71,1.75,4.46
		C336.1,336.96,333.55,344.53,333.41,352.75z"/>
	<path class="st3" d="M308.72,326.82c-0.4,0.65-0.88,1.43-1.38,2.21c-3.32,5.25-6.56,10.55-9.06,16.23
		c-1.35,3.07-3.19,3.43-5.41,1.3c-5.06-4.85-10.05-9.77-14.86-14.86c-2.18-2.3,1.1-8.35,4.77-8.43c6.38-0.15,12.65-1.1,18.96-1.8
		C304.73,321.14,308.9,324.44,308.72,326.82z"/>
	<path class="st13" d="M183.89,294.23c-1.82,1.08-3.01-0.24-4.17-1.23c-8.86-7.59-13.32-17.2-12.76-28.87
		c0.33-6.95,1.41-13.82,3.77-20.44c3.99,11.09,6.03,22.68,9,34.04C181.16,283.22,182.5,288.73,183.89,294.23z"/>
	<path class="st3" d="M160.41,332.89c2.92,1.6,4.39,4.52,6.28,7.03c3.94,5.22,7.16,6.23,13.44,4.08c5.74-1.96,11.6-2.62,17.62-1.69
		c2.61,2.9,2.18,6.02-1.4,7.41c-3.29,1.28-6.8,2.09-10.43,1.54c-6.43,5.63-14.18,2.45-21.35,3.18
		C162.47,347.39,160.79,340.27,160.41,332.89z"/>
	<path class="st14" d="M228.44,218.43c-13.09,10.51-37.17,5.94-45.7-8.69c-0.73-1.25-1.41-2.53-2.11-3.8
		c5.78-3.89,7.58-3.68,12.1,1.19c8.14,8.77,18.4,12.15,30.16,11.58C224.73,218.63,226.59,218.53,228.44,218.43z"/>
	<path class="st14" d="M266.22,321.02c-5-3.45-9.83-7.16-15.32-9.85c-0.8-0.39-1.91-0.73-1.59-1.92c0.24-0.88,1.23-0.86,2.01-0.97
		c6.7-0.88,13.4-1.74,20.09-2.66c2.07-0.28,3.41,0.35,3.63,2.54c0.27,2.73,0.45,5.47,0.67,8.21
		C272.95,318.74,269.48,319.67,266.22,321.02z"/>
	<path class="st14" d="M306.78,309.66c0-6.99,0-7.01,6.32-7.71c3.28-0.36,6.56-0.68,9.85-0.98c2.23-0.2,2.55,0.72,1.48,2.53
		c-3.02,5.1-6.02,10.22-8.99,15.35c-1.1,1.9-2.17,2.32-4.01,0.68C308.25,316.67,305.55,313.73,306.78,309.66z"/>
	<path class="st14" d="M336.81,161.91c0.99,6.16,0.11,12.14-1.72,18.02c-6.3,0.65-8.52-1.22-9.01-7.35
		c-0.25-3.14-0.65-6.29-1.19-9.4c-0.45-2.6,0.42-3.42,2.96-2.89C330.82,160.91,333.82,161.38,336.81,161.91z"/>
	<path class="st3" d="M282.46,312.27c-1-1.06-0.7-2.48-1.06-3.72c-0.83-2.88,0.43-4.33,3.26-4.42c4.87-0.17,9.78-1.73,14.62,0.2
		c0.66,1.81-0.05,3.18-1.63,3.94c-4.04,1.93-8.2,3.59-12.45,5.01C284.08,313.64,283.13,313.27,282.46,312.27z"/>
	<path class="st14" d="M180.51,197.29c-1.19-0.36-2.79-0.13-2.96-1.99c-0.45-4.94-1.57-9.9,0.58-14.74
		c0.94-0.45,1.87-0.93,2.83-1.36c1.52-0.68,2.26-0.09,2.23,1.49c-0.08,3.95,0.64,7.79,1.38,11.65
		C185.15,195.39,182.68,196.3,180.51,197.29z"/>
	<path class="st3" d="M270.34,352.75c3.08-3.54,2.28-7.91,2.58-12.04c5.2,2.7,8.07,8.08,12.92,11.18c0.01,0.38,0.12,1.08,0.02,1.11
		c-4.84,1.53-9.79,1.62-14.78,1.04C270.79,354.01,270.59,353.2,270.34,352.75z"/>
	<path class="st3" d="M282.46,312.27c3.31,0.86,5.7-1.51,8.51-2.41c1.89-0.61,3.71-1.41,5.58-2.07c1.67-0.59,2.69-1.63,2.73-3.46
		c1.37,2.69,0.75,5.6,0.86,8.42c0.07,1.75-1.46,1.97-2.8,2.12c-3.67,0.41-7.35,0.77-11.02,1.2
		C283.4,316.41,282.07,315.24,282.46,312.27z"/>
	<path class="st14" d="M329.19,189.87c-2.96,5.29-7.72,8.62-12.73,11.67c-1.41,0.66-1.95,0.25-1.35-1.21
		c0.28-0.68,0.92-1.19,1.34-1.81c1.79-2.55,3.45-5.21,5.41-7.62C323.87,188.4,326.65,189.6,329.19,189.87z"/>
	<path class="st14" d="M266.22,321.02c2.58-2.73,6.06-3.63,9.48-4.66c0.44,3.02-1.48,5.12-2.95,7.38c-0.84,1.3-1.95,1.68-3.25,0.54
		C268.35,323.26,266.89,322.53,266.22,321.02z"/>
	<path class="st14" d="M316.44,198.52c0.89,1-2.46,2.02,0.01,3.02c-0.93,0.89-1.97,1.35-3.27,0.92
		C313.8,200.77,314.99,199.53,316.44,198.52z"/>
	<path class="st10" d="M1170.16,314.43c-7.58,10.49-11.43,22.71-16.17,34.52c-2.01,1.18-4.32,0.99-6.47,1.19
		c-3.62,0.32-1.38-2.84-2.17-4.25c-1.13-3.77-2.84-7.13-6.4-9.22c-6.11-4.95-12.81-7.29-20.76-5.21c-3.07,0.8-5.92-0.48-8.44-2.32
		c-2.23-1.15-4.13-2.79-6.25-4.1c-2.98-2.45-5.79-0.88-8.61,0.38c-0.35,0.16-0.72,0.27-1.09,0.37
		c-9.57,2.17-15.51,10.44-14.44,20.11c0.22,1.97,0.63,4-1.53,5.28c-1.93,0.18-3.86,0.35-5.76-0.26c-3.53-4.82-7.85-8.92-12.06-13.12
		c-2.89-2.88-4.42-6.59-5.95-10.23c-3.28-7.8-8.61-14.07-15.17-19.06c-6.87-5.23-15-5.89-23.1-3.09c-8.39,2.9-15.66,2.11-22.43-4.11
		c-4.9-4.5-10.63-4.07-15.84,0.27c-2.64,2.2-4.76,4.96-7.79,6.75c-2.36,1.39-4.74,2.36-7.53,1.86c-0.63-0.14-1.18-0.41-1.57-0.95
		c-3.47-6.84-7-13.58-12.78-18.94c-2.43-2.25-2.34-5.58-1.07-8.57c4.81-11.3,5.15-22.57-0.06-33.83c-1-2.15,0.4-3.13,1.75-4.26
		c6.78-5.65,12.64-11.93,15.71-20.52c1.86-5.19,1.8-10.37,1.34-15.64c-0.49-5.67-0.89-11.32-0.49-17.02
		c0.19-2.69,1.39-3.65,3.99-3.76c8.81-0.38,17.09,1.46,24.93,5.42c-0.22,4.46-1.65,8.74-1.51,13.31c0.24,7.53,3.05,13.79,7.96,19.32
		c5.81,6.55,12.99,11.16,20.79,14.93c1.15,0.55,2.6,0.73,3.15,2.17c-3,9.24-10.15,14.27-19.04,13.39
		c-6.88-0.68-11.81-6.02-11.43-12.38c0.31-5.27,3.01-7.36,8.24-6.34c0.66,0.13,1.45,0.46,1.75-0.23c0.2-0.48-0.07-1.29-0.37-1.82
		c-2.08-3.72-7.42-4.23-11.08-0.97c-4.68,4.18-5.84,9.77-5.23,15.6c1.1,10.6,6.88,17.86,16.98,21.42
		c6.31,2.23,12.84,3.46,19.56,2.26c2.9-0.52,4.41,0.72,5.63,3.13c4,7.93,8.42,15.61,13.74,22.76c3.18,4.27,6.81,8.16,10.81,11.63
		c8.15,7.06,20.3,6,29.28-2.34c5.52-5.12,9.45-11.4,13.01-17.93c1.39-2.56,2.82-5.13,3.87-7.83c1.58-4.09,3.96-5.24,8.54-4.7
		c12.3,1.47,23.48-1.49,32.39-10.68c6.99-7.21,8.89-21.71,4.07-30.51c-4.21-7.7-13.7-9.73-18.96-4.04c-0.8,0.86-2.02,1.86-1.24,3.04
		c0.77,1.18,1.89,0.01,2.82-0.32c2.72-0.97,5.28-0.82,7.32,1.4c2.11,2.29,2.89,4.97,1.86,8.06c-2.88,8.65-16.39,11.46-23.76,4.73
		c-3.9-3.56-7.36-7.61-9.84-12.36c0.5-2.12,2.28-1.96,3.8-1.98c2.58-0.04,4.96-0.64,7.16-1.95c9.93-4.63,17.87-11.43,23.28-21.04
		c0.63-1.12,1.25-2.36,2.74-2.63c4.08,0.48,8.15,0.9,12.21,1.54c3.89,0.62,7.33,1.99,10,5.09c1.9,2.2,4.08,4.16,6.16,6.2
		c3.22,3.14,3.97,6.76,2.28,10.88c-2.77,6.75-4.9,13.71-6.61,20.79c-4.11,16.98-3.91,33.81,1.97,50.41
		c0.76,2.14,1.98,4.03,3.21,5.92C1170.39,311.39,1171.11,312.78,1170.16,314.43z"/>
	<path class="st7" d="M534.47,275.6c-2.83-17.76-7.54-35.12-11.13-52.72c-0.34-1.68-0.4-3.41-0.62-5.12
		c-0.3-2.37,0.58-3.8,3.07-4.16c13.51-1.97,27.02-3.83,40.73-3.59c1.02,0.65,1.2,1.69,1.1,2.75c-0.47,5.02,0.32,9.87,1.85,14.63
		c0.36,1.12,0.65,2.27,0.09,3.43c-3.21,0.87-6.58-0.03-9.85,1.4c-5.58,2.45-8.3,8.91-5.49,14.28c0.37,0.71,0.78,1.46,1.73,1.37
		c0.91-0.09,1.29-0.83,1.49-1.63c0.39-1.55,0.26-3.15,0.28-4.72c0.03-2.69,1.22-4.58,3.76-5.44c2.82-0.96,5.05-2.8,7.35-4.56
		c0.6-0.61,1.3-0.46,1.68,0.1c2.32,3.43,5.45,6.32,6.99,10.28c-11.49,10.11-14.1,22.7-9.57,36.78c4.96,15.44,15.44,27.11,27.9,36.9
		c17.66,13.88,37.66,22.1,60.44,22.6c14.59,0.32,28.02-3.93,40.87-10.4c17.96-9.05,33.59-20.79,44.17-38.31
		c4.78-7.91,8.11-16.36,9.69-25.48c1.89-10.96-0.74-20.48-9.01-28.21c-0.47-0.44-0.8-1.02-1.2-1.53c-0.18-0.49-0.51-1-0.4-1.5
		c1.53-7.04,2.22-14.12,1.35-21.3c-0.08-0.64,0.31-1.25,0.8-1.72c13.79,0.35,27.48,1.9,41.18,3.31c3.06,0.31,3.98,1.77,3.31,4.84
		c-4,18.48-7.87,36.98-11.77,55.48c-0.22,1.03-0.37,2.08-0.55,3.12c-1.72,7.12-6.2,12.83-10.13,18.71
		c-10.59,15.85-19.57,32.68-29.96,48.64c-1.55,2.38-2.4,5.36-5.35,6.62c-1.35,1.82-3.34,1.3-5.13,1.31
		c-36.99,0.14-73.98,0.3-110.97,0.31c-3.95,0-7.88,1.4-11.83,0.15c-3.43-1-5.03-4.07-7.09-6.51c-10.33-12.25-20.97-24.24-31.4-36.41
		c-8.54-9.96-17.48-19.56-25.87-29.65C535.95,278.39,535.23,276.99,534.47,275.6z"/>
	<path class="st11" d="M515.25,353.66c-2.16-12.79,0.42-24.33,8.88-34.42c11.35-13.54,27.38-8.16,35.3,1.49
		c4.65,5.66,7.72,12.29,10.68,18.89c1.93,4.31,5.21,7.94,6.24,12.67c-5.12,1.03-10.3,0.8-15.41,0.29c-2.24-0.22-4.48-0.19-6.71-0.42
		c-1.65-1-1.83-2.82-2.42-4.38c-0.98-2.6-2.1-5.13-3.88-7.29c-0.88-1.07-2.08-1.92-3.42-0.94c-1.23,0.9-0.56,2.15,0.01,3.2
		c0.75,1.39,1.69,2.69,2.21,4.19c0.45,1.3,1.53,2.55,0.62,4.07c-0.38,0.76-0.94,1.22-1.84,1.24
		C535.4,352.55,525.4,354.67,515.25,353.66z"/>
	<path class="st11" d="M749.36,351.68c3.58-12.21,7.93-24.11,16.3-33.99c5.63-6.65,12.81-9.57,21.61-7.47
		c0.63,0.15,1.31,0.09,1.97,0.12c5.02-0.48,8.59,2.32,11.53,5.69c7.71,8.82,10.2,19.38,9.53,30.85c-0.06,1.03-0.18,2.13-1.35,2.65
		c-0.57,1.01-1.38,1.44-2.59,1.43c-9.54-0.06-19.08-0.05-28.62-0.1c-0.49,0-0.98-0.34-1.47-0.52c-1.08-1.73-0.12-3.3,0.41-4.88
		c0.5-1.5,1.37-2.83,2.13-4.22c0.8-1.47,2.13-3.35,0.06-4.44c-1.92-1.01-3.04,0.98-3.92,2.41c-1.32,2.13-2.33,4.41-3.07,6.82
		c-0.53,1.74-0.93,3.58-2.4,4.89C762.74,350.65,756.09,352.25,749.36,351.68z"/>
	<path class="st9" d="M808.94,349.53c1.14-9.68-0.27-18.87-5.15-27.44c-3.33-5.83-8.15-9.74-14.55-11.74
		c-0.54-1.26,0.04-1.88,1.21-1.53c3.26,0.99,5.66-0.82,8.56-1.66c9.4-2.72,18.87-7.69,29.17-3.26c0.96,0.41,2.03,0.6,2.95,1.07
		c2.24,1.14,4.38,2.43,5.42-1.37c0.32-1.18,1.59-1.25,2.68-1.24c1.37,0.01,2.66-0.12,3.37-1.53c13.77-5.78,26.54-0.84,34.67,13.41
		c2.23,3.92,4.01,8.04,5.15,12.39c1.9,7.25,4.6,14.3,5.28,21.84c-1.07,2.67-3.4,1.31-5.18,1.53c-1.56,0.19-3.16-0.02-4.75-0.06
		c-1.26-1.26-0.99-2.93-1.24-4.47c-1.82-11.19-4.46-22.07-12.06-31.02c-4.44-5.23-13.49-6.85-19.3-3.46
		c-1.99,1.16-0.86,2.52-0.24,3.72c3.63,7.14,6.15,14.66,7.22,22.58c0.47,3.51,1.75,7.27-0.96,10.57c-0.82,4.07-1.94,4.53-6.35,2.57
		c-1.67-2.97-0.79-6.21-0.92-9.32c-0.34-8.7-2.81-16.64-8.11-23.61c-5.07-6.66-16.32-9.8-24.13-6.84c-3,1.14-3.41,2.19-1.82,5.54
		c3.32,6.98,5.84,14.23,6.57,21.92c0.36,3.77,1.62,7.82-1.1,11.37C813.34,352.26,810.81,352.28,808.94,349.53z"/>
	<path class="st9" d="M960.62,309.23c0.65,0.09,1.3,0.18,1.95,0.27c1.7,0.21,3.47,0.2,5.06,0.86c2.68,1.11,5.1,0.55,7.66-0.51
		c6.43-2.66,12.93-2.72,19.23,0.36c4.86,2.38,9.66,3.1,14.96,1.39c13.12-4.25,23.1,0.11,31,11.1c5.71,7.93,9.41,16.81,13.55,25.5
		c0.23,0.49,0.21,1.02,0.06,1.55c-2.52,2.39-5.32,1.9-8.17,0.77c-1.63-0.53-1.89-2.09-2.51-3.36c-3.36-6.89-6.78-13.75-11.31-19.96
		c-5.17-7.09-10.76-9.23-18.11-7.26c-4.41,1.18-4.83,1.98-2.75,5.95c2.85,5.43,4.66,11.19,5.82,17.19c0.3,1.57,0.62,3.14-0.53,4.54
		c-0.1,4.87-0.8,5.27-6.44,3.71c-1.75-1.9-1.64-4.42-2.11-6.71c-1.16-5.61-2.53-11.15-5.59-16.05c-4.23-6.78-9.94-11.34-18.49-11.05
		c-1.34,0.05-2.64,0.24-3.91,0.65c-3.38,1.1-3.85,2.04-2,5.13c3.52,5.89,5.49,12.32,7,18.92c0.35,1.52,0.95,3.1-0.29,4.54
		c-0.33,5.3-1.24,5.84-6.45,3.83c-1.74-1.77-1.32-4.21-1.91-6.33c-2.18-7.8-4.14-15.67-10.5-21.45c-1.31-1.19-3.44-1.67-3.71-3.87
		c-1.05-1.82-1.88-3.86-4.13-4.56c-1.74-0.55-3.54-1.15-2.82-3.44c0.63-2,2.47-2.08,4.27-1.84
		C959.84,309.14,960.23,309.18,960.62,309.23z"/>
	<path class="st11" d="M815.33,349.49c1.46-12.25-1.6-23.56-7.43-34.18c-1.46-2.66-1.06-3.77,1.58-5.04
		c8.57-4.12,21.24-1.39,27.02,6.12c7.78,10.11,9.86,21.65,8.35,34.05c-0.92,0.89-2.05,1.19-3.27,1.01
		c-7.62-1.17-15.28-0.3-22.92-0.54C817.35,350.86,815.93,351.14,815.33,349.49z"/>
	<path class="st11" d="M479.37,353.3c-0.61-13.55,2.22-26,11.62-36.38c8.68-9.59,15.68-7.89,24.95-1.96c2.04,1.3,0.48,2.2-0.05,3.18
		c-5.97,10.96-9,22.51-7.24,35.05C498.89,354.17,489.13,353.89,479.37,353.3z"/>
	<path class="st11" d="M446.05,352.58c1.25-10.11,2.98-20.17,7.77-29.27c6.65-12.62,13.52-14.22,24.6-11.42
		c5.29,1.33,5.33,2.46,2.62,7c-6.05,10.14-8.05,21.34-8.27,32.96c-0.55,0.34-1.1,0.98-1.64,0.97
		C462.77,352.77,454.4,353.61,446.05,352.58z"/>
	<path class="st11" d="M851.19,347.86c1.13-12.16-2.42-23.28-8.02-33.8c-1.59-2.98-0.85-3.8,1.97-4.52
		c12.88-3.25,19.47-0.22,25.41,11.82c4.45,9.01,6.95,18.52,7.22,28.58c-7.66,0.27-15.33,0.48-22.99,0.86
		C852.47,350.92,851.28,350.19,851.19,347.86z"/>
	<path class="st15" d="M583.28,351.33c-4.82-13.18-10.91-25.69-19.96-36.55c-5.46-6.55-11.98-11.45-21.01-11.91
		c-1.56-0.08-3.1-0.59-4.65-0.9c-1.65-6.88-1.48-14-2.62-20.95c-0.29-1.79-0.39-3.62-0.57-5.42c7.08,7.99,14.21,15.93,21.24,23.96
		c12.61,14.42,25.15,28.89,37.71,43.36c2.67,3.07,5.29,6.19,7.93,9.29C595.25,353.33,589.28,352.02,583.28,351.33z"/>
	<path class="st16" d="M185.92,351.25c2.35-1.3,4.93-1.62,7.55-1.92c5.13-0.58,5.94-1.98,4.28-7.03c-0.19-2.23-0.38-4.45-0.57-6.67
		c-0.32-3.66,1.6-5.83,4.91-6.64c5.15-1.25,10.41-1.75,15.73-1.55c3.49,0.13,5.17,1.86,5.67,5.31c1.32,9.02,1.4,9.01,10.6,7.26
		c6.82-1.3,8.05-0.34,8.67,6.72c0.19,2.23,0.41,4.46,0.61,6.68c-1.91,1.26-4.08,0.6-6.13,0.82c-1.09-8.03-1.21-8.11-9.12-6.43
		c-0.9,0.19-1.87,0.17-2.71,0.5c-3.54,1.41-5.7,0.25-6.66-3.35c-1.65-1.27-1.82-3.21-2.07-5c-0.49-3.52-2.48-4.64-5.82-4.26
		c-1.65,0.19-3.42,0.91-4.97-0.4c-2.25,0.28-1.73,2.04-1.66,3.37c0.17,3.16,0.5,6.31,0.8,9.47c0.21,2.18-0.26,3.75-2.63,4.64
		c-5.25,1.98-10.68,1.87-16.08,1.5C183.2,354.06,185.92,352.3,185.92,351.25z"/>
	<path class="st12" d="M1139.15,350.24c-14.74,0.32-29.48,0.66-44.22,0.95c-1.53,0.03-3.18,0.46-4.57-0.66
		c-1.21-1.42-0.64-3.01-0.38-4.55c0.69-4.2,1.82-8.29,3.51-12.18c2.89-6.65,8.84-7.3,13.26-1.58c1.3,1.69,2.09,3.68,3.21,5.48
		c1.92,3.1,4.59,4.63,8.32,4.24c3.04-0.32,6.06-0.75,9-1.56c2.2-0.61,4.42-0.83,6.69-0.8c2.69,0.04,5.09,0.76,6.32,3.32
		C1141.52,345.51,1141.21,348.05,1139.15,350.24z"/>
	<path class="st17" d="M729.28,350.42c14.04-22.72,28.08-45.44,42.1-68.17c1.17-1.9,2.23-3.87,3.34-5.8
		c-0.91,6.78-2.15,13.52-2.29,20.38c-0.03,1.65-1.12,2.67-2.26,3.56c-12.59,9.81-19.66,23.17-24.81,37.85
		c-1.54,4.4-2.11,8.96-3.08,13.46c-3.39,0.05-6.78,0.09-10.16,0.14C730.92,351.87,729.74,351.88,729.28,350.42z"/>
	<path class="st18" d="M1139.15,350.24c0.18-1.04,0.42-2.07,0.54-3.12c0.53-4.45-1.17-6.31-5.76-6.44
		c-4.17-0.13-8.09,1.22-12.08,2.1c-7.38,1.63-10.27,0.45-13.99-6.18c-0.71-1.27-1.31-2.62-2.16-3.78
		c-3.76-5.16-8.68-4.68-11.16,1.25c-2.2,5.25-3.3,10.84-4.19,16.46c-1.88,1.73-3.76,2.39-5.64,0c-0.25-0.3-0.59-0.63-0.56-1.01
		c0.6-7.9,2.15-15.52,6.82-22.18c0.87-1.24,2.29-1.71,3.58-2.34l-0.01,0.02c3.01-1.62,6.1-2.36,9.38-0.76
		c1.84,1.31,3.69,2.61,5.53,3.92c1.7,1.14,2.89,2.71,3.75,4.52c1.56,3.25,4.2,4.16,7.56,3.59c2.74-0.46,5.52-0.92,8.15-1.69
		c3.99-1.18,7.47-0.37,10.93,1.47c3.57,2.31,6.37,5.05,5.51,9.83C1144.99,349.76,1142.99,351.31,1139.15,350.24z"/>
	<path class="st12" d="M1094.55,325c-7.53,6.88-7.97,16.47-9.84,25.53c-2.2,1.23-4.59,0.42-6.89,0.65
		c2.01-3.85-0.44-7.85,0.58-11.92C1080.05,332.64,1088.12,323.93,1094.55,325z"/>
	<path class="st19" d="M769.47,350.9c0.78-5.14,2.76-9.8,5.76-14.02c1.18-1.67,2.84-2.66,4.74-1.44c2.12,1.37,1.72,3.37,0.49,5.19
		c-2.02,2.98-3.6,6.12-4.2,9.7C774.12,352.02,771.83,351.86,769.47,350.9z"/>
	<path class="st20" d="M547.33,350.99c-1.14-2.79-2.25-5.58-4.06-8.04c-1.22-1.66-1.48-3.53,0.47-4.81
		c1.83-1.19,3.49-0.53,4.79,1.17c2.91,3.83,4.58,8.21,5.69,12.84C551.51,354.85,548.77,354.38,547.33,350.99z"/>
	<path class="st21" d="M1181.16,349.44c0.39-2.32,1.2-4.5,2.28-6.58c0.88-1.69,1.95-3.38,4.24-2.45c2.25,0.9,2.56,2.79,1.92,4.93
		c-0.41,1.38-0.82,2.76-1.24,4.14C1185.95,351.66,1183.54,352.22,1181.16,349.44z"/>
	<path class="st22" d="M940.69,349.78c0.75-1.79,1.51-3.57,2.24-5.36c0.91-2.22,2.19-4.04,4.94-3.3c3.05,0.82,2.19,3.4,2.12,5.51
		c-0.02,0.61-0.42,1.22-0.65,1.83C947,352.44,943.67,349.98,940.69,349.78z"/>
	<path class="st5" d="M393.5,352.45c-0.39-1.64-1.43-3.08-1.28-4.9c0.12-1.48-0.02-2.98,1.88-3.4c1.79-0.39,3.09,0.3,3.86,1.94
		c0.89,1.89,1.75,3.8,2.63,5.71C398.46,354.52,395.95,353.09,393.5,352.45z"/>
	<path class="st23" d="M1257.18,350.25c9.77,0.76,19.54,1.07,29.29-0.27c-0.12,1.76-1.45,1.59-2.63,1.6
		c-8.08,0.03-16.16,0.04-24.25,0.04C1258.56,351.62,1257.38,351.78,1257.18,350.25z"/>
	<path class="st3" d="M205.89,335.3c10.68-1.72,10.68-1.72,12.74,8.88c0.05,0.26,0.08,0.52,0.12,0.78c0.01,4.95,0.86,5.65,5.54,4.61
		c2.45-0.55,4.89-1.14,7.36-1.6c2.06-0.38,3.63-0.01,3.92,2.58c0.29,2.6-0.94,3.1-3.22,3.12c-7.93,0.07-15.87-0.31-23.79,0.49
		c-2.08,0.21-4.39,0.41-2.82-3.28c0.74-1.74-0.02-4.14-0.18-6.24C205.33,341.51,204.5,338.37,205.89,335.3z"/>
	<path class="st7" d="M721.72,186.08c-18.51-19.81-47.94-13.45-60.86-0.34c-1.11,1.13-2.33,2.16-3.46,3.27
		c-3.85,3.79-8.29,4.61-13.09,2.22c-5.55-2.76-11.12-5.44-16.96-7.54c-15.68-6.88-30.42-4.91-44.29,4.76
		c-1.73,1.21-3.36,2.57-4.93,4c-1.21,1.1-2.26,2.28-1.8,4.11c-13.17,1.45-26.35,2.89-39.52,4.36c-2.02,0.22-3.31-0.27-3.55-2.59
		c-1.58-15.41-3.37-30.79-4.77-46.22c-0.61-6.73-0.09-6.74,6.67-8.1c23.61-4.75,47.59-6.4,71.45-9.12
		c30.78-3.5,61.67-5.11,92.57-5.89c22.54-0.57,45.21,0,67.46,4.34c12.72,2.48,12.63,1.7,11.75,15.79c-0.93,15.04-3,30.01-4.33,45.04
		c-0.32,3.6-1.52,4.77-5.18,4.49c-11.1-0.83-22.25-1.06-33.32-2.41c-1.33-4.59-5.02-6.79-8.94-8.73
		C725.08,186.77,723.39,186.45,721.72,186.08z"/>
	<path class="st14" d="M720.97,215.5c0.12,16.34-10.48,29.21-25.15,32.05c-13.84,2.68-28.65-5.63-33.97-19.07
		c-1.81-4.59-2.75-9.39-3.34-14.27c-1.24-10.14,2.37-18.02,10.81-23.93c13.69-9.58,32.73-9.02,42.85,1.78
		C718.68,199.01,720.11,207.96,720.97,215.5z"/>
	<path class="st14" d="M647.94,226.01c0.05,14.27-8.79,26.15-21.66,29.16c-14.87,3.47-34.19-8.94-38.75-24.89
		c-4.16-14.56,4.74-30.67,19.9-36c21.19-7.46,39.23,5.26,40.49,28.57C647.99,223.89,647.94,224.95,647.94,226.01z"/>
	<path class="st24" d="M695.35,318c0.12,1.02-0.81,1.89-2.09,2.51c-7.77,3.83-15.8,6.89-24.37,8.41c-2.6,0.46-3.88-0.21-4.03-3.18
		c-1.18-22.47-2.76-44.92-4.92-67.32c-0.13-1.32-0.11-2.64-0.18-3.97c-0.12-2.4,1.16-3.09,3.26-2.52c1.79,0.48,3.58,1.03,5.28,1.74
		c3.55,1.5,7.1,2.9,10.99,3.33c3.36,0.37,5.69,2.3,6.31,5.71c3.25,17.97,6.42,35.96,9.61,53.94
		C695.26,316.91,695.27,317.18,695.35,318z"/>
	<path class="st25" d="M657.8,325.63c0.68,3.21-0.95,4.55-4.42,4.03c-5.23-0.78-10.46-1.58-15.69-2.39
		c-1.98-0.31-2.98-1.57-3.15-3.52c-0.5-5.92-1.32-11.83-1.42-17.75c-0.24-13.36-0.09-26.72-0.16-40.08
		c-0.01-2.01,0.41-3.52,2.35-4.59c4.4-2.43,8.71-5.03,13.04-7.6c2.06-1.22,3.54-1.39,3.6,1.65c0.43,22.88,3.86,45.5,5.76,68.26
		C657.74,324.17,657.76,324.7,657.8,325.63z"/>
	<path class="st26" d="M726.01,294.74c0.07,1.58-0.73,2.74-1.76,3.84c-5.19,5.55-11.3,9.98-17.47,14.32
		c-2.63,1.85-3.72,1.03-4.35-2.87c-2.12-13.18-4.34-26.33-8.1-39.17c-0.89-3.04-1.86-6.07-2.82-9.09c-0.65-2.03-0.27-3.45,2.14-3.59
		c4.75-0.27,9.02-2.14,13.2-4.11c2.9-1.36,4.75-0.86,6.09,2.03c5.66,12.17,9.42,24.97,12.94,37.86
		C725.94,294.21,725.96,294.48,726.01,294.74z"/>
	<path class="st27" d="M625.21,297.94c0.01,7.15-0.05,14.3,0.08,21.45c0.05,2.67-0.75,3.34-3.22,2.25c-5.73-2.53-11-5.87-16.17-9.34
		c-2.51-1.68-3.38-4.36-3.19-7.31c0.86-13.5,2.84-26.84,5.68-40.06c0.45-2.11,1.53-2.87,3.73-2.14c3.32,1.1,6.79,1.32,10.24,1.02
		c2.84-0.24,3.77,0.75,3.55,3.58C625.11,277.56,624.76,287.74,625.21,297.94z"/>
	<path class="st11" d="M575.53,268.17c0.04-8.4,2.07-14.63,7.16-19.72c2.09-2.09,3.86-2.35,5.95,0.08c2.78,3.21,5.99,6,9.76,8.05
		c2.34,1.27,3.07,3.12,2.54,5.62c-2.52,11.77-4.23,23.66-5.45,35.63c-0.13,1.27,0,3.02-1.27,3.54c-1.47,0.6-2.26-1.1-3.06-2.03
		c-5.31-6.12-10.08-12.59-13.12-20.2C576.44,275.17,575.4,271.11,575.53,268.17z"/>
	<path class="st14" d="M568.92,230.71c-1.78-6.79-3.36-13.6-2.4-20.71c3.68-1.29,7.54-1.24,11.35-1.55c2-0.17,3.02,0.27,2.31,2.65
		c-2.65,8.88-2.45,17.66,1.16,26.31c1.56,3.75-1.98,3.47-3.83,4.48c-3.55-2.76-5.18-7.04-8.19-10.22
		C568.71,231.54,568.58,231.22,568.92,230.71z"/>
	<path class="st14" d="M576.34,196.57c-1.26-0.27-2.95-0.07-1.43-2.28c8.88-12.95,35.22-19.89,49.39-12.93
		c1.16,0.57,2.51,0.96,3.06,2.35c-5.24-0.13-10.4-1.47-15.75-0.36c-7.69,1.59-14.71,4.35-20.25,10.02c-2.06,2.1-4.38,2.68-7.1,2.75
		C581.62,196.18,578.98,196.41,576.34,196.57z"/>
	<path class="st14" d="M742.54,209.7c1.18,8.3,1.14,16.51-1.75,24.52c-3.16-1.2-6.11-2.95-9.59-3.33c-1.63-0.18-1.49-1.51-1.13-2.77
		c1.56-5.53,2.07-11.13,1.13-16.82c-0.36-2.19,0.75-2.92,2.71-2.7C736.79,208.92,739.67,209.33,742.54,209.7z"/>
	<path class="st14" d="M721.72,186.08c1.99-1.54,3.67-0.01,5.39,0.62c3.65,1.36,6.38,3.99,8.91,6.84c0.92,1.03,1.88,2.19-0.46,2.72
		c-1.82-0.07-3.65-0.18-5.48-0.21c-1.73-0.02-2.94-0.7-3.8-2.26C724.84,191.18,723.25,188.65,721.72,186.08z"/>
	<path class="st14" d="M1068.27,195.82c0.2-17.64,10.5-26.76,28.67-25.54c10.51,0.71,18.91,5.65,23.64,15.21
		c4.5,9.08,4.67,18.48-1.16,27.25c-5.06,7.6-12.68,10.97-21.52,12c-2.69,0.31-4.47-1.14-6.07-3.09
		c-5.14-6.27-11.01-11.46-19.4-12.96c-1.9-0.34-2.79-1.85-3.18-3.67C1068.56,201.77,1068.1,198.49,1068.27,195.82z"/>
	<path class="st14" d="M1004.96,193.69c-0.06-12.45,9.16-22.33,22.02-23.6c18.76-1.85,33.94,15.88,29.42,34.3
		c-0.69,2.82-2.05,4.52-5.01,5.3c-5.14,1.35-10.03,3.67-13.53,7.65c-4.53,5.15-9.63,4.63-15.04,2.53
		C1012.62,215.9,1005.02,204.59,1004.96,193.69z"/>
	<path class="st28" d="M1074.13,287.27c3.82,1.97,7.18,0.3,10.63,0.13c1.17-0.06,2.65-0.68,3.41,0.29c0.85,1.1-0.42,2.19-0.97,3.17
		c-2.8,4.98-5.88,9.76-10.4,13.42c-6.8,5.51-14,5.15-20.37-0.86c-9.05-8.54-14.44-19.51-20.33-30.16c-1.04-1.87-0.43-2.89,1.53-3.55
		c7.22-2.43,13.79-6.16,20.07-10.39c2.29-1.54,4.31-1.5,6.58,0.04c8.79,5.96,17.79,11.56,28.04,14.78c2.34,0.74,2.36,2.08,1.3,3.94
		c-1.34,2.35-3.46,3.48-5.94,4.31C1083.14,283.91,1078.65,285.63,1074.13,287.27z"/>
	<path class="st12" d="M1170.16,314.43c0.3-2.31-1.74-3.44-2.66-5.13c-4.26-7.79-6.16-16.28-6.9-24.94
		c-1.52-17.69,2.25-34.58,8.9-50.91c2.23-5.48,1.43-6.61-2.19-11.33c-7.01-9.12-16.37-12.27-27.28-12.47
		c-0.56-0.23-0.58-0.51-0.06-0.83c7.9-0.2,15.42,2.19,23.11,3.39c6,0.94,11.89,2.53,17.89,3.44c4.18,0.64,4.73,2.87,3.97,6.39
		c-1.66,7.6-3.93,15.06-4.9,22.81c-2.28,18.16-2.25,36.31,0.28,54.45c0.29,2.08,0.81,4.17-0.08,6.24
		C1175.84,307.35,1173.32,311.25,1170.16,314.43z"/>
	<path class="st14" d="M1024.35,241.84c-14.96-6-27.95-14.2-32.34-30.98c-1.64-6.27-1.37-12.78,1.95-18.75
		c2.1,0.59,2.31,2.28,2.4,4.06c0.94,17.55,15,32.5,28.76,34.88c2.78,0.48,3.59,1.89,2.39,4.46
		C1026.52,237.65,1026.09,240.06,1024.35,241.84z"/>
	<path class="st14" d="M1139.96,208.82c-4.86-1.36-6.37-0.75-9,4.37c-3.98,7.76-9.66,13.76-17.6,17.49
		c-2.35,1.11-4.87,1.88-7.31,2.81c0.94-0.5-2.06,0.5-4.05,1.26c-0.94,0.36,1.41,3.62,2.28,4.04c1.72-0.8,2.7-0.82,4.1-0.9
		c2.77-0.15,7.68-2.36,7.68-2.36c11.27-4.9,20.94-14.54,23.96-25.89C1140,209.37,1139.98,209.1,1139.96,208.82z"/>
	<path class="st29" d="M253.99,286.42c-7.6,0.08-16.15-5.93-24.19-12.83c-5.94-5.1-11.35-10.75-16.26-16.86
		c-1.58-1.97-2.95-4.07-3.86-6.45c-2.97-7.68-0.77-14.5,6.19-18.95c5.3-3.38,11.29-5,17.42-4.86c22.51,0.49,44.69-3.22,67.03-4.78
		c6.96-0.48,10.53,3.51,8.95,10.35c-0.41,1.79-1.01,3.59-1.82,5.24c-7.08,14.61-15.56,28.3-27.14,39.86
		C274.25,283.19,266.08,286.42,253.99,286.42z"/>
	<path class="st30" d="M300.6,166.07c0.02,4.21-2.98,7.54-6.87,7.64c-4.1,0.1-7.19-3.04-7.12-7.25c0.07-4.45,3.49-8.26,7.4-8.24
		C297.77,158.23,300.58,161.58,300.6,166.07z"/>
	<path class="st31" d="M233.38,165.02c4.07,0.04,7.41,3.72,7.43,8.17c0.02,4.32-3.44,7.81-7.76,7.83c-4.28,0.02-7.39-3.42-7.32-8.11
		C225.79,168.42,229.13,164.97,233.38,165.02z"/>
	<path class="st12" d="M1139.84,336.05c-5.82-2.51-11.41-0.23-17.01,0.92c-7.47,1.54-7.53,1.61-11.21-5.05
		c-0.7-1.26-1.44-2.5-2.16-3.75c4.39,2.79,9.02,2.35,13.9,1.54c4.34-0.72,8.78-0.43,11.89,3.56
		C1136.42,334.77,1138.91,334.13,1139.84,336.05z"/>
	<path class="st10" d="M1103.91,324.25c-3.21-0.83-6.3-0.14-9.38,0.76C1097.5,322.69,1100.53,321.33,1103.91,324.25z"/>
	<path class="st32" d="M569.32,231.67c-1.26,2.98-3.85,4.29-6.73,5.03c-3.12,0.8-4.33,2.62-3.98,5.78c0.19,1.69,0.1,3.43-0.05,5.14
		c-0.1,1.1-0.75,1.96-2.02,2.09c-1.13,0.11-2.06-0.16-2.79-1.12c-2.23-2.92-2.01-11.59,0.4-14.37c3-3.45,11.31-5.43,14.77-3.51
		C569.05,231.03,569.18,231.35,569.32,231.67z"/>
	<path class="st33" d="M765.92,236.22c-0.09,1.1-0.1,2.83-0.42,4.51c-0.27,1.45-1.31,2.29-2.89,2.15c-1.6-0.15-2.58-1.25-2.3-2.67
		c1.43-7.38-1.57-10.93-9.04-11.13c-1.63-0.04-2.56-1.35-2.27-3.11c0.26-1.6,1.45-2.11,2.9-2.16c3.34-0.11,6.66,0.11,9.75,1.53
		C766.21,227.42,765.74,231.64,765.92,236.22z"/>
	<path class="st34" d="M652.71,163.59c-6.36,0.01-12.73,0-19.09,0.05c-2.51,0.02-4.55-0.56-4.89-3.45
		c-0.36-3.04,1.54-4.18,4.14-4.81c3.4-0.82,6.86-0.67,10.29-0.74c2.25-0.04,3.82-0.39,4.03-3.13c0.2-2.67,1.92-4.35,4.58-4.75
		c3.09-0.47,5.76,0.7,6.88,3.53c1.08,2.74,2.8,3.05,5.27,2.91c3.31-0.19,6.63-0.2,9.94-0.14c2.62,0.05,4.75,1.08,5.05,4
		c0.32,3.11-1.84,4.31-4.39,4.54c-7.26,0.66-14.54,1.11-21.81,1.64C652.71,163.36,652.71,163.48,652.71,163.59z"/>
	<path class="st35" d="M689.71,207.01c0.03,4.42-3.4,7.98-7.64,7.96c-4.22-0.02-8-3.97-7.97-8.3c0.03-4.33,3.57-7.97,7.74-7.98
		C686.09,198.68,689.68,202.47,689.71,207.01z"/>
	<path class="st36" d="M634.56,212.04c0.02,4.8-3.59,8.81-7.9,8.77c-4.31-0.04-7.67-3.81-7.59-8.52c0.07-4.56,3.6-8.01,8.14-7.97
		C631.44,204.36,634.54,207.62,634.56,212.04z"/>
	<path class="st14" d="M740.55,245.39c-4.96-8.07-13.22-9.04-19.64-2.41c-0.83,0.86-1.62,1.76-2.54,2.51
		c-2.14,1.74-2.28,3.51-0.75,5.84c3.58,5.43,6.12,11.39,8.66,17.37c2.05,4.84,2.9,10.12,5.56,14.72c-0.21,1.18-0.51,2.6,0.99,2.97
		c1.42,0.35,2-1.03,2.55-2.07c2.61-4.91,5.26-9.84,6.87-15.17C744.69,261.08,745.22,252.99,740.55,245.39z"/>
	<path d="M1090.87,196.26c-4.21-0.02-7.57-3.33-7.66-7.53c-0.08-4.23,3.56-8.36,7.42-8.42c4.09-0.05,8.18,4,8.23,8.17
		C1098.92,192.42,1094.95,196.27,1090.87,196.26z"/>
	<path class="st6" d="M1032.01,185.3c0.11,3.72-3.03,7.2-6.49,7.18c-3.33-0.01-6.13-2.92-6.2-6.44c-0.07-3.71,2.69-6.74,6.25-6.86
		C1029.06,179.06,1031.91,181.77,1032.01,185.3z"/>
	<path class="st0" d="M1096.79,60.61c2.58-1.31,4.21-3.61,8.35-6.52c9.11-4.76,15.24-4.94,24.38-0.08c3.96,2.11,7.48,4.99,9.69,8.73
		c7.09,12.88,4.1,23.68-2.53,35.23c0.63-6.66,1.13-12.27-0.39-19.03c-1.31-5.8-3.44-11.04-7.95-15.18
		c-6.18-5.67-15.98-6.26-22.68-1.2c-5.22,3.94-4.22,3.94-7.81-1.33C1097.48,60.7,1097.14,61.15,1096.79,60.61z"/>
	<path class="st0" d="M1285.74,319.12c-6.03-12.17-16.44-16.53-29.33-15.93c-7.6,0.36-14.98,0.2-22.31-2.28
		c-6.18-2.09-12.56-0.54-18.86,0.01c2.41-6.08,7.76-9.25,13.03-12.08c7.11-3.81,15.27-5.16,21.88,0.02
		c10.58,8.29,22.35,8.65,34.68,7.78c1.8,3.83,1.31,7.99,1.74,12.01C1285.9,312.11,1287.18,315.72,1285.74,319.12z"/>
	<path class="st0" d="M903.25,349.14c0.06-1.68,1.32-2.78,2.11-4.06c0.94-1.51,0.58-2.61-0.4-3.78c1.16-0.12,2.37,1.09,3.48-0.58
		c4.33-6.49,10.36-11.16,16.9-15.25c0.3,0.03,0.6,0.05,0.9,0.08c-2.21,3.75-4.39,7.51-6.64,11.23c-1.91,3.17-3.27,6.55-3.99,10.19
		c-0.45,1.5-1.18,2.37-3.01,2.26C909.5,349.04,906.37,349.15,903.25,349.14z"/>
	<path class="st0" d="M1164.39,348.72c3.84-10.75,7.95-21.36,15.75-30.04c3.84-4.27,8.42-7.12,14.32-7.73
		c9.27-0.97,15.1,3.75,19.12,11.36c4.48,8.47,6.74,17.48,5.94,27.14c-1.29,0.82-2.73,0.8-4.18,0.8c-7.75-0.01-15.5,0.02-23.26-0.01
		c-1.28,0-2.66,0.33-3.73-0.76c-1.05-1.71,0.18-3.33,0.19-5c0.01-1.29-0.25-2.48-1.64-2.83c-1.27-0.33-1.82,0.77-2.45,1.63
		c-1.4,1.9-1.15,4.68-3.31,6.17C1175.48,351.32,1169.95,349.79,1164.39,348.72z"/>
	<path class="st0" d="M962.12,318.94c12.08,7.15,14.37,19.26,16.12,31.65c-0.94,1.01-2.18,0.84-3.35,0.82
		c-7.68-0.12-15.37,0.25-23.02-0.75c-1.5-0.2-2.62-0.37-2.53-2.19c-0.06-0.12-0.13-0.23-0.17-0.35c-0.62-1.9,1.09-5.02-2.14-5.48
		c-2.83-0.41-3.06,2.69-4.16,4.45c-0.63,1-1.26,1.95-2.18,2.7c-4.11,0.01-8.21,0-12.32,0.04c-1.61,0.02-2.92-0.27-3.05-2.22
		c2.89-6.63,4.58-13.89,9.83-19.31c5.7-5.89,11.62-11.31,20.78-10.64C958.1,317.81,960.02,318.74,962.12,318.94z"/>
	<path class="st0" d="M1054.09,349.74c-3.21-4.71-5.08-10.09-7.58-15.16c-2.77-5.62-6.21-10.79-10.31-15.43
		c-7.29-8.26-16.61-10-26.72-6.39c-5.07,1.81-9.59,1.41-14.09-0.94c-6.93-3.6-13.84-4.19-20.87-0.44c-4.5,2.4-8.1-0.56-11.97-1.89
		c4.36-0.28,7.76-2.36,10.67-5.47c1.72-1.83,3.55-3.56,5.71-4.92c4.51-2.84,14.33-1.76,18.05,1.89c7.47,7.33,10.99,5.94,20.44,2.96
		c9.98-3.15,19.08-0.37,26.45,7.38c4.78,5.03,9.18,10.27,11.56,16.91c2.13,5.94,6.3,10.31,10.89,14.42c2.53,2.27,5.3,4.49,5.72,8.25
		C1066.07,350.65,1059.95,352.16,1054.09,349.74z"/>
	<path class="st0" d="M1256.98,348.59c1.14-11.05-1.84-21.19-7.15-30.69c-1.52-2.73-1.16-3.96,1.71-4.84
		c13.43-4.1,21.89-1.53,29.61,14.06c2.48,5.01,3.51,10.5,4.6,15.95c-0.55,2.39,0.66,4.6,0.73,6.92c-0.54,1.19-1.59,1.2-2.68,1.2
		c-8.05,0.01-16.11,0.02-24.16,0.05c-0.97,0-1.84-0.13-2.45-0.98C1257.11,349.7,1257.05,349.15,1256.98,348.59z"/>
	<path class="st0" d="M1226.13,341.56c-0.98-9.72-3.53-18.9-9.65-26.75c-2.14-2.74-1.29-3.99,1.65-5.12
		c10.78-4.14,22.3,0.23,26.72,10.92c3.47,8.4,6.24,17.12,5.69,26.46c-0.62,3.4-2.73,4.14-5.96,3.88c-4.34-0.34-8.73-0.33-13.08-0.17
		c-3.69,0.14-5.44-1.08-4.94-4.99C1226.73,344.42,1227.02,342.89,1226.13,341.56z"/>
	<path class="st0" d="M984.7,346.75c-1.48-8.65-3.69-17.07-8.76-24.41c-1.66-2.4-0.77-3.39,1.46-4.43
		c8.34-3.91,19.08-0.53,24.67,7.99c5.04,7.7,7.29,16.33,8.02,25.41c-5.49,1.24-11.02,0.5-16.54,0.42c-0.79-0.01-1.61-0.38-2.35-0.24
		C987.31,352.2,985.01,350.85,984.7,346.75z"/>
	<path class="st0" d="M1016.52,347.6c-1.04-8.47-3.33-16.56-7.79-23.9c-1.21-1.99-0.44-2.71,1.28-3.57
		c7.65-3.81,15.81-2.36,21.2,4.18c6.46,7.84,10.67,16.98,14.7,26.2c-3.52,2-7.44,1.75-11.12,1.29c-4.34-0.54-8.65-0.62-12.95-0.43
		C1018.82,351.51,1016.93,350.81,1016.52,347.6z"/>
	<path class="st0" d="M1028.03,134.73c-0.12-4.66,1.15-5.87,5.64-4.7c4.72,1.24,9.34,2.89,14,4.36c1.95,0.61,2.29,2.1,1.85,3.79
		c-1.95,7.39-4.53,14.61-5.76,22.19c-0.2,1.21-1.02,1.75-2.23,1.84c-2.01,0.16-3.33-0.96-4.18-2.5c-3.11-5.66-6.41-11.25-8.01-17.6
		C1028.73,139.68,1028.01,137.27,1028.03,134.73z"/>
	<path class="st0" d="M1149.13,148.35L1149.13,148.35c-0.9-1.53-2.41-1.51-3.85-1.36c-5.51,0.58-11.01,1.28-16.53,1.88
		c-10.94,1.2-21.87,1.54-32.78-0.34c-8.34-1.43-15.69-5.4-23.18-9.01c0,0-0.01,0.01-0.01,0.01c0,0,0.01-0.01,0.01-0.01
		c0.82-2.42,2.64-1.21,3.95-0.89c11.02,2.65,22.15,4.02,33.51,3.62c2.51-0.09,4.44-0.56,5.05-3.35c3.07-14.11,8.02-27.67,12-41.52
		c2.26-7.85,3.13-15.87-0.94-23.59c-3.9-7.41-10.87-9.37-18.07-5.13c-5.19,3.06-8.24,7.69-10.27,13.18
		c-0.66,1.79-0.92,3.87-3.01,5.09c-1.37-2.33-0.83-4.68-0.52-6.97c0.38-2.78,0.4-5.5-0.13-8.28c-0.82-4.23-2.78-7.55-7.11-8.71
		c-4.11-1.1-7.49,0.69-10.43,3.49c-6.52,6.2-7.86,14.48-9.06,22.75c-2.48,17.16-5.53,34.19-10.99,50.71
		c-2.2,6.66-4.47,13.3-6.59,19.99c-0.9,2.84-1.48,7.52,1.82,9.08c4.89,2.31,9.22,8.08,12,6c12-9,16-13,34-13c20,0,26,14,31,13
		c4.73-4.42,16.13-15.51,19.67-20.96C1149.82,152.28,1151.17,150.42,1149.13,148.35z M1103.1,150.42
		C1103.1,150.42,1103.1,150.42,1103.1,150.42C1103.1,150.42,1103.1,150.42,1103.1,150.42C1103.1,150.42,1103.1,150.42,1103.1,150.42
		z"/>
	<path class="st14" d="M267.1,256.29c5.29,0.88,9.64,0.05,13.96,0.23c1.01,0.04,2.27-0.45,2.94,0.62c0.73,1.15-0.37,1.96-0.95,2.78
		c-3.44,4.89-7.1,9.61-12.13,13c-7.85,5.29-15.99,5.95-24.36,1.22c-11.32-6.39-20.14-15.45-27.46-26.02
		c-2.74-3.96-1.97-6.71,2.19-9.23c2.41-1.47,5.06-2.35,7.85-2.68c3.16-0.38,6.34-0.88,9.51-0.87c19.13,0.06,38.2-0.74,57.1-3.94
		c1.24-0.21,2.87-0.9,3.76,0.29c1.08,1.44-0.38,2.72-1.06,3.91c-8.25,14.46-5.75,13.79-22.56,17.65
		C273.21,253.86,270.49,254.43,267.1,256.29z"/>
	<path class="st37" d="M1084.59,188.43c0.06-3.95,2.7-6.81,6.26-6.78c3.76,0.03,6.7,3.1,6.66,6.95c-0.04,3.53-3.12,6.57-6.64,6.55
		C1087.15,195.11,1084.53,192.31,1084.59,188.43z"/>
</g>
</svg>
